<?xml version="1.0" encoding="UTF-8"?>
<svg xmlns="http://www.w3.org/2000/svg" width="20mm" height="20mm" viewBox="0 0 32 32" shape-rendering="crispEdges">
<title>100 右侧面 structured semantic redraw</title>
<metadata>registered 32-unit semantic vector redraw; no embedded raster; physical-size=20mm</metadata>
<rect x="0" y="0" width="32" height="32" fill="#3a3a3a"/>
<rect x="19" y="0" width="1" height="1" fill="#494949"/>
<rect x="1" y="0" width="2" height="1" fill="#c7c7c7"/>
<rect x="22" y="0" width="1" height="1" fill="#9259a0"/>
<rect x="4" y="0" width="1" height="1" fill="#bfbfbf"/>
<rect x="3" y="0" width="1" height="1" fill="#cccbcc"/>
<rect x="23" y="0" width="1" height="1" fill="#3f3d40"/>
<rect x="25" y="0" width="1" height="1" fill="#3b3b3b"/>
<rect x="24" y="0" width="1" height="1" fill="#3c3c3c"/>
<rect x="10" y="0" width="5" height="1" fill="#828083"/>
<rect x="15" y="0" width="4" height="1" fill="#5c5c5c"/>
<rect x="5" y="0" width="2" height="1" fill="#bbbbbb"/>
<rect x="7" y="0" width="3" height="1" fill="#a7a7a7"/>
<rect x="21" y="0" width="1" height="2" fill="#ad51c1"/>
<rect x="20" y="0" width="1" height="2" fill="#524456"/>
<rect x="6" y="1" width="1" height="1" fill="#3b3b3b"/>
<rect x="14" y="1" width="1" height="1" fill="#393939"/>
<rect x="24" y="1" width="6" height="1" fill="#3b3b3b"/>
<rect x="10" y="1" width="1" height="1" fill="#393939"/>
<rect x="13" y="1" width="1" height="1" fill="#383838"/>
<rect x="22" y="1" width="1" height="1" fill="#9b4dac"/>
<rect x="7" y="1" width="1" height="1" fill="#393939"/>
<rect x="5" y="1" width="1" height="1" fill="#3c3c3c"/>
<rect x="8" y="1" width="2" height="1" fill="#383838"/>
<rect x="12" y="1" width="1" height="1" fill="#393939"/>
<rect x="2" y="1" width="1" height="2" fill="#c7c6c6"/>
<rect x="3" y="1" width="1" height="2" fill="#c7c7c7"/>
<rect x="23" y="2" width="2" height="1" fill="#82488f"/>
<rect x="9" y="2" width="1" height="1" fill="#3f3d40"/>
<rect x="20" y="2" width="1" height="1" fill="#3f3d40"/>
<rect x="25" y="2" width="5" height="1" fill="#3c3c3c"/>
<rect x="21" y="2" width="2" height="1" fill="#67436f"/>
<rect x="7" y="2" width="1" height="1" fill="#3f3d40"/>
<rect x="8" y="2" width="1" height="1" fill="#434144"/>
<rect x="5" y="2" width="2" height="1" fill="#3c3c3c"/>
<rect x="15" y="2" width="2" height="1" fill="#393939"/>
<rect x="13" y="2" width="1" height="1" fill="#393939"/>
<rect x="10" y="2" width="2" height="2" fill="#3b3b3b"/>
<rect x="8" y="3" width="1" height="1" fill="#c7c7c7"/>
<rect x="27" y="3" width="3" height="1" fill="#3c3c3c"/>
<rect x="7" y="3" width="1" height="1" fill="#c6c6c6"/>
<rect x="14" y="3" width="3" height="1" fill="#393939"/>
<rect x="9" y="3" width="1" height="1" fill="#828083"/>
<rect x="21" y="3" width="1" height="1" fill="#3a3b3a"/>
<rect x="26" y="3" width="1" height="1" fill="#3b3b3b"/>
<rect x="23" y="3" width="1" height="1" fill="#ad51c1"/>
<rect x="6" y="3" width="1" height="1" fill="#5c5c5c"/>
<rect x="24" y="3" width="1" height="1" fill="#9259a0"/>
<rect x="5" y="3" width="1" height="1" fill="#3b3b3b"/>
<rect x="2" y="3" width="2" height="2" fill="#c7c7c7"/>
<rect x="25" y="3" width="1" height="2" fill="#3a3b3a"/>
<rect x="22" y="3" width="1" height="2" fill="#524456"/>
<rect x="5" y="4" width="1" height="1" fill="#524456"/>
<rect x="7" y="4" width="1" height="1" fill="#5c5c5c"/>
<rect x="6" y="4" width="1" height="1" fill="#a7a7a7"/>
<rect x="15" y="4" width="1" height="1" fill="#393939"/>
<rect x="9" y="4" width="2" height="1" fill="#828083"/>
<rect x="23" y="4" width="1" height="1" fill="#82488f"/>
<rect x="26" y="4" width="3" height="1" fill="#3c3c3c"/>
<rect x="8" y="4" width="1" height="1" fill="#494949"/>
<rect x="17" y="4" width="1" height="1" fill="#3b3b3b"/>
<rect x="24" y="4" width="1" height="1" fill="#67436f"/>
<rect x="11" y="4" width="1" height="2" fill="#3b3b3b"/>
<rect x="25" y="5" width="1" height="1" fill="#3c3c3c"/>
<rect x="24" y="5" width="1" height="1" fill="#3a3b3a"/>
<rect x="8" y="5" width="1" height="1" fill="#a7a7a7"/>
<rect x="10" y="5" width="1" height="1" fill="#494949"/>
<rect x="6" y="5" width="2" height="1" fill="#5c5c5c"/>
<rect x="9" y="5" width="1" height="1" fill="#828083"/>
<rect x="5" y="5" width="1" height="1" fill="#434144"/>
<rect x="27" y="5" width="2" height="1" fill="#3c3c3c"/>
<rect x="26" y="5" width="1" height="1" fill="#3b3b3b"/>
<rect x="21" y="5" width="2" height="1" fill="#3b3b3b"/>
<rect x="2" y="5" width="1" height="1" fill="#c7c6c6"/>
<rect x="3" y="5" width="1" height="1" fill="#c7c7c7"/>
<rect x="23" y="5" width="1" height="1" fill="#3b3b3a"/>
<rect x="13" y="4" width="1" height="3" fill="#393939"/>
<rect x="29" y="4" width="1" height="3" fill="#3b3b3b"/>
<rect x="22" y="6" width="1" height="1" fill="#3b3b3b"/>
<rect x="20" y="6" width="1" height="1" fill="#3b3b3b"/>
<rect x="9" y="6" width="1" height="1" fill="#5c5c5c"/>
<rect x="18" y="6" width="1" height="1" fill="#3b3b3b"/>
<rect x="10" y="6" width="1" height="1" fill="#393939"/>
<rect x="23" y="6" width="6" height="1" fill="#3c3c3c"/>
<rect x="8" y="6" width="1" height="1" fill="#828083"/>
<rect x="7" y="6" width="1" height="2" fill="#494949"/>
<rect x="5" y="6" width="1" height="2" fill="#3c3c3c"/>
<rect x="6" y="6" width="1" height="2" fill="#3b3b3b"/>
<rect x="2" y="6" width="2" height="2" fill="#c7c7c7"/>
<rect x="14" y="7" width="1" height="1" fill="#393939"/>
<rect x="8" y="7" width="1" height="1" fill="#5c5c5c"/>
<rect x="27" y="7" width="3" height="1" fill="#3b3b3b"/>
<rect x="12" y="7" width="1" height="1" fill="#393939"/>
<rect x="20" y="7" width="4" height="1" fill="#3b3b3b"/>
<rect x="16" y="7" width="2" height="1" fill="#3b3b3b"/>
<rect x="9" y="7" width="1" height="1" fill="#393939"/>
<rect x="24" y="7" width="3" height="1" fill="#3c3c3c"/>
<rect x="18" y="7" width="2" height="2" fill="#3c3c3c"/>
<rect x="7" y="8" width="1" height="1" fill="#5c5c5c"/>
<rect x="29" y="8" width="1" height="1" fill="#3b3b3b"/>
<rect x="6" y="8" width="1" height="1" fill="#3c3c3c"/>
<rect x="20" y="8" width="3" height="1" fill="#3b3b3b"/>
<rect x="5" y="8" width="1" height="1" fill="#3c3d3c"/>
<rect x="23" y="8" width="6" height="1" fill="#3c3c3c"/>
<rect x="8" y="8" width="1" height="1" fill="#828083"/>
<rect x="9" y="8" width="1" height="1" fill="#383838"/>
<rect x="2" y="8" width="1" height="2" fill="#c7c6c6"/>
<rect x="21" y="9" width="1" height="1" fill="#3b3b3b"/>
<rect x="6" y="9" width="1" height="1" fill="#3b3b3b"/>
<rect x="13" y="9" width="1" height="1" fill="#393939"/>
<rect x="15" y="9" width="5" height="1" fill="#828083"/>
<rect x="23" y="9" width="1" height="1" fill="#3b3b3b"/>
<rect x="20" y="9" width="1" height="1" fill="#3c3c3c"/>
<rect x="24" y="9" width="5" height="1" fill="#3c3c3c"/>
<rect x="22" y="9" width="1" height="1" fill="#3c3c3c"/>
<rect x="14" y="9" width="1" height="1" fill="#5c5c5c"/>
<rect x="5" y="9" width="1" height="1" fill="#3c3c3c"/>
<rect x="10" y="9" width="1" height="2" fill="#3b3b3b"/>
<rect x="11" y="9" width="1" height="2" fill="#3c3c3c"/>
<rect x="2" y="10" width="1" height="1" fill="#c6c6c6"/>
<rect x="21" y="10" width="3" height="1" fill="#3c3c3c"/>
<rect x="15" y="10" width="4" height="1" fill="#cccbcc"/>
<rect x="12" y="10" width="2" height="1" fill="#3b3b3b"/>
<rect x="25" y="10" width="2" height="1" fill="#3c3c3c"/>
<rect x="19" y="10" width="1" height="1" fill="#bbbbbb"/>
<rect x="24" y="10" width="1" height="1" fill="#3b3b3b"/>
<rect x="27" y="10" width="1" height="1" fill="#3c3d3c"/>
<rect x="31" y="0" width="1" height="12" fill="#bbbbbb"/>
<rect x="14" y="10" width="1" height="2" fill="#bbbbbb"/>
<rect x="5" y="10" width="2" height="2" fill="#3c3c3c"/>
<rect x="25" y="11" width="1" height="1" fill="#3b3b3b"/>
<rect x="20" y="11" width="1" height="1" fill="#5c5c5c"/>
<rect x="16" y="11" width="1" height="1" fill="#bfbfbf"/>
<rect x="15" y="11" width="1" height="1" fill="#c3c3c3"/>
<rect x="19" y="11" width="1" height="1" fill="#a7a7a7"/>
<rect x="13" y="11" width="1" height="1" fill="#434144"/>
<rect x="10" y="11" width="2" height="1" fill="#3b3b3b"/>
<rect x="26" y="11" width="1" height="1" fill="#3c3c3c"/>
<rect x="7" y="11" width="1" height="1" fill="#3b3b3b"/>
<rect x="22" y="11" width="1" height="1" fill="#3c3c3c"/>
<rect x="12" y="11" width="1" height="1" fill="#3f3d40"/>
<rect x="17" y="11" width="2" height="1" fill="#bbbbbb"/>
<rect x="21" y="11" width="1" height="1" fill="#494949"/>
<rect x="23" y="11" width="1" height="2" fill="#3b3b3b"/>
<rect x="24" y="11" width="1" height="2" fill="#3c3c3c"/>
<rect x="6" y="12" width="1" height="1" fill="#3c3c3c"/>
<rect x="14" y="12" width="1" height="1" fill="#524456"/>
<rect x="31" y="12" width="1" height="1" fill="#bfbfbf"/>
<rect x="17" y="12" width="2" height="1" fill="#3c3d3c"/>
<rect x="25" y="12" width="2" height="1" fill="#3b3b3b"/>
<rect x="13" y="12" width="1" height="1" fill="#c6c6c6"/>
<rect x="15" y="12" width="2" height="1" fill="#3f3d40"/>
<rect x="11" y="12" width="1" height="1" fill="#393939"/>
<rect x="30" y="0" width="1" height="14" fill="#5c5c5c"/>
<rect x="27" y="11" width="1" height="3" fill="#3f3d40"/>
<rect x="5" y="12" width="1" height="2" fill="#3c3d3c"/>
<rect x="12" y="12" width="1" height="2" fill="#a7a7a7"/>
<rect x="8" y="13" width="1" height="1" fill="#393939"/>
<rect x="14" y="13" width="1" height="1" fill="#494949"/>
<rect x="13" y="13" width="1" height="1" fill="#cccbcc"/>
<rect x="15" y="13" width="3" height="1" fill="#3b3b3b"/>
<rect x="6" y="13" width="1" height="1" fill="#3b3c3a"/>
<rect x="9" y="13" width="2" height="1" fill="#393a39"/>
<rect x="2" y="11" width="1" height="4" fill="#c7c6c6"/>
<rect x="24" y="13" width="2" height="2" fill="#3b3b3b"/>
<rect x="18" y="13" width="1" height="2" fill="#3c3c3c"/>
<rect x="31" y="13" width="1" height="2" fill="#bbbbbb"/>
<rect x="23" y="13" width="1" height="2" fill="#3c3c3c"/>
<rect x="7" y="14" width="1" height="1" fill="#67436f"/>
<rect x="12" y="14" width="2" height="1" fill="#5c5c5c"/>
<rect x="14" y="14" width="1" height="1" fill="#3f3d40"/>
<rect x="5" y="14" width="1" height="1" fill="#434144"/>
<rect x="16" y="14" width="2" height="1" fill="#3b3b3b"/>
<rect x="6" y="14" width="1" height="1" fill="#82488f"/>
<rect x="8" y="14" width="1" height="1" fill="#3a3a39"/>
<rect x="10" y="14" width="1" height="1" fill="#82488f"/>
<rect x="11" y="14" width="1" height="1" fill="#524456"/>
<rect x="9" y="14" width="1" height="1" fill="#67436f"/>
<rect x="21" y="12" width="1" height="4" fill="#a7a7a7"/>
<rect x="20" y="12" width="1" height="4" fill="#cccbcc"/>
<rect x="19" y="12" width="1" height="4" fill="#5c5c5c"/>
<rect x="26" y="13" width="1" height="3" fill="#3c3c3c"/>
<rect x="29" y="14" width="1" height="2" fill="#393939"/>
<rect x="2" y="15" width="1" height="1" fill="#c6c6c6"/>
<rect x="11" y="15" width="1" height="1" fill="#67436f"/>
<rect x="16" y="15" width="3" height="1" fill="#3b3b3b"/>
<rect x="14" y="15" width="1" height="1" fill="#3b3b3b"/>
<rect x="12" y="15" width="1" height="1" fill="#3a3b3a"/>
<rect x="23" y="15" width="3" height="1" fill="#3b3b3b"/>
<rect x="8" y="15" width="1" height="1" fill="#383838"/>
<rect x="10" y="15" width="1" height="1" fill="#ad51c1"/>
<rect x="9" y="15" width="1" height="1" fill="#82488f"/>
<rect x="7" y="15" width="1" height="1" fill="#82488f"/>
<rect x="22" y="13" width="1" height="4" fill="#383838"/>
<rect x="6" y="15" width="1" height="2" fill="#ad51c1"/>
<rect x="18" y="16" width="3" height="1" fill="#828083"/>
<rect x="13" y="16" width="1" height="1" fill="#3f3d40"/>
<rect x="29" y="16" width="1" height="1" fill="#383838"/>
<rect x="7" y="16" width="1" height="1" fill="#9b4dac"/>
<rect x="11" y="16" width="2" height="1" fill="#67436f"/>
<rect x="10" y="16" width="1" height="1" fill="#82488f"/>
<rect x="21" y="16" width="1" height="1" fill="#5c5c5c"/>
<rect x="8" y="16" width="2" height="1" fill="#67436f"/>
<rect x="23" y="16" width="4" height="1" fill="#3b3b3b"/>
<rect x="4" y="1" width="1" height="17" fill="#494949"/>
<rect x="5" y="15" width="1" height="3" fill="#524456"/>
<rect x="15" y="16" width="2" height="2" fill="#3b3b3b"/>
<rect x="17" y="16" width="1" height="2" fill="#494949"/>
<rect x="10" y="17" width="1" height="1" fill="#393a39"/>
<rect x="12" y="17" width="1" height="1" fill="#ad51c1"/>
<rect x="18" y="17" width="1" height="1" fill="#cccbcc"/>
<rect x="6" y="17" width="3" height="1" fill="#ad51c1"/>
<rect x="9" y="17" width="1" height="1" fill="#67436f"/>
<rect x="3" y="8" width="1" height="11" fill="#c7c7c7"/>
<rect x="28" y="10" width="1" height="9" fill="#3c3c3c"/>
<rect x="27" y="14" width="1" height="5" fill="#3c3d3c"/>
<rect x="11" y="17" width="1" height="2" fill="#82488f"/>
<rect x="20" y="17" width="1" height="2" fill="#383838"/>
<rect x="13" y="17" width="1" height="2" fill="#524456"/>
<rect x="19" y="17" width="1" height="2" fill="#a7a7a7"/>
<rect x="26" y="17" width="1" height="2" fill="#3b3b3b"/>
<rect x="16" y="18" width="2" height="1" fill="#5c5c5c"/>
<rect x="6" y="18" width="1" height="1" fill="#9b4dac"/>
<rect x="15" y="18" width="1" height="1" fill="#3c3d3c"/>
<rect x="18" y="18" width="1" height="1" fill="#bbbbbb"/>
<rect x="7" y="18" width="2" height="1" fill="#ad51c1"/>
<rect x="12" y="18" width="1" height="1" fill="#9b4dac"/>
<rect x="23" y="18" width="2" height="1" fill="#3b3b3b"/>
<rect x="10" y="18" width="1" height="1" fill="#434144"/>
<rect x="9" y="18" width="1" height="1" fill="#82488f"/>
<rect x="4" y="18" width="2" height="1" fill="#524456"/>
<rect x="29" y="17" width="1" height="3" fill="#393939"/>
<rect x="6" y="19" width="1" height="1" fill="#3e3b3e"/>
<rect x="18" y="19" width="1" height="1" fill="#3c3c3c"/>
<rect x="21" y="19" width="3" height="1" fill="#3b3b3b"/>
<rect x="19" y="19" width="1" height="1" fill="#3b3b3b"/>
<rect x="27" y="19" width="2" height="1" fill="#3c3c3c"/>
<rect x="25" y="19" width="2" height="1" fill="#3b3b3b"/>
<rect x="7" y="19" width="1" height="2" fill="#67436f"/>
<rect x="11" y="19" width="1" height="2" fill="#67436f"/>
<rect x="3" y="19" width="1" height="2" fill="#cccbcc"/>
<rect x="17" y="19" width="1" height="2" fill="#bbbbbb"/>
<rect x="15" y="19" width="1" height="2" fill="#494949"/>
<rect x="4" y="19" width="1" height="2" fill="#ad51c1"/>
<rect x="12" y="19" width="1" height="2" fill="#3c3c3c"/>
<rect x="5" y="19" width="1" height="2" fill="#9b4dac"/>
<rect x="16" y="19" width="1" height="2" fill="#c7c7c7"/>
<rect x="21" y="20" width="1" height="1" fill="#3b3b3b"/>
<rect x="28" y="20" width="1" height="1" fill="#3c3c3c"/>
<rect x="13" y="20" width="1" height="1" fill="#3a3b3a"/>
<rect x="26" y="20" width="1" height="1" fill="#3c3c3c"/>
<rect x="27" y="20" width="1" height="1" fill="#3c3d3c"/>
<rect x="6" y="20" width="1" height="1" fill="#3a3a39"/>
<rect x="8" y="19" width="3" height="3" fill="#ad51c1"/>
<rect x="18" y="20" width="1" height="2" fill="#3b3b3b"/>
<rect x="11" y="21" width="2" height="1" fill="#9b4dac"/>
<rect x="15" y="21" width="1" height="1" fill="#3c3d3c"/>
<rect x="5" y="21" width="1" height="1" fill="#67436f"/>
<rect x="16" y="21" width="2" height="1" fill="#494949"/>
<rect x="6" y="21" width="2" height="1" fill="#9b4dac"/>
<rect x="4" y="21" width="1" height="1" fill="#524456"/>
<rect x="13" y="21" width="1" height="1" fill="#434144"/>
<rect x="26" y="21" width="3" height="1" fill="#3c3c3c"/>
<rect x="22" y="21" width="3" height="1" fill="#3b3b3b"/>
<rect x="30" y="14" width="1" height="9" fill="#828083"/>
<rect x="29" y="20" width="1" height="3" fill="#383838"/>
<rect x="20" y="21" width="1" height="2" fill="#3b3b3b"/>
<rect x="3" y="21" width="1" height="2" fill="#c7c7c7"/>
<rect x="16" y="22" width="1" height="1" fill="#393939"/>
<rect x="5" y="22" width="1" height="1" fill="#524456"/>
<rect x="25" y="22" width="1" height="1" fill="#393939"/>
<rect x="13" y="22" width="1" height="1" fill="#524456"/>
<rect x="4" y="22" width="1" height="1" fill="#494949"/>
<rect x="15" y="22" width="1" height="1" fill="#3b3b3b"/>
<rect x="28" y="22" width="1" height="1" fill="#3b3b3b"/>
<rect x="24" y="22" width="1" height="1" fill="#3b3b3b"/>
<rect x="26" y="22" width="1" height="1" fill="#3b3b3b"/>
<rect x="6" y="22" width="7" height="1" fill="#ad51c1"/>
<rect x="27" y="22" width="1" height="1" fill="#3c3c3c"/>
<rect x="17" y="22" width="1" height="1" fill="#3b3b3b"/>
<rect x="0" y="0" width="1" height="24" fill="#c6c6c6"/>
<rect x="19" y="20" width="1" height="4" fill="#3c3c3c"/>
<rect x="18" y="22" width="1" height="2" fill="#3c3d3c"/>
<rect x="4" y="23" width="2" height="1" fill="#82488f"/>
<rect x="29" y="23" width="1" height="1" fill="#82488f"/>
<rect x="13" y="23" width="1" height="1" fill="#3f3d40"/>
<rect x="16" y="23" width="2" height="1" fill="#828083"/>
<rect x="23" y="23" width="1" height="1" fill="#3b3b3b"/>
<rect x="6" y="23" width="1" height="1" fill="#67436f"/>
<rect x="10" y="23" width="3" height="1" fill="#67436f"/>
<rect x="22" y="23" width="1" height="1" fill="#3c3c3c"/>
<rect x="9" y="23" width="1" height="1" fill="#82488f"/>
<rect x="28" y="23" width="1" height="1" fill="#67436f"/>
<rect x="7" y="23" width="1" height="1" fill="#82488f"/>
<rect x="27" y="23" width="1" height="2" fill="#3b3c3a"/>
<rect x="8" y="23" width="1" height="2" fill="#ad51c1"/>
<rect x="7" y="24" width="1" height="1" fill="#67436f"/>
<rect x="29" y="24" width="1" height="1" fill="#ad51c1"/>
<rect x="16" y="24" width="1" height="1" fill="#cccbcc"/>
<rect x="17" y="24" width="1" height="1" fill="#bbbbbb"/>
<rect x="13" y="24" width="1" height="1" fill="#3a3b3a"/>
<rect x="18" y="24" width="2" height="1" fill="#3c3c3c"/>
<rect x="23" y="24" width="2" height="1" fill="#3b3b3b"/>
<rect x="4" y="24" width="1" height="1" fill="#ad51c1"/>
<rect x="5" y="24" width="1" height="1" fill="#9b4dac"/>
<rect x="28" y="24" width="1" height="1" fill="#82488f"/>
<rect x="2" y="16" width="1" height="10" fill="#c6c5c5"/>
<rect x="14" y="21" width="1" height="5" fill="#3c3c3c"/>
<rect x="3" y="23" width="1" height="3" fill="#cccbcc"/>
<rect x="20" y="23" width="2" height="3" fill="#3b3b3b"/>
<rect x="15" y="23" width="1" height="3" fill="#494949"/>
<rect x="30" y="23" width="1" height="3" fill="#a7a7a7"/>
<rect x="10" y="24" width="1" height="2" fill="#393a39"/>
<rect x="11" y="24" width="1" height="2" fill="#3b3b3b"/>
<rect x="9" y="24" width="1" height="2" fill="#67436f"/>
<rect x="16" y="25" width="1" height="1" fill="#a7a7a7"/>
<rect x="4" y="25" width="2" height="1" fill="#82488f"/>
<rect x="29" y="25" width="1" height="1" fill="#82488f"/>
<rect x="13" y="25" width="1" height="1" fill="#3b3b3b"/>
<rect x="8" y="25" width="1" height="1" fill="#82488f"/>
<rect x="19" y="25" width="1" height="1" fill="#3c3c3c"/>
<rect x="6" y="25" width="1" height="1" fill="#3b3a3c"/>
<rect x="17" y="25" width="1" height="1" fill="#828083"/>
<rect x="7" y="25" width="1" height="1" fill="#524456"/>
<rect x="28" y="25" width="1" height="1" fill="#67436f"/>
<rect x="22" y="24" width="1" height="3" fill="#3c3d3c"/>
<rect x="23" y="25" width="1" height="2" fill="#3b3b3b"/>
<rect x="21" y="26" width="1" height="1" fill="#3b3b3b"/>
<rect x="19" y="26" width="1" height="1" fill="#3b3b3b"/>
<rect x="7" y="26" width="1" height="1" fill="#3c3c3b"/>
<rect x="28" y="26" width="1" height="1" fill="#3b3b3b"/>
<rect x="14" y="26" width="2" height="1" fill="#3c3c3c"/>
<rect x="9" y="26" width="1" height="1" fill="#393939"/>
<rect x="5" y="26" width="1" height="1" fill="#393a39"/>
<rect x="2" y="26" width="1" height="1" fill="#c7c6c6"/>
<rect x="26" y="23" width="1" height="5" fill="#3c3c3c"/>
<rect x="22" y="27" width="2" height="1" fill="#3c3c3c"/>
<rect x="19" y="27" width="3" height="1" fill="#3b3b3b"/>
<rect x="15" y="27" width="1" height="1" fill="#3c3c3c"/>
<rect x="16" y="27" width="2" height="1" fill="#3b3b3b"/>
<rect x="11" y="27" width="1" height="1" fill="#393939"/>
<rect x="14" y="27" width="1" height="1" fill="#3c3d3c"/>
<rect x="12" y="27" width="2" height="1" fill="#434144"/>
<rect x="2" y="27" width="1" height="2" fill="#c6c5c5"/>
<rect x="12" y="28" width="1" height="1" fill="#9259a0"/>
<rect x="15" y="28" width="1" height="1" fill="#3c3d3c"/>
<rect x="23" y="28" width="1" height="1" fill="#3c3c3c"/>
<rect x="24" y="28" width="1" height="1" fill="#3b3b3b"/>
<rect x="26" y="28" width="1" height="1" fill="#3b3b3b"/>
<rect x="9" y="28" width="1" height="1" fill="#393939"/>
<rect x="16" y="28" width="1" height="1" fill="#3b3b3b"/>
<rect x="13" y="28" width="1" height="1" fill="#9b4dac"/>
<rect x="27" y="25" width="1" height="5" fill="#3c3d3c"/>
<rect x="28" y="27" width="1" height="3" fill="#3c3c3c"/>
<rect x="11" y="28" width="1" height="2" fill="#3b3a3c"/>
<rect x="14" y="28" width="1" height="2" fill="#434144"/>
<rect x="18" y="28" width="4" height="2" fill="#3b3b3b"/>
<rect x="2" y="29" width="1" height="1" fill="#c6c6c6"/>
<rect x="15" y="29" width="1" height="1" fill="#3c3c3b"/>
<rect x="13" y="29" width="1" height="1" fill="#ad51c1"/>
<rect x="26" y="29" width="1" height="1" fill="#3c3c3c"/>
<rect x="12" y="29" width="1" height="1" fill="#9b4dac"/>
<rect x="23" y="29" width="2" height="1" fill="#3b3b3b"/>
<rect x="16" y="29" width="2" height="1" fill="#3a3b3a"/>
<rect x="7" y="27" width="1" height="4" fill="#3c3c3c"/>
<rect x="8" y="27" width="1" height="4" fill="#3b3b3b"/>
<rect x="22" y="28" width="1" height="3" fill="#3c3d3c"/>
<rect x="20" y="30" width="2" height="1" fill="#3b3b3b"/>
<rect x="18" y="30" width="1" height="1" fill="#3c3c3c"/>
<rect x="13" y="30" width="1" height="1" fill="#524456"/>
<rect x="12" y="30" width="1" height="1" fill="#434144"/>
<rect x="17" y="30" width="1" height="1" fill="#82488f"/>
<rect x="23" y="30" width="1" height="1" fill="#3c3c3c"/>
<rect x="14" y="30" width="1" height="1" fill="#9259a0"/>
<rect x="24" y="30" width="3" height="1" fill="#3b3b3b"/>
<rect x="28" y="30" width="1" height="1" fill="#3b3b3b"/>
<rect x="15" y="30" width="2" height="1" fill="#9b4dac"/>
<rect x="2" y="30" width="1" height="1" fill="#c7c6c6"/>
<rect x="27" y="30" width="1" height="1" fill="#3c3c3c"/>
<rect x="1" y="1" width="1" height="31" fill="#c3c3c3"/>
<rect x="31" y="15" width="1" height="17" fill="#bfbfbf"/>
<rect x="0" y="24" width="1" height="8" fill="#c7c7c7"/>
<rect x="29" y="26" width="1" height="6" fill="#383838"/>
<rect x="4" y="26" width="1" height="6" fill="#494949"/>
<rect x="30" y="26" width="1" height="6" fill="#828083"/>
<rect x="3" y="26" width="1" height="6" fill="#c7c7c7"/>
<rect x="14" y="31" width="1" height="1" fill="#9b4dac"/>
<rect x="2" y="31" width="1" height="1" fill="#c6c6c6"/>
<rect x="21" y="31" width="1" height="1" fill="#3b3b3b"/>
<rect x="13" y="31" width="1" height="1" fill="#3f3d40"/>
<rect x="15" y="31" width="2" height="1" fill="#ad51c1"/>
<rect x="6" y="31" width="1" height="1" fill="#393939"/>
<rect x="11" y="31" width="2" height="1" fill="#393939"/>
<rect x="9" y="31" width="2" height="1" fill="#383838"/>
<rect x="5" y="31" width="1" height="1" fill="#383838"/>
<rect x="23" y="31" width="2" height="1" fill="#3b3b3b"/>
<rect x="22" y="31" width="1" height="1" fill="#3c3c3c"/>
<rect x="17" y="31" width="1" height="1" fill="#9b4dac"/>
<rect x="26" y="31" width="3" height="1" fill="#3b3b3b"/>
</svg>