<?xml version="1.0" encoding="UTF-8"?>
<svg xmlns="http://www.w3.org/2000/svg" width="20mm" height="20mm" viewBox="0 0 32 32" shape-rendering="crispEdges">
<title>123 正面 structured semantic redraw</title>
<metadata>registered 32-unit semantic vector redraw; no embedded raster; physical-size=20mm</metadata>
<rect x="0" y="0" width="32" height="32" fill="#5d6e6f"/>
<rect x="14" y="0" width="1" height="1" fill="#617070"/>
<rect x="29" y="0" width="3" height="1" fill="#727e7e"/>
<rect x="25" y="0" width="1" height="1" fill="#586869"/>
<rect x="26" y="0" width="1" height="1" fill="#526262"/>
<rect x="28" y="0" width="1" height="1" fill="#5c6c6d"/>
<rect x="15" y="0" width="1" height="1" fill="#5e6e6f"/>
<rect x="27" y="0" width="1" height="1" fill="#586869"/>
<rect x="22" y="0" width="1" height="1" fill="#617070"/>
<rect x="2" y="0" width="1" height="1" fill="#5e6e6f"/>
<rect x="21" y="0" width="1" height="1" fill="#5c6c6d"/>
<rect x="23" y="0" width="2" height="1" fill="#677474"/>
<rect x="18" y="0" width="3" height="1" fill="#586869"/>
<rect x="13" y="0" width="1" height="1" fill="#5c6c6d"/>
<rect x="16" y="0" width="1" height="1" fill="#617070"/>
<rect x="0" y="0" width="1" height="2" fill="#5e6e6f"/>
<rect x="26" y="1" width="3" height="1" fill="#425253"/>
<rect x="3" y="1" width="1" height="1" fill="#5c6e6f"/>
<rect x="5" y="1" width="1" height="1" fill="#5e6e6f"/>
<rect x="29" y="1" width="1" height="1" fill="#5c6c6d"/>
<rect x="30" y="1" width="2" height="1" fill="#617070"/>
<rect x="18" y="1" width="3" height="2" fill="#566667"/>
<rect x="21" y="1" width="1" height="2" fill="#586869"/>
<rect x="0" y="2" width="4" height="1" fill="#586869"/>
<rect x="16" y="2" width="1" height="1" fill="#5c6e6f"/>
<rect x="4" y="2" width="1" height="1" fill="#5c6c6d"/>
<rect x="26" y="2" width="2" height="1" fill="#425253"/>
<rect x="17" y="0" width="1" height="4" fill="#5c6c6d"/>
<rect x="25" y="1" width="1" height="3" fill="#526262"/>
<rect x="29" y="2" width="1" height="2" fill="#586869"/>
<rect x="28" y="2" width="1" height="2" fill="#415152"/>
<rect x="26" y="3" width="1" height="1" fill="#475757"/>
<rect x="27" y="3" width="1" height="1" fill="#425253"/>
<rect x="21" y="3" width="1" height="1" fill="#566667"/>
<rect x="18" y="3" width="3" height="1" fill="#526262"/>
<rect x="26" y="4" width="1" height="1" fill="#a3a6a6"/>
<rect x="27" y="4" width="1" height="1" fill="#a1a3a3"/>
<rect x="15" y="4" width="1" height="1" fill="#5e6e6f"/>
<rect x="22" y="4" width="1" height="1" fill="#5e6e6f"/>
<rect x="29" y="4" width="1" height="1" fill="#6b7474"/>
<rect x="28" y="4" width="1" height="1" fill="#9ca0a0"/>
<rect x="31" y="2" width="1" height="4" fill="#5c6c6d"/>
<rect x="0" y="3" width="1" height="3" fill="#586869"/>
<rect x="1" y="3" width="3" height="3" fill="#566667"/>
<rect x="25" y="4" width="1" height="2" fill="#848d8d"/>
<rect x="17" y="4" width="1" height="2" fill="#586869"/>
<rect x="10" y="0" width="3" height="7" fill="#566667"/>
<rect x="9" y="0" width="1" height="7" fill="#586869"/>
<rect x="13" y="1" width="1" height="6" fill="#586869"/>
<rect x="4" y="3" width="1" height="4" fill="#586869"/>
<rect x="18" y="4" width="1" height="3" fill="#475757"/>
<rect x="19" y="4" width="3" height="3" fill="#526262"/>
<rect x="8" y="4" width="1" height="3" fill="#5e6e6f"/>
<rect x="0" y="6" width="4" height="1" fill="#566667"/>
<rect x="26" y="5" width="3" height="3" fill="#aaaaaa"/>
<rect x="29" y="5" width="1" height="3" fill="#727e7e"/>
<rect x="31" y="6" width="1" height="2" fill="#5d6e6e"/>
<rect x="17" y="6" width="1" height="2" fill="#5c6c6d"/>
<rect x="30" y="6" width="1" height="2" fill="#5e6e6f"/>
<rect x="25" y="6" width="1" height="2" fill="#727e7e"/>
<rect x="13" y="7" width="1" height="1" fill="#526262"/>
<rect x="22" y="7" width="1" height="1" fill="#586869"/>
<rect x="23" y="7" width="2" height="1" fill="#5c6c6d"/>
<rect x="18" y="7" width="4" height="1" fill="#526262"/>
<rect x="0" y="7" width="5" height="1" fill="#425253"/>
<rect x="5" y="7" width="8" height="1" fill="#475757"/>
<rect x="26" y="8" width="2" height="1" fill="#9ca0a0"/>
<rect x="21" y="8" width="1" height="1" fill="#586869"/>
<rect x="17" y="8" width="1" height="1" fill="#5e6e6f"/>
<rect x="25" y="8" width="1" height="1" fill="#5c6c6d"/>
<rect x="28" y="8" width="1" height="1" fill="#9da1a1"/>
<rect x="30" y="8" width="2" height="1" fill="#475757"/>
<rect x="23" y="8" width="2" height="2" fill="#425253"/>
<rect x="22" y="8" width="1" height="2" fill="#415152"/>
<rect x="29" y="8" width="1" height="2" fill="#617070"/>
<rect x="0" y="8" width="13" height="2" fill="#425253"/>
<rect x="13" y="8" width="1" height="3" fill="#475757"/>
<rect x="31" y="9" width="1" height="2" fill="#425252"/>
<rect x="14" y="9" width="1" height="2" fill="#5e6e6f"/>
<rect x="30" y="9" width="1" height="2" fill="#425253"/>
<rect x="21" y="9" width="1" height="2" fill="#5c6c6d"/>
<rect x="7" y="10" width="1" height="1" fill="#415253"/>
<rect x="18" y="10" width="1" height="1" fill="#5e6e6f"/>
<rect x="2" y="10" width="5" height="1" fill="#425253"/>
<rect x="22" y="10" width="3" height="1" fill="#425253"/>
<rect x="0" y="10" width="1" height="1" fill="#475757"/>
<rect x="8" y="10" width="5" height="1" fill="#425253"/>
<rect x="1" y="10" width="1" height="1" fill="#415253"/>
<rect x="26" y="9" width="3" height="3" fill="#9ca0a0"/>
<rect x="25" y="9" width="1" height="3" fill="#586869"/>
<rect x="29" y="10" width="1" height="2" fill="#687272"/>
<rect x="4" y="11" width="1" height="1" fill="#617070"/>
<rect x="1" y="11" width="1" height="1" fill="#677474"/>
<rect x="24" y="11" width="1" height="1" fill="#425253"/>
<rect x="7" y="11" width="2" height="1" fill="#586869"/>
<rect x="17" y="11" width="4" height="1" fill="#5c6c6d"/>
<rect x="5" y="11" width="2" height="1" fill="#5c6c6d"/>
<rect x="30" y="11" width="2" height="1" fill="#415152"/>
<rect x="9" y="11" width="3" height="1" fill="#566667"/>
<rect x="14" y="11" width="3" height="1" fill="#586869"/>
<rect x="22" y="11" width="2" height="1" fill="#475757"/>
<rect x="0" y="11" width="1" height="1" fill="#6b7474"/>
<rect x="2" y="11" width="2" height="1" fill="#687272"/>
<rect x="12" y="11" width="2" height="1" fill="#526262"/>
<rect x="21" y="11" width="1" height="1" fill="#586869"/>
<rect x="3" y="12" width="1" height="1" fill="#a2a4a4"/>
<rect x="10" y="12" width="1" height="1" fill="#a2a4a4"/>
<rect x="8" y="12" width="1" height="1" fill="#9ca1a1"/>
<rect x="1" y="12" width="2" height="1" fill="#a0a4a4"/>
<rect x="26" y="12" width="3" height="1" fill="#aaaaaa"/>
<rect x="11" y="12" width="2" height="1" fill="#a0a4a4"/>
<rect x="9" y="12" width="1" height="1" fill="#a0a4a4"/>
<rect x="29" y="12" width="1" height="1" fill="#a1a3a3"/>
<rect x="5" y="12" width="3" height="1" fill="#9ca0a0"/>
<rect x="22" y="12" width="4" height="1" fill="#989c9d"/>
<rect x="30" y="12" width="2" height="1" fill="#989c9d"/>
<rect x="11" y="13" width="1" height="1" fill="#a1a3a3"/>
<rect x="24" y="13" width="1" height="1" fill="#9ca0a0"/>
<rect x="10" y="13" width="1" height="1" fill="#a0a4a4"/>
<rect x="12" y="13" width="1" height="1" fill="#a0a4a4"/>
<rect x="23" y="13" width="1" height="1" fill="#9ba0a0"/>
<rect x="14" y="12" width="1" height="3" fill="#415152"/>
<rect x="21" y="12" width="1" height="3" fill="#475757"/>
<rect x="15" y="12" width="6" height="3" fill="#425253"/>
<rect x="5" y="13" width="4" height="2" fill="#9ca0a0"/>
<rect x="10" y="14" width="3" height="1" fill="#a0a4a4"/>
<rect x="13" y="12" width="1" height="4" fill="#848d8d"/>
<rect x="4" y="12" width="1" height="4" fill="#9fa3a3"/>
<rect x="9" y="13" width="1" height="3" fill="#9fa3a3"/>
<rect x="25" y="13" width="1" height="3" fill="#9da1a1"/>
<rect x="22" y="13" width="1" height="3" fill="#989c9d"/>
<rect x="26" y="13" width="6" height="3" fill="#aaaaaa"/>
<rect x="23" y="14" width="2" height="2" fill="#9ba0a0"/>
<rect x="21" y="15" width="1" height="1" fill="#425253"/>
<rect x="11" y="15" width="2" height="1" fill="#a0a4a4"/>
<rect x="14" y="15" width="7" height="1" fill="#415152"/>
<rect x="8" y="15" width="1" height="1" fill="#9ca0a0"/>
<rect x="5" y="15" width="3" height="1" fill="#9ba0a0"/>
<rect x="10" y="15" width="1" height="1" fill="#a1a3a3"/>
<rect x="1" y="13" width="3" height="4" fill="#a0a4a4"/>
<rect x="5" y="16" width="9" height="1" fill="#b0c3cb"/>
<rect x="14" y="16" width="4" height="1" fill="#848d8d"/>
<rect x="31" y="16" width="1" height="1" fill="#a0a4a4"/>
<rect x="18" y="16" width="4" height="1" fill="#989c9d"/>
<rect x="22" y="16" width="8" height="1" fill="#b0c3cb"/>
<rect x="30" y="16" width="1" height="1" fill="#a2a4a4"/>
<rect x="2" y="17" width="2" height="1" fill="#a0a4a4"/>
<rect x="14" y="17" width="1" height="1" fill="#9ba0a0"/>
<rect x="1" y="17" width="1" height="1" fill="#a1a3a3"/>
<rect x="15" y="17" width="1" height="1" fill="#9ca0a0"/>
<rect x="18" y="17" width="4" height="1" fill="#a0a4a4"/>
<rect x="16" y="17" width="2" height="1" fill="#9ba0a0"/>
<rect x="30" y="17" width="2" height="2" fill="#a0a4a4"/>
<rect x="14" y="18" width="2" height="1" fill="#9ba0a0"/>
<rect x="16" y="18" width="2" height="1" fill="#9ca0a0"/>
<rect x="19" y="18" width="3" height="1" fill="#a0a4a4"/>
<rect x="4" y="16" width="1" height="4" fill="#a9adae"/>
<rect x="13" y="17" width="1" height="3" fill="#b0c3cb"/>
<rect x="23" y="17" width="6" height="3" fill="#b5cbd5"/>
<rect x="22" y="17" width="1" height="3" fill="#b0c3cb"/>
<rect x="5" y="17" width="8" height="3" fill="#b5cbd5"/>
<rect x="29" y="17" width="1" height="3" fill="#b0c3cb"/>
<rect x="1" y="18" width="3" height="2" fill="#a0a4a4"/>
<rect x="18" y="18" width="1" height="2" fill="#9fa3a3"/>
<rect x="19" y="19" width="1" height="1" fill="#a1a3a3"/>
<rect x="31" y="19" width="1" height="1" fill="#a0a4a4"/>
<rect x="30" y="19" width="1" height="1" fill="#a0a4a3"/>
<rect x="20" y="19" width="2" height="1" fill="#a0a4a4"/>
<rect x="14" y="19" width="4" height="1" fill="#9ba0a0"/>
<rect x="0" y="12" width="1" height="9" fill="#a3a6a6"/>
<rect x="3" y="20" width="1" height="1" fill="#a2a4a4"/>
<rect x="1" y="20" width="2" height="1" fill="#a0a4a4"/>
<rect x="29" y="20" width="1" height="1" fill="#848d8d"/>
<rect x="5" y="20" width="3" height="1" fill="#b0c3cb"/>
<rect x="8" y="20" width="5" height="1" fill="#a9adae"/>
<rect x="28" y="20" width="1" height="1" fill="#727e7e"/>
<rect x="14" y="20" width="14" height="1" fill="#848d8d"/>
<rect x="13" y="20" width="1" height="1" fill="#a0a4a4"/>
<rect x="4" y="20" width="1" height="1" fill="#a3a6a6"/>
<rect x="30" y="20" width="2" height="4" fill="#a0a4a4"/>
<rect x="5" y="21" width="24" height="3" fill="#6b7474"/>
<rect x="29" y="21" width="1" height="3" fill="#727e7e"/>
<rect x="4" y="21" width="1" height="3" fill="#a1a3a3"/>
<rect x="0" y="21" width="4" height="4" fill="#aaaaaa"/>
<rect x="20" y="24" width="9" height="1" fill="#617070"/>
<rect x="5" y="24" width="11" height="1" fill="#6b7474"/>
<rect x="4" y="24" width="1" height="1" fill="#a2a4a4"/>
<rect x="16" y="24" width="4" height="1" fill="#687272"/>
<rect x="29" y="24" width="1" height="2" fill="#6b7474"/>
<rect x="2" y="25" width="2" height="1" fill="#a3a6a6"/>
<rect x="0" y="25" width="2" height="1" fill="#aaaaaa"/>
<rect x="5" y="25" width="6" height="1" fill="#617070"/>
<rect x="11" y="25" width="3" height="1" fill="#5e6e6f"/>
<rect x="15" y="25" width="1" height="1" fill="#5e6e6f"/>
<rect x="14" y="25" width="1" height="1" fill="#5d6e6e"/>
<rect x="4" y="25" width="1" height="1" fill="#9da1a1"/>
<rect x="24" y="25" width="1" height="2" fill="#5e6e6f"/>
<rect x="1" y="26" width="1" height="1" fill="#9fa3a3"/>
<rect x="2" y="26" width="1" height="1" fill="#a0a4a4"/>
<rect x="5" y="26" width="2" height="1" fill="#5e6e6f"/>
<rect x="8" y="26" width="1" height="1" fill="#5e6e6f"/>
<rect x="3" y="26" width="1" height="1" fill="#a1a3a3"/>
<rect x="28" y="26" width="1" height="1" fill="#5e6e6f"/>
<rect x="30" y="24" width="2" height="4" fill="#aaaaaa"/>
<rect x="22" y="25" width="1" height="3" fill="#5c6c6d"/>
<rect x="19" y="25" width="3" height="3" fill="#566667"/>
<rect x="4" y="26" width="1" height="2" fill="#989c9d"/>
<rect x="29" y="26" width="1" height="2" fill="#677474"/>
<rect x="5" y="27" width="4" height="1" fill="#5e6e6f"/>
<rect x="28" y="27" width="1" height="1" fill="#5d6e6e"/>
<rect x="16" y="27" width="2" height="1" fill="#5e6e6f"/>
<rect x="26" y="27" width="1" height="1" fill="#5e6e6f"/>
<rect x="10" y="27" width="3" height="1" fill="#5e6e6f"/>
<rect x="1" y="27" width="3" height="1" fill="#a0a4a4"/>
<rect x="18" y="25" width="1" height="4" fill="#586869"/>
<rect x="2" y="28" width="2" height="1" fill="#a0a4a4"/>
<rect x="20" y="28" width="1" height="1" fill="#586869"/>
<rect x="24" y="28" width="3" height="1" fill="#727e7e"/>
<rect x="5" y="28" width="7" height="1" fill="#5e6e6f"/>
<rect x="19" y="28" width="1" height="1" fill="#566667"/>
<rect x="31" y="28" width="1" height="1" fill="#9da1a1"/>
<rect x="27" y="28" width="3" height="1" fill="#848d8d"/>
<rect x="22" y="28" width="1" height="1" fill="#617070"/>
<rect x="21" y="28" width="1" height="1" fill="#5c6c6d"/>
<rect x="1" y="28" width="1" height="1" fill="#a1a3a3"/>
<rect x="30" y="28" width="1" height="1" fill="#9fa3a3"/>
<rect x="23" y="28" width="1" height="1" fill="#6b7474"/>
<rect x="15" y="28" width="3" height="1" fill="#5d6e6e"/>
<rect x="0" y="26" width="1" height="4" fill="#a2a4a4"/>
<rect x="7" y="29" width="1" height="1" fill="#617070"/>
<rect x="21" y="29" width="1" height="1" fill="#9fa3a3"/>
<rect x="20" y="29" width="1" height="1" fill="#9ca1a1"/>
<rect x="14" y="29" width="4" height="1" fill="#848d8d"/>
<rect x="10" y="29" width="1" height="1" fill="#6b7474"/>
<rect x="5" y="29" width="2" height="1" fill="#5e6e6f"/>
<rect x="8" y="29" width="2" height="1" fill="#677474"/>
<rect x="18" y="29" width="2" height="1" fill="#989c9d"/>
<rect x="1" y="29" width="3" height="1" fill="#a0a4a4"/>
<rect x="11" y="29" width="3" height="1" fill="#727e7e"/>
<rect x="4" y="28" width="1" height="3" fill="#9ba0a0"/>
<rect x="23" y="29" width="9" height="2" fill="#9ca0a0"/>
<rect x="0" y="30" width="1" height="1" fill="#9fa3a3"/>
<rect x="1" y="30" width="2" height="1" fill="#9da1a1"/>
<rect x="5" y="30" width="1" height="1" fill="#989c9d"/>
<rect x="6" y="30" width="1" height="1" fill="#9ba0a0"/>
<rect x="3" y="30" width="1" height="1" fill="#9ca1a1"/>
<rect x="19" y="30" width="3" height="1" fill="#a0a4a4"/>
<rect x="8" y="30" width="2" height="1" fill="#9fa3a3"/>
<rect x="7" y="30" width="1" height="1" fill="#9ca1a1"/>
<rect x="22" y="29" width="1" height="3" fill="#9da1a1"/>
<rect x="18" y="30" width="1" height="2" fill="#9fa3a3"/>
<rect x="10" y="30" width="8" height="2" fill="#9ca0a0"/>
<rect x="9" y="31" width="1" height="1" fill="#9fa3a3"/>
<rect x="5" y="31" width="4" height="1" fill="#a0a4a4"/>
<rect x="20" y="31" width="1" height="1" fill="#a1a3a3"/>
<rect x="23" y="31" width="7" height="1" fill="#9ca0a0"/>
<rect x="21" y="31" width="1" height="1" fill="#a0a4a4"/>
<rect x="19" y="31" width="1" height="1" fill="#a0a4a4"/>
<rect x="30" y="31" width="2" height="1" fill="#9da1a1"/>
<rect x="0" y="31" width="5" height="1" fill="#9ca0a0"/>
</svg>