<?xml version="1.0" encoding="UTF-8"?>
<svg xmlns="http://www.w3.org/2000/svg" width="20mm" height="20mm" viewBox="0 0 32 32" shape-rendering="crispEdges">
<title>162 右侧面 structured semantic redraw</title>
<metadata>registered 32-unit semantic vector redraw; no embedded raster; physical-size=20mm</metadata>
<rect x="0" y="0" width="32" height="32" fill="#7b5842"/>
<rect x="20" y="0" width="1" height="1" fill="#7ca246"/>
<rect x="10" y="0" width="1" height="1" fill="#7fa647"/>
<rect x="26" y="0" width="2" height="1" fill="#659042"/>
<rect x="29" y="0" width="3" height="1" fill="#628e42"/>
<rect x="8" y="0" width="2" height="1" fill="#7ca246"/>
<rect x="11" y="0" width="3" height="1" fill="#82a848"/>
<rect x="0" y="0" width="8" height="1" fill="#85b04c"/>
<rect x="16" y="0" width="4" height="1" fill="#769c43"/>
<rect x="28" y="0" width="1" height="1" fill="#618d42"/>
<rect x="22" y="0" width="3" height="1" fill="#769c43"/>
<rect x="14" y="0" width="2" height="1" fill="#7fa647"/>
<rect x="21" y="0" width="1" height="2" fill="#6b9442"/>
<rect x="25" y="0" width="1" height="2" fill="#6b9442"/>
<rect x="1" y="1" width="1" height="1" fill="#769c43"/>
<rect x="14" y="1" width="1" height="1" fill="#659042"/>
<rect x="13" y="1" width="1" height="1" fill="#769c43"/>
<rect x="23" y="1" width="2" height="1" fill="#618d42"/>
<rect x="17" y="1" width="3" height="1" fill="#618d41"/>
<rect x="26" y="1" width="1" height="1" fill="#628e42"/>
<rect x="27" y="1" width="1" height="1" fill="#618d42"/>
<rect x="15" y="1" width="1" height="1" fill="#618d41"/>
<rect x="2" y="1" width="1" height="1" fill="#7ca246"/>
<rect x="20" y="1" width="1" height="1" fill="#659042"/>
<rect x="4" y="1" width="1" height="1" fill="#81a748"/>
<rect x="9" y="1" width="3" height="1" fill="#769c43"/>
<rect x="3" y="1" width="1" height="1" fill="#7fa647"/>
<rect x="22" y="1" width="1" height="1" fill="#659042"/>
<rect x="5" y="1" width="4" height="1" fill="#82a848"/>
<rect x="28" y="1" width="4" height="1" fill="#628e42"/>
<rect x="16" y="1" width="1" height="1" fill="#659042"/>
<rect x="12" y="1" width="1" height="1" fill="#7ca246"/>
<rect x="0" y="1" width="1" height="2" fill="#7fa647"/>
<rect x="13" y="2" width="1" height="1" fill="#659042"/>
<rect x="10" y="2" width="1" height="1" fill="#6b9442"/>
<rect x="15" y="2" width="1" height="1" fill="#628e42"/>
<rect x="1" y="2" width="1" height="1" fill="#82a848"/>
<rect x="4" y="2" width="1" height="1" fill="#7fa647"/>
<rect x="2" y="2" width="2" height="1" fill="#769c43"/>
<rect x="28" y="2" width="1" height="1" fill="#628e42"/>
<rect x="18" y="2" width="1" height="1" fill="#618d41"/>
<rect x="30" y="2" width="2" height="1" fill="#6b9442"/>
<rect x="16" y="2" width="1" height="1" fill="#618d42"/>
<rect x="20" y="2" width="3" height="1" fill="#628e42"/>
<rect x="24" y="2" width="1" height="1" fill="#628e42"/>
<rect x="9" y="2" width="1" height="1" fill="#618d41"/>
<rect x="12" y="2" width="1" height="1" fill="#628e42"/>
<rect x="6" y="2" width="2" height="1" fill="#769c43"/>
<rect x="14" y="2" width="1" height="1" fill="#618d42"/>
<rect x="29" y="2" width="1" height="1" fill="#659042"/>
<rect x="17" y="2" width="1" height="1" fill="#628e42"/>
<rect x="25" y="2" width="3" height="1" fill="#618d42"/>
<rect x="11" y="2" width="1" height="1" fill="#618d41"/>
<rect x="19" y="2" width="1" height="1" fill="#618d42"/>
<rect x="23" y="2" width="1" height="1" fill="#618d42"/>
<rect x="5" y="2" width="1" height="1" fill="#6b9442"/>
<rect x="8" y="2" width="1" height="1" fill="#659042"/>
<rect x="16" y="3" width="2" height="1" fill="#628e42"/>
<rect x="24" y="3" width="1" height="1" fill="#618d42"/>
<rect x="6" y="3" width="1" height="1" fill="#659042"/>
<rect x="3" y="3" width="1" height="1" fill="#618d42"/>
<rect x="23" y="3" width="1" height="1" fill="#659042"/>
<rect x="10" y="3" width="6" height="1" fill="#618d42"/>
<rect x="4" y="3" width="1" height="1" fill="#618d41"/>
<rect x="9" y="3" width="1" height="1" fill="#659042"/>
<rect x="27" y="3" width="2" height="1" fill="#769c43"/>
<rect x="2" y="3" width="1" height="1" fill="#618d41"/>
<rect x="30" y="3" width="1" height="1" fill="#6b9442"/>
<rect x="29" y="3" width="1" height="1" fill="#7fa647"/>
<rect x="26" y="3" width="1" height="1" fill="#7ca246"/>
<rect x="0" y="3" width="2" height="1" fill="#769c43"/>
<rect x="18" y="3" width="5" height="1" fill="#618d42"/>
<rect x="31" y="3" width="1" height="1" fill="#659042"/>
<rect x="5" y="3" width="1" height="1" fill="#769c43"/>
<rect x="25" y="3" width="1" height="2" fill="#769c43"/>
<rect x="8" y="3" width="1" height="2" fill="#618d42"/>
<rect x="7" y="3" width="1" height="2" fill="#628e42"/>
<rect x="26" y="4" width="5" height="1" fill="#81a748"/>
<rect x="21" y="4" width="1" height="1" fill="#769c43"/>
<rect x="19" y="4" width="1" height="1" fill="#628e42"/>
<rect x="13" y="4" width="1" height="1" fill="#618d41"/>
<rect x="18" y="4" width="1" height="1" fill="#659042"/>
<rect x="23" y="4" width="1" height="1" fill="#7fa647"/>
<rect x="20" y="4" width="1" height="1" fill="#6b9442"/>
<rect x="24" y="4" width="1" height="1" fill="#6b9442"/>
<rect x="9" y="4" width="1" height="1" fill="#618d41"/>
<rect x="22" y="4" width="1" height="1" fill="#6b9442"/>
<rect x="11" y="4" width="2" height="1" fill="#618d42"/>
<rect x="15" y="4" width="2" height="1" fill="#659042"/>
<rect x="6" y="4" width="1" height="1" fill="#618d42"/>
<rect x="2" y="4" width="4" height="1" fill="#628e42"/>
<rect x="17" y="4" width="1" height="1" fill="#6b9442"/>
<rect x="14" y="4" width="1" height="1" fill="#628e42"/>
<rect x="10" y="4" width="1" height="1" fill="#628e42"/>
<rect x="0" y="4" width="1" height="2" fill="#618d41"/>
<rect x="1" y="4" width="1" height="2" fill="#618d42"/>
<rect x="14" y="5" width="1" height="1" fill="#769c43"/>
<rect x="21" y="5" width="1" height="1" fill="#81a748"/>
<rect x="15" y="5" width="1" height="1" fill="#7fa647"/>
<rect x="23" y="5" width="1" height="1" fill="#82a848"/>
<rect x="18" y="5" width="2" height="1" fill="#6b9442"/>
<rect x="20" y="5" width="1" height="1" fill="#7fa647"/>
<rect x="13" y="5" width="1" height="1" fill="#6b9442"/>
<rect x="8" y="5" width="2" height="1" fill="#618d41"/>
<rect x="6" y="5" width="2" height="1" fill="#6b9442"/>
<rect x="10" y="5" width="2" height="1" fill="#659042"/>
<rect x="22" y="5" width="1" height="1" fill="#7fa647"/>
<rect x="26" y="5" width="1" height="1" fill="#82a848"/>
<rect x="24" y="5" width="1" height="1" fill="#81a748"/>
<rect x="27" y="5" width="4" height="1" fill="#81a748"/>
<rect x="4" y="5" width="1" height="1" fill="#618d42"/>
<rect x="5" y="5" width="1" height="1" fill="#659042"/>
<rect x="12" y="5" width="1" height="1" fill="#618d41"/>
<rect x="2" y="5" width="2" height="1" fill="#628e42"/>
<rect x="25" y="5" width="1" height="1" fill="#7fa647"/>
<rect x="16" y="5" width="1" height="1" fill="#82a848"/>
<rect x="17" y="5" width="1" height="1" fill="#7ca246"/>
<rect x="31" y="4" width="1" height="3" fill="#82a848"/>
<rect x="10" y="6" width="1" height="1" fill="#769c43"/>
<rect x="9" y="6" width="1" height="1" fill="#7ca246"/>
<rect x="11" y="6" width="1" height="1" fill="#7fa647"/>
<rect x="19" y="6" width="3" height="1" fill="#82a848"/>
<rect x="17" y="6" width="2" height="1" fill="#81a748"/>
<rect x="6" y="6" width="2" height="1" fill="#7ca246"/>
<rect x="12" y="6" width="1" height="1" fill="#769c43"/>
<rect x="15" y="6" width="2" height="1" fill="#82a848"/>
<rect x="28" y="6" width="3" height="1" fill="#81a748"/>
<rect x="2" y="6" width="1" height="1" fill="#659042"/>
<rect x="4" y="6" width="2" height="1" fill="#659042"/>
<rect x="3" y="6" width="1" height="1" fill="#6b9442"/>
<rect x="26" y="6" width="2" height="1" fill="#82a848"/>
<rect x="8" y="6" width="1" height="1" fill="#769c43"/>
<rect x="0" y="6" width="2" height="1" fill="#6b9442"/>
<rect x="13" y="6" width="2" height="1" fill="#7fa647"/>
<rect x="22" y="6" width="4" height="1" fill="#81a748"/>
<rect x="27" y="7" width="1" height="1" fill="#7b7644"/>
<rect x="31" y="7" width="1" height="1" fill="#7b7644"/>
<rect x="18" y="7" width="1" height="1" fill="#7fa647"/>
<rect x="21" y="7" width="1" height="1" fill="#7ca246"/>
<rect x="3" y="7" width="1" height="1" fill="#82a848"/>
<rect x="1" y="7" width="1" height="1" fill="#7ca246"/>
<rect x="22" y="7" width="5" height="1" fill="#789643"/>
<rect x="28" y="7" width="2" height="1" fill="#789643"/>
<rect x="4" y="7" width="1" height="1" fill="#7ca246"/>
<rect x="2" y="7" width="1" height="1" fill="#81a748"/>
<rect x="9" y="7" width="5" height="1" fill="#81a748"/>
<rect x="0" y="7" width="1" height="1" fill="#6b9442"/>
<rect x="14" y="7" width="4" height="1" fill="#82a848"/>
<rect x="19" y="7" width="2" height="1" fill="#82a848"/>
<rect x="30" y="7" width="1" height="1" fill="#815e45"/>
<rect x="5" y="7" width="2" height="1" fill="#769c43"/>
<rect x="7" y="7" width="1" height="1" fill="#82a848"/>
<rect x="8" y="7" width="1" height="2" fill="#7fa647"/>
<rect x="5" y="8" width="1" height="1" fill="#82a848"/>
<rect x="17" y="8" width="1" height="1" fill="#82a848"/>
<rect x="26" y="8" width="1" height="1" fill="#7c5a42"/>
<rect x="13" y="8" width="1" height="1" fill="#789643"/>
<rect x="6" y="8" width="1" height="1" fill="#7ca246"/>
<rect x="18" y="8" width="1" height="1" fill="#7b7644"/>
<rect x="30" y="8" width="1" height="1" fill="#7b5843"/>
<rect x="14" y="8" width="1" height="1" fill="#81a748"/>
<rect x="0" y="8" width="1" height="1" fill="#769c43"/>
<rect x="15" y="8" width="1" height="1" fill="#7ca246"/>
<rect x="19" y="8" width="1" height="1" fill="#789643"/>
<rect x="3" y="8" width="2" height="1" fill="#81a748"/>
<rect x="1" y="8" width="2" height="1" fill="#82a848"/>
<rect x="29" y="8" width="1" height="1" fill="#7b5942"/>
<rect x="25" y="8" width="1" height="1" fill="#7b5843"/>
<rect x="11" y="8" width="1" height="1" fill="#7ca246"/>
<rect x="20" y="8" width="3" height="1" fill="#7b7644"/>
<rect x="9" y="8" width="1" height="1" fill="#81a748"/>
<rect x="16" y="8" width="1" height="1" fill="#7fa647"/>
<rect x="7" y="8" width="1" height="1" fill="#81a748"/>
<rect x="12" y="8" width="1" height="1" fill="#82a848"/>
<rect x="23" y="8" width="2" height="1" fill="#815e45"/>
<rect x="10" y="8" width="1" height="2" fill="#789643"/>
<rect x="31" y="8" width="1" height="2" fill="#7c5a42"/>
<rect x="28" y="9" width="1" height="1" fill="#7b5843"/>
<rect x="29" y="9" width="2" height="1" fill="#7b5942"/>
<rect x="26" y="9" width="1" height="1" fill="#7b5843"/>
<rect x="17" y="9" width="1" height="1" fill="#815e45"/>
<rect x="23" y="9" width="1" height="1" fill="#795842"/>
<rect x="6" y="9" width="1" height="1" fill="#7b7644"/>
<rect x="7" y="9" width="2" height="1" fill="#789643"/>
<rect x="9" y="9" width="1" height="1" fill="#7b7644"/>
<rect x="20" y="9" width="1" height="1" fill="#7a5842"/>
<rect x="27" y="9" width="1" height="1" fill="#7c5942"/>
<rect x="2" y="9" width="1" height="1" fill="#81a748"/>
<rect x="13" y="9" width="1" height="1" fill="#7a5841"/>
<rect x="25" y="9" width="1" height="1" fill="#7c5942"/>
<rect x="11" y="9" width="1" height="1" fill="#7b7644"/>
<rect x="4" y="9" width="2" height="1" fill="#789643"/>
<rect x="3" y="9" width="1" height="1" fill="#7ca246"/>
<rect x="0" y="9" width="2" height="1" fill="#789643"/>
<rect x="12" y="9" width="1" height="1" fill="#789643"/>
<rect x="16" y="9" width="1" height="1" fill="#7b7644"/>
<rect x="14" y="9" width="2" height="1" fill="#815e45"/>
<rect x="24" y="9" width="1" height="1" fill="#7b5943"/>
<rect x="18" y="9" width="2" height="1" fill="#7c5a42"/>
<rect x="21" y="9" width="1" height="2" fill="#7b5943"/>
<rect x="24" y="10" width="1" height="1" fill="#785641"/>
<rect x="20" y="10" width="1" height="1" fill="#7b5843"/>
<rect x="19" y="10" width="1" height="1" fill="#7b5942"/>
<rect x="22" y="10" width="1" height="1" fill="#785641"/>
<rect x="5" y="10" width="1" height="1" fill="#7c5a42"/>
<rect x="0" y="10" width="1" height="1" fill="#78543b"/>
<rect x="4" y="10" width="1" height="1" fill="#7b7644"/>
<rect x="2" y="10" width="2" height="1" fill="#815e45"/>
<rect x="23" y="10" width="1" height="1" fill="#78543b"/>
<rect x="1" y="10" width="1" height="1" fill="#7c5a42"/>
<rect x="6" y="10" width="1" height="1" fill="#7b5741"/>
<rect x="12" y="10" width="1" height="1" fill="#7b5942"/>
<rect x="31" y="10" width="1" height="1" fill="#7c5942"/>
<rect x="7" y="10" width="4" height="1" fill="#7c5a42"/>
<rect x="17" y="10" width="1" height="1" fill="#7b5942"/>
<rect x="25" y="10" width="3" height="1" fill="#7c5942"/>
<rect x="11" y="10" width="1" height="1" fill="#7a5741"/>
<rect x="14" y="10" width="1" height="1" fill="#7a5841"/>
<rect x="13" y="10" width="1" height="2" fill="#7a5741"/>
<rect x="28" y="10" width="1" height="2" fill="#7b5942"/>
<rect x="7" y="11" width="1" height="1" fill="#7b5741"/>
<rect x="18" y="11" width="2" height="1" fill="#785641"/>
<rect x="8" y="11" width="1" height="1" fill="#7a5741"/>
<rect x="14" y="11" width="1" height="1" fill="#7b5841"/>
<rect x="11" y="11" width="2" height="1" fill="#7b5841"/>
<rect x="6" y="11" width="1" height="1" fill="#7b5841"/>
<rect x="23" y="11" width="1" height="1" fill="#795842"/>
<rect x="16" y="11" width="1" height="1" fill="#785641"/>
<rect x="30" y="11" width="1" height="1" fill="#7c5942"/>
<rect x="20" y="11" width="2" height="1" fill="#7b5943"/>
<rect x="27" y="11" width="1" height="1" fill="#7b5843"/>
<rect x="4" y="11" width="1" height="1" fill="#7a5741"/>
<rect x="25" y="11" width="1" height="1" fill="#7b5843"/>
<rect x="22" y="11" width="1" height="1" fill="#7a5842"/>
<rect x="3" y="11" width="1" height="1" fill="#7b5841"/>
<rect x="5" y="11" width="1" height="1" fill="#7a5841"/>
<rect x="17" y="11" width="1" height="1" fill="#795842"/>
<rect x="24" y="11" width="1" height="1" fill="#7b5943"/>
<rect x="9" y="11" width="1" height="1" fill="#785641"/>
<rect x="31" y="11" width="1" height="2" fill="#7e5a43"/>
<rect x="10" y="11" width="1" height="2" fill="#7a5741"/>
<rect x="26" y="11" width="1" height="2" fill="#7b5942"/>
<rect x="11" y="12" width="2" height="1" fill="#7a5841"/>
<rect x="13" y="12" width="1" height="1" fill="#7b5841"/>
<rect x="23" y="12" width="1" height="1" fill="#7b5942"/>
<rect x="15" y="12" width="1" height="1" fill="#7a5841"/>
<rect x="19" y="12" width="1" height="1" fill="#7a5842"/>
<rect x="3" y="12" width="1" height="1" fill="#7a5741"/>
<rect x="4" y="12" width="1" height="1" fill="#78543b"/>
<rect x="6" y="12" width="1" height="1" fill="#815e45"/>
<rect x="16" y="12" width="3" height="1" fill="#785641"/>
<rect x="5" y="12" width="1" height="1" fill="#7c5942"/>
<rect x="29" y="12" width="1" height="1" fill="#7b5942"/>
<rect x="20" y="12" width="1" height="1" fill="#7b5943"/>
<rect x="8" y="12" width="2" height="1" fill="#785641"/>
<rect x="22" y="12" width="1" height="2" fill="#7b5943"/>
<rect x="7" y="12" width="1" height="2" fill="#7a5741"/>
<rect x="19" y="13" width="1" height="1" fill="#7c5942"/>
<rect x="10" y="13" width="1" height="1" fill="#7b5841"/>
<rect x="15" y="13" width="1" height="1" fill="#7b5942"/>
<rect x="24" y="13" width="1" height="1" fill="#7c5942"/>
<rect x="4" y="13" width="1" height="1" fill="#7a5842"/>
<rect x="26" y="13" width="1" height="1" fill="#7c5942"/>
<rect x="31" y="13" width="1" height="1" fill="#785641"/>
<rect x="29" y="13" width="1" height="1" fill="#7c5942"/>
<rect x="11" y="13" width="1" height="1" fill="#7a5841"/>
<rect x="30" y="13" width="1" height="1" fill="#7a5842"/>
<rect x="3" y="13" width="1" height="1" fill="#7b5841"/>
<rect x="18" y="13" width="1" height="1" fill="#7b5843"/>
<rect x="27" y="13" width="1" height="1" fill="#7b5942"/>
<rect x="16" y="13" width="1" height="1" fill="#7b5841"/>
<rect x="6" y="13" width="1" height="1" fill="#7c5942"/>
<rect x="8" y="13" width="1" height="1" fill="#7b5841"/>
<rect x="5" y="13" width="1" height="1" fill="#7b5841"/>
<rect x="9" y="13" width="1" height="2" fill="#7a5841"/>
<rect x="14" y="14" width="1" height="1" fill="#7b5942"/>
<rect x="10" y="14" width="1" height="1" fill="#7a5842"/>
<rect x="19" y="14" width="1" height="1" fill="#7a5842"/>
<rect x="6" y="14" width="2" height="1" fill="#7b5841"/>
<rect x="5" y="14" width="1" height="1" fill="#7b5741"/>
<rect x="13" y="14" width="1" height="1" fill="#7a5842"/>
<rect x="16" y="14" width="1" height="1" fill="#7b5943"/>
<rect x="28" y="14" width="1" height="1" fill="#7b5942"/>
<rect x="31" y="14" width="1" height="1" fill="#7e5a43"/>
<rect x="12" y="14" width="1" height="1" fill="#7b5942"/>
<rect x="11" y="14" width="1" height="1" fill="#7b5841"/>
<rect x="1" y="11" width="1" height="5" fill="#7a563f"/>
<rect x="3" y="14" width="1" height="2" fill="#7b5942"/>
<rect x="25" y="14" width="1" height="2" fill="#7b5942"/>
<rect x="15" y="15" width="1" height="1" fill="#7b5942"/>
<rect x="17" y="15" width="1" height="1" fill="#785641"/>
<rect x="20" y="15" width="1" height="1" fill="#7a5842"/>
<rect x="26" y="15" width="1" height="1" fill="#7c5942"/>
<rect x="9" y="15" width="2" height="1" fill="#7b5841"/>
<rect x="18" y="15" width="2" height="1" fill="#78543b"/>
<rect x="8" y="15" width="1" height="1" fill="#7a5741"/>
<rect x="24" y="15" width="1" height="1" fill="#7b5943"/>
<rect x="29" y="15" width="1" height="1" fill="#7b5942"/>
<rect x="7" y="15" width="1" height="1" fill="#7b5841"/>
<rect x="31" y="15" width="1" height="1" fill="#815e45"/>
<rect x="0" y="11" width="1" height="6" fill="#734f35"/>
<rect x="14" y="15" width="1" height="2" fill="#7a5842"/>
<rect x="10" y="16" width="1" height="1" fill="#7b5841"/>
<rect x="26" y="16" width="1" height="1" fill="#7b5942"/>
<rect x="11" y="16" width="1" height="1" fill="#7a5841"/>
<rect x="4" y="16" width="1" height="1" fill="#7c5942"/>
<rect x="8" y="16" width="1" height="1" fill="#7b5741"/>
<rect x="1" y="16" width="1" height="1" fill="#78543b"/>
<rect x="6" y="16" width="2" height="1" fill="#7b5841"/>
<rect x="9" y="16" width="1" height="1" fill="#7a5841"/>
<rect x="17" y="16" width="3" height="1" fill="#785641"/>
<rect x="30" y="16" width="1" height="1" fill="#7c5942"/>
<rect x="2" y="16" width="2" height="1" fill="#7a5741"/>
<rect x="31" y="16" width="1" height="1" fill="#805b44"/>
<rect x="2" y="17" width="2" height="1" fill="#785641"/>
<rect x="0" y="17" width="2" height="1" fill="#78543b"/>
<rect x="9" y="17" width="2" height="1" fill="#7a5842"/>
<rect x="27" y="17" width="1" height="1" fill="#7b5841"/>
<rect x="8" y="17" width="1" height="1" fill="#7b5841"/>
<rect x="20" y="17" width="1" height="1" fill="#7a5841"/>
<rect x="25" y="17" width="2" height="1" fill="#7b5942"/>
<rect x="11" y="17" width="1" height="1" fill="#7b5841"/>
<rect x="6" y="17" width="1" height="1" fill="#7a5842"/>
<rect x="4" y="17" width="2" height="1" fill="#805b44"/>
<rect x="31" y="17" width="1" height="2" fill="#7e5a43"/>
<rect x="12" y="18" width="2" height="1" fill="#7b5841"/>
<rect x="22" y="18" width="1" height="1" fill="#7b5841"/>
<rect x="20" y="18" width="1" height="1" fill="#7a5741"/>
<rect x="29" y="18" width="2" height="1" fill="#7b5942"/>
<rect x="24" y="18" width="1" height="1" fill="#7b5942"/>
<rect x="14" y="18" width="1" height="1" fill="#7a5841"/>
<rect x="2" y="18" width="1" height="2" fill="#7b5841"/>
<rect x="0" y="18" width="1" height="2" fill="#734f35"/>
<rect x="1" y="18" width="1" height="2" fill="#78543b"/>
<rect x="18" y="18" width="1" height="2" fill="#7b5841"/>
<rect x="23" y="19" width="1" height="1" fill="#7c5942"/>
<rect x="10" y="19" width="1" height="1" fill="#7a5841"/>
<rect x="19" y="19" width="1" height="1" fill="#7b5942"/>
<rect x="5" y="19" width="1" height="1" fill="#805b44"/>
<rect x="26" y="19" width="2" height="1" fill="#7b5841"/>
<rect x="21" y="19" width="1" height="1" fill="#785641"/>
<rect x="7" y="19" width="1" height="1" fill="#7a5841"/>
<rect x="4" y="19" width="1" height="1" fill="#7e5a43"/>
<rect x="22" y="19" width="1" height="1" fill="#7a5841"/>
<rect x="11" y="19" width="1" height="1" fill="#7b5841"/>
<rect x="16" y="19" width="1" height="1" fill="#7b5942"/>
<rect x="25" y="19" width="1" height="1" fill="#7c5942"/>
<rect x="24" y="19" width="1" height="1" fill="#815e45"/>
<rect x="8" y="19" width="1" height="1" fill="#7b5841"/>
<rect x="31" y="19" width="1" height="2" fill="#815e45"/>
<rect x="6" y="19" width="1" height="2" fill="#7e5a43"/>
<rect x="12" y="20" width="1" height="1" fill="#7e5a43"/>
<rect x="20" y="20" width="1" height="1" fill="#785641"/>
<rect x="21" y="20" width="1" height="1" fill="#78543b"/>
<rect x="16" y="20" width="1" height="1" fill="#7b5943"/>
<rect x="5" y="20" width="1" height="1" fill="#815e45"/>
<rect x="22" y="20" width="1" height="1" fill="#785641"/>
<rect x="10" y="20" width="2" height="1" fill="#7a5841"/>
<rect x="18" y="20" width="2" height="1" fill="#7b5841"/>
<rect x="24" y="20" width="1" height="1" fill="#7b5841"/>
<rect x="30" y="20" width="1" height="1" fill="#7b5841"/>
<rect x="13" y="20" width="1" height="1" fill="#7c5942"/>
<rect x="14" y="20" width="1" height="1" fill="#7a5841"/>
<rect x="0" y="20" width="1" height="2" fill="#7f593f"/>
<rect x="4" y="20" width="1" height="2" fill="#805b44"/>
<rect x="8" y="20" width="1" height="2" fill="#7a5841"/>
<rect x="22" y="21" width="1" height="1" fill="#7a5741"/>
<rect x="3" y="21" width="1" height="1" fill="#815e45"/>
<rect x="24" y="21" width="1" height="1" fill="#7b5741"/>
<rect x="12" y="21" width="1" height="1" fill="#805b44"/>
<rect x="23" y="21" width="1" height="1" fill="#7a5841"/>
<rect x="19" y="21" width="1" height="1" fill="#7a5842"/>
<rect x="13" y="21" width="1" height="1" fill="#7e5a43"/>
<rect x="18" y="21" width="1" height="1" fill="#7a5741"/>
<rect x="10" y="21" width="1" height="1" fill="#7b5741"/>
<rect x="16" y="21" width="2" height="1" fill="#815e45"/>
<rect x="15" y="21" width="1" height="1" fill="#7c5a42"/>
<rect x="27" y="21" width="1" height="1" fill="#7b5841"/>
<rect x="11" y="21" width="1" height="2" fill="#7b5841"/>
<rect x="3" y="22" width="1" height="1" fill="#7e5a43"/>
<rect x="22" y="22" width="2" height="1" fill="#7a5842"/>
<rect x="15" y="22" width="1" height="1" fill="#7b5942"/>
<rect x="4" y="22" width="1" height="1" fill="#7c5942"/>
<rect x="5" y="22" width="1" height="1" fill="#7a5841"/>
<rect x="13" y="22" width="1" height="1" fill="#7b5841"/>
<rect x="7" y="22" width="1" height="1" fill="#7e5a43"/>
<rect x="12" y="22" width="1" height="1" fill="#7a5841"/>
<rect x="20" y="22" width="1" height="1" fill="#7b5942"/>
<rect x="6" y="22" width="1" height="1" fill="#815e45"/>
<rect x="24" y="22" width="2" height="1" fill="#805b44"/>
<rect x="2" y="20" width="1" height="4" fill="#7a5741"/>
<rect x="27" y="22" width="1" height="2" fill="#7c5942"/>
<rect x="8" y="22" width="1" height="2" fill="#7b5841"/>
<rect x="28" y="23" width="1" height="1" fill="#785641"/>
<rect x="13" y="23" width="1" height="1" fill="#7c5942"/>
<rect x="24" y="23" width="1" height="1" fill="#7c5942"/>
<rect x="20" y="23" width="1" height="1" fill="#7b5841"/>
<rect x="29" y="23" width="1" height="1" fill="#78543b"/>
<rect x="25" y="23" width="1" height="1" fill="#7b5942"/>
<rect x="6" y="23" width="1" height="1" fill="#7c5942"/>
<rect x="11" y="23" width="2" height="1" fill="#7b5841"/>
<rect x="4" y="23" width="2" height="1" fill="#7b5841"/>
<rect x="9" y="23" width="2" height="1" fill="#7a5841"/>
<rect x="23" y="23" width="1" height="2" fill="#7a5741"/>
<rect x="6" y="24" width="1" height="1" fill="#7b5841"/>
<rect x="28" y="24" width="1" height="1" fill="#7a5842"/>
<rect x="7" y="24" width="1" height="1" fill="#7c5942"/>
<rect x="4" y="24" width="1" height="1" fill="#815e45"/>
<rect x="5" y="24" width="1" height="1" fill="#7e5a43"/>
<rect x="10" y="24" width="1" height="1" fill="#7b5741"/>
<rect x="11" y="24" width="1" height="1" fill="#7c5942"/>
<rect x="12" y="24" width="1" height="1" fill="#7b5942"/>
<rect x="18" y="24" width="1" height="1" fill="#7a5842"/>
<rect x="24" y="24" width="1" height="1" fill="#7b5841"/>
<rect x="8" y="24" width="1" height="1" fill="#815e45"/>
<rect x="9" y="24" width="1" height="1" fill="#7c5942"/>
<rect x="29" y="24" width="1" height="1" fill="#785641"/>
<rect x="22" y="25" width="1" height="1" fill="#7a5741"/>
<rect x="12" y="25" width="1" height="1" fill="#7e5a43"/>
<rect x="29" y="25" width="1" height="1" fill="#805b44"/>
<rect x="16" y="25" width="1" height="1" fill="#7e5a43"/>
<rect x="23" y="25" width="1" height="1" fill="#7a5841"/>
<rect x="8" y="25" width="2" height="1" fill="#7a5841"/>
<rect x="26" y="25" width="2" height="1" fill="#7b5841"/>
<rect x="18" y="25" width="1" height="1" fill="#7b5943"/>
<rect x="30" y="25" width="1" height="1" fill="#7b5942"/>
<rect x="4" y="25" width="1" height="1" fill="#7e5a43"/>
<rect x="6" y="25" width="2" height="1" fill="#7b5841"/>
<rect x="5" y="25" width="1" height="1" fill="#7c5942"/>
<rect x="25" y="25" width="1" height="1" fill="#7a5841"/>
<rect x="11" y="25" width="1" height="1" fill="#805b44"/>
<rect x="2" y="24" width="1" height="3" fill="#7a563f"/>
<rect x="15" y="25" width="1" height="2" fill="#815e45"/>
<rect x="17" y="26" width="1" height="1" fill="#7b5841"/>
<rect x="21" y="26" width="1" height="1" fill="#7b5841"/>
<rect x="22" y="26" width="1" height="1" fill="#805b44"/>
<rect x="29" y="26" width="1" height="1" fill="#815e45"/>
<rect x="4" y="26" width="1" height="1" fill="#7a5841"/>
<rect x="28" y="26" width="1" height="1" fill="#7c5942"/>
<rect x="6" y="26" width="3" height="1" fill="#7b5841"/>
<rect x="10" y="26" width="3" height="1" fill="#7b5841"/>
<rect x="5" y="26" width="1" height="1" fill="#7b5741"/>
<rect x="9" y="26" width="1" height="1" fill="#7a5841"/>
<rect x="26" y="26" width="1" height="1" fill="#7b5942"/>
<rect x="16" y="26" width="1" height="1" fill="#7c5942"/>
<rect x="23" y="26" width="1" height="1" fill="#815e45"/>
<rect x="27" y="26" width="1" height="1" fill="#7a5841"/>
<rect x="14" y="26" width="1" height="1" fill="#7c5942"/>
<rect x="24" y="26" width="2" height="1" fill="#7a5842"/>
<rect x="30" y="26" width="1" height="2" fill="#7c5942"/>
<rect x="23" y="27" width="1" height="1" fill="#7c5942"/>
<rect x="15" y="27" width="1" height="1" fill="#7c5942"/>
<rect x="19" y="27" width="1" height="1" fill="#7a5841"/>
<rect x="3" y="27" width="2" height="1" fill="#7b5841"/>
<rect x="13" y="27" width="1" height="1" fill="#7e5a43"/>
<rect x="14" y="27" width="1" height="1" fill="#815e45"/>
<rect x="28" y="27" width="1" height="1" fill="#7b5841"/>
<rect x="6" y="27" width="2" height="1" fill="#7b5841"/>
<rect x="25" y="27" width="2" height="1" fill="#7b5841"/>
<rect x="8" y="27" width="2" height="1" fill="#7a5741"/>
<rect x="11" y="27" width="1" height="1" fill="#7b5841"/>
<rect x="5" y="27" width="1" height="1" fill="#7a5841"/>
<rect x="12" y="27" width="1" height="1" fill="#7a5842"/>
<rect x="24" y="27" width="1" height="1" fill="#7a5741"/>
<rect x="18" y="27" width="1" height="1" fill="#7c5942"/>
<rect x="2" y="27" width="1" height="2" fill="#78543b"/>
<rect x="22" y="27" width="1" height="2" fill="#7b5942"/>
<rect x="27" y="28" width="1" height="1" fill="#7b5942"/>
<rect x="28" y="28" width="1" height="1" fill="#7a5842"/>
<rect x="3" y="28" width="8" height="1" fill="#7b5841"/>
<rect x="30" y="28" width="1" height="1" fill="#7b5942"/>
<rect x="25" y="28" width="1" height="1" fill="#7b5841"/>
<rect x="14" y="28" width="1" height="1" fill="#7c5942"/>
<rect x="23" y="28" width="1" height="1" fill="#7b5841"/>
<rect x="26" y="28" width="1" height="1" fill="#7a5842"/>
<rect x="20" y="28" width="1" height="1" fill="#7a5841"/>
<rect x="13" y="28" width="1" height="1" fill="#7b5942"/>
<rect x="12" y="29" width="2" height="1" fill="#7b5841"/>
<rect x="26" y="29" width="1" height="1" fill="#7b5942"/>
<rect x="9" y="29" width="1" height="1" fill="#7b5841"/>
<rect x="4" y="29" width="1" height="1" fill="#7e5a43"/>
<rect x="11" y="29" width="1" height="1" fill="#7b5741"/>
<rect x="2" y="29" width="2" height="1" fill="#815e45"/>
<rect x="8" y="29" width="1" height="1" fill="#7a5741"/>
<rect x="6" y="29" width="2" height="1" fill="#7a5841"/>
<rect x="18" y="29" width="1" height="1" fill="#7c5942"/>
<rect x="27" y="29" width="2" height="1" fill="#7a5842"/>
<rect x="5" y="29" width="1" height="1" fill="#7b5841"/>
<rect x="24" y="29" width="1" height="1" fill="#7b5942"/>
<rect x="16" y="29" width="1" height="1" fill="#7b5942"/>
<rect x="31" y="21" width="1" height="10" fill="#805b44"/>
<rect x="21" y="29" width="1" height="2" fill="#7a5842"/>
<rect x="6" y="30" width="1" height="1" fill="#7b5841"/>
<rect x="10" y="30" width="1" height="1" fill="#7b5841"/>
<rect x="17" y="30" width="2" height="1" fill="#7c5942"/>
<rect x="22" y="30" width="1" height="1" fill="#7b5942"/>
<rect x="15" y="30" width="1" height="1" fill="#7c5942"/>
<rect x="9" y="30" width="1" height="1" fill="#7b5741"/>
<rect x="23" y="30" width="1" height="1" fill="#7a5842"/>
<rect x="28" y="30" width="1" height="1" fill="#7b5942"/>
<rect x="30" y="30" width="1" height="1" fill="#7c5942"/>
<rect x="7" y="30" width="1" height="1" fill="#7a5741"/>
<rect x="8" y="30" width="1" height="1" fill="#7b5841"/>
<rect x="20" y="30" width="1" height="1" fill="#7b5942"/>
<rect x="1" y="20" width="1" height="12" fill="#734f35"/>
<rect x="0" y="22" width="1" height="10" fill="#78543b"/>
<rect x="3" y="30" width="3" height="2" fill="#815e45"/>
<rect x="2" y="30" width="1" height="2" fill="#7f593f"/>
<rect x="8" y="31" width="1" height="1" fill="#7a5841"/>
<rect x="30" y="31" width="1" height="1" fill="#7b5942"/>
<rect x="6" y="31" width="2" height="1" fill="#7b5841"/>
<rect x="13" y="31" width="1" height="1" fill="#7e5a43"/>
<rect x="15" y="31" width="1" height="1" fill="#7e5a43"/>
<rect x="9" y="31" width="2" height="1" fill="#7b5841"/>
<rect x="18" y="31" width="2" height="1" fill="#805b44"/>
<rect x="20" y="31" width="1" height="1" fill="#7b5841"/>
<rect x="27" y="31" width="1" height="1" fill="#7a5842"/>
<rect x="14" y="31" width="1" height="1" fill="#815e45"/>
<rect x="31" y="31" width="1" height="1" fill="#815e45"/>
</svg>