<?xml version="1.0" encoding="UTF-8"?>
<svg xmlns="http://www.w3.org/2000/svg" width="20mm" height="20mm" viewBox="0 0 32 32" shape-rendering="crispEdges">
<title>180 右侧面 structured semantic redraw</title>
<metadata>registered 32-unit semantic vector redraw; no embedded raster; physical-size=20mm</metadata>
<rect x="0" y="0" width="32" height="32" fill="#6aa5ce"/>
<rect x="31" y="0" width="1" height="1" fill="#559ace"/>
<rect x="25" y="0" width="3" height="1" fill="#559ace"/>
<rect x="28" y="0" width="3" height="1" fill="#559bce"/>
<rect x="20" y="0" width="1" height="1" fill="#5479b3"/>
<rect x="4" y="0" width="2" height="1" fill="#60a8da"/>
<rect x="0" y="0" width="1" height="1" fill="#9eb6c8"/>
<rect x="18" y="0" width="1" height="1" fill="#6c92bd"/>
<rect x="22" y="0" width="2" height="1" fill="#559ace"/>
<rect x="17" y="0" width="1" height="1" fill="#569ace"/>
<rect x="24" y="0" width="1" height="1" fill="#559bce"/>
<rect x="7" y="0" width="9" height="1" fill="#559ace"/>
<rect x="16" y="0" width="1" height="1" fill="#559bce"/>
<rect x="19" y="0" width="1" height="1" fill="#4764a8"/>
<rect x="2" y="0" width="2" height="1" fill="#6cacd7"/>
<rect x="1" y="0" width="1" height="1" fill="#7aa9ca"/>
<rect x="6" y="0" width="1" height="2" fill="#62a0cd"/>
<rect x="21" y="0" width="1" height="2" fill="#6c92bd"/>
<rect x="5" y="1" width="1" height="1" fill="#60a8da"/>
<rect x="2" y="1" width="1" height="1" fill="#81b5d4"/>
<rect x="18" y="1" width="1" height="1" fill="#7384b0"/>
<rect x="7" y="1" width="9" height="1" fill="#579cce"/>
<rect x="19" y="1" width="1" height="1" fill="#5479b3"/>
<rect x="3" y="1" width="2" height="1" fill="#6cacd7"/>
<rect x="22" y="1" width="1" height="1" fill="#5396cb"/>
<rect x="23" y="1" width="9" height="1" fill="#579cce"/>
<rect x="0" y="1" width="1" height="1" fill="#5396cb"/>
<rect x="16" y="1" width="2" height="1" fill="#5396cb"/>
<rect x="1" y="1" width="1" height="1" fill="#6aa3cc"/>
<rect x="4" y="2" width="2" height="1" fill="#6cacd7"/>
<rect x="3" y="2" width="1" height="1" fill="#81b5d4"/>
<rect x="16" y="2" width="1" height="1" fill="#8d98b7"/>
<rect x="0" y="2" width="1" height="1" fill="#5583bc"/>
<rect x="21" y="2" width="1" height="1" fill="#5583bc"/>
<rect x="24" y="2" width="8" height="1" fill="#62a0cd"/>
<rect x="1" y="2" width="1" height="1" fill="#5396cb"/>
<rect x="6" y="2" width="9" height="1" fill="#62a0cd"/>
<rect x="17" y="2" width="1" height="1" fill="#6c92bd"/>
<rect x="2" y="2" width="1" height="1" fill="#7aa9ca"/>
<rect x="22" y="2" width="1" height="1" fill="#8d98b7"/>
<rect x="15" y="2" width="1" height="1" fill="#5396cb"/>
<rect x="23" y="2" width="1" height="1" fill="#6c92bd"/>
<rect x="20" y="1" width="1" height="3" fill="#647aad"/>
<rect x="19" y="2" width="1" height="2" fill="#5370aa"/>
<rect x="18" y="2" width="1" height="2" fill="#5479b3"/>
<rect x="16" y="3" width="1" height="1" fill="#4764a8"/>
<rect x="3" y="3" width="2" height="1" fill="#81b5d4"/>
<rect x="0" y="3" width="1" height="1" fill="#6c98c2"/>
<rect x="15" y="3" width="1" height="1" fill="#62a0cd"/>
<rect x="21" y="3" width="1" height="1" fill="#8fa5be"/>
<rect x="31" y="3" width="1" height="1" fill="#62a0cd"/>
<rect x="6" y="3" width="1" height="1" fill="#6aa3cc"/>
<rect x="12" y="3" width="2" height="1" fill="#6aa3cc"/>
<rect x="23" y="3" width="1" height="1" fill="#5583bc"/>
<rect x="24" y="3" width="7" height="1" fill="#6aa3cc"/>
<rect x="17" y="3" width="1" height="1" fill="#8d98b7"/>
<rect x="1" y="3" width="1" height="1" fill="#569ace"/>
<rect x="22" y="3" width="1" height="1" fill="#647aad"/>
<rect x="2" y="3" width="1" height="1" fill="#5479b3"/>
<rect x="5" y="3" width="1" height="1" fill="#6cacd7"/>
<rect x="29" y="4" width="2" height="1" fill="#6aa3cc"/>
<rect x="16" y="4" width="1" height="1" fill="#6aa3cc"/>
<rect x="21" y="4" width="1" height="1" fill="#5370aa"/>
<rect x="3" y="4" width="3" height="1" fill="#81b5d4"/>
<rect x="25" y="4" width="2" height="1" fill="#6287b7"/>
<rect x="12" y="4" width="1" height="1" fill="#788db4"/>
<rect x="19" y="4" width="1" height="1" fill="#788db4"/>
<rect x="13" y="4" width="1" height="1" fill="#5583bc"/>
<rect x="2" y="4" width="1" height="1" fill="#94bed1"/>
<rect x="17" y="4" width="1" height="1" fill="#4764a8"/>
<rect x="18" y="4" width="1" height="1" fill="#647aad"/>
<rect x="20" y="4" width="1" height="1" fill="#7384b0"/>
<rect x="10" y="4" width="1" height="1" fill="#6c98c2"/>
<rect x="0" y="4" width="1" height="1" fill="#8d98b7"/>
<rect x="1" y="4" width="1" height="1" fill="#7aa9ca"/>
<rect x="22" y="4" width="1" height="2" fill="#6c92bd"/>
<rect x="8" y="5" width="1" height="1" fill="#7d96b9"/>
<rect x="21" y="5" width="1" height="1" fill="#7d96b9"/>
<rect x="26" y="5" width="1" height="1" fill="#8d98b7"/>
<rect x="17" y="5" width="1" height="1" fill="#6c92bd"/>
<rect x="0" y="5" width="3" height="1" fill="#9ec5d3"/>
<rect x="5" y="5" width="2" height="1" fill="#7aa9ca"/>
<rect x="7" y="5" width="1" height="1" fill="#6aa3cc"/>
<rect x="25" y="5" width="1" height="1" fill="#5583bc"/>
<rect x="10" y="5" width="1" height="1" fill="#7d96b9"/>
<rect x="29" y="5" width="3" height="1" fill="#7aa9ca"/>
<rect x="16" y="5" width="1" height="1" fill="#788db4"/>
<rect x="23" y="5" width="2" height="1" fill="#7aa9ca"/>
<rect x="13" y="5" width="1" height="1" fill="#5396cb"/>
<rect x="4" y="5" width="1" height="1" fill="#81b5d4"/>
<rect x="28" y="5" width="1" height="1" fill="#6c92bd"/>
<rect x="9" y="5" width="1" height="1" fill="#6c98c2"/>
<rect x="20" y="5" width="1" height="1" fill="#5583bc"/>
<rect x="19" y="5" width="1" height="1" fill="#7ca1c1"/>
<rect x="11" y="5" width="1" height="1" fill="#6c98c2"/>
<rect x="3" y="5" width="1" height="1" fill="#94bed1"/>
<rect x="12" y="5" width="1" height="2" fill="#9eb6c8"/>
<rect x="18" y="5" width="1" height="2" fill="#5479b3"/>
<rect x="27" y="5" width="1" height="2" fill="#7ca1c1"/>
<rect x="0" y="6" width="1" height="1" fill="#7aa9ca"/>
<rect x="19" y="6" width="1" height="1" fill="#647aad"/>
<rect x="21" y="6" width="1" height="1" fill="#7384b0"/>
<rect x="15" y="6" width="1" height="1" fill="#7aa9ca"/>
<rect x="14" y="6" width="1" height="1" fill="#7d96b9"/>
<rect x="30" y="6" width="1" height="1" fill="#788db4"/>
<rect x="17" y="6" width="1" height="1" fill="#6287b7"/>
<rect x="8" y="6" width="1" height="1" fill="#a5c1cb"/>
<rect x="23" y="6" width="2" height="1" fill="#6aa3cc"/>
<rect x="16" y="6" width="1" height="1" fill="#5370aa"/>
<rect x="3" y="6" width="2" height="1" fill="#94bed1"/>
<rect x="1" y="6" width="2" height="1" fill="#a7d1e0"/>
<rect x="22" y="6" width="1" height="1" fill="#647aad"/>
<rect x="9" y="6" width="1" height="1" fill="#7d96b9"/>
<rect x="28" y="6" width="1" height="1" fill="#9ea8c0"/>
<rect x="10" y="6" width="1" height="1" fill="#5370aa"/>
<rect x="20" y="6" width="1" height="1" fill="#5479b3"/>
<rect x="7" y="6" width="1" height="1" fill="#6c92bd"/>
<rect x="11" y="6" width="1" height="1" fill="#6c92bd"/>
<rect x="29" y="6" width="1" height="1" fill="#8fa5be"/>
<rect x="6" y="6" width="1" height="1" fill="#7aa9ca"/>
<rect x="25" y="6" width="1" height="2" fill="#6c92bd"/>
<rect x="13" y="6" width="1" height="2" fill="#6c98c2"/>
<rect x="31" y="6" width="1" height="2" fill="#7aa9ca"/>
<rect x="5" y="6" width="1" height="2" fill="#8cb6cb"/>
<rect x="26" y="6" width="1" height="2" fill="#9ea8c0"/>
<rect x="20" y="7" width="1" height="1" fill="#4764a8"/>
<rect x="17" y="7" width="2" height="1" fill="#5370aa"/>
<rect x="7" y="7" width="1" height="1" fill="#7ca1c1"/>
<rect x="14" y="7" width="1" height="1" fill="#9ea8c0"/>
<rect x="8" y="7" width="1" height="1" fill="#5583bc"/>
<rect x="10" y="7" width="1" height="1" fill="#9ea8c0"/>
<rect x="12" y="7" width="1" height="1" fill="#7ca1c1"/>
<rect x="0" y="7" width="3" height="1" fill="#a7d1e0"/>
<rect x="23" y="7" width="1" height="1" fill="#7384b0"/>
<rect x="6" y="7" width="1" height="1" fill="#81b5d4"/>
<rect x="4" y="7" width="1" height="1" fill="#94bed1"/>
<rect x="22" y="7" width="1" height="1" fill="#8cb6cb"/>
<rect x="3" y="7" width="1" height="1" fill="#9ec5d3"/>
<rect x="15" y="7" width="1" height="1" fill="#6c92bd"/>
<rect x="16" y="7" width="1" height="1" fill="#7aa9ca"/>
<rect x="29" y="7" width="2" height="1" fill="#5583bc"/>
<rect x="28" y="7" width="1" height="1" fill="#7384b0"/>
<rect x="24" y="7" width="1" height="1" fill="#8fa5be"/>
<rect x="9" y="7" width="1" height="1" fill="#5479b3"/>
<rect x="21" y="7" width="1" height="1" fill="#647aad"/>
<rect x="11" y="7" width="1" height="1" fill="#7384b0"/>
<rect x="19" y="7" width="1" height="2" fill="#7d96b9"/>
<rect x="27" y="7" width="1" height="2" fill="#788db4"/>
<rect x="29" y="8" width="1" height="1" fill="#5583bc"/>
<rect x="12" y="8" width="1" height="1" fill="#6287b7"/>
<rect x="17" y="8" width="1" height="1" fill="#7d96b9"/>
<rect x="16" y="8" width="1" height="1" fill="#81b5d4"/>
<rect x="8" y="8" width="1" height="1" fill="#8fa5be"/>
<rect x="20" y="8" width="1" height="1" fill="#788db4"/>
<rect x="30" y="8" width="1" height="1" fill="#7ca1c1"/>
<rect x="25" y="8" width="1" height="1" fill="#5479b3"/>
<rect x="10" y="8" width="1" height="1" fill="#7384b0"/>
<rect x="14" y="8" width="1" height="1" fill="#9eb6c8"/>
<rect x="24" y="8" width="1" height="1" fill="#8cb6cb"/>
<rect x="21" y="8" width="2" height="1" fill="#8cb6cb"/>
<rect x="13" y="8" width="1" height="1" fill="#7ca1c1"/>
<rect x="18" y="8" width="1" height="1" fill="#788db4"/>
<rect x="26" y="8" width="1" height="1" fill="#7384b0"/>
<rect x="9" y="8" width="1" height="1" fill="#6287b7"/>
<rect x="28" y="8" width="1" height="1" fill="#4764a8"/>
<rect x="11" y="8" width="1" height="1" fill="#9eb6c8"/>
<rect x="15" y="8" width="1" height="1" fill="#7ca1c1"/>
<rect x="31" y="8" width="1" height="2" fill="#8cb6cb"/>
<rect x="5" y="8" width="3" height="2" fill="#8cb6cb"/>
<rect x="23" y="8" width="1" height="2" fill="#8d98b7"/>
<rect x="10" y="9" width="1" height="1" fill="#8cb6cb"/>
<rect x="9" y="9" width="1" height="1" fill="#7ca1c1"/>
<rect x="26" y="9" width="1" height="1" fill="#8d98b7"/>
<rect x="24" y="9" width="1" height="1" fill="#788db4"/>
<rect x="25" y="9" width="1" height="1" fill="#7384b0"/>
<rect x="18" y="9" width="1" height="1" fill="#8fa5be"/>
<rect x="22" y="9" width="1" height="1" fill="#7ca1c1"/>
<rect x="14" y="9" width="1" height="1" fill="#6c92bd"/>
<rect x="19" y="9" width="1" height="1" fill="#9ea8c0"/>
<rect x="30" y="9" width="1" height="1" fill="#7aa9ca"/>
<rect x="8" y="9" width="1" height="1" fill="#788db4"/>
<rect x="15" y="9" width="1" height="1" fill="#7d96b9"/>
<rect x="20" y="9" width="1" height="1" fill="#8fa5be"/>
<rect x="11" y="9" width="2" height="1" fill="#8d98b7"/>
<rect x="27" y="9" width="2" height="1" fill="#6287b7"/>
<rect x="13" y="9" width="1" height="1" fill="#647aad"/>
<rect x="29" y="9" width="1" height="1" fill="#6c92bd"/>
<rect x="4" y="8" width="1" height="3" fill="#9ec5d3"/>
<rect x="16" y="9" width="2" height="2" fill="#8cb6cb"/>
<rect x="21" y="9" width="1" height="2" fill="#94bed1"/>
<rect x="28" y="10" width="1" height="1" fill="#7ca1c1"/>
<rect x="31" y="10" width="1" height="1" fill="#94bed1"/>
<rect x="27" y="10" width="1" height="1" fill="#6287b7"/>
<rect x="18" y="10" width="1" height="1" fill="#7d96b9"/>
<rect x="19" y="10" width="1" height="1" fill="#8fa5be"/>
<rect x="12" y="10" width="1" height="1" fill="#788db4"/>
<rect x="5" y="10" width="4" height="1" fill="#8cb6cb"/>
<rect x="24" y="10" width="2" height="1" fill="#8d98b7"/>
<rect x="23" y="10" width="1" height="1" fill="#7d96b9"/>
<rect x="30" y="10" width="1" height="1" fill="#8cb6cb"/>
<rect x="15" y="10" width="1" height="1" fill="#6c92bd"/>
<rect x="14" y="10" width="1" height="1" fill="#8d98b7"/>
<rect x="9" y="10" width="1" height="1" fill="#7384b0"/>
<rect x="26" y="10" width="1" height="1" fill="#9ea8c0"/>
<rect x="11" y="10" width="1" height="1" fill="#7d96b9"/>
<rect x="22" y="10" width="1" height="1" fill="#7384b0"/>
<rect x="29" y="10" width="1" height="1" fill="#7d96b9"/>
<rect x="10" y="10" width="1" height="2" fill="#647aad"/>
<rect x="13" y="10" width="1" height="2" fill="#9eb6c8"/>
<rect x="20" y="10" width="1" height="2" fill="#8cb6cb"/>
<rect x="9" y="11" width="1" height="1" fill="#5370aa"/>
<rect x="6" y="11" width="1" height="1" fill="#9ec5d3"/>
<rect x="21" y="11" width="1" height="1" fill="#7d96b9"/>
<rect x="11" y="11" width="2" height="1" fill="#8fa5be"/>
<rect x="29" y="11" width="1" height="1" fill="#7ca1c1"/>
<rect x="27" y="11" width="1" height="1" fill="#4764a8"/>
<rect x="22" y="11" width="2" height="1" fill="#9ea8c0"/>
<rect x="8" y="11" width="1" height="1" fill="#8d98b7"/>
<rect x="18" y="11" width="1" height="1" fill="#6287b7"/>
<rect x="30" y="11" width="2" height="1" fill="#94bed1"/>
<rect x="19" y="11" width="1" height="1" fill="#5479b3"/>
<rect x="28" y="11" width="1" height="1" fill="#7384b0"/>
<rect x="25" y="11" width="2" height="1" fill="#7384b0"/>
<rect x="14" y="11" width="2" height="1" fill="#9ea8c0"/>
<rect x="17" y="11" width="1" height="1" fill="#8cb6cb"/>
<rect x="7" y="11" width="1" height="1" fill="#94bed1"/>
<rect x="24" y="11" width="1" height="1" fill="#a5c1cb"/>
<rect x="16" y="11" width="1" height="1" fill="#7d96b9"/>
<rect x="4" y="11" width="2" height="2" fill="#a5c1cb"/>
<rect x="28" y="12" width="1" height="1" fill="#5370aa"/>
<rect x="8" y="12" width="1" height="1" fill="#6c92bd"/>
<rect x="13" y="12" width="1" height="1" fill="#8fa5be"/>
<rect x="25" y="12" width="1" height="1" fill="#9ea8c0"/>
<rect x="30" y="12" width="2" height="1" fill="#9ec5d3"/>
<rect x="16" y="12" width="1" height="1" fill="#a5c1cb"/>
<rect x="29" y="12" width="1" height="1" fill="#8d98b7"/>
<rect x="10" y="12" width="1" height="1" fill="#8fa5be"/>
<rect x="6" y="12" width="2" height="1" fill="#9ec5d3"/>
<rect x="21" y="12" width="1" height="1" fill="#a5c1cb"/>
<rect x="15" y="12" width="1" height="1" fill="#7d96b9"/>
<rect x="17" y="12" width="1" height="1" fill="#788db4"/>
<rect x="9" y="12" width="1" height="1" fill="#7d96b9"/>
<rect x="19" y="12" width="1" height="1" fill="#6287b7"/>
<rect x="20" y="12" width="1" height="1" fill="#7d96b9"/>
<rect x="14" y="12" width="1" height="1" fill="#788db4"/>
<rect x="22" y="12" width="2" height="1" fill="#8d98b7"/>
<rect x="24" y="12" width="1" height="1" fill="#7d96b9"/>
<rect x="18" y="12" width="1" height="1" fill="#7ca1c1"/>
<rect x="26" y="12" width="2" height="1" fill="#788db4"/>
<rect x="12" y="12" width="1" height="1" fill="#9ea8c0"/>
<rect x="11" y="12" width="1" height="1" fill="#9eb6c8"/>
<rect x="0" y="8" width="4" height="6" fill="#a7d1e0"/>
<rect x="20" y="13" width="1" height="1" fill="#4764a8"/>
<rect x="10" y="13" width="1" height="1" fill="#8cb6cb"/>
<rect x="29" y="13" width="1" height="1" fill="#9eb6c8"/>
<rect x="28" y="13" width="1" height="1" fill="#7ca1c1"/>
<rect x="15" y="13" width="1" height="1" fill="#647aad"/>
<rect x="8" y="13" width="2" height="1" fill="#9ec5d3"/>
<rect x="27" y="13" width="1" height="1" fill="#a5c1cb"/>
<rect x="5" y="13" width="2" height="1" fill="#9ec5d3"/>
<rect x="16" y="13" width="1" height="1" fill="#4764a8"/>
<rect x="19" y="13" width="1" height="1" fill="#7d96b9"/>
<rect x="25" y="13" width="1" height="1" fill="#8d98b7"/>
<rect x="21" y="13" width="1" height="1" fill="#788db4"/>
<rect x="18" y="13" width="1" height="1" fill="#8d98b7"/>
<rect x="30" y="13" width="2" height="1" fill="#a5c1cb"/>
<rect x="4" y="13" width="1" height="1" fill="#a5c1cb"/>
<rect x="17" y="13" width="1" height="1" fill="#647aad"/>
<rect x="26" y="13" width="1" height="1" fill="#9ea8c0"/>
<rect x="11" y="13" width="1" height="1" fill="#8fa5be"/>
<rect x="12" y="13" width="2" height="1" fill="#9eb6c8"/>
<rect x="23" y="13" width="1" height="1" fill="#8d98b7"/>
<rect x="22" y="13" width="1" height="1" fill="#7d96b9"/>
<rect x="14" y="13" width="1" height="1" fill="#8cb6cb"/>
<rect x="24" y="13" width="1" height="1" fill="#9eb6c8"/>
<rect x="7" y="13" width="1" height="1" fill="#a5c1cb"/>
<rect x="19" y="14" width="1" height="1" fill="#8d98b7"/>
<rect x="17" y="14" width="1" height="1" fill="#788db4"/>
<rect x="21" y="14" width="1" height="1" fill="#9eb6c8"/>
<rect x="18" y="14" width="1" height="1" fill="#7384b0"/>
<rect x="10" y="14" width="1" height="1" fill="#a5c1cb"/>
<rect x="15" y="14" width="1" height="1" fill="#94bed1"/>
<rect x="12" y="14" width="3" height="1" fill="#9ec5d3"/>
<rect x="0" y="14" width="1" height="1" fill="#9ec5d3"/>
<rect x="16" y="14" width="1" height="1" fill="#9eb6c8"/>
<rect x="1" y="14" width="3" height="1" fill="#a7d1e0"/>
<rect x="20" y="14" width="1" height="1" fill="#8fa5be"/>
<rect x="26" y="14" width="1" height="1" fill="#9eb6c8"/>
<rect x="22" y="14" width="1" height="1" fill="#94bed1"/>
<rect x="23" y="14" width="3" height="1" fill="#a5c1cb"/>
<rect x="11" y="14" width="1" height="1" fill="#9eb6c8"/>
<rect x="5" y="14" width="5" height="1" fill="#9ec5d3"/>
<rect x="27" y="14" width="5" height="2" fill="#a5c1cb"/>
<rect x="20" y="15" width="1" height="1" fill="#4764a8"/>
<rect x="25" y="15" width="1" height="1" fill="#8fa5be"/>
<rect x="21" y="15" width="1" height="1" fill="#9ea8c0"/>
<rect x="8" y="15" width="1" height="1" fill="#9eb6c8"/>
<rect x="14" y="15" width="1" height="1" fill="#8fa5be"/>
<rect x="2" y="15" width="2" height="1" fill="#a7d1e0"/>
<rect x="18" y="15" width="1" height="1" fill="#8fa5be"/>
<rect x="0" y="15" width="1" height="1" fill="#a7d1e0"/>
<rect x="9" y="15" width="1" height="1" fill="#9ec5d3"/>
<rect x="16" y="15" width="1" height="1" fill="#788db4"/>
<rect x="17" y="15" width="1" height="1" fill="#4764a8"/>
<rect x="22" y="15" width="2" height="1" fill="#9eb6c8"/>
<rect x="15" y="15" width="1" height="1" fill="#9eb6c8"/>
<rect x="10" y="15" width="1" height="1" fill="#8d98b7"/>
<rect x="11" y="15" width="1" height="1" fill="#9ea8c0"/>
<rect x="5" y="15" width="3" height="1" fill="#9ec5d3"/>
<rect x="19" y="15" width="1" height="1" fill="#5370aa"/>
<rect x="12" y="15" width="1" height="1" fill="#8fa5be"/>
<rect x="1" y="15" width="1" height="1" fill="#9ec5d3"/>
<rect x="24" y="15" width="1" height="1" fill="#a5c1cb"/>
<rect x="4" y="14" width="1" height="3" fill="#9eb6c8"/>
<rect x="26" y="15" width="1" height="2" fill="#8d98b7"/>
<rect x="13" y="15" width="1" height="2" fill="#7ca1c1"/>
<rect x="29" y="16" width="1" height="1" fill="#9eb6c8"/>
<rect x="28" y="16" width="1" height="1" fill="#7ca1c1"/>
<rect x="8" y="16" width="1" height="1" fill="#5479b3"/>
<rect x="27" y="16" width="1" height="1" fill="#a5c1cb"/>
<rect x="5" y="16" width="2" height="1" fill="#9ec5d3"/>
<rect x="18" y="16" width="1" height="1" fill="#7d96b9"/>
<rect x="21" y="16" width="1" height="1" fill="#a5c1cb"/>
<rect x="25" y="16" width="1" height="1" fill="#a5c1cb"/>
<rect x="11" y="16" width="2" height="1" fill="#a5c1cb"/>
<rect x="24" y="16" width="1" height="1" fill="#8fa5be"/>
<rect x="0" y="16" width="4" height="1" fill="#9ec5d3"/>
<rect x="20" y="16" width="1" height="1" fill="#7384b0"/>
<rect x="22" y="16" width="2" height="1" fill="#8d98b7"/>
<rect x="15" y="16" width="1" height="1" fill="#a5c1cb"/>
<rect x="7" y="16" width="1" height="1" fill="#7d96b9"/>
<rect x="19" y="16" width="1" height="1" fill="#788db4"/>
<rect x="16" y="16" width="2" height="1" fill="#788db4"/>
<rect x="9" y="16" width="2" height="1" fill="#7d96b9"/>
<rect x="14" y="16" width="1" height="2" fill="#8d98b7"/>
<rect x="30" y="16" width="2" height="2" fill="#a5c1cb"/>
<rect x="4" y="17" width="1" height="1" fill="#8cb6cb"/>
<rect x="27" y="17" width="1" height="1" fill="#6287b7"/>
<rect x="1" y="17" width="2" height="1" fill="#9ec5d3"/>
<rect x="22" y="17" width="3" height="1" fill="#a5c1cb"/>
<rect x="8" y="17" width="1" height="1" fill="#4764a8"/>
<rect x="10" y="17" width="1" height="1" fill="#7d96b9"/>
<rect x="13" y="17" width="1" height="1" fill="#9eb6c8"/>
<rect x="7" y="17" width="1" height="1" fill="#647aad"/>
<rect x="18" y="17" width="1" height="1" fill="#6c98c2"/>
<rect x="25" y="17" width="1" height="1" fill="#8d98b7"/>
<rect x="29" y="17" width="1" height="1" fill="#647aad"/>
<rect x="17" y="17" width="1" height="1" fill="#7ca1c1"/>
<rect x="0" y="17" width="1" height="1" fill="#81b5d4"/>
<rect x="21" y="17" width="1" height="1" fill="#788db4"/>
<rect x="5" y="17" width="2" height="1" fill="#94bed1"/>
<rect x="20" y="17" width="1" height="1" fill="#7d96b9"/>
<rect x="9" y="17" width="1" height="1" fill="#6c92bd"/>
<rect x="26" y="17" width="1" height="1" fill="#7d96b9"/>
<rect x="11" y="17" width="1" height="1" fill="#7384b0"/>
<rect x="19" y="17" width="1" height="1" fill="#7ca1c1"/>
<rect x="16" y="17" width="1" height="1" fill="#8fa5be"/>
<rect x="12" y="17" width="1" height="1" fill="#9ea8c0"/>
<rect x="3" y="17" width="1" height="1" fill="#94bed1"/>
<rect x="15" y="17" width="1" height="1" fill="#788db4"/>
<rect x="28" y="17" width="1" height="2" fill="#4764a8"/>
<rect x="9" y="18" width="3" height="1" fill="#8d98b7"/>
<rect x="16" y="18" width="1" height="1" fill="#94bed1"/>
<rect x="27" y="18" width="1" height="1" fill="#7384b0"/>
<rect x="12" y="18" width="1" height="1" fill="#9eb6c8"/>
<rect x="4" y="18" width="3" height="1" fill="#8cb6cb"/>
<rect x="15" y="18" width="1" height="1" fill="#8cb6cb"/>
<rect x="25" y="18" width="1" height="1" fill="#7d96b9"/>
<rect x="2" y="18" width="2" height="1" fill="#94bed1"/>
<rect x="7" y="18" width="1" height="1" fill="#7aa9ca"/>
<rect x="1" y="18" width="1" height="1" fill="#81b5d4"/>
<rect x="19" y="18" width="1" height="1" fill="#8fa5be"/>
<rect x="8" y="18" width="1" height="1" fill="#647aad"/>
<rect x="20" y="18" width="1" height="1" fill="#94bed1"/>
<rect x="26" y="18" width="1" height="1" fill="#9ea8c0"/>
<rect x="23" y="18" width="2" height="1" fill="#9ea8c0"/>
<rect x="18" y="18" width="1" height="1" fill="#6aa3cc"/>
<rect x="29" y="18" width="1" height="1" fill="#7d96b9"/>
<rect x="0" y="18" width="1" height="1" fill="#6aa3cc"/>
<rect x="14" y="18" width="1" height="2" fill="#6287b7"/>
<rect x="22" y="18" width="1" height="2" fill="#647aad"/>
<rect x="30" y="18" width="2" height="2" fill="#94bed1"/>
<rect x="13" y="18" width="1" height="2" fill="#8d98b7"/>
<rect x="21" y="18" width="1" height="2" fill="#7ca1c1"/>
<rect x="8" y="19" width="1" height="1" fill="#6c92bd"/>
<rect x="18" y="19" width="2" height="1" fill="#7ca1c1"/>
<rect x="7" y="19" width="1" height="1" fill="#4764a8"/>
<rect x="25" y="19" width="1" height="1" fill="#9ea8c0"/>
<rect x="26" y="19" width="1" height="1" fill="#788db4"/>
<rect x="9" y="19" width="1" height="1" fill="#647aad"/>
<rect x="20" y="19" width="1" height="1" fill="#8cb6cb"/>
<rect x="10" y="19" width="1" height="1" fill="#7384b0"/>
<rect x="23" y="19" width="1" height="1" fill="#7384b0"/>
<rect x="4" y="19" width="2" height="1" fill="#8cb6cb"/>
<rect x="12" y="19" width="1" height="1" fill="#647aad"/>
<rect x="15" y="19" width="2" height="1" fill="#8cb6cb"/>
<rect x="28" y="19" width="2" height="1" fill="#7ca1c1"/>
<rect x="11" y="19" width="1" height="1" fill="#8fa5be"/>
<rect x="3" y="19" width="1" height="1" fill="#94bed1"/>
<rect x="17" y="18" width="1" height="3" fill="#788db4"/>
<rect x="27" y="19" width="1" height="2" fill="#5370aa"/>
<rect x="0" y="19" width="3" height="2" fill="#81b5d4"/>
<rect x="24" y="19" width="1" height="2" fill="#7d96b9"/>
<rect x="6" y="19" width="1" height="2" fill="#7ca1c1"/>
<rect x="26" y="20" width="1" height="1" fill="#8d98b7"/>
<rect x="31" y="20" width="1" height="1" fill="#94bed1"/>
<rect x="18" y="20" width="1" height="1" fill="#9ea8c0"/>
<rect x="19" y="20" width="1" height="1" fill="#7384b0"/>
<rect x="16" y="20" width="1" height="1" fill="#7ca1c1"/>
<rect x="13" y="20" width="1" height="1" fill="#a5c1cb"/>
<rect x="30" y="20" width="1" height="1" fill="#8cb6cb"/>
<rect x="28" y="20" width="2" height="1" fill="#788db4"/>
<rect x="5" y="20" width="1" height="1" fill="#8cb6cb"/>
<rect x="10" y="20" width="1" height="1" fill="#5370aa"/>
<rect x="25" y="20" width="1" height="1" fill="#647aad"/>
<rect x="11" y="20" width="1" height="1" fill="#7d96b9"/>
<rect x="9" y="20" width="1" height="1" fill="#5583bc"/>
<rect x="22" y="20" width="1" height="1" fill="#9ea8c0"/>
<rect x="15" y="20" width="1" height="2" fill="#8cb6cb"/>
<rect x="23" y="20" width="1" height="2" fill="#8fa5be"/>
<rect x="3" y="20" width="1" height="2" fill="#8cb6cb"/>
<rect x="4" y="20" width="1" height="2" fill="#81b5d4"/>
<rect x="14" y="20" width="1" height="2" fill="#7ca1c1"/>
<rect x="20" y="20" width="2" height="2" fill="#8cb6cb"/>
<rect x="12" y="20" width="1" height="2" fill="#6c92bd"/>
<rect x="9" y="21" width="1" height="1" fill="#5370aa"/>
<rect x="10" y="21" width="1" height="1" fill="#647aad"/>
<rect x="22" y="21" width="1" height="1" fill="#9eb6c8"/>
<rect x="17" y="21" width="1" height="1" fill="#7384b0"/>
<rect x="27" y="21" width="1" height="1" fill="#5479b3"/>
<rect x="11" y="21" width="1" height="1" fill="#788db4"/>
<rect x="13" y="21" width="1" height="1" fill="#6c98c2"/>
<rect x="0" y="21" width="1" height="1" fill="#6cacd7"/>
<rect x="6" y="21" width="1" height="1" fill="#6c92bd"/>
<rect x="5" y="21" width="1" height="1" fill="#7ca1c1"/>
<rect x="25" y="21" width="1" height="1" fill="#5370aa"/>
<rect x="30" y="21" width="2" height="1" fill="#81b5d4"/>
<rect x="18" y="21" width="1" height="1" fill="#8d98b7"/>
<rect x="1" y="21" width="2" height="1" fill="#81b5d4"/>
<rect x="26" y="21" width="1" height="1" fill="#7d96b9"/>
<rect x="24" y="21" width="1" height="1" fill="#6c92bd"/>
<rect x="16" y="21" width="1" height="1" fill="#6c92bd"/>
<rect x="7" y="20" width="2" height="3" fill="#4764a8"/>
<rect x="19" y="21" width="1" height="2" fill="#647aad"/>
<rect x="29" y="21" width="1" height="2" fill="#6287b7"/>
<rect x="28" y="21" width="1" height="2" fill="#4764a8"/>
<rect x="12" y="22" width="1" height="1" fill="#6287b7"/>
<rect x="16" y="22" width="2" height="1" fill="#647aad"/>
<rect x="5" y="22" width="1" height="1" fill="#6287b7"/>
<rect x="9" y="22" width="1" height="1" fill="#647aad"/>
<rect x="13" y="22" width="1" height="1" fill="#5479b3"/>
<rect x="18" y="22" width="1" height="1" fill="#6c92bd"/>
<rect x="26" y="22" width="1" height="1" fill="#647aad"/>
<rect x="27" y="22" width="1" height="1" fill="#5370aa"/>
<rect x="25" y="22" width="1" height="1" fill="#8d98b7"/>
<rect x="10" y="22" width="1" height="1" fill="#6287b7"/>
<rect x="22" y="22" width="2" height="1" fill="#6287b7"/>
<rect x="15" y="22" width="1" height="1" fill="#6287b7"/>
<rect x="21" y="22" width="1" height="1" fill="#7aa9ca"/>
<rect x="2" y="22" width="1" height="1" fill="#81b5d4"/>
<rect x="11" y="22" width="1" height="1" fill="#7d96b9"/>
<rect x="20" y="22" width="1" height="1" fill="#5479b3"/>
<rect x="30" y="22" width="1" height="1" fill="#7d96b9"/>
<rect x="14" y="22" width="1" height="1" fill="#7aa9ca"/>
<rect x="24" y="22" width="1" height="1" fill="#5479b3"/>
<rect x="0" y="22" width="2" height="1" fill="#6cacd7"/>
<rect x="6" y="22" width="1" height="1" fill="#647aad"/>
<rect x="3" y="22" width="2" height="1" fill="#7aa9ca"/>
<rect x="31" y="22" width="1" height="2" fill="#81b5d4"/>
<rect x="8" y="23" width="1" height="1" fill="#7384b0"/>
<rect x="4" y="23" width="1" height="1" fill="#7aa9ca"/>
<rect x="29" y="23" width="1" height="1" fill="#5583bc"/>
<rect x="25" y="23" width="1" height="1" fill="#8fa5be"/>
<rect x="5" y="23" width="1" height="1" fill="#6c98c2"/>
<rect x="12" y="23" width="2" height="1" fill="#7aa9ca"/>
<rect x="30" y="23" width="1" height="1" fill="#788db4"/>
<rect x="22" y="23" width="1" height="1" fill="#7ca1c1"/>
<rect x="6" y="23" width="1" height="1" fill="#7384b0"/>
<rect x="3" y="23" width="1" height="1" fill="#7ca1c1"/>
<rect x="10" y="23" width="1" height="1" fill="#8fa5be"/>
<rect x="19" y="23" width="2" height="1" fill="#5370aa"/>
<rect x="16" y="23" width="1" height="1" fill="#5370aa"/>
<rect x="14" y="23" width="1" height="1" fill="#6c98c2"/>
<rect x="23" y="23" width="1" height="1" fill="#6c98c2"/>
<rect x="11" y="23" width="1" height="1" fill="#9ea8c0"/>
<rect x="24" y="23" width="1" height="1" fill="#6c92bd"/>
<rect x="9" y="23" width="1" height="1" fill="#6287b7"/>
<rect x="26" y="23" width="1" height="1" fill="#6287b7"/>
<rect x="17" y="23" width="2" height="1" fill="#6287b7"/>
<rect x="7" y="23" width="1" height="1" fill="#6287b7"/>
<rect x="27" y="23" width="2" height="1" fill="#5370aa"/>
<rect x="21" y="23" width="1" height="2" fill="#6c92bd"/>
<rect x="0" y="23" width="3" height="2" fill="#6cacd7"/>
<rect x="15" y="23" width="1" height="2" fill="#5479b3"/>
<rect x="22" y="24" width="2" height="1" fill="#7aa9ca"/>
<rect x="29" y="24" width="1" height="1" fill="#5479b3"/>
<rect x="17" y="24" width="4" height="1" fill="#5479b3"/>
<rect x="16" y="24" width="1" height="1" fill="#6287b7"/>
<rect x="9" y="24" width="1" height="1" fill="#6aa3cc"/>
<rect x="8" y="24" width="1" height="1" fill="#6287b7"/>
<rect x="6" y="24" width="2" height="1" fill="#6aa3cc"/>
<rect x="14" y="24" width="1" height="1" fill="#6c92bd"/>
<rect x="30" y="24" width="1" height="1" fill="#6aa3cc"/>
<rect x="27" y="24" width="1" height="1" fill="#4764a8"/>
<rect x="3" y="24" width="1" height="1" fill="#7aa9ca"/>
<rect x="25" y="24" width="1" height="1" fill="#7ca1c1"/>
<rect x="10" y="24" width="2" height="1" fill="#8fa5be"/>
<rect x="31" y="24" width="1" height="1" fill="#7aa9ca"/>
<rect x="24" y="24" width="1" height="1" fill="#9ea8c0"/>
<rect x="28" y="24" width="1" height="1" fill="#6287b7"/>
<rect x="26" y="24" width="1" height="1" fill="#6c92bd"/>
<rect x="13" y="24" width="1" height="1" fill="#7aa9ca"/>
<rect x="10" y="25" width="1" height="1" fill="#647aad"/>
<rect x="19" y="25" width="1" height="1" fill="#5479b3"/>
<rect x="11" y="25" width="1" height="1" fill="#6c92bd"/>
<rect x="20" y="25" width="1" height="1" fill="#6287b7"/>
<rect x="16" y="25" width="1" height="1" fill="#647aad"/>
<rect x="0" y="25" width="1" height="1" fill="#60a8da"/>
<rect x="1" y="25" width="1" height="1" fill="#6cacd7"/>
<rect x="25" y="25" width="1" height="1" fill="#7d96b9"/>
<rect x="14" y="25" width="1" height="1" fill="#6c98c2"/>
<rect x="24" y="25" width="1" height="1" fill="#788db4"/>
<rect x="15" y="25" width="1" height="1" fill="#6287b7"/>
<rect x="27" y="25" width="1" height="1" fill="#6c98c2"/>
<rect x="18" y="25" width="1" height="1" fill="#5370aa"/>
<rect x="17" y="25" width="1" height="1" fill="#5479b3"/>
<rect x="3" y="25" width="1" height="2" fill="#6aa3cc"/>
<rect x="2" y="25" width="1" height="2" fill="#7aa9ca"/>
<rect x="17" y="26" width="1" height="1" fill="#6287b7"/>
<rect x="18" y="26" width="2" height="1" fill="#5479b3"/>
<rect x="14" y="26" width="1" height="1" fill="#4764a8"/>
<rect x="13" y="26" width="1" height="1" fill="#6c98c2"/>
<rect x="25" y="26" width="1" height="1" fill="#6c98c2"/>
<rect x="30" y="26" width="1" height="1" fill="#6aa3cc"/>
<rect x="23" y="26" width="2" height="1" fill="#6aa3cc"/>
<rect x="20" y="26" width="2" height="1" fill="#5370aa"/>
<rect x="0" y="26" width="2" height="1" fill="#60a8da"/>
<rect x="15" y="26" width="1" height="1" fill="#647aad"/>
<rect x="16" y="26" width="1" height="2" fill="#5479b3"/>
<rect x="27" y="26" width="1" height="2" fill="#6aa3cc"/>
<rect x="22" y="27" width="1" height="1" fill="#6c98c2"/>
<rect x="3" y="27" width="2" height="1" fill="#579cce"/>
<rect x="2" y="27" width="1" height="1" fill="#7ca1c1"/>
<rect x="21" y="27" width="1" height="1" fill="#6287b7"/>
<rect x="5" y="27" width="7" height="1" fill="#62a0cd"/>
<rect x="13" y="27" width="1" height="1" fill="#5479b3"/>
<rect x="15" y="27" width="1" height="1" fill="#6c92bd"/>
<rect x="19" y="27" width="1" height="1" fill="#5370aa"/>
<rect x="20" y="27" width="1" height="1" fill="#6c98c2"/>
<rect x="14" y="27" width="1" height="1" fill="#6c98c2"/>
<rect x="18" y="27" width="1" height="1" fill="#5479b3"/>
<rect x="17" y="27" width="1" height="1" fill="#6c98c2"/>
<rect x="20" y="28" width="2" height="1" fill="#5479b3"/>
<rect x="22" y="28" width="1" height="1" fill="#5396cb"/>
<rect x="23" y="28" width="3" height="1" fill="#579cce"/>
<rect x="19" y="28" width="1" height="1" fill="#5583bc"/>
<rect x="16" y="28" width="1" height="1" fill="#5370aa"/>
<rect x="3" y="28" width="3" height="1" fill="#559ace"/>
<rect x="18" y="28" width="1" height="1" fill="#4764a8"/>
<rect x="13" y="28" width="1" height="1" fill="#5583bc"/>
<rect x="14" y="28" width="1" height="1" fill="#5479b3"/>
<rect x="26" y="28" width="6" height="1" fill="#62a0cd"/>
<rect x="15" y="28" width="1" height="1" fill="#5583bc"/>
<rect x="7" y="28" width="6" height="1" fill="#559ace"/>
<rect x="6" y="28" width="1" height="1" fill="#559bce"/>
<rect x="17" y="28" width="1" height="2" fill="#647aad"/>
<rect x="4" y="29" width="2" height="1" fill="#559bce"/>
<rect x="26" y="29" width="5" height="1" fill="#569ace"/>
<rect x="12" y="29" width="1" height="1" fill="#559ace"/>
<rect x="7" y="29" width="5" height="1" fill="#559bce"/>
<rect x="31" y="29" width="1" height="1" fill="#559bce"/>
<rect x="16" y="29" width="1" height="1" fill="#4764a8"/>
<rect x="14" y="29" width="1" height="1" fill="#569ace"/>
<rect x="25" y="29" width="1" height="1" fill="#559bce"/>
<rect x="6" y="29" width="1" height="1" fill="#569ace"/>
<rect x="13" y="29" width="1" height="1" fill="#559bce"/>
<rect x="20" y="29" width="2" height="1" fill="#5396cb"/>
<rect x="19" y="29" width="1" height="1" fill="#4764a8"/>
<rect x="22" y="29" width="1" height="1" fill="#579cce"/>
<rect x="23" y="29" width="2" height="1" fill="#569ace"/>
<rect x="2" y="28" width="1" height="3" fill="#6c98c2"/>
<rect x="3" y="29" width="1" height="2" fill="#559ace"/>
<rect x="15" y="29" width="1" height="2" fill="#5370aa"/>
<rect x="13" y="30" width="1" height="1" fill="#569ace"/>
<rect x="10" y="30" width="1" height="1" fill="#559bce"/>
<rect x="19" y="30" width="1" height="1" fill="#647aad"/>
<rect x="12" y="30" width="1" height="1" fill="#559bce"/>
<rect x="4" y="30" width="6" height="1" fill="#569ace"/>
<rect x="11" y="30" width="1" height="1" fill="#569ace"/>
<rect x="20" y="30" width="1" height="1" fill="#5396cb"/>
<rect x="21" y="30" width="11" height="1" fill="#569ace"/>
<rect x="17" y="30" width="1" height="1" fill="#4764a8"/>
<rect x="14" y="30" width="1" height="1" fill="#559ace"/>
<rect x="0" y="27" width="2" height="5" fill="#579fd3"/>
<rect x="18" y="29" width="1" height="3" fill="#5370aa"/>
<rect x="16" y="30" width="1" height="2" fill="#5479b3"/>
<rect x="2" y="31" width="9" height="1" fill="#5396cb"/>
<rect x="24" y="31" width="6" height="1" fill="#569ace"/>
<rect x="11" y="31" width="4" height="1" fill="#559ace"/>
<rect x="17" y="31" width="1" height="1" fill="#647aad"/>
<rect x="21" y="31" width="2" height="1" fill="#569ace"/>
<rect x="20" y="31" width="1" height="1" fill="#559bce"/>
<rect x="31" y="31" width="1" height="1" fill="#569ace"/>
<rect x="19" y="31" width="1" height="1" fill="#5396cb"/>
<rect x="30" y="31" width="1" height="1" fill="#579cce"/>
<rect x="23" y="31" width="1" height="1" fill="#559ace"/>
<rect x="15" y="31" width="1" height="1" fill="#5396cb"/>
</svg>