<?xml version="1.0" encoding="UTF-8"?>
<svg xmlns="http://www.w3.org/2000/svg" width="20mm" height="20mm" viewBox="0 0 32 32" shape-rendering="crispEdges">
<title>104 顶面 structured semantic redraw</title>
<metadata>registered 32-unit semantic vector redraw; no embedded raster; physical-size=20mm</metadata>
<rect x="0" y="0" width="32" height="32" fill="#ffe07f"/>
<rect x="26" y="0" width="1" height="1" fill="#795d57"/>
<rect x="30" y="0" width="1" height="1" fill="#856858"/>
<rect x="18" y="0" width="1" height="1" fill="#785c57"/>
<rect x="29" y="0" width="1" height="1" fill="#a2815c"/>
<rect x="23" y="0" width="2" height="1" fill="#775c57"/>
<rect x="8" y="0" width="1" height="1" fill="#795d57"/>
<rect x="20" y="0" width="1" height="1" fill="#785c56"/>
<rect x="13" y="0" width="4" height="1" fill="#795c57"/>
<rect x="11" y="0" width="2" height="1" fill="#795d57"/>
<rect x="7" y="0" width="1" height="1" fill="#785c57"/>
<rect x="4" y="0" width="2" height="1" fill="#785c57"/>
<rect x="21" y="0" width="2" height="1" fill="#785c57"/>
<rect x="19" y="0" width="1" height="1" fill="#795d57"/>
<rect x="0" y="0" width="3" height="1" fill="#795d57"/>
<rect x="17" y="0" width="1" height="1" fill="#785c56"/>
<rect x="9" y="0" width="2" height="1" fill="#785c57"/>
<rect x="27" y="0" width="2" height="1" fill="#856858"/>
<rect x="6" y="0" width="1" height="1" fill="#785c56"/>
<rect x="25" y="0" width="1" height="1" fill="#785c57"/>
<rect x="3" y="0" width="1" height="2" fill="#795c57"/>
<rect x="31" y="0" width="1" height="2" fill="#6b514c"/>
<rect x="15" y="1" width="3" height="1" fill="#775b56"/>
<rect x="21" y="1" width="2" height="1" fill="#a2815c"/>
<rect x="0" y="1" width="1" height="1" fill="#795c57"/>
<rect x="4" y="1" width="1" height="1" fill="#785c56"/>
<rect x="6" y="1" width="3" height="1" fill="#785c57"/>
<rect x="12" y="1" width="1" height="1" fill="#795d57"/>
<rect x="19" y="1" width="2" height="1" fill="#856858"/>
<rect x="9" y="1" width="2" height="1" fill="#795d57"/>
<rect x="2" y="1" width="1" height="1" fill="#785c56"/>
<rect x="23" y="1" width="1" height="1" fill="#c09d5d"/>
<rect x="24" y="1" width="1" height="1" fill="#cdad60"/>
<rect x="11" y="1" width="1" height="1" fill="#795c57"/>
<rect x="25" y="1" width="2" height="1" fill="#dbb65e"/>
<rect x="18" y="1" width="1" height="1" fill="#795d57"/>
<rect x="30" y="1" width="1" height="1" fill="#c09d5d"/>
<rect x="27" y="1" width="3" height="1" fill="#ecba61"/>
<rect x="13" y="1" width="1" height="1" fill="#795c57"/>
<rect x="14" y="1" width="1" height="1" fill="#785c56"/>
<rect x="1" y="1" width="1" height="1" fill="#785c57"/>
<rect x="5" y="1" width="1" height="2" fill="#795c57"/>
<rect x="11" y="2" width="1" height="1" fill="#795d57"/>
<rect x="8" y="2" width="2" height="1" fill="#775b56"/>
<rect x="16" y="2" width="1" height="1" fill="#cfb163"/>
<rect x="7" y="2" width="1" height="1" fill="#775c57"/>
<rect x="6" y="2" width="1" height="1" fill="#785c57"/>
<rect x="10" y="2" width="1" height="1" fill="#785c57"/>
<rect x="12" y="2" width="1" height="1" fill="#856858"/>
<rect x="4" y="2" width="1" height="1" fill="#785c57"/>
<rect x="15" y="2" width="1" height="1" fill="#c09d5d"/>
<rect x="20" y="2" width="1" height="1" fill="#fee07f"/>
<rect x="18" y="2" width="1" height="1" fill="#ebc86e"/>
<rect x="0" y="2" width="4" height="1" fill="#795c57"/>
<rect x="31" y="2" width="1" height="1" fill="#785c56"/>
<rect x="17" y="2" width="1" height="1" fill="#debc63"/>
<rect x="13" y="2" width="2" height="1" fill="#a2815c"/>
<rect x="19" y="2" width="1" height="1" fill="#f8d572"/>
<rect x="25" y="2" width="1" height="2" fill="#f4cc64"/>
<rect x="28" y="2" width="2" height="2" fill="#ecba61"/>
<rect x="30" y="2" width="1" height="2" fill="#cfb163"/>
<rect x="10" y="3" width="1" height="1" fill="#cdad60"/>
<rect x="3" y="3" width="1" height="1" fill="#795d57"/>
<rect x="14" y="3" width="3" height="1" fill="#ffe180"/>
<rect x="4" y="3" width="2" height="1" fill="#856858"/>
<rect x="8" y="3" width="2" height="1" fill="#c09d5d"/>
<rect x="0" y="3" width="2" height="1" fill="#775b56"/>
<rect x="2" y="3" width="1" height="1" fill="#785c57"/>
<rect x="12" y="3" width="1" height="1" fill="#f8d572"/>
<rect x="11" y="3" width="1" height="1" fill="#dbb65e"/>
<rect x="13" y="3" width="1" height="1" fill="#fee07f"/>
<rect x="31" y="3" width="1" height="1" fill="#c09d5d"/>
<rect x="6" y="3" width="2" height="1" fill="#a2815c"/>
<rect x="20" y="3" width="1" height="1" fill="#ffdf7e"/>
<rect x="26" y="2" width="2" height="3" fill="#edbb61"/>
<rect x="22" y="2" width="3" height="3" fill="#f6ce65"/>
<rect x="21" y="2" width="1" height="3" fill="#f6d069"/>
<rect x="25" y="4" width="1" height="1" fill="#ebc063"/>
<rect x="15" y="4" width="1" height="1" fill="#ffe080"/>
<rect x="4" y="4" width="1" height="1" fill="#f4cc64"/>
<rect x="28" y="4" width="1" height="1" fill="#ecba61"/>
<rect x="2" y="4" width="1" height="1" fill="#cdad60"/>
<rect x="30" y="4" width="2" height="1" fill="#cfb163"/>
<rect x="7" y="4" width="1" height="1" fill="#f4cc64"/>
<rect x="3" y="4" width="1" height="1" fill="#e2c064"/>
<rect x="5" y="4" width="1" height="1" fill="#f5ce65"/>
<rect x="6" y="4" width="1" height="1" fill="#f6ce65"/>
<rect x="0" y="4" width="1" height="1" fill="#a2815c"/>
<rect x="29" y="4" width="1" height="1" fill="#dbb65e"/>
<rect x="1" y="4" width="1" height="1" fill="#c09d5d"/>
<rect x="12" y="4" width="1" height="2" fill="#fddc7a"/>
<rect x="18" y="5" width="2" height="1" fill="#ffe180"/>
<rect x="24" y="5" width="1" height="1" fill="#cfb163"/>
<rect x="30" y="5" width="1" height="1" fill="#c09d5d"/>
<rect x="20" y="5" width="1" height="1" fill="#fee07f"/>
<rect x="0" y="5" width="3" height="1" fill="#edbb61"/>
<rect x="23" y="5" width="1" height="1" fill="#e2c064"/>
<rect x="28" y="5" width="2" height="1" fill="#856858"/>
<rect x="26" y="5" width="2" height="1" fill="#a2815c"/>
<rect x="22" y="5" width="1" height="1" fill="#ebc063"/>
<rect x="25" y="5" width="1" height="1" fill="#c09d5d"/>
<rect x="21" y="5" width="1" height="1" fill="#f5ce65"/>
<rect x="8" y="4" width="4" height="3" fill="#edbb61"/>
<rect x="3" y="5" width="4" height="2" fill="#f5ce65"/>
<rect x="31" y="5" width="1" height="2" fill="#cfb163"/>
<rect x="15" y="6" width="1" height="1" fill="#f8d572"/>
<rect x="27" y="6" width="2" height="1" fill="#775b56"/>
<rect x="30" y="6" width="1" height="1" fill="#856858"/>
<rect x="18" y="6" width="1" height="1" fill="#c09d5d"/>
<rect x="21" y="6" width="2" height="1" fill="#856858"/>
<rect x="16" y="6" width="1" height="1" fill="#ebc86e"/>
<rect x="29" y="6" width="1" height="1" fill="#795d57"/>
<rect x="19" y="6" width="2" height="1" fill="#a2815c"/>
<rect x="17" y="6" width="1" height="1" fill="#cfb163"/>
<rect x="12" y="6" width="1" height="1" fill="#ffdf7e"/>
<rect x="26" y="6" width="1" height="1" fill="#785c56"/>
<rect x="24" y="6" width="2" height="1" fill="#775b56"/>
<rect x="14" y="6" width="1" height="1" fill="#fddc7a"/>
<rect x="23" y="6" width="1" height="1" fill="#795d57"/>
<rect x="13" y="6" width="1" height="1" fill="#fee07f"/>
<rect x="7" y="5" width="1" height="3" fill="#ebc063"/>
<rect x="1" y="6" width="2" height="2" fill="#edbb61"/>
<rect x="0" y="6" width="1" height="2" fill="#ecba61"/>
<rect x="25" y="7" width="3" height="1" fill="#785c56"/>
<rect x="28" y="7" width="1" height="1" fill="#775b56"/>
<rect x="10" y="7" width="1" height="1" fill="#c09d5d"/>
<rect x="11" y="7" width="3" height="1" fill="#a2815c"/>
<rect x="23" y="7" width="2" height="1" fill="#775b56"/>
<rect x="9" y="7" width="1" height="1" fill="#cdad60"/>
<rect x="20" y="7" width="3" height="1" fill="#785c56"/>
<rect x="14" y="7" width="1" height="1" fill="#856858"/>
<rect x="6" y="7" width="1" height="1" fill="#f5ce65"/>
<rect x="3" y="7" width="3" height="1" fill="#f6ce65"/>
<rect x="15" y="7" width="1" height="1" fill="#795d57"/>
<rect x="8" y="7" width="1" height="1" fill="#dbb65e"/>
<rect x="31" y="7" width="1" height="1" fill="#c09d5d"/>
<rect x="16" y="7" width="4" height="1" fill="#775b56"/>
<rect x="29" y="7" width="1" height="2" fill="#775c57"/>
<rect x="30" y="7" width="1" height="2" fill="#6b514c"/>
<rect x="27" y="8" width="2" height="1" fill="#775b56"/>
<rect x="2" y="8" width="2" height="1" fill="#c09d5d"/>
<rect x="4" y="8" width="2" height="1" fill="#a2815c"/>
<rect x="11" y="8" width="1" height="1" fill="#775c57"/>
<rect x="20" y="8" width="1" height="1" fill="#775b56"/>
<rect x="0" y="8" width="1" height="1" fill="#dbb65e"/>
<rect x="8" y="8" width="1" height="1" fill="#795d57"/>
<rect x="31" y="8" width="1" height="1" fill="#856858"/>
<rect x="26" y="8" width="1" height="1" fill="#785c56"/>
<rect x="9" y="8" width="2" height="1" fill="#775b56"/>
<rect x="13" y="8" width="4" height="1" fill="#785c56"/>
<rect x="24" y="8" width="2" height="1" fill="#775b56"/>
<rect x="17" y="8" width="1" height="1" fill="#795c57"/>
<rect x="12" y="8" width="1" height="1" fill="#785c57"/>
<rect x="1" y="8" width="1" height="1" fill="#cdad60"/>
<rect x="21" y="8" width="3" height="1" fill="#785c56"/>
<rect x="6" y="8" width="2" height="1" fill="#856858"/>
<rect x="18" y="8" width="2" height="2" fill="#785c56"/>
<rect x="16" y="9" width="2" height="1" fill="#795c57"/>
<rect x="4" y="9" width="3" height="1" fill="#785c56"/>
<rect x="15" y="9" width="1" height="1" fill="#785c56"/>
<rect x="27" y="9" width="3" height="1" fill="#a2815c"/>
<rect x="11" y="9" width="1" height="1" fill="#785c56"/>
<rect x="12" y="9" width="1" height="1" fill="#795c57"/>
<rect x="7" y="9" width="1" height="1" fill="#785c57"/>
<rect x="0" y="9" width="1" height="1" fill="#795d57"/>
<rect x="8" y="9" width="1" height="1" fill="#785c56"/>
<rect x="20" y="9" width="4" height="1" fill="#775b56"/>
<rect x="2" y="9" width="2" height="1" fill="#775b56"/>
<rect x="10" y="9" width="1" height="1" fill="#795c57"/>
<rect x="1" y="9" width="1" height="1" fill="#785c56"/>
<rect x="14" y="9" width="1" height="1" fill="#795c57"/>
<rect x="9" y="9" width="1" height="1" fill="#795d57"/>
<rect x="25" y="9" width="2" height="1" fill="#856858"/>
<rect x="13" y="9" width="1" height="1" fill="#785c57"/>
<rect x="24" y="9" width="1" height="1" fill="#795d57"/>
<rect x="30" y="9" width="2" height="2" fill="#6b514c"/>
<rect x="29" y="10" width="1" height="1" fill="#cfb163"/>
<rect x="21" y="10" width="1" height="1" fill="#c09d5d"/>
<rect x="4" y="10" width="1" height="1" fill="#785c56"/>
<rect x="25" y="10" width="2" height="1" fill="#ecba61"/>
<rect x="19" y="10" width="2" height="1" fill="#a2815c"/>
<rect x="1" y="10" width="2" height="1" fill="#785c56"/>
<rect x="27" y="10" width="1" height="1" fill="#edbb61"/>
<rect x="0" y="10" width="1" height="1" fill="#785c57"/>
<rect x="17" y="10" width="1" height="1" fill="#795d57"/>
<rect x="7" y="10" width="1" height="1" fill="#785c56"/>
<rect x="9" y="10" width="3" height="1" fill="#785c57"/>
<rect x="3" y="10" width="1" height="1" fill="#795c57"/>
<rect x="6" y="10" width="1" height="1" fill="#795d57"/>
<rect x="18" y="10" width="1" height="1" fill="#856858"/>
<rect x="12" y="10" width="1" height="1" fill="#785c56"/>
<rect x="5" y="10" width="1" height="1" fill="#795c57"/>
<rect x="16" y="10" width="1" height="1" fill="#785c56"/>
<rect x="8" y="10" width="1" height="1" fill="#795c57"/>
<rect x="13" y="10" width="3" height="1" fill="#775b56"/>
<rect x="23" y="10" width="2" height="1" fill="#ebc86e"/>
<rect x="22" y="10" width="1" height="1" fill="#cfb163"/>
<rect x="10" y="11" width="2" height="1" fill="#856858"/>
<rect x="20" y="11" width="2" height="1" fill="#ffe180"/>
<rect x="30" y="11" width="1" height="1" fill="#a2815c"/>
<rect x="14" y="11" width="1" height="1" fill="#c09d5d"/>
<rect x="19" y="11" width="1" height="1" fill="#fee07f"/>
<rect x="16" y="11" width="1" height="1" fill="#ebc86e"/>
<rect x="25" y="11" width="3" height="1" fill="#edbb61"/>
<rect x="17" y="11" width="1" height="1" fill="#f8d572"/>
<rect x="0" y="11" width="6" height="1" fill="#785c56"/>
<rect x="15" y="11" width="1" height="1" fill="#cfb163"/>
<rect x="29" y="11" width="1" height="1" fill="#debc63"/>
<rect x="18" y="11" width="1" height="1" fill="#fddc7a"/>
<rect x="12" y="11" width="2" height="1" fill="#a2815c"/>
<rect x="6" y="11" width="3" height="1" fill="#775b56"/>
<rect x="9" y="11" width="1" height="1" fill="#795d57"/>
<rect x="24" y="11" width="1" height="2" fill="#fddc7a"/>
<rect x="23" y="11" width="1" height="2" fill="#ffe07e"/>
<rect x="31" y="11" width="1" height="2" fill="#6b514c"/>
<rect x="11" y="12" width="2" height="1" fill="#fee07f"/>
<rect x="29" y="12" width="1" height="1" fill="#cfb163"/>
<rect x="16" y="12" width="1" height="1" fill="#ffdf7e"/>
<rect x="0" y="12" width="2" height="1" fill="#775b56"/>
<rect x="7" y="12" width="1" height="1" fill="#cdad60"/>
<rect x="30" y="12" width="1" height="1" fill="#cdad60"/>
<rect x="13" y="12" width="2" height="1" fill="#ffe180"/>
<rect x="3" y="12" width="2" height="1" fill="#856858"/>
<rect x="9" y="12" width="1" height="1" fill="#ebc86e"/>
<rect x="10" y="12" width="1" height="1" fill="#fddc7a"/>
<rect x="8" y="12" width="1" height="1" fill="#debc63"/>
<rect x="5" y="12" width="2" height="1" fill="#a2815c"/>
<rect x="2" y="12" width="1" height="1" fill="#795d57"/>
<rect x="28" y="10" width="1" height="4" fill="#ecba61"/>
<rect x="26" y="12" width="2" height="2" fill="#edbb61"/>
<rect x="25" y="12" width="1" height="2" fill="#ecba61"/>
<rect x="24" y="13" width="1" height="1" fill="#f8d572"/>
<rect x="15" y="13" width="1" height="1" fill="#ffdf7e"/>
<rect x="31" y="13" width="1" height="1" fill="#a2815c"/>
<rect x="4" y="13" width="1" height="1" fill="#f5ce65"/>
<rect x="1" y="13" width="1" height="1" fill="#cdad60"/>
<rect x="5" y="13" width="2" height="1" fill="#f6ce65"/>
<rect x="8" y="13" width="3" height="1" fill="#ffdf7e"/>
<rect x="2" y="13" width="1" height="1" fill="#dbb65e"/>
<rect x="19" y="13" width="1" height="1" fill="#ffe07e"/>
<rect x="3" y="13" width="1" height="1" fill="#f4cc64"/>
<rect x="0" y="13" width="1" height="1" fill="#c09d5d"/>
<rect x="29" y="13" width="2" height="2" fill="#cfb163"/>
<rect x="26" y="14" width="1" height="1" fill="#f5ce64"/>
<rect x="3" y="14" width="3" height="1" fill="#f5ce65"/>
<rect x="24" y="14" width="1" height="1" fill="#f6d069"/>
<rect x="31" y="14" width="1" height="1" fill="#cdad60"/>
<rect x="6" y="14" width="1" height="1" fill="#f5ce64"/>
<rect x="18" y="14" width="1" height="1" fill="#ffe07e"/>
<rect x="20" y="14" width="2" height="1" fill="#fddc7a"/>
<rect x="0" y="14" width="3" height="1" fill="#edbb61"/>
<rect x="10" y="14" width="1" height="1" fill="#ffdf7e"/>
<rect x="27" y="14" width="1" height="1" fill="#f5ce65"/>
<rect x="22" y="14" width="2" height="1" fill="#f8d572"/>
<rect x="13" y="14" width="1" height="1" fill="#ffdf7e"/>
<rect x="25" y="14" width="1" height="1" fill="#f4cc64"/>
<rect x="21" y="15" width="1" height="1" fill="#f4cc64"/>
<rect x="0" y="15" width="1" height="1" fill="#ecba61"/>
<rect x="17" y="15" width="1" height="1" fill="#ffe07e"/>
<rect x="22" y="15" width="2" height="1" fill="#f5ce64"/>
<rect x="24" y="15" width="1" height="1" fill="#f5ce65"/>
<rect x="4" y="15" width="2" height="1" fill="#f6ce65"/>
<rect x="6" y="15" width="1" height="1" fill="#f4cc64"/>
<rect x="25" y="15" width="2" height="1" fill="#f5ce64"/>
<rect x="1" y="15" width="2" height="1" fill="#edbb61"/>
<rect x="20" y="15" width="1" height="1" fill="#f8d572"/>
<rect x="13" y="15" width="1" height="1" fill="#ffe07e"/>
<rect x="3" y="15" width="1" height="1" fill="#f5ce65"/>
<rect x="28" y="14" width="1" height="3" fill="#ebc86e"/>
<rect x="3" y="16" width="3" height="1" fill="#f5ce65"/>
<rect x="6" y="16" width="1" height="1" fill="#f5ce64"/>
<rect x="0" y="16" width="2" height="1" fill="#ecba61"/>
<rect x="22" y="16" width="5" height="1" fill="#f5ce64"/>
<rect x="2" y="16" width="1" height="1" fill="#ebc063"/>
<rect x="21" y="16" width="1" height="1" fill="#f5ce65"/>
<rect x="16" y="16" width="1" height="1" fill="#ffe07e"/>
<rect x="7" y="13" width="1" height="5" fill="#fddc7a"/>
<rect x="10" y="16" width="1" height="2" fill="#ffdf7e"/>
<rect x="20" y="16" width="1" height="2" fill="#f6d069"/>
<rect x="0" y="17" width="1" height="1" fill="#ebc063"/>
<rect x="12" y="17" width="2" height="1" fill="#ffe07e"/>
<rect x="23" y="17" width="1" height="1" fill="#f5ce64"/>
<rect x="1" y="17" width="2" height="1" fill="#f4cc64"/>
<rect x="24" y="17" width="1" height="1" fill="#f5ce65"/>
<rect x="25" y="17" width="1" height="1" fill="#f5ce64"/>
<rect x="21" y="17" width="2" height="1" fill="#f5ce65"/>
<rect x="3" y="17" width="2" height="1" fill="#f5ce65"/>
<rect x="8" y="17" width="1" height="2" fill="#ffe07e"/>
<rect x="5" y="17" width="1" height="2" fill="#f5ce64"/>
<rect x="26" y="17" width="1" height="2" fill="#f5ce65"/>
<rect x="6" y="17" width="1" height="2" fill="#f5ce65"/>
<rect x="25" y="18" width="1" height="1" fill="#f6ce65"/>
<rect x="14" y="18" width="1" height="1" fill="#ffe07e"/>
<rect x="4" y="18" width="1" height="1" fill="#f5ce65"/>
<rect x="19" y="18" width="1" height="1" fill="#ffe07e"/>
<rect x="22" y="18" width="2" height="1" fill="#f8d572"/>
<rect x="0" y="18" width="4" height="1" fill="#f5ce64"/>
<rect x="20" y="18" width="2" height="1" fill="#f6d069"/>
<rect x="28" y="17" width="1" height="3" fill="#e2c064"/>
<rect x="7" y="18" width="1" height="2" fill="#ffdf7e"/>
<rect x="14" y="19" width="2" height="1" fill="#ffdf7e"/>
<rect x="18" y="19" width="1" height="1" fill="#ffe07e"/>
<rect x="17" y="19" width="1" height="1" fill="#ffdf7e"/>
<rect x="6" y="19" width="1" height="1" fill="#f6ce65"/>
<rect x="20" y="19" width="1" height="1" fill="#ffdf7e"/>
<rect x="0" y="19" width="6" height="1" fill="#f5ce64"/>
<rect x="29" y="15" width="3" height="6" fill="#cfb163"/>
<rect x="14" y="20" width="3" height="1" fill="#ffdf7e"/>
<rect x="7" y="20" width="2" height="1" fill="#fddc7a"/>
<rect x="9" y="20" width="2" height="1" fill="#f8d572"/>
<rect x="6" y="20" width="1" height="1" fill="#f6d069"/>
<rect x="3" y="20" width="2" height="1" fill="#f5ce64"/>
<rect x="2" y="20" width="1" height="1" fill="#f4cc64"/>
<rect x="5" y="20" width="1" height="1" fill="#f5ce65"/>
<rect x="11" y="20" width="1" height="1" fill="#fddc7a"/>
<rect x="24" y="18" width="1" height="4" fill="#f6d069"/>
<rect x="0" y="20" width="2" height="2" fill="#f5ce64"/>
<rect x="20" y="20" width="1" height="2" fill="#ffe07e"/>
<rect x="14" y="21" width="1" height="1" fill="#ffe07e"/>
<rect x="3" y="21" width="2" height="1" fill="#fddc7a"/>
<rect x="15" y="21" width="1" height="1" fill="#ffdf7e"/>
<rect x="11" y="21" width="1" height="1" fill="#f8d572"/>
<rect x="2" y="21" width="1" height="1" fill="#f6d069"/>
<rect x="8" y="21" width="1" height="1" fill="#f4cc64"/>
<rect x="7" y="21" width="1" height="1" fill="#f5ce65"/>
<rect x="23" y="21" width="1" height="1" fill="#ffdf7e"/>
<rect x="25" y="19" width="2" height="4" fill="#f5ce65"/>
<rect x="28" y="20" width="1" height="3" fill="#debc63"/>
<rect x="29" y="21" width="2" height="2" fill="#cfb163"/>
<rect x="9" y="21" width="2" height="2" fill="#f5ce65"/>
<rect x="21" y="22" width="1" height="1" fill="#ffe07e"/>
<rect x="19" y="22" width="2" height="1" fill="#ffdf7e"/>
<rect x="8" y="22" width="1" height="1" fill="#f5ce64"/>
<rect x="1" y="22" width="1" height="1" fill="#f5ce65"/>
<rect x="15" y="22" width="1" height="1" fill="#ffe07e"/>
<rect x="24" y="22" width="1" height="1" fill="#f6ce65"/>
<rect x="12" y="22" width="2" height="1" fill="#ffe07e"/>
<rect x="7" y="22" width="1" height="1" fill="#f6ce65"/>
<rect x="22" y="22" width="2" height="1" fill="#ffdf7e"/>
<rect x="0" y="22" width="1" height="1" fill="#f5ce64"/>
<rect x="31" y="21" width="1" height="3" fill="#cdad60"/>
<rect x="5" y="21" width="2" height="3" fill="#ffdf7e"/>
<rect x="11" y="22" width="1" height="2" fill="#fddc7a"/>
<rect x="28" y="23" width="3" height="1" fill="#cfb163"/>
<rect x="0" y="23" width="1" height="1" fill="#f5ce65"/>
<rect x="17" y="23" width="3" height="1" fill="#f6d069"/>
<rect x="7" y="23" width="3" height="1" fill="#f5ce65"/>
<rect x="12" y="23" width="2" height="1" fill="#ffdf7e"/>
<rect x="1" y="23" width="1" height="1" fill="#f5ce64"/>
<rect x="24" y="23" width="2" height="1" fill="#f6ce65"/>
<rect x="26" y="23" width="1" height="1" fill="#f5ce65"/>
<rect x="15" y="23" width="1" height="1" fill="#fddc7a"/>
<rect x="10" y="23" width="1" height="1" fill="#f4cc64"/>
<rect x="4" y="23" width="1" height="1" fill="#ffe07e"/>
<rect x="16" y="23" width="1" height="1" fill="#f8d572"/>
<rect x="27" y="15" width="1" height="10" fill="#f4cc64"/>
<rect x="2" y="22" width="1" height="3" fill="#f8d572"/>
<rect x="7" y="24" width="1" height="1" fill="#f6d069"/>
<rect x="10" y="24" width="1" height="1" fill="#fddc7a"/>
<rect x="0" y="24" width="2" height="1" fill="#f5ce65"/>
<rect x="8" y="24" width="2" height="1" fill="#f8d572"/>
<rect x="5" y="24" width="1" height="1" fill="#ffdf7e"/>
<rect x="11" y="24" width="1" height="1" fill="#ffdf7e"/>
<rect x="16" y="24" width="3" height="1" fill="#f5ce65"/>
<rect x="24" y="24" width="1" height="1" fill="#f6ce65"/>
<rect x="25" y="24" width="2" height="1" fill="#f5ce64"/>
<rect x="19" y="24" width="1" height="1" fill="#f6d069"/>
<rect x="6" y="24" width="1" height="1" fill="#fddc7a"/>
<rect x="13" y="24" width="2" height="1" fill="#ffdf7e"/>
<rect x="23" y="23" width="1" height="3" fill="#fddc7a"/>
<rect x="15" y="24" width="1" height="2" fill="#f8d572"/>
<rect x="18" y="25" width="1" height="1" fill="#f5ce64"/>
<rect x="7" y="25" width="1" height="1" fill="#ffdf7e"/>
<rect x="16" y="25" width="2" height="1" fill="#f5ce65"/>
<rect x="5" y="25" width="1" height="1" fill="#f6ce65"/>
<rect x="26" y="25" width="1" height="1" fill="#f3ce67"/>
<rect x="27" y="25" width="1" height="1" fill="#ebc86e"/>
<rect x="20" y="25" width="3" height="1" fill="#ffdf7e"/>
<rect x="9" y="25" width="3" height="1" fill="#ffdf7e"/>
<rect x="24" y="25" width="2" height="1" fill="#f4cc64"/>
<rect x="0" y="25" width="1" height="1" fill="#f6d069"/>
<rect x="4" y="25" width="1" height="1" fill="#f6d069"/>
<rect x="13" y="25" width="1" height="1" fill="#ffe07e"/>
<rect x="19" y="25" width="1" height="1" fill="#f8d572"/>
<rect x="1" y="25" width="3" height="1" fill="#f8d572"/>
<rect x="28" y="24" width="4" height="3" fill="#cfb163"/>
<rect x="3" y="26" width="3" height="1" fill="#f5ce65"/>
<rect x="15" y="26" width="1" height="1" fill="#f6d069"/>
<rect x="7" y="26" width="8" height="1" fill="#ffdf7e"/>
<rect x="27" y="26" width="1" height="1" fill="#ebc063"/>
<rect x="19" y="26" width="1" height="1" fill="#f6d069"/>
<rect x="22" y="26" width="5" height="1" fill="#ebc86e"/>
<rect x="20" y="26" width="2" height="1" fill="#f8d572"/>
<rect x="16" y="26" width="3" height="1" fill="#f4cc64"/>
<rect x="6" y="25" width="1" height="3" fill="#f6d069"/>
<rect x="24" y="27" width="1" height="1" fill="#debc63"/>
<rect x="31" y="27" width="1" height="1" fill="#cdad60"/>
<rect x="4" y="27" width="2" height="1" fill="#f5ce64"/>
<rect x="29" y="27" width="1" height="1" fill="#cdad60"/>
<rect x="10" y="27" width="5" height="1" fill="#fddc7a"/>
<rect x="30" y="27" width="1" height="1" fill="#cfb163"/>
<rect x="20" y="27" width="4" height="1" fill="#d7b051"/>
<rect x="1" y="27" width="1" height="1" fill="#ffdf7e"/>
<rect x="3" y="27" width="1" height="1" fill="#f5ce65"/>
<rect x="15" y="27" width="5" height="1" fill="#ebc86e"/>
<rect x="7" y="27" width="3" height="1" fill="#ffdf7e"/>
<rect x="25" y="27" width="3" height="2" fill="#e2c064"/>
<rect x="28" y="27" width="1" height="2" fill="#debc63"/>
<rect x="3" y="28" width="3" height="1" fill="#f4cc64"/>
<rect x="29" y="28" width="2" height="1" fill="#cfb163"/>
<rect x="6" y="28" width="1" height="1" fill="#f3ce67"/>
<rect x="7" y="28" width="1" height="1" fill="#f8d572"/>
<rect x="21" y="28" width="4" height="1" fill="#d7b051"/>
<rect x="16" y="28" width="3" height="1" fill="#ebc063"/>
<rect x="10" y="28" width="1" height="1" fill="#e2c064"/>
<rect x="19" y="28" width="1" height="1" fill="#e2c064"/>
<rect x="11" y="28" width="5" height="1" fill="#ebc86e"/>
<rect x="8" y="28" width="2" height="1" fill="#ebc86e"/>
<rect x="0" y="28" width="2" height="1" fill="#ffdf7e"/>
<rect x="20" y="28" width="1" height="1" fill="#dbb65e"/>
<rect x="2" y="26" width="1" height="4" fill="#f8d572"/>
<rect x="3" y="29" width="4" height="1" fill="#ebc86e"/>
<rect x="8" y="29" width="4" height="1" fill="#d7b051"/>
<rect x="21" y="29" width="5" height="1" fill="#d7b051"/>
<rect x="12" y="29" width="9" height="1" fill="#e2c064"/>
<rect x="7" y="29" width="1" height="1" fill="#dbb65e"/>
<rect x="0" y="29" width="2" height="1" fill="#fddc7a"/>
<rect x="26" y="29" width="3" height="1" fill="#e2c064"/>
<rect x="30" y="29" width="1" height="1" fill="#cdad60"/>
<rect x="29" y="29" width="1" height="2" fill="#debc63"/>
<rect x="27" y="30" width="2" height="1" fill="#e2c064"/>
<rect x="26" y="30" width="1" height="1" fill="#debc63"/>
<rect x="5" y="30" width="3" height="1" fill="#e2c064"/>
<rect x="0" y="30" width="2" height="1" fill="#ebc86e"/>
<rect x="8" y="30" width="5" height="1" fill="#d7b051"/>
<rect x="13" y="30" width="8" height="1" fill="#e2c064"/>
<rect x="2" y="30" width="3" height="1" fill="#ebc063"/>
<rect x="30" y="30" width="1" height="1" fill="#cfb163"/>
<rect x="22" y="30" width="4" height="1" fill="#d7b051"/>
<rect x="21" y="30" width="1" height="1" fill="#dbb65e"/>
<rect x="31" y="28" width="1" height="4" fill="#c09d5d"/>
<rect x="14" y="31" width="8" height="1" fill="#e2c064"/>
<rect x="24" y="31" width="1" height="1" fill="#c09d5d"/>
<rect x="8" y="31" width="1" height="1" fill="#dbb65e"/>
<rect x="30" y="31" width="1" height="1" fill="#debc63"/>
<rect x="22" y="31" width="2" height="1" fill="#d7b051"/>
<rect x="9" y="31" width="4" height="1" fill="#d7b051"/>
<rect x="0" y="31" width="8" height="1" fill="#e2c064"/>
<rect x="25" y="31" width="2" height="1" fill="#a2815c"/>
<rect x="27" y="31" width="3" height="1" fill="#e2c064"/>
<rect x="13" y="31" width="1" height="1" fill="#dbb65e"/>
</svg>