<?xml version="1.0" encoding="UTF-8"?>
<svg xmlns="http://www.w3.org/2000/svg" width="20mm" height="20mm" viewBox="0 0 32 32" shape-rendering="crispEdges">
<title>177 顶面 structured semantic redraw</title>
<metadata>registered 32-unit semantic vector redraw; no embedded raster; physical-size=20mm</metadata>
<rect x="0" y="0" width="32" height="32" fill="#d2d2d0"/>
<rect x="21" y="0" width="1" height="1" fill="#c6c6c4"/>
<rect x="19" y="0" width="1" height="1" fill="#cacac8"/>
<rect x="2" y="0" width="2" height="1" fill="#7a7d7f"/>
<rect x="30" y="0" width="1" height="1" fill="#76797b"/>
<rect x="24" y="0" width="1" height="1" fill="#cececc"/>
<rect x="31" y="0" width="1" height="1" fill="#64686b"/>
<rect x="4" y="0" width="2" height="1" fill="#76797b"/>
<rect x="6" y="0" width="1" height="1" fill="#7a7d7f"/>
<rect x="23" y="0" width="1" height="1" fill="#aaaba9"/>
<rect x="26" y="0" width="1" height="1" fill="#ccccca"/>
<rect x="7" y="0" width="2" height="1" fill="#808385"/>
<rect x="29" y="0" width="1" height="1" fill="#6b6e71"/>
<rect x="9" y="0" width="2" height="1" fill="#939493"/>
<rect x="11" y="0" width="1" height="1" fill="#9e9e9d"/>
<rect x="22" y="0" width="1" height="1" fill="#9e9e9d"/>
<rect x="16" y="0" width="3" height="1" fill="#bfbebd"/>
<rect x="27" y="0" width="1" height="1" fill="#bcbcbb"/>
<rect x="15" y="0" width="1" height="1" fill="#b8b8b7"/>
<rect x="12" y="0" width="1" height="1" fill="#aaaba9"/>
<rect x="13" y="0" width="2" height="1" fill="#afb0af"/>
<rect x="0" y="0" width="2" height="1" fill="#808385"/>
<rect x="28" y="0" width="1" height="2" fill="#939493"/>
<rect x="3" y="1" width="1" height="1" fill="#a3a4a3"/>
<rect x="16" y="1" width="1" height="1" fill="#bebdbc"/>
<rect x="14" y="1" width="1" height="1" fill="#b3b4b2"/>
<rect x="27" y="1" width="1" height="1" fill="#a3a4a3"/>
<rect x="2" y="1" width="1" height="1" fill="#9e9e9d"/>
<rect x="12" y="1" width="2" height="1" fill="#c3c3c2"/>
<rect x="20" y="1" width="1" height="1" fill="#c3c3c2"/>
<rect x="15" y="1" width="1" height="1" fill="#aaaba9"/>
<rect x="17" y="1" width="1" height="1" fill="#bfbebd"/>
<rect x="0" y="1" width="1" height="1" fill="#808385"/>
<rect x="10" y="1" width="1" height="1" fill="#b8b8b7"/>
<rect x="26" y="1" width="1" height="1" fill="#cacac8"/>
<rect x="9" y="1" width="1" height="1" fill="#aaaba9"/>
<rect x="11" y="1" width="1" height="1" fill="#c0c0bf"/>
<rect x="4" y="1" width="1" height="1" fill="#afb0af"/>
<rect x="8" y="1" width="1" height="1" fill="#b3b4b2"/>
<rect x="1" y="1" width="1" height="1" fill="#939493"/>
<rect x="25" y="1" width="1" height="1" fill="#cececc"/>
<rect x="21" y="1" width="1" height="1" fill="#cacac8"/>
<rect x="18" y="1" width="1" height="1" fill="#bcbcbb"/>
<rect x="29" y="1" width="2" height="1" fill="#76797b"/>
<rect x="7" y="1" width="1" height="1" fill="#b8b8b7"/>
<rect x="6" y="1" width="1" height="1" fill="#bcbcbb"/>
<rect x="23" y="1" width="1" height="1" fill="#cececc"/>
<rect x="19" y="1" width="1" height="1" fill="#ccccca"/>
<rect x="5" y="1" width="1" height="2" fill="#b8b8b7"/>
<rect x="22" y="1" width="1" height="2" fill="#d0d0ce"/>
<rect x="24" y="1" width="1" height="2" fill="#afb0af"/>
<rect x="17" y="2" width="1" height="1" fill="#b3b4b2"/>
<rect x="25" y="2" width="2" height="1" fill="#d3d3d1"/>
<rect x="14" y="2" width="2" height="1" fill="#bfbebd"/>
<rect x="6" y="2" width="1" height="1" fill="#aaaba9"/>
<rect x="8" y="2" width="1" height="1" fill="#a3a4a3"/>
<rect x="9" y="2" width="1" height="1" fill="#cacac8"/>
<rect x="20" y="2" width="1" height="1" fill="#ccccca"/>
<rect x="7" y="2" width="1" height="1" fill="#9e9e9d"/>
<rect x="18" y="2" width="1" height="1" fill="#bebdbc"/>
<rect x="1" y="2" width="1" height="1" fill="#bfbebd"/>
<rect x="16" y="2" width="1" height="1" fill="#bcbcbb"/>
<rect x="19" y="2" width="1" height="1" fill="#b8b8b7"/>
<rect x="27" y="2" width="1" height="1" fill="#c8c8c7"/>
<rect x="13" y="2" width="1" height="1" fill="#cececc"/>
<rect x="10" y="2" width="1" height="1" fill="#d3d3d1"/>
<rect x="28" y="2" width="1" height="1" fill="#a3a4a3"/>
<rect x="2" y="2" width="3" height="1" fill="#bebdbc"/>
<rect x="23" y="2" width="1" height="2" fill="#b3b4b2"/>
<rect x="19" y="3" width="1" height="1" fill="#cacac8"/>
<rect x="25" y="3" width="1" height="1" fill="#b3b4b2"/>
<rect x="28" y="3" width="1" height="1" fill="#c8c8c7"/>
<rect x="4" y="3" width="1" height="1" fill="#c0c0bf"/>
<rect x="5" y="3" width="1" height="1" fill="#bebdbc"/>
<rect x="6" y="3" width="1" height="1" fill="#c6c6c4"/>
<rect x="22" y="3" width="1" height="1" fill="#bfbebd"/>
<rect x="24" y="3" width="1" height="1" fill="#bcbcbb"/>
<rect x="1" y="3" width="3" height="1" fill="#bebdbc"/>
<rect x="7" y="3" width="1" height="1" fill="#cececc"/>
<rect x="14" y="3" width="1" height="1" fill="#b8b8b7"/>
<rect x="12" y="3" width="1" height="1" fill="#cececc"/>
<rect x="15" y="3" width="1" height="1" fill="#b3b4b2"/>
<rect x="11" y="3" width="1" height="1" fill="#cecfcd"/>
<rect x="16" y="3" width="1" height="1" fill="#c0c0bf"/>
<rect x="18" y="3" width="1" height="1" fill="#d1d1cf"/>
<rect x="13" y="3" width="1" height="1" fill="#bcbcbb"/>
<rect x="17" y="3" width="1" height="1" fill="#cacac8"/>
<rect x="20" y="3" width="1" height="1" fill="#bebdbc"/>
<rect x="21" y="3" width="1" height="1" fill="#c0c0bf"/>
<rect x="26" y="3" width="1" height="1" fill="#afb0af"/>
<rect x="27" y="3" width="1" height="1" fill="#b3b4b2"/>
<rect x="29" y="2" width="2" height="3" fill="#7a7d7f"/>
<rect x="6" y="4" width="1" height="1" fill="#c0c0bf"/>
<rect x="20" y="4" width="1" height="1" fill="#bfbebd"/>
<rect x="9" y="4" width="1" height="1" fill="#d1d1cf"/>
<rect x="12" y="4" width="1" height="1" fill="#afb0af"/>
<rect x="2" y="4" width="1" height="1" fill="#c8c8c7"/>
<rect x="28" y="4" width="1" height="1" fill="#d0d0ce"/>
<rect x="13" y="4" width="2" height="1" fill="#bcbcbb"/>
<rect x="21" y="4" width="1" height="1" fill="#bebdbc"/>
<rect x="27" y="4" width="1" height="1" fill="#d3d3d1"/>
<rect x="11" y="4" width="1" height="1" fill="#ccccca"/>
<rect x="15" y="4" width="1" height="1" fill="#c6c6c4"/>
<rect x="26" y="4" width="1" height="1" fill="#cacac8"/>
<rect x="1" y="4" width="1" height="1" fill="#bfbebd"/>
<rect x="5" y="4" width="1" height="1" fill="#d1d1d0"/>
<rect x="3" y="4" width="1" height="1" fill="#cecfcd"/>
<rect x="22" y="4" width="1" height="1" fill="#c6c6c4"/>
<rect x="8" y="4" width="1" height="1" fill="#c0c0bf"/>
<rect x="19" y="4" width="1" height="1" fill="#d1d1cf"/>
<rect x="7" y="4" width="1" height="1" fill="#bebdbc"/>
<rect x="24" y="4" width="2" height="1" fill="#aaaba9"/>
<rect x="0" y="2" width="1" height="4" fill="#9e9e9d"/>
<rect x="6" y="5" width="1" height="1" fill="#c3c3c2"/>
<rect x="28" y="5" width="1" height="1" fill="#cececc"/>
<rect x="10" y="5" width="1" height="1" fill="#cecfcd"/>
<rect x="11" y="5" width="1" height="1" fill="#bfbebd"/>
<rect x="26" y="5" width="1" height="1" fill="#d1d1cf"/>
<rect x="19" y="5" width="1" height="1" fill="#cecfcd"/>
<rect x="9" y="5" width="1" height="1" fill="#ccccca"/>
<rect x="1" y="5" width="1" height="1" fill="#b8b8b7"/>
<rect x="15" y="5" width="1" height="1" fill="#cecfcd"/>
<rect x="24" y="5" width="1" height="1" fill="#9e9e9d"/>
<rect x="3" y="5" width="1" height="1" fill="#c8c8c7"/>
<rect x="2" y="5" width="1" height="1" fill="#b3b4b2"/>
<rect x="27" y="5" width="1" height="1" fill="#d1d1d0"/>
<rect x="25" y="5" width="1" height="1" fill="#d0d0ce"/>
<rect x="5" y="5" width="1" height="1" fill="#cecfcd"/>
<rect x="7" y="5" width="2" height="1" fill="#bfbebd"/>
<rect x="12" y="5" width="1" height="1" fill="#aaaba9"/>
<rect x="20" y="5" width="1" height="1" fill="#bebdbc"/>
<rect x="21" y="5" width="1" height="1" fill="#c3c3c2"/>
<rect x="13" y="5" width="2" height="1" fill="#a3a4a3"/>
<rect x="4" y="5" width="1" height="1" fill="#d1d1cf"/>
<rect x="23" y="5" width="1" height="1" fill="#ccccca"/>
<rect x="29" y="5" width="1" height="2" fill="#76797b"/>
<rect x="30" y="5" width="1" height="2" fill="#7a7d7f"/>
<rect x="19" y="6" width="1" height="1" fill="#cacac8"/>
<rect x="2" y="6" width="2" height="1" fill="#c6c6c4"/>
<rect x="9" y="6" width="1" height="1" fill="#cacac8"/>
<rect x="22" y="6" width="1" height="1" fill="#d1d1cf"/>
<rect x="10" y="6" width="1" height="1" fill="#c6c6c4"/>
<rect x="24" y="6" width="1" height="1" fill="#ccccca"/>
<rect x="11" y="6" width="2" height="1" fill="#b8b8b7"/>
<rect x="14" y="6" width="1" height="1" fill="#bebdbc"/>
<rect x="7" y="6" width="2" height="1" fill="#bebdbc"/>
<rect x="27" y="6" width="1" height="1" fill="#c8c8c7"/>
<rect x="0" y="6" width="1" height="1" fill="#a3a4a3"/>
<rect x="13" y="6" width="1" height="1" fill="#939493"/>
<rect x="28" y="6" width="1" height="1" fill="#afb0af"/>
<rect x="21" y="6" width="1" height="1" fill="#cacac8"/>
<rect x="1" y="6" width="1" height="1" fill="#cacac8"/>
<rect x="5" y="6" width="1" height="1" fill="#c6c6c4"/>
<rect x="4" y="6" width="1" height="1" fill="#d1d1d0"/>
<rect x="31" y="1" width="1" height="7" fill="#5e6264"/>
<rect x="20" y="6" width="1" height="2" fill="#bcbcbb"/>
<rect x="26" y="6" width="1" height="2" fill="#cececc"/>
<rect x="6" y="6" width="1" height="2" fill="#b8b8b7"/>
<rect x="25" y="6" width="1" height="2" fill="#d1d1cf"/>
<rect x="29" y="7" width="1" height="1" fill="#64686b"/>
<rect x="2" y="7" width="1" height="1" fill="#d0d0ce"/>
<rect x="24" y="7" width="1" height="1" fill="#d1d1d0"/>
<rect x="22" y="7" width="1" height="1" fill="#d0d0ce"/>
<rect x="7" y="7" width="1" height="1" fill="#c0c0bf"/>
<rect x="3" y="7" width="1" height="1" fill="#ccccca"/>
<rect x="11" y="7" width="1" height="1" fill="#c3c3c2"/>
<rect x="12" y="7" width="1" height="1" fill="#bcbcbb"/>
<rect x="13" y="7" width="1" height="1" fill="#bfbebd"/>
<rect x="8" y="7" width="1" height="1" fill="#cacac8"/>
<rect x="5" y="7" width="1" height="1" fill="#c3c3c2"/>
<rect x="28" y="7" width="1" height="1" fill="#a3a4a3"/>
<rect x="18" y="7" width="1" height="1" fill="#d1d1d0"/>
<rect x="21" y="7" width="1" height="1" fill="#c3c3c2"/>
<rect x="23" y="7" width="1" height="1" fill="#d1d1cf"/>
<rect x="16" y="7" width="2" height="1" fill="#d1d1cf"/>
<rect x="19" y="7" width="1" height="1" fill="#ccccca"/>
<rect x="30" y="7" width="1" height="2" fill="#76797b"/>
<rect x="10" y="8" width="1" height="1" fill="#cacac8"/>
<rect x="23" y="8" width="1" height="1" fill="#c0c0bf"/>
<rect x="6" y="8" width="1" height="1" fill="#c6c6c4"/>
<rect x="16" y="8" width="2" height="1" fill="#c0c0bf"/>
<rect x="9" y="8" width="1" height="1" fill="#ccccca"/>
<rect x="22" y="8" width="1" height="1" fill="#bfbebd"/>
<rect x="24" y="8" width="1" height="1" fill="#cececc"/>
<rect x="28" y="8" width="1" height="1" fill="#c0c0bf"/>
<rect x="5" y="8" width="1" height="1" fill="#bfbebd"/>
<rect x="29" y="8" width="1" height="1" fill="#6b6e71"/>
<rect x="11" y="8" width="2" height="1" fill="#bebdbc"/>
<rect x="26" y="8" width="1" height="1" fill="#aaaba9"/>
<rect x="14" y="8" width="2" height="1" fill="#c6c6c4"/>
<rect x="25" y="8" width="1" height="1" fill="#ccccca"/>
<rect x="31" y="8" width="1" height="1" fill="#535659"/>
<rect x="20" y="8" width="1" height="1" fill="#bebdbc"/>
<rect x="18" y="8" width="1" height="1" fill="#c8c8c7"/>
<rect x="7" y="8" width="2" height="1" fill="#d1d1cf"/>
<rect x="13" y="8" width="1" height="1" fill="#c3c3c2"/>
<rect x="19" y="8" width="1" height="1" fill="#d0d0ce"/>
<rect x="4" y="8" width="1" height="1" fill="#cececc"/>
<rect x="0" y="7" width="1" height="3" fill="#afb0af"/>
<rect x="27" y="8" width="1" height="2" fill="#d1d1cf"/>
<rect x="21" y="8" width="1" height="2" fill="#bcbcbb"/>
<rect x="25" y="9" width="1" height="1" fill="#c6c6c4"/>
<rect x="15" y="9" width="1" height="1" fill="#ccccca"/>
<rect x="9" y="9" width="1" height="1" fill="#cacac8"/>
<rect x="3" y="9" width="1" height="1" fill="#d1d1cf"/>
<rect x="13" y="9" width="1" height="1" fill="#bebdbc"/>
<rect x="4" y="9" width="1" height="1" fill="#c6c6c4"/>
<rect x="29" y="9" width="2" height="1" fill="#7a7d7f"/>
<rect x="28" y="9" width="1" height="1" fill="#cecfcd"/>
<rect x="26" y="9" width="1" height="1" fill="#cacac8"/>
<rect x="24" y="9" width="1" height="1" fill="#c0c0bf"/>
<rect x="12" y="9" width="1" height="1" fill="#bcbcbb"/>
<rect x="19" y="9" width="2" height="1" fill="#d0d0ce"/>
<rect x="7" y="9" width="1" height="1" fill="#cecfcd"/>
<rect x="22" y="9" width="2" height="1" fill="#bebdbc"/>
<rect x="5" y="9" width="1" height="1" fill="#d0d0ce"/>
<rect x="10" y="9" width="2" height="1" fill="#bebdbc"/>
<rect x="6" y="9" width="1" height="1" fill="#ccccca"/>
<rect x="14" y="9" width="1" height="1" fill="#c0c0bf"/>
<rect x="18" y="9" width="1" height="1" fill="#cacac8"/>
<rect x="16" y="9" width="2" height="1" fill="#cececc"/>
<rect x="8" y="9" width="1" height="1" fill="#b3b4b2"/>
<rect x="6" y="10" width="1" height="1" fill="#c0c0bf"/>
<rect x="4" y="10" width="1" height="1" fill="#ccccca"/>
<rect x="8" y="10" width="1" height="1" fill="#b8b8b7"/>
<rect x="1" y="10" width="2" height="1" fill="#d1d1cf"/>
<rect x="14" y="10" width="2" height="1" fill="#d1d1cf"/>
<rect x="26" y="10" width="1" height="1" fill="#cececc"/>
<rect x="11" y="10" width="1" height="1" fill="#bcbcbb"/>
<rect x="3" y="10" width="1" height="1" fill="#cececc"/>
<rect x="9" y="10" width="1" height="1" fill="#cecfcd"/>
<rect x="22" y="10" width="1" height="1" fill="#bcbcbb"/>
<rect x="10" y="10" width="1" height="1" fill="#b8b8b7"/>
<rect x="5" y="10" width="1" height="1" fill="#d1d1cf"/>
<rect x="19" y="10" width="2" height="1" fill="#d1d1d0"/>
<rect x="7" y="10" width="1" height="1" fill="#c3c3c2"/>
<rect x="27" y="10" width="1" height="1" fill="#d0d0ce"/>
<rect x="28" y="10" width="1" height="1" fill="#b3b4b2"/>
<rect x="12" y="10" width="1" height="1" fill="#c0c0bf"/>
<rect x="13" y="10" width="1" height="1" fill="#cececc"/>
<rect x="29" y="10" width="2" height="1" fill="#76797b"/>
<rect x="21" y="10" width="1" height="1" fill="#c0c0bf"/>
<rect x="25" y="10" width="1" height="1" fill="#c0c0bf"/>
<rect x="23" y="10" width="2" height="1" fill="#bebdbc"/>
<rect x="4" y="11" width="1" height="1" fill="#d0d0ce"/>
<rect x="10" y="11" width="1" height="1" fill="#cacac8"/>
<rect x="27" y="11" width="1" height="1" fill="#afb0af"/>
<rect x="2" y="11" width="1" height="1" fill="#ccccca"/>
<rect x="9" y="11" width="1" height="1" fill="#c8c8c7"/>
<rect x="23" y="11" width="1" height="1" fill="#c0c0bf"/>
<rect x="28" y="11" width="1" height="1" fill="#9e9e9d"/>
<rect x="21" y="11" width="1" height="1" fill="#afb0af"/>
<rect x="24" y="11" width="1" height="1" fill="#cececc"/>
<rect x="7" y="11" width="1" height="1" fill="#cececc"/>
<rect x="22" y="11" width="1" height="1" fill="#9e9e9d"/>
<rect x="1" y="11" width="1" height="1" fill="#d2d2cf"/>
<rect x="11" y="11" width="1" height="1" fill="#cecfcd"/>
<rect x="26" y="11" width="1" height="1" fill="#c6c6c4"/>
<rect x="8" y="11" width="1" height="1" fill="#cacac8"/>
<rect x="17" y="11" width="1" height="1" fill="#cecfcd"/>
<rect x="25" y="11" width="1" height="1" fill="#cacac8"/>
<rect x="0" y="10" width="1" height="3" fill="#b3b4b2"/>
<rect x="29" y="11" width="1" height="2" fill="#76797b"/>
<rect x="3" y="11" width="1" height="2" fill="#c3c3c2"/>
<rect x="30" y="11" width="1" height="2" fill="#7a7d7f"/>
<rect x="18" y="12" width="1" height="1" fill="#c0c0bf"/>
<rect x="20" y="12" width="1" height="1" fill="#d1d1cf"/>
<rect x="15" y="12" width="1" height="1" fill="#d0d0ce"/>
<rect x="2" y="12" width="1" height="1" fill="#cececc"/>
<rect x="19" y="12" width="1" height="1" fill="#c3c3c2"/>
<rect x="4" y="12" width="1" height="1" fill="#cececc"/>
<rect x="17" y="12" width="1" height="1" fill="#a3a4a3"/>
<rect x="27" y="12" width="2" height="1" fill="#b3b4b2"/>
<rect x="26" y="12" width="1" height="1" fill="#aaaba9"/>
<rect x="16" y="12" width="1" height="1" fill="#cacac8"/>
<rect x="14" y="12" width="1" height="1" fill="#cececc"/>
<rect x="25" y="12" width="1" height="1" fill="#9e9e9d"/>
<rect x="24" y="12" width="1" height="1" fill="#a3a4a3"/>
<rect x="10" y="12" width="3" height="1" fill="#d1d1d0"/>
<rect x="21" y="12" width="1" height="1" fill="#aaaba9"/>
<rect x="8" y="12" width="2" height="1" fill="#d1d1cf"/>
<rect x="23" y="12" width="1" height="2" fill="#9e9e9d"/>
<rect x="22" y="12" width="1" height="2" fill="#939493"/>
<rect x="5" y="12" width="1" height="2" fill="#d1d1d0"/>
<rect x="1" y="12" width="1" height="2" fill="#d1d1d0"/>
<rect x="15" y="13" width="1" height="1" fill="#cececc"/>
<rect x="26" y="13" width="3" height="1" fill="#a3a4a3"/>
<rect x="2" y="13" width="1" height="1" fill="#d0d0ce"/>
<rect x="16" y="13" width="2" height="1" fill="#c3c3c2"/>
<rect x="18" y="13" width="1" height="1" fill="#c6c6c4"/>
<rect x="14" y="13" width="1" height="1" fill="#b3b4b2"/>
<rect x="4" y="13" width="1" height="1" fill="#cecfcd"/>
<rect x="24" y="13" width="2" height="1" fill="#afb0af"/>
<rect x="3" y="13" width="1" height="1" fill="#d1d1cf"/>
<rect x="13" y="13" width="1" height="1" fill="#a3a4a3"/>
<rect x="9" y="13" width="1" height="1" fill="#cecfcd"/>
<rect x="12" y="13" width="1" height="1" fill="#d0d0ce"/>
<rect x="19" y="13" width="1" height="1" fill="#bebdbc"/>
<rect x="20" y="13" width="1" height="1" fill="#c6c6c4"/>
<rect x="8" y="13" width="1" height="1" fill="#ccccca"/>
<rect x="7" y="13" width="1" height="1" fill="#aaaba9"/>
<rect x="21" y="13" width="1" height="1" fill="#9e9e9d"/>
<rect x="29" y="13" width="2" height="1" fill="#76797b"/>
<rect x="6" y="13" width="1" height="1" fill="#ccccca"/>
<rect x="10" y="13" width="1" height="1" fill="#d1d1d0"/>
<rect x="0" y="13" width="1" height="2" fill="#b8b8b7"/>
<rect x="6" y="14" width="1" height="1" fill="#c0c0bf"/>
<rect x="24" y="14" width="1" height="1" fill="#bfbebd"/>
<rect x="19" y="14" width="2" height="1" fill="#bebdbc"/>
<rect x="25" y="14" width="1" height="1" fill="#b3b4b2"/>
<rect x="16" y="14" width="1" height="1" fill="#a3a4a3"/>
<rect x="15" y="14" width="1" height="1" fill="#9e9e9d"/>
<rect x="21" y="14" width="1" height="1" fill="#b8b8b7"/>
<rect x="30" y="14" width="1" height="1" fill="#76797b"/>
<rect x="11" y="14" width="1" height="1" fill="#d1d1d0"/>
<rect x="29" y="14" width="1" height="1" fill="#6b6e71"/>
<rect x="3" y="14" width="1" height="1" fill="#c3c3c2"/>
<rect x="8" y="14" width="1" height="1" fill="#bcbcbb"/>
<rect x="17" y="14" width="1" height="1" fill="#c8c8c7"/>
<rect x="18" y="14" width="1" height="1" fill="#bfbebd"/>
<rect x="4" y="14" width="2" height="1" fill="#c6c6c4"/>
<rect x="10" y="14" width="1" height="1" fill="#d1d1cf"/>
<rect x="22" y="14" width="1" height="1" fill="#b3b4b2"/>
<rect x="14" y="14" width="1" height="1" fill="#bcbcbb"/>
<rect x="26" y="14" width="1" height="1" fill="#b8b8b7"/>
<rect x="7" y="14" width="1" height="1" fill="#afb0af"/>
<rect x="13" y="14" width="1" height="1" fill="#c0c0bf"/>
<rect x="23" y="14" width="1" height="1" fill="#bcbcbb"/>
<rect x="27" y="14" width="1" height="2" fill="#bebdbc"/>
<rect x="1" y="14" width="1" height="2" fill="#cececc"/>
<rect x="28" y="14" width="1" height="2" fill="#b8b8b7"/>
<rect x="2" y="14" width="1" height="2" fill="#bfbebd"/>
<rect x="18" y="15" width="6" height="1" fill="#bebdbc"/>
<rect x="14" y="15" width="1" height="1" fill="#c6c6c4"/>
<rect x="15" y="15" width="1" height="1" fill="#c3c3c2"/>
<rect x="0" y="15" width="1" height="1" fill="#aaaba9"/>
<rect x="25" y="15" width="1" height="1" fill="#afb0af"/>
<rect x="7" y="15" width="1" height="1" fill="#c8c8c7"/>
<rect x="8" y="15" width="1" height="1" fill="#bfbebd"/>
<rect x="26" y="15" width="1" height="1" fill="#c3c3c2"/>
<rect x="6" y="15" width="1" height="1" fill="#bebdbc"/>
<rect x="3" y="15" width="2" height="1" fill="#bebdbc"/>
<rect x="9" y="15" width="2" height="1" fill="#d1d1d0"/>
<rect x="5" y="15" width="1" height="1" fill="#bcbcbb"/>
<rect x="11" y="15" width="2" height="1" fill="#d1d1cf"/>
<rect x="16" y="15" width="1" height="1" fill="#cecfcd"/>
<rect x="13" y="15" width="1" height="1" fill="#d1d1d0"/>
<rect x="17" y="15" width="1" height="1" fill="#cacac8"/>
<rect x="24" y="15" width="1" height="2" fill="#c3c3c2"/>
<rect x="0" y="16" width="1" height="1" fill="#9e9e9d"/>
<rect x="15" y="16" width="1" height="1" fill="#d1d1d0"/>
<rect x="25" y="16" width="1" height="1" fill="#b3b4b2"/>
<rect x="27" y="16" width="1" height="1" fill="#b8b8b7"/>
<rect x="4" y="16" width="1" height="1" fill="#c0c0bf"/>
<rect x="9" y="16" width="1" height="1" fill="#d1d1d0"/>
<rect x="2" y="16" width="1" height="1" fill="#ccccca"/>
<rect x="28" y="16" width="1" height="1" fill="#bcbcbb"/>
<rect x="3" y="16" width="1" height="1" fill="#bfbebd"/>
<rect x="26" y="16" width="1" height="1" fill="#c8c8c7"/>
<rect x="7" y="16" width="1" height="1" fill="#d0d0ce"/>
<rect x="11" y="16" width="1" height="1" fill="#ccccca"/>
<rect x="16" y="16" width="1" height="1" fill="#d1d1cf"/>
<rect x="22" y="16" width="1" height="1" fill="#bcbcbb"/>
<rect x="23" y="16" width="1" height="1" fill="#b8b8b7"/>
<rect x="19" y="16" width="3" height="1" fill="#bebdbc"/>
<rect x="10" y="16" width="1" height="1" fill="#d1d2d0"/>
<rect x="12" y="16" width="1" height="1" fill="#cecfcd"/>
<rect x="1" y="16" width="1" height="1" fill="#c8c8c7"/>
<rect x="5" y="16" width="1" height="1" fill="#c3c3c2"/>
<rect x="8" y="16" width="1" height="1" fill="#c3c3c2"/>
<rect x="14" y="16" width="1" height="1" fill="#d0d0ce"/>
<rect x="18" y="16" width="1" height="1" fill="#bcbcbb"/>
<rect x="6" y="16" width="1" height="1" fill="#c8c8c7"/>
<rect x="13" y="16" width="1" height="1" fill="#c3c3c2"/>
<rect x="17" y="16" width="1" height="1" fill="#c6c6c4"/>
<rect x="31" y="9" width="1" height="9" fill="#5e6264"/>
<rect x="4" y="17" width="3" height="1" fill="#d1d1d0"/>
<rect x="19" y="17" width="2" height="1" fill="#bebdbc"/>
<rect x="18" y="17" width="1" height="1" fill="#c6c6c4"/>
<rect x="1" y="17" width="1" height="1" fill="#b8b8b7"/>
<rect x="7" y="17" width="3" height="1" fill="#d1d1cf"/>
<rect x="21" y="17" width="2" height="1" fill="#bcbcbb"/>
<rect x="26" y="17" width="1" height="1" fill="#ccccca"/>
<rect x="3" y="17" width="1" height="1" fill="#d0d0ce"/>
<rect x="11" y="17" width="1" height="1" fill="#c3c3c2"/>
<rect x="28" y="17" width="1" height="1" fill="#c6c6c4"/>
<rect x="0" y="17" width="1" height="1" fill="#afb0af"/>
<rect x="17" y="17" width="1" height="1" fill="#d0d0ce"/>
<rect x="24" y="17" width="1" height="1" fill="#b3b4b2"/>
<rect x="25" y="17" width="1" height="1" fill="#d0d1cf"/>
<rect x="12" y="17" width="1" height="1" fill="#aaaba9"/>
<rect x="16" y="17" width="1" height="1" fill="#c6c6c4"/>
<rect x="27" y="17" width="1" height="1" fill="#aaaba9"/>
<rect x="13" y="17" width="1" height="1" fill="#c0c0bf"/>
<rect x="10" y="17" width="1" height="1" fill="#d1d1d0"/>
<rect x="15" y="17" width="1" height="1" fill="#d1d1cf"/>
<rect x="29" y="15" width="1" height="4" fill="#76797b"/>
<rect x="30" y="15" width="1" height="4" fill="#7a7d7f"/>
<rect x="2" y="17" width="1" height="2" fill="#cececc"/>
<rect x="23" y="17" width="1" height="2" fill="#d0d0ce"/>
<rect x="24" y="18" width="1" height="1" fill="#bfbebd"/>
<rect x="15" y="18" width="1" height="1" fill="#c8c8c7"/>
<rect x="28" y="18" width="1" height="1" fill="#bcbcbb"/>
<rect x="17" y="18" width="2" height="1" fill="#d1d1cf"/>
<rect x="31" y="18" width="1" height="1" fill="#64686b"/>
<rect x="22" y="18" width="1" height="1" fill="#d1d1cf"/>
<rect x="3" y="18" width="1" height="1" fill="#d1d1cf"/>
<rect x="7" y="18" width="1" height="1" fill="#d0d0ce"/>
<rect x="4" y="18" width="2" height="1" fill="#d0d0ce"/>
<rect x="16" y="18" width="1" height="1" fill="#d0d0ce"/>
<rect x="27" y="18" width="1" height="1" fill="#cececc"/>
<rect x="14" y="18" width="1" height="1" fill="#d1d1d0"/>
<rect x="6" y="18" width="1" height="1" fill="#cececc"/>
<rect x="26" y="18" width="1" height="1" fill="#afb0af"/>
<rect x="20" y="18" width="2" height="1" fill="#c3c3c2"/>
<rect x="25" y="18" width="1" height="1" fill="#cecfcd"/>
<rect x="0" y="18" width="2" height="1" fill="#b3b4b2"/>
<rect x="19" y="18" width="1" height="1" fill="#cececc"/>
<rect x="8" y="18" width="3" height="2" fill="#d1d1cf"/>
<rect x="16" y="19" width="2" height="1" fill="#d1d1d0"/>
<rect x="15" y="19" width="1" height="1" fill="#ccccca"/>
<rect x="25" y="19" width="1" height="1" fill="#b3b4b2"/>
<rect x="2" y="19" width="1" height="1" fill="#c8c8c7"/>
<rect x="5" y="19" width="1" height="1" fill="#bebdbc"/>
<rect x="1" y="19" width="1" height="1" fill="#b8b8b7"/>
<rect x="0" y="19" width="1" height="1" fill="#aaaba9"/>
<rect x="7" y="19" width="1" height="1" fill="#c8c8c7"/>
<rect x="11" y="19" width="1" height="1" fill="#d1d1d0"/>
<rect x="26" y="19" width="1" height="1" fill="#ccccca"/>
<rect x="22" y="19" width="1" height="1" fill="#d1d1d0"/>
<rect x="27" y="19" width="1" height="1" fill="#d1d1cf"/>
<rect x="12" y="19" width="1" height="1" fill="#cececc"/>
<rect x="24" y="19" width="1" height="1" fill="#cecfcd"/>
<rect x="31" y="19" width="1" height="1" fill="#6b6e71"/>
<rect x="21" y="19" width="1" height="1" fill="#d1d1cf"/>
<rect x="20" y="19" width="1" height="1" fill="#c6c6c4"/>
<rect x="3" y="19" width="1" height="1" fill="#c3c3c2"/>
<rect x="18" y="19" width="1" height="1" fill="#d1d1cf"/>
<rect x="4" y="19" width="1" height="1" fill="#bfbebd"/>
<rect x="28" y="19" width="1" height="1" fill="#a3a4a3"/>
<rect x="29" y="19" width="2" height="1" fill="#76797b"/>
<rect x="23" y="19" width="1" height="1" fill="#d1d1cf"/>
<rect x="6" y="19" width="1" height="1" fill="#bcbcbb"/>
<rect x="13" y="19" width="1" height="1" fill="#c0c0bf"/>
<rect x="14" y="19" width="1" height="1" fill="#c3c3c2"/>
<rect x="19" y="19" width="1" height="1" fill="#d0d0ce"/>
<rect x="18" y="20" width="1" height="1" fill="#cecfcd"/>
<rect x="16" y="20" width="1" height="1" fill="#bebdbc"/>
<rect x="15" y="20" width="1" height="1" fill="#d0d0ce"/>
<rect x="19" y="20" width="1" height="1" fill="#c3c3c2"/>
<rect x="0" y="20" width="1" height="1" fill="#c0c0bf"/>
<rect x="9" y="20" width="1" height="1" fill="#cececc"/>
<rect x="31" y="20" width="1" height="1" fill="#64686b"/>
<rect x="20" y="20" width="1" height="1" fill="#d0d0ce"/>
<rect x="7" y="20" width="1" height="1" fill="#cececc"/>
<rect x="28" y="20" width="1" height="1" fill="#c0c0bf"/>
<rect x="23" y="20" width="2" height="1" fill="#ccccca"/>
<rect x="12" y="20" width="1" height="1" fill="#c8c8c7"/>
<rect x="25" y="20" width="1" height="1" fill="#bfbebd"/>
<rect x="4" y="20" width="3" height="1" fill="#bebdbc"/>
<rect x="21" y="20" width="1" height="1" fill="#d1d1d0"/>
<rect x="27" y="20" width="1" height="1" fill="#c3c3c2"/>
<rect x="8" y="20" width="1" height="1" fill="#cecfcd"/>
<rect x="2" y="20" width="2" height="1" fill="#bcbcbb"/>
<rect x="1" y="20" width="1" height="1" fill="#c3c3c2"/>
<rect x="10" y="20" width="1" height="1" fill="#d1d1d0"/>
<rect x="13" y="20" width="1" height="1" fill="#c3c3c2"/>
<rect x="29" y="20" width="2" height="1" fill="#6b6e71"/>
<rect x="14" y="20" width="1" height="1" fill="#cecfcd"/>
<rect x="4" y="21" width="1" height="1" fill="#bcbcbb"/>
<rect x="8" y="21" width="1" height="1" fill="#b8b8b7"/>
<rect x="2" y="21" width="1" height="1" fill="#bcbcbb"/>
<rect x="7" y="21" width="1" height="1" fill="#d1d1cf"/>
<rect x="23" y="21" width="2" height="1" fill="#d1d1cf"/>
<rect x="26" y="21" width="1" height="1" fill="#cececc"/>
<rect x="10" y="21" width="2" height="1" fill="#d1d1d0"/>
<rect x="9" y="21" width="1" height="1" fill="#c3c3c2"/>
<rect x="19" y="21" width="2" height="1" fill="#d1d1cf"/>
<rect x="5" y="21" width="1" height="1" fill="#bfbebd"/>
<rect x="16" y="21" width="1" height="1" fill="#d1d1d0"/>
<rect x="27" y="21" width="1" height="1" fill="#c8c8c7"/>
<rect x="17" y="21" width="1" height="1" fill="#cececc"/>
<rect x="1" y="21" width="1" height="1" fill="#ccccca"/>
<rect x="13" y="21" width="1" height="1" fill="#d0d0ce"/>
<rect x="14" y="21" width="1" height="1" fill="#d1d1d0"/>
<rect x="29" y="21" width="2" height="1" fill="#76797b"/>
<rect x="18" y="21" width="1" height="1" fill="#ccccca"/>
<rect x="6" y="21" width="1" height="1" fill="#cececc"/>
<rect x="15" y="21" width="1" height="1" fill="#d1d1cf"/>
<rect x="0" y="21" width="1" height="1" fill="#bcbcbb"/>
<rect x="28" y="21" width="1" height="2" fill="#cacac8"/>
<rect x="12" y="21" width="1" height="2" fill="#c3c3c2"/>
<rect x="3" y="21" width="1" height="2" fill="#bebdbc"/>
<rect x="13" y="22" width="1" height="1" fill="#aaaba9"/>
<rect x="4" y="22" width="1" height="1" fill="#c0c0bf"/>
<rect x="9" y="22" width="1" height="1" fill="#bcbcbb"/>
<rect x="2" y="22" width="1" height="1" fill="#c0c0bf"/>
<rect x="29" y="22" width="2" height="1" fill="#7a7d7f"/>
<rect x="27" y="22" width="1" height="1" fill="#d3d3d1"/>
<rect x="5" y="22" width="1" height="1" fill="#cececc"/>
<rect x="20" y="22" width="2" height="1" fill="#d1d1cf"/>
<rect x="7" y="22" width="1" height="1" fill="#c6c6c4"/>
<rect x="17" y="22" width="1" height="1" fill="#d0d0ce"/>
<rect x="24" y="22" width="2" height="1" fill="#c8c8c7"/>
<rect x="26" y="22" width="1" height="1" fill="#c6c6c4"/>
<rect x="14" y="22" width="1" height="1" fill="#cececc"/>
<rect x="6" y="22" width="1" height="1" fill="#d1d1d0"/>
<rect x="16" y="22" width="1" height="1" fill="#c6c6c4"/>
<rect x="0" y="22" width="1" height="1" fill="#939493"/>
<rect x="10" y="22" width="1" height="1" fill="#ccccca"/>
<rect x="23" y="22" width="1" height="1" fill="#cececc"/>
<rect x="1" y="22" width="1" height="1" fill="#aaaba9"/>
<rect x="8" y="22" width="1" height="2" fill="#aaaba9"/>
<rect x="25" y="23" width="1" height="1" fill="#aaaba9"/>
<rect x="15" y="23" width="1" height="1" fill="#bcbcbb"/>
<rect x="16" y="23" width="2" height="1" fill="#d0d0ce"/>
<rect x="21" y="23" width="1" height="1" fill="#d2d2d1"/>
<rect x="26" y="23" width="1" height="1" fill="#939493"/>
<rect x="12" y="23" width="1" height="1" fill="#bfbebd"/>
<rect x="24" y="23" width="1" height="1" fill="#bcbcbb"/>
<rect x="7" y="23" width="1" height="1" fill="#bcbcbb"/>
<rect x="22" y="23" width="1" height="1" fill="#d0d0ce"/>
<rect x="3" y="23" width="1" height="1" fill="#d0d0ce"/>
<rect x="11" y="23" width="1" height="1" fill="#c0c0bf"/>
<rect x="0" y="23" width="1" height="1" fill="#a3a4a3"/>
<rect x="5" y="23" width="1" height="1" fill="#ccccca"/>
<rect x="6" y="23" width="1" height="1" fill="#bfbebd"/>
<rect x="27" y="23" width="1" height="1" fill="#808385"/>
<rect x="28" y="23" width="3" height="1" fill="#7a7d7f"/>
<rect x="9" y="23" width="1" height="1" fill="#bebdbc"/>
<rect x="18" y="23" width="1" height="1" fill="#d1d1d0"/>
<rect x="1" y="23" width="1" height="1" fill="#c3c3c2"/>
<rect x="4" y="23" width="1" height="1" fill="#d1d1cf"/>
<rect x="10" y="23" width="1" height="1" fill="#bcbcbb"/>
<rect x="14" y="23" width="1" height="1" fill="#cacac8"/>
<rect x="2" y="23" width="1" height="1" fill="#bfbebd"/>
<rect x="13" y="23" width="1" height="1" fill="#c3c3c2"/>
<rect x="23" y="23" width="1" height="1" fill="#c8c8c7"/>
<rect x="10" y="24" width="1" height="1" fill="#cacac8"/>
<rect x="8" y="24" width="1" height="1" fill="#b8b8b7"/>
<rect x="4" y="24" width="1" height="1" fill="#cacac8"/>
<rect x="0" y="24" width="1" height="1" fill="#c3c3c2"/>
<rect x="2" y="24" width="1" height="1" fill="#cececc"/>
<rect x="14" y="24" width="1" height="1" fill="#c6c6c4"/>
<rect x="16" y="24" width="1" height="1" fill="#a3a4a3"/>
<rect x="20" y="24" width="3" height="1" fill="#939493"/>
<rect x="26" y="24" width="1" height="1" fill="#76797b"/>
<rect x="17" y="24" width="1" height="1" fill="#afb0af"/>
<rect x="15" y="24" width="1" height="1" fill="#c0c0bf"/>
<rect x="18" y="24" width="1" height="1" fill="#b3b4b2"/>
<rect x="5" y="24" width="1" height="1" fill="#bfbebd"/>
<rect x="6" y="24" width="1" height="1" fill="#bebdbc"/>
<rect x="27" y="24" width="2" height="1" fill="#7a7d7f"/>
<rect x="9" y="24" width="1" height="1" fill="#c6c6c4"/>
<rect x="11" y="24" width="3" height="1" fill="#ccccca"/>
<rect x="19" y="24" width="1" height="1" fill="#a3a4a3"/>
<rect x="3" y="24" width="1" height="1" fill="#cecfcd"/>
<rect x="7" y="24" width="1" height="1" fill="#aaaba9"/>
<rect x="25" y="24" width="1" height="1" fill="#6b6e71"/>
<rect x="1" y="24" width="1" height="1" fill="#ccccca"/>
<rect x="30" y="24" width="1" height="1" fill="#7a7d7f"/>
<rect x="23" y="24" width="2" height="1" fill="#808385"/>
<rect x="29" y="24" width="1" height="1" fill="#808385"/>
<rect x="31" y="21" width="1" height="5" fill="#5e6264"/>
<rect x="18" y="25" width="2" height="1" fill="#76797b"/>
<rect x="28" y="25" width="1" height="1" fill="#76797b"/>
<rect x="5" y="25" width="1" height="1" fill="#b8b8b7"/>
<rect x="3" y="25" width="1" height="1" fill="#bfbebd"/>
<rect x="17" y="25" width="1" height="1" fill="#64686b"/>
<rect x="2" y="25" width="1" height="1" fill="#c0c0bf"/>
<rect x="13" y="25" width="1" height="1" fill="#a3a4a3"/>
<rect x="7" y="25" width="1" height="1" fill="#9e9e9d"/>
<rect x="16" y="25" width="1" height="1" fill="#6b6e71"/>
<rect x="6" y="25" width="1" height="1" fill="#afb0af"/>
<rect x="0" y="25" width="2" height="1" fill="#bcbcbb"/>
<rect x="11" y="25" width="1" height="1" fill="#c0c0bf"/>
<rect x="15" y="25" width="1" height="1" fill="#808385"/>
<rect x="4" y="25" width="1" height="1" fill="#bebdbc"/>
<rect x="8" y="25" width="1" height="1" fill="#d0d0ce"/>
<rect x="20" y="25" width="1" height="1" fill="#7a7d7f"/>
<rect x="14" y="25" width="1" height="1" fill="#939493"/>
<rect x="21" y="25" width="6" height="1" fill="#808385"/>
<rect x="12" y="25" width="1" height="1" fill="#b3b4b2"/>
<rect x="10" y="25" width="1" height="1" fill="#ccccca"/>
<rect x="29" y="25" width="2" height="1" fill="#6b6e71"/>
<rect x="27" y="25" width="1" height="1" fill="#7a7d7f"/>
<rect x="4" y="26" width="1" height="1" fill="#9e9e9d"/>
<rect x="21" y="26" width="1" height="1" fill="#7a7d7f"/>
<rect x="31" y="26" width="1" height="1" fill="#64686b"/>
<rect x="11" y="26" width="1" height="1" fill="#6b6e71"/>
<rect x="6" y="26" width="1" height="1" fill="#808385"/>
<rect x="22" y="26" width="1" height="1" fill="#76797b"/>
<rect x="18" y="26" width="3" height="1" fill="#808385"/>
<rect x="23" y="26" width="2" height="1" fill="#6b6e71"/>
<rect x="12" y="26" width="1" height="1" fill="#76797b"/>
<rect x="26" y="26" width="1" height="1" fill="#5e6264"/>
<rect x="13" y="26" width="5" height="1" fill="#7a7d7f"/>
<rect x="25" y="26" width="1" height="1" fill="#64686b"/>
<rect x="30" y="26" width="1" height="1" fill="#5e6264"/>
<rect x="27" y="26" width="3" height="1" fill="#64686b"/>
<rect x="8" y="26" width="1" height="1" fill="#939493"/>
<rect x="5" y="26" width="1" height="1" fill="#939493"/>
<rect x="10" y="26" width="1" height="1" fill="#64686b"/>
<rect x="9" y="26" width="1" height="1" fill="#7a7d7f"/>
<rect x="7" y="26" width="1" height="1" fill="#7a7d7f"/>
<rect x="1" y="26" width="2" height="1" fill="#bfbebd"/>
<rect x="3" y="26" width="1" height="1" fill="#b8b8b7"/>
<rect x="0" y="26" width="1" height="1" fill="#bcbcbb"/>
<rect x="17" y="27" width="1" height="1" fill="#6b6e71"/>
<rect x="2" y="27" width="1" height="1" fill="#808385"/>
<rect x="30" y="27" width="2" height="1" fill="#5e6264"/>
<rect x="11" y="27" width="4" height="1" fill="#808385"/>
<rect x="20" y="27" width="6" height="1" fill="#64686b"/>
<rect x="7" y="27" width="3" height="1" fill="#7a7d7f"/>
<rect x="18" y="27" width="1" height="1" fill="#64686b"/>
<rect x="0" y="27" width="2" height="1" fill="#939493"/>
<rect x="16" y="27" width="1" height="1" fill="#76797b"/>
<rect x="26" y="27" width="4" height="1" fill="#535659"/>
<rect x="4" y="27" width="3" height="1" fill="#76797b"/>
<rect x="19" y="27" width="1" height="1" fill="#5e6264"/>
<rect x="15" y="27" width="1" height="1" fill="#7a7d7f"/>
<rect x="10" y="27" width="1" height="2" fill="#76797b"/>
<rect x="3" y="27" width="1" height="2" fill="#6b6e71"/>
<rect x="29" y="28" width="1" height="1" fill="#9e9e9d"/>
<rect x="2" y="28" width="1" height="1" fill="#76797b"/>
<rect x="11" y="28" width="1" height="1" fill="#6b6e71"/>
<rect x="27" y="28" width="2" height="1" fill="#939493"/>
<rect x="30" y="28" width="1" height="1" fill="#939493"/>
<rect x="12" y="28" width="7" height="1" fill="#64686b"/>
<rect x="19" y="28" width="5" height="1" fill="#535659"/>
<rect x="9" y="28" width="1" height="1" fill="#7a7d7f"/>
<rect x="24" y="28" width="1" height="1" fill="#5e6264"/>
<rect x="0" y="28" width="2" height="1" fill="#7a7d7f"/>
<rect x="4" y="28" width="5" height="1" fill="#808385"/>
<rect x="25" y="28" width="1" height="1" fill="#6b6e71"/>
<rect x="26" y="28" width="1" height="1" fill="#7a7d7f"/>
<rect x="31" y="28" width="1" height="1" fill="#535659"/>
<rect x="21" y="29" width="1" height="1" fill="#9e9e9d"/>
<rect x="25" y="29" width="6" height="1" fill="#9e9e9d"/>
<rect x="12" y="29" width="1" height="1" fill="#5e6264"/>
<rect x="4" y="29" width="3" height="1" fill="#6b6e71"/>
<rect x="3" y="29" width="1" height="1" fill="#76797b"/>
<rect x="31" y="29" width="1" height="1" fill="#6b6e71"/>
<rect x="9" y="29" width="1" height="1" fill="#6b6e71"/>
<rect x="13" y="29" width="5" height="1" fill="#535659"/>
<rect x="19" y="29" width="1" height="1" fill="#6b6e71"/>
<rect x="18" y="29" width="1" height="1" fill="#5e6264"/>
<rect x="7" y="29" width="2" height="1" fill="#64686b"/>
<rect x="20" y="29" width="1" height="1" fill="#808385"/>
<rect x="10" y="29" width="2" height="1" fill="#64686b"/>
<rect x="0" y="29" width="3" height="1" fill="#808385"/>
<rect x="22" y="29" width="1" height="1" fill="#aaaba9"/>
<rect x="23" y="29" width="1" height="2" fill="#afb0af"/>
<rect x="6" y="30" width="1" height="1" fill="#6b6e71"/>
<rect x="13" y="30" width="1" height="1" fill="#5e6264"/>
<rect x="25" y="30" width="7" height="1" fill="#9e9e9d"/>
<rect x="7" y="30" width="2" height="1" fill="#76797b"/>
<rect x="10" y="30" width="3" height="1" fill="#535659"/>
<rect x="9" y="30" width="1" height="1" fill="#5e6264"/>
<rect x="16" y="30" width="1" height="1" fill="#a3a4a3"/>
<rect x="4" y="30" width="1" height="1" fill="#535659"/>
<rect x="14" y="30" width="1" height="1" fill="#64686b"/>
<rect x="0" y="30" width="4" height="1" fill="#64686b"/>
<rect x="17" y="30" width="6" height="1" fill="#b3b4b2"/>
<rect x="15" y="30" width="1" height="1" fill="#76797b"/>
<rect x="5" y="30" width="1" height="1" fill="#64686b"/>
<rect x="24" y="29" width="1" height="3" fill="#a3a4a3"/>
<rect x="8" y="31" width="1" height="1" fill="#808385"/>
<rect x="25" y="31" width="1" height="1" fill="#aaaba9"/>
<rect x="28" y="31" width="1" height="1" fill="#76797b"/>
<rect x="14" y="31" width="1" height="1" fill="#aaaba9"/>
<rect x="9" y="31" width="1" height="1" fill="#939493"/>
<rect x="7" y="31" width="1" height="1" fill="#76797b"/>
<rect x="13" y="31" width="1" height="1" fill="#afb0af"/>
<rect x="17" y="31" width="7" height="1" fill="#aaaba9"/>
<rect x="26" y="31" width="1" height="1" fill="#9e9e9d"/>
<rect x="6" y="31" width="1" height="1" fill="#64686b"/>
<rect x="27" y="31" width="1" height="1" fill="#939493"/>
<rect x="15" y="31" width="2" height="1" fill="#9e9e9d"/>
<rect x="10" y="31" width="1" height="1" fill="#a3a4a3"/>
<rect x="0" y="31" width="1" height="1" fill="#64686b"/>
<rect x="30" y="31" width="2" height="1" fill="#a3a4a3"/>
<rect x="1" y="31" width="1" height="1" fill="#5e6264"/>
<rect x="2" y="31" width="4" height="1" fill="#535659"/>
<rect x="29" y="31" width="1" height="1" fill="#7a7d7f"/>
<rect x="12" y="31" width="1" height="1" fill="#b3b4b2"/>
<rect x="11" y="31" width="1" height="1" fill="#afb0af"/>
</svg>