<?xml version="1.0" encoding="UTF-8"?>
<svg xmlns="http://www.w3.org/2000/svg" width="20mm" height="20mm" viewBox="0 0 32 32" shape-rendering="crispEdges">
<title>150 右侧面 structured semantic redraw</title>
<metadata>registered 32-unit semantic vector redraw; no embedded raster; physical-size=20mm</metadata>
<rect x="0" y="0" width="32" height="32" fill="#649748"/>
<rect x="18" y="0" width="1" height="1" fill="#c7cdcb"/>
<rect x="29" y="0" width="3" height="1" fill="#cad0d1"/>
<rect x="9" y="0" width="1" height="1" fill="#739d59"/>
<rect x="23" y="0" width="2" height="1" fill="#cad0d1"/>
<rect x="7" y="0" width="2" height="1" fill="#c7cdcb"/>
<rect x="0" y="0" width="1" height="1" fill="#4f5b42"/>
<rect x="11" y="0" width="1" height="1" fill="#739d59"/>
<rect x="17" y="0" width="1" height="1" fill="#cad0d1"/>
<rect x="13" y="0" width="1" height="1" fill="#cad0d1"/>
<rect x="10" y="0" width="1" height="1" fill="#639647"/>
<rect x="22" y="0" width="1" height="1" fill="#c7cdcb"/>
<rect x="25" y="0" width="4" height="1" fill="#c7cdcb"/>
<rect x="12" y="0" width="1" height="1" fill="#c7cdcb"/>
<rect x="19" y="0" width="3" height="1" fill="#cad0d1"/>
<rect x="14" y="0" width="1" height="1" fill="#739d59"/>
<rect x="2" y="0" width="1" height="2" fill="#4e7540"/>
<rect x="3" y="0" width="1" height="2" fill="#567744"/>
<rect x="6" y="0" width="1" height="2" fill="#708f5c"/>
<rect x="1" y="0" width="1" height="2" fill="#516d43"/>
<rect x="4" y="0" width="2" height="2" fill="#667f47"/>
<rect x="13" y="1" width="1" height="1" fill="#c7cdcb"/>
<rect x="10" y="1" width="1" height="1" fill="#616e46"/>
<rect x="17" y="1" width="8" height="1" fill="#cad0d1"/>
<rect x="12" y="1" width="1" height="1" fill="#adbcae"/>
<rect x="0" y="1" width="1" height="1" fill="#586c45"/>
<rect x="25" y="1" width="2" height="1" fill="#c7cdcb"/>
<rect x="27" y="1" width="5" height="1" fill="#cad0d1"/>
<rect x="11" y="1" width="1" height="1" fill="#667f47"/>
<rect x="14" y="1" width="1" height="1" fill="#adbcae"/>
<rect x="16" y="0" width="1" height="3" fill="#739d59"/>
<rect x="8" y="1" width="1" height="2" fill="#cad0d1"/>
<rect x="7" y="1" width="1" height="2" fill="#c7cdcb"/>
<rect x="12" y="2" width="1" height="1" fill="#667f47"/>
<rect x="27" y="2" width="4" height="1" fill="#cad0d1"/>
<rect x="1" y="2" width="1" height="1" fill="#667f47"/>
<rect x="13" y="2" width="1" height="1" fill="#708f5c"/>
<rect x="22" y="2" width="1" height="1" fill="#cad0d1"/>
<rect x="19" y="2" width="3" height="1" fill="#c7cdcb"/>
<rect x="5" y="2" width="2" height="1" fill="#667f47"/>
<rect x="2" y="2" width="2" height="1" fill="#516d43"/>
<rect x="4" y="2" width="1" height="1" fill="#5c8046"/>
<rect x="10" y="2" width="2" height="1" fill="#606846"/>
<rect x="14" y="2" width="1" height="1" fill="#739d59"/>
<rect x="23" y="2" width="4" height="1" fill="#c7cdcb"/>
<rect x="9" y="1" width="1" height="3" fill="#adbcae"/>
<rect x="31" y="2" width="1" height="2" fill="#c7cdcb"/>
<rect x="16" y="3" width="1" height="1" fill="#67974c"/>
<rect x="5" y="3" width="1" height="1" fill="#67974c"/>
<rect x="28" y="3" width="3" height="1" fill="#cad0d1"/>
<rect x="20" y="3" width="3" height="1" fill="#cad0d1"/>
<rect x="4" y="3" width="1" height="1" fill="#5d7747"/>
<rect x="1" y="3" width="1" height="1" fill="#708f5c"/>
<rect x="6" y="3" width="1" height="1" fill="#658f4b"/>
<rect x="19" y="3" width="1" height="1" fill="#c7cdcb"/>
<rect x="7" y="3" width="1" height="1" fill="#adbcae"/>
<rect x="10" y="3" width="1" height="1" fill="#616e46"/>
<rect x="2" y="3" width="2" height="1" fill="#576544"/>
<rect x="25" y="3" width="2" height="1" fill="#708f5c"/>
<rect x="8" y="3" width="1" height="1" fill="#c7cdcb"/>
<rect x="27" y="3" width="1" height="1" fill="#c7cdcb"/>
<rect x="15" y="0" width="1" height="5" fill="#639647"/>
<rect x="17" y="2" width="1" height="3" fill="#c7cdcb"/>
<rect x="0" y="2" width="1" height="3" fill="#739d59"/>
<rect x="12" y="3" width="1" height="2" fill="#5d7747"/>
<rect x="23" y="3" width="2" height="2" fill="#c7cdcb"/>
<rect x="13" y="3" width="2" height="2" fill="#5f8648"/>
<rect x="19" y="4" width="2" height="1" fill="#708f5c"/>
<rect x="8" y="4" width="1" height="1" fill="#708f5c"/>
<rect x="3" y="4" width="1" height="1" fill="#576544"/>
<rect x="9" y="4" width="1" height="1" fill="#739d59"/>
<rect x="30" y="4" width="2" height="1" fill="#c7cdcb"/>
<rect x="10" y="4" width="1" height="1" fill="#657647"/>
<rect x="5" y="4" width="2" height="1" fill="#67974c"/>
<rect x="21" y="4" width="1" height="1" fill="#adbcae"/>
<rect x="7" y="4" width="1" height="1" fill="#658f4b"/>
<rect x="18" y="2" width="1" height="4" fill="#cad0d1"/>
<rect x="25" y="4" width="1" height="2" fill="#708f5c"/>
<rect x="1" y="4" width="1" height="2" fill="#719759"/>
<rect x="4" y="4" width="1" height="2" fill="#586c45"/>
<rect x="28" y="4" width="2" height="2" fill="#cad0d1"/>
<rect x="2" y="4" width="1" height="2" fill="#586c45"/>
<rect x="26" y="4" width="1" height="2" fill="#616e46"/>
<rect x="5" y="5" width="3" height="1" fill="#67974c"/>
<rect x="13" y="5" width="1" height="1" fill="#577f44"/>
<rect x="31" y="5" width="1" height="1" fill="#708f5c"/>
<rect x="3" y="5" width="1" height="1" fill="#505f42"/>
<rect x="15" y="5" width="2" height="1" fill="#639647"/>
<rect x="0" y="5" width="1" height="1" fill="#67974c"/>
<rect x="23" y="5" width="2" height="1" fill="#adbcae"/>
<rect x="10" y="5" width="1" height="1" fill="#616e46"/>
<rect x="14" y="5" width="1" height="1" fill="#5c8046"/>
<rect x="17" y="5" width="1" height="1" fill="#adbcae"/>
<rect x="22" y="4" width="1" height="3" fill="#cad0d1"/>
<rect x="27" y="4" width="1" height="3" fill="#adbcae"/>
<rect x="12" y="5" width="1" height="2" fill="#586c45"/>
<rect x="19" y="5" width="1" height="2" fill="#708f5c"/>
<rect x="20" y="5" width="1" height="2" fill="#4f5b42"/>
<rect x="8" y="5" width="2" height="2" fill="#5f8648"/>
<rect x="2" y="6" width="1" height="1" fill="#527e43"/>
<rect x="18" y="6" width="1" height="1" fill="#c7cdcb"/>
<rect x="25" y="6" width="1" height="1" fill="#667f47"/>
<rect x="0" y="6" width="2" height="1" fill="#639647"/>
<rect x="15" y="6" width="1" height="1" fill="#639248"/>
<rect x="29" y="6" width="1" height="1" fill="#cad0d1"/>
<rect x="28" y="6" width="1" height="1" fill="#c7cdcb"/>
<rect x="6" y="6" width="2" height="1" fill="#67974c"/>
<rect x="17" y="6" width="1" height="1" fill="#739d59"/>
<rect x="24" y="6" width="1" height="1" fill="#657647"/>
<rect x="26" y="6" width="1" height="1" fill="#657647"/>
<rect x="5" y="6" width="1" height="1" fill="#638a4a"/>
<rect x="21" y="5" width="1" height="3" fill="#708f5c"/>
<rect x="30" y="5" width="1" height="3" fill="#adbcae"/>
<rect x="31" y="6" width="1" height="2" fill="#577f44"/>
<rect x="10" y="6" width="1" height="2" fill="#5d7747"/>
<rect x="23" y="6" width="1" height="2" fill="#adbcae"/>
<rect x="13" y="6" width="2" height="2" fill="#527e43"/>
<rect x="4" y="6" width="1" height="2" fill="#4f6442"/>
<rect x="3" y="6" width="1" height="2" fill="#4f5b42"/>
<rect x="5" y="7" width="1" height="1" fill="#577f44"/>
<rect x="12" y="7" width="1" height="1" fill="#616e46"/>
<rect x="9" y="7" width="1" height="1" fill="#678e4e"/>
<rect x="8" y="7" width="1" height="1" fill="#67974c"/>
<rect x="2" y="7" width="1" height="1" fill="#568543"/>
<rect x="24" y="7" width="2" height="1" fill="#657647"/>
<rect x="17" y="7" width="1" height="1" fill="#567744"/>
<rect x="19" y="7" width="1" height="1" fill="#667f47"/>
<rect x="29" y="7" width="1" height="1" fill="#739d59"/>
<rect x="18" y="7" width="1" height="1" fill="#576544"/>
<rect x="28" y="7" width="1" height="1" fill="#719759"/>
<rect x="22" y="7" width="1" height="1" fill="#c7cdcb"/>
<rect x="20" y="7" width="1" height="1" fill="#567744"/>
<rect x="11" y="3" width="1" height="6" fill="#606846"/>
<rect x="15" y="7" width="1" height="2" fill="#608f47"/>
<rect x="26" y="7" width="1" height="2" fill="#667f47"/>
<rect x="27" y="7" width="1" height="2" fill="#638a4a"/>
<rect x="21" y="8" width="1" height="1" fill="#638a4a"/>
<rect x="7" y="8" width="1" height="1" fill="#639647"/>
<rect x="13" y="8" width="1" height="1" fill="#577f44"/>
<rect x="12" y="8" width="1" height="1" fill="#606947"/>
<rect x="8" y="8" width="2" height="1" fill="#739d59"/>
<rect x="3" y="8" width="2" height="1" fill="#4f6442"/>
<rect x="5" y="8" width="1" height="1" fill="#567744"/>
<rect x="25" y="8" width="1" height="1" fill="#657647"/>
<rect x="22" y="8" width="2" height="1" fill="#708f5c"/>
<rect x="30" y="8" width="1" height="1" fill="#639248"/>
<rect x="2" y="8" width="1" height="1" fill="#608f47"/>
<rect x="28" y="8" width="1" height="1" fill="#658f4b"/>
<rect x="14" y="8" width="1" height="1" fill="#527e43"/>
<rect x="0" y="8" width="2" height="1" fill="#639248"/>
<rect x="10" y="8" width="1" height="1" fill="#678e4e"/>
<rect x="24" y="8" width="1" height="1" fill="#586c45"/>
<rect x="29" y="8" width="1" height="1" fill="#67974c"/>
<rect x="18" y="8" width="1" height="2" fill="#4f5b42"/>
<rect x="17" y="8" width="1" height="2" fill="#5c8046"/>
<rect x="31" y="8" width="1" height="2" fill="#4e7540"/>
<rect x="19" y="8" width="1" height="2" fill="#586c45"/>
<rect x="21" y="9" width="1" height="1" fill="#608f47"/>
<rect x="27" y="9" width="1" height="1" fill="#5f8648"/>
<rect x="9" y="9" width="1" height="1" fill="#739d59"/>
<rect x="29" y="9" width="2" height="1" fill="#67974c"/>
<rect x="0" y="9" width="1" height="1" fill="#667f47"/>
<rect x="10" y="9" width="1" height="1" fill="#719759"/>
<rect x="16" y="9" width="1" height="1" fill="#568543"/>
<rect x="28" y="9" width="1" height="1" fill="#638a4a"/>
<rect x="26" y="9" width="1" height="1" fill="#639248"/>
<rect x="11" y="9" width="2" height="1" fill="#606947"/>
<rect x="5" y="9" width="1" height="1" fill="#516d43"/>
<rect x="13" y="9" width="2" height="1" fill="#638a4a"/>
<rect x="6" y="9" width="1" height="1" fill="#639647"/>
<rect x="3" y="9" width="1" height="1" fill="#4f6442"/>
<rect x="22" y="9" width="1" height="2" fill="#606846"/>
<rect x="8" y="9" width="1" height="2" fill="#67974c"/>
<rect x="24" y="9" width="1" height="2" fill="#516d43"/>
<rect x="23" y="9" width="1" height="2" fill="#586c45"/>
<rect x="25" y="9" width="1" height="2" fill="#527e43"/>
<rect x="15" y="9" width="1" height="2" fill="#5c8046"/>
<rect x="12" y="10" width="1" height="1" fill="#606846"/>
<rect x="6" y="10" width="1" height="1" fill="#639248"/>
<rect x="9" y="10" width="2" height="1" fill="#719759"/>
<rect x="3" y="10" width="1" height="1" fill="#576544"/>
<rect x="29" y="10" width="1" height="1" fill="#576544"/>
<rect x="13" y="10" width="1" height="1" fill="#667f47"/>
<rect x="31" y="10" width="1" height="1" fill="#567744"/>
<rect x="18" y="10" width="1" height="1" fill="#606846"/>
<rect x="30" y="10" width="1" height="1" fill="#5d7747"/>
<rect x="0" y="10" width="1" height="1" fill="#5f8648"/>
<rect x="11" y="10" width="1" height="1" fill="#616e46"/>
<rect x="5" y="10" width="1" height="1" fill="#4f6442"/>
<rect x="4" y="9" width="1" height="3" fill="#4f5b42"/>
<rect x="1" y="9" width="2" height="3" fill="#657647"/>
<rect x="27" y="10" width="1" height="2" fill="#667f47"/>
<rect x="16" y="10" width="1" height="2" fill="#4e7540"/>
<rect x="21" y="10" width="1" height="2" fill="#639248"/>
<rect x="19" y="10" width="1" height="2" fill="#616e46"/>
<rect x="17" y="10" width="1" height="2" fill="#516d43"/>
<rect x="14" y="10" width="1" height="2" fill="#678e4e"/>
<rect x="28" y="10" width="1" height="2" fill="#606947"/>
<rect x="24" y="11" width="2" height="1" fill="#577f44"/>
<rect x="3" y="11" width="1" height="1" fill="#606846"/>
<rect x="20" y="11" width="1" height="1" fill="#639647"/>
<rect x="10" y="11" width="1" height="1" fill="#638a4a"/>
<rect x="0" y="11" width="1" height="1" fill="#638a4a"/>
<rect x="5" y="11" width="1" height="1" fill="#505f42"/>
<rect x="6" y="11" width="1" height="1" fill="#5f8648"/>
<rect x="18" y="11" width="1" height="1" fill="#606947"/>
<rect x="11" y="11" width="2" height="1" fill="#576544"/>
<rect x="15" y="11" width="1" height="1" fill="#5f8648"/>
<rect x="29" y="11" width="2" height="1" fill="#505f42"/>
<rect x="9" y="11" width="1" height="1" fill="#5f8648"/>
<rect x="13" y="11" width="1" height="1" fill="#5d7747"/>
<rect x="22" y="11" width="1" height="2" fill="#505f42"/>
<rect x="31" y="11" width="1" height="2" fill="#606947"/>
<rect x="8" y="11" width="1" height="2" fill="#639248"/>
<rect x="23" y="11" width="1" height="2" fill="#576544"/>
<rect x="20" y="12" width="2" height="1" fill="#639248"/>
<rect x="28" y="12" width="3" height="1" fill="#576544"/>
<rect x="24" y="12" width="1" height="1" fill="#639647"/>
<rect x="4" y="12" width="2" height="1" fill="#505f42"/>
<rect x="3" y="12" width="1" height="1" fill="#657647"/>
<rect x="16" y="12" width="1" height="1" fill="#527e43"/>
<rect x="18" y="12" width="1" height="1" fill="#606846"/>
<rect x="0" y="12" width="1" height="1" fill="#586c45"/>
<rect x="17" y="12" width="1" height="1" fill="#4e7540"/>
<rect x="19" y="12" width="1" height="1" fill="#606947"/>
<rect x="6" y="12" width="1" height="1" fill="#5c8046"/>
<rect x="1" y="12" width="2" height="1" fill="#678e4e"/>
<rect x="9" y="12" width="2" height="2" fill="#5f8648"/>
<rect x="14" y="12" width="1" height="2" fill="#67974c"/>
<rect x="13" y="12" width="1" height="2" fill="#586c45"/>
<rect x="27" y="12" width="1" height="2" fill="#5d7747"/>
<rect x="12" y="12" width="1" height="2" fill="#4f5b42"/>
<rect x="11" y="12" width="1" height="2" fill="#586c45"/>
<rect x="15" y="12" width="1" height="2" fill="#678e4e"/>
<rect x="3" y="13" width="1" height="1" fill="#719759"/>
<rect x="18" y="13" width="2" height="1" fill="#505f42"/>
<rect x="4" y="13" width="1" height="1" fill="#516d43"/>
<rect x="21" y="13" width="1" height="1" fill="#667f47"/>
<rect x="2" y="13" width="1" height="1" fill="#739d59"/>
<rect x="8" y="13" width="1" height="1" fill="#639647"/>
<rect x="20" y="13" width="1" height="1" fill="#5d7747"/>
<rect x="24" y="13" width="1" height="1" fill="#639248"/>
<rect x="1" y="13" width="1" height="1" fill="#678e4e"/>
<rect x="6" y="13" width="1" height="1" fill="#567744"/>
<rect x="22" y="13" width="2" height="1" fill="#576544"/>
<rect x="0" y="13" width="1" height="1" fill="#505f42"/>
<rect x="31" y="13" width="1" height="1" fill="#5d7747"/>
<rect x="29" y="13" width="2" height="1" fill="#678e4e"/>
<rect x="16" y="13" width="2" height="2" fill="#568543"/>
<rect x="28" y="13" width="1" height="2" fill="#4f5b42"/>
<rect x="2" y="14" width="2" height="1" fill="#739d59"/>
<rect x="11" y="14" width="1" height="1" fill="#567744"/>
<rect x="25" y="14" width="1" height="1" fill="#5b8c44"/>
<rect x="18" y="14" width="1" height="1" fill="#4f6442"/>
<rect x="14" y="14" width="2" height="1" fill="#678e4e"/>
<rect x="1" y="14" width="1" height="1" fill="#667f47"/>
<rect x="12" y="14" width="1" height="1" fill="#505f42"/>
<rect x="29" y="14" width="1" height="1" fill="#678e4e"/>
<rect x="0" y="14" width="1" height="1" fill="#4f5b42"/>
<rect x="20" y="14" width="2" height="1" fill="#606846"/>
<rect x="27" y="14" width="1" height="1" fill="#5c8046"/>
<rect x="13" y="14" width="1" height="1" fill="#576544"/>
<rect x="24" y="14" width="1" height="1" fill="#577f44"/>
<rect x="4" y="14" width="1" height="1" fill="#567744"/>
<rect x="6" y="14" width="1" height="1" fill="#4e7540"/>
<rect x="7" y="14" width="2" height="1" fill="#639647"/>
<rect x="9" y="14" width="2" height="1" fill="#577f44"/>
<rect x="5" y="13" width="1" height="3" fill="#4f6442"/>
<rect x="22" y="14" width="2" height="2" fill="#667f47"/>
<rect x="31" y="14" width="1" height="2" fill="#5c8046"/>
<rect x="19" y="14" width="1" height="2" fill="#505f42"/>
<rect x="30" y="14" width="1" height="2" fill="#67974c"/>
<rect x="29" y="15" width="1" height="1" fill="#658f4b"/>
<rect x="9" y="15" width="1" height="1" fill="#568543"/>
<rect x="21" y="15" width="1" height="1" fill="#606947"/>
<rect x="18" y="15" width="1" height="1" fill="#586c45"/>
<rect x="7" y="15" width="1" height="1" fill="#639248"/>
<rect x="24" y="15" width="2" height="1" fill="#527e43"/>
<rect x="3" y="15" width="1" height="1" fill="#739d59"/>
<rect x="14" y="15" width="2" height="1" fill="#5b8c44"/>
<rect x="28" y="15" width="1" height="1" fill="#657647"/>
<rect x="2" y="15" width="1" height="1" fill="#719759"/>
<rect x="1" y="15" width="1" height="1" fill="#5d7747"/>
<rect x="4" y="15" width="1" height="1" fill="#5c8046"/>
<rect x="20" y="15" width="1" height="1" fill="#606846"/>
<rect x="6" y="15" width="1" height="1" fill="#516d43"/>
<rect x="0" y="15" width="1" height="1" fill="#516d43"/>
<rect x="26" y="12" width="1" height="5" fill="#67974c"/>
<rect x="27" y="15" width="1" height="2" fill="#658f4b"/>
<rect x="16" y="15" width="2" height="2" fill="#577f44"/>
<rect x="12" y="15" width="2" height="2" fill="#576544"/>
<rect x="10" y="15" width="2" height="2" fill="#567744"/>
<rect x="22" y="16" width="1" height="1" fill="#616e46"/>
<rect x="5" y="16" width="1" height="1" fill="#616e46"/>
<rect x="30" y="16" width="1" height="1" fill="#639647"/>
<rect x="2" y="16" width="1" height="1" fill="#639248"/>
<rect x="4" y="16" width="1" height="1" fill="#638a4a"/>
<rect x="18" y="16" width="1" height="1" fill="#616e46"/>
<rect x="6" y="16" width="1" height="1" fill="#586c45"/>
<rect x="20" y="16" width="2" height="1" fill="#606947"/>
<rect x="9" y="16" width="1" height="1" fill="#5b8c44"/>
<rect x="23" y="16" width="1" height="1" fill="#657647"/>
<rect x="25" y="16" width="1" height="1" fill="#527e43"/>
<rect x="29" y="16" width="1" height="1" fill="#639248"/>
<rect x="28" y="16" width="1" height="1" fill="#667f47"/>
<rect x="24" y="16" width="1" height="1" fill="#577f44"/>
<rect x="14" y="16" width="1" height="1" fill="#568543"/>
<rect x="7" y="16" width="1" height="1" fill="#658f4b"/>
<rect x="31" y="16" width="1" height="2" fill="#638a4a"/>
<rect x="1" y="16" width="1" height="2" fill="#577f44"/>
<rect x="15" y="16" width="1" height="2" fill="#5b8c44"/>
<rect x="19" y="16" width="1" height="2" fill="#606846"/>
<rect x="0" y="16" width="1" height="2" fill="#527e43"/>
<rect x="12" y="17" width="2" height="1" fill="#5c8046"/>
<rect x="17" y="17" width="1" height="1" fill="#577f44"/>
<rect x="25" y="17" width="1" height="1" fill="#608f47"/>
<rect x="27" y="17" width="1" height="1" fill="#5c8046"/>
<rect x="14" y="17" width="1" height="1" fill="#5f8648"/>
<rect x="20" y="17" width="4" height="1" fill="#606947"/>
<rect x="16" y="17" width="1" height="1" fill="#568543"/>
<rect x="9" y="17" width="1" height="1" fill="#638a4a"/>
<rect x="30" y="17" width="1" height="1" fill="#639248"/>
<rect x="2" y="17" width="1" height="1" fill="#608f47"/>
<rect x="7" y="17" width="1" height="1" fill="#638a4a"/>
<rect x="26" y="17" width="1" height="1" fill="#577f44"/>
<rect x="28" y="17" width="1" height="1" fill="#657647"/>
<rect x="10" y="17" width="1" height="1" fill="#576544"/>
<rect x="29" y="17" width="1" height="1" fill="#638a4a"/>
<rect x="11" y="17" width="1" height="1" fill="#586c45"/>
<rect x="18" y="17" width="1" height="2" fill="#5d7747"/>
<rect x="8" y="17" width="1" height="2" fill="#67974c"/>
<rect x="4" y="17" width="1" height="2" fill="#639248"/>
<rect x="24" y="17" width="1" height="2" fill="#638a4a"/>
<rect x="5" y="17" width="2" height="2" fill="#657647"/>
<rect x="10" y="18" width="2" height="1" fill="#576544"/>
<rect x="12" y="18" width="1" height="1" fill="#5f8648"/>
<rect x="29" y="18" width="1" height="1" fill="#567744"/>
<rect x="16" y="18" width="1" height="1" fill="#5f8648"/>
<rect x="26" y="18" width="1" height="1" fill="#4e7540"/>
<rect x="21" y="18" width="1" height="1" fill="#616e46"/>
<rect x="17" y="18" width="1" height="1" fill="#606947"/>
<rect x="0" y="18" width="2" height="1" fill="#516d43"/>
<rect x="19" y="18" width="1" height="1" fill="#667f47"/>
<rect x="31" y="18" width="1" height="1" fill="#527e43"/>
<rect x="25" y="18" width="1" height="1" fill="#639647"/>
<rect x="27" y="18" width="1" height="1" fill="#516d43"/>
<rect x="22" y="18" width="2" height="1" fill="#606947"/>
<rect x="9" y="18" width="1" height="1" fill="#658f4b"/>
<rect x="30" y="18" width="1" height="1" fill="#577f44"/>
<rect x="2" y="18" width="1" height="1" fill="#5f8648"/>
<rect x="20" y="18" width="1" height="1" fill="#657647"/>
<rect x="28" y="18" width="1" height="1" fill="#606947"/>
<rect x="7" y="18" width="1" height="2" fill="#667f47"/>
<rect x="5" y="19" width="1" height="1" fill="#667f47"/>
<rect x="11" y="19" width="1" height="1" fill="#576544"/>
<rect x="17" y="19" width="1" height="1" fill="#606846"/>
<rect x="27" y="19" width="1" height="1" fill="#567744"/>
<rect x="12" y="19" width="1" height="1" fill="#5c8046"/>
<rect x="18" y="19" width="1" height="1" fill="#657647"/>
<rect x="6" y="19" width="1" height="1" fill="#657647"/>
<rect x="23" y="19" width="1" height="1" fill="#658f4b"/>
<rect x="25" y="19" width="1" height="1" fill="#5c8046"/>
<rect x="0" y="19" width="1" height="1" fill="#586c45"/>
<rect x="8" y="19" width="2" height="1" fill="#67974c"/>
<rect x="29" y="19" width="2" height="1" fill="#567744"/>
<rect x="26" y="19" width="1" height="1" fill="#577f44"/>
<rect x="28" y="19" width="1" height="1" fill="#616e46"/>
<rect x="3" y="19" width="2" height="1" fill="#639647"/>
<rect x="2" y="19" width="1" height="1" fill="#567744"/>
<rect x="16" y="19" width="1" height="1" fill="#638a4a"/>
<rect x="15" y="19" width="1" height="1" fill="#639647"/>
<rect x="21" y="19" width="1" height="2" fill="#667f47"/>
<rect x="10" y="19" width="1" height="2" fill="#586c45"/>
<rect x="20" y="19" width="1" height="2" fill="#658f4b"/>
<rect x="22" y="19" width="1" height="2" fill="#638a4a"/>
<rect x="12" y="20" width="1" height="1" fill="#505f42"/>
<rect x="13" y="20" width="1" height="1" fill="#586c45"/>
<rect x="30" y="20" width="1" height="1" fill="#516d43"/>
<rect x="0" y="20" width="1" height="1" fill="#657647"/>
<rect x="26" y="20" width="1" height="1" fill="#639248"/>
<rect x="8" y="20" width="2" height="1" fill="#658f4b"/>
<rect x="15" y="20" width="2" height="1" fill="#667f47"/>
<rect x="3" y="20" width="1" height="1" fill="#639248"/>
<rect x="2" y="20" width="1" height="1" fill="#586c45"/>
<rect x="11" y="20" width="1" height="1" fill="#4f5b42"/>
<rect x="14" y="20" width="1" height="1" fill="#5d7747"/>
<rect x="5" y="20" width="1" height="1" fill="#638a4a"/>
<rect x="24" y="19" width="1" height="3" fill="#5d7747"/>
<rect x="1" y="19" width="1" height="3" fill="#505f42"/>
<rect x="31" y="19" width="1" height="3" fill="#4e7540"/>
<rect x="27" y="20" width="1" height="2" fill="#67974c"/>
<rect x="28" y="20" width="1" height="2" fill="#739d59"/>
<rect x="23" y="20" width="1" height="2" fill="#67974c"/>
<rect x="25" y="20" width="1" height="2" fill="#576544"/>
<rect x="29" y="20" width="1" height="2" fill="#5d7747"/>
<rect x="6" y="20" width="2" height="2" fill="#667f47"/>
<rect x="15" y="21" width="2" height="1" fill="#616e46"/>
<rect x="22" y="21" width="1" height="1" fill="#5f8648"/>
<rect x="3" y="21" width="1" height="1" fill="#5f8648"/>
<rect x="5" y="21" width="1" height="1" fill="#608f47"/>
<rect x="30" y="21" width="1" height="1" fill="#505f42"/>
<rect x="19" y="21" width="1" height="1" fill="#639248"/>
<rect x="4" y="21" width="1" height="1" fill="#639248"/>
<rect x="0" y="21" width="1" height="1" fill="#708f5c"/>
<rect x="21" y="21" width="1" height="1" fill="#5c8046"/>
<rect x="14" y="21" width="1" height="1" fill="#505f42"/>
<rect x="9" y="21" width="1" height="1" fill="#658f4b"/>
<rect x="20" y="21" width="1" height="1" fill="#608f47"/>
<rect x="26" y="21" width="1" height="1" fill="#608f47"/>
<rect x="8" y="21" width="1" height="1" fill="#638a4a"/>
<rect x="11" y="21" width="3" height="1" fill="#4f5b42"/>
<rect x="2" y="21" width="1" height="1" fill="#576544"/>
<rect x="17" y="20" width="1" height="3" fill="#606947"/>
<rect x="18" y="20" width="1" height="3" fill="#616e46"/>
<rect x="10" y="21" width="1" height="2" fill="#5d7747"/>
<rect x="15" y="22" width="2" height="1" fill="#657647"/>
<rect x="21" y="22" width="1" height="1" fill="#577f44"/>
<rect x="13" y="22" width="2" height="1" fill="#576544"/>
<rect x="3" y="22" width="1" height="1" fill="#567744"/>
<rect x="28" y="22" width="2" height="1" fill="#616e46"/>
<rect x="24" y="22" width="1" height="1" fill="#568543"/>
<rect x="22" y="22" width="1" height="1" fill="#568543"/>
<rect x="11" y="22" width="2" height="1" fill="#586c45"/>
<rect x="31" y="22" width="1" height="1" fill="#527e43"/>
<rect x="8" y="22" width="2" height="1" fill="#586c45"/>
<rect x="0" y="22" width="1" height="1" fill="#678e4e"/>
<rect x="1" y="22" width="2" height="1" fill="#505f42"/>
<rect x="30" y="22" width="1" height="1" fill="#586c45"/>
<rect x="19" y="22" width="2" height="1" fill="#608f47"/>
<rect x="4" y="22" width="4" height="2" fill="#5c8046"/>
<rect x="26" y="22" width="2" height="2" fill="#608f47"/>
<rect x="25" y="22" width="1" height="2" fill="#4e7540"/>
<rect x="3" y="23" width="1" height="1" fill="#586c45"/>
<rect x="29" y="23" width="1" height="1" fill="#616e46"/>
<rect x="8" y="23" width="1" height="1" fill="#586c45"/>
<rect x="11" y="23" width="1" height="1" fill="#639647"/>
<rect x="0" y="23" width="1" height="1" fill="#639248"/>
<rect x="10" y="23" width="1" height="1" fill="#4f6442"/>
<rect x="15" y="23" width="2" height="1" fill="#678e4e"/>
<rect x="1" y="23" width="1" height="1" fill="#606947"/>
<rect x="21" y="23" width="1" height="1" fill="#567744"/>
<rect x="14" y="23" width="1" height="1" fill="#719759"/>
<rect x="31" y="23" width="1" height="1" fill="#639647"/>
<rect x="17" y="23" width="1" height="1" fill="#5c8046"/>
<rect x="18" y="23" width="1" height="1" fill="#567744"/>
<rect x="28" y="23" width="1" height="1" fill="#4f5b42"/>
<rect x="24" y="23" width="1" height="1" fill="#5b8c44"/>
<rect x="19" y="23" width="2" height="1" fill="#639248"/>
<rect x="22" y="23" width="1" height="1" fill="#577f44"/>
<rect x="2" y="23" width="1" height="1" fill="#505f42"/>
<rect x="13" y="23" width="1" height="2" fill="#67974c"/>
<rect x="9" y="23" width="1" height="2" fill="#4f5b42"/>
<rect x="30" y="23" width="1" height="2" fill="#667f47"/>
<rect x="2" y="24" width="1" height="1" fill="#5c8046"/>
<rect x="21" y="24" width="1" height="1" fill="#4f6442"/>
<rect x="4" y="24" width="2" height="1" fill="#567744"/>
<rect x="1" y="24" width="1" height="1" fill="#708f5c"/>
<rect x="23" y="24" width="2" height="1" fill="#639647"/>
<rect x="25" y="24" width="1" height="1" fill="#608f47"/>
<rect x="8" y="24" width="1" height="1" fill="#567744"/>
<rect x="26" y="24" width="1" height="1" fill="#568543"/>
<rect x="15" y="24" width="1" height="1" fill="#67974c"/>
<rect x="27" y="24" width="2" height="1" fill="#577f44"/>
<rect x="7" y="24" width="1" height="1" fill="#5f8648"/>
<rect x="3" y="24" width="1" height="1" fill="#5d7747"/>
<rect x="17" y="24" width="1" height="1" fill="#568543"/>
<rect x="10" y="24" width="1" height="1" fill="#505f42"/>
<rect x="6" y="24" width="1" height="1" fill="#5c8046"/>
<rect x="18" y="24" width="1" height="1" fill="#527e43"/>
<rect x="11" y="24" width="1" height="1" fill="#608f47"/>
<rect x="31" y="24" width="1" height="1" fill="#639248"/>
<rect x="14" y="24" width="1" height="1" fill="#739d59"/>
<rect x="22" y="24" width="1" height="2" fill="#576544"/>
<rect x="16" y="24" width="1" height="2" fill="#678e4e"/>
<rect x="29" y="24" width="1" height="2" fill="#5d7747"/>
<rect x="20" y="24" width="1" height="2" fill="#67974c"/>
<rect x="0" y="24" width="1" height="2" fill="#639647"/>
<rect x="17" y="25" width="1" height="1" fill="#5b8c44"/>
<rect x="14" y="25" width="1" height="1" fill="#639248"/>
<rect x="6" y="25" width="1" height="1" fill="#5d7747"/>
<rect x="7" y="25" width="1" height="1" fill="#639647"/>
<rect x="21" y="25" width="1" height="1" fill="#586c45"/>
<rect x="1" y="25" width="1" height="1" fill="#719759"/>
<rect x="5" y="25" width="1" height="1" fill="#576544"/>
<rect x="9" y="25" width="2" height="1" fill="#5c8046"/>
<rect x="15" y="25" width="1" height="1" fill="#658f4b"/>
<rect x="4" y="25" width="1" height="1" fill="#586c45"/>
<rect x="2" y="25" width="2" height="1" fill="#678e4e"/>
<rect x="8" y="25" width="1" height="1" fill="#639248"/>
<rect x="23" y="25" width="1" height="1" fill="#639647"/>
<rect x="18" y="25" width="1" height="1" fill="#568543"/>
<rect x="31" y="25" width="1" height="2" fill="#608f47"/>
<rect x="11" y="25" width="1" height="2" fill="#639248"/>
<rect x="30" y="25" width="1" height="2" fill="#586c45"/>
<rect x="29" y="26" width="1" height="1" fill="#567744"/>
<rect x="1" y="26" width="1" height="1" fill="#67974c"/>
<rect x="9" y="26" width="2" height="1" fill="#5f8648"/>
<rect x="4" y="26" width="1" height="1" fill="#5d7747"/>
<rect x="5" y="26" width="1" height="1" fill="#505f42"/>
<rect x="28" y="26" width="1" height="1" fill="#639248"/>
<rect x="6" y="26" width="1" height="1" fill="#586c45"/>
<rect x="24" y="26" width="1" height="1" fill="#5d7747"/>
<rect x="21" y="26" width="1" height="1" fill="#678e4e"/>
<rect x="23" y="26" width="1" height="1" fill="#586c45"/>
<rect x="22" y="26" width="1" height="1" fill="#638a4a"/>
<rect x="14" y="26" width="2" height="1" fill="#608f47"/>
<rect x="7" y="26" width="2" height="1" fill="#639647"/>
<rect x="17" y="26" width="2" height="1" fill="#608f47"/>
<rect x="3" y="26" width="1" height="1" fill="#67974c"/>
<rect x="19" y="24" width="1" height="4" fill="#639248"/>
<rect x="27" y="25" width="1" height="3" fill="#527e43"/>
<rect x="26" y="25" width="1" height="3" fill="#577f44"/>
<rect x="13" y="26" width="1" height="2" fill="#639248"/>
<rect x="16" y="26" width="1" height="2" fill="#5f8648"/>
<rect x="0" y="26" width="1" height="2" fill="#527e43"/>
<rect x="17" y="27" width="1" height="1" fill="#638a4a"/>
<rect x="7" y="27" width="2" height="1" fill="#5d7747"/>
<rect x="18" y="27" width="1" height="1" fill="#5b8c44"/>
<rect x="22" y="27" width="1" height="1" fill="#678e4e"/>
<rect x="29" y="27" width="2" height="1" fill="#577f44"/>
<rect x="9" y="27" width="2" height="1" fill="#5c8046"/>
<rect x="28" y="27" width="1" height="1" fill="#5b8c44"/>
<rect x="4" y="27" width="1" height="1" fill="#5f8648"/>
<rect x="5" y="27" width="2" height="1" fill="#616e46"/>
<rect x="14" y="27" width="2" height="1" fill="#5b8c44"/>
<rect x="11" y="27" width="1" height="1" fill="#638a4a"/>
<rect x="1" y="27" width="1" height="1" fill="#568543"/>
<rect x="3" y="27" width="1" height="1" fill="#5b8c44"/>
<rect x="23" y="27" width="1" height="1" fill="#505f42"/>
<rect x="24" y="27" width="1" height="1" fill="#586c45"/>
<rect x="12" y="25" width="1" height="4" fill="#67974c"/>
<rect x="2" y="26" width="1" height="3" fill="#678e4e"/>
<rect x="21" y="27" width="1" height="2" fill="#67974c"/>
<rect x="11" y="28" width="1" height="1" fill="#5f8648"/>
<rect x="16" y="28" width="1" height="1" fill="#657647"/>
<rect x="7" y="28" width="1" height="1" fill="#576544"/>
<rect x="13" y="28" width="1" height="1" fill="#658f4b"/>
<rect x="25" y="28" width="1" height="1" fill="#667f47"/>
<rect x="29" y="28" width="1" height="1" fill="#5c8046"/>
<rect x="14" y="28" width="2" height="1" fill="#516d43"/>
<rect x="27" y="28" width="1" height="1" fill="#568543"/>
<rect x="1" y="28" width="1" height="1" fill="#527e43"/>
<rect x="5" y="28" width="2" height="1" fill="#657647"/>
<rect x="30" y="28" width="1" height="1" fill="#577f44"/>
<rect x="28" y="28" width="1" height="1" fill="#5f8648"/>
<rect x="17" y="28" width="1" height="1" fill="#5d7747"/>
<rect x="31" y="28" width="1" height="1" fill="#639248"/>
<rect x="0" y="28" width="1" height="1" fill="#4e7540"/>
<rect x="23" y="28" width="1" height="2" fill="#516d43"/>
<rect x="20" y="28" width="1" height="2" fill="#678e4e"/>
<rect x="3" y="28" width="2" height="2" fill="#5b8c44"/>
<rect x="10" y="28" width="1" height="2" fill="#577f44"/>
<rect x="8" y="28" width="1" height="2" fill="#505f42"/>
<rect x="19" y="28" width="1" height="2" fill="#5b8c44"/>
<rect x="24" y="28" width="1" height="2" fill="#4f6442"/>
<rect x="18" y="28" width="1" height="2" fill="#568543"/>
<rect x="16" y="29" width="1" height="1" fill="#616e46"/>
<rect x="15" y="29" width="1" height="1" fill="#516d43"/>
<rect x="5" y="29" width="1" height="1" fill="#657647"/>
<rect x="17" y="29" width="1" height="1" fill="#657647"/>
<rect x="11" y="29" width="1" height="1" fill="#5c8046"/>
<rect x="22" y="29" width="1" height="1" fill="#639647"/>
<rect x="25" y="29" width="1" height="1" fill="#606846"/>
<rect x="6" y="29" width="1" height="1" fill="#616e46"/>
<rect x="27" y="29" width="1" height="1" fill="#639647"/>
<rect x="2" y="29" width="1" height="1" fill="#638a4a"/>
<rect x="29" y="29" width="2" height="1" fill="#5f8648"/>
<rect x="12" y="29" width="2" height="1" fill="#67974c"/>
<rect x="28" y="29" width="1" height="1" fill="#667f47"/>
<rect x="14" y="29" width="1" height="1" fill="#4e7540"/>
<rect x="7" y="29" width="1" height="1" fill="#586c45"/>
<rect x="21" y="29" width="1" height="1" fill="#639248"/>
<rect x="9" y="28" width="1" height="3" fill="#586c45"/>
<rect x="26" y="28" width="1" height="3" fill="#5f8648"/>
<rect x="0" y="29" width="2" height="2" fill="#4e7540"/>
<rect x="31" y="29" width="1" height="2" fill="#527e43"/>
<rect x="14" y="30" width="2" height="1" fill="#567744"/>
<rect x="27" y="30" width="1" height="1" fill="#608f47"/>
<rect x="18" y="30" width="2" height="1" fill="#527e43"/>
<rect x="13" y="30" width="1" height="1" fill="#577f44"/>
<rect x="20" y="30" width="2" height="1" fill="#577f44"/>
<rect x="10" y="30" width="1" height="1" fill="#639248"/>
<rect x="30" y="30" width="1" height="1" fill="#5c8046"/>
<rect x="25" y="30" width="1" height="1" fill="#667f47"/>
<rect x="22" y="30" width="1" height="1" fill="#527e43"/>
<rect x="8" y="30" width="1" height="1" fill="#576544"/>
<rect x="28" y="30" width="1" height="1" fill="#638a4a"/>
<rect x="3" y="30" width="1" height="1" fill="#639248"/>
<rect x="5" y="30" width="1" height="1" fill="#5d7747"/>
<rect x="23" y="30" width="2" height="1" fill="#577f44"/>
<rect x="2" y="30" width="1" height="1" fill="#567744"/>
<rect x="6" y="30" width="2" height="1" fill="#606846"/>
<rect x="16" y="30" width="1" height="2" fill="#586c45"/>
<rect x="12" y="30" width="1" height="2" fill="#5c8046"/>
<rect x="17" y="30" width="1" height="2" fill="#576544"/>
<rect x="4" y="30" width="1" height="2" fill="#639647"/>
<rect x="11" y="30" width="1" height="2" fill="#67974c"/>
<rect x="29" y="30" width="1" height="2" fill="#667f47"/>
<rect x="27" y="31" width="1" height="1" fill="#577f44"/>
<rect x="30" y="31" width="1" height="1" fill="#606947"/>
<rect x="2" y="31" width="1" height="1" fill="#4e7540"/>
<rect x="14" y="31" width="1" height="1" fill="#577f44"/>
<rect x="20" y="31" width="3" height="1" fill="#4e7540"/>
<rect x="5" y="31" width="1" height="1" fill="#5f8648"/>
<rect x="3" y="31" width="1" height="1" fill="#678e4e"/>
<rect x="23" y="31" width="1" height="1" fill="#5b8c44"/>
<rect x="10" y="31" width="1" height="1" fill="#658f4b"/>
<rect x="13" y="31" width="1" height="1" fill="#567744"/>
<rect x="31" y="31" width="1" height="1" fill="#4e7540"/>
<rect x="6" y="31" width="1" height="1" fill="#606947"/>
<rect x="1" y="31" width="1" height="1" fill="#527e43"/>
<rect x="26" y="31" width="1" height="1" fill="#5b8c44"/>
<rect x="15" y="31" width="1" height="1" fill="#567744"/>
<rect x="18" y="31" width="2" height="1" fill="#567744"/>
<rect x="7" y="31" width="1" height="1" fill="#606846"/>
<rect x="8" y="31" width="2" height="1" fill="#576544"/>
<rect x="0" y="31" width="1" height="1" fill="#568543"/>
</svg>