<?xml version="1.0" encoding="UTF-8"?>
<svg xmlns="http://www.w3.org/2000/svg" width="20mm" height="20mm" viewBox="0 0 32 32" shape-rendering="crispEdges">
<title>102 正面 structured semantic redraw</title>
<metadata>registered 32-unit semantic vector redraw; no embedded raster; physical-size=20mm</metadata>
<rect x="0" y="0" width="32" height="32" fill="#cd8144"/>
<rect x="14" y="0" width="3" height="1" fill="#ce8d4c"/>
<rect x="28" y="0" width="3" height="1" fill="#dba279"/>
<rect x="31" y="0" width="1" height="1" fill="#d29153"/>
<rect x="12" y="0" width="1" height="1" fill="#ce8345"/>
<rect x="13" y="0" width="1" height="1" fill="#cd894a"/>
<rect x="17" y="0" width="11" height="1" fill="#d29153"/>
<rect x="4" y="0" width="1" height="2" fill="#ce8345"/>
<rect x="0" y="0" width="1" height="2" fill="#ce8d4c"/>
<rect x="1" y="0" width="3" height="2" fill="#cd894a"/>
<rect x="25" y="1" width="3" height="1" fill="#ce8345"/>
<rect x="29" y="1" width="3" height="1" fill="#d29153"/>
<rect x="6" y="1" width="3" height="1" fill="#cc8144"/>
<rect x="28" y="1" width="1" height="1" fill="#ce8d4c"/>
<rect x="13" y="1" width="4" height="1" fill="#cd894a"/>
<rect x="17" y="1" width="8" height="1" fill="#ce8d4c"/>
<rect x="5" y="0" width="1" height="3" fill="#cd8044"/>
<rect x="17" y="2" width="5" height="1" fill="#ce8d4c"/>
<rect x="0" y="2" width="5" height="1" fill="#ce8345"/>
<rect x="22" y="2" width="3" height="1" fill="#cd894a"/>
<rect x="16" y="2" width="1" height="1" fill="#cd894a"/>
<rect x="6" y="2" width="2" height="1" fill="#cc8144"/>
<rect x="13" y="2" width="1" height="1" fill="#cd894a"/>
<rect x="14" y="2" width="2" height="1" fill="#ce8d4c"/>
<rect x="11" y="3" width="1" height="1" fill="#cd8044"/>
<rect x="3" y="3" width="1" height="1" fill="#cc8144"/>
<rect x="21" y="3" width="4" height="1" fill="#cd894a"/>
<rect x="9" y="3" width="1" height="1" fill="#cd8044"/>
<rect x="19" y="3" width="2" height="1" fill="#ce8d4c"/>
<rect x="13" y="3" width="1" height="1" fill="#cc8144"/>
<rect x="14" y="3" width="3" height="1" fill="#ce8345"/>
<rect x="6" y="3" width="2" height="1" fill="#cd8044"/>
<rect x="17" y="3" width="2" height="1" fill="#cd894a"/>
<rect x="1" y="4" width="2" height="1" fill="#cc8144"/>
<rect x="15" y="4" width="1" height="1" fill="#cd8044"/>
<rect x="12" y="5" width="1" height="1" fill="#cc8144"/>
<rect x="13" y="5" width="1" height="1" fill="#cd8044"/>
<rect x="17" y="4" width="1" height="3" fill="#ca8443"/>
<rect x="21" y="4" width="1" height="3" fill="#ca8443"/>
<rect x="18" y="4" width="3" height="3" fill="#c58642"/>
<rect x="13" y="6" width="2" height="1" fill="#cd8044"/>
<rect x="29" y="2" width="3" height="6" fill="#ce8d4c"/>
<rect x="28" y="2" width="1" height="6" fill="#ce8345"/>
<rect x="27" y="7" width="1" height="1" fill="#cd8143"/>
<rect x="22" y="7" width="2" height="1" fill="#ce8345"/>
<rect x="18" y="7" width="1" height="1" fill="#d29153"/>
<rect x="17" y="7" width="1" height="1" fill="#cd894a"/>
<rect x="19" y="7" width="2" height="1" fill="#ce8d4c"/>
<rect x="21" y="7" width="1" height="1" fill="#cd894a"/>
<rect x="11" y="7" width="3" height="1" fill="#ca8443"/>
<rect x="5" y="7" width="6" height="1" fill="#c58642"/>
<rect x="24" y="7" width="1" height="1" fill="#cc8144"/>
<rect x="17" y="8" width="1" height="1" fill="#c99d6c"/>
<rect x="29" y="8" width="3" height="1" fill="#ce8345"/>
<rect x="14" y="9" width="1" height="1" fill="#cd8044"/>
<rect x="16" y="9" width="1" height="1" fill="#cc8144"/>
<rect x="0" y="3" width="1" height="8" fill="#ce8345"/>
<rect x="5" y="8" width="8" height="3" fill="#c58642"/>
<rect x="13" y="8" width="1" height="3" fill="#ca8443"/>
<rect x="17" y="9" width="1" height="2" fill="#d29153"/>
<rect x="4" y="7" width="1" height="5" fill="#ca8443"/>
<rect x="25" y="8" width="1" height="4" fill="#c99d6c"/>
<rect x="26" y="8" width="3" height="4" fill="#ce8d4c"/>
<rect x="18" y="8" width="3" height="4" fill="#d3bda3"/>
<rect x="21" y="8" width="1" height="4" fill="#d1b99f"/>
<rect x="22" y="8" width="3" height="4" fill="#c8b294"/>
<rect x="17" y="11" width="1" height="1" fill="#c99d6c"/>
<rect x="11" y="11" width="6" height="1" fill="#d29153"/>
<rect x="3" y="11" width="1" height="1" fill="#ce8345"/>
<rect x="10" y="11" width="1" height="1" fill="#c99d6c"/>
<rect x="9" y="11" width="1" height="1" fill="#d29153"/>
<rect x="0" y="11" width="3" height="1" fill="#cd894a"/>
<rect x="1" y="12" width="2" height="1" fill="#cd894a"/>
<rect x="16" y="12" width="2" height="1" fill="#d8c5ad"/>
<rect x="18" y="12" width="2" height="1" fill="#d8c6ae"/>
<rect x="24" y="12" width="1" height="1" fill="#d6c5ad"/>
<rect x="3" y="12" width="1" height="1" fill="#ce8d4c"/>
<rect x="14" y="12" width="2" height="1" fill="#d8c6af"/>
<rect x="20" y="12" width="3" height="1" fill="#d6c5ad"/>
<rect x="26" y="12" width="3" height="1" fill="#d1b99f"/>
<rect x="29" y="12" width="1" height="1" fill="#cd894a"/>
<rect x="23" y="12" width="1" height="1" fill="#d7c3ab"/>
<rect x="25" y="12" width="1" height="1" fill="#d6c1a7"/>
<rect x="13" y="12" width="1" height="1" fill="#d6c1a7"/>
<rect x="10" y="12" width="3" height="1" fill="#d3bda3"/>
<rect x="5" y="11" width="4" height="3" fill="#c58642"/>
<rect x="0" y="12" width="1" height="2" fill="#ce8d4c"/>
<rect x="23" y="13" width="1" height="1" fill="#d8c6af"/>
<rect x="14" y="13" width="1" height="1" fill="#d8c6af"/>
<rect x="19" y="13" width="1" height="1" fill="#d8c6ae"/>
<rect x="24" y="13" width="1" height="1" fill="#d8c6ae"/>
<rect x="1" y="13" width="1" height="1" fill="#cd894a"/>
<rect x="20" y="13" width="3" height="1" fill="#d7c6af"/>
<rect x="25" y="13" width="1" height="1" fill="#d8c5ad"/>
<rect x="2" y="13" width="2" height="1" fill="#ce8d4c"/>
<rect x="26" y="13" width="3" height="1" fill="#d8c3a8"/>
<rect x="15" y="13" width="3" height="1" fill="#d8c6ae"/>
<rect x="9" y="12" width="1" height="3" fill="#c8b294"/>
<rect x="18" y="13" width="1" height="2" fill="#d8c6af"/>
<rect x="26" y="14" width="1" height="1" fill="#d7c3a8"/>
<rect x="27" y="14" width="1" height="1" fill="#d8c3a8"/>
<rect x="5" y="14" width="2" height="1" fill="#c58642"/>
<rect x="20" y="14" width="5" height="1" fill="#d8c6ae"/>
<rect x="28" y="14" width="1" height="1" fill="#d9c4a8"/>
<rect x="7" y="14" width="1" height="1" fill="#c68743"/>
<rect x="31" y="9" width="1" height="7" fill="#cc8144"/>
<rect x="4" y="12" width="1" height="4" fill="#cd894a"/>
<rect x="10" y="13" width="4" height="3" fill="#d3bda3"/>
<rect x="29" y="13" width="1" height="3" fill="#d29153"/>
<rect x="25" y="14" width="1" height="2" fill="#d7c3ab"/>
<rect x="19" y="14" width="1" height="2" fill="#d8c5ad"/>
<rect x="14" y="14" width="4" height="2" fill="#d8c6ae"/>
<rect x="0" y="14" width="4" height="2" fill="#ce8d4c"/>
<rect x="8" y="14" width="1" height="2" fill="#c58642"/>
<rect x="9" y="15" width="1" height="1" fill="#dba279"/>
<rect x="23" y="15" width="1" height="1" fill="#d8c5ad"/>
<rect x="26" y="15" width="2" height="1" fill="#d8c3a7"/>
<rect x="30" y="15" width="1" height="1" fill="#cd8044"/>
<rect x="28" y="15" width="1" height="1" fill="#d8c3a8"/>
<rect x="24" y="15" width="1" height="1" fill="#d8c6ae"/>
<rect x="20" y="15" width="3" height="1" fill="#d8c6ae"/>
<rect x="5" y="15" width="3" height="1" fill="#c68743"/>
<rect x="18" y="15" width="1" height="1" fill="#d7c6af"/>
<rect x="4" y="16" width="1" height="1" fill="#d1b99f"/>
<rect x="14" y="16" width="3" height="1" fill="#d8c7b3"/>
<rect x="22" y="16" width="3" height="1" fill="#586c3f"/>
<rect x="18" y="16" width="3" height="1" fill="#d8c3a8"/>
<rect x="17" y="16" width="1" height="1" fill="#d8c6af"/>
<rect x="25" y="16" width="1" height="1" fill="#a19367"/>
<rect x="29" y="16" width="1" height="1" fill="#d1b99f"/>
<rect x="21" y="16" width="1" height="2" fill="#d1b99f"/>
<rect x="4" y="17" width="1" height="1" fill="#d3bda3"/>
<rect x="20" y="17" width="1" height="1" fill="#d8c3a7"/>
<rect x="19" y="17" width="1" height="1" fill="#d7c3a8"/>
<rect x="29" y="17" width="1" height="1" fill="#d6c5ad"/>
<rect x="29" y="18" width="1" height="1" fill="#d7c6af"/>
<rect x="9" y="16" width="1" height="4" fill="#a19367"/>
<rect x="30" y="16" width="2" height="4" fill="#c8b294"/>
<rect x="10" y="16" width="4" height="4" fill="#586c3f"/>
<rect x="26" y="16" width="3" height="4" fill="#dfddda"/>
<rect x="22" y="17" width="4" height="3" fill="#586c3f"/>
<rect x="4" y="18" width="1" height="2" fill="#d1b99f"/>
<rect x="21" y="18" width="1" height="2" fill="#d3bda3"/>
<rect x="29" y="19" width="1" height="1" fill="#d8c7b3"/>
<rect x="5" y="16" width="4" height="5" fill="#dfddda"/>
<rect x="0" y="16" width="4" height="5" fill="#c8b294"/>
<rect x="19" y="18" width="2" height="3" fill="#d8c3a7"/>
<rect x="4" y="20" width="1" height="1" fill="#d3bda3"/>
<rect x="9" y="20" width="1" height="1" fill="#c8b294"/>
<rect x="29" y="20" width="1" height="1" fill="#d7c6af"/>
<rect x="22" y="20" width="4" height="1" fill="#c8b294"/>
<rect x="30" y="20" width="2" height="1" fill="#d7c3ab"/>
<rect x="21" y="20" width="1" height="1" fill="#d7c3a7"/>
<rect x="10" y="20" width="4" height="1" fill="#a19367"/>
<rect x="26" y="20" width="3" height="1" fill="#d8c7b3"/>
<rect x="22" y="21" width="1" height="1" fill="#d8c3a6"/>
<rect x="1" y="21" width="2" height="1" fill="#d8c3a8"/>
<rect x="5" y="21" width="4" height="1" fill="#d8c5ad"/>
<rect x="19" y="21" width="3" height="1" fill="#d8c3a7"/>
<rect x="23" y="21" width="1" height="1" fill="#d8c3a7"/>
<rect x="24" y="21" width="1" height="1" fill="#d7c3a7"/>
<rect x="25" y="21" width="1" height="1" fill="#d8c3a7"/>
<rect x="26" y="21" width="1" height="1" fill="#d8c5ad"/>
<rect x="9" y="21" width="5" height="1" fill="#d8c6af"/>
<rect x="29" y="21" width="1" height="1" fill="#d8c5ad"/>
<rect x="27" y="21" width="2" height="1" fill="#d8c6ae"/>
<rect x="30" y="21" width="1" height="1" fill="#d8c6ae"/>
<rect x="3" y="21" width="1" height="1" fill="#d8c3a7"/>
<rect x="4" y="21" width="1" height="2" fill="#d8c3a8"/>
<rect x="29" y="22" width="1" height="1" fill="#d8c6ae"/>
<rect x="30" y="22" width="1" height="1" fill="#d8c5ad"/>
<rect x="9" y="22" width="1" height="1" fill="#d7c6af"/>
<rect x="10" y="22" width="4" height="1" fill="#d8c6ae"/>
<rect x="3" y="22" width="1" height="1" fill="#d7c3a8"/>
<rect x="5" y="22" width="1" height="1" fill="#d8c6ae"/>
<rect x="8" y="22" width="1" height="1" fill="#d8c6ae"/>
<rect x="25" y="22" width="1" height="1" fill="#d7c3a7"/>
<rect x="21" y="22" width="1" height="1" fill="#d8c3a6"/>
<rect x="26" y="22" width="2" height="1" fill="#d8c6ae"/>
<rect x="6" y="22" width="2" height="1" fill="#d8c6af"/>
<rect x="19" y="22" width="2" height="1" fill="#d8c3a7"/>
<rect x="28" y="22" width="1" height="1" fill="#d8c5ad"/>
<rect x="22" y="22" width="3" height="1" fill="#d8c3a7"/>
<rect x="18" y="17" width="1" height="7" fill="#d8c3a8"/>
<rect x="14" y="17" width="4" height="7" fill="#d8c7b3"/>
<rect x="0" y="21" width="1" height="3" fill="#d9c4a8"/>
<rect x="31" y="21" width="1" height="3" fill="#d6c5ad"/>
<rect x="1" y="22" width="1" height="2" fill="#d8c3a8"/>
<rect x="2" y="22" width="1" height="2" fill="#d8c3a7"/>
<rect x="11" y="23" width="2" height="1" fill="#d8c6ae"/>
<rect x="10" y="23" width="1" height="1" fill="#d7c6af"/>
<rect x="22" y="23" width="1" height="1" fill="#d8c3a6"/>
<rect x="19" y="23" width="3" height="1" fill="#d8c3a7"/>
<rect x="30" y="23" width="1" height="1" fill="#d8c6af"/>
<rect x="23" y="23" width="3" height="1" fill="#d8c3a7"/>
<rect x="26" y="23" width="4" height="1" fill="#d8c6ae"/>
<rect x="9" y="23" width="1" height="1" fill="#d8c5ad"/>
<rect x="3" y="23" width="2" height="1" fill="#d8c3a8"/>
<rect x="5" y="23" width="4" height="1" fill="#d8c6ae"/>
<rect x="13" y="23" width="1" height="2" fill="#d8c5ad"/>
<rect x="17" y="24" width="1" height="1" fill="#d7c3ab"/>
<rect x="19" y="24" width="3" height="1" fill="#d3bda3"/>
<rect x="1" y="24" width="3" height="1" fill="#d8c3a7"/>
<rect x="26" y="24" width="1" height="1" fill="#d8c6ae"/>
<rect x="18" y="24" width="1" height="1" fill="#d6c1a7"/>
<rect x="14" y="24" width="1" height="1" fill="#d8c6af"/>
<rect x="15" y="24" width="2" height="1" fill="#d7c6af"/>
<rect x="27" y="24" width="2" height="1" fill="#d8c6af"/>
<rect x="22" y="24" width="1" height="1" fill="#d8c3a8"/>
<rect x="7" y="24" width="6" height="1" fill="#d8c6ae"/>
<rect x="0" y="24" width="1" height="1" fill="#d8c3a8"/>
<rect x="23" y="24" width="3" height="1" fill="#d7c3ab"/>
<rect x="4" y="24" width="1" height="1" fill="#d8c3a8"/>
<rect x="6" y="24" width="1" height="2" fill="#d7c6af"/>
<rect x="5" y="24" width="1" height="2" fill="#d8c6ae"/>
<rect x="30" y="24" width="2" height="2" fill="#d8c3a8"/>
<rect x="24" y="25" width="2" height="1" fill="#d8c6ae"/>
<rect x="3" y="25" width="2" height="1" fill="#d8c3a8"/>
<rect x="10" y="25" width="3" height="1" fill="#d8c3a8"/>
<rect x="0" y="25" width="2" height="1" fill="#d7c3a8"/>
<rect x="7" y="25" width="1" height="1" fill="#d8c6ae"/>
<rect x="2" y="25" width="1" height="1" fill="#d8c3a7"/>
<rect x="8" y="25" width="1" height="1" fill="#d7c6af"/>
<rect x="26" y="25" width="3" height="1" fill="#d8c6af"/>
<rect x="23" y="25" width="1" height="2" fill="#d7c6af"/>
<rect x="1" y="26" width="3" height="1" fill="#d8c3a7"/>
<rect x="8" y="26" width="1" height="1" fill="#d8c6ae"/>
<rect x="10" y="26" width="1" height="1" fill="#d7c3a7"/>
<rect x="5" y="26" width="1" height="1" fill="#d7c6af"/>
<rect x="0" y="26" width="1" height="1" fill="#d7c3a8"/>
<rect x="24" y="26" width="3" height="1" fill="#d8c6ae"/>
<rect x="6" y="26" width="2" height="1" fill="#d8c6af"/>
<rect x="29" y="24" width="1" height="4" fill="#d8c5ad"/>
<rect x="13" y="25" width="1" height="3" fill="#d8c3a7"/>
<rect x="11" y="26" width="2" height="2" fill="#d8c3a8"/>
<rect x="4" y="26" width="1" height="2" fill="#d8c3a8"/>
<rect x="27" y="26" width="1" height="2" fill="#d7c6af"/>
<rect x="30" y="26" width="1" height="2" fill="#d9c4a8"/>
<rect x="28" y="26" width="1" height="2" fill="#d8c6af"/>
<rect x="23" y="27" width="2" height="1" fill="#d8c6af"/>
<rect x="2" y="27" width="2" height="1" fill="#d8c3a7"/>
<rect x="1" y="27" width="1" height="1" fill="#d8c3a8"/>
<rect x="8" y="27" width="1" height="1" fill="#d7c6af"/>
<rect x="10" y="27" width="1" height="1" fill="#d7c3a8"/>
<rect x="25" y="27" width="1" height="1" fill="#d7c6af"/>
<rect x="6" y="27" width="1" height="1" fill="#d7c6af"/>
<rect x="26" y="27" width="1" height="1" fill="#d8c6ae"/>
<rect x="14" y="25" width="8" height="4" fill="#d4a99d"/>
<rect x="22" y="25" width="1" height="4" fill="#d6c1a7"/>
<rect x="9" y="25" width="1" height="4" fill="#d8c5ad"/>
<rect x="31" y="26" width="1" height="3" fill="#d8c3a8"/>
<rect x="7" y="27" width="1" height="2" fill="#d8c6ae"/>
<rect x="8" y="28" width="1" height="1" fill="#d8c6af"/>
<rect x="11" y="28" width="1" height="1" fill="#d7c3a8"/>
<rect x="23" y="28" width="3" height="1" fill="#d8c5ad"/>
<rect x="29" y="28" width="2" height="1" fill="#d9c4a8"/>
<rect x="10" y="28" width="1" height="1" fill="#d8c3a8"/>
<rect x="12" y="28" width="2" height="1" fill="#d8c3a8"/>
<rect x="26" y="28" width="3" height="1" fill="#d7c3ab"/>
<rect x="4" y="28" width="1" height="1" fill="#d7c3a8"/>
<rect x="5" y="27" width="1" height="3" fill="#d8c6ae"/>
<rect x="1" y="28" width="3" height="2" fill="#d8c3a7"/>
<rect x="6" y="28" width="1" height="2" fill="#d8c6af"/>
<rect x="14" y="29" width="4" height="1" fill="#d3bda3"/>
<rect x="24" y="29" width="4" height="1" fill="#d8c3a8"/>
<rect x="18" y="29" width="3" height="1" fill="#d6c1a7"/>
<rect x="10" y="29" width="4" height="1" fill="#d8c3a8"/>
<rect x="21" y="29" width="3" height="1" fill="#d8c3a7"/>
<rect x="7" y="29" width="3" height="1" fill="#d8c5ad"/>
<rect x="4" y="29" width="1" height="1" fill="#d8c3a8"/>
<rect x="28" y="29" width="4" height="2" fill="#d9c4a8"/>
<rect x="11" y="30" width="13" height="1" fill="#d8c3a8"/>
<rect x="6" y="30" width="1" height="1" fill="#d8c3a8"/>
<rect x="9" y="30" width="1" height="1" fill="#d7c3a8"/>
<rect x="8" y="30" width="1" height="1" fill="#d7c3a7"/>
<rect x="25" y="30" width="3" height="1" fill="#d8c3a8"/>
<rect x="1" y="30" width="2" height="1" fill="#d8c3a7"/>
<rect x="24" y="30" width="1" height="1" fill="#d9c4a8"/>
<rect x="3" y="30" width="2" height="1" fill="#d8c3a8"/>
<rect x="5" y="30" width="1" height="1" fill="#d9c4a8"/>
<rect x="7" y="30" width="1" height="1" fill="#d7c3a8"/>
<rect x="0" y="27" width="1" height="5" fill="#d6c1a7"/>
<rect x="10" y="30" width="1" height="2" fill="#d9c4a8"/>
<rect x="15" y="31" width="5" height="1" fill="#d9c4a8"/>
<rect x="2" y="31" width="2" height="1" fill="#d8c3a8"/>
<rect x="7" y="31" width="1" height="1" fill="#d8c3a8"/>
<rect x="20" y="31" width="7" height="1" fill="#d8c3a8"/>
<rect x="11" y="31" width="4" height="1" fill="#d8c3a8"/>
<rect x="1" y="31" width="1" height="1" fill="#d7c3a8"/>
<rect x="9" y="31" width="1" height="1" fill="#d8c3a8"/>
<rect x="8" y="31" width="1" height="1" fill="#d9c4a8"/>
<rect x="27" y="31" width="5" height="1" fill="#d9c4a8"/>
<rect x="4" y="31" width="1" height="1" fill="#d7c3a8"/>
<rect x="5" y="31" width="2" height="1" fill="#d9c4a8"/>
</svg>