<?xml version="1.0" encoding="UTF-8"?>
<svg xmlns="http://www.w3.org/2000/svg" width="20mm" height="20mm" viewBox="0 0 32 32" shape-rendering="crispEdges">
<title>130 右侧面 structured semantic redraw</title>
<metadata>registered 32-unit semantic vector redraw; no embedded raster; physical-size=20mm</metadata>
<rect x="0" y="0" width="32" height="32" fill="#4e5d41"/>
<rect x="21" y="0" width="4" height="1" fill="#c78e8d"/>
<rect x="0" y="0" width="11" height="1" fill="#f2aaaa"/>
<rect x="27" y="0" width="1" height="1" fill="#c28a87"/>
<rect x="18" y="0" width="3" height="1" fill="#d89a98"/>
<rect x="28" y="0" width="1" height="1" fill="#c28887"/>
<rect x="26" y="0" width="1" height="1" fill="#c28887"/>
<rect x="25" y="0" width="1" height="1" fill="#c28a87"/>
<rect x="29" y="0" width="3" height="1" fill="#c28787"/>
<rect x="11" y="0" width="7" height="1" fill="#dfa09d"/>
<rect x="25" y="1" width="1" height="1" fill="#c28887"/>
<rect x="29" y="1" width="1" height="1" fill="#c28787"/>
<rect x="17" y="1" width="4" height="1" fill="#c78e8d"/>
<rect x="0" y="1" width="1" height="1" fill="#dfa09d"/>
<rect x="15" y="1" width="2" height="1" fill="#d89a98"/>
<rect x="27" y="1" width="2" height="1" fill="#c28887"/>
<rect x="13" y="1" width="2" height="1" fill="#dfa09d"/>
<rect x="30" y="1" width="1" height="1" fill="#c28887"/>
<rect x="31" y="1" width="1" height="1" fill="#c28787"/>
<rect x="1" y="1" width="12" height="1" fill="#f2aaaa"/>
<rect x="21" y="1" width="4" height="1" fill="#c28c8b"/>
<rect x="26" y="1" width="1" height="1" fill="#c28a87"/>
<rect x="24" y="2" width="1" height="1" fill="#c18b89"/>
<rect x="12" y="2" width="2" height="1" fill="#d89a98"/>
<rect x="2" y="2" width="7" height="1" fill="#f2aaaa"/>
<rect x="28" y="2" width="1" height="1" fill="#c28787"/>
<rect x="1" y="2" width="1" height="1" fill="#dfa09d"/>
<rect x="9" y="2" width="3" height="1" fill="#dfa09d"/>
<rect x="16" y="2" width="1" height="1" fill="#c28787"/>
<rect x="17" y="2" width="7" height="1" fill="#c28c8b"/>
<rect x="0" y="2" width="1" height="1" fill="#d89a98"/>
<rect x="15" y="2" width="1" height="1" fill="#c28887"/>
<rect x="14" y="2" width="1" height="1" fill="#c78e8d"/>
<rect x="25" y="2" width="3" height="1" fill="#c28887"/>
<rect x="8" y="3" width="2" height="1" fill="#d89a98"/>
<rect x="23" y="3" width="1" height="1" fill="#c18b89"/>
<rect x="10" y="3" width="3" height="1" fill="#c78e8d"/>
<rect x="13" y="3" width="1" height="1" fill="#c28c8b"/>
<rect x="4" y="3" width="3" height="1" fill="#f2aaaa"/>
<rect x="3" y="3" width="1" height="1" fill="#dfa09d"/>
<rect x="0" y="3" width="1" height="1" fill="#c78e8d"/>
<rect x="18" y="3" width="5" height="1" fill="#c28c8b"/>
<rect x="15" y="3" width="2" height="1" fill="#c28585"/>
<rect x="14" y="3" width="1" height="1" fill="#c28787"/>
<rect x="27" y="3" width="1" height="1" fill="#c28787"/>
<rect x="7" y="3" width="1" height="1" fill="#dfa09d"/>
<rect x="24" y="3" width="3" height="1" fill="#c28887"/>
<rect x="1" y="3" width="2" height="1" fill="#d89a98"/>
<rect x="17" y="3" width="1" height="2" fill="#c18b89"/>
<rect x="14" y="4" width="1" height="1" fill="#c28585"/>
<rect x="21" y="4" width="3" height="1" fill="#c28585"/>
<rect x="8" y="4" width="6" height="1" fill="#c28c8b"/>
<rect x="27" y="4" width="1" height="1" fill="#c28887"/>
<rect x="15" y="4" width="1" height="1" fill="#c28787"/>
<rect x="18" y="4" width="1" height="1" fill="#c28c8b"/>
<rect x="19" y="4" width="1" height="1" fill="#c18b89"/>
<rect x="24" y="4" width="3" height="1" fill="#c28787"/>
<rect x="5" y="4" width="3" height="1" fill="#c78e8d"/>
<rect x="16" y="4" width="1" height="1" fill="#c28585"/>
<rect x="0" y="4" width="5" height="2" fill="#d89a98"/>
<rect x="13" y="5" width="1" height="1" fill="#c28887"/>
<rect x="17" y="5" width="1" height="1" fill="#be8584"/>
<rect x="25" y="5" width="3" height="1" fill="#c28887"/>
<rect x="16" y="5" width="1" height="1" fill="#b87574"/>
<rect x="14" y="5" width="1" height="1" fill="#bb7e7c"/>
<rect x="21" y="5" width="1" height="1" fill="#c28585"/>
<rect x="5" y="5" width="7" height="1" fill="#c28c8b"/>
<rect x="15" y="5" width="1" height="1" fill="#b97978"/>
<rect x="12" y="5" width="1" height="1" fill="#c18b89"/>
<rect x="23" y="5" width="1" height="1" fill="#c28585"/>
<rect x="22" y="5" width="1" height="1" fill="#c28787"/>
<rect x="29" y="2" width="3" height="5" fill="#c28283"/>
<rect x="28" y="3" width="1" height="4" fill="#c28585"/>
<rect x="24" y="5" width="1" height="2" fill="#c28787"/>
<rect x="25" y="6" width="1" height="1" fill="#c28887"/>
<rect x="6" y="6" width="2" height="1" fill="#c28c8b"/>
<rect x="26" y="6" width="2" height="1" fill="#c28787"/>
<rect x="5" y="6" width="1" height="1" fill="#c18b89"/>
<rect x="8" y="6" width="1" height="1" fill="#c18b89"/>
<rect x="21" y="6" width="3" height="1" fill="#c28585"/>
<rect x="12" y="6" width="2" height="1" fill="#b97978"/>
<rect x="11" y="6" width="1" height="1" fill="#bb7e7c"/>
<rect x="9" y="6" width="2" height="1" fill="#be8584"/>
<rect x="20" y="4" width="1" height="4" fill="#c28887"/>
<rect x="18" y="5" width="2" height="3" fill="#c28a87"/>
<rect x="17" y="6" width="1" height="2" fill="#c28887"/>
<rect x="10" y="7" width="4" height="1" fill="#b97978"/>
<rect x="22" y="7" width="2" height="1" fill="#c08081"/>
<rect x="5" y="7" width="3" height="1" fill="#be8584"/>
<rect x="24" y="7" width="8" height="1" fill="#c28283"/>
<rect x="21" y="7" width="1" height="1" fill="#c28585"/>
<rect x="8" y="7" width="2" height="1" fill="#bb7e7c"/>
<rect x="14" y="6" width="3" height="3" fill="#b87574"/>
<rect x="19" y="8" width="5" height="1" fill="#b97978"/>
<rect x="6" y="8" width="1" height="1" fill="#be8584"/>
<rect x="17" y="8" width="1" height="1" fill="#c28283"/>
<rect x="8" y="8" width="3" height="1" fill="#bb7e7c"/>
<rect x="11" y="8" width="3" height="1" fill="#b97978"/>
<rect x="7" y="8" width="1" height="1" fill="#c08081"/>
<rect x="5" y="8" width="1" height="1" fill="#c08081"/>
<rect x="18" y="8" width="1" height="1" fill="#bb7e7c"/>
<rect x="4" y="6" width="1" height="4" fill="#c78e8d"/>
<rect x="25" y="8" width="7" height="2" fill="#c28283"/>
<rect x="12" y="9" width="1" height="1" fill="#b87574"/>
<rect x="10" y="9" width="2" height="1" fill="#b97978"/>
<rect x="7" y="9" width="3" height="1" fill="#bb7e7c"/>
<rect x="14" y="9" width="3" height="1" fill="#bb7e7c"/>
<rect x="0" y="6" width="4" height="5" fill="#d89a98"/>
<rect x="24" y="8" width="1" height="3" fill="#c08081"/>
<rect x="5" y="9" width="2" height="2" fill="#be8584"/>
<rect x="21" y="9" width="3" height="2" fill="#b97978"/>
<rect x="8" y="10" width="5" height="1" fill="#a97576"/>
<rect x="4" y="10" width="1" height="1" fill="#c28c8b"/>
<rect x="31" y="10" width="1" height="1" fill="#c28585"/>
<rect x="7" y="10" width="1" height="1" fill="#bb7e7c"/>
<rect x="25" y="10" width="6" height="1" fill="#c28283"/>
<rect x="13" y="9" width="1" height="3" fill="#b97978"/>
<rect x="17" y="9" width="4" height="3" fill="#b87574"/>
<rect x="27" y="11" width="4" height="1" fill="#c28887"/>
<rect x="4" y="11" width="1" height="1" fill="#c78e8d"/>
<rect x="1" y="11" width="3" height="1" fill="#d89a98"/>
<rect x="23" y="11" width="1" height="1" fill="#bb7e7c"/>
<rect x="26" y="11" width="1" height="1" fill="#c28787"/>
<rect x="25" y="11" width="1" height="1" fill="#c28585"/>
<rect x="5" y="11" width="2" height="1" fill="#c28c8b"/>
<rect x="21" y="11" width="2" height="1" fill="#b97978"/>
<rect x="24" y="11" width="1" height="1" fill="#c28283"/>
<rect x="0" y="11" width="1" height="1" fill="#c18b89"/>
<rect x="14" y="10" width="2" height="3" fill="#c08081"/>
<rect x="31" y="11" width="1" height="2" fill="#c28a87"/>
<rect x="7" y="11" width="6" height="2" fill="#a97576"/>
<rect x="22" y="12" width="2" height="1" fill="#c28787"/>
<rect x="19" y="12" width="1" height="1" fill="#bb7e7c"/>
<rect x="24" y="12" width="1" height="1" fill="#c28887"/>
<rect x="0" y="12" width="1" height="1" fill="#453834"/>
<rect x="13" y="12" width="1" height="1" fill="#bb7e7c"/>
<rect x="17" y="12" width="2" height="1" fill="#b97978"/>
<rect x="20" y="12" width="1" height="1" fill="#be8584"/>
<rect x="30" y="12" width="1" height="1" fill="#c28887"/>
<rect x="2" y="12" width="2" height="1" fill="#d89a98"/>
<rect x="21" y="12" width="1" height="1" fill="#c28585"/>
<rect x="1" y="12" width="1" height="1" fill="#9b7874"/>
<rect x="25" y="12" width="5" height="1" fill="#c28a87"/>
<rect x="4" y="12" width="3" height="2" fill="#c28c8b"/>
<rect x="13" y="13" width="3" height="1" fill="#b97978"/>
<rect x="10" y="13" width="1" height="1" fill="#a97576"/>
<rect x="20" y="13" width="1" height="1" fill="#c28787"/>
<rect x="3" y="13" width="1" height="1" fill="#d89a98"/>
<rect x="2" y="13" width="1" height="1" fill="#7b6558"/>
<rect x="0" y="13" width="2" height="1" fill="#453834"/>
<rect x="7" y="13" width="2" height="1" fill="#a97576"/>
<rect x="18" y="13" width="2" height="1" fill="#c28585"/>
<rect x="9" y="13" width="1" height="1" fill="#9b7874"/>
<rect x="21" y="13" width="2" height="1" fill="#c28887"/>
<rect x="17" y="13" width="1" height="1" fill="#c28787"/>
<rect x="11" y="13" width="2" height="1" fill="#a46766"/>
<rect x="16" y="10" width="1" height="5" fill="#bb7e7c"/>
<rect x="23" y="13" width="1" height="2" fill="#c28787"/>
<rect x="24" y="13" width="8" height="2" fill="#c28a87"/>
<rect x="7" y="14" width="1" height="1" fill="#7b6558"/>
<rect x="6" y="14" width="1" height="1" fill="#a97576"/>
<rect x="8" y="14" width="2" height="1" fill="#695149"/>
<rect x="4" y="14" width="2" height="1" fill="#be8584"/>
<rect x="13" y="14" width="1" height="1" fill="#b87574"/>
<rect x="20" y="14" width="2" height="1" fill="#c28787"/>
<rect x="0" y="14" width="3" height="1" fill="#453834"/>
<rect x="3" y="14" width="1" height="1" fill="#695149"/>
<rect x="14" y="14" width="2" height="1" fill="#b97978"/>
<rect x="17" y="14" width="2" height="1" fill="#c28787"/>
<rect x="19" y="14" width="1" height="1" fill="#c28585"/>
<rect x="22" y="14" width="1" height="1" fill="#c28887"/>
<rect x="22" y="15" width="2" height="1" fill="#c28787"/>
<rect x="20" y="15" width="1" height="1" fill="#c28787"/>
<rect x="16" y="15" width="1" height="1" fill="#c08081"/>
<rect x="6" y="15" width="1" height="1" fill="#9b7874"/>
<rect x="0" y="15" width="4" height="1" fill="#453834"/>
<rect x="18" y="15" width="2" height="1" fill="#c28585"/>
<rect x="27" y="15" width="1" height="1" fill="#c28787"/>
<rect x="28" y="15" width="4" height="1" fill="#c28585"/>
<rect x="24" y="15" width="3" height="1" fill="#c28887"/>
<rect x="17" y="15" width="1" height="1" fill="#c28787"/>
<rect x="7" y="15" width="3" height="1" fill="#695149"/>
<rect x="21" y="15" width="1" height="1" fill="#c28887"/>
<rect x="10" y="14" width="3" height="3" fill="#a46766"/>
<rect x="13" y="15" width="3" height="2" fill="#b97978"/>
<rect x="6" y="16" width="1" height="1" fill="#a46766"/>
<rect x="0" y="16" width="1" height="1" fill="#4b5f3c"/>
<rect x="1" y="16" width="3" height="1" fill="#453834"/>
<rect x="20" y="16" width="1" height="1" fill="#b97978"/>
<rect x="16" y="16" width="1" height="1" fill="#bb7e7c"/>
<rect x="9" y="16" width="1" height="1" fill="#7b6558"/>
<rect x="18" y="16" width="2" height="1" fill="#9b7874"/>
<rect x="17" y="16" width="1" height="1" fill="#b97978"/>
<rect x="21" y="16" width="3" height="1" fill="#b87574"/>
<rect x="7" y="16" width="2" height="1" fill="#695149"/>
<rect x="4" y="15" width="2" height="3" fill="#a97576"/>
<rect x="15" y="17" width="1" height="1" fill="#516641"/>
<rect x="14" y="17" width="1" height="1" fill="#5a7246"/>
<rect x="6" y="17" width="1" height="1" fill="#7b6558"/>
<rect x="3" y="17" width="1" height="1" fill="#695149"/>
<rect x="18" y="17" width="1" height="1" fill="#4b5f3c"/>
<rect x="10" y="17" width="4" height="1" fill="#7b6558"/>
<rect x="2" y="17" width="1" height="1" fill="#453834"/>
<rect x="7" y="17" width="3" height="1" fill="#695149"/>
<rect x="24" y="16" width="5" height="3" fill="#c08081"/>
<rect x="31" y="16" width="1" height="3" fill="#c28585"/>
<rect x="29" y="16" width="2" height="3" fill="#c28283"/>
<rect x="0" y="17" width="2" height="2" fill="#516641"/>
<rect x="4" y="18" width="1" height="1" fill="#695149"/>
<rect x="5" y="18" width="1" height="1" fill="#516641"/>
<rect x="10" y="18" width="1" height="1" fill="#485c3a"/>
<rect x="3" y="18" width="1" height="1" fill="#5a7246"/>
<rect x="9" y="18" width="1" height="1" fill="#4b5f3c"/>
<rect x="23" y="17" width="1" height="3" fill="#b87574"/>
<rect x="20" y="17" width="3" height="3" fill="#a46766"/>
<rect x="9" y="19" width="1" height="1" fill="#485c3a"/>
<rect x="31" y="19" width="1" height="1" fill="#c28283"/>
<rect x="28" y="19" width="2" height="1" fill="#c28283"/>
<rect x="4" y="19" width="4" height="1" fill="#485c3a"/>
<rect x="24" y="19" width="4" height="1" fill="#c08081"/>
<rect x="30" y="19" width="1" height="1" fill="#c08081"/>
<rect x="0" y="19" width="1" height="1" fill="#5a7246"/>
<rect x="19" y="19" width="1" height="1" fill="#516641"/>
<rect x="1" y="19" width="1" height="1" fill="#516641"/>
<rect x="2" y="18" width="1" height="3" fill="#4b5f3c"/>
<rect x="3" y="19" width="1" height="2" fill="#516641"/>
<rect x="0" y="20" width="1" height="1" fill="#9b7874"/>
<rect x="24" y="20" width="2" height="1" fill="#9b7874"/>
<rect x="6" y="20" width="1" height="1" fill="#4b5f3c"/>
<rect x="20" y="20" width="4" height="1" fill="#a46766"/>
<rect x="4" y="20" width="2" height="1" fill="#485c3a"/>
<rect x="19" y="20" width="1" height="1" fill="#695149"/>
<rect x="26" y="20" width="2" height="1" fill="#7b6558"/>
<rect x="1" y="20" width="1" height="1" fill="#5a7246"/>
<rect x="4" y="21" width="1" height="1" fill="#485c3a"/>
<rect x="10" y="21" width="3" height="1" fill="#6b795d"/>
<rect x="2" y="21" width="1" height="1" fill="#5a7246"/>
<rect x="13" y="21" width="3" height="1" fill="#848d7c"/>
<rect x="1" y="21" width="1" height="1" fill="#9b7874"/>
<rect x="9" y="21" width="1" height="1" fill="#5a7246"/>
<rect x="24" y="21" width="4" height="2" fill="#516641"/>
<rect x="0" y="21" width="1" height="2" fill="#a97576"/>
<rect x="1" y="22" width="2" height="1" fill="#9b7874"/>
<rect x="3" y="22" width="1" height="1" fill="#848d7c"/>
<rect x="4" y="22" width="2" height="1" fill="#92908f"/>
<rect x="13" y="22" width="2" height="1" fill="#9b9b9b"/>
<rect x="12" y="22" width="1" height="1" fill="#959793"/>
<rect x="15" y="22" width="1" height="1" fill="#919291"/>
<rect x="16" y="21" width="4" height="3" fill="#5a7246"/>
<rect x="10" y="22" width="2" height="2" fill="#919291"/>
<rect x="6" y="22" width="3" height="2" fill="#695149"/>
<rect x="9" y="22" width="1" height="2" fill="#92908f"/>
<rect x="15" y="23" width="1" height="1" fill="#92908f"/>
<rect x="1" y="23" width="1" height="1" fill="#a97576"/>
<rect x="2" y="23" width="1" height="1" fill="#9b7874"/>
<rect x="0" y="23" width="1" height="1" fill="#9b7874"/>
<rect x="28" y="20" width="4" height="5" fill="#a46766"/>
<rect x="12" y="23" width="3" height="2" fill="#9b9b9b"/>
<rect x="23" y="23" width="4" height="2" fill="#516641"/>
<rect x="27" y="23" width="1" height="2" fill="#5a7246"/>
<rect x="5" y="23" width="1" height="2" fill="#92908f"/>
<rect x="15" y="24" width="1" height="1" fill="#848d7c"/>
<rect x="1" y="24" width="2" height="1" fill="#9b7874"/>
<rect x="0" y="24" width="1" height="1" fill="#4b5f3c"/>
<rect x="19" y="24" width="1" height="1" fill="#516641"/>
<rect x="20" y="24" width="2" height="1" fill="#4b5f3c"/>
<rect x="16" y="24" width="3" height="1" fill="#5a7246"/>
<rect x="3" y="23" width="2" height="3" fill="#9b9b9b"/>
<rect x="8" y="24" width="1" height="2" fill="#7b6558"/>
<rect x="9" y="24" width="3" height="2" fill="#919291"/>
<rect x="6" y="24" width="2" height="2" fill="#695149"/>
<rect x="17" y="25" width="2" height="1" fill="#848d7c"/>
<rect x="5" y="25" width="1" height="1" fill="#848d7c"/>
<rect x="0" y="25" width="1" height="1" fill="#485c3a"/>
<rect x="23" y="25" width="1" height="1" fill="#6b795d"/>
<rect x="15" y="25" width="1" height="1" fill="#92908f"/>
<rect x="22" y="25" width="1" height="1" fill="#848d7c"/>
<rect x="2" y="25" width="1" height="1" fill="#9b7874"/>
<rect x="13" y="25" width="2" height="1" fill="#9b9b9b"/>
<rect x="16" y="25" width="1" height="1" fill="#6b795d"/>
<rect x="19" y="25" width="3" height="1" fill="#6b795d"/>
<rect x="12" y="25" width="1" height="1" fill="#959793"/>
<rect x="1" y="25" width="1" height="1" fill="#4b5f3c"/>
<rect x="3" y="26" width="2" height="1" fill="#919291"/>
<rect x="23" y="26" width="1" height="1" fill="#848d7c"/>
<rect x="5" y="26" width="4" height="1" fill="#848d7c"/>
<rect x="2" y="26" width="1" height="2" fill="#6b795d"/>
<rect x="19" y="26" width="1" height="2" fill="#9b9b9b"/>
<rect x="4" y="27" width="1" height="1" fill="#919291"/>
<rect x="3" y="27" width="1" height="1" fill="#92908f"/>
<rect x="8" y="27" width="1" height="2" fill="#92908f"/>
<rect x="24" y="25" width="4" height="5" fill="#5a7246"/>
<rect x="12" y="26" width="3" height="4" fill="#919291"/>
<rect x="16" y="26" width="3" height="4" fill="#a5a5a4"/>
<rect x="0" y="26" width="2" height="4" fill="#485c3a"/>
<rect x="9" y="26" width="3" height="4" fill="#9b9b9b"/>
<rect x="20" y="26" width="3" height="4" fill="#919291"/>
<rect x="15" y="26" width="1" height="4" fill="#9b9b9b"/>
<rect x="5" y="27" width="3" height="3" fill="#848d7c"/>
<rect x="23" y="27" width="1" height="3" fill="#6b795d"/>
<rect x="3" y="28" width="2" height="2" fill="#919291"/>
<rect x="2" y="28" width="1" height="2" fill="#848d7c"/>
<rect x="19" y="28" width="1" height="2" fill="#959793"/>
<rect x="28" y="29" width="2" height="1" fill="#485c3a"/>
<rect x="8" y="29" width="1" height="1" fill="#959793"/>
<rect x="30" y="29" width="1" height="1" fill="#4b5f3c"/>
<rect x="31" y="30" width="1" height="1" fill="#919291"/>
<rect x="2" y="30" width="10" height="1" fill="#848d7c"/>
<rect x="28" y="30" width="3" height="1" fill="#92908f"/>
<rect x="23" y="30" width="1" height="1" fill="#9b9b9b"/>
<rect x="24" y="30" width="4" height="1" fill="#919291"/>
<rect x="12" y="30" width="7" height="1" fill="#9b9b9b"/>
<rect x="19" y="30" width="4" height="1" fill="#a5a5a4"/>
<rect x="1" y="30" width="1" height="1" fill="#4b5f3c"/>
<rect x="0" y="30" width="1" height="2" fill="#485c3a"/>
<rect x="2" y="31" width="7" height="1" fill="#848d7c"/>
<rect x="15" y="31" width="4" height="1" fill="#9b9b9b"/>
<rect x="19" y="31" width="5" height="1" fill="#a5a5a4"/>
<rect x="11" y="31" width="1" height="1" fill="#848d7c"/>
<rect x="25" y="31" width="4" height="1" fill="#a5a5a4"/>
<rect x="29" y="31" width="1" height="1" fill="#9b9b9b"/>
<rect x="12" y="31" width="3" height="1" fill="#a5a5a4"/>
<rect x="30" y="31" width="2" height="1" fill="#a5a5a4"/>
<rect x="24" y="31" width="1" height="1" fill="#9b9b9b"/>
<rect x="1" y="31" width="1" height="1" fill="#516641"/>
<rect x="9" y="31" width="2" height="1" fill="#6b795d"/>
</svg>