<?xml version="1.0" encoding="UTF-8"?>
<svg xmlns="http://www.w3.org/2000/svg" width="20mm" height="20mm" viewBox="0 0 32 32" shape-rendering="crispEdges">
<title>134 顶面 structured semantic redraw</title>
<metadata>registered 32-unit semantic vector redraw; no embedded raster; physical-size=20mm</metadata>
<rect x="0" y="0" width="32" height="32" fill="#4e4e4e"/>
<rect x="28" y="0" width="1" height="1" fill="#4c4c4c"/>
<rect x="20" y="0" width="4" height="1" fill="#4f4f4f"/>
<rect x="4" y="0" width="3" height="1" fill="#4f4f4f"/>
<rect x="18" y="0" width="1" height="1" fill="#4f4f4f"/>
<rect x="0" y="0" width="1" height="1" fill="#525151"/>
<rect x="29" y="0" width="1" height="1" fill="#565655"/>
<rect x="26" y="0" width="2" height="1" fill="#505050"/>
<rect x="30" y="0" width="1" height="1" fill="#434343"/>
<rect x="1" y="0" width="1" height="1" fill="#4f4f4f"/>
<rect x="24" y="0" width="1" height="1" fill="#505050"/>
<rect x="25" y="0" width="1" height="1" fill="#4f4f4f"/>
<rect x="31" y="0" width="1" height="2" fill="#3b3b3b"/>
<rect x="2" y="1" width="1" height="1" fill="#4d4d4d"/>
<rect x="5" y="1" width="1" height="1" fill="#505050"/>
<rect x="30" y="1" width="1" height="1" fill="#494848"/>
<rect x="11" y="1" width="1" height="1" fill="#4f4f4f"/>
<rect x="28" y="1" width="1" height="1" fill="#4d4d4d"/>
<rect x="21" y="1" width="7" height="1" fill="#4f4f4f"/>
<rect x="6" y="1" width="1" height="1" fill="#4f4f4f"/>
<rect x="0" y="1" width="1" height="1" fill="#4d4d4d"/>
<rect x="3" y="1" width="2" height="1" fill="#4f4f4f"/>
<rect x="29" y="1" width="1" height="1" fill="#525151"/>
<rect x="19" y="1" width="1" height="1" fill="#4f4f4f"/>
<rect x="11" y="2" width="3" height="1" fill="#4f4f4f"/>
<rect x="7" y="2" width="1" height="1" fill="#4f4f4f"/>
<rect x="29" y="2" width="1" height="1" fill="#4d4d4d"/>
<rect x="30" y="2" width="1" height="1" fill="#515050"/>
<rect x="24" y="2" width="5" height="1" fill="#4f4f4f"/>
<rect x="3" y="2" width="1" height="1" fill="#4f4f4f"/>
<rect x="22" y="2" width="1" height="1" fill="#4f4f4f"/>
<rect x="9" y="2" width="1" height="1" fill="#4f4f4f"/>
<rect x="4" y="2" width="3" height="1" fill="#505050"/>
<rect x="31" y="2" width="1" height="2" fill="#3a3a3a"/>
<rect x="30" y="3" width="1" height="1" fill="#565655"/>
<rect x="5" y="3" width="2" height="1" fill="#505050"/>
<rect x="19" y="3" width="1" height="1" fill="#4d4d4d"/>
<rect x="25" y="3" width="3" height="1" fill="#4f4f4f"/>
<rect x="3" y="3" width="2" height="1" fill="#4f4f4f"/>
<rect x="16" y="3" width="1" height="1" fill="#4d4d4d"/>
<rect x="29" y="3" width="1" height="1" fill="#4b4b4b"/>
<rect x="13" y="3" width="1" height="1" fill="#4f4f4f"/>
<rect x="7" y="3" width="2" height="1" fill="#4f4f4f"/>
<rect x="28" y="3" width="1" height="2" fill="#505050"/>
<rect x="4" y="4" width="1" height="1" fill="#4f4f4f"/>
<rect x="5" y="4" width="3" height="1" fill="#505050"/>
<rect x="30" y="4" width="1" height="1" fill="#5c5a5a"/>
<rect x="17" y="4" width="3" height="1" fill="#4d4d4d"/>
<rect x="14" y="4" width="2" height="1" fill="#4d4d4d"/>
<rect x="31" y="4" width="1" height="1" fill="#3b3b3b"/>
<rect x="29" y="4" width="1" height="1" fill="#494949"/>
<rect x="21" y="4" width="3" height="1" fill="#4d4d4d"/>
<rect x="5" y="5" width="2" height="1" fill="#505050"/>
<rect x="2" y="5" width="2" height="1" fill="#4f4f4f"/>
<rect x="7" y="5" width="1" height="1" fill="#4f4f4f"/>
<rect x="16" y="5" width="6" height="1" fill="#4d4d4d"/>
<rect x="25" y="5" width="4" height="1" fill="#4f4f4f"/>
<rect x="12" y="5" width="1" height="1" fill="#4f4f4f"/>
<rect x="23" y="5" width="2" height="2" fill="#4d4d4d"/>
<rect x="31" y="5" width="1" height="2" fill="#3a3a3a"/>
<rect x="30" y="5" width="1" height="2" fill="#5d5b5b"/>
<rect x="26" y="6" width="1" height="1" fill="#4f4f4f"/>
<rect x="17" y="6" width="5" height="1" fill="#4d4d4d"/>
<rect x="12" y="6" width="2" height="1" fill="#4f4f4f"/>
<rect x="28" y="6" width="1" height="1" fill="#4f4f4f"/>
<rect x="3" y="6" width="2" height="1" fill="#4f4f4f"/>
<rect x="9" y="6" width="1" height="1" fill="#4f4f4f"/>
<rect x="5" y="6" width="4" height="1" fill="#505050"/>
<rect x="29" y="5" width="1" height="3" fill="#4a4a4a"/>
<rect x="0" y="6" width="1" height="2" fill="#4f4f4f"/>
<rect x="22" y="7" width="6" height="1" fill="#4d4d4d"/>
<rect x="8" y="7" width="3" height="1" fill="#4f4f4f"/>
<rect x="18" y="7" width="3" height="1" fill="#4d4d4d"/>
<rect x="5" y="7" width="3" height="1" fill="#505050"/>
<rect x="2" y="7" width="3" height="1" fill="#4f4f4f"/>
<rect x="30" y="7" width="1" height="1" fill="#5c5a5a"/>
<rect x="13" y="7" width="1" height="1" fill="#4f4f4f"/>
<rect x="31" y="7" width="1" height="1" fill="#3b3b3b"/>
<rect x="14" y="8" width="4" height="1" fill="#4f4f4f"/>
<rect x="30" y="8" width="1" height="1" fill="#565655"/>
<rect x="19" y="8" width="7" height="1" fill="#4d4d4d"/>
<rect x="3" y="8" width="2" height="1" fill="#4f4f4f"/>
<rect x="5" y="8" width="4" height="1" fill="#505050"/>
<rect x="31" y="8" width="1" height="1" fill="#434343"/>
<rect x="29" y="8" width="1" height="2" fill="#4c4c4c"/>
<rect x="4" y="9" width="1" height="1" fill="#4f4f4f"/>
<rect x="5" y="9" width="3" height="1" fill="#505050"/>
<rect x="30" y="9" width="1" height="1" fill="#545353"/>
<rect x="23" y="9" width="5" height="1" fill="#4d4d4d"/>
<rect x="19" y="9" width="3" height="1" fill="#4d4d4d"/>
<rect x="31" y="9" width="1" height="1" fill="#484848"/>
<rect x="15" y="9" width="2" height="1" fill="#4f4f4f"/>
<rect x="19" y="10" width="9" height="1" fill="#4d4d4d"/>
<rect x="5" y="10" width="1" height="1" fill="#4f4f4f"/>
<rect x="29" y="10" width="2" height="1" fill="#4d4d4d"/>
<rect x="31" y="10" width="1" height="1" fill="#504f4e"/>
<rect x="6" y="10" width="2" height="1" fill="#505050"/>
<rect x="8" y="9" width="1" height="3" fill="#4f4f4f"/>
<rect x="2" y="11" width="1" height="1" fill="#4d4d4d"/>
<rect x="21" y="11" width="5" height="1" fill="#4d4d4d"/>
<rect x="30" y="11" width="1" height="1" fill="#4a4a4a"/>
<rect x="31" y="11" width="1" height="1" fill="#565655"/>
<rect x="19" y="11" width="1" height="1" fill="#4d4d4d"/>
<rect x="5" y="11" width="2" height="1" fill="#4f4f4f"/>
<rect x="27" y="11" width="1" height="1" fill="#4d4d4d"/>
<rect x="31" y="12" width="1" height="1" fill="#5a5958"/>
<rect x="5" y="12" width="1" height="1" fill="#4f4f4f"/>
<rect x="0" y="12" width="4" height="1" fill="#4d4d4d"/>
<rect x="7" y="12" width="1" height="1" fill="#4d4d4d"/>
<rect x="20" y="12" width="4" height="1" fill="#4d4d4d"/>
<rect x="30" y="12" width="1" height="2" fill="#494949"/>
<rect x="23" y="13" width="2" height="1" fill="#4d4d4d"/>
<rect x="0" y="13" width="5" height="1" fill="#4d4d4d"/>
<rect x="7" y="13" width="3" height="1" fill="#4d4d4d"/>
<rect x="20" y="13" width="1" height="1" fill="#4d4d4d"/>
<rect x="26" y="13" width="1" height="1" fill="#4d4d4d"/>
<rect x="13" y="13" width="1" height="1" fill="#4f4f4f"/>
<rect x="11" y="13" width="1" height="2" fill="#4d4d4d"/>
<rect x="22" y="14" width="6" height="1" fill="#4d4d4d"/>
<rect x="30" y="14" width="1" height="1" fill="#4a4a4a"/>
<rect x="7" y="14" width="2" height="1" fill="#4d4d4d"/>
<rect x="0" y="14" width="6" height="1" fill="#4d4d4d"/>
<rect x="18" y="14" width="1" height="1" fill="#4d4d4d"/>
<rect x="29" y="12" width="1" height="4" fill="#4f4f4f"/>
<rect x="31" y="13" width="1" height="3" fill="#5d5b5b"/>
<rect x="4" y="15" width="1" height="1" fill="#4c4c4c"/>
<rect x="24" y="15" width="2" height="1" fill="#4d4d4d"/>
<rect x="19" y="15" width="4" height="1" fill="#4d4d4d"/>
<rect x="30" y="15" width="1" height="1" fill="#4b4b4b"/>
<rect x="15" y="15" width="2" height="1" fill="#4d4d4d"/>
<rect x="7" y="15" width="3" height="1" fill="#4d4d4d"/>
<rect x="0" y="15" width="4" height="1" fill="#4d4d4d"/>
<rect x="27" y="15" width="2" height="1" fill="#4d4d4d"/>
<rect x="5" y="15" width="1" height="1" fill="#4d4d4d"/>
<rect x="31" y="16" width="1" height="1" fill="#5a5958"/>
<rect x="19" y="16" width="1" height="1" fill="#4d4d4d"/>
<rect x="4" y="16" width="1" height="1" fill="#4d4d4d"/>
<rect x="13" y="16" width="1" height="1" fill="#4d4d4d"/>
<rect x="8" y="16" width="3" height="1" fill="#4d4d4d"/>
<rect x="30" y="16" width="1" height="1" fill="#4c4c4c"/>
<rect x="16" y="16" width="2" height="1" fill="#4d4d4d"/>
<rect x="5" y="16" width="3" height="1" fill="#4c4c4c"/>
<rect x="21" y="16" width="8" height="1" fill="#4d4d4d"/>
<rect x="0" y="16" width="3" height="2" fill="#4d4d4d"/>
<rect x="3" y="16" width="1" height="2" fill="#4c4c4c"/>
<rect x="4" y="17" width="7" height="1" fill="#4d4d4d"/>
<rect x="13" y="17" width="1" height="1" fill="#4c4c4c"/>
<rect x="18" y="17" width="4" height="1" fill="#4d4d4d"/>
<rect x="11" y="17" width="1" height="1" fill="#4f4f4f"/>
<rect x="12" y="17" width="1" height="1" fill="#4d4d4d"/>
<rect x="26" y="17" width="2" height="1" fill="#4d4d4d"/>
<rect x="24" y="17" width="1" height="1" fill="#4d4d4d"/>
<rect x="31" y="17" width="1" height="1" fill="#545353"/>
<rect x="30" y="17" width="1" height="1" fill="#4d4d4d"/>
<rect x="14" y="17" width="3" height="1" fill="#4d4d4d"/>
<rect x="24" y="18" width="2" height="1" fill="#4d4d4d"/>
<rect x="1" y="18" width="1" height="1" fill="#4d4d4d"/>
<rect x="16" y="18" width="3" height="1" fill="#4d4d4d"/>
<rect x="26" y="18" width="1" height="1" fill="#4c4c4c"/>
<rect x="19" y="18" width="1" height="1" fill="#4f4f4f"/>
<rect x="2" y="18" width="3" height="1" fill="#4c4c4c"/>
<rect x="31" y="18" width="1" height="1" fill="#4f4f4e"/>
<rect x="27" y="18" width="2" height="1" fill="#4d4d4d"/>
<rect x="12" y="18" width="1" height="1" fill="#4f4f4f"/>
<rect x="5" y="18" width="6" height="1" fill="#4d4d4d"/>
<rect x="6" y="19" width="2" height="1" fill="#4c4c4c"/>
<rect x="31" y="19" width="1" height="1" fill="#4a4a4a"/>
<rect x="3" y="19" width="3" height="1" fill="#4d4d4d"/>
<rect x="0" y="19" width="2" height="1" fill="#4d4d4d"/>
<rect x="8" y="19" width="3" height="1" fill="#4d4d4d"/>
<rect x="2" y="19" width="1" height="1" fill="#4c4c4c"/>
<rect x="14" y="19" width="5" height="1" fill="#4d4d4d"/>
<rect x="24" y="19" width="1" height="1" fill="#4d4d4d"/>
<rect x="26" y="19" width="5" height="1" fill="#4d4d4d"/>
<rect x="20" y="19" width="3" height="1" fill="#4f4f4f"/>
<rect x="4" y="20" width="1" height="1" fill="#4f4f4f"/>
<rect x="5" y="20" width="2" height="1" fill="#4d4d4d"/>
<rect x="8" y="20" width="4" height="1" fill="#4d4d4d"/>
<rect x="0" y="20" width="3" height="1" fill="#4c4c4c"/>
<rect x="7" y="20" width="1" height="1" fill="#4c4c4c"/>
<rect x="13" y="20" width="6" height="1" fill="#4d4d4d"/>
<rect x="25" y="20" width="6" height="1" fill="#4d4d4d"/>
<rect x="20" y="20" width="2" height="1" fill="#4f4f4f"/>
<rect x="11" y="21" width="2" height="1" fill="#4d4d4d"/>
<rect x="24" y="21" width="7" height="1" fill="#4d4d4d"/>
<rect x="3" y="21" width="1" height="1" fill="#4d4d4d"/>
<rect x="21" y="21" width="1" height="1" fill="#4d4d4d"/>
<rect x="2" y="21" width="1" height="1" fill="#4c4c4c"/>
<rect x="14" y="21" width="1" height="1" fill="#4d4d4d"/>
<rect x="16" y="21" width="4" height="1" fill="#4d4d4d"/>
<rect x="5" y="21" width="5" height="1" fill="#4d4d4d"/>
<rect x="31" y="20" width="1" height="3" fill="#484848"/>
<rect x="0" y="21" width="2" height="2" fill="#4d4d4d"/>
<rect x="22" y="22" width="1" height="1" fill="#4d4d4d"/>
<rect x="6" y="22" width="3" height="1" fill="#4d4d4d"/>
<rect x="13" y="22" width="7" height="1" fill="#4d4d4d"/>
<rect x="12" y="22" width="1" height="1" fill="#4f4f4f"/>
<rect x="24" y="22" width="5" height="1" fill="#4d4d4d"/>
<rect x="2" y="23" width="1" height="1" fill="#4d4d4d"/>
<rect x="11" y="23" width="2" height="1" fill="#4f4f4f"/>
<rect x="26" y="23" width="3" height="1" fill="#4d4d4d"/>
<rect x="13" y="23" width="2" height="1" fill="#4d4d4d"/>
<rect x="16" y="23" width="1" height="1" fill="#4d4d4d"/>
<rect x="31" y="23" width="1" height="1" fill="#494949"/>
<rect x="18" y="23" width="1" height="1" fill="#4d4d4d"/>
<rect x="7" y="23" width="2" height="2" fill="#4d4d4d"/>
<rect x="26" y="24" width="1" height="1" fill="#4f4f4f"/>
<rect x="31" y="24" width="1" height="1" fill="#4a4a4a"/>
<rect x="14" y="24" width="5" height="1" fill="#4d4d4d"/>
<rect x="22" y="24" width="2" height="1" fill="#4f4f4f"/>
<rect x="4" y="23" width="1" height="3" fill="#4f4f4f"/>
<rect x="1" y="24" width="1" height="2" fill="#4d4d4d"/>
<rect x="6" y="25" width="3" height="1" fill="#4d4d4d"/>
<rect x="30" y="25" width="1" height="1" fill="#4f4f4f"/>
<rect x="18" y="25" width="1" height="1" fill="#4d4d4d"/>
<rect x="31" y="25" width="1" height="2" fill="#4c4c4c"/>
<rect x="16" y="25" width="1" height="2" fill="#4d4d4d"/>
<rect x="20" y="25" width="5" height="2" fill="#4f4f4f"/>
<rect x="29" y="26" width="1" height="1" fill="#4d4d4d"/>
<rect x="7" y="26" width="2" height="1" fill="#4d4d4d"/>
<rect x="19" y="26" width="1" height="1" fill="#4d4d4d"/>
<rect x="1" y="26" width="2" height="1" fill="#4d4d4d"/>
<rect x="24" y="27" width="1" height="1" fill="#4f4f4f"/>
<rect x="10" y="27" width="1" height="1" fill="#4d4d4d"/>
<rect x="21" y="27" width="3" height="1" fill="#505050"/>
<rect x="0" y="27" width="3" height="1" fill="#4d4d4d"/>
<rect x="20" y="27" width="1" height="1" fill="#4f4f4f"/>
<rect x="15" y="27" width="1" height="1" fill="#4d4d4d"/>
<rect x="31" y="27" width="1" height="1" fill="#4d4d4d"/>
<rect x="17" y="28" width="1" height="1" fill="#4d4d4d"/>
<rect x="6" y="28" width="3" height="1" fill="#4d4d4d"/>
<rect x="1" y="28" width="1" height="1" fill="#454545"/>
<rect x="27" y="28" width="1" height="1" fill="#4f4f4f"/>
<rect x="19" y="28" width="1" height="1" fill="#4d4d4d"/>
<rect x="5" y="28" width="1" height="1" fill="#4c4c4c"/>
<rect x="0" y="28" width="1" height="1" fill="#444444"/>
<rect x="20" y="28" width="5" height="1" fill="#4f4f4f"/>
<rect x="2" y="28" width="1" height="1" fill="#474747"/>
<rect x="4" y="28" width="1" height="1" fill="#4b4b4b"/>
<rect x="3" y="28" width="1" height="1" fill="#494949"/>
<rect x="4" y="29" width="1" height="1" fill="#484747"/>
<rect x="29" y="29" width="1" height="1" fill="#4d4d4d"/>
<rect x="6" y="29" width="1" height="1" fill="#444444"/>
<rect x="8" y="29" width="1" height="1" fill="#474747"/>
<rect x="3" y="29" width="1" height="1" fill="#4e4d4c"/>
<rect x="21" y="29" width="2" height="1" fill="#4f4f4f"/>
<rect x="0" y="29" width="2" height="1" fill="#595858"/>
<rect x="13" y="29" width="1" height="1" fill="#4d4d4d"/>
<rect x="10" y="29" width="1" height="1" fill="#4a4a4a"/>
<rect x="31" y="29" width="1" height="1" fill="#4f4f4f"/>
<rect x="11" y="29" width="2" height="1" fill="#4c4c4c"/>
<rect x="2" y="29" width="1" height="1" fill="#545353"/>
<rect x="7" y="29" width="1" height="1" fill="#454545"/>
<rect x="18" y="29" width="1" height="1" fill="#4d4d4d"/>
<rect x="23" y="29" width="1" height="1" fill="#505050"/>
<rect x="9" y="29" width="1" height="1" fill="#494949"/>
<rect x="5" y="29" width="1" height="1" fill="#454545"/>
<rect x="7" y="30" width="1" height="1" fill="#5a5958"/>
<rect x="6" y="30" width="1" height="1" fill="#5d5b5b"/>
<rect x="4" y="30" width="1" height="1" fill="#515050"/>
<rect x="13" y="30" width="1" height="1" fill="#444444"/>
<rect x="9" y="30" width="1" height="1" fill="#4d4c4c"/>
<rect x="10" y="30" width="1" height="1" fill="#464646"/>
<rect x="23" y="30" width="2" height="1" fill="#4f4f4f"/>
<rect x="8" y="30" width="1" height="1" fill="#545353"/>
<rect x="15" y="30" width="1" height="1" fill="#484848"/>
<rect x="16" y="30" width="1" height="1" fill="#4a4a4a"/>
<rect x="2" y="30" width="1" height="1" fill="#3b3b3b"/>
<rect x="17" y="30" width="2" height="1" fill="#4b4b4b"/>
<rect x="19" y="30" width="2" height="1" fill="#4d4d4d"/>
<rect x="0" y="30" width="2" height="1" fill="#333332"/>
<rect x="27" y="30" width="1" height="1" fill="#4d4d4d"/>
<rect x="11" y="30" width="2" height="1" fill="#434343"/>
<rect x="3" y="30" width="1" height="1" fill="#464646"/>
<rect x="14" y="30" width="1" height="1" fill="#474747"/>
<rect x="5" y="30" width="1" height="1" fill="#595858"/>
<rect x="18" y="31" width="2" height="1" fill="#434343"/>
<rect x="14" y="31" width="1" height="1" fill="#525151"/>
<rect x="15" y="31" width="1" height="1" fill="#4d4c4c"/>
<rect x="17" y="31" width="1" height="1" fill="#444444"/>
<rect x="0" y="31" width="4" height="1" fill="#2b2b2b"/>
<rect x="13" y="31" width="1" height="1" fill="#595858"/>
<rect x="23" y="31" width="1" height="1" fill="#4b4b4b"/>
<rect x="4" y="31" width="3" height="1" fill="#333332"/>
<rect x="9" y="31" width="1" height="1" fill="#4a4949"/>
<rect x="28" y="31" width="1" height="1" fill="#4d4d4d"/>
<rect x="7" y="31" width="1" height="1" fill="#3a3a3a"/>
<rect x="26" y="31" width="1" height="1" fill="#4d4d4d"/>
<rect x="12" y="31" width="1" height="1" fill="#5c5a5a"/>
<rect x="20" y="31" width="1" height="1" fill="#464646"/>
<rect x="31" y="31" width="1" height="1" fill="#4f4f4f"/>
<rect x="8" y="31" width="1" height="1" fill="#3f3f3e"/>
<rect x="22" y="31" width="1" height="1" fill="#494949"/>
<rect x="10" y="31" width="1" height="1" fill="#545353"/>
<rect x="16" y="31" width="1" height="1" fill="#484747"/>
<rect x="11" y="31" width="1" height="1" fill="#595858"/>
<rect x="24" y="31" width="2" height="1" fill="#4c4c4c"/>
<rect x="21" y="31" width="1" height="1" fill="#484848"/>
</svg>