<?xml version="1.0" encoding="UTF-8"?>
<svg xmlns="http://www.w3.org/2000/svg" width="20mm" height="20mm" viewBox="0 0 32 32" shape-rendering="crispEdges">
<title>129 右侧面 structured semantic redraw</title>
<metadata>registered 32-unit semantic vector redraw; no embedded raster; physical-size=20mm</metadata>
<rect x="0" y="0" width="32" height="32" fill="#4a5f45"/>
<rect x="21" y="0" width="2" height="1" fill="#55704c"/>
<rect x="28" y="0" width="1" height="1" fill="#4f6347"/>
<rect x="8" y="0" width="1" height="1" fill="#52684a"/>
<rect x="24" y="0" width="1" height="1" fill="#4c6246"/>
<rect x="7" y="0" width="1" height="1" fill="#556b4b"/>
<rect x="9" y="0" width="1" height="1" fill="#4c6445"/>
<rect x="0" y="0" width="7" height="1" fill="#5f7954"/>
<rect x="16" y="0" width="3" height="1" fill="#546f4a"/>
<rect x="26" y="0" width="1" height="1" fill="#4b6345"/>
<rect x="19" y="0" width="1" height="1" fill="#55704c"/>
<rect x="20" y="0" width="1" height="1" fill="#537049"/>
<rect x="29" y="0" width="1" height="1" fill="#4f6548"/>
<rect x="10" y="0" width="1" height="1" fill="#496242"/>
<rect x="30" y="0" width="2" height="1" fill="#4f6347"/>
<rect x="27" y="0" width="1" height="1" fill="#4b6245"/>
<rect x="25" y="0" width="1" height="2" fill="#4c6346"/>
<rect x="26" y="1" width="1" height="1" fill="#4c6246"/>
<rect x="7" y="1" width="1" height="1" fill="#496242"/>
<rect x="27" y="1" width="1" height="1" fill="#4c6346"/>
<rect x="4" y="1" width="3" height="1" fill="#4b6045"/>
<rect x="8" y="1" width="3" height="1" fill="#496043"/>
<rect x="31" y="1" width="1" height="1" fill="#4f6347"/>
<rect x="2" y="1" width="2" height="1" fill="#496043"/>
<rect x="28" y="1" width="2" height="1" fill="#4f6347"/>
<rect x="24" y="1" width="1" height="1" fill="#4b6245"/>
<rect x="30" y="1" width="1" height="1" fill="#4f6548"/>
<rect x="0" y="1" width="1" height="1" fill="#4f6347"/>
<rect x="1" y="1" width="1" height="1" fill="#4d6146"/>
<rect x="16" y="1" width="3" height="1" fill="#546e4a"/>
<rect x="19" y="1" width="1" height="1" fill="#546f4a"/>
<rect x="20" y="1" width="3" height="1" fill="#55704c"/>
<rect x="23" y="0" width="1" height="3" fill="#526d49"/>
<rect x="7" y="2" width="1" height="1" fill="#496043"/>
<rect x="8" y="2" width="2" height="1" fill="#496242"/>
<rect x="18" y="2" width="1" height="1" fill="#546e4a"/>
<rect x="3" y="2" width="1" height="1" fill="#496043"/>
<rect x="25" y="2" width="1" height="1" fill="#4d6646"/>
<rect x="19" y="2" width="4" height="1" fill="#55704c"/>
<rect x="27" y="2" width="2" height="1" fill="#506748"/>
<rect x="2" y="2" width="1" height="1" fill="#4b5d45"/>
<rect x="4" y="2" width="1" height="1" fill="#4b6245"/>
<rect x="26" y="2" width="1" height="1" fill="#4f6648"/>
<rect x="24" y="2" width="1" height="1" fill="#4c6445"/>
<rect x="17" y="2" width="1" height="1" fill="#546f4a"/>
<rect x="10" y="2" width="1" height="1" fill="#496043"/>
<rect x="16" y="2" width="1" height="1" fill="#546e4a"/>
<rect x="11" y="0" width="1" height="4" fill="#5b7450"/>
<rect x="15" y="0" width="1" height="4" fill="#55704c"/>
<rect x="12" y="0" width="3" height="4" fill="#5f7954"/>
<rect x="1" y="2" width="1" height="2" fill="#465d3f"/>
<rect x="6" y="2" width="1" height="2" fill="#4b6245"/>
<rect x="0" y="2" width="1" height="2" fill="#465840"/>
<rect x="5" y="2" width="1" height="2" fill="#4b6045"/>
<rect x="29" y="2" width="3" height="2" fill="#52684a"/>
<rect x="28" y="3" width="1" height="1" fill="#556b4b"/>
<rect x="23" y="3" width="1" height="1" fill="#4f6648"/>
<rect x="4" y="3" width="1" height="1" fill="#4d6146"/>
<rect x="22" y="3" width="1" height="1" fill="#4f6347"/>
<rect x="20" y="3" width="1" height="1" fill="#4f6648"/>
<rect x="3" y="3" width="1" height="1" fill="#4b5d45"/>
<rect x="7" y="3" width="4" height="1" fill="#496043"/>
<rect x="2" y="3" width="1" height="1" fill="#496043"/>
<rect x="19" y="3" width="1" height="1" fill="#516b48"/>
<rect x="16" y="3" width="3" height="1" fill="#546e4a"/>
<rect x="21" y="3" width="1" height="1" fill="#4f6548"/>
<rect x="20" y="4" width="3" height="1" fill="#4d6246"/>
<rect x="28" y="4" width="4" height="1" fill="#52684a"/>
<rect x="5" y="4" width="2" height="1" fill="#4b6045"/>
<rect x="11" y="4" width="1" height="1" fill="#55704c"/>
<rect x="18" y="4" width="1" height="1" fill="#52684a"/>
<rect x="2" y="4" width="1" height="1" fill="#4b5d45"/>
<rect x="0" y="4" width="2" height="1" fill="#465d3f"/>
<rect x="4" y="4" width="1" height="1" fill="#4b6245"/>
<rect x="7" y="4" width="2" height="1" fill="#496043"/>
<rect x="16" y="4" width="2" height="1" fill="#516b48"/>
<rect x="9" y="4" width="2" height="2" fill="#496242"/>
<rect x="28" y="5" width="1" height="1" fill="#556b4b"/>
<rect x="0" y="5" width="1" height="1" fill="#4b5d45"/>
<rect x="22" y="5" width="1" height="1" fill="#4f6347"/>
<rect x="4" y="5" width="3" height="1" fill="#465840"/>
<rect x="20" y="5" width="2" height="1" fill="#4d6246"/>
<rect x="1" y="5" width="2" height="1" fill="#465840"/>
<rect x="16" y="5" width="2" height="1" fill="#52684a"/>
<rect x="3" y="5" width="1" height="1" fill="#465d3f"/>
<rect x="8" y="5" width="1" height="1" fill="#4b6345"/>
<rect x="29" y="5" width="3" height="1" fill="#52684a"/>
<rect x="24" y="3" width="4" height="4" fill="#55704c"/>
<rect x="19" y="4" width="1" height="3" fill="#4f6648"/>
<rect x="15" y="4" width="1" height="3" fill="#546f4a"/>
<rect x="7" y="5" width="1" height="2" fill="#496043"/>
<rect x="17" y="6" width="1" height="1" fill="#516b48"/>
<rect x="21" y="6" width="1" height="1" fill="#4f6347"/>
<rect x="16" y="6" width="1" height="1" fill="#52684a"/>
<rect x="0" y="6" width="1" height="1" fill="#4c5f46"/>
<rect x="20" y="6" width="1" height="1" fill="#4d6246"/>
<rect x="22" y="6" width="1" height="1" fill="#4d6246"/>
<rect x="1" y="6" width="6" height="1" fill="#465840"/>
<rect x="12" y="4" width="3" height="4" fill="#5b7450"/>
<rect x="23" y="4" width="1" height="4" fill="#4f6548"/>
<rect x="18" y="5" width="1" height="3" fill="#526d49"/>
<rect x="11" y="5" width="1" height="3" fill="#537049"/>
<rect x="0" y="7" width="1" height="1" fill="#4d6146"/>
<rect x="21" y="7" width="2" height="1" fill="#4d6246"/>
<rect x="20" y="7" width="1" height="1" fill="#4f6347"/>
<rect x="19" y="7" width="1" height="1" fill="#506748"/>
<rect x="24" y="7" width="1" height="1" fill="#546f4a"/>
<rect x="16" y="7" width="1" height="1" fill="#516b48"/>
<rect x="4" y="7" width="3" height="1" fill="#465840"/>
<rect x="1" y="7" width="2" height="1" fill="#465840"/>
<rect x="17" y="7" width="1" height="1" fill="#556b4b"/>
<rect x="15" y="7" width="1" height="1" fill="#55704c"/>
<rect x="26" y="7" width="2" height="1" fill="#526d49"/>
<rect x="3" y="7" width="1" height="1" fill="#465d3f"/>
<rect x="25" y="7" width="1" height="1" fill="#546e4a"/>
<rect x="7" y="7" width="1" height="1" fill="#475f3f"/>
<rect x="8" y="6" width="3" height="3" fill="#4b6345"/>
<rect x="7" y="8" width="1" height="1" fill="#465d3f"/>
<rect x="0" y="8" width="1" height="1" fill="#526549"/>
<rect x="15" y="8" width="1" height="1" fill="#546e4a"/>
<rect x="12" y="8" width="1" height="1" fill="#5b7450"/>
<rect x="2" y="8" width="1" height="1" fill="#465d3f"/>
<rect x="17" y="8" width="2" height="1" fill="#506748"/>
<rect x="16" y="8" width="1" height="1" fill="#52684a"/>
<rect x="3" y="8" width="4" height="1" fill="#465840"/>
<rect x="24" y="8" width="4" height="1" fill="#4f6648"/>
<rect x="11" y="8" width="1" height="1" fill="#526d49"/>
<rect x="13" y="8" width="2" height="1" fill="#55704c"/>
<rect x="20" y="8" width="3" height="2" fill="#4b5d45"/>
<rect x="1" y="8" width="1" height="2" fill="#465840"/>
<rect x="23" y="8" width="1" height="2" fill="#4c5f46"/>
<rect x="12" y="9" width="3" height="1" fill="#537049"/>
<rect x="18" y="9" width="1" height="1" fill="#516648"/>
<rect x="0" y="9" width="1" height="1" fill="#52684a"/>
<rect x="26" y="9" width="1" height="1" fill="#506748"/>
<rect x="7" y="9" width="1" height="1" fill="#4b6245"/>
<rect x="27" y="9" width="1" height="1" fill="#4f6648"/>
<rect x="17" y="9" width="1" height="1" fill="#4f6648"/>
<rect x="4" y="9" width="3" height="1" fill="#496043"/>
<rect x="2" y="9" width="1" height="1" fill="#496043"/>
<rect x="25" y="9" width="1" height="1" fill="#4f6648"/>
<rect x="24" y="9" width="1" height="2" fill="#506748"/>
<rect x="16" y="9" width="1" height="2" fill="#4f6548"/>
<rect x="14" y="10" width="1" height="1" fill="#546e4a"/>
<rect x="20" y="10" width="2" height="1" fill="#4b5d45"/>
<rect x="25" y="10" width="3" height="1" fill="#4f6648"/>
<rect x="12" y="10" width="2" height="1" fill="#537049"/>
<rect x="22" y="10" width="2" height="1" fill="#4c5f46"/>
<rect x="17" y="10" width="2" height="1" fill="#4f6648"/>
<rect x="28" y="6" width="4" height="6" fill="#52684a"/>
<rect x="5" y="10" width="2" height="2" fill="#496242"/>
<rect x="7" y="10" width="1" height="2" fill="#4c6445"/>
<rect x="14" y="11" width="1" height="1" fill="#537049"/>
<rect x="20" y="11" width="3" height="1" fill="#4b5d45"/>
<rect x="26" y="11" width="1" height="1" fill="#506748"/>
<rect x="16" y="11" width="1" height="1" fill="#4f6648"/>
<rect x="27" y="11" width="1" height="1" fill="#4f6648"/>
<rect x="24" y="11" width="2" height="1" fill="#4f6648"/>
<rect x="17" y="11" width="2" height="1" fill="#516648"/>
<rect x="23" y="11" width="1" height="1" fill="#4c5f46"/>
<rect x="12" y="11" width="1" height="1" fill="#537049"/>
<rect x="13" y="11" width="1" height="1" fill="#546e4a"/>
<rect x="19" y="8" width="1" height="5" fill="#4f6347"/>
<rect x="15" y="9" width="1" height="4" fill="#516b48"/>
<rect x="8" y="9" width="4" height="4" fill="#516b48"/>
<rect x="1" y="10" width="1" height="3" fill="#496242"/>
<rect x="4" y="10" width="1" height="3" fill="#4c6445"/>
<rect x="24" y="12" width="2" height="1" fill="#4f6548"/>
<rect x="20" y="12" width="2" height="1" fill="#4b5d45"/>
<rect x="12" y="12" width="3" height="1" fill="#537049"/>
<rect x="16" y="12" width="2" height="1" fill="#4f6648"/>
<rect x="6" y="12" width="2" height="1" fill="#496242"/>
<rect x="18" y="12" width="1" height="1" fill="#516648"/>
<rect x="27" y="12" width="1" height="1" fill="#4f6347"/>
<rect x="22" y="12" width="2" height="1" fill="#4b5f46"/>
<rect x="5" y="12" width="1" height="1" fill="#4b6345"/>
<rect x="26" y="12" width="1" height="1" fill="#4c6346"/>
<rect x="2" y="10" width="2" height="4" fill="#4d6646"/>
<rect x="29" y="12" width="3" height="2" fill="#526d49"/>
<rect x="4" y="13" width="4" height="1" fill="#4c6445"/>
<rect x="15" y="13" width="1" height="1" fill="#4c6445"/>
<rect x="21" y="13" width="2" height="1" fill="#4c6246"/>
<rect x="18" y="13" width="1" height="1" fill="#4b5f46"/>
<rect x="1" y="13" width="1" height="1" fill="#475f3f"/>
<rect x="20" y="13" width="1" height="1" fill="#4b6345"/>
<rect x="24" y="13" width="4" height="1" fill="#4d6246"/>
<rect x="19" y="13" width="1" height="1" fill="#4c5f46"/>
<rect x="16" y="13" width="2" height="1" fill="#4c5f46"/>
<rect x="8" y="13" width="7" height="1" fill="#4d6646"/>
<rect x="23" y="13" width="1" height="2" fill="#4c6346"/>
<rect x="17" y="14" width="2" height="1" fill="#4b5f46"/>
<rect x="2" y="14" width="1" height="1" fill="#546f4a"/>
<rect x="25" y="14" width="2" height="1" fill="#4f6347"/>
<rect x="21" y="14" width="1" height="1" fill="#4c6346"/>
<rect x="27" y="14" width="1" height="1" fill="#4d6246"/>
<rect x="16" y="14" width="1" height="1" fill="#4c5f46"/>
<rect x="15" y="14" width="1" height="1" fill="#4b6245"/>
<rect x="20" y="14" width="1" height="1" fill="#4b6245"/>
<rect x="12" y="14" width="1" height="1" fill="#4b6345"/>
<rect x="22" y="14" width="1" height="1" fill="#4b6245"/>
<rect x="31" y="14" width="1" height="1" fill="#546e4a"/>
<rect x="29" y="14" width="2" height="1" fill="#526d49"/>
<rect x="3" y="14" width="1" height="1" fill="#537049"/>
<rect x="13" y="14" width="1" height="1" fill="#4c6445"/>
<rect x="24" y="14" width="1" height="2" fill="#4d6246"/>
<rect x="14" y="14" width="1" height="2" fill="#4b6345"/>
<rect x="4" y="14" width="4" height="2" fill="#526d49"/>
<rect x="1" y="14" width="1" height="2" fill="#516b48"/>
<rect x="16" y="15" width="1" height="1" fill="#4b5f46"/>
<rect x="17" y="15" width="2" height="1" fill="#4c5f46"/>
<rect x="30" y="15" width="2" height="1" fill="#546e4a"/>
<rect x="2" y="15" width="2" height="1" fill="#537049"/>
<rect x="23" y="15" width="1" height="1" fill="#4b6345"/>
<rect x="12" y="15" width="2" height="1" fill="#4c6445"/>
<rect x="29" y="15" width="1" height="1" fill="#526d49"/>
<rect x="25" y="15" width="1" height="1" fill="#4f6347"/>
<rect x="26" y="15" width="2" height="1" fill="#4d6246"/>
<rect x="20" y="15" width="3" height="1" fill="#4c6346"/>
<rect x="15" y="15" width="1" height="1" fill="#4c6246"/>
<rect x="0" y="10" width="1" height="7" fill="#5b7450"/>
<rect x="28" y="12" width="1" height="5" fill="#516b48"/>
<rect x="8" y="14" width="4" height="3" fill="#496242"/>
<rect x="19" y="14" width="1" height="3" fill="#4b6045"/>
<rect x="20" y="16" width="1" height="1" fill="#4c6246"/>
<rect x="29" y="16" width="3" height="1" fill="#526d49"/>
<rect x="21" y="16" width="1" height="1" fill="#4c6346"/>
<rect x="3" y="16" width="1" height="1" fill="#546f4a"/>
<rect x="22" y="16" width="2" height="1" fill="#4b6245"/>
<rect x="13" y="16" width="1" height="1" fill="#4c6346"/>
<rect x="27" y="16" width="1" height="1" fill="#4f6347"/>
<rect x="15" y="16" width="1" height="1" fill="#4b6245"/>
<rect x="16" y="16" width="3" height="1" fill="#4b5f46"/>
<rect x="1" y="16" width="1" height="1" fill="#526d49"/>
<rect x="12" y="16" width="1" height="1" fill="#4b6345"/>
<rect x="24" y="16" width="3" height="1" fill="#4d6246"/>
<rect x="14" y="16" width="1" height="1" fill="#4c6445"/>
<rect x="4" y="16" width="1" height="2" fill="#537049"/>
<rect x="5" y="16" width="3" height="2" fill="#526d49"/>
<rect x="2" y="16" width="1" height="2" fill="#537049"/>
<rect x="12" y="17" width="3" height="1" fill="#4b6245"/>
<rect x="30" y="17" width="1" height="1" fill="#4d6246"/>
<rect x="9" y="17" width="3" height="1" fill="#496242"/>
<rect x="3" y="17" width="1" height="1" fill="#55704c"/>
<rect x="21" y="17" width="2" height="1" fill="#4f6347"/>
<rect x="31" y="17" width="1" height="1" fill="#4c6346"/>
<rect x="23" y="17" width="3" height="1" fill="#4f6548"/>
<rect x="26" y="17" width="1" height="1" fill="#4f6648"/>
<rect x="28" y="17" width="2" height="1" fill="#4f6347"/>
<rect x="0" y="17" width="1" height="1" fill="#55704c"/>
<rect x="1" y="17" width="1" height="1" fill="#546f4a"/>
<rect x="20" y="17" width="1" height="1" fill="#4c6346"/>
<rect x="15" y="17" width="4" height="1" fill="#4b6045"/>
<rect x="8" y="17" width="1" height="1" fill="#4b6345"/>
<rect x="19" y="17" width="1" height="1" fill="#4c6246"/>
<rect x="27" y="17" width="1" height="1" fill="#4f6548"/>
<rect x="30" y="18" width="1" height="1" fill="#4c6246"/>
<rect x="7" y="18" width="1" height="1" fill="#55704c"/>
<rect x="5" y="18" width="2" height="1" fill="#546e4a"/>
<rect x="19" y="18" width="1" height="1" fill="#4c6346"/>
<rect x="16" y="18" width="3" height="1" fill="#4b6245"/>
<rect x="31" y="18" width="1" height="1" fill="#4d6246"/>
<rect x="24" y="18" width="3" height="1" fill="#516648"/>
<rect x="1" y="18" width="1" height="1" fill="#55704c"/>
<rect x="29" y="18" width="1" height="1" fill="#4d6246"/>
<rect x="27" y="18" width="1" height="1" fill="#4f6648"/>
<rect x="28" y="18" width="1" height="2" fill="#4f6347"/>
<rect x="0" y="18" width="1" height="2" fill="#5f7954"/>
<rect x="1" y="19" width="1" height="1" fill="#5b7450"/>
<rect x="24" y="19" width="1" height="1" fill="#516648"/>
<rect x="5" y="19" width="3" height="1" fill="#55704c"/>
<rect x="26" y="19" width="2" height="1" fill="#4f6548"/>
<rect x="29" y="19" width="3" height="1" fill="#4d6246"/>
<rect x="25" y="19" width="1" height="1" fill="#4f6648"/>
<rect x="16" y="19" width="1" height="1" fill="#4b6245"/>
<rect x="17" y="19" width="3" height="1" fill="#4c6346"/>
<rect x="20" y="18" width="4" height="3" fill="#4f6548"/>
<rect x="7" y="20" width="1" height="1" fill="#55704c"/>
<rect x="25" y="20" width="1" height="1" fill="#4f6548"/>
<rect x="6" y="20" width="1" height="1" fill="#546e4a"/>
<rect x="30" y="20" width="1" height="1" fill="#4d6246"/>
<rect x="16" y="20" width="3" height="1" fill="#4b6245"/>
<rect x="5" y="20" width="1" height="1" fill="#55704c"/>
<rect x="29" y="20" width="1" height="1" fill="#4c6246"/>
<rect x="24" y="20" width="1" height="1" fill="#4f6648"/>
<rect x="26" y="20" width="1" height="1" fill="#4f6648"/>
<rect x="31" y="20" width="1" height="1" fill="#4f6347"/>
<rect x="0" y="20" width="2" height="1" fill="#5b7450"/>
<rect x="27" y="20" width="1" height="1" fill="#4f6548"/>
<rect x="2" y="18" width="1" height="4" fill="#526d49"/>
<rect x="9" y="18" width="3" height="4" fill="#526549"/>
<rect x="3" y="18" width="2" height="4" fill="#546f4a"/>
<rect x="8" y="18" width="1" height="4" fill="#52684a"/>
<rect x="12" y="18" width="4" height="4" fill="#4b5d45"/>
<rect x="19" y="20" width="1" height="2" fill="#4c6346"/>
<rect x="28" y="20" width="1" height="2" fill="#4d6246"/>
<rect x="25" y="21" width="3" height="1" fill="#4f6347"/>
<rect x="20" y="21" width="1" height="1" fill="#4f6548"/>
<rect x="21" y="21" width="1" height="1" fill="#4f6347"/>
<rect x="5" y="21" width="3" height="1" fill="#55704c"/>
<rect x="29" y="21" width="2" height="1" fill="#4d6146"/>
<rect x="31" y="21" width="1" height="1" fill="#4d6246"/>
<rect x="0" y="21" width="1" height="1" fill="#537049"/>
<rect x="22" y="21" width="3" height="1" fill="#4f6548"/>
<rect x="17" y="21" width="2" height="1" fill="#4b6245"/>
<rect x="16" y="21" width="1" height="1" fill="#4c6246"/>
<rect x="1" y="21" width="1" height="2" fill="#5b7450"/>
<rect x="5" y="22" width="4" height="1" fill="#4b5d45"/>
<rect x="31" y="22" width="1" height="1" fill="#4c5f46"/>
<rect x="16" y="22" width="2" height="1" fill="#4f6548"/>
<rect x="12" y="22" width="4" height="1" fill="#4c5f46"/>
<rect x="9" y="22" width="3" height="1" fill="#4d6146"/>
<rect x="4" y="22" width="1" height="1" fill="#526d49"/>
<rect x="28" y="22" width="3" height="1" fill="#4b5f46"/>
<rect x="18" y="22" width="1" height="1" fill="#4f6648"/>
<rect x="20" y="22" width="3" height="2" fill="#4d6246"/>
<rect x="19" y="22" width="1" height="2" fill="#4f6548"/>
<rect x="23" y="22" width="1" height="2" fill="#4d6146"/>
<rect x="18" y="23" width="1" height="1" fill="#516648"/>
<rect x="16" y="23" width="1" height="1" fill="#4f6548"/>
<rect x="30" y="23" width="1" height="1" fill="#4b6045"/>
<rect x="28" y="23" width="2" height="1" fill="#4b5f46"/>
<rect x="1" y="23" width="1" height="1" fill="#55704c"/>
<rect x="4" y="23" width="1" height="1" fill="#516b48"/>
<rect x="17" y="23" width="1" height="1" fill="#4f6648"/>
<rect x="31" y="23" width="1" height="2" fill="#4d6146"/>
<rect x="22" y="24" width="1" height="1" fill="#4c6246"/>
<rect x="28" y="24" width="3" height="1" fill="#4b5f46"/>
<rect x="16" y="24" width="4" height="1" fill="#4f6648"/>
<rect x="23" y="24" width="1" height="1" fill="#4d6246"/>
<rect x="20" y="24" width="2" height="1" fill="#4d6246"/>
<rect x="3" y="22" width="1" height="4" fill="#546e4a"/>
<rect x="9" y="23" width="7" height="3" fill="#4c5f46"/>
<rect x="5" y="23" width="4" height="3" fill="#465840"/>
<rect x="4" y="24" width="1" height="2" fill="#556b4b"/>
<rect x="27" y="25" width="4" height="1" fill="#4b5f46"/>
<rect x="18" y="25" width="1" height="1" fill="#516648"/>
<rect x="19" y="25" width="1" height="1" fill="#4f6548"/>
<rect x="16" y="25" width="1" height="1" fill="#4f6548"/>
<rect x="21" y="25" width="1" height="1" fill="#4c6246"/>
<rect x="17" y="25" width="1" height="1" fill="#506748"/>
<rect x="20" y="25" width="1" height="1" fill="#4d6246"/>
<rect x="22" y="25" width="1" height="1" fill="#4d6246"/>
<rect x="23" y="25" width="1" height="1" fill="#4d6146"/>
<rect x="31" y="25" width="1" height="1" fill="#4d6246"/>
<rect x="24" y="25" width="1" height="1" fill="#496043"/>
<rect x="1" y="24" width="1" height="3" fill="#556b4b"/>
<rect x="16" y="26" width="1" height="1" fill="#516648"/>
<rect x="13" y="26" width="2" height="1" fill="#4b6045"/>
<rect x="23" y="26" width="1" height="1" fill="#4b6045"/>
<rect x="8" y="26" width="5" height="1" fill="#4d6146"/>
<rect x="7" y="26" width="1" height="1" fill="#4b6045"/>
<rect x="31" y="26" width="1" height="1" fill="#4d6146"/>
<rect x="6" y="26" width="1" height="1" fill="#4c5f46"/>
<rect x="17" y="26" width="2" height="1" fill="#506748"/>
<rect x="3" y="26" width="2" height="1" fill="#546e4a"/>
<rect x="5" y="26" width="1" height="1" fill="#4d6146"/>
<rect x="20" y="26" width="1" height="1" fill="#4b6045"/>
<rect x="19" y="26" width="1" height="2" fill="#516648"/>
<rect x="1" y="27" width="1" height="1" fill="#52684a"/>
<rect x="7" y="27" width="1" height="1" fill="#506748"/>
<rect x="6" y="27" width="1" height="1" fill="#516648"/>
<rect x="14" y="27" width="1" height="1" fill="#4c6346"/>
<rect x="8" y="27" width="1" height="1" fill="#4f6548"/>
<rect x="16" y="27" width="3" height="1" fill="#506748"/>
<rect x="2" y="22" width="1" height="7" fill="#516b48"/>
<rect x="15" y="26" width="1" height="3" fill="#4b6245"/>
<rect x="30" y="27" width="1" height="2" fill="#4b6045"/>
<rect x="5" y="27" width="1" height="2" fill="#506748"/>
<rect x="13" y="27" width="1" height="2" fill="#4b6245"/>
<rect x="8" y="28" width="1" height="1" fill="#516648"/>
<rect x="6" y="28" width="2" height="1" fill="#4f6648"/>
<rect x="14" y="28" width="1" height="1" fill="#4b6345"/>
<rect x="1" y="28" width="1" height="1" fill="#506748"/>
<rect x="0" y="22" width="1" height="8" fill="#465d3f"/>
<rect x="31" y="27" width="1" height="3" fill="#4c6246"/>
<rect x="9" y="27" width="3" height="3" fill="#4f6347"/>
<rect x="3" y="27" width="1" height="3" fill="#546e4a"/>
<rect x="12" y="27" width="1" height="3" fill="#4c6246"/>
<rect x="4" y="27" width="1" height="3" fill="#537049"/>
<rect x="16" y="28" width="4" height="2" fill="#506748"/>
<rect x="2" y="29" width="1" height="1" fill="#526d49"/>
<rect x="30" y="29" width="1" height="1" fill="#4b5f46"/>
<rect x="13" y="29" width="3" height="1" fill="#4b6245"/>
<rect x="6" y="29" width="1" height="1" fill="#506748"/>
<rect x="1" y="29" width="1" height="1" fill="#4c6445"/>
<rect x="7" y="29" width="2" height="1" fill="#516648"/>
<rect x="5" y="29" width="1" height="1" fill="#516b48"/>
<rect x="20" y="29" width="1" height="2" fill="#4b6045"/>
<rect x="6" y="30" width="1" height="1" fill="#4c6445"/>
<rect x="3" y="30" width="2" height="1" fill="#526d49"/>
<rect x="21" y="30" width="3" height="1" fill="#4c5f46"/>
<rect x="5" y="30" width="1" height="1" fill="#506748"/>
<rect x="24" y="30" width="7" height="1" fill="#4b6045"/>
<rect x="7" y="30" width="2" height="1" fill="#4c6346"/>
<rect x="9" y="30" width="4" height="1" fill="#4c6246"/>
<rect x="16" y="30" width="1" height="1" fill="#4f6347"/>
<rect x="13" y="30" width="2" height="1" fill="#4b6245"/>
<rect x="17" y="30" width="3" height="1" fill="#4f6548"/>
<rect x="2" y="30" width="1" height="2" fill="#546e4a"/>
<rect x="15" y="30" width="1" height="2" fill="#4b6345"/>
<rect x="0" y="30" width="2" height="2" fill="#465d3f"/>
<rect x="31" y="30" width="1" height="2" fill="#4f6548"/>
<rect x="6" y="31" width="1" height="1" fill="#4b6245"/>
<rect x="7" y="31" width="1" height="1" fill="#496043"/>
<rect x="8" y="31" width="5" height="1" fill="#4b6245"/>
<rect x="24" y="31" width="2" height="1" fill="#4b6245"/>
<rect x="13" y="31" width="1" height="1" fill="#4b6345"/>
<rect x="3" y="31" width="1" height="1" fill="#516b48"/>
<rect x="28" y="31" width="3" height="1" fill="#4c6346"/>
<rect x="26" y="31" width="1" height="1" fill="#4b6345"/>
<rect x="4" y="31" width="1" height="1" fill="#526d49"/>
<rect x="5" y="31" width="1" height="1" fill="#4d6646"/>
<rect x="14" y="31" width="1" height="1" fill="#4c6346"/>
<rect x="20" y="31" width="4" height="1" fill="#4c5f46"/>
<rect x="16" y="31" width="4" height="1" fill="#4f6347"/>
<rect x="27" y="31" width="1" height="1" fill="#4b6245"/>
</svg>