<?xml version="1.0" encoding="UTF-8"?>
<svg xmlns="http://www.w3.org/2000/svg" width="20mm" height="20mm" viewBox="0 0 32 32" shape-rendering="crispEdges">
<title>117 顶面 structured semantic redraw</title>
<metadata>registered 32-unit semantic vector redraw; no embedded raster; physical-size=20mm</metadata>
<rect x="0" y="0" width="32" height="32" fill="#a1a1a1"/>
<rect x="27" y="0" width="2" height="1" fill="#a8a8a8"/>
<rect x="2" y="0" width="1" height="1" fill="#a2a2a2"/>
<rect x="18" y="0" width="1" height="1" fill="#a0a0a0"/>
<rect x="19" y="0" width="1" height="1" fill="#999999"/>
<rect x="30" y="0" width="1" height="1" fill="#959595"/>
<rect x="25" y="0" width="1" height="1" fill="#acacac"/>
<rect x="0" y="0" width="1" height="1" fill="#a2a2a2"/>
<rect x="26" y="0" width="1" height="1" fill="#aaaaaa"/>
<rect x="11" y="0" width="7" height="1" fill="#a7a7a7"/>
<rect x="22" y="0" width="1" height="1" fill="#a3a3a3"/>
<rect x="23" y="0" width="2" height="1" fill="#aaaaaa"/>
<rect x="20" y="0" width="2" height="1" fill="#9b9b9a"/>
<rect x="29" y="0" width="1" height="2" fill="#a5a5a5"/>
<rect x="10" y="0" width="1" height="2" fill="#a5a5a5"/>
<rect x="27" y="1" width="1" height="1" fill="#a7a7a7"/>
<rect x="14" y="1" width="1" height="1" fill="#a5a5a5"/>
<rect x="19" y="1" width="1" height="1" fill="#acacac"/>
<rect x="28" y="1" width="1" height="1" fill="#a8a8a8"/>
<rect x="21" y="1" width="1" height="1" fill="#b0b0b0"/>
<rect x="4" y="1" width="1" height="1" fill="#a0a0a0"/>
<rect x="2" y="1" width="1" height="1" fill="#a0a0a0"/>
<rect x="30" y="1" width="1" height="1" fill="#989797"/>
<rect x="17" y="1" width="1" height="1" fill="#9e9e9e"/>
<rect x="18" y="1" width="1" height="1" fill="#a3a3a3"/>
<rect x="20" y="1" width="1" height="1" fill="#afafaf"/>
<rect x="22" y="1" width="4" height="1" fill="#b1b1b1"/>
<rect x="16" y="1" width="1" height="1" fill="#a0a0a0"/>
<rect x="0" y="1" width="1" height="2" fill="#a0a0a0"/>
<rect x="1" y="1" width="1" height="2" fill="#9f9f9f"/>
<rect x="18" y="2" width="1" height="1" fill="#a2a2a2"/>
<rect x="30" y="2" width="1" height="1" fill="#9d9c9c"/>
<rect x="21" y="2" width="2" height="1" fill="#b1b1b1"/>
<rect x="24" y="2" width="2" height="1" fill="#b1b1b1"/>
<rect x="29" y="2" width="1" height="1" fill="#a5a6a6"/>
<rect x="19" y="2" width="1" height="1" fill="#b1b1b1"/>
<rect x="20" y="2" width="1" height="1" fill="#b0b0b0"/>
<rect x="31" y="0" width="1" height="4" fill="#7e7e7e"/>
<rect x="11" y="1" width="3" height="3" fill="#a7a7a7"/>
<rect x="26" y="1" width="1" height="3" fill="#acacac"/>
<rect x="23" y="2" width="1" height="2" fill="#b0b0b0"/>
<rect x="15" y="2" width="3" height="2" fill="#999999"/>
<rect x="6" y="3" width="1" height="1" fill="#a2a2a2"/>
<rect x="18" y="3" width="1" height="1" fill="#a0a0a0"/>
<rect x="24" y="3" width="2" height="1" fill="#afafaf"/>
<rect x="19" y="3" width="4" height="1" fill="#b1b1b1"/>
<rect x="14" y="3" width="1" height="1" fill="#a2a2a2"/>
<rect x="30" y="3" width="1" height="1" fill="#a09f9f"/>
<rect x="27" y="2" width="2" height="3" fill="#a7a7a7"/>
<rect x="10" y="2" width="1" height="3" fill="#a4a4a4"/>
<rect x="18" y="4" width="1" height="1" fill="#a5a5a5"/>
<rect x="15" y="4" width="1" height="1" fill="#9b9b9a"/>
<rect x="16" y="4" width="1" height="1" fill="#9d9c9c"/>
<rect x="17" y="4" width="1" height="1" fill="#9f9f9f"/>
<rect x="25" y="4" width="1" height="1" fill="#9f9f9f"/>
<rect x="26" y="4" width="1" height="1" fill="#a0a0a0"/>
<rect x="23" y="4" width="2" height="1" fill="#a0a0a0"/>
<rect x="14" y="4" width="1" height="1" fill="#a3a3a3"/>
<rect x="19" y="4" width="3" height="1" fill="#b1b1b1"/>
<rect x="30" y="4" width="1" height="1" fill="#a2a2a2"/>
<rect x="29" y="3" width="1" height="3" fill="#a6a6a6"/>
<rect x="22" y="4" width="1" height="2" fill="#afafaf"/>
<rect x="11" y="4" width="1" height="2" fill="#a8a8a8"/>
<rect x="12" y="4" width="2" height="2" fill="#a7a7a7"/>
<rect x="31" y="4" width="1" height="2" fill="#838383"/>
<rect x="9" y="5" width="1" height="1" fill="#a4a4a4"/>
<rect x="21" y="5" width="1" height="1" fill="#b0b0b0"/>
<rect x="26" y="5" width="1" height="1" fill="#9f9f9f"/>
<rect x="30" y="5" width="1" height="1" fill="#a3a3a3"/>
<rect x="23" y="5" width="2" height="1" fill="#9f9f9f"/>
<rect x="15" y="5" width="1" height="1" fill="#b0b0b0"/>
<rect x="14" y="5" width="1" height="1" fill="#aaaaaa"/>
<rect x="16" y="5" width="5" height="1" fill="#b1b1b1"/>
<rect x="28" y="5" width="1" height="1" fill="#a7a7a7"/>
<rect x="10" y="5" width="1" height="1" fill="#a6a6a6"/>
<rect x="25" y="5" width="1" height="1" fill="#9e9e9e"/>
<rect x="7" y="5" width="2" height="1" fill="#a3a3a3"/>
<rect x="0" y="3" width="2" height="4" fill="#9f9f9f"/>
<rect x="2" y="4" width="1" height="3" fill="#a0a0a0"/>
<rect x="27" y="5" width="1" height="2" fill="#a6a6a6"/>
<rect x="20" y="6" width="2" height="1" fill="#b1b1b1"/>
<rect x="23" y="6" width="4" height="1" fill="#9f9f9f"/>
<rect x="14" y="6" width="1" height="1" fill="#a9a9a9"/>
<rect x="11" y="6" width="2" height="1" fill="#a7a7a7"/>
<rect x="22" y="6" width="1" height="1" fill="#b0b0b0"/>
<rect x="13" y="6" width="1" height="1" fill="#a8a8a8"/>
<rect x="31" y="6" width="1" height="1" fill="#888887"/>
<rect x="7" y="6" width="3" height="2" fill="#aaaaaa"/>
<rect x="15" y="6" width="4" height="2" fill="#b1b1b1"/>
<rect x="19" y="6" width="1" height="2" fill="#b0b0b0"/>
<rect x="10" y="6" width="1" height="2" fill="#a9a9a9"/>
<rect x="23" y="7" width="2" height="1" fill="#9d9c9c"/>
<rect x="1" y="7" width="2" height="1" fill="#a0a0a0"/>
<rect x="22" y="7" width="1" height="1" fill="#acacac"/>
<rect x="27" y="7" width="1" height="1" fill="#a4a4a4"/>
<rect x="11" y="7" width="3" height="1" fill="#a7a7a7"/>
<rect x="31" y="7" width="1" height="1" fill="#959595"/>
<rect x="20" y="7" width="2" height="1" fill="#afafaf"/>
<rect x="25" y="7" width="2" height="1" fill="#9b9b9a"/>
<rect x="0" y="7" width="1" height="1" fill="#9f9f9f"/>
<rect x="14" y="7" width="1" height="1" fill="#a8a8a8"/>
<rect x="30" y="6" width="1" height="3" fill="#a4a4a4"/>
<rect x="6" y="6" width="1" height="3" fill="#a5a5a5"/>
<rect x="16" y="8" width="1" height="1" fill="#b0b0b0"/>
<rect x="15" y="8" width="1" height="1" fill="#b1b1b1"/>
<rect x="27" y="8" width="1" height="1" fill="#a2a2a2"/>
<rect x="12" y="8" width="1" height="1" fill="#a4a4a4"/>
<rect x="23" y="8" width="1" height="1" fill="#9b9b9a"/>
<rect x="0" y="8" width="2" height="1" fill="#9f9f9f"/>
<rect x="20" y="8" width="2" height="1" fill="#a6a6a6"/>
<rect x="26" y="8" width="1" height="1" fill="#989797"/>
<rect x="17" y="8" width="1" height="1" fill="#b1b1b1"/>
<rect x="11" y="8" width="1" height="1" fill="#a5a5a5"/>
<rect x="7" y="8" width="2" height="1" fill="#aaaaaa"/>
<rect x="10" y="8" width="1" height="1" fill="#a8a8a8"/>
<rect x="22" y="8" width="1" height="1" fill="#a7a7a7"/>
<rect x="13" y="8" width="2" height="1" fill="#a2a2a2"/>
<rect x="31" y="8" width="1" height="1" fill="#999999"/>
<rect x="9" y="8" width="1" height="1" fill="#a9a9a9"/>
<rect x="24" y="8" width="2" height="1" fill="#999999"/>
<rect x="28" y="6" width="2" height="4" fill="#a7a7a7"/>
<rect x="18" y="8" width="1" height="2" fill="#b0b0b0"/>
<rect x="19" y="8" width="1" height="2" fill="#a8a8a8"/>
<rect x="31" y="9" width="1" height="1" fill="#9b9b9a"/>
<rect x="3" y="9" width="1" height="1" fill="#a2a2a2"/>
<rect x="23" y="9" width="1" height="1" fill="#9d9c9c"/>
<rect x="1" y="9" width="1" height="1" fill="#a0a0a0"/>
<rect x="7" y="9" width="1" height="1" fill="#a3a3a3"/>
<rect x="10" y="9" width="1" height="1" fill="#a0a0a0"/>
<rect x="4" y="9" width="2" height="1" fill="#a3a3a3"/>
<rect x="24" y="9" width="3" height="1" fill="#999999"/>
<rect x="15" y="9" width="1" height="1" fill="#b0b0b0"/>
<rect x="30" y="9" width="1" height="1" fill="#a5a5a5"/>
<rect x="8" y="9" width="2" height="1" fill="#a2a2a2"/>
<rect x="16" y="9" width="2" height="1" fill="#b1b1b1"/>
<rect x="0" y="9" width="1" height="1" fill="#9f9f9f"/>
<rect x="20" y="9" width="3" height="2" fill="#a7a7a7"/>
<rect x="8" y="10" width="1" height="1" fill="#a0a0a0"/>
<rect x="23" y="10" width="1" height="1" fill="#9e9e9e"/>
<rect x="0" y="10" width="2" height="1" fill="#aaaaaa"/>
<rect x="28" y="10" width="2" height="1" fill="#a2a2a2"/>
<rect x="30" y="10" width="1" height="1" fill="#9f9f9f"/>
<rect x="5" y="10" width="1" height="1" fill="#a6a6a6"/>
<rect x="3" y="10" width="2" height="1" fill="#a7a7a7"/>
<rect x="24" y="10" width="1" height="1" fill="#999999"/>
<rect x="27" y="10" width="1" height="1" fill="#9f9f9f"/>
<rect x="25" y="10" width="2" height="1" fill="#9b9b9a"/>
<rect x="14" y="9" width="1" height="3" fill="#9b9b9a"/>
<rect x="11" y="9" width="3" height="3" fill="#999999"/>
<rect x="19" y="10" width="1" height="2" fill="#a9a9a9"/>
<rect x="10" y="10" width="1" height="2" fill="#9f9f9f"/>
<rect x="31" y="10" width="1" height="2" fill="#999999"/>
<rect x="3" y="11" width="1" height="1" fill="#a6a6a6"/>
<rect x="24" y="11" width="3" height="1" fill="#9f9f9f"/>
<rect x="20" y="11" width="2" height="1" fill="#a6a6a6"/>
<rect x="23" y="11" width="1" height="1" fill="#a2a2a2"/>
<rect x="28" y="11" width="2" height="1" fill="#9f9f9f"/>
<rect x="27" y="11" width="1" height="1" fill="#9e9e9e"/>
<rect x="4" y="11" width="2" height="1" fill="#a7a7a7"/>
<rect x="22" y="11" width="1" height="1" fill="#a7a7a7"/>
<rect x="6" y="9" width="1" height="4" fill="#a4a4a4"/>
<rect x="2" y="10" width="1" height="3" fill="#a9a9a9"/>
<rect x="30" y="11" width="1" height="2" fill="#9e9e9e"/>
<rect x="0" y="11" width="2" height="2" fill="#acacac"/>
<rect x="23" y="12" width="1" height="1" fill="#a3a3a3"/>
<rect x="31" y="12" width="1" height="1" fill="#9b9b9a"/>
<rect x="14" y="12" width="1" height="1" fill="#a5a5a5"/>
<rect x="12" y="12" width="1" height="1" fill="#a2a2a2"/>
<rect x="22" y="12" width="1" height="1" fill="#a6a6a6"/>
<rect x="20" y="12" width="2" height="1" fill="#a7a7a7"/>
<rect x="28" y="12" width="1" height="1" fill="#9e9e9e"/>
<rect x="29" y="12" width="1" height="1" fill="#9f9f9f"/>
<rect x="10" y="12" width="2" height="1" fill="#a0a0a0"/>
<rect x="13" y="12" width="1" height="1" fill="#a4a4a4"/>
<rect x="24" y="12" width="4" height="1" fill="#9f9f9f"/>
<rect x="3" y="12" width="3" height="1" fill="#a7a7a7"/>
<rect x="7" y="11" width="1" height="3" fill="#a0a0a0"/>
<rect x="23" y="13" width="1" height="1" fill="#a4a4a4"/>
<rect x="11" y="13" width="3" height="1" fill="#a7a7a7"/>
<rect x="26" y="13" width="3" height="1" fill="#9f9f9f"/>
<rect x="31" y="13" width="1" height="1" fill="#a0a0a0"/>
<rect x="24" y="13" width="2" height="1" fill="#9e9e9e"/>
<rect x="29" y="13" width="1" height="1" fill="#a0a0a0"/>
<rect x="3" y="13" width="1" height="1" fill="#a3a3a3"/>
<rect x="4" y="13" width="1" height="1" fill="#a2a2a2"/>
<rect x="2" y="13" width="1" height="1" fill="#a5a5a5"/>
<rect x="20" y="13" width="3" height="1" fill="#a7a7a7"/>
<rect x="1" y="13" width="1" height="1" fill="#a7a7a7"/>
<rect x="0" y="13" width="1" height="1" fill="#a9a9a9"/>
<rect x="16" y="10" width="3" height="5" fill="#b1b1b1"/>
<rect x="15" y="10" width="1" height="5" fill="#afafaf"/>
<rect x="19" y="12" width="1" height="3" fill="#aaaaaa"/>
<rect x="14" y="13" width="1" height="2" fill="#a6a6a6"/>
<rect x="23" y="14" width="1" height="1" fill="#a3a3a3"/>
<rect x="28" y="14" width="1" height="1" fill="#afafaf"/>
<rect x="20" y="14" width="2" height="1" fill="#a6a6a6"/>
<rect x="12" y="14" width="2" height="1" fill="#a7a7a7"/>
<rect x="26" y="14" width="1" height="1" fill="#9e9e9e"/>
<rect x="11" y="14" width="1" height="1" fill="#a6a6a6"/>
<rect x="27" y="14" width="1" height="1" fill="#a0a0a0"/>
<rect x="0" y="14" width="3" height="1" fill="#a0a0a0"/>
<rect x="22" y="14" width="1" height="1" fill="#a5a5a5"/>
<rect x="6" y="14" width="2" height="1" fill="#a0a0a0"/>
<rect x="24" y="14" width="1" height="1" fill="#9e9e9e"/>
<rect x="29" y="14" width="2" height="1" fill="#b0b0b0"/>
<rect x="25" y="14" width="1" height="1" fill="#9f9f9f"/>
<rect x="31" y="14" width="1" height="2" fill="#acacac"/>
<rect x="23" y="15" width="1" height="1" fill="#9e9e9e"/>
<rect x="19" y="15" width="1" height="1" fill="#a5a5a5"/>
<rect x="6" y="15" width="1" height="1" fill="#a0a0a0"/>
<rect x="12" y="15" width="1" height="1" fill="#a6a6a6"/>
<rect x="21" y="15" width="2" height="1" fill="#9f9f9f"/>
<rect x="17" y="15" width="1" height="1" fill="#aaaaaa"/>
<rect x="9" y="15" width="1" height="1" fill="#a0a0a0"/>
<rect x="16" y="15" width="1" height="1" fill="#acacac"/>
<rect x="18" y="15" width="1" height="1" fill="#a9a9a9"/>
<rect x="28" y="15" width="1" height="1" fill="#b0b0b0"/>
<rect x="20" y="15" width="1" height="1" fill="#a0a0a0"/>
<rect x="13" y="15" width="2" height="1" fill="#a7a7a7"/>
<rect x="11" y="15" width="1" height="1" fill="#a7a7a7"/>
<rect x="15" y="15" width="1" height="1" fill="#aaaaaa"/>
<rect x="24" y="15" width="4" height="1" fill="#9f9f9f"/>
<rect x="0" y="15" width="2" height="1" fill="#a0a0a0"/>
<rect x="29" y="15" width="1" height="2" fill="#b1b1b1"/>
<rect x="30" y="15" width="1" height="2" fill="#b0b0b0"/>
<rect x="17" y="16" width="2" height="1" fill="#a7a7a7"/>
<rect x="13" y="16" width="1" height="1" fill="#a6a6a6"/>
<rect x="20" y="16" width="4" height="1" fill="#9f9f9f"/>
<rect x="14" y="16" width="2" height="1" fill="#a7a7a7"/>
<rect x="16" y="16" width="1" height="1" fill="#a6a6a6"/>
<rect x="28" y="16" width="1" height="1" fill="#afafaf"/>
<rect x="27" y="16" width="1" height="1" fill="#9f9f9f"/>
<rect x="1" y="16" width="1" height="1" fill="#a0a0a0"/>
<rect x="7" y="16" width="4" height="1" fill="#a0a0a0"/>
<rect x="24" y="16" width="1" height="1" fill="#9e9e9e"/>
<rect x="26" y="16" width="1" height="1" fill="#9e9e9e"/>
<rect x="12" y="16" width="1" height="1" fill="#a7a7a7"/>
<rect x="31" y="16" width="1" height="1" fill="#afafaf"/>
<rect x="25" y="16" width="1" height="1" fill="#9f9f9f"/>
<rect x="19" y="16" width="1" height="2" fill="#a4a4a4"/>
<rect x="26" y="17" width="2" height="1" fill="#9f9f9f"/>
<rect x="2" y="17" width="1" height="1" fill="#a2a2a2"/>
<rect x="24" y="17" width="1" height="1" fill="#9f9f9f"/>
<rect x="31" y="17" width="1" height="1" fill="#a4a4a4"/>
<rect x="3" y="17" width="1" height="1" fill="#a0a0a0"/>
<rect x="10" y="17" width="1" height="1" fill="#a0a0a0"/>
<rect x="12" y="17" width="7" height="1" fill="#a7a7a7"/>
<rect x="21" y="17" width="1" height="1" fill="#9e9e9e"/>
<rect x="25" y="17" width="1" height="1" fill="#9e9e9e"/>
<rect x="1" y="17" width="1" height="1" fill="#a4a4a4"/>
<rect x="23" y="17" width="1" height="1" fill="#9e9e9e"/>
<rect x="30" y="17" width="1" height="1" fill="#a9a9a9"/>
<rect x="22" y="17" width="1" height="1" fill="#9f9f9f"/>
<rect x="0" y="17" width="1" height="1" fill="#a3a3a3"/>
<rect x="28" y="17" width="2" height="1" fill="#aaaaaa"/>
<rect x="20" y="17" width="1" height="1" fill="#9f9f9f"/>
<rect x="26" y="18" width="2" height="1" fill="#a3a3a3"/>
<rect x="30" y="18" width="1" height="1" fill="#9e9e9e"/>
<rect x="12" y="18" width="6" height="1" fill="#a7a7a7"/>
<rect x="24" y="18" width="1" height="1" fill="#a3a3a3"/>
<rect x="23" y="18" width="1" height="1" fill="#a9a9a9"/>
<rect x="25" y="18" width="1" height="1" fill="#a2a2a2"/>
<rect x="22" y="18" width="1" height="1" fill="#a7a7a7"/>
<rect x="18" y="18" width="1" height="1" fill="#a6a6a6"/>
<rect x="20" y="18" width="1" height="1" fill="#a2a2a2"/>
<rect x="21" y="18" width="1" height="1" fill="#a4a4a4"/>
<rect x="31" y="18" width="1" height="1" fill="#9d9c9c"/>
<rect x="29" y="18" width="1" height="1" fill="#9f9f9f"/>
<rect x="19" y="18" width="1" height="1" fill="#a5a5a5"/>
<rect x="11" y="16" width="1" height="4" fill="#a6a6a6"/>
<rect x="0" y="18" width="2" height="2" fill="#a7a7a7"/>
<rect x="23" y="19" width="1" height="1" fill="#b0b0b0"/>
<rect x="24" y="19" width="1" height="1" fill="#a5a5a5"/>
<rect x="15" y="19" width="1" height="1" fill="#a4a4a4"/>
<rect x="17" y="19" width="1" height="1" fill="#a0a0a0"/>
<rect x="12" y="19" width="2" height="1" fill="#a7a7a7"/>
<rect x="19" y="19" width="1" height="1" fill="#a2a2a2"/>
<rect x="22" y="19" width="1" height="1" fill="#b1b1b1"/>
<rect x="14" y="19" width="1" height="1" fill="#a6a6a6"/>
<rect x="25" y="19" width="3" height="1" fill="#a4a4a4"/>
<rect x="7" y="19" width="3" height="1" fill="#a0a0a0"/>
<rect x="2" y="18" width="1" height="3" fill="#a3a3a3"/>
<rect x="18" y="19" width="1" height="2" fill="#9f9f9f"/>
<rect x="20" y="19" width="1" height="2" fill="#b1b1b1"/>
<rect x="21" y="19" width="1" height="2" fill="#b0b0b0"/>
<rect x="29" y="19" width="2" height="2" fill="#9f9f9f"/>
<rect x="8" y="20" width="1" height="1" fill="#a7a7a7"/>
<rect x="24" y="20" width="1" height="1" fill="#a6a6a6"/>
<rect x="9" y="20" width="1" height="1" fill="#a8a8a8"/>
<rect x="7" y="20" width="1" height="1" fill="#a6a6a6"/>
<rect x="16" y="20" width="2" height="1" fill="#9e9e9e"/>
<rect x="1" y="20" width="1" height="1" fill="#a7a7a7"/>
<rect x="0" y="20" width="1" height="1" fill="#a6a6a6"/>
<rect x="28" y="20" width="1" height="1" fill="#a2a2a2"/>
<rect x="22" y="20" width="2" height="1" fill="#b1b1b1"/>
<rect x="25" y="20" width="3" height="1" fill="#a3a3a3"/>
<rect x="15" y="20" width="1" height="2" fill="#a3a3a3"/>
<rect x="10" y="20" width="1" height="2" fill="#a9a9a9"/>
<rect x="5" y="21" width="1" height="1" fill="#a0a0a0"/>
<rect x="7" y="21" width="1" height="1" fill="#a9a9a9"/>
<rect x="0" y="21" width="2" height="1" fill="#aaaaaa"/>
<rect x="19" y="21" width="1" height="1" fill="#a0a0a0"/>
<rect x="29" y="21" width="1" height="1" fill="#9f9f9f"/>
<rect x="26" y="21" width="2" height="1" fill="#a2a2a2"/>
<rect x="20" y="21" width="1" height="1" fill="#b0b0b0"/>
<rect x="25" y="21" width="1" height="1" fill="#a3a3a3"/>
<rect x="16" y="21" width="3" height="1" fill="#9f9f9f"/>
<rect x="24" y="21" width="1" height="1" fill="#a7a7a7"/>
<rect x="30" y="21" width="1" height="1" fill="#a0a0a0"/>
<rect x="21" y="21" width="3" height="1" fill="#b1b1b1"/>
<rect x="8" y="21" width="2" height="1" fill="#aaaaaa"/>
<rect x="11" y="20" width="4" height="3" fill="#a7a7a7"/>
<rect x="0" y="22" width="1" height="1" fill="#aaaaaa"/>
<rect x="20" y="22" width="1" height="1" fill="#aaaaaa"/>
<rect x="16" y="22" width="2" height="1" fill="#9f9f9f"/>
<rect x="15" y="22" width="1" height="1" fill="#a4a4a4"/>
<rect x="23" y="22" width="1" height="1" fill="#a4a4a4"/>
<rect x="8" y="22" width="3" height="1" fill="#a9a9a9"/>
<rect x="1" y="22" width="1" height="1" fill="#acacac"/>
<rect x="18" y="22" width="2" height="1" fill="#9e9e9e"/>
<rect x="21" y="22" width="1" height="1" fill="#a8a8a8"/>
<rect x="25" y="22" width="6" height="1" fill="#9f9f9f"/>
<rect x="22" y="22" width="1" height="1" fill="#a6a6a6"/>
<rect x="31" y="19" width="1" height="5" fill="#9e9e9e"/>
<rect x="2" y="21" width="1" height="3" fill="#a5a5a5"/>
<rect x="6" y="21" width="1" height="3" fill="#a2a2a2"/>
<rect x="7" y="22" width="1" height="2" fill="#aaaaaa"/>
<rect x="15" y="23" width="1" height="1" fill="#a0a0a0"/>
<rect x="16" y="23" width="2" height="1" fill="#989797"/>
<rect x="14" y="23" width="1" height="1" fill="#a3a3a3"/>
<rect x="22" y="23" width="9" height="1" fill="#9f9f9f"/>
<rect x="10" y="23" width="1" height="1" fill="#a8a8a8"/>
<rect x="11" y="23" width="1" height="1" fill="#a6a6a6"/>
<rect x="18" y="23" width="2" height="1" fill="#959595"/>
<rect x="8" y="23" width="2" height="1" fill="#a9a9a9"/>
<rect x="20" y="23" width="2" height="1" fill="#9e9e9e"/>
<rect x="13" y="23" width="1" height="1" fill="#a4a4a4"/>
<rect x="12" y="23" width="1" height="1" fill="#a5a5a5"/>
<rect x="0" y="23" width="2" height="2" fill="#acacac"/>
<rect x="4" y="24" width="1" height="1" fill="#a5a5a5"/>
<rect x="22" y="24" width="5" height="1" fill="#9e9e9e"/>
<rect x="6" y="24" width="1" height="1" fill="#a8a8a8"/>
<rect x="5" y="24" width="1" height="1" fill="#a7a7a7"/>
<rect x="7" y="24" width="1" height="1" fill="#a3a3a3"/>
<rect x="12" y="24" width="3" height="1" fill="#a0a0a0"/>
<rect x="17" y="24" width="2" height="1" fill="#989797"/>
<rect x="20" y="24" width="1" height="1" fill="#9d9c9c"/>
<rect x="19" y="24" width="1" height="1" fill="#959595"/>
<rect x="3" y="24" width="1" height="1" fill="#a3a3a3"/>
<rect x="21" y="24" width="1" height="1" fill="#9f9f9f"/>
<rect x="16" y="24" width="1" height="1" fill="#959595"/>
<rect x="27" y="24" width="5" height="1" fill="#9d9c9c"/>
<rect x="2" y="24" width="1" height="1" fill="#a6a6a6"/>
<rect x="8" y="24" width="1" height="1" fill="#a2a2a2"/>
<rect x="15" y="24" width="1" height="2" fill="#9e9e9e"/>
<rect x="26" y="25" width="1" height="1" fill="#9f9e9e"/>
<rect x="4" y="25" width="2" height="1" fill="#b1b1b1"/>
<rect x="11" y="25" width="2" height="1" fill="#a0a0a0"/>
<rect x="31" y="25" width="1" height="1" fill="#9b9b9a"/>
<rect x="21" y="25" width="4" height="1" fill="#9d9c9c"/>
<rect x="2" y="25" width="1" height="1" fill="#b1b1b1"/>
<rect x="27" y="25" width="2" height="1" fill="#a1a0a0"/>
<rect x="25" y="25" width="1" height="1" fill="#9e9e9e"/>
<rect x="3" y="25" width="1" height="1" fill="#b0b0b0"/>
<rect x="29" y="25" width="1" height="1" fill="#9f9e9e"/>
<rect x="0" y="25" width="2" height="1" fill="#b5b5b5"/>
<rect x="30" y="25" width="1" height="1" fill="#9d9c9c"/>
<rect x="14" y="25" width="1" height="1" fill="#a0a0a0"/>
<rect x="16" y="25" width="4" height="1" fill="#959595"/>
<rect x="6" y="25" width="1" height="2" fill="#afafaf"/>
<rect x="20" y="25" width="1" height="2" fill="#9b9b9a"/>
<rect x="15" y="26" width="1" height="1" fill="#9d9c9c"/>
<rect x="23" y="26" width="1" height="1" fill="#989797"/>
<rect x="21" y="26" width="1" height="1" fill="#9d9c9c"/>
<rect x="27" y="26" width="2" height="1" fill="#959595"/>
<rect x="29" y="26" width="3" height="1" fill="#919191"/>
<rect x="25" y="26" width="2" height="1" fill="#999999"/>
<rect x="12" y="26" width="3" height="1" fill="#9e9e9e"/>
<rect x="24" y="26" width="1" height="1" fill="#959595"/>
<rect x="11" y="26" width="1" height="1" fill="#9f9f9f"/>
<rect x="16" y="26" width="3" height="1" fill="#959595"/>
<rect x="3" y="26" width="3" height="1" fill="#b1b1b1"/>
<rect x="7" y="26" width="4" height="1" fill="#a0a0a0"/>
<rect x="19" y="26" width="1" height="1" fill="#989797"/>
<rect x="0" y="26" width="3" height="1" fill="#b5b5b5"/>
<rect x="22" y="26" width="1" height="1" fill="#999999"/>
<rect x="16" y="27" width="1" height="1" fill="#919191"/>
<rect x="3" y="27" width="3" height="1" fill="#afafaf"/>
<rect x="12" y="27" width="1" height="1" fill="#a09f9f"/>
<rect x="29" y="27" width="3" height="1" fill="#8d8d8d"/>
<rect x="10" y="27" width="1" height="1" fill="#a09f9f"/>
<rect x="11" y="27" width="1" height="1" fill="#a1a0a0"/>
<rect x="14" y="27" width="1" height="1" fill="#9d9c9c"/>
<rect x="7" y="27" width="3" height="1" fill="#9e9e9e"/>
<rect x="17" y="27" width="1" height="1" fill="#8d8d8d"/>
<rect x="15" y="27" width="1" height="1" fill="#999999"/>
<rect x="18" y="27" width="8" height="1" fill="#888887"/>
<rect x="26" y="27" width="3" height="1" fill="#919191"/>
<rect x="13" y="27" width="1" height="1" fill="#9f9e9e"/>
<rect x="6" y="27" width="1" height="1" fill="#acacac"/>
<rect x="2" y="27" width="1" height="2" fill="#b1b1b1"/>
<rect x="0" y="27" width="2" height="2" fill="#b5b5b5"/>
<rect x="15" y="28" width="2" height="1" fill="#888887"/>
<rect x="8" y="28" width="2" height="1" fill="#a2a2a2"/>
<rect x="3" y="28" width="1" height="1" fill="#afafaf"/>
<rect x="22" y="28" width="4" height="1" fill="#838383"/>
<rect x="13" y="28" width="2" height="1" fill="#8d8d8d"/>
<rect x="7" y="28" width="1" height="1" fill="#a3a3a3"/>
<rect x="26" y="28" width="1" height="1" fill="#888887"/>
<rect x="27" y="28" width="5" height="1" fill="#8d8d8d"/>
<rect x="4" y="28" width="1" height="1" fill="#acacac"/>
<rect x="5" y="28" width="1" height="1" fill="#aaaaaa"/>
<rect x="10" y="28" width="1" height="1" fill="#a1a0a0"/>
<rect x="18" y="28" width="4" height="1" fill="#7e7e7e"/>
<rect x="11" y="28" width="1" height="1" fill="#9d9c9c"/>
<rect x="17" y="28" width="1" height="1" fill="#838383"/>
<rect x="6" y="28" width="1" height="1" fill="#a8a7a7"/>
<rect x="12" y="28" width="1" height="2" fill="#919191"/>
<rect x="4" y="29" width="1" height="1" fill="#989797"/>
<rect x="23" y="29" width="4" height="1" fill="#838383"/>
<rect x="3" y="29" width="1" height="1" fill="#999999"/>
<rect x="2" y="29" width="1" height="1" fill="#9f9f9e"/>
<rect x="13" y="29" width="3" height="1" fill="#888887"/>
<rect x="10" y="29" width="2" height="1" fill="#989797"/>
<rect x="5" y="29" width="3" height="1" fill="#959595"/>
<rect x="0" y="29" width="1" height="1" fill="#a8a7a7"/>
<rect x="27" y="29" width="1" height="1" fill="#888887"/>
<rect x="16" y="29" width="2" height="1" fill="#838383"/>
<rect x="1" y="29" width="1" height="1" fill="#a4a4a4"/>
<rect x="8" y="29" width="2" height="1" fill="#999999"/>
<rect x="18" y="29" width="5" height="2" fill="#7e7e7e"/>
<rect x="0" y="30" width="2" height="1" fill="#989797"/>
<rect x="11" y="30" width="1" height="1" fill="#919191"/>
<rect x="2" y="30" width="1" height="1" fill="#959595"/>
<rect x="13" y="30" width="1" height="1" fill="#8d8d8d"/>
<rect x="8" y="30" width="1" height="1" fill="#919191"/>
<rect x="7" y="30" width="1" height="1" fill="#8d8d8d"/>
<rect x="14" y="30" width="4" height="1" fill="#838383"/>
<rect x="23" y="30" width="5" height="1" fill="#838383"/>
<rect x="12" y="30" width="1" height="1" fill="#959595"/>
<rect x="3" y="30" width="4" height="1" fill="#919191"/>
<rect x="9" y="30" width="2" height="1" fill="#959595"/>
<rect x="28" y="29" width="4" height="3" fill="#8d8d8d"/>
<rect x="15" y="31" width="4" height="1" fill="#838383"/>
<rect x="24" y="31" width="3" height="1" fill="#838383"/>
<rect x="12" y="31" width="2" height="1" fill="#919191"/>
<rect x="5" y="31" width="4" height="1" fill="#8d8d8d"/>
<rect x="0" y="31" width="5" height="1" fill="#919191"/>
<rect x="9" y="31" width="1" height="1" fill="#919191"/>
<rect x="14" y="31" width="1" height="1" fill="#888887"/>
<rect x="27" y="31" width="1" height="1" fill="#888887"/>
<rect x="19" y="31" width="5" height="1" fill="#7e7e7e"/>
<rect x="10" y="31" width="2" height="1" fill="#959595"/>
</svg>