<?xml version="1.0" encoding="UTF-8"?>
<svg xmlns="http://www.w3.org/2000/svg" width="20mm" height="20mm" viewBox="0 0 32 32" shape-rendering="crispEdges">
<title>052 正面 structured semantic redraw</title>
<metadata>registered 32-unit semantic vector redraw; no embedded raster; physical-size=20mm</metadata>
<rect x="0" y="0" width="32" height="32" fill="#324c7f"/>
<rect x="5" y="0" width="3" height="1" fill="#32508d"/>
<rect x="9" y="0" width="9" height="1" fill="#385996"/>
<rect x="4" y="0" width="1" height="1" fill="#314d87"/>
<rect x="8" y="0" width="1" height="1" fill="#375690"/>
<rect x="2" y="0" width="2" height="1" fill="#324d82"/>
<rect x="18" y="0" width="14" height="1" fill="#46628c"/>
<rect x="0" y="0" width="2" height="2" fill="#32508d"/>
<rect x="23" y="1" width="1" height="1" fill="#375690"/>
<rect x="22" y="1" width="1" height="1" fill="#385996"/>
<rect x="30" y="1" width="2" height="1" fill="#375690"/>
<rect x="9" y="1" width="1" height="1" fill="#324b7e"/>
<rect x="27" y="1" width="2" height="1" fill="#375690"/>
<rect x="7" y="1" width="2" height="1" fill="#31467a"/>
<rect x="3" y="1" width="2" height="1" fill="#324c7e"/>
<rect x="25" y="1" width="2" height="1" fill="#385996"/>
<rect x="29" y="1" width="1" height="1" fill="#32508d"/>
<rect x="14" y="1" width="3" height="1" fill="#314d87"/>
<rect x="17" y="1" width="4" height="1" fill="#355186"/>
<rect x="11" y="1" width="3" height="1" fill="#355186"/>
<rect x="21" y="1" width="1" height="1" fill="#375690"/>
<rect x="24" y="1" width="1" height="1" fill="#32508d"/>
<rect x="6" y="1" width="1" height="1" fill="#324b7e"/>
<rect x="26" y="2" width="3" height="1" fill="#314d87"/>
<rect x="11" y="2" width="2" height="1" fill="#355186"/>
<rect x="25" y="2" width="1" height="1" fill="#324d82"/>
<rect x="5" y="2" width="2" height="1" fill="#324d7f"/>
<rect x="8" y="2" width="1" height="1" fill="#31467b"/>
<rect x="4" y="2" width="1" height="1" fill="#324d82"/>
<rect x="2" y="2" width="2" height="1" fill="#314d87"/>
<rect x="21" y="2" width="3" height="1" fill="#31467b"/>
<rect x="30" y="2" width="2" height="1" fill="#314d87"/>
<rect x="7" y="2" width="1" height="1" fill="#31477b"/>
<rect x="15" y="2" width="1" height="1" fill="#314a7d"/>
<rect x="9" y="2" width="2" height="1" fill="#324b7e"/>
<rect x="24" y="2" width="1" height="1" fill="#31487e"/>
<rect x="13" y="2" width="1" height="1" fill="#324d7f"/>
<rect x="14" y="2" width="1" height="1" fill="#324c7e"/>
<rect x="29" y="2" width="1" height="1" fill="#314680"/>
<rect x="16" y="2" width="1" height="1" fill="#31467a"/>
<rect x="17" y="2" width="4" height="1" fill="#31457a"/>
<rect x="16" y="3" width="1" height="1" fill="#314a7d"/>
<rect x="17" y="3" width="1" height="1" fill="#31467b"/>
<rect x="25" y="3" width="1" height="1" fill="#314a7d"/>
<rect x="10" y="3" width="1" height="1" fill="#31467a"/>
<rect x="11" y="3" width="1" height="1" fill="#324b7e"/>
<rect x="27" y="3" width="1" height="1" fill="#324c7e"/>
<rect x="28" y="3" width="1" height="1" fill="#31487e"/>
<rect x="18" y="3" width="2" height="1" fill="#30447e"/>
<rect x="12" y="3" width="3" height="1" fill="#324d7f"/>
<rect x="20" y="3" width="1" height="1" fill="#31467b"/>
<rect x="29" y="3" width="1" height="1" fill="#303f84"/>
<rect x="21" y="3" width="4" height="1" fill="#31457a"/>
<rect x="7" y="3" width="2" height="1" fill="#324c7e"/>
<rect x="30" y="3" width="1" height="1" fill="#2f3e7e"/>
<rect x="15" y="3" width="1" height="1" fill="#324c7e"/>
<rect x="4" y="3" width="3" height="2" fill="#355186"/>
<rect x="9" y="3" width="1" height="2" fill="#31477b"/>
<rect x="2" y="3" width="2" height="2" fill="#32508d"/>
<rect x="15" y="4" width="1" height="1" fill="#324d7f"/>
<rect x="18" y="4" width="3" height="1" fill="#303f84"/>
<rect x="10" y="4" width="1" height="1" fill="#31457a"/>
<rect x="25" y="4" width="2" height="1" fill="#31477b"/>
<rect x="24" y="4" width="1" height="1" fill="#31467a"/>
<rect x="30" y="4" width="1" height="1" fill="#30417e"/>
<rect x="13" y="4" width="1" height="1" fill="#324d7f"/>
<rect x="29" y="4" width="1" height="1" fill="#314680"/>
<rect x="11" y="4" width="1" height="1" fill="#314a7d"/>
<rect x="14" y="4" width="1" height="1" fill="#355186"/>
<rect x="17" y="4" width="1" height="2" fill="#314680"/>
<rect x="21" y="4" width="2" height="2" fill="#303f83"/>
<rect x="27" y="4" width="1" height="2" fill="#324b7e"/>
<rect x="23" y="4" width="1" height="2" fill="#30437f"/>
<rect x="24" y="5" width="3" height="1" fill="#31467a"/>
<rect x="13" y="5" width="2" height="1" fill="#324d7f"/>
<rect x="19" y="5" width="1" height="1" fill="#304083"/>
<rect x="16" y="5" width="1" height="1" fill="#314a7d"/>
<rect x="18" y="5" width="1" height="1" fill="#304182"/>
<rect x="10" y="5" width="1" height="1" fill="#314d87"/>
<rect x="30" y="5" width="1" height="1" fill="#31487e"/>
<rect x="5" y="5" width="5" height="1" fill="#32508d"/>
<rect x="15" y="5" width="1" height="1" fill="#324c7e"/>
<rect x="20" y="5" width="1" height="2" fill="#303f84"/>
<rect x="11" y="5" width="1" height="2" fill="#324d82"/>
<rect x="2" y="5" width="3" height="2" fill="#355186"/>
<rect x="27" y="6" width="1" height="1" fill="#31467b"/>
<rect x="26" y="6" width="1" height="1" fill="#304182"/>
<rect x="24" y="6" width="1" height="1" fill="#324b7e"/>
<rect x="16" y="6" width="2" height="1" fill="#31457a"/>
<rect x="25" y="6" width="1" height="1" fill="#30437f"/>
<rect x="15" y="6" width="1" height="1" fill="#314a7d"/>
<rect x="21" y="6" width="1" height="1" fill="#303e81"/>
<rect x="14" y="6" width="1" height="1" fill="#324c7e"/>
<rect x="30" y="6" width="1" height="1" fill="#31457a"/>
<rect x="28" y="6" width="2" height="1" fill="#31477b"/>
<rect x="5" y="6" width="6" height="1" fill="#32508d"/>
<rect x="22" y="6" width="1" height="2" fill="#2f3d7d"/>
<rect x="18" y="6" width="1" height="2" fill="#31467a"/>
<rect x="19" y="6" width="1" height="2" fill="#30447e"/>
<rect x="23" y="6" width="1" height="2" fill="#30447e"/>
<rect x="25" y="7" width="1" height="1" fill="#314680"/>
<rect x="24" y="7" width="1" height="1" fill="#324c7e"/>
<rect x="15" y="7" width="1" height="1" fill="#31477b"/>
<rect x="14" y="7" width="1" height="1" fill="#314a7d"/>
<rect x="16" y="7" width="2" height="1" fill="#30447e"/>
<rect x="20" y="7" width="2" height="1" fill="#303f82"/>
<rect x="28" y="7" width="1" height="1" fill="#31467a"/>
<rect x="26" y="7" width="1" height="1" fill="#303f84"/>
<rect x="7" y="7" width="5" height="1" fill="#324d82"/>
<rect x="13" y="7" width="1" height="1" fill="#324b7e"/>
<rect x="27" y="7" width="1" height="1" fill="#30447e"/>
<rect x="4" y="7" width="1" height="2" fill="#324d82"/>
<rect x="3" y="7" width="1" height="2" fill="#324c7e"/>
<rect x="2" y="7" width="1" height="2" fill="#314d87"/>
<rect x="5" y="7" width="2" height="2" fill="#32508d"/>
<rect x="9" y="8" width="1" height="1" fill="#324c7e"/>
<rect x="28" y="8" width="1" height="1" fill="#304182"/>
<rect x="14" y="8" width="1" height="1" fill="#31457a"/>
<rect x="27" y="8" width="1" height="1" fill="#30437f"/>
<rect x="18" y="8" width="2" height="1" fill="#31467a"/>
<rect x="16" y="8" width="1" height="1" fill="#303f83"/>
<rect x="26" y="8" width="1" height="1" fill="#31487e"/>
<rect x="17" y="8" width="1" height="1" fill="#304182"/>
<rect x="23" y="8" width="1" height="1" fill="#303e81"/>
<rect x="29" y="7" width="1" height="3" fill="#31457a"/>
<rect x="30" y="7" width="1" height="3" fill="#30447a"/>
<rect x="21" y="8" width="1" height="2" fill="#30447e"/>
<rect x="25" y="8" width="1" height="2" fill="#30447e"/>
<rect x="13" y="8" width="1" height="2" fill="#314a7d"/>
<rect x="15" y="8" width="1" height="2" fill="#30447e"/>
<rect x="22" y="8" width="1" height="2" fill="#303f83"/>
<rect x="20" y="8" width="1" height="2" fill="#31467b"/>
<rect x="24" y="8" width="1" height="2" fill="#2f3e7e"/>
<rect x="14" y="9" width="1" height="1" fill="#31477b"/>
<rect x="9" y="9" width="2" height="1" fill="#314a7d"/>
<rect x="11" y="9" width="1" height="1" fill="#324b7e"/>
<rect x="5" y="9" width="2" height="1" fill="#314a81"/>
<rect x="16" y="9" width="1" height="1" fill="#304182"/>
<rect x="18" y="9" width="2" height="1" fill="#31457a"/>
<rect x="27" y="9" width="1" height="1" fill="#304182"/>
<rect x="23" y="9" width="1" height="1" fill="#303f82"/>
<rect x="17" y="9" width="1" height="1" fill="#30417e"/>
<rect x="0" y="2" width="2" height="9" fill="#385996"/>
<rect x="2" y="9" width="2" height="2" fill="#32508d"/>
<rect x="4" y="9" width="1" height="2" fill="#314d87"/>
<rect x="17" y="10" width="1" height="1" fill="#30447e"/>
<rect x="18" y="10" width="1" height="1" fill="#303f84"/>
<rect x="6" y="10" width="1" height="1" fill="#31477b"/>
<rect x="21" y="10" width="1" height="1" fill="#314d87"/>
<rect x="25" y="10" width="1" height="1" fill="#2f3e7e"/>
<rect x="27" y="10" width="1" height="1" fill="#303f82"/>
<rect x="23" y="10" width="1" height="1" fill="#314680"/>
<rect x="19" y="10" width="1" height="1" fill="#304083"/>
<rect x="26" y="10" width="1" height="1" fill="#30417e"/>
<rect x="14" y="10" width="1" height="1" fill="#324c7e"/>
<rect x="20" y="10" width="1" height="1" fill="#32508d"/>
<rect x="11" y="10" width="1" height="1" fill="#314a7d"/>
<rect x="16" y="10" width="1" height="1" fill="#31467a"/>
<rect x="24" y="10" width="1" height="1" fill="#2f3d7d"/>
<rect x="5" y="10" width="1" height="1" fill="#31467a"/>
<rect x="28" y="9" width="1" height="3" fill="#303f84"/>
<rect x="10" y="10" width="1" height="2" fill="#31467b"/>
<rect x="9" y="10" width="1" height="2" fill="#31477b"/>
<rect x="15" y="10" width="1" height="2" fill="#314a7d"/>
<rect x="30" y="10" width="1" height="2" fill="#31457a"/>
<rect x="29" y="10" width="1" height="2" fill="#31467b"/>
<rect x="18" y="11" width="1" height="1" fill="#303f83"/>
<rect x="19" y="11" width="1" height="1" fill="#304182"/>
<rect x="17" y="11" width="1" height="1" fill="#31467b"/>
<rect x="24" y="11" width="2" height="1" fill="#2f3d7d"/>
<rect x="4" y="11" width="1" height="1" fill="#324d82"/>
<rect x="7" y="11" width="2" height="1" fill="#31487e"/>
<rect x="5" y="11" width="2" height="1" fill="#31477b"/>
<rect x="20" y="11" width="2" height="1" fill="#32508d"/>
<rect x="23" y="11" width="1" height="1" fill="#31487e"/>
<rect x="22" y="11" width="1" height="1" fill="#324b7e"/>
<rect x="0" y="11" width="1" height="1" fill="#385996"/>
<rect x="11" y="11" width="1" height="1" fill="#31477b"/>
<rect x="1" y="11" width="1" height="1" fill="#375690"/>
<rect x="12" y="11" width="3" height="1" fill="#324b7e"/>
<rect x="2" y="11" width="1" height="1" fill="#32508d"/>
<rect x="26" y="11" width="1" height="1" fill="#2f3e7e"/>
<rect x="3" y="11" width="1" height="1" fill="#314d87"/>
<rect x="16" y="11" width="1" height="1" fill="#31457a"/>
<rect x="8" y="12" width="1" height="1" fill="#2f3f84"/>
<rect x="28" y="12" width="2" height="1" fill="#304083"/>
<rect x="13" y="12" width="3" height="1" fill="#31467b"/>
<rect x="16" y="12" width="2" height="1" fill="#31467a"/>
<rect x="24" y="12" width="1" height="1" fill="#303f83"/>
<rect x="30" y="12" width="1" height="1" fill="#30417e"/>
<rect x="18" y="12" width="2" height="1" fill="#31467b"/>
<rect x="25" y="12" width="1" height="1" fill="#303e81"/>
<rect x="10" y="12" width="2" height="1" fill="#31467b"/>
<rect x="12" y="12" width="1" height="1" fill="#31467a"/>
<rect x="4" y="12" width="1" height="1" fill="#324c7e"/>
<rect x="7" y="12" width="1" height="1" fill="#304083"/>
<rect x="21" y="12" width="1" height="1" fill="#324d82"/>
<rect x="31" y="3" width="1" height="11" fill="#2e3d76"/>
<rect x="27" y="11" width="1" height="3" fill="#303e81"/>
<rect x="22" y="12" width="1" height="2" fill="#32508d"/>
<rect x="1" y="12" width="1" height="2" fill="#32508d"/>
<rect x="2" y="12" width="1" height="2" fill="#324d82"/>
<rect x="23" y="12" width="1" height="2" fill="#314d87"/>
<rect x="9" y="12" width="1" height="2" fill="#30447e"/>
<rect x="26" y="12" width="1" height="2" fill="#2f3d7d"/>
<rect x="0" y="12" width="1" height="2" fill="#375690"/>
<rect x="29" y="13" width="1" height="1" fill="#304083"/>
<rect x="8" y="13" width="1" height="1" fill="#304083"/>
<rect x="7" y="13" width="1" height="1" fill="#304182"/>
<rect x="25" y="13" width="1" height="1" fill="#303f82"/>
<rect x="28" y="13" width="1" height="1" fill="#303f84"/>
<rect x="16" y="13" width="4" height="1" fill="#31467a"/>
<rect x="3" y="13" width="1" height="1" fill="#324b7e"/>
<rect x="24" y="13" width="1" height="1" fill="#303f84"/>
<rect x="10" y="13" width="6" height="1" fill="#31467b"/>
<rect x="26" y="14" width="1" height="1" fill="#303f82"/>
<rect x="17" y="14" width="1" height="1" fill="#31457a"/>
<rect x="31" y="14" width="1" height="1" fill="#30447a"/>
<rect x="14" y="14" width="2" height="1" fill="#324b7e"/>
<rect x="10" y="14" width="3" height="1" fill="#31467b"/>
<rect x="18" y="14" width="3" height="1" fill="#304083"/>
<rect x="25" y="14" width="1" height="1" fill="#30437f"/>
<rect x="29" y="14" width="1" height="1" fill="#303f84"/>
<rect x="21" y="14" width="1" height="1" fill="#304182"/>
<rect x="28" y="14" width="1" height="1" fill="#304083"/>
<rect x="27" y="14" width="1" height="1" fill="#303f83"/>
<rect x="24" y="14" width="1" height="1" fill="#31467b"/>
<rect x="16" y="14" width="1" height="1" fill="#31467a"/>
<rect x="3" y="14" width="1" height="1" fill="#304083"/>
<rect x="30" y="13" width="1" height="3" fill="#303f83"/>
<rect x="4" y="14" width="1" height="2" fill="#304182"/>
<rect x="0" y="14" width="2" height="2" fill="#385996"/>
<rect x="9" y="14" width="1" height="2" fill="#31477b"/>
<rect x="2" y="14" width="1" height="2" fill="#314d87"/>
<rect x="13" y="14" width="1" height="2" fill="#31477b"/>
<rect x="31" y="15" width="1" height="1" fill="#31457a"/>
<rect x="25" y="15" width="1" height="1" fill="#30447e"/>
<rect x="23" y="15" width="1" height="1" fill="#324b7e"/>
<rect x="18" y="15" width="3" height="1" fill="#303f84"/>
<rect x="15" y="15" width="1" height="1" fill="#324b7e"/>
<rect x="21" y="15" width="1" height="1" fill="#304083"/>
<rect x="22" y="15" width="1" height="1" fill="#324c7e"/>
<rect x="26" y="15" width="4" height="1" fill="#303f84"/>
<rect x="16" y="15" width="2" height="1" fill="#31457a"/>
<rect x="5" y="15" width="1" height="1" fill="#324c7e"/>
<rect x="3" y="15" width="1" height="1" fill="#303f83"/>
<rect x="10" y="15" width="2" height="1" fill="#31467a"/>
<rect x="24" y="15" width="1" height="1" fill="#31467a"/>
<rect x="12" y="15" width="1" height="1" fill="#31467b"/>
<rect x="9" y="16" width="1" height="1" fill="#30437f"/>
<rect x="13" y="16" width="1" height="1" fill="#30417e"/>
<rect x="20" y="16" width="2" height="1" fill="#30447e"/>
<rect x="25" y="16" width="1" height="1" fill="#304083"/>
<rect x="5" y="16" width="2" height="1" fill="#31477b"/>
<rect x="3" y="16" width="2" height="1" fill="#31467b"/>
<rect x="2" y="16" width="1" height="1" fill="#324d82"/>
<rect x="10" y="16" width="1" height="1" fill="#304083"/>
<rect x="14" y="16" width="2" height="1" fill="#31477b"/>
<rect x="18" y="16" width="2" height="1" fill="#31487e"/>
<rect x="26" y="16" width="1" height="1" fill="#303f84"/>
<rect x="22" y="16" width="3" height="1" fill="#304182"/>
<rect x="28" y="16" width="1" height="1" fill="#2f3e7e"/>
<rect x="30" y="16" width="1" height="1" fill="#30447e"/>
<rect x="29" y="16" width="1" height="1" fill="#30417e"/>
<rect x="11" y="16" width="2" height="1" fill="#304182"/>
<rect x="16" y="16" width="2" height="1" fill="#324d7f"/>
<rect x="7" y="16" width="1" height="2" fill="#324b7e"/>
<rect x="8" y="16" width="1" height="2" fill="#324c7e"/>
<rect x="27" y="16" width="1" height="2" fill="#303e81"/>
<rect x="29" y="17" width="1" height="1" fill="#30447a"/>
<rect x="5" y="17" width="1" height="1" fill="#31467b"/>
<rect x="11" y="17" width="3" height="1" fill="#304083"/>
<rect x="21" y="17" width="1" height="1" fill="#31457a"/>
<rect x="22" y="17" width="2" height="1" fill="#303f83"/>
<rect x="16" y="17" width="2" height="1" fill="#355186"/>
<rect x="10" y="17" width="1" height="1" fill="#303f84"/>
<rect x="6" y="17" width="1" height="1" fill="#31467a"/>
<rect x="14" y="17" width="1" height="1" fill="#31467b"/>
<rect x="15" y="17" width="1" height="1" fill="#31477b"/>
<rect x="4" y="17" width="1" height="1" fill="#31467a"/>
<rect x="24" y="17" width="3" height="1" fill="#303f84"/>
<rect x="9" y="17" width="1" height="1" fill="#314680"/>
<rect x="20" y="17" width="1" height="1" fill="#31467a"/>
<rect x="30" y="17" width="1" height="1" fill="#31467a"/>
<rect x="28" y="17" width="1" height="1" fill="#2f3d7d"/>
<rect x="3" y="17" width="1" height="1" fill="#31467b"/>
<rect x="0" y="16" width="2" height="3" fill="#46628c"/>
<rect x="13" y="18" width="1" height="1" fill="#30447e"/>
<rect x="28" y="18" width="1" height="1" fill="#303e81"/>
<rect x="17" y="18" width="1" height="1" fill="#314a7d"/>
<rect x="12" y="18" width="1" height="1" fill="#30437f"/>
<rect x="22" y="18" width="2" height="1" fill="#30447e"/>
<rect x="26" y="18" width="2" height="1" fill="#2f3e7e"/>
<rect x="18" y="18" width="2" height="1" fill="#31477b"/>
<rect x="7" y="18" width="2" height="1" fill="#314d87"/>
<rect x="3" y="18" width="4" height="1" fill="#314a7d"/>
<rect x="20" y="18" width="1" height="1" fill="#30417e"/>
<rect x="9" y="18" width="1" height="1" fill="#314a81"/>
<rect x="29" y="18" width="2" height="1" fill="#304083"/>
<rect x="14" y="18" width="2" height="1" fill="#30417e"/>
<rect x="16" y="18" width="1" height="1" fill="#324b7e"/>
<rect x="10" y="18" width="2" height="1" fill="#314680"/>
<rect x="21" y="18" width="1" height="1" fill="#304182"/>
<rect x="24" y="18" width="2" height="1" fill="#303f83"/>
<rect x="31" y="16" width="1" height="4" fill="#2e3d76"/>
<rect x="16" y="19" width="3" height="1" fill="#31457a"/>
<rect x="27" y="19" width="1" height="1" fill="#2f3e7e"/>
<rect x="13" y="19" width="1" height="1" fill="#31457a"/>
<rect x="14" y="19" width="1" height="1" fill="#2f3e7e"/>
<rect x="22" y="19" width="2" height="1" fill="#31457a"/>
<rect x="25" y="19" width="1" height="1" fill="#303f82"/>
<rect x="24" y="19" width="1" height="1" fill="#303f83"/>
<rect x="7" y="19" width="2" height="1" fill="#32508d"/>
<rect x="15" y="19" width="1" height="1" fill="#2f3d7d"/>
<rect x="9" y="19" width="1" height="1" fill="#314d87"/>
<rect x="10" y="19" width="1" height="1" fill="#324c7e"/>
<rect x="12" y="19" width="1" height="1" fill="#31467a"/>
<rect x="11" y="19" width="1" height="1" fill="#314a7d"/>
<rect x="26" y="19" width="1" height="1" fill="#2f3d7d"/>
<rect x="2" y="17" width="1" height="4" fill="#324d7f"/>
<rect x="28" y="19" width="1" height="2" fill="#303f83"/>
<rect x="30" y="19" width="1" height="2" fill="#303f83"/>
<rect x="29" y="19" width="1" height="2" fill="#303f84"/>
<rect x="1" y="19" width="1" height="2" fill="#355186"/>
<rect x="0" y="19" width="1" height="2" fill="#46628c"/>
<rect x="7" y="20" width="3" height="1" fill="#314d87"/>
<rect x="24" y="20" width="2" height="1" fill="#314d87"/>
<rect x="31" y="20" width="1" height="1" fill="#2f3d7d"/>
<rect x="12" y="20" width="2" height="1" fill="#324b7e"/>
<rect x="16" y="20" width="2" height="1" fill="#30417e"/>
<rect x="4" y="20" width="1" height="1" fill="#31487e"/>
<rect x="3" y="20" width="1" height="1" fill="#324b7e"/>
<rect x="23" y="20" width="1" height="1" fill="#314a7d"/>
<rect x="10" y="20" width="2" height="1" fill="#324d82"/>
<rect x="5" y="20" width="2" height="1" fill="#314a7d"/>
<rect x="22" y="20" width="1" height="1" fill="#31487e"/>
<rect x="14" y="20" width="2" height="1" fill="#2f3e7e"/>
<rect x="26" y="20" width="1" height="1" fill="#30447a"/>
<rect x="27" y="20" width="1" height="1" fill="#30417e"/>
<rect x="19" y="19" width="1" height="3" fill="#31467a"/>
<rect x="20" y="19" width="1" height="3" fill="#304083"/>
<rect x="18" y="20" width="1" height="2" fill="#31457a"/>
<rect x="8" y="21" width="1" height="1" fill="#31457a"/>
<rect x="31" y="21" width="1" height="1" fill="#2f3e7e"/>
<rect x="27" y="21" width="1" height="1" fill="#30447a"/>
<rect x="24" y="21" width="2" height="1" fill="#32508d"/>
<rect x="12" y="21" width="2" height="1" fill="#355186"/>
<rect x="6" y="21" width="1" height="1" fill="#31467b"/>
<rect x="28" y="21" width="3" height="1" fill="#303f83"/>
<rect x="14" y="21" width="2" height="1" fill="#303f83"/>
<rect x="9" y="21" width="1" height="1" fill="#324d82"/>
<rect x="22" y="21" width="1" height="1" fill="#324b7e"/>
<rect x="3" y="21" width="1" height="1" fill="#303f83"/>
<rect x="4" y="21" width="1" height="1" fill="#304083"/>
<rect x="7" y="21" width="1" height="1" fill="#31467a"/>
<rect x="16" y="21" width="2" height="1" fill="#2f3d7d"/>
<rect x="26" y="21" width="1" height="1" fill="#31467a"/>
<rect x="23" y="21" width="1" height="1" fill="#324c7e"/>
<rect x="10" y="21" width="2" height="1" fill="#32508d"/>
<rect x="21" y="19" width="1" height="4" fill="#303f83"/>
<rect x="1" y="21" width="1" height="2" fill="#32508d"/>
<rect x="2" y="21" width="1" height="2" fill="#314d87"/>
<rect x="5" y="21" width="1" height="2" fill="#31467a"/>
<rect x="20" y="22" width="1" height="1" fill="#303f82"/>
<rect x="18" y="22" width="1" height="1" fill="#30417e"/>
<rect x="23" y="22" width="1" height="1" fill="#31477b"/>
<rect x="29" y="22" width="1" height="1" fill="#30437f"/>
<rect x="19" y="22" width="1" height="1" fill="#30447e"/>
<rect x="14" y="22" width="2" height="1" fill="#304182"/>
<rect x="6" y="22" width="3" height="1" fill="#31467b"/>
<rect x="3" y="22" width="2" height="1" fill="#304083"/>
<rect x="28" y="22" width="1" height="1" fill="#30447e"/>
<rect x="10" y="22" width="1" height="1" fill="#32508d"/>
<rect x="16" y="22" width="2" height="1" fill="#2f3e7e"/>
<rect x="26" y="22" width="2" height="1" fill="#314a7d"/>
<rect x="11" y="22" width="3" height="1" fill="#355186"/>
<rect x="22" y="22" width="1" height="1" fill="#31487e"/>
<rect x="24" y="22" width="2" height="1" fill="#324d82"/>
<rect x="30" y="22" width="1" height="2" fill="#303f83"/>
<rect x="31" y="22" width="1" height="2" fill="#303e81"/>
<rect x="18" y="23" width="1" height="1" fill="#303f83"/>
<rect x="12" y="23" width="2" height="1" fill="#324b7e"/>
<rect x="19" y="23" width="3" height="1" fill="#303f84"/>
<rect x="24" y="23" width="1" height="1" fill="#324b7e"/>
<rect x="23" y="23" width="1" height="1" fill="#31457a"/>
<rect x="25" y="23" width="1" height="1" fill="#324c7e"/>
<rect x="27" y="23" width="1" height="1" fill="#324b7e"/>
<rect x="22" y="23" width="1" height="1" fill="#30447e"/>
<rect x="29" y="23" width="1" height="1" fill="#30447e"/>
<rect x="17" y="23" width="1" height="1" fill="#303f84"/>
<rect x="9" y="22" width="1" height="3" fill="#314a81"/>
<rect x="7" y="23" width="1" height="2" fill="#303f82"/>
<rect x="16" y="23" width="1" height="2" fill="#304083"/>
<rect x="4" y="23" width="1" height="2" fill="#303f83"/>
<rect x="2" y="23" width="1" height="2" fill="#304182"/>
<rect x="10" y="23" width="2" height="2" fill="#355186"/>
<rect x="28" y="23" width="1" height="2" fill="#31467a"/>
<rect x="3" y="23" width="1" height="2" fill="#304083"/>
<rect x="14" y="23" width="2" height="2" fill="#31467a"/>
<rect x="5" y="23" width="2" height="2" fill="#2f3d7d"/>
<rect x="26" y="24" width="2" height="1" fill="#324b7e"/>
<rect x="17" y="24" width="2" height="1" fill="#303f83"/>
<rect x="12" y="24" width="1" height="1" fill="#324b7e"/>
<rect x="13" y="24" width="1" height="1" fill="#324c7e"/>
<rect x="20" y="24" width="2" height="1" fill="#303e81"/>
<rect x="19" y="24" width="1" height="1" fill="#303f82"/>
<rect x="22" y="24" width="1" height="1" fill="#30417e"/>
<rect x="30" y="24" width="1" height="1" fill="#30447e"/>
<rect x="23" y="24" width="1" height="1" fill="#30437f"/>
<rect x="29" y="24" width="1" height="1" fill="#31457a"/>
<rect x="24" y="24" width="2" height="1" fill="#31477b"/>
<rect x="8" y="23" width="1" height="3" fill="#304083"/>
<rect x="1" y="23" width="1" height="3" fill="#314d87"/>
<rect x="31" y="24" width="1" height="2" fill="#2e3d76"/>
<rect x="25" y="25" width="1" height="1" fill="#31467a"/>
<rect x="19" y="25" width="2" height="1" fill="#2f3d7d"/>
<rect x="22" y="25" width="1" height="1" fill="#303f82"/>
<rect x="21" y="25" width="1" height="1" fill="#2f3e7e"/>
<rect x="18" y="25" width="1" height="1" fill="#2f3e7e"/>
<rect x="26" y="25" width="1" height="1" fill="#324b7e"/>
<rect x="7" y="25" width="1" height="1" fill="#303f83"/>
<rect x="5" y="25" width="1" height="1" fill="#303e81"/>
<rect x="10" y="25" width="2" height="1" fill="#31477b"/>
<rect x="23" y="25" width="1" height="1" fill="#304083"/>
<rect x="6" y="25" width="1" height="1" fill="#303f82"/>
<rect x="24" y="25" width="1" height="1" fill="#30447e"/>
<rect x="28" y="25" width="3" height="1" fill="#31467b"/>
<rect x="17" y="25" width="1" height="1" fill="#303f83"/>
<rect x="3" y="25" width="2" height="1" fill="#30437f"/>
<rect x="14" y="25" width="1" height="1" fill="#324b7e"/>
<rect x="9" y="25" width="1" height="2" fill="#30437f"/>
<rect x="2" y="25" width="1" height="2" fill="#314a81"/>
<rect x="16" y="25" width="1" height="2" fill="#304182"/>
<rect x="15" y="25" width="1" height="2" fill="#324c7e"/>
<rect x="17" y="26" width="1" height="1" fill="#304083"/>
<rect x="10" y="26" width="1" height="1" fill="#31467a"/>
<rect x="21" y="26" width="1" height="1" fill="#2f3d7d"/>
<rect x="18" y="26" width="3" height="1" fill="#2f3e7e"/>
<rect x="4" y="26" width="1" height="1" fill="#31457a"/>
<rect x="30" y="26" width="1" height="1" fill="#324b7e"/>
<rect x="28" y="26" width="1" height="1" fill="#31467a"/>
<rect x="11" y="26" width="1" height="1" fill="#31477b"/>
<rect x="26" y="26" width="1" height="1" fill="#31487e"/>
<rect x="3" y="26" width="1" height="1" fill="#31467a"/>
<rect x="27" y="26" width="1" height="1" fill="#31477b"/>
<rect x="5" y="26" width="4" height="1" fill="#304083"/>
<rect x="22" y="26" width="2" height="1" fill="#303e81"/>
<rect x="24" y="26" width="2" height="1" fill="#30417e"/>
<rect x="1" y="26" width="1" height="2" fill="#32508d"/>
<rect x="29" y="26" width="1" height="2" fill="#31477b"/>
<rect x="31" y="26" width="1" height="2" fill="#304677"/>
<rect x="24" y="27" width="1" height="1" fill="#303f82"/>
<rect x="12" y="27" width="2" height="1" fill="#304182"/>
<rect x="3" y="27" width="2" height="1" fill="#31467b"/>
<rect x="16" y="27" width="2" height="1" fill="#31457a"/>
<rect x="14" y="27" width="2" height="1" fill="#31477b"/>
<rect x="27" y="27" width="2" height="1" fill="#31467b"/>
<rect x="23" y="27" width="1" height="1" fill="#2f3d7d"/>
<rect x="26" y="27" width="1" height="1" fill="#30447e"/>
<rect x="5" y="27" width="3" height="1" fill="#304182"/>
<rect x="21" y="27" width="1" height="1" fill="#303f83"/>
<rect x="25" y="27" width="1" height="1" fill="#303f83"/>
<rect x="22" y="27" width="1" height="1" fill="#2f3e7e"/>
<rect x="8" y="27" width="4" height="1" fill="#30437f"/>
<rect x="20" y="27" width="1" height="2" fill="#30437f"/>
<rect x="18" y="27" width="1" height="2" fill="#314a7d"/>
<rect x="19" y="27" width="1" height="2" fill="#324c7e"/>
<rect x="17" y="28" width="1" height="1" fill="#31467a"/>
<rect x="16" y="28" width="1" height="1" fill="#31467b"/>
<rect x="29" y="28" width="1" height="1" fill="#314a7d"/>
<rect x="13" y="28" width="1" height="1" fill="#303f84"/>
<rect x="10" y="28" width="1" height="1" fill="#303f84"/>
<rect x="30" y="28" width="1" height="1" fill="#324c7e"/>
<rect x="31" y="28" width="1" height="1" fill="#31467a"/>
<rect x="21" y="28" width="1" height="1" fill="#304083"/>
<rect x="14" y="28" width="1" height="1" fill="#31457a"/>
<rect x="3" y="28" width="1" height="1" fill="#324c7e"/>
<rect x="11" y="28" width="2" height="1" fill="#304083"/>
<rect x="27" y="28" width="1" height="1" fill="#30437f"/>
<rect x="15" y="28" width="1" height="1" fill="#31467a"/>
<rect x="28" y="28" width="1" height="1" fill="#31487e"/>
<rect x="25" y="28" width="1" height="1" fill="#30437f"/>
<rect x="26" y="28" width="1" height="1" fill="#30417e"/>
<rect x="22" y="28" width="3" height="1" fill="#30417e"/>
<rect x="5" y="28" width="2" height="1" fill="#324c7e"/>
<rect x="2" y="27" width="1" height="3" fill="#324d82"/>
<rect x="8" y="28" width="1" height="2" fill="#31467b"/>
<rect x="1" y="28" width="1" height="2" fill="#314d87"/>
<rect x="9" y="28" width="1" height="2" fill="#30447e"/>
<rect x="7" y="28" width="1" height="2" fill="#31477b"/>
<rect x="12" y="29" width="4" height="1" fill="#30437f"/>
<rect x="28" y="29" width="1" height="1" fill="#324b7e"/>
<rect x="16" y="29" width="1" height="1" fill="#30417e"/>
<rect x="24" y="29" width="1" height="1" fill="#31477b"/>
<rect x="25" y="29" width="1" height="1" fill="#31467a"/>
<rect x="20" y="29" width="1" height="1" fill="#324b7e"/>
<rect x="31" y="29" width="1" height="1" fill="#31477b"/>
<rect x="10" y="29" width="2" height="1" fill="#304182"/>
<rect x="27" y="29" width="1" height="1" fill="#303f84"/>
<rect x="17" y="29" width="1" height="1" fill="#2f3e7e"/>
<rect x="26" y="29" width="1" height="1" fill="#304182"/>
<rect x="18" y="29" width="1" height="1" fill="#31487e"/>
<rect x="16" y="30" width="1" height="1" fill="#2f3e7e"/>
<rect x="27" y="30" width="1" height="1" fill="#2e3d76"/>
<rect x="18" y="30" width="1" height="1" fill="#30447e"/>
<rect x="28" y="30" width="2" height="1" fill="#30447a"/>
<rect x="17" y="30" width="1" height="1" fill="#2f3d7d"/>
<rect x="25" y="30" width="1" height="1" fill="#30447a"/>
<rect x="3" y="30" width="1" height="1" fill="#324c7e"/>
<rect x="6" y="30" width="3" height="1" fill="#31467b"/>
<rect x="12" y="30" width="2" height="1" fill="#31467a"/>
<rect x="22" y="30" width="1" height="1" fill="#324b7e"/>
<rect x="23" y="30" width="1" height="1" fill="#314a7d"/>
<rect x="30" y="30" width="2" height="1" fill="#2e3d76"/>
<rect x="21" y="30" width="1" height="1" fill="#324c7e"/>
<rect x="24" y="30" width="1" height="1" fill="#31467b"/>
<rect x="5" y="30" width="1" height="1" fill="#31477b"/>
<rect x="14" y="30" width="2" height="1" fill="#304083"/>
<rect x="26" y="30" width="1" height="1" fill="#2f3d7d"/>
<rect x="0" y="21" width="1" height="11" fill="#375690"/>
<rect x="1" y="30" width="1" height="2" fill="#32508d"/>
<rect x="11" y="30" width="1" height="2" fill="#324b7e"/>
<rect x="9" y="30" width="1" height="2" fill="#31477b"/>
<rect x="2" y="30" width="1" height="2" fill="#314d87"/>
<rect x="21" y="31" width="1" height="1" fill="#2f3d7d"/>
<rect x="25" y="31" width="1" height="1" fill="#2f3d7d"/>
<rect x="18" y="31" width="2" height="1" fill="#304677"/>
<rect x="12" y="31" width="2" height="1" fill="#31457a"/>
<rect x="14" y="31" width="2" height="1" fill="#30417e"/>
<rect x="16" y="31" width="2" height="1" fill="#30447a"/>
<rect x="23" y="31" width="1" height="1" fill="#2f3d7d"/>
<rect x="26" y="31" width="6" height="1" fill="#2e3d76"/>
<rect x="5" y="31" width="4" height="1" fill="#31467b"/>
<rect x="20" y="31" width="1" height="1" fill="#30447a"/>
<rect x="10" y="31" width="1" height="1" fill="#324c7e"/>
<rect x="24" y="31" width="1" height="1" fill="#2e3d76"/>
<rect x="4" y="31" width="1" height="1" fill="#324c7e"/>
<rect x="22" y="31" width="1" height="1" fill="#2e3d76"/>
</svg>