<?xml version="1.0" encoding="UTF-8"?>
<svg xmlns="http://www.w3.org/2000/svg" width="20mm" height="20mm" viewBox="0 0 32 32" shape-rendering="crispEdges">
<title>013 右侧面 structured semantic redraw</title>
<metadata>registered 32-unit semantic vector redraw; no embedded raster; physical-size=20mm</metadata>
<rect x="0" y="0" width="32" height="32" fill="#6a6a6a"/>
<rect x="7" y="0" width="1" height="1" fill="#767575"/>
<rect x="8" y="0" width="1" height="1" fill="#737271"/>
<rect x="10" y="0" width="2" height="1" fill="#6c6c6c"/>
<rect x="25" y="0" width="1" height="1" fill="#666665"/>
<rect x="19" y="0" width="1" height="1" fill="#686868"/>
<rect x="29" y="0" width="1" height="1" fill="#727272"/>
<rect x="9" y="0" width="1" height="1" fill="#6d6d6d"/>
<rect x="14" y="0" width="1" height="1" fill="#717171"/>
<rect x="13" y="0" width="1" height="1" fill="#737373"/>
<rect x="17" y="0" width="2" height="1" fill="#636363"/>
<rect x="12" y="0" width="1" height="1" fill="#6d6d6d"/>
<rect x="21" y="0" width="4" height="1" fill="#686868"/>
<rect x="0" y="0" width="7" height="1" fill="#898a8a"/>
<rect x="26" y="0" width="2" height="2" fill="#5c5c5c"/>
<rect x="28" y="0" width="1" height="2" fill="#6d6d6d"/>
<rect x="30" y="0" width="1" height="2" fill="#6f6f6f"/>
<rect x="17" y="1" width="1" height="1" fill="#6d6d6d"/>
<rect x="2" y="1" width="4" height="1" fill="#7f7e7c"/>
<rect x="13" y="1" width="1" height="1" fill="#6d6d6d"/>
<rect x="16" y="1" width="1" height="1" fill="#6f6f6f"/>
<rect x="12" y="1" width="1" height="1" fill="#6c6c6c"/>
<rect x="29" y="1" width="1" height="1" fill="#737373"/>
<rect x="6" y="1" width="1" height="1" fill="#7c7b7b"/>
<rect x="15" y="1" width="1" height="1" fill="#6d6d6d"/>
<rect x="19" y="1" width="1" height="1" fill="#717171"/>
<rect x="18" y="1" width="1" height="1" fill="#6f6f6f"/>
<rect x="14" y="1" width="1" height="1" fill="#6c6c6c"/>
<rect x="0" y="1" width="2" height="1" fill="#848381"/>
<rect x="20" y="1" width="1" height="2" fill="#727272"/>
<rect x="22" y="1" width="1" height="2" fill="#626262"/>
<rect x="21" y="1" width="1" height="2" fill="#686868"/>
<rect x="23" y="1" width="2" height="2" fill="#636363"/>
<rect x="25" y="1" width="1" height="2" fill="#626262"/>
<rect x="31" y="2" width="1" height="1" fill="#71706f"/>
<rect x="1" y="2" width="1" height="1" fill="#7f7e7c"/>
<rect x="2" y="2" width="2" height="1" fill="#7c7b7b"/>
<rect x="10" y="2" width="1" height="1" fill="#71706f"/>
<rect x="13" y="2" width="2" height="1" fill="#636363"/>
<rect x="0" y="2" width="1" height="1" fill="#7c7b7b"/>
<rect x="15" y="2" width="1" height="1" fill="#71706f"/>
<rect x="29" y="2" width="1" height="1" fill="#7f694d"/>
<rect x="28" y="2" width="1" height="1" fill="#73685a"/>
<rect x="16" y="2" width="4" height="1" fill="#717171"/>
<rect x="8" y="2" width="1" height="1" fill="#7f694d"/>
<rect x="7" y="2" width="1" height="1" fill="#73685a"/>
<rect x="6" y="2" width="1" height="1" fill="#767575"/>
<rect x="26" y="2" width="2" height="1" fill="#645f58"/>
<rect x="4" y="2" width="2" height="1" fill="#797878"/>
<rect x="9" y="2" width="1" height="1" fill="#6f6f6f"/>
<rect x="12" y="2" width="1" height="1" fill="#71706f"/>
<rect x="11" y="2" width="1" height="1" fill="#717171"/>
<rect x="13" y="3" width="2" height="1" fill="#656462"/>
<rect x="10" y="3" width="3" height="1" fill="#717171"/>
<rect x="21" y="3" width="1" height="1" fill="#636363"/>
<rect x="15" y="3" width="4" height="1" fill="#6f6f6f"/>
<rect x="7" y="3" width="2" height="1" fill="#866740"/>
<rect x="0" y="3" width="3" height="1" fill="#737373"/>
<rect x="9" y="3" width="1" height="1" fill="#71706f"/>
<rect x="19" y="3" width="2" height="1" fill="#6d6d6d"/>
<rect x="31" y="3" width="1" height="1" fill="#727272"/>
<rect x="5" y="3" width="2" height="2" fill="#71706f"/>
<rect x="22" y="3" width="3" height="2" fill="#5c5c5c"/>
<rect x="25" y="3" width="1" height="2" fill="#645f58"/>
<rect x="26" y="3" width="4" height="2" fill="#866740"/>
<rect x="3" y="3" width="1" height="2" fill="#6c6c6c"/>
<rect x="7" y="4" width="2" height="1" fill="#7f694d"/>
<rect x="31" y="4" width="1" height="1" fill="#717171"/>
<rect x="12" y="4" width="1" height="1" fill="#626262"/>
<rect x="11" y="4" width="1" height="1" fill="#636363"/>
<rect x="21" y="4" width="1" height="1" fill="#626262"/>
<rect x="14" y="4" width="1" height="1" fill="#866740"/>
<rect x="16" y="4" width="1" height="1" fill="#636363"/>
<rect x="9" y="4" width="1" height="1" fill="#6c6a67"/>
<rect x="0" y="4" width="1" height="1" fill="#6f6f6f"/>
<rect x="13" y="4" width="1" height="1" fill="#7f694d"/>
<rect x="1" y="4" width="2" height="1" fill="#727272"/>
<rect x="17" y="4" width="1" height="2" fill="#686868"/>
<rect x="15" y="4" width="1" height="2" fill="#656462"/>
<rect x="20" y="5" width="1" height="1" fill="#6c6c6c"/>
<rect x="4" y="5" width="3" height="1" fill="#636363"/>
<rect x="1" y="5" width="1" height="1" fill="#71706f"/>
<rect x="16" y="5" width="1" height="1" fill="#626262"/>
<rect x="2" y="5" width="1" height="1" fill="#6d6d6d"/>
<rect x="26" y="5" width="1" height="1" fill="#aa834d"/>
<rect x="24" y="5" width="2" height="1" fill="#7f694d"/>
<rect x="21" y="5" width="1" height="1" fill="#636363"/>
<rect x="27" y="5" width="1" height="1" fill="#c0863c"/>
<rect x="11" y="5" width="2" height="1" fill="#5c5c5c"/>
<rect x="7" y="5" width="1" height="1" fill="#797878"/>
<rect x="13" y="5" width="2" height="1" fill="#866740"/>
<rect x="3" y="5" width="1" height="1" fill="#686868"/>
<rect x="30" y="2" width="1" height="5" fill="#73685a"/>
<rect x="8" y="5" width="1" height="2" fill="#7c7b7b"/>
<rect x="28" y="5" width="1" height="2" fill="#8a6a41"/>
<rect x="29" y="5" width="1" height="2" fill="#866740"/>
<rect x="0" y="5" width="1" height="2" fill="#6d6d6d"/>
<rect x="10" y="5" width="1" height="2" fill="#626262"/>
<rect x="9" y="5" width="1" height="2" fill="#666665"/>
<rect x="3" y="6" width="1" height="1" fill="#666665"/>
<rect x="14" y="6" width="1" height="1" fill="#aa834d"/>
<rect x="17" y="6" width="1" height="1" fill="#6c6a67"/>
<rect x="7" y="6" width="1" height="1" fill="#767575"/>
<rect x="1" y="6" width="1" height="1" fill="#6f6f6f"/>
<rect x="15" y="6" width="2" height="1" fill="#7f694d"/>
<rect x="13" y="6" width="1" height="1" fill="#8a6a41"/>
<rect x="25" y="6" width="1" height="1" fill="#8a6a41"/>
<rect x="11" y="6" width="2" height="1" fill="#645f58"/>
<rect x="4" y="6" width="3" height="1" fill="#626262"/>
<rect x="24" y="6" width="1" height="1" fill="#866740"/>
<rect x="22" y="5" width="1" height="3" fill="#5c5c5c"/>
<rect x="23" y="5" width="1" height="3" fill="#645f58"/>
<rect x="20" y="6" width="1" height="2" fill="#727272"/>
<rect x="21" y="6" width="1" height="2" fill="#686868"/>
<rect x="26" y="6" width="2" height="2" fill="#c0863c"/>
<rect x="19" y="6" width="1" height="2" fill="#6f6f6f"/>
<rect x="1" y="7" width="3" height="1" fill="#71706f"/>
<rect x="31" y="7" width="1" height="1" fill="#717171"/>
<rect x="6" y="7" width="1" height="1" fill="#6d6d6d"/>
<rect x="5" y="7" width="1" height="1" fill="#6f6f6f"/>
<rect x="30" y="7" width="1" height="1" fill="#767575"/>
<rect x="24" y="7" width="2" height="1" fill="#8a6a41"/>
<rect x="11" y="7" width="2" height="1" fill="#866740"/>
<rect x="4" y="7" width="1" height="1" fill="#717171"/>
<rect x="0" y="7" width="1" height="1" fill="#6f6f6f"/>
<rect x="8" y="7" width="1" height="1" fill="#636363"/>
<rect x="28" y="7" width="1" height="1" fill="#917755"/>
<rect x="29" y="7" width="1" height="1" fill="#7f7e7c"/>
<rect x="9" y="7" width="2" height="2" fill="#5c5c5c"/>
<rect x="13" y="7" width="2" height="2" fill="#c0863c"/>
<rect x="7" y="7" width="1" height="2" fill="#686868"/>
<rect x="15" y="7" width="1" height="2" fill="#8a6a41"/>
<rect x="5" y="8" width="1" height="1" fill="#797878"/>
<rect x="20" y="8" width="2" height="1" fill="#7c7b7b"/>
<rect x="8" y="8" width="1" height="1" fill="#626262"/>
<rect x="12" y="8" width="1" height="1" fill="#8a6a41"/>
<rect x="0" y="8" width="1" height="1" fill="#71706f"/>
<rect x="11" y="8" width="1" height="1" fill="#7f694d"/>
<rect x="18" y="8" width="1" height="1" fill="#666665"/>
<rect x="31" y="8" width="1" height="1" fill="#727272"/>
<rect x="19" y="8" width="1" height="1" fill="#717171"/>
<rect x="1" y="8" width="1" height="1" fill="#737373"/>
<rect x="23" y="8" width="1" height="1" fill="#917755"/>
<rect x="2" y="8" width="3" height="1" fill="#7f7e7c"/>
<rect x="30" y="8" width="1" height="1" fill="#7f7e7c"/>
<rect x="6" y="8" width="1" height="1" fill="#727272"/>
<rect x="22" y="8" width="1" height="1" fill="#797878"/>
<rect x="16" y="7" width="1" height="3" fill="#866740"/>
<rect x="24" y="8" width="4" height="2" fill="#c0863c"/>
<rect x="28" y="8" width="1" height="2" fill="#9d8d72"/>
<rect x="29" y="8" width="1" height="2" fill="#898a8a"/>
<rect x="2" y="9" width="2" height="1" fill="#7c7b7b"/>
<rect x="7" y="9" width="1" height="1" fill="#636363"/>
<rect x="23" y="9" width="1" height="1" fill="#9d8d72"/>
<rect x="5" y="9" width="1" height="1" fill="#737373"/>
<rect x="31" y="9" width="1" height="1" fill="#737373"/>
<rect x="8" y="9" width="1" height="1" fill="#5c5c5c"/>
<rect x="0" y="9" width="1" height="1" fill="#717171"/>
<rect x="4" y="9" width="1" height="1" fill="#797878"/>
<rect x="18" y="9" width="1" height="1" fill="#626262"/>
<rect x="1" y="9" width="1" height="1" fill="#727272"/>
<rect x="9" y="9" width="1" height="1" fill="#73685a"/>
<rect x="20" y="9" width="1" height="1" fill="#7f7e7c"/>
<rect x="30" y="9" width="1" height="1" fill="#7c7b7b"/>
<rect x="21" y="9" width="2" height="1" fill="#7c7b7b"/>
<rect x="19" y="9" width="1" height="1" fill="#727272"/>
<rect x="17" y="7" width="1" height="4" fill="#73685a"/>
<rect x="15" y="9" width="1" height="2" fill="#aa834d"/>
<rect x="10" y="9" width="1" height="2" fill="#866740"/>
<rect x="11" y="9" width="1" height="2" fill="#aa834d"/>
<rect x="14" y="9" width="1" height="2" fill="#ccc364"/>
<rect x="13" y="9" width="1" height="2" fill="#bca456"/>
<rect x="12" y="9" width="1" height="2" fill="#c0863c"/>
<rect x="23" y="10" width="1" height="1" fill="#767575"/>
<rect x="22" y="10" width="1" height="1" fill="#6f6f6f"/>
<rect x="29" y="10" width="1" height="1" fill="#6c6c6c"/>
<rect x="9" y="10" width="1" height="1" fill="#7f694d"/>
<rect x="3" y="10" width="1" height="1" fill="#727272"/>
<rect x="5" y="10" width="1" height="1" fill="#6c6c6c"/>
<rect x="19" y="10" width="1" height="1" fill="#6d6d6d"/>
<rect x="16" y="10" width="1" height="1" fill="#8a6a41"/>
<rect x="4" y="10" width="1" height="1" fill="#717171"/>
<rect x="21" y="10" width="1" height="1" fill="#737373"/>
<rect x="24" y="10" width="3" height="1" fill="#9d8d72"/>
<rect x="20" y="10" width="1" height="1" fill="#797878"/>
<rect x="28" y="10" width="1" height="1" fill="#717171"/>
<rect x="27" y="10" width="1" height="1" fill="#898a8a"/>
<rect x="18" y="10" width="1" height="1" fill="#636363"/>
<rect x="7" y="10" width="2" height="1" fill="#5c5c5c"/>
<rect x="31" y="10" width="1" height="2" fill="#7f7e7c"/>
<rect x="30" y="10" width="1" height="2" fill="#767575"/>
<rect x="0" y="10" width="1" height="2" fill="#6f6f6f"/>
<rect x="2" y="10" width="1" height="2" fill="#717171"/>
<rect x="13" y="11" width="2" height="1" fill="#ccc364"/>
<rect x="24" y="11" width="4" height="1" fill="#898a8a"/>
<rect x="23" y="11" width="1" height="1" fill="#6d6d6d"/>
<rect x="9" y="11" width="1" height="1" fill="#aa834d"/>
<rect x="28" y="11" width="1" height="1" fill="#71706f"/>
<rect x="8" y="11" width="1" height="1" fill="#7f694d"/>
<rect x="7" y="11" width="1" height="1" fill="#73685a"/>
<rect x="3" y="11" width="2" height="1" fill="#727272"/>
<rect x="10" y="11" width="3" height="1" fill="#bca456"/>
<rect x="6" y="10" width="1" height="3" fill="#626262"/>
<rect x="5" y="11" width="1" height="2" fill="#6d6d6d"/>
<rect x="15" y="11" width="1" height="2" fill="#bca456"/>
<rect x="21" y="11" width="1" height="2" fill="#686868"/>
<rect x="22" y="11" width="1" height="2" fill="#636363"/>
<rect x="16" y="11" width="1" height="2" fill="#c0863c"/>
<rect x="9" y="12" width="1" height="1" fill="#bca456"/>
<rect x="30" y="12" width="1" height="1" fill="#727272"/>
<rect x="26" y="12" width="2" height="1" fill="#7f7e7c"/>
<rect x="7" y="12" width="1" height="1" fill="#7f694d"/>
<rect x="0" y="12" width="1" height="1" fill="#797878"/>
<rect x="31" y="12" width="1" height="1" fill="#767575"/>
<rect x="28" y="12" width="1" height="1" fill="#717171"/>
<rect x="10" y="12" width="5" height="1" fill="#ccc364"/>
<rect x="24" y="12" width="2" height="1" fill="#848381"/>
<rect x="29" y="12" width="1" height="1" fill="#71706f"/>
<rect x="2" y="12" width="2" height="2" fill="#7c7b7b"/>
<rect x="1" y="12" width="1" height="2" fill="#6f6f6f"/>
<rect x="8" y="12" width="1" height="2" fill="#c0863c"/>
<rect x="18" y="13" width="1" height="1" fill="#848381"/>
<rect x="5" y="13" width="1" height="1" fill="#6f6f6f"/>
<rect x="11" y="13" width="3" height="1" fill="#ccc364"/>
<rect x="16" y="13" width="1" height="1" fill="#8a6a41"/>
<rect x="0" y="13" width="1" height="1" fill="#7c7b7b"/>
<rect x="19" y="13" width="1" height="1" fill="#7c7b7b"/>
<rect x="31" y="13" width="1" height="1" fill="#727272"/>
<rect x="9" y="13" width="2" height="1" fill="#bca456"/>
<rect x="24" y="13" width="2" height="1" fill="#727272"/>
<rect x="27" y="13" width="3" height="1" fill="#727272"/>
<rect x="7" y="13" width="1" height="1" fill="#73685a"/>
<rect x="14" y="13" width="1" height="1" fill="#bca456"/>
<rect x="26" y="13" width="1" height="1" fill="#717171"/>
<rect x="30" y="13" width="1" height="1" fill="#717171"/>
<rect x="6" y="13" width="1" height="1" fill="#636363"/>
<rect x="17" y="11" width="1" height="4" fill="#917755"/>
<rect x="23" y="12" width="1" height="3" fill="#6c6c6c"/>
<rect x="4" y="12" width="1" height="3" fill="#727272"/>
<rect x="15" y="13" width="1" height="2" fill="#aa834d"/>
<rect x="2" y="14" width="1" height="1" fill="#727272"/>
<rect x="14" y="14" width="1" height="1" fill="#c0863c"/>
<rect x="18" y="14" width="1" height="1" fill="#898a8a"/>
<rect x="16" y="14" width="1" height="1" fill="#866740"/>
<rect x="24" y="14" width="1" height="1" fill="#727272"/>
<rect x="3" y="14" width="1" height="1" fill="#737373"/>
<rect x="11" y="14" width="1" height="1" fill="#bca456"/>
<rect x="12" y="14" width="1" height="1" fill="#ccc364"/>
<rect x="19" y="14" width="1" height="1" fill="#7f7e7c"/>
<rect x="28" y="14" width="3" height="1" fill="#71706f"/>
<rect x="25" y="14" width="3" height="1" fill="#737271"/>
<rect x="13" y="14" width="1" height="1" fill="#bca456"/>
<rect x="10" y="14" width="1" height="2" fill="#c0863c"/>
<rect x="6" y="14" width="1" height="2" fill="#7c7b7b"/>
<rect x="5" y="14" width="1" height="2" fill="#737373"/>
<rect x="9" y="14" width="1" height="2" fill="#9d8d72"/>
<rect x="7" y="14" width="1" height="2" fill="#7f7e7c"/>
<rect x="8" y="14" width="1" height="2" fill="#898a8a"/>
<rect x="0" y="14" width="1" height="2" fill="#767575"/>
<rect x="15" y="15" width="2" height="1" fill="#917755"/>
<rect x="24" y="15" width="1" height="1" fill="#6c6c6c"/>
<rect x="14" y="15" width="1" height="1" fill="#aa834d"/>
<rect x="17" y="15" width="1" height="1" fill="#797878"/>
<rect x="18" y="15" width="1" height="1" fill="#7c7b7b"/>
<rect x="11" y="15" width="3" height="1" fill="#bca456"/>
<rect x="3" y="15" width="2" height="1" fill="#727272"/>
<rect x="2" y="15" width="1" height="1" fill="#6f6f6f"/>
<rect x="19" y="15" width="1" height="1" fill="#767575"/>
<rect x="31" y="14" width="1" height="3" fill="#737373"/>
<rect x="28" y="15" width="1" height="2" fill="#8a6a41"/>
<rect x="29" y="15" width="1" height="2" fill="#866740"/>
<rect x="25" y="15" width="1" height="2" fill="#6c6a67"/>
<rect x="26" y="15" width="2" height="2" fill="#c0863c"/>
<rect x="30" y="15" width="1" height="2" fill="#73685a"/>
<rect x="9" y="16" width="1" height="1" fill="#727272"/>
<rect x="5" y="16" width="3" height="1" fill="#666665"/>
<rect x="8" y="16" width="1" height="1" fill="#6c6c6c"/>
<rect x="18" y="16" width="1" height="1" fill="#717171"/>
<rect x="0" y="16" width="1" height="1" fill="#797878"/>
<rect x="4" y="16" width="1" height="1" fill="#686868"/>
<rect x="19" y="16" width="1" height="1" fill="#6f6f6f"/>
<rect x="3" y="16" width="1" height="1" fill="#6d6d6d"/>
<rect x="2" y="16" width="1" height="1" fill="#6c6c6c"/>
<rect x="1" y="15" width="1" height="3" fill="#686868"/>
<rect x="13" y="16" width="1" height="2" fill="#aa834d"/>
<rect x="17" y="16" width="1" height="2" fill="#7f7e7c"/>
<rect x="14" y="16" width="3" height="2" fill="#898a8a"/>
<rect x="12" y="16" width="1" height="2" fill="#c0863c"/>
<rect x="11" y="16" width="1" height="2" fill="#9d8d72"/>
<rect x="22" y="17" width="1" height="1" fill="#6f6f6f"/>
<rect x="20" y="17" width="2" height="1" fill="#6d6d6d"/>
<rect x="25" y="17" width="1" height="1" fill="#686868"/>
<rect x="6" y="17" width="2" height="1" fill="#636363"/>
<rect x="5" y="17" width="1" height="1" fill="#626262"/>
<rect x="31" y="17" width="1" height="1" fill="#6c6c6c"/>
<rect x="23" y="17" width="1" height="1" fill="#6d6d6d"/>
<rect x="27" y="17" width="1" height="1" fill="#767575"/>
<rect x="4" y="17" width="1" height="1" fill="#666665"/>
<rect x="9" y="17" width="1" height="1" fill="#71706f"/>
<rect x="18" y="17" width="1" height="1" fill="#767575"/>
<rect x="19" y="17" width="1" height="1" fill="#737373"/>
<rect x="24" y="17" width="1" height="1" fill="#666665"/>
<rect x="29" y="17" width="1" height="1" fill="#71706f"/>
<rect x="28" y="17" width="1" height="1" fill="#737271"/>
<rect x="26" y="17" width="1" height="1" fill="#917755"/>
<rect x="0" y="17" width="1" height="1" fill="#767575"/>
<rect x="30" y="17" width="1" height="2" fill="#6d6d6d"/>
<rect x="27" y="18" width="2" height="1" fill="#727272"/>
<rect x="29" y="18" width="1" height="1" fill="#717171"/>
<rect x="3" y="18" width="1" height="1" fill="#666665"/>
<rect x="0" y="18" width="2" height="1" fill="#717171"/>
<rect x="24" y="18" width="1" height="1" fill="#626262"/>
<rect x="8" y="18" width="1" height="1" fill="#797878"/>
<rect x="18" y="18" width="1" height="1" fill="#7f7e7c"/>
<rect x="22" y="18" width="1" height="1" fill="#727272"/>
<rect x="20" y="18" width="2" height="1" fill="#717171"/>
<rect x="13" y="18" width="1" height="1" fill="#917755"/>
<rect x="6" y="18" width="2" height="1" fill="#aa834d"/>
<rect x="16" y="18" width="2" height="1" fill="#7c7b7b"/>
<rect x="9" y="18" width="1" height="1" fill="#7c7b7b"/>
<rect x="5" y="18" width="1" height="1" fill="#7f694d"/>
<rect x="23" y="18" width="1" height="1" fill="#6f6f6f"/>
<rect x="25" y="18" width="1" height="1" fill="#636363"/>
<rect x="2" y="18" width="1" height="1" fill="#6f6f6f"/>
<rect x="26" y="18" width="1" height="1" fill="#717171"/>
<rect x="10" y="16" width="1" height="4" fill="#898a8a"/>
<rect x="14" y="18" width="1" height="2" fill="#898a8a"/>
<rect x="12" y="18" width="1" height="2" fill="#866740"/>
<rect x="15" y="18" width="1" height="2" fill="#848381"/>
<rect x="4" y="18" width="1" height="2" fill="#73685a"/>
<rect x="19" y="18" width="1" height="2" fill="#797878"/>
<rect x="11" y="18" width="1" height="2" fill="#848381"/>
<rect x="29" y="19" width="1" height="1" fill="#797878"/>
<rect x="31" y="19" width="1" height="1" fill="#71706f"/>
<rect x="2" y="19" width="1" height="1" fill="#767575"/>
<rect x="6" y="19" width="1" height="1" fill="#aa834d"/>
<rect x="21" y="19" width="2" height="1" fill="#6c6c6c"/>
<rect x="3" y="19" width="1" height="1" fill="#626262"/>
<rect x="28" y="19" width="1" height="1" fill="#767575"/>
<rect x="1" y="19" width="1" height="1" fill="#7c7b7b"/>
<rect x="16" y="19" width="3" height="1" fill="#7c7b7b"/>
<rect x="5" y="19" width="1" height="1" fill="#866740"/>
<rect x="30" y="19" width="1" height="1" fill="#727272"/>
<rect x="24" y="19" width="2" height="1" fill="#626262"/>
<rect x="8" y="19" width="2" height="1" fill="#7f7e7c"/>
<rect x="7" y="19" width="1" height="1" fill="#c0863c"/>
<rect x="23" y="19" width="1" height="1" fill="#686868"/>
<rect x="20" y="19" width="1" height="1" fill="#6d6d6d"/>
<rect x="0" y="19" width="1" height="1" fill="#6f6f6f"/>
<rect x="13" y="19" width="1" height="1" fill="#7f694d"/>
<rect x="2" y="20" width="1" height="1" fill="#737373"/>
<rect x="3" y="20" width="1" height="1" fill="#666665"/>
<rect x="4" y="20" width="1" height="1" fill="#7f694d"/>
<rect x="6" y="20" width="2" height="1" fill="#bca456"/>
<rect x="1" y="20" width="1" height="1" fill="#797878"/>
<rect x="30" y="20" width="1" height="1" fill="#767575"/>
<rect x="12" y="20" width="2" height="1" fill="#848381"/>
<rect x="9" y="20" width="1" height="1" fill="#848381"/>
<rect x="31" y="20" width="1" height="1" fill="#737373"/>
<rect x="16" y="20" width="2" height="1" fill="#7c7b7b"/>
<rect x="14" y="20" width="2" height="1" fill="#7f7e7c"/>
<rect x="28" y="20" width="1" height="1" fill="#797878"/>
<rect x="18" y="20" width="1" height="1" fill="#727272"/>
<rect x="10" y="20" width="2" height="1" fill="#797878"/>
<rect x="5" y="20" width="1" height="1" fill="#aa834d"/>
<rect x="29" y="20" width="1" height="1" fill="#7f7e7c"/>
<rect x="0" y="20" width="1" height="1" fill="#737373"/>
<rect x="20" y="20" width="6" height="1" fill="#5c5c5c"/>
<rect x="8" y="20" width="1" height="2" fill="#9d8d72"/>
<rect x="26" y="20" width="1" height="2" fill="#626262"/>
<rect x="27" y="20" width="1" height="2" fill="#636363"/>
<rect x="19" y="20" width="1" height="2" fill="#6c6c6c"/>
<rect x="28" y="21" width="1" height="1" fill="#737373"/>
<rect x="17" y="21" width="1" height="1" fill="#7c7b7b"/>
<rect x="10" y="21" width="2" height="1" fill="#737373"/>
<rect x="7" y="21" width="1" height="1" fill="#ccc364"/>
<rect x="31" y="21" width="1" height="1" fill="#717171"/>
<rect x="30" y="21" width="1" height="1" fill="#727272"/>
<rect x="20" y="21" width="3" height="1" fill="#5c5c5c"/>
<rect x="14" y="21" width="1" height="1" fill="#7c7b7b"/>
<rect x="0" y="21" width="2" height="1" fill="#737373"/>
<rect x="12" y="21" width="2" height="1" fill="#898a8a"/>
<rect x="29" y="21" width="1" height="1" fill="#767575"/>
<rect x="18" y="21" width="1" height="1" fill="#717171"/>
<rect x="9" y="21" width="1" height="1" fill="#898a8a"/>
<rect x="4" y="21" width="1" height="1" fill="#917755"/>
<rect x="6" y="21" width="1" height="1" fill="#bca456"/>
<rect x="5" y="21" width="1" height="1" fill="#c0863c"/>
<rect x="15" y="21" width="2" height="1" fill="#7f7e7c"/>
<rect x="2" y="21" width="1" height="1" fill="#6f6f6f"/>
<rect x="23" y="21" width="3" height="1" fill="#645f58"/>
<rect x="26" y="22" width="1" height="1" fill="#656462"/>
<rect x="5" y="22" width="3" height="1" fill="#9d8d72"/>
<rect x="1" y="22" width="1" height="1" fill="#71706f"/>
<rect x="29" y="22" width="1" height="1" fill="#626262"/>
<rect x="28" y="22" width="1" height="1" fill="#636363"/>
<rect x="3" y="22" width="1" height="1" fill="#737373"/>
<rect x="27" y="22" width="1" height="1" fill="#626262"/>
<rect x="4" y="22" width="1" height="1" fill="#797878"/>
<rect x="9" y="22" width="1" height="1" fill="#7f7e7c"/>
<rect x="10" y="22" width="1" height="1" fill="#6f6f6f"/>
<rect x="11" y="22" width="2" height="1" fill="#6c6c6c"/>
<rect x="14" y="22" width="2" height="1" fill="#686868"/>
<rect x="16" y="22" width="1" height="1" fill="#6d6d6d"/>
<rect x="17" y="22" width="1" height="2" fill="#686868"/>
<rect x="31" y="22" width="1" height="2" fill="#6c6c6c"/>
<rect x="8" y="22" width="1" height="2" fill="#848381"/>
<rect x="18" y="22" width="1" height="2" fill="#5c5c5c"/>
<rect x="19" y="22" width="1" height="2" fill="#645f58"/>
<rect x="24" y="22" width="2" height="2" fill="#c0863c"/>
<rect x="23" y="22" width="1" height="2" fill="#8a6a41"/>
<rect x="30" y="22" width="1" height="2" fill="#686868"/>
<rect x="20" y="22" width="3" height="2" fill="#866740"/>
<rect x="13" y="23" width="2" height="1" fill="#626262"/>
<rect x="15" y="23" width="1" height="1" fill="#636363"/>
<rect x="27" y="23" width="1" height="1" fill="#666665"/>
<rect x="10" y="23" width="1" height="1" fill="#6d6d6d"/>
<rect x="28" y="23" width="2" height="1" fill="#656462"/>
<rect x="4" y="23" width="1" height="1" fill="#7f7e7c"/>
<rect x="0" y="23" width="1" height="1" fill="#686868"/>
<rect x="12" y="23" width="1" height="1" fill="#636363"/>
<rect x="9" y="23" width="1" height="1" fill="#7c7b7b"/>
<rect x="26" y="23" width="1" height="1" fill="#73685a"/>
<rect x="5" y="23" width="3" height="1" fill="#898a8a"/>
<rect x="3" y="23" width="1" height="1" fill="#7c7b7b"/>
<rect x="2" y="23" width="1" height="1" fill="#626262"/>
<rect x="12" y="24" width="2" height="1" fill="#737373"/>
<rect x="5" y="24" width="2" height="1" fill="#767575"/>
<rect x="1" y="24" width="1" height="1" fill="#6d6d6d"/>
<rect x="16" y="24" width="1" height="1" fill="#666665"/>
<rect x="7" y="24" width="1" height="1" fill="#737373"/>
<rect x="8" y="24" width="1" height="1" fill="#6f6f6f"/>
<rect x="11" y="24" width="1" height="1" fill="#767575"/>
<rect x="3" y="24" width="1" height="1" fill="#767575"/>
<rect x="4" y="24" width="1" height="1" fill="#797878"/>
<rect x="9" y="24" width="1" height="1" fill="#6d6d6d"/>
<rect x="14" y="24" width="2" height="1" fill="#6d6d6d"/>
<rect x="0" y="24" width="1" height="1" fill="#626262"/>
<rect x="2" y="24" width="1" height="1" fill="#686868"/>
<rect x="18" y="24" width="1" height="1" fill="#7f694d"/>
<rect x="20" y="24" width="4" height="2" fill="#c0863c"/>
<rect x="28" y="24" width="1" height="2" fill="#8a6a41"/>
<rect x="29" y="24" width="1" height="2" fill="#866740"/>
<rect x="31" y="24" width="1" height="2" fill="#666665"/>
<rect x="17" y="24" width="1" height="2" fill="#656462"/>
<rect x="24" y="24" width="4" height="2" fill="#ccc364"/>
<rect x="30" y="24" width="1" height="2" fill="#73685a"/>
<rect x="10" y="24" width="1" height="2" fill="#737373"/>
<rect x="19" y="24" width="1" height="2" fill="#8a6a41"/>
<rect x="3" y="25" width="1" height="1" fill="#717171"/>
<rect x="0" y="25" width="1" height="1" fill="#636363"/>
<rect x="6" y="25" width="4" height="1" fill="#626262"/>
<rect x="4" y="25" width="1" height="1" fill="#71706f"/>
<rect x="1" y="25" width="2" height="1" fill="#71706f"/>
<rect x="15" y="25" width="1" height="1" fill="#71706f"/>
<rect x="18" y="25" width="1" height="1" fill="#866740"/>
<rect x="16" y="25" width="1" height="1" fill="#636363"/>
<rect x="12" y="25" width="2" height="1" fill="#7c7b7b"/>
<rect x="5" y="25" width="1" height="1" fill="#636363"/>
<rect x="14" y="25" width="1" height="1" fill="#737373"/>
<rect x="11" y="25" width="1" height="1" fill="#7f7e7c"/>
<rect x="6" y="26" width="3" height="1" fill="#7f694d"/>
<rect x="5" y="26" width="1" height="1" fill="#73685a"/>
<rect x="16" y="26" width="1" height="1" fill="#686868"/>
<rect x="12" y="26" width="2" height="1" fill="#767575"/>
<rect x="11" y="26" width="1" height="1" fill="#727272"/>
<rect x="18" y="26" width="1" height="1" fill="#7f7e7c"/>
<rect x="14" y="26" width="2" height="1" fill="#7f694d"/>
<rect x="19" y="26" width="1" height="1" fill="#9d8d72"/>
<rect x="26" y="26" width="2" height="1" fill="#9d8d72"/>
<rect x="4" y="26" width="1" height="1" fill="#6d6d6d"/>
<rect x="24" y="26" width="2" height="1" fill="#ccc364"/>
<rect x="1" y="26" width="1" height="1" fill="#737271"/>
<rect x="2" y="26" width="2" height="1" fill="#6f6f6f"/>
<rect x="10" y="26" width="1" height="1" fill="#737271"/>
<rect x="9" y="26" width="1" height="1" fill="#917755"/>
<rect x="30" y="26" width="1" height="1" fill="#71706f"/>
<rect x="22" y="26" width="2" height="1" fill="#bca456"/>
<rect x="28" y="26" width="2" height="1" fill="#848381"/>
<rect x="20" y="26" width="2" height="2" fill="#c0863c"/>
<rect x="31" y="26" width="1" height="2" fill="#6c6c6c"/>
<rect x="16" y="27" width="1" height="1" fill="#6c6a67"/>
<rect x="17" y="27" width="1" height="1" fill="#6d6d6d"/>
<rect x="30" y="27" width="1" height="1" fill="#737373"/>
<rect x="26" y="27" width="4" height="1" fill="#898a8a"/>
<rect x="13" y="27" width="1" height="1" fill="#717171"/>
<rect x="9" y="27" width="1" height="1" fill="#c0863c"/>
<rect x="18" y="27" width="2" height="1" fill="#898a8a"/>
<rect x="8" y="27" width="1" height="1" fill="#8a6a41"/>
<rect x="10" y="27" width="1" height="1" fill="#917755"/>
<rect x="1" y="27" width="1" height="1" fill="#737272"/>
<rect x="5" y="27" width="1" height="1" fill="#7f694d"/>
<rect x="15" y="27" width="1" height="1" fill="#866740"/>
<rect x="3" y="27" width="1" height="1" fill="#6d6d6d"/>
<rect x="22" y="27" width="4" height="1" fill="#ccc364"/>
<rect x="2" y="27" width="1" height="1" fill="#6f6f6f"/>
<rect x="6" y="27" width="2" height="1" fill="#866740"/>
<rect x="14" y="27" width="1" height="1" fill="#7f694d"/>
<rect x="12" y="27" width="1" height="1" fill="#71706f"/>
<rect x="0" y="27" width="1" height="1" fill="#767575"/>
<rect x="9" y="28" width="1" height="1" fill="#ccc364"/>
<rect x="24" y="28" width="2" height="1" fill="#9d8d72"/>
<rect x="4" y="28" width="1" height="1" fill="#7f694d"/>
<rect x="2" y="28" width="1" height="1" fill="#767575"/>
<rect x="1" y="28" width="1" height="1" fill="#7f7e7c"/>
<rect x="20" y="28" width="1" height="1" fill="#8a6a41"/>
<rect x="10" y="28" width="2" height="1" fill="#bca456"/>
<rect x="0" y="28" width="1" height="1" fill="#848381"/>
<rect x="13" y="28" width="1" height="1" fill="#797878"/>
<rect x="5" y="28" width="2" height="1" fill="#aa834d"/>
<rect x="30" y="28" width="2" height="1" fill="#797878"/>
<rect x="18" y="28" width="2" height="1" fill="#7c7b7b"/>
<rect x="14" y="28" width="2" height="1" fill="#7f7e7c"/>
<rect x="27" y="28" width="3" height="1" fill="#767575"/>
<rect x="3" y="28" width="1" height="1" fill="#71706f"/>
<rect x="26" y="28" width="1" height="1" fill="#797878"/>
<rect x="16" y="28" width="2" height="1" fill="#6c6c6c"/>
<rect x="22" y="28" width="2" height="1" fill="#bca456"/>
<rect x="7" y="28" width="2" height="1" fill="#bca456"/>
<rect x="12" y="28" width="1" height="1" fill="#7f7e7c"/>
<rect x="21" y="28" width="1" height="1" fill="#aa834d"/>
<rect x="3" y="29" width="1" height="1" fill="#737271"/>
<rect x="22" y="29" width="2" height="1" fill="#c0863c"/>
<rect x="16" y="29" width="1" height="1" fill="#6f6f6f"/>
<rect x="13" y="29" width="1" height="1" fill="#7c7b7b"/>
<rect x="5" y="29" width="2" height="1" fill="#c0863c"/>
<rect x="7" y="29" width="5" height="1" fill="#ccc364"/>
<rect x="19" y="29" width="1" height="1" fill="#71706f"/>
<rect x="21" y="29" width="1" height="1" fill="#8a6a41"/>
<rect x="14" y="29" width="2" height="1" fill="#898a8a"/>
<rect x="2" y="29" width="1" height="1" fill="#7c7b7b"/>
<rect x="4" y="29" width="1" height="1" fill="#866740"/>
<rect x="26" y="29" width="1" height="1" fill="#6d6d6d"/>
<rect x="0" y="29" width="2" height="1" fill="#848381"/>
<rect x="20" y="29" width="1" height="1" fill="#866740"/>
<rect x="12" y="29" width="1" height="1" fill="#9d8d72"/>
<rect x="30" y="29" width="1" height="1" fill="#797878"/>
<rect x="24" y="29" width="2" height="1" fill="#898a8a"/>
<rect x="31" y="29" width="1" height="2" fill="#7f7e7c"/>
<rect x="18" y="29" width="1" height="2" fill="#717171"/>
<rect x="16" y="30" width="1" height="1" fill="#717171"/>
<rect x="2" y="30" width="1" height="1" fill="#767575"/>
<rect x="5" y="30" width="1" height="1" fill="#917755"/>
<rect x="28" y="30" width="2" height="1" fill="#917755"/>
<rect x="21" y="30" width="1" height="1" fill="#917755"/>
<rect x="6" y="30" width="1" height="1" fill="#9d8d72"/>
<rect x="26" y="30" width="1" height="1" fill="#767575"/>
<rect x="27" y="30" width="1" height="1" fill="#737271"/>
<rect x="9" y="30" width="2" height="1" fill="#ccc364"/>
<rect x="22" y="30" width="2" height="1" fill="#9d8d72"/>
<rect x="0" y="30" width="1" height="1" fill="#7f7e7c"/>
<rect x="17" y="30" width="1" height="1" fill="#6f6f6f"/>
<rect x="4" y="30" width="1" height="1" fill="#73685a"/>
<rect x="19" y="30" width="1" height="1" fill="#737271"/>
<rect x="13" y="30" width="1" height="1" fill="#767575"/>
<rect x="20" y="30" width="1" height="1" fill="#797878"/>
<rect x="14" y="30" width="2" height="1" fill="#7c7b7b"/>
<rect x="11" y="30" width="1" height="1" fill="#9d8d72"/>
<rect x="30" y="30" width="1" height="1" fill="#7c7b7b"/>
<rect x="3" y="30" width="1" height="1" fill="#71706f"/>
<rect x="24" y="30" width="2" height="1" fill="#848381"/>
<rect x="7" y="30" width="2" height="1" fill="#bca456"/>
<rect x="12" y="30" width="1" height="1" fill="#7f7e7c"/>
<rect x="1" y="30" width="1" height="1" fill="#848381"/>
<rect x="27" y="31" width="1" height="1" fill="#7f7e7c"/>
<rect x="5" y="31" width="1" height="1" fill="#7f7e7c"/>
<rect x="2" y="31" width="1" height="1" fill="#737373"/>
<rect x="9" y="31" width="1" height="1" fill="#ccc364"/>
<rect x="12" y="31" width="1" height="1" fill="#797878"/>
<rect x="20" y="31" width="4" height="1" fill="#898a8a"/>
<rect x="3" y="31" width="1" height="1" fill="#6f6f6f"/>
<rect x="1" y="31" width="1" height="1" fill="#7f7e7c"/>
<rect x="6" y="31" width="1" height="1" fill="#898a8a"/>
<rect x="13" y="31" width="1" height="1" fill="#717171"/>
<rect x="7" y="31" width="1" height="1" fill="#aa834d"/>
<rect x="4" y="31" width="1" height="1" fill="#686868"/>
<rect x="25" y="31" width="2" height="1" fill="#7c7b7b"/>
<rect x="24" y="31" width="1" height="1" fill="#7f7e7c"/>
<rect x="30" y="31" width="1" height="1" fill="#7f7e7c"/>
<rect x="11" y="31" width="1" height="1" fill="#7c7b7b"/>
<rect x="8" y="31" width="1" height="1" fill="#c0863c"/>
<rect x="19" y="31" width="1" height="1" fill="#737373"/>
<rect x="31" y="31" width="1" height="1" fill="#848381"/>
<rect x="10" y="31" width="1" height="1" fill="#bca456"/>
<rect x="28" y="31" width="2" height="1" fill="#c0863c"/>
<rect x="14" y="31" width="5" height="1" fill="#727272"/>
<rect x="0" y="31" width="1" height="1" fill="#767575"/>
</svg>