<?xml version="1.0" encoding="UTF-8"?>
<svg xmlns="http://www.w3.org/2000/svg" width="20mm" height="20mm" viewBox="0 0 32 32" shape-rendering="crispEdges">
<title>153 右侧面 structured semantic redraw</title>
<metadata>registered 32-unit semantic vector redraw; no embedded raster; physical-size=20mm</metadata>
<rect x="0" y="0" width="32" height="32" fill="#cba8b5"/>
<rect x="14" y="0" width="1" height="1" fill="#d299ad"/>
<rect x="5" y="0" width="1" height="1" fill="#d299ad"/>
<rect x="19" y="0" width="2" height="1" fill="#cba7b4"/>
<rect x="18" y="0" width="1" height="1" fill="#cba3b1"/>
<rect x="15" y="0" width="2" height="1" fill="#cb9cad"/>
<rect x="25" y="0" width="2" height="1" fill="#caa8b4"/>
<rect x="21" y="0" width="1" height="1" fill="#caa0af"/>
<rect x="11" y="0" width="2" height="1" fill="#ca96a9"/>
<rect x="27" y="0" width="1" height="1" fill="#cba8b4"/>
<rect x="17" y="0" width="1" height="1" fill="#caa1b0"/>
<rect x="22" y="0" width="1" height="1" fill="#c99eae"/>
<rect x="0" y="0" width="5" height="1" fill="#dfabbd"/>
<rect x="7" y="0" width="4" height="1" fill="#c68da1"/>
<rect x="23" y="0" width="1" height="1" fill="#cba3b1"/>
<rect x="13" y="0" width="1" height="1" fill="#d194aa"/>
<rect x="6" y="0" width="1" height="2" fill="#d194aa"/>
<rect x="30" y="0" width="1" height="2" fill="#cba9b5"/>
<rect x="7" y="1" width="1" height="1" fill="#ca96a9"/>
<rect x="12" y="1" width="1" height="1" fill="#cba7b4"/>
<rect x="17" y="1" width="1" height="1" fill="#caa7b4"/>
<rect x="22" y="1" width="1" height="1" fill="#ca9fae"/>
<rect x="9" y="1" width="1" height="1" fill="#ca9eae"/>
<rect x="24" y="1" width="1" height="1" fill="#caa8b5"/>
<rect x="29" y="1" width="1" height="1" fill="#caa8b4"/>
<rect x="8" y="1" width="1" height="1" fill="#cb9cad"/>
<rect x="0" y="1" width="6" height="1" fill="#c68da1"/>
<rect x="10" y="1" width="1" height="1" fill="#caa1b0"/>
<rect x="23" y="1" width="1" height="1" fill="#cba6b3"/>
<rect x="25" y="1" width="1" height="1" fill="#cba7b5"/>
<rect x="21" y="1" width="1" height="1" fill="#c99dad"/>
<rect x="11" y="1" width="1" height="1" fill="#cba3b1"/>
<rect x="20" y="1" width="1" height="1" fill="#caa1b0"/>
<rect x="27" y="1" width="1" height="2" fill="#caa8b4"/>
<rect x="19" y="2" width="1" height="1" fill="#caa4b2"/>
<rect x="2" y="2" width="1" height="1" fill="#cb9cad"/>
<rect x="3" y="2" width="1" height="1" fill="#caa0af"/>
<rect x="9" y="2" width="1" height="1" fill="#caa8b4"/>
<rect x="18" y="2" width="1" height="1" fill="#cba9b5"/>
<rect x="5" y="2" width="1" height="1" fill="#cba6b3"/>
<rect x="20" y="2" width="1" height="1" fill="#c99dad"/>
<rect x="10" y="2" width="1" height="1" fill="#caa7b5"/>
<rect x="1" y="2" width="1" height="1" fill="#ca96a9"/>
<rect x="4" y="2" width="1" height="1" fill="#cba3b1"/>
<rect x="22" y="2" width="1" height="1" fill="#caa4b2"/>
<rect x="30" y="2" width="1" height="1" fill="#caa8b5"/>
<rect x="21" y="2" width="1" height="1" fill="#ca9fae"/>
<rect x="12" y="2" width="1" height="1" fill="#cba8b4"/>
<rect x="29" y="2" width="1" height="1" fill="#cba9b5"/>
<rect x="6" y="2" width="1" height="1" fill="#cba7b5"/>
<rect x="17" y="2" width="1" height="1" fill="#cba8b4"/>
<rect x="24" y="2" width="2" height="1" fill="#cba8b4"/>
<rect x="3" y="3" width="1" height="1" fill="#cba8b4"/>
<rect x="8" y="3" width="1" height="1" fill="#caa7b4"/>
<rect x="17" y="3" width="1" height="1" fill="#caa8b5"/>
<rect x="26" y="3" width="2" height="1" fill="#caa8b4"/>
<rect x="18" y="3" width="1" height="1" fill="#cba6b3"/>
<rect x="4" y="3" width="1" height="1" fill="#cba7b4"/>
<rect x="10" y="3" width="1" height="1" fill="#caa7b4"/>
<rect x="24" y="3" width="1" height="1" fill="#cba8b4"/>
<rect x="7" y="3" width="1" height="1" fill="#cba7b4"/>
<rect x="5" y="3" width="1" height="1" fill="#cba8b4"/>
<rect x="1" y="3" width="1" height="1" fill="#caa3b1"/>
<rect x="21" y="3" width="1" height="1" fill="#cba3b1"/>
<rect x="19" y="3" width="2" height="1" fill="#c99eae"/>
<rect x="11" y="3" width="2" height="1" fill="#cba8b4"/>
<rect x="23" y="3" width="1" height="1" fill="#caa8b4"/>
<rect x="2" y="3" width="1" height="2" fill="#caa8b4"/>
<rect x="17" y="4" width="1" height="1" fill="#caa7b4"/>
<rect x="8" y="4" width="1" height="1" fill="#caa7b5"/>
<rect x="14" y="4" width="1" height="1" fill="#cba8b4"/>
<rect x="27" y="4" width="1" height="1" fill="#cba7b4"/>
<rect x="19" y="4" width="1" height="1" fill="#ca9eae"/>
<rect x="25" y="4" width="2" height="1" fill="#caa8b4"/>
<rect x="29" y="4" width="2" height="1" fill="#cba9b5"/>
<rect x="1" y="4" width="1" height="1" fill="#caa0af"/>
<rect x="23" y="4" width="1" height="1" fill="#caa7b4"/>
<rect x="12" y="4" width="1" height="1" fill="#caa4b2"/>
<rect x="18" y="4" width="1" height="1" fill="#ca9fae"/>
<rect x="21" y="4" width="2" height="1" fill="#cba8b4"/>
<rect x="7" y="4" width="1" height="1" fill="#caa7b4"/>
<rect x="10" y="4" width="1" height="1" fill="#caa8b4"/>
<rect x="20" y="4" width="1" height="1" fill="#caa1b0"/>
<rect x="31" y="0" width="1" height="6" fill="#cb9cad"/>
<rect x="13" y="4" width="1" height="2" fill="#cba6b3"/>
<rect x="12" y="5" width="1" height="1" fill="#caa0af"/>
<rect x="5" y="5" width="1" height="1" fill="#cba7b4"/>
<rect x="29" y="5" width="1" height="1" fill="#caa9b4"/>
<rect x="7" y="5" width="2" height="1" fill="#cba8b4"/>
<rect x="4" y="5" width="1" height="1" fill="#cba8b4"/>
<rect x="6" y="5" width="1" height="1" fill="#caa7b5"/>
<rect x="17" y="5" width="1" height="1" fill="#caa1b0"/>
<rect x="1" y="5" width="1" height="1" fill="#ca9fae"/>
<rect x="19" y="5" width="1" height="1" fill="#caa0af"/>
<rect x="28" y="5" width="1" height="1" fill="#caa6b3"/>
<rect x="26" y="5" width="1" height="1" fill="#caa7b4"/>
<rect x="20" y="5" width="1" height="1" fill="#caa6b3"/>
<rect x="22" y="5" width="1" height="1" fill="#cba9b5"/>
<rect x="2" y="5" width="2" height="1" fill="#caa8b4"/>
<rect x="11" y="5" width="1" height="1" fill="#caa6b3"/>
<rect x="18" y="5" width="1" height="1" fill="#c99dad"/>
<rect x="27" y="5" width="1" height="2" fill="#ca9fae"/>
<rect x="25" y="6" width="1" height="1" fill="#cba8b4"/>
<rect x="18" y="6" width="1" height="1" fill="#ca9eae"/>
<rect x="20" y="6" width="2" height="1" fill="#cba8b4"/>
<rect x="24" y="6" width="1" height="1" fill="#caa8b4"/>
<rect x="31" y="6" width="1" height="1" fill="#ca96a9"/>
<rect x="10" y="6" width="1" height="1" fill="#cba7b4"/>
<rect x="11" y="6" width="1" height="1" fill="#ca9eae"/>
<rect x="8" y="6" width="1" height="1" fill="#cba7b5"/>
<rect x="28" y="6" width="1" height="1" fill="#caa7b4"/>
<rect x="19" y="6" width="1" height="1" fill="#cba6b3"/>
<rect x="16" y="6" width="1" height="1" fill="#caa3b1"/>
<rect x="17" y="6" width="1" height="1" fill="#c99dad"/>
<rect x="3" y="6" width="1" height="1" fill="#cba8b4"/>
<rect x="1" y="6" width="1" height="1" fill="#ca9eae"/>
<rect x="13" y="6" width="1" height="1" fill="#caa8b5"/>
<rect x="12" y="6" width="1" height="1" fill="#cba3b1"/>
<rect x="26" y="6" width="1" height="1" fill="#caa0af"/>
<rect x="22" y="6" width="1" height="2" fill="#caa8b4"/>
<rect x="15" y="7" width="1" height="1" fill="#caa5b3"/>
<rect x="26" y="7" width="1" height="1" fill="#ca9fae"/>
<rect x="4" y="7" width="1" height="1" fill="#caa8b5"/>
<rect x="11" y="7" width="1" height="1" fill="#ca9fae"/>
<rect x="29" y="7" width="1" height="1" fill="#caa9b4"/>
<rect x="20" y="7" width="1" height="1" fill="#cba7b5"/>
<rect x="10" y="7" width="1" height="1" fill="#c9a0af"/>
<rect x="17" y="7" width="1" height="1" fill="#caa1b0"/>
<rect x="19" y="7" width="1" height="1" fill="#caa7b5"/>
<rect x="16" y="7" width="1" height="1" fill="#c99eae"/>
<rect x="12" y="7" width="2" height="1" fill="#caa7b4"/>
<rect x="1" y="7" width="1" height="1" fill="#cb9cad"/>
<rect x="8" y="7" width="1" height="1" fill="#caa8b5"/>
<rect x="18" y="7" width="1" height="1" fill="#caa5b3"/>
<rect x="25" y="7" width="1" height="1" fill="#caa2b0"/>
<rect x="27" y="7" width="1" height="1" fill="#caa7b4"/>
<rect x="6" y="7" width="1" height="2" fill="#caa8b4"/>
<rect x="10" y="8" width="1" height="1" fill="#c99dad"/>
<rect x="23" y="8" width="1" height="1" fill="#caa8b5"/>
<rect x="20" y="8" width="1" height="1" fill="#caa8b4"/>
<rect x="2" y="8" width="1" height="1" fill="#caa8b5"/>
<rect x="14" y="8" width="1" height="1" fill="#caa6b3"/>
<rect x="9" y="8" width="1" height="1" fill="#caa3b1"/>
<rect x="24" y="8" width="1" height="1" fill="#caa3b1"/>
<rect x="12" y="8" width="1" height="1" fill="#caa8b4"/>
<rect x="16" y="8" width="1" height="1" fill="#caa4b2"/>
<rect x="27" y="8" width="1" height="1" fill="#caa8b4"/>
<rect x="3" y="8" width="1" height="1" fill="#cba8b4"/>
<rect x="26" y="8" width="1" height="1" fill="#caa6b3"/>
<rect x="11" y="8" width="1" height="1" fill="#cba7b4"/>
<rect x="15" y="8" width="1" height="1" fill="#ca9fae"/>
<rect x="25" y="8" width="1" height="1" fill="#ca9eae"/>
<rect x="19" y="8" width="1" height="1" fill="#cba7b5"/>
<rect x="17" y="8" width="1" height="1" fill="#cba8b4"/>
<rect x="23" y="9" width="1" height="1" fill="#caa4b2"/>
<rect x="13" y="9" width="1" height="1" fill="#caa7b4"/>
<rect x="9" y="9" width="1" height="1" fill="#c99dad"/>
<rect x="8" y="9" width="1" height="1" fill="#cba6b3"/>
<rect x="10" y="9" width="1" height="1" fill="#caa4b2"/>
<rect x="27" y="9" width="1" height="1" fill="#caa9b4"/>
<rect x="19" y="9" width="1" height="1" fill="#caa7b4"/>
<rect x="24" y="9" width="1" height="1" fill="#c99dad"/>
<rect x="29" y="9" width="1" height="1" fill="#caa8b4"/>
<rect x="30" y="9" width="1" height="1" fill="#caa8b5"/>
<rect x="22" y="9" width="1" height="1" fill="#caa8b5"/>
<rect x="28" y="9" width="1" height="1" fill="#caa7b4"/>
<rect x="20" y="9" width="2" height="1" fill="#caa8b4"/>
<rect x="14" y="9" width="2" height="1" fill="#c9a0af"/>
<rect x="25" y="9" width="1" height="1" fill="#caa4b2"/>
<rect x="18" y="9" width="1" height="1" fill="#caa8b4"/>
<rect x="16" y="9" width="1" height="1" fill="#caa7b4"/>
<rect x="2" y="9" width="1" height="2" fill="#cba9b5"/>
<rect x="15" y="10" width="1" height="1" fill="#caa7b4"/>
<rect x="11" y="10" width="2" height="1" fill="#caa8b5"/>
<rect x="24" y="10" width="1" height="1" fill="#caa3b1"/>
<rect x="23" y="10" width="1" height="1" fill="#c99dad"/>
<rect x="14" y="10" width="1" height="1" fill="#ca9fae"/>
<rect x="5" y="10" width="2" height="1" fill="#cba8b4"/>
<rect x="28" y="10" width="2" height="1" fill="#caa8b4"/>
<rect x="22" y="10" width="1" height="1" fill="#caa6b3"/>
<rect x="9" y="10" width="1" height="1" fill="#caa1b0"/>
<rect x="13" y="10" width="1" height="1" fill="#caa3b1"/>
<rect x="7" y="10" width="1" height="1" fill="#caa7b4"/>
<rect x="0" y="2" width="1" height="10" fill="#bb8297"/>
<rect x="1" y="8" width="1" height="4" fill="#ca96a9"/>
<rect x="8" y="10" width="1" height="2" fill="#ca9fae"/>
<rect x="7" y="11" width="1" height="1" fill="#caa1b0"/>
<rect x="21" y="11" width="1" height="1" fill="#caa7b4"/>
<rect x="26" y="11" width="1" height="1" fill="#caa8b4"/>
<rect x="14" y="11" width="1" height="1" fill="#caa6b3"/>
<rect x="20" y="11" width="1" height="1" fill="#caa8b5"/>
<rect x="13" y="11" width="1" height="1" fill="#cba6b3"/>
<rect x="17" y="11" width="2" height="1" fill="#caa8b5"/>
<rect x="9" y="11" width="1" height="1" fill="#caa7b5"/>
<rect x="23" y="11" width="1" height="1" fill="#caa1b0"/>
<rect x="11" y="11" width="1" height="1" fill="#caa7b4"/>
<rect x="12" y="11" width="1" height="1" fill="#caa7b5"/>
<rect x="27" y="11" width="1" height="1" fill="#cba9b5"/>
<rect x="19" y="11" width="1" height="1" fill="#caa8b4"/>
<rect x="10" y="11" width="1" height="2" fill="#caa8b5"/>
<rect x="22" y="11" width="1" height="2" fill="#ca9fae"/>
<rect x="29" y="11" width="1" height="2" fill="#cba8b4"/>
<rect x="15" y="12" width="1" height="1" fill="#cba7b5"/>
<rect x="19" y="12" width="1" height="1" fill="#caa8b5"/>
<rect x="8" y="12" width="1" height="1" fill="#cba7b4"/>
<rect x="13" y="12" width="1" height="1" fill="#caa7b5"/>
<rect x="23" y="12" width="1" height="1" fill="#cba8b4"/>
<rect x="7" y="12" width="1" height="1" fill="#c99dad"/>
<rect x="20" y="12" width="1" height="1" fill="#cba8b4"/>
<rect x="12" y="12" width="1" height="1" fill="#caa8b5"/>
<rect x="17" y="12" width="1" height="1" fill="#cba7b5"/>
<rect x="21" y="12" width="1" height="1" fill="#c99eae"/>
<rect x="24" y="12" width="2" height="1" fill="#caa8b4"/>
<rect x="26" y="12" width="1" height="1" fill="#cba9b5"/>
<rect x="30" y="12" width="1" height="1" fill="#cba9b5"/>
<rect x="3" y="12" width="1" height="1" fill="#cba8b4"/>
<rect x="11" y="12" width="1" height="1" fill="#caa7b5"/>
<rect x="6" y="12" width="1" height="1" fill="#caa4b2"/>
<rect x="4" y="13" width="1" height="1" fill="#caa8b5"/>
<rect x="5" y="13" width="1" height="1" fill="#cba6b3"/>
<rect x="26" y="13" width="1" height="1" fill="#caa8b4"/>
<rect x="29" y="13" width="2" height="1" fill="#cba9b5"/>
<rect x="7" y="13" width="1" height="1" fill="#caa4b2"/>
<rect x="20" y="13" width="1" height="1" fill="#caa2b0"/>
<rect x="21" y="13" width="1" height="1" fill="#ca9fae"/>
<rect x="16" y="13" width="1" height="1" fill="#cba7b5"/>
<rect x="23" y="13" width="1" height="1" fill="#cba7b4"/>
<rect x="24" y="13" width="1" height="1" fill="#cba8b4"/>
<rect x="22" y="13" width="1" height="1" fill="#caa7b4"/>
<rect x="2" y="13" width="2" height="1" fill="#cba7b5"/>
<rect x="18" y="13" width="1" height="1" fill="#cba7b5"/>
<rect x="25" y="13" width="1" height="1" fill="#caa8b5"/>
<rect x="10" y="13" width="1" height="1" fill="#cba7b5"/>
<rect x="6" y="13" width="1" height="1" fill="#c99dad"/>
<rect x="12" y="13" width="1" height="1" fill="#caa7b5"/>
<rect x="0" y="12" width="2" height="3" fill="#c68da1"/>
<rect x="26" y="14" width="2" height="1" fill="#caa8b4"/>
<rect x="20" y="14" width="1" height="1" fill="#ca9fae"/>
<rect x="10" y="14" width="1" height="1" fill="#caa8b5"/>
<rect x="19" y="14" width="1" height="1" fill="#caa3b1"/>
<rect x="9" y="14" width="1" height="1" fill="#caa8b4"/>
<rect x="21" y="14" width="1" height="1" fill="#caa6b3"/>
<rect x="24" y="14" width="1" height="1" fill="#caa8b4"/>
<rect x="3" y="14" width="1" height="1" fill="#caa8b4"/>
<rect x="5" y="14" width="1" height="1" fill="#ca9fae"/>
<rect x="15" y="14" width="2" height="1" fill="#caa8b4"/>
<rect x="2" y="14" width="1" height="1" fill="#caa7b4"/>
<rect x="12" y="14" width="1" height="1" fill="#caa8b5"/>
<rect x="17" y="14" width="1" height="1" fill="#cba7b5"/>
<rect x="6" y="14" width="1" height="1" fill="#caa1b0"/>
<rect x="8" y="14" width="1" height="1" fill="#caa8b5"/>
<rect x="29" y="14" width="1" height="1" fill="#cba8b4"/>
<rect x="22" y="14" width="1" height="2" fill="#cba7b5"/>
<rect x="5" y="15" width="1" height="1" fill="#c9a0af"/>
<rect x="9" y="15" width="1" height="1" fill="#cba7b5"/>
<rect x="20" y="15" width="1" height="1" fill="#caa5b3"/>
<rect x="4" y="15" width="1" height="1" fill="#caa2b0"/>
<rect x="24" y="15" width="1" height="1" fill="#cba7b5"/>
<rect x="29" y="15" width="2" height="1" fill="#cba9b5"/>
<rect x="6" y="15" width="1" height="1" fill="#cba7b4"/>
<rect x="12" y="15" width="1" height="1" fill="#cba7b5"/>
<rect x="2" y="15" width="1" height="1" fill="#cba7b4"/>
<rect x="0" y="15" width="1" height="1" fill="#ca96a9"/>
<rect x="17" y="15" width="1" height="1" fill="#caa8b5"/>
<rect x="18" y="15" width="1" height="1" fill="#caa5b3"/>
<rect x="19" y="15" width="1" height="1" fill="#ca9fae"/>
<rect x="15" y="15" width="2" height="1" fill="#caa7b4"/>
<rect x="10" y="15" width="1" height="1" fill="#caa8b4"/>
<rect x="11" y="15" width="1" height="1" fill="#caa6b3"/>
<rect x="14" y="14" width="1" height="3" fill="#cba7b5"/>
<rect x="23" y="16" width="1" height="1" fill="#cba7b5"/>
<rect x="19" y="16" width="1" height="1" fill="#caa4b2"/>
<rect x="10" y="16" width="1" height="1" fill="#caa3b1"/>
<rect x="4" y="16" width="2" height="1" fill="#cba6b3"/>
<rect x="17" y="16" width="1" height="1" fill="#caa6b3"/>
<rect x="24" y="16" width="1" height="1" fill="#caa8b4"/>
<rect x="16" y="16" width="1" height="1" fill="#caa8b4"/>
<rect x="28" y="16" width="1" height="1" fill="#cba8b4"/>
<rect x="15" y="16" width="1" height="1" fill="#cba7b4"/>
<rect x="18" y="16" width="1" height="1" fill="#ca9fae"/>
<rect x="2" y="16" width="1" height="1" fill="#caa6b3"/>
<rect x="22" y="16" width="1" height="1" fill="#cba8b4"/>
<rect x="8" y="16" width="1" height="1" fill="#caa8b5"/>
<rect x="11" y="16" width="1" height="1" fill="#c9a0af"/>
<rect x="7" y="16" width="1" height="1" fill="#caa7b5"/>
<rect x="12" y="16" width="1" height="1" fill="#caa7b4"/>
<rect x="31" y="7" width="1" height="11" fill="#cb9cad"/>
<rect x="16" y="17" width="1" height="1" fill="#caa7b4"/>
<rect x="18" y="17" width="1" height="1" fill="#caa3b1"/>
<rect x="9" y="17" width="1" height="1" fill="#caa5b3"/>
<rect x="23" y="17" width="1" height="1" fill="#ca9eae"/>
<rect x="17" y="17" width="1" height="1" fill="#caa0af"/>
<rect x="11" y="17" width="1" height="1" fill="#caa5b3"/>
<rect x="14" y="17" width="2" height="1" fill="#caa8b4"/>
<rect x="5" y="17" width="1" height="1" fill="#cba7b5"/>
<rect x="12" y="17" width="1" height="1" fill="#caa8b5"/>
<rect x="20" y="17" width="1" height="1" fill="#caa7b4"/>
<rect x="21" y="17" width="1" height="1" fill="#caa8b5"/>
<rect x="24" y="17" width="1" height="1" fill="#cba7b4"/>
<rect x="10" y="17" width="1" height="1" fill="#c99eae"/>
<rect x="22" y="17" width="1" height="1" fill="#caa6b3"/>
<rect x="3" y="17" width="1" height="1" fill="#caa7b5"/>
<rect x="0" y="16" width="1" height="3" fill="#d194aa"/>
<rect x="2" y="17" width="1" height="2" fill="#caa4b2"/>
<rect x="7" y="17" width="1" height="2" fill="#caa8b5"/>
<rect x="9" y="18" width="1" height="1" fill="#ca9fae"/>
<rect x="15" y="18" width="1" height="1" fill="#cba7b5"/>
<rect x="10" y="18" width="1" height="1" fill="#caa3b1"/>
<rect x="8" y="18" width="1" height="1" fill="#cba7b4"/>
<rect x="30" y="18" width="1" height="1" fill="#caa1b0"/>
<rect x="23" y="18" width="1" height="1" fill="#caa2b0"/>
<rect x="18" y="18" width="1" height="1" fill="#cba8b4"/>
<rect x="11" y="18" width="1" height="1" fill="#caa8b4"/>
<rect x="20" y="18" width="1" height="1" fill="#caa8b5"/>
<rect x="3" y="18" width="1" height="1" fill="#caa8b4"/>
<rect x="21" y="18" width="1" height="1" fill="#cba6b3"/>
<rect x="27" y="18" width="2" height="1" fill="#cba9b5"/>
<rect x="22" y="18" width="1" height="1" fill="#c99dad"/>
<rect x="16" y="18" width="2" height="1" fill="#caa1b0"/>
<rect x="6" y="18" width="1" height="1" fill="#cba7b5"/>
<rect x="29" y="18" width="1" height="1" fill="#cba7b4"/>
<rect x="4" y="19" width="1" height="1" fill="#caa8b4"/>
<rect x="25" y="19" width="1" height="1" fill="#cba8b4"/>
<rect x="17" y="19" width="1" height="1" fill="#caa7b4"/>
<rect x="22" y="19" width="1" height="1" fill="#caa0af"/>
<rect x="10" y="19" width="1" height="1" fill="#caa8b5"/>
<rect x="5" y="19" width="2" height="1" fill="#cba7b5"/>
<rect x="16" y="19" width="1" height="1" fill="#caa0af"/>
<rect x="29" y="19" width="1" height="1" fill="#caa1b0"/>
<rect x="15" y="19" width="1" height="1" fill="#caa2b0"/>
<rect x="8" y="19" width="1" height="1" fill="#caa0af"/>
<rect x="2" y="19" width="1" height="1" fill="#caa2b0"/>
<rect x="21" y="19" width="1" height="1" fill="#ca9fae"/>
<rect x="30" y="19" width="1" height="1" fill="#ca9eae"/>
<rect x="9" y="19" width="1" height="1" fill="#c9a0af"/>
<rect x="28" y="19" width="1" height="1" fill="#cba7b4"/>
<rect x="20" y="19" width="1" height="1" fill="#cba7b4"/>
<rect x="14" y="19" width="1" height="1" fill="#cba7b5"/>
<rect x="11" y="19" width="2" height="1" fill="#cba7b5"/>
<rect x="7" y="19" width="1" height="1" fill="#cba7b4"/>
<rect x="13" y="19" width="1" height="1" fill="#caa8b5"/>
<rect x="27" y="19" width="1" height="1" fill="#cba8b4"/>
<rect x="19" y="19" width="1" height="1" fill="#caa8b4"/>
<rect x="23" y="19" width="1" height="1" fill="#caa8b4"/>
<rect x="14" y="20" width="1" height="1" fill="#caa3b1"/>
<rect x="8" y="20" width="1" height="1" fill="#c9a0af"/>
<rect x="16" y="20" width="1" height="1" fill="#caa6b3"/>
<rect x="5" y="20" width="1" height="1" fill="#cba7b4"/>
<rect x="30" y="20" width="1" height="1" fill="#ca9fae"/>
<rect x="6" y="20" width="1" height="1" fill="#cba8b4"/>
<rect x="18" y="20" width="1" height="1" fill="#caa7b4"/>
<rect x="19" y="20" width="1" height="1" fill="#cba8b4"/>
<rect x="7" y="20" width="1" height="1" fill="#caa2b0"/>
<rect x="20" y="20" width="2" height="1" fill="#caa1b0"/>
<rect x="29" y="20" width="1" height="1" fill="#c99dad"/>
<rect x="26" y="20" width="1" height="1" fill="#cba8b4"/>
<rect x="24" y="20" width="1" height="1" fill="#caa7b4"/>
<rect x="25" y="20" width="1" height="1" fill="#caa8b4"/>
<rect x="9" y="20" width="1" height="1" fill="#cba7b4"/>
<rect x="17" y="20" width="1" height="1" fill="#caa8b5"/>
<rect x="22" y="20" width="1" height="1" fill="#caa7b4"/>
<rect x="11" y="20" width="1" height="1" fill="#cba7b4"/>
<rect x="15" y="20" width="1" height="1" fill="#ca9fae"/>
<rect x="2" y="20" width="1" height="1" fill="#caa1b0"/>
<rect x="28" y="20" width="1" height="1" fill="#caa1b0"/>
<rect x="15" y="21" width="1" height="1" fill="#caa5b3"/>
<rect x="25" y="21" width="1" height="1" fill="#cba8b4"/>
<rect x="30" y="21" width="1" height="1" fill="#cba6b3"/>
<rect x="21" y="21" width="1" height="1" fill="#caa7b4"/>
<rect x="8" y="21" width="1" height="1" fill="#caa6b3"/>
<rect x="19" y="21" width="2" height="1" fill="#caa0af"/>
<rect x="7" y="21" width="1" height="1" fill="#c99eae"/>
<rect x="29" y="21" width="1" height="1" fill="#ca9fae"/>
<rect x="24" y="21" width="1" height="1" fill="#cba7b5"/>
<rect x="28" y="21" width="1" height="1" fill="#c99dad"/>
<rect x="18" y="21" width="1" height="1" fill="#cba7b4"/>
<rect x="14" y="21" width="1" height="1" fill="#caa0af"/>
<rect x="27" y="21" width="1" height="1" fill="#caa2b0"/>
<rect x="2" y="21" width="1" height="1" fill="#caa0af"/>
<rect x="12" y="21" width="1" height="1" fill="#caa7b4"/>
<rect x="10" y="21" width="1" height="1" fill="#cba7b5"/>
<rect x="6" y="21" width="1" height="1" fill="#caa4b2"/>
<rect x="4" y="21" width="1" height="1" fill="#cba7b5"/>
<rect x="23" y="21" width="1" height="1" fill="#caa8b4"/>
<rect x="31" y="18" width="1" height="5" fill="#d299ad"/>
<rect x="13" y="21" width="1" height="2" fill="#cba7b4"/>
<rect x="9" y="21" width="1" height="2" fill="#caa8b5"/>
<rect x="14" y="22" width="1" height="1" fill="#caa7b4"/>
<rect x="7" y="22" width="1" height="1" fill="#caa5b3"/>
<rect x="5" y="22" width="1" height="1" fill="#cba6b3"/>
<rect x="2" y="22" width="1" height="1" fill="#ca9eae"/>
<rect x="28" y="22" width="1" height="1" fill="#ca9eae"/>
<rect x="26" y="22" width="1" height="1" fill="#caa2b0"/>
<rect x="29" y="22" width="1" height="1" fill="#caa4b2"/>
<rect x="18" y="22" width="1" height="1" fill="#caa0af"/>
<rect x="17" y="22" width="1" height="1" fill="#caa8b4"/>
<rect x="20" y="22" width="1" height="1" fill="#cba7b3"/>
<rect x="10" y="22" width="2" height="1" fill="#caa7b4"/>
<rect x="27" y="22" width="1" height="1" fill="#c99dad"/>
<rect x="12" y="22" width="1" height="1" fill="#cba8b4"/>
<rect x="24" y="22" width="1" height="1" fill="#cba7b4"/>
<rect x="19" y="22" width="1" height="1" fill="#c99eae"/>
<rect x="16" y="22" width="1" height="1" fill="#caa7b4"/>
<rect x="6" y="22" width="1" height="1" fill="#c99dad"/>
<rect x="0" y="19" width="1" height="5" fill="#d299ad"/>
<rect x="8" y="23" width="1" height="1" fill="#caa7b4"/>
<rect x="6" y="23" width="1" height="1" fill="#caa3b1"/>
<rect x="13" y="23" width="1" height="1" fill="#cba8b4"/>
<rect x="26" y="23" width="2" height="1" fill="#c99dad"/>
<rect x="15" y="23" width="1" height="1" fill="#caa8b5"/>
<rect x="5" y="23" width="1" height="1" fill="#caa0af"/>
<rect x="2" y="23" width="1" height="1" fill="#c99dad"/>
<rect x="14" y="23" width="1" height="1" fill="#caa7b5"/>
<rect x="17" y="23" width="1" height="1" fill="#caa1b0"/>
<rect x="4" y="23" width="1" height="1" fill="#caa7b4"/>
<rect x="19" y="23" width="1" height="1" fill="#cba7b4"/>
<rect x="29" y="23" width="1" height="1" fill="#caa8b5"/>
<rect x="28" y="23" width="1" height="1" fill="#cba3b1"/>
<rect x="21" y="23" width="1" height="1" fill="#caa8b4"/>
<rect x="9" y="23" width="1" height="1" fill="#caa7b5"/>
<rect x="18" y="23" width="1" height="1" fill="#c99eae"/>
<rect x="16" y="23" width="1" height="1" fill="#cba8b4"/>
<rect x="25" y="23" width="1" height="1" fill="#caa3b1"/>
<rect x="23" y="23" width="1" height="1" fill="#caa8b4"/>
<rect x="12" y="23" width="1" height="2" fill="#caa8b5"/>
<rect x="27" y="24" width="1" height="1" fill="#caa3b1"/>
<rect x="3" y="24" width="1" height="1" fill="#caa8b5"/>
<rect x="17" y="24" width="1" height="1" fill="#ca9eae"/>
<rect x="11" y="24" width="1" height="1" fill="#cba7b5"/>
<rect x="4" y="24" width="2" height="1" fill="#caa1b0"/>
<rect x="29" y="24" width="2" height="1" fill="#cba9b5"/>
<rect x="25" y="24" width="2" height="1" fill="#c99dad"/>
<rect x="6" y="24" width="1" height="1" fill="#caa7b5"/>
<rect x="18" y="24" width="1" height="1" fill="#caa6b3"/>
<rect x="22" y="24" width="1" height="1" fill="#caa8b4"/>
<rect x="16" y="24" width="1" height="1" fill="#caa3b1"/>
<rect x="24" y="24" width="1" height="1" fill="#caa3b1"/>
<rect x="2" y="24" width="1" height="2" fill="#ca96a9"/>
<rect x="0" y="24" width="1" height="2" fill="#d194aa"/>
<rect x="23" y="25" width="1" height="1" fill="#caa4b2"/>
<rect x="15" y="25" width="1" height="1" fill="#caa4b2"/>
<rect x="20" y="25" width="2" height="1" fill="#cba8b4"/>
<rect x="5" y="25" width="1" height="1" fill="#cba7b4"/>
<rect x="18" y="25" width="1" height="1" fill="#cba9b5"/>
<rect x="24" y="25" width="1" height="1" fill="#c99eae"/>
<rect x="3" y="25" width="1" height="1" fill="#caa4b2"/>
<rect x="26" y="25" width="1" height="1" fill="#caa2b0"/>
<rect x="22" y="25" width="1" height="1" fill="#caa8b5"/>
<rect x="17" y="25" width="1" height="1" fill="#caa5b3"/>
<rect x="27" y="25" width="1" height="1" fill="#caa8b4"/>
<rect x="4" y="25" width="1" height="1" fill="#caa0af"/>
<rect x="16" y="25" width="1" height="1" fill="#ca9eae"/>
<rect x="25" y="25" width="1" height="1" fill="#c99dad"/>
<rect x="12" y="25" width="1" height="1" fill="#caa7b4"/>
<rect x="8" y="25" width="1" height="1" fill="#cba8b4"/>
<rect x="1" y="15" width="1" height="12" fill="#bb8297"/>
<rect x="7" y="26" width="1" height="1" fill="#cba6b3"/>
<rect x="13" y="26" width="1" height="1" fill="#cba9b5"/>
<rect x="2" y="26" width="1" height="1" fill="#c68da1"/>
<rect x="22" y="26" width="1" height="1" fill="#cba6b3"/>
<rect x="28" y="26" width="1" height="1" fill="#caa8b4"/>
<rect x="15" y="26" width="1" height="1" fill="#c99dad"/>
<rect x="3" y="26" width="1" height="1" fill="#ca9fae"/>
<rect x="10" y="26" width="1" height="1" fill="#cba8b4"/>
<rect x="26" y="26" width="1" height="1" fill="#cba7b5"/>
<rect x="24" y="26" width="1" height="1" fill="#c99dad"/>
<rect x="16" y="26" width="1" height="1" fill="#caa4b2"/>
<rect x="8" y="26" width="1" height="1" fill="#caa4b2"/>
<rect x="4" y="26" width="1" height="1" fill="#cba6b3"/>
<rect x="14" y="26" width="1" height="1" fill="#caa5b3"/>
<rect x="17" y="26" width="1" height="1" fill="#caa8b5"/>
<rect x="12" y="26" width="1" height="1" fill="#cba8b4"/>
<rect x="19" y="26" width="2" height="1" fill="#cba8b4"/>
<rect x="25" y="26" width="1" height="1" fill="#caa2b0"/>
<rect x="23" y="26" width="1" height="1" fill="#c99eae"/>
<rect x="29" y="27" width="1" height="1" fill="#cba8b4"/>
<rect x="25" y="27" width="1" height="1" fill="#cba7b4"/>
<rect x="8" y="27" width="1" height="1" fill="#caa5b3"/>
<rect x="15" y="27" width="1" height="1" fill="#cba3b1"/>
<rect x="7" y="27" width="1" height="1" fill="#caa1b0"/>
<rect x="5" y="27" width="1" height="1" fill="#caa8b4"/>
<rect x="27" y="27" width="1" height="1" fill="#cba7b5"/>
<rect x="21" y="27" width="1" height="1" fill="#caa5b3"/>
<rect x="23" y="27" width="1" height="1" fill="#c99dad"/>
<rect x="14" y="27" width="1" height="1" fill="#c99dad"/>
<rect x="22" y="27" width="1" height="1" fill="#c99eae"/>
<rect x="6" y="27" width="1" height="1" fill="#cba7b4"/>
<rect x="24" y="27" width="1" height="1" fill="#caa2b0"/>
<rect x="13" y="27" width="1" height="1" fill="#cba6b3"/>
<rect x="3" y="27" width="1" height="1" fill="#caa6b3"/>
<rect x="0" y="26" width="1" height="3" fill="#d299ad"/>
<rect x="7" y="28" width="1" height="1" fill="#cba3b1"/>
<rect x="23" y="28" width="1" height="1" fill="#cba3b1"/>
<rect x="12" y="28" width="1" height="1" fill="#cba7b4"/>
<rect x="22" y="28" width="1" height="1" fill="#c99dad"/>
<rect x="24" y="28" width="1" height="1" fill="#cba7b4"/>
<rect x="6" y="28" width="1" height="1" fill="#caa1b0"/>
<rect x="30" y="28" width="1" height="1" fill="#cba8b4"/>
<rect x="29" y="28" width="1" height="1" fill="#caa8b4"/>
<rect x="20" y="28" width="1" height="1" fill="#cba6b3"/>
<rect x="13" y="28" width="1" height="1" fill="#c99eae"/>
<rect x="21" y="28" width="1" height="1" fill="#ca9fae"/>
<rect x="14" y="28" width="1" height="1" fill="#caa2b0"/>
<rect x="1" y="27" width="2" height="3" fill="#c68da1"/>
<rect x="3" y="28" width="1" height="2" fill="#cba8b4"/>
<rect x="15" y="28" width="1" height="2" fill="#cba9b5"/>
<rect x="23" y="29" width="1" height="1" fill="#cba7b5"/>
<rect x="20" y="29" width="1" height="1" fill="#ca9fae"/>
<rect x="6" y="29" width="1" height="1" fill="#caa2b0"/>
<rect x="25" y="29" width="1" height="1" fill="#cba7b4"/>
<rect x="21" y="29" width="1" height="1" fill="#caa1b0"/>
<rect x="13" y="29" width="1" height="1" fill="#caa1b0"/>
<rect x="22" y="29" width="1" height="1" fill="#caa2b0"/>
<rect x="7" y="29" width="1" height="1" fill="#cba8b4"/>
<rect x="27" y="29" width="1" height="1" fill="#caa8b5"/>
<rect x="5" y="29" width="1" height="1" fill="#caa3b1"/>
<rect x="11" y="29" width="1" height="1" fill="#cba7b4"/>
<rect x="29" y="29" width="1" height="1" fill="#caa7b5"/>
<rect x="12" y="29" width="1" height="2" fill="#ca9fae"/>
<rect x="19" y="29" width="1" height="2" fill="#cba7b4"/>
<rect x="26" y="29" width="1" height="2" fill="#caa7b4"/>
<rect x="0" y="29" width="1" height="2" fill="#d19fb1"/>
<rect x="11" y="30" width="1" height="1" fill="#caa0af"/>
<rect x="13" y="30" width="1" height="1" fill="#cba8b4"/>
<rect x="8" y="30" width="1" height="1" fill="#cba7b4"/>
<rect x="28" y="30" width="1" height="1" fill="#caa8b4"/>
<rect x="14" y="30" width="1" height="1" fill="#cba9b5"/>
<rect x="18" y="30" width="1" height="1" fill="#cba9b5"/>
<rect x="5" y="30" width="1" height="1" fill="#cba6b3"/>
<rect x="20" y="30" width="1" height="1" fill="#caa4b2"/>
<rect x="22" y="30" width="1" height="1" fill="#caa8b4"/>
<rect x="6" y="30" width="1" height="1" fill="#cba7b4"/>
<rect x="29" y="30" width="1" height="1" fill="#caa8b5"/>
<rect x="16" y="30" width="1" height="1" fill="#cba9b5"/>
<rect x="27" y="30" width="1" height="1" fill="#cba8b4"/>
<rect x="3" y="30" width="1" height="1" fill="#cba7b4"/>
<rect x="31" y="23" width="1" height="9" fill="#d194aa"/>
<rect x="30" y="29" width="1" height="3" fill="#caa7b4"/>
<rect x="1" y="30" width="1" height="2" fill="#c68da1"/>
<rect x="7" y="30" width="1" height="2" fill="#cba9b5"/>
<rect x="2" y="30" width="1" height="2" fill="#bb8297"/>
<rect x="10" y="31" width="1" height="1" fill="#caa2b0"/>
<rect x="23" y="31" width="1" height="1" fill="#caa8b5"/>
<rect x="28" y="31" width="1" height="1" fill="#cba7b5"/>
<rect x="15" y="31" width="1" height="1" fill="#cba9b5"/>
<rect x="11" y="31" width="1" height="1" fill="#ca9eae"/>
<rect x="26" y="31" width="1" height="1" fill="#cba8b4"/>
<rect x="21" y="31" width="1" height="1" fill="#cba7b5"/>
<rect x="29" y="31" width="1" height="1" fill="#cba8b4"/>
<rect x="24" y="31" width="1" height="1" fill="#caa7b5"/>
<rect x="12" y="31" width="1" height="1" fill="#caa7b4"/>
<rect x="13" y="31" width="1" height="1" fill="#caa8b5"/>
<rect x="5" y="31" width="1" height="1" fill="#cba8b4"/>
<rect x="0" y="31" width="1" height="1" fill="#d299ad"/>
<rect x="25" y="31" width="1" height="1" fill="#caa8b5"/>
<rect x="3" y="31" width="1" height="1" fill="#caa6b3"/>
</svg>