<?xml version="1.0" encoding="UTF-8"?>
<svg xmlns="http://www.w3.org/2000/svg" width="20mm" height="20mm" viewBox="0 0 32 32" shape-rendering="crispEdges">
<title>093 顶面 structured semantic redraw</title>
<metadata>registered 32-unit semantic vector redraw; no embedded raster; physical-size=20mm</metadata>
<rect x="0" y="0" width="32" height="32" fill="#5a786e"/>
<rect x="23" y="0" width="1" height="1" fill="#5f918f"/>
<rect x="18" y="0" width="1" height="1" fill="#609e9c"/>
<rect x="30" y="0" width="2" height="1" fill="#584752"/>
<rect x="8" y="0" width="1" height="1" fill="#5d837d"/>
<rect x="26" y="0" width="1" height="1" fill="#609e9c"/>
<rect x="14" y="0" width="2" height="1" fill="#609795"/>
<rect x="6" y="0" width="2" height="1" fill="#627372"/>
<rect x="1" y="0" width="2" height="1" fill="#67535b"/>
<rect x="21" y="0" width="1" height="1" fill="#5f9a98"/>
<rect x="16" y="0" width="1" height="1" fill="#5f9595"/>
<rect x="24" y="0" width="1" height="1" fill="#609d9b"/>
<rect x="13" y="0" width="1" height="1" fill="#5f9a98"/>
<rect x="10" y="0" width="1" height="1" fill="#5e8c8a"/>
<rect x="19" y="0" width="2" height="1" fill="#609d9b"/>
<rect x="25" y="0" width="1" height="1" fill="#5fa39e"/>
<rect x="22" y="0" width="1" height="1" fill="#609594"/>
<rect x="5" y="0" width="1" height="1" fill="#625e64"/>
<rect x="0" y="0" width="1" height="1" fill="#6c5c62"/>
<rect x="3" y="0" width="2" height="1" fill="#6c5c62"/>
<rect x="9" y="0" width="1" height="1" fill="#5e8985"/>
<rect x="17" y="0" width="1" height="1" fill="#609d9b"/>
<rect x="27" y="0" width="1" height="2" fill="#6c5c62"/>
<rect x="12" y="0" width="1" height="2" fill="#5fa39e"/>
<rect x="11" y="0" width="1" height="2" fill="#609d9b"/>
<rect x="20" y="1" width="1" height="1" fill="#5c7971"/>
<rect x="24" y="1" width="1" height="1" fill="#5c908c"/>
<rect x="9" y="1" width="1" height="1" fill="#5f9a98"/>
<rect x="2" y="1" width="1" height="1" fill="#5f918f"/>
<rect x="4" y="1" width="1" height="1" fill="#609d9b"/>
<rect x="1" y="1" width="1" height="1" fill="#5e8985"/>
<rect x="6" y="1" width="2" height="1" fill="#609795"/>
<rect x="14" y="1" width="1" height="1" fill="#5c908c"/>
<rect x="31" y="1" width="1" height="1" fill="#584752"/>
<rect x="3" y="1" width="1" height="1" fill="#609795"/>
<rect x="21" y="1" width="2" height="1" fill="#5a7970"/>
<rect x="8" y="1" width="1" height="1" fill="#609e9c"/>
<rect x="5" y="1" width="1" height="1" fill="#609e9c"/>
<rect x="16" y="1" width="2" height="1" fill="#5e8985"/>
<rect x="0" y="1" width="1" height="1" fill="#5e7d77"/>
<rect x="30" y="1" width="1" height="1" fill="#57766e"/>
<rect x="15" y="1" width="1" height="1" fill="#5e8c8a"/>
<rect x="13" y="1" width="1" height="1" fill="#5d9693"/>
<rect x="18" y="1" width="1" height="1" fill="#598881"/>
<rect x="10" y="1" width="1" height="1" fill="#5f9392"/>
<rect x="29" y="0" width="1" height="3" fill="#6c5c62"/>
<rect x="28" y="0" width="1" height="3" fill="#67535b"/>
<rect x="19" y="1" width="1" height="2" fill="#58837c"/>
<rect x="25" y="1" width="2" height="2" fill="#5fa39e"/>
<rect x="0" y="2" width="1" height="1" fill="#5f918f"/>
<rect x="1" y="2" width="1" height="1" fill="#609d9b"/>
<rect x="4" y="2" width="1" height="1" fill="#5f918f"/>
<rect x="6" y="2" width="2" height="1" fill="#5d837d"/>
<rect x="3" y="2" width="1" height="1" fill="#5f9492"/>
<rect x="24" y="2" width="1" height="1" fill="#5e8985"/>
<rect x="11" y="2" width="1" height="1" fill="#58837c"/>
<rect x="12" y="2" width="7" height="1" fill="#56857d"/>
<rect x="2" y="2" width="1" height="1" fill="#609795"/>
<rect x="8" y="2" width="1" height="1" fill="#5e8985"/>
<rect x="5" y="2" width="1" height="1" fill="#5e8c8a"/>
<rect x="30" y="2" width="2" height="1" fill="#57766e"/>
<rect x="20" y="2" width="1" height="1" fill="#5a7970"/>
<rect x="10" y="2" width="1" height="1" fill="#5c7971"/>
<rect x="21" y="2" width="1" height="1" fill="#597c73"/>
<rect x="9" y="2" width="1" height="2" fill="#58837c"/>
<rect x="27" y="2" width="1" height="2" fill="#627372"/>
<rect x="7" y="3" width="1" height="1" fill="#5c7971"/>
<rect x="16" y="3" width="1" height="1" fill="#5d9390"/>
<rect x="21" y="3" width="1" height="1" fill="#609d9b"/>
<rect x="24" y="3" width="1" height="1" fill="#5d837d"/>
<rect x="10" y="3" width="1" height="1" fill="#597c73"/>
<rect x="11" y="3" width="1" height="1" fill="#5d837d"/>
<rect x="22" y="3" width="1" height="1" fill="#5d837d"/>
<rect x="30" y="3" width="2" height="1" fill="#625e64"/>
<rect x="19" y="3" width="2" height="1" fill="#5f9a98"/>
<rect x="25" y="3" width="2" height="1" fill="#609e9c"/>
<rect x="17" y="3" width="2" height="1" fill="#5d9693"/>
<rect x="14" y="3" width="1" height="1" fill="#5e8c8a"/>
<rect x="8" y="3" width="1" height="1" fill="#598881"/>
<rect x="15" y="3" width="1" height="1" fill="#5c908c"/>
<rect x="2" y="3" width="3" height="1" fill="#57766e"/>
<rect x="12" y="3" width="2" height="1" fill="#5e8985"/>
<rect x="0" y="3" width="1" height="1" fill="#5f9392"/>
<rect x="3" y="4" width="1" height="1" fill="#5c908c"/>
<rect x="10" y="4" width="3" height="1" fill="#609e9c"/>
<rect x="4" y="4" width="1" height="1" fill="#5d9693"/>
<rect x="14" y="4" width="1" height="1" fill="#609594"/>
<rect x="23" y="4" width="1" height="1" fill="#5a7970"/>
<rect x="27" y="4" width="1" height="1" fill="#5d837d"/>
<rect x="16" y="4" width="6" height="1" fill="#609e9c"/>
<rect x="24" y="4" width="1" height="1" fill="#597c73"/>
<rect x="8" y="4" width="2" height="1" fill="#609d9b"/>
<rect x="5" y="4" width="1" height="1" fill="#5f9a98"/>
<rect x="6" y="4" width="2" height="1" fill="#609795"/>
<rect x="22" y="4" width="1" height="1" fill="#598881"/>
<rect x="25" y="4" width="2" height="1" fill="#609d9b"/>
<rect x="15" y="4" width="1" height="1" fill="#5f9a98"/>
<rect x="28" y="3" width="2" height="3" fill="#67535b"/>
<rect x="13" y="4" width="1" height="2" fill="#5f9a98"/>
<rect x="2" y="4" width="1" height="2" fill="#57766e"/>
<rect x="0" y="4" width="1" height="2" fill="#609493"/>
<rect x="8" y="5" width="5" height="1" fill="#609d9b"/>
<rect x="3" y="5" width="4" height="1" fill="#5fa39e"/>
<rect x="22" y="5" width="1" height="1" fill="#5c908c"/>
<rect x="19" y="5" width="1" height="1" fill="#609795"/>
<rect x="15" y="5" width="1" height="1" fill="#609795"/>
<rect x="27" y="5" width="1" height="1" fill="#5e8985"/>
<rect x="25" y="5" width="1" height="1" fill="#5f9493"/>
<rect x="7" y="5" width="1" height="1" fill="#609e9c"/>
<rect x="26" y="5" width="1" height="1" fill="#609795"/>
<rect x="16" y="5" width="3" height="1" fill="#5f9a98"/>
<rect x="14" y="5" width="1" height="1" fill="#609493"/>
<rect x="24" y="5" width="1" height="1" fill="#56857d"/>
<rect x="23" y="5" width="1" height="1" fill="#58837c"/>
<rect x="1" y="3" width="1" height="4" fill="#5e8c8a"/>
<rect x="31" y="4" width="1" height="3" fill="#584752"/>
<rect x="20" y="5" width="1" height="2" fill="#609d9b"/>
<rect x="0" y="6" width="1" height="1" fill="#5f918f"/>
<rect x="8" y="6" width="5" height="1" fill="#609594"/>
<rect x="17" y="6" width="2" height="1" fill="#5f9493"/>
<rect x="28" y="6" width="1" height="1" fill="#6c5c62"/>
<rect x="25" y="6" width="1" height="1" fill="#5d9390"/>
<rect x="4" y="6" width="1" height="1" fill="#609e9c"/>
<rect x="14" y="6" width="3" height="1" fill="#609594"/>
<rect x="27" y="6" width="1" height="1" fill="#5f918f"/>
<rect x="13" y="6" width="1" height="1" fill="#5f9594"/>
<rect x="3" y="6" width="1" height="1" fill="#609d9b"/>
<rect x="5" y="6" width="3" height="1" fill="#609795"/>
<rect x="23" y="6" width="2" height="1" fill="#56857d"/>
<rect x="19" y="6" width="1" height="1" fill="#5f9594"/>
<rect x="30" y="4" width="1" height="4" fill="#6c5c62"/>
<rect x="22" y="6" width="1" height="2" fill="#5d9693"/>
<rect x="29" y="6" width="1" height="2" fill="#67535b"/>
<rect x="18" y="7" width="2" height="1" fill="#5f9493"/>
<rect x="14" y="7" width="4" height="1" fill="#5e8985"/>
<rect x="11" y="7" width="1" height="1" fill="#5f918f"/>
<rect x="10" y="7" width="1" height="1" fill="#5d9390"/>
<rect x="2" y="7" width="1" height="1" fill="#5a7970"/>
<rect x="1" y="7" width="1" height="1" fill="#5e8985"/>
<rect x="7" y="7" width="3" height="1" fill="#5f918f"/>
<rect x="23" y="7" width="2" height="1" fill="#597c73"/>
<rect x="25" y="7" width="1" height="1" fill="#5e8c8a"/>
<rect x="27" y="7" width="1" height="1" fill="#5f9392"/>
<rect x="0" y="7" width="1" height="1" fill="#5e8c8a"/>
<rect x="12" y="7" width="2" height="1" fill="#5c908c"/>
<rect x="31" y="7" width="1" height="1" fill="#625e64"/>
<rect x="6" y="7" width="1" height="1" fill="#5f9392"/>
<rect x="21" y="5" width="1" height="4" fill="#609e9c"/>
<rect x="26" y="6" width="1" height="3" fill="#5f9594"/>
<rect x="20" y="7" width="1" height="2" fill="#5f9a98"/>
<rect x="3" y="7" width="1" height="2" fill="#5f9a98"/>
<rect x="4" y="7" width="1" height="2" fill="#609d9b"/>
<rect x="28" y="7" width="1" height="2" fill="#625e64"/>
<rect x="31" y="8" width="1" height="1" fill="#57766e"/>
<rect x="27" y="8" width="1" height="1" fill="#5f9493"/>
<rect x="10" y="8" width="3" height="1" fill="#56857d"/>
<rect x="9" y="8" width="1" height="1" fill="#5a7970"/>
<rect x="7" y="8" width="1" height="1" fill="#5a7970"/>
<rect x="13" y="8" width="1" height="1" fill="#58837c"/>
<rect x="25" y="8" width="1" height="1" fill="#598881"/>
<rect x="18" y="8" width="1" height="1" fill="#5f918f"/>
<rect x="0" y="8" width="1" height="1" fill="#5f9392"/>
<rect x="2" y="8" width="1" height="2" fill="#58837c"/>
<rect x="1" y="8" width="1" height="2" fill="#5d9390"/>
<rect x="22" y="8" width="1" height="2" fill="#5f9a98"/>
<rect x="23" y="8" width="1" height="2" fill="#5a7970"/>
<rect x="6" y="8" width="1" height="2" fill="#5d837d"/>
<rect x="0" y="9" width="1" height="1" fill="#5f918f"/>
<rect x="21" y="9" width="1" height="1" fill="#609d9b"/>
<rect x="14" y="9" width="2" height="1" fill="#5e7d77"/>
<rect x="31" y="9" width="1" height="1" fill="#5c7971"/>
<rect x="20" y="9" width="1" height="1" fill="#609795"/>
<rect x="28" y="9" width="1" height="1" fill="#627372"/>
<rect x="18" y="9" width="1" height="1" fill="#5c908c"/>
<rect x="25" y="9" width="1" height="1" fill="#5d837d"/>
<rect x="10" y="9" width="4" height="1" fill="#598881"/>
<rect x="3" y="9" width="2" height="1" fill="#5f9a98"/>
<rect x="26" y="9" width="2" height="1" fill="#5f9a98"/>
<rect x="8" y="9" width="2" height="1" fill="#5e7d77"/>
<rect x="5" y="7" width="1" height="4" fill="#609594"/>
<rect x="19" y="8" width="1" height="3" fill="#5f9493"/>
<rect x="28" y="10" width="1" height="1" fill="#5d837d"/>
<rect x="21" y="10" width="2" height="1" fill="#5f9493"/>
<rect x="26" y="10" width="2" height="1" fill="#609e9c"/>
<rect x="23" y="10" width="1" height="1" fill="#597c73"/>
<rect x="20" y="10" width="1" height="1" fill="#5f9594"/>
<rect x="8" y="10" width="1" height="1" fill="#5c908c"/>
<rect x="3" y="10" width="1" height="1" fill="#5f918f"/>
<rect x="12" y="10" width="1" height="1" fill="#5f9594"/>
<rect x="31" y="10" width="1" height="1" fill="#5e7d77"/>
<rect x="1" y="10" width="1" height="1" fill="#5e8985"/>
<rect x="25" y="10" width="1" height="1" fill="#58837c"/>
<rect x="18" y="10" width="1" height="1" fill="#5e8c8a"/>
<rect x="9" y="10" width="3" height="1" fill="#609594"/>
<rect x="13" y="10" width="2" height="1" fill="#609594"/>
<rect x="0" y="10" width="1" height="1" fill="#5e8c8a"/>
<rect x="6" y="10" width="1" height="1" fill="#58837c"/>
<rect x="15" y="10" width="1" height="1" fill="#5f9493"/>
<rect x="4" y="10" width="1" height="1" fill="#609493"/>
<rect x="16" y="10" width="1" height="2" fill="#597c73"/>
<rect x="7" y="10" width="1" height="2" fill="#57766e"/>
<rect x="31" y="11" width="1" height="1" fill="#627372"/>
<rect x="20" y="11" width="1" height="1" fill="#5f9493"/>
<rect x="15" y="11" width="1" height="1" fill="#5f9594"/>
<rect x="4" y="11" width="1" height="1" fill="#609795"/>
<rect x="14" y="11" width="1" height="1" fill="#609594"/>
<rect x="0" y="11" width="2" height="1" fill="#5e8c8a"/>
<rect x="2" y="11" width="1" height="1" fill="#597c73"/>
<rect x="10" y="11" width="3" height="1" fill="#5d9390"/>
<rect x="19" y="11" width="1" height="1" fill="#5f9593"/>
<rect x="22" y="11" width="1" height="1" fill="#609795"/>
<rect x="18" y="11" width="1" height="1" fill="#5e8985"/>
<rect x="6" y="11" width="1" height="1" fill="#5d837d"/>
<rect x="21" y="11" width="1" height="1" fill="#5f9594"/>
<rect x="26" y="11" width="1" height="1" fill="#609d9b"/>
<rect x="27" y="11" width="1" height="1" fill="#609e9c"/>
<rect x="13" y="11" width="1" height="1" fill="#5f9392"/>
<rect x="23" y="11" width="1" height="1" fill="#5e7d77"/>
<rect x="25" y="11" width="1" height="1" fill="#597c73"/>
<rect x="3" y="11" width="1" height="1" fill="#5d9390"/>
<rect x="17" y="11" width="1" height="1" fill="#5a7970"/>
<rect x="28" y="11" width="1" height="1" fill="#5e8985"/>
<rect x="29" y="8" width="2" height="5" fill="#67535b"/>
<rect x="28" y="12" width="1" height="1" fill="#5e8c8a"/>
<rect x="11" y="12" width="3" height="1" fill="#56857d"/>
<rect x="26" y="12" width="1" height="1" fill="#5f9493"/>
<rect x="14" y="12" width="1" height="1" fill="#5d9390"/>
<rect x="3" y="12" width="1" height="1" fill="#5f9a98"/>
<rect x="19" y="12" width="2" height="1" fill="#5f9594"/>
<rect x="16" y="12" width="1" height="1" fill="#598881"/>
<rect x="24" y="12" width="2" height="1" fill="#58837c"/>
<rect x="27" y="12" width="1" height="1" fill="#5f9595"/>
<rect x="18" y="12" width="1" height="1" fill="#5e8c8a"/>
<rect x="21" y="12" width="2" height="1" fill="#609d9b"/>
<rect x="23" y="12" width="1" height="1" fill="#5c908c"/>
<rect x="8" y="11" width="1" height="3" fill="#5e8c8a"/>
<rect x="17" y="12" width="1" height="2" fill="#56857d"/>
<rect x="31" y="12" width="1" height="2" fill="#6c5c62"/>
<rect x="12" y="13" width="2" height="1" fill="#58837c"/>
<rect x="24" y="13" width="2" height="1" fill="#56857d"/>
<rect x="28" y="13" width="1" height="1" fill="#5f918f"/>
<rect x="20" y="13" width="1" height="1" fill="#5f9594"/>
<rect x="16" y="13" width="1" height="1" fill="#5e8985"/>
<rect x="27" y="13" width="1" height="1" fill="#5f9493"/>
<rect x="29" y="13" width="1" height="1" fill="#6c5c62"/>
<rect x="19" y="13" width="1" height="1" fill="#609594"/>
<rect x="18" y="13" width="1" height="1" fill="#5e8985"/>
<rect x="3" y="13" width="1" height="1" fill="#609795"/>
<rect x="26" y="13" width="1" height="1" fill="#5d9390"/>
<rect x="30" y="13" width="1" height="1" fill="#67535b"/>
<rect x="14" y="13" width="1" height="1" fill="#5f918f"/>
<rect x="9" y="11" width="1" height="4" fill="#609594"/>
<rect x="10" y="12" width="1" height="3" fill="#598881"/>
<rect x="15" y="12" width="1" height="3" fill="#609594"/>
<rect x="23" y="13" width="1" height="2" fill="#5d9390"/>
<rect x="11" y="13" width="1" height="2" fill="#56857d"/>
<rect x="26" y="14" width="1" height="1" fill="#5c908c"/>
<rect x="13" y="14" width="1" height="1" fill="#5a7970"/>
<rect x="19" y="14" width="2" height="1" fill="#5f9594"/>
<rect x="3" y="14" width="1" height="1" fill="#5d9693"/>
<rect x="16" y="14" width="1" height="1" fill="#598881"/>
<rect x="18" y="14" width="1" height="1" fill="#5d837d"/>
<rect x="14" y="14" width="1" height="1" fill="#5e8c8a"/>
<rect x="29" y="14" width="1" height="1" fill="#625e64"/>
<rect x="24" y="14" width="2" height="1" fill="#597c73"/>
<rect x="28" y="14" width="1" height="1" fill="#5f9493"/>
<rect x="17" y="14" width="1" height="1" fill="#5a7970"/>
<rect x="21" y="13" width="1" height="3" fill="#609d9b"/>
<rect x="22" y="13" width="1" height="3" fill="#609e9c"/>
<rect x="27" y="14" width="1" height="2" fill="#5f9594"/>
<rect x="12" y="14" width="1" height="2" fill="#597c73"/>
<rect x="20" y="15" width="1" height="1" fill="#5f9493"/>
<rect x="18" y="15" width="1" height="1" fill="#597c73"/>
<rect x="26" y="15" width="1" height="1" fill="#5e8985"/>
<rect x="23" y="15" width="1" height="1" fill="#5d9693"/>
<rect x="28" y="15" width="1" height="1" fill="#5f9595"/>
<rect x="16" y="15" width="1" height="1" fill="#5e8985"/>
<rect x="11" y="15" width="1" height="1" fill="#598881"/>
<rect x="14" y="15" width="1" height="1" fill="#5e8985"/>
<rect x="3" y="15" width="1" height="1" fill="#609795"/>
<rect x="9" y="15" width="1" height="1" fill="#5f9593"/>
<rect x="10" y="15" width="1" height="1" fill="#5e8985"/>
<rect x="19" y="15" width="1" height="1" fill="#5f9594"/>
<rect x="1" y="12" width="1" height="5" fill="#5c908c"/>
<rect x="2" y="12" width="1" height="5" fill="#56857d"/>
<rect x="0" y="12" width="1" height="5" fill="#5e8c8a"/>
<rect x="8" y="14" width="1" height="3" fill="#5e8985"/>
<rect x="29" y="15" width="1" height="2" fill="#627372"/>
<rect x="15" y="15" width="1" height="2" fill="#5f9493"/>
<rect x="27" y="16" width="2" height="1" fill="#5f9594"/>
<rect x="9" y="16" width="1" height="1" fill="#609493"/>
<rect x="26" y="16" width="1" height="1" fill="#5d837d"/>
<rect x="19" y="16" width="2" height="1" fill="#5f9493"/>
<rect x="16" y="16" width="1" height="1" fill="#5e8c8a"/>
<rect x="13" y="16" width="1" height="1" fill="#5c908c"/>
<rect x="12" y="16" width="1" height="1" fill="#5f918f"/>
<rect x="21" y="16" width="1" height="1" fill="#5f9a98"/>
<rect x="22" y="16" width="1" height="1" fill="#609d9b"/>
<rect x="18" y="16" width="1" height="1" fill="#58837c"/>
<rect x="17" y="16" width="1" height="1" fill="#597c73"/>
<rect x="11" y="16" width="1" height="1" fill="#5d9390"/>
<rect x="14" y="16" width="1" height="1" fill="#5f918f"/>
<rect x="23" y="16" width="1" height="1" fill="#5f9a98"/>
<rect x="5" y="11" width="1" height="7" fill="#5f9493"/>
<rect x="6" y="12" width="1" height="6" fill="#5e8985"/>
<rect x="3" y="16" width="1" height="2" fill="#5d9693"/>
<rect x="24" y="16" width="1" height="2" fill="#5a7970"/>
<rect x="10" y="16" width="1" height="2" fill="#5f9493"/>
<rect x="19" y="17" width="1" height="1" fill="#5f9392"/>
<rect x="15" y="17" width="1" height="1" fill="#5f9594"/>
<rect x="21" y="17" width="2" height="1" fill="#5f9493"/>
<rect x="17" y="17" width="1" height="1" fill="#56857d"/>
<rect x="26" y="17" width="1" height="1" fill="#5e7d77"/>
<rect x="9" y="17" width="1" height="1" fill="#5f9392"/>
<rect x="16" y="17" width="1" height="1" fill="#5c908c"/>
<rect x="29" y="17" width="1" height="1" fill="#5d837d"/>
<rect x="0" y="17" width="2" height="1" fill="#5e8c8a"/>
<rect x="2" y="17" width="1" height="1" fill="#597c73"/>
<rect x="8" y="17" width="1" height="1" fill="#5d837d"/>
<rect x="28" y="17" width="1" height="1" fill="#5f9493"/>
<rect x="23" y="17" width="1" height="1" fill="#5f9492"/>
<rect x="27" y="17" width="1" height="1" fill="#5f9595"/>
<rect x="20" y="17" width="1" height="1" fill="#609594"/>
<rect x="13" y="17" width="2" height="1" fill="#609594"/>
<rect x="11" y="17" width="2" height="1" fill="#5f9594"/>
<rect x="18" y="17" width="1" height="1" fill="#598881"/>
<rect x="5" y="18" width="1" height="1" fill="#5f9593"/>
<rect x="15" y="18" width="2" height="1" fill="#5c908c"/>
<rect x="29" y="18" width="1" height="1" fill="#5e8985"/>
<rect x="12" y="18" width="1" height="1" fill="#58837c"/>
<rect x="10" y="18" width="2" height="1" fill="#597c73"/>
<rect x="24" y="18" width="1" height="1" fill="#597c73"/>
<rect x="1" y="18" width="1" height="1" fill="#5e8985"/>
<rect x="19" y="18" width="1" height="1" fill="#5d9390"/>
<rect x="9" y="18" width="1" height="1" fill="#5a7970"/>
<rect x="26" y="18" width="1" height="1" fill="#597c73"/>
<rect x="13" y="18" width="1" height="1" fill="#5d837d"/>
<rect x="14" y="18" width="1" height="1" fill="#5e8985"/>
<rect x="21" y="18" width="3" height="1" fill="#5f9493"/>
<rect x="6" y="18" width="1" height="1" fill="#5e8c8a"/>
<rect x="20" y="18" width="1" height="1" fill="#5f9593"/>
<rect x="17" y="18" width="2" height="1" fill="#56857d"/>
<rect x="27" y="18" width="2" height="1" fill="#5f9493"/>
<rect x="30" y="14" width="2" height="6" fill="#67535b"/>
<rect x="3" y="18" width="1" height="2" fill="#5d9390"/>
<rect x="14" y="19" width="1" height="1" fill="#597c73"/>
<rect x="19" y="19" width="1" height="1" fill="#5f918f"/>
<rect x="20" y="19" width="1" height="1" fill="#5f9493"/>
<rect x="15" y="19" width="4" height="1" fill="#56857d"/>
<rect x="2" y="19" width="1" height="1" fill="#58837c"/>
<rect x="24" y="19" width="1" height="1" fill="#598881"/>
<rect x="25" y="19" width="2" height="1" fill="#597c73"/>
<rect x="29" y="19" width="1" height="1" fill="#5f918f"/>
<rect x="10" y="19" width="3" height="1" fill="#57766e"/>
<rect x="5" y="19" width="1" height="1" fill="#5f9594"/>
<rect x="27" y="19" width="1" height="1" fill="#5f9392"/>
<rect x="6" y="19" width="1" height="1" fill="#5c908c"/>
<rect x="7" y="19" width="1" height="1" fill="#5a7970"/>
<rect x="22" y="19" width="2" height="1" fill="#5f9a98"/>
<rect x="21" y="19" width="1" height="1" fill="#609795"/>
<rect x="4" y="12" width="1" height="9" fill="#609d9b"/>
<rect x="0" y="18" width="1" height="3" fill="#5e8c8a"/>
<rect x="1" y="19" width="1" height="2" fill="#5c908c"/>
<rect x="28" y="19" width="1" height="2" fill="#5f9493"/>
<rect x="24" y="20" width="1" height="1" fill="#5c908c"/>
<rect x="9" y="20" width="1" height="1" fill="#5e8c8a"/>
<rect x="27" y="20" width="1" height="1" fill="#5d9390"/>
<rect x="13" y="20" width="2" height="1" fill="#5e7d77"/>
<rect x="15" y="20" width="1" height="1" fill="#598881"/>
<rect x="16" y="20" width="3" height="1" fill="#56857d"/>
<rect x="20" y="20" width="1" height="1" fill="#5f9594"/>
<rect x="12" y="20" width="1" height="1" fill="#58837c"/>
<rect x="11" y="20" width="1" height="1" fill="#598881"/>
<rect x="29" y="20" width="1" height="1" fill="#5f9392"/>
<rect x="8" y="20" width="1" height="1" fill="#5f918f"/>
<rect x="19" y="20" width="1" height="1" fill="#5c908c"/>
<rect x="10" y="20" width="1" height="1" fill="#5e8985"/>
<rect x="21" y="20" width="1" height="1" fill="#5f9595"/>
<rect x="7" y="20" width="1" height="1" fill="#5d9390"/>
<rect x="5" y="20" width="2" height="1" fill="#5f9493"/>
<rect x="22" y="20" width="2" height="2" fill="#609e9c"/>
<rect x="30" y="20" width="1" height="2" fill="#625e64"/>
<rect x="25" y="20" width="2" height="2" fill="#56857d"/>
<rect x="16" y="21" width="1" height="1" fill="#5d9390"/>
<rect x="28" y="21" width="1" height="1" fill="#5f9594"/>
<rect x="4" y="21" width="1" height="1" fill="#609e9c"/>
<rect x="7" y="21" width="3" height="1" fill="#5f9493"/>
<rect x="27" y="21" width="1" height="1" fill="#5c908c"/>
<rect x="19" y="21" width="1" height="1" fill="#5d9390"/>
<rect x="18" y="21" width="1" height="1" fill="#5c908c"/>
<rect x="5" y="21" width="1" height="1" fill="#5f9595"/>
<rect x="17" y="21" width="1" height="1" fill="#5f918f"/>
<rect x="13" y="21" width="3" height="1" fill="#5f9493"/>
<rect x="20" y="21" width="2" height="1" fill="#5f9594"/>
<rect x="6" y="21" width="1" height="1" fill="#5f9594"/>
<rect x="10" y="21" width="3" height="1" fill="#5f9594"/>
<rect x="29" y="21" width="1" height="1" fill="#609594"/>
<rect x="3" y="20" width="1" height="3" fill="#5d9693"/>
<rect x="24" y="21" width="1" height="2" fill="#5d9390"/>
<rect x="0" y="21" width="1" height="2" fill="#609493"/>
<rect x="12" y="22" width="2" height="1" fill="#5f9594"/>
<rect x="6" y="22" width="1" height="1" fill="#609d9b"/>
<rect x="27" y="22" width="1" height="1" fill="#5e8985"/>
<rect x="25" y="22" width="2" height="1" fill="#597c73"/>
<rect x="9" y="22" width="2" height="1" fill="#5f9a98"/>
<rect x="4" y="22" width="2" height="1" fill="#609e9c"/>
<rect x="14" y="22" width="3" height="1" fill="#5f9493"/>
<rect x="11" y="22" width="1" height="1" fill="#609795"/>
<rect x="17" y="22" width="1" height="1" fill="#5f9594"/>
<rect x="18" y="22" width="1" height="1" fill="#5f9493"/>
<rect x="30" y="22" width="1" height="1" fill="#627372"/>
<rect x="19" y="22" width="3" height="1" fill="#5f9594"/>
<rect x="23" y="22" width="1" height="2" fill="#609e9c"/>
<rect x="7" y="22" width="1" height="2" fill="#5f9594"/>
<rect x="28" y="22" width="2" height="2" fill="#5f9594"/>
<rect x="22" y="22" width="1" height="2" fill="#609d9b"/>
<rect x="8" y="22" width="1" height="2" fill="#609795"/>
<rect x="12" y="23" width="3" height="1" fill="#609d9b"/>
<rect x="4" y="23" width="1" height="1" fill="#5d9693"/>
<rect x="21" y="23" width="1" height="1" fill="#5f9593"/>
<rect x="3" y="23" width="1" height="1" fill="#5e8c8a"/>
<rect x="30" y="23" width="1" height="1" fill="#5e7d77"/>
<rect x="15" y="23" width="2" height="1" fill="#5f9a98"/>
<rect x="9" y="23" width="3" height="1" fill="#609e9c"/>
<rect x="27" y="23" width="1" height="1" fill="#5d837d"/>
<rect x="5" y="23" width="2" height="1" fill="#609d9b"/>
<rect x="19" y="23" width="2" height="1" fill="#5f9594"/>
<rect x="24" y="23" width="1" height="1" fill="#5f9593"/>
<rect x="17" y="23" width="1" height="1" fill="#609795"/>
<rect x="18" y="23" width="1" height="1" fill="#5f9595"/>
<rect x="31" y="20" width="1" height="5" fill="#67535b"/>
<rect x="2" y="20" width="1" height="5" fill="#56857d"/>
<rect x="1" y="21" width="1" height="4" fill="#5d9693"/>
<rect x="6" y="24" width="1" height="1" fill="#598881"/>
<rect x="25" y="24" width="1" height="1" fill="#5a7970"/>
<rect x="5" y="24" width="1" height="1" fill="#56857d"/>
<rect x="12" y="24" width="7" height="1" fill="#609e9c"/>
<rect x="19" y="24" width="3" height="1" fill="#5fa39e"/>
<rect x="7" y="24" width="1" height="1" fill="#5d837d"/>
<rect x="30" y="24" width="1" height="1" fill="#5e8985"/>
<rect x="22" y="24" width="2" height="1" fill="#609e9c"/>
<rect x="24" y="24" width="1" height="1" fill="#5f9a98"/>
<rect x="28" y="24" width="1" height="1" fill="#5f9594"/>
<rect x="29" y="24" width="1" height="1" fill="#5f9493"/>
<rect x="8" y="24" width="1" height="1" fill="#5e8985"/>
<rect x="27" y="24" width="1" height="1" fill="#5e7d77"/>
<rect x="3" y="24" width="1" height="1" fill="#597c73"/>
<rect x="9" y="24" width="1" height="1" fill="#5d9390"/>
<rect x="11" y="24" width="1" height="1" fill="#609d9b"/>
<rect x="10" y="24" width="1" height="1" fill="#5f9a98"/>
<rect x="0" y="23" width="1" height="3" fill="#609594"/>
<rect x="5" y="25" width="2" height="1" fill="#58837c"/>
<rect x="23" y="25" width="1" height="1" fill="#609e9c"/>
<rect x="30" y="25" width="1" height="1" fill="#5e8c8a"/>
<rect x="4" y="25" width="1" height="1" fill="#597c73"/>
<rect x="10" y="25" width="1" height="1" fill="#5a7970"/>
<rect x="12" y="25" width="1" height="1" fill="#5d837d"/>
<rect x="15" y="25" width="1" height="1" fill="#5d9693"/>
<rect x="29" y="25" width="1" height="1" fill="#609493"/>
<rect x="3" y="25" width="1" height="1" fill="#58837c"/>
<rect x="16" y="25" width="1" height="1" fill="#5f9a98"/>
<rect x="17" y="25" width="2" height="1" fill="#609e9c"/>
<rect x="13" y="25" width="1" height="1" fill="#5e8985"/>
<rect x="14" y="25" width="1" height="1" fill="#5c908c"/>
<rect x="11" y="25" width="1" height="1" fill="#597c73"/>
<rect x="31" y="25" width="1" height="1" fill="#6c5c62"/>
<rect x="1" y="25" width="1" height="1" fill="#5f9a98"/>
<rect x="24" y="25" width="1" height="1" fill="#609d9b"/>
<rect x="27" y="25" width="1" height="1" fill="#597c73"/>
<rect x="19" y="25" width="4" height="1" fill="#5fa39e"/>
<rect x="2" y="25" width="1" height="1" fill="#5c908c"/>
<rect x="25" y="25" width="1" height="1" fill="#597c73"/>
<rect x="28" y="25" width="1" height="1" fill="#5f9493"/>
<rect x="5" y="26" width="1" height="1" fill="#5d9390"/>
<rect x="7" y="26" width="1" height="1" fill="#5d837d"/>
<rect x="20" y="26" width="1" height="1" fill="#5f9a98"/>
<rect x="0" y="26" width="1" height="1" fill="#609795"/>
<rect x="30" y="26" width="1" height="1" fill="#5f9392"/>
<rect x="23" y="26" width="1" height="1" fill="#609d9b"/>
<rect x="15" y="26" width="1" height="1" fill="#5a7970"/>
<rect x="21" y="26" width="2" height="1" fill="#5fa39e"/>
<rect x="24" y="26" width="1" height="1" fill="#609e9c"/>
<rect x="9" y="26" width="1" height="1" fill="#5a7970"/>
<rect x="17" y="26" width="1" height="1" fill="#5e7d77"/>
<rect x="6" y="26" width="1" height="1" fill="#5c908c"/>
<rect x="28" y="26" width="1" height="1" fill="#5d9390"/>
<rect x="18" y="26" width="1" height="1" fill="#5d837d"/>
<rect x="16" y="26" width="1" height="1" fill="#597c73"/>
<rect x="8" y="26" width="1" height="1" fill="#597c73"/>
<rect x="19" y="26" width="1" height="1" fill="#5e8c8a"/>
<rect x="27" y="26" width="1" height="1" fill="#5a7970"/>
<rect x="1" y="26" width="3" height="1" fill="#609e9c"/>
<rect x="4" y="26" width="1" height="1" fill="#5f9a98"/>
<rect x="29" y="26" width="1" height="1" fill="#609594"/>
<rect x="25" y="26" width="1" height="2" fill="#5e7d77"/>
<rect x="31" y="26" width="1" height="2" fill="#625e64"/>
<rect x="2" y="27" width="1" height="1" fill="#5e8c8a"/>
<rect x="21" y="27" width="1" height="1" fill="#5a7970"/>
<rect x="24" y="27" width="1" height="1" fill="#5e8985"/>
<rect x="16" y="27" width="1" height="1" fill="#57766e"/>
<rect x="9" y="27" width="1" height="1" fill="#5f9a98"/>
<rect x="14" y="27" width="1" height="1" fill="#5a7970"/>
<rect x="4" y="27" width="1" height="1" fill="#609e9c"/>
<rect x="0" y="27" width="1" height="1" fill="#625e64"/>
<rect x="22" y="27" width="1" height="1" fill="#5e7d77"/>
<rect x="6" y="27" width="1" height="1" fill="#609594"/>
<rect x="10" y="27" width="1" height="1" fill="#5d9390"/>
<rect x="12" y="27" width="1" height="1" fill="#58837c"/>
<rect x="11" y="27" width="1" height="1" fill="#598881"/>
<rect x="1" y="27" width="1" height="1" fill="#5e7d77"/>
<rect x="3" y="27" width="1" height="1" fill="#609795"/>
<rect x="29" y="27" width="2" height="1" fill="#5f9493"/>
<rect x="5" y="27" width="1" height="1" fill="#609795"/>
<rect x="23" y="27" width="1" height="1" fill="#5d837d"/>
<rect x="28" y="27" width="1" height="1" fill="#5c908c"/>
<rect x="7" y="27" width="2" height="1" fill="#5f9594"/>
<rect x="13" y="27" width="1" height="1" fill="#597c73"/>
<rect x="31" y="28" width="1" height="1" fill="#627372"/>
<rect x="18" y="28" width="1" height="1" fill="#597c73"/>
<rect x="28" y="28" width="1" height="1" fill="#5f918f"/>
<rect x="16" y="28" width="1" height="1" fill="#5c908c"/>
<rect x="30" y="28" width="1" height="1" fill="#5f9a98"/>
<rect x="4" y="28" width="1" height="1" fill="#625e64"/>
<rect x="19" y="28" width="1" height="1" fill="#5a7970"/>
<rect x="7" y="28" width="1" height="1" fill="#5f918f"/>
<rect x="3" y="28" width="1" height="1" fill="#6c5c62"/>
<rect x="17" y="28" width="1" height="1" fill="#5d837d"/>
<rect x="12" y="28" width="1" height="1" fill="#5f9594"/>
<rect x="11" y="28" width="1" height="1" fill="#5f9595"/>
<rect x="13" y="28" width="1" height="1" fill="#5f9493"/>
<rect x="0" y="28" width="2" height="1" fill="#584752"/>
<rect x="15" y="28" width="1" height="1" fill="#5d9390"/>
<rect x="8" y="28" width="1" height="1" fill="#5f9594"/>
<rect x="2" y="28" width="1" height="1" fill="#67535b"/>
<rect x="6" y="28" width="1" height="1" fill="#5e8985"/>
<rect x="9" y="28" width="2" height="1" fill="#609e9c"/>
<rect x="29" y="28" width="1" height="1" fill="#609d9b"/>
<rect x="14" y="28" width="1" height="1" fill="#5f918f"/>
<rect x="5" y="28" width="1" height="1" fill="#627372"/>
<rect x="3" y="29" width="5" height="1" fill="#67535b"/>
<rect x="28" y="29" width="1" height="1" fill="#5e8c8a"/>
<rect x="20" y="29" width="1" height="1" fill="#5e8985"/>
<rect x="11" y="29" width="1" height="1" fill="#5e8c8a"/>
<rect x="15" y="29" width="3" height="1" fill="#5fa39e"/>
<rect x="23" y="29" width="1" height="1" fill="#597c73"/>
<rect x="22" y="29" width="1" height="1" fill="#5e7d77"/>
<rect x="12" y="29" width="1" height="1" fill="#609493"/>
<rect x="31" y="29" width="1" height="1" fill="#5e7d77"/>
<rect x="21" y="29" width="1" height="1" fill="#5d837d"/>
<rect x="9" y="29" width="1" height="1" fill="#627372"/>
<rect x="24" y="29" width="1" height="1" fill="#5a7970"/>
<rect x="19" y="29" width="1" height="1" fill="#5c908c"/>
<rect x="10" y="29" width="1" height="1" fill="#5e8985"/>
<rect x="14" y="29" width="1" height="1" fill="#5f9594"/>
<rect x="13" y="29" width="1" height="1" fill="#5f9595"/>
<rect x="8" y="29" width="1" height="1" fill="#625e64"/>
<rect x="18" y="29" width="1" height="1" fill="#5f9392"/>
<rect x="0" y="29" width="3" height="1" fill="#6c5c62"/>
<rect x="13" y="30" width="1" height="1" fill="#627372"/>
<rect x="28" y="30" width="1" height="1" fill="#5e8985"/>
<rect x="26" y="30" width="1" height="1" fill="#5d837d"/>
<rect x="16" y="30" width="2" height="1" fill="#5fa39e"/>
<rect x="22" y="30" width="1" height="1" fill="#5f9594"/>
<rect x="2" y="30" width="1" height="1" fill="#625e64"/>
<rect x="31" y="30" width="1" height="1" fill="#5e8c8a"/>
<rect x="27" y="30" width="1" height="1" fill="#5e7d77"/>
<rect x="5" y="30" width="1" height="1" fill="#6c5c62"/>
<rect x="0" y="30" width="2" height="1" fill="#584752"/>
<rect x="25" y="30" width="1" height="1" fill="#5e8c8a"/>
<rect x="14" y="30" width="1" height="1" fill="#5d837d"/>
<rect x="15" y="30" width="1" height="1" fill="#5f9492"/>
<rect x="9" y="30" width="3" height="1" fill="#67535b"/>
<rect x="12" y="30" width="1" height="1" fill="#625e64"/>
<rect x="3" y="30" width="1" height="1" fill="#627372"/>
<rect x="21" y="30" width="1" height="1" fill="#5f9595"/>
<rect x="24" y="30" width="1" height="1" fill="#5f9593"/>
<rect x="23" y="30" width="1" height="1" fill="#5f9a98"/>
<rect x="18" y="30" width="1" height="1" fill="#5f9595"/>
<rect x="4" y="30" width="1" height="1" fill="#5e7d77"/>
<rect x="19" y="30" width="2" height="1" fill="#609594"/>
<rect x="7" y="30" width="2" height="1" fill="#584752"/>
<rect x="29" y="29" width="2" height="3" fill="#609e9c"/>
<rect x="6" y="30" width="1" height="2" fill="#67535b"/>
<rect x="17" y="31" width="1" height="1" fill="#627372"/>
<rect x="15" y="31" width="1" height="1" fill="#6c5c62"/>
<rect x="28" y="31" width="1" height="1" fill="#5f9a98"/>
<rect x="5" y="31" width="1" height="1" fill="#57766e"/>
<rect x="20" y="31" width="1" height="1" fill="#5f918f"/>
<rect x="7" y="31" width="3" height="1" fill="#6c5c62"/>
<rect x="21" y="31" width="1" height="1" fill="#5f9493"/>
<rect x="4" y="31" width="1" height="1" fill="#56857d"/>
<rect x="10" y="31" width="5" height="1" fill="#67535b"/>
<rect x="31" y="31" width="1" height="1" fill="#609493"/>
<rect x="0" y="31" width="4" height="1" fill="#584752"/>
<rect x="22" y="31" width="1" height="1" fill="#609795"/>
<rect x="18" y="31" width="1" height="1" fill="#5e7d77"/>
<rect x="23" y="31" width="4" height="1" fill="#609e9c"/>
<rect x="16" y="31" width="1" height="1" fill="#625e64"/>
<rect x="19" y="31" width="1" height="1" fill="#5e8c8a"/>
<rect x="27" y="31" width="1" height="1" fill="#609d9b"/>
</svg>