<?xml version="1.0" encoding="UTF-8"?>
<svg xmlns="http://www.w3.org/2000/svg" width="20mm" height="20mm" viewBox="0 0 32 32" shape-rendering="crispEdges">
<title>075 正面 structured semantic redraw</title>
<metadata>registered 32-unit semantic vector redraw; no embedded raster; physical-size=20mm</metadata>
<rect x="0" y="0" width="32" height="32" fill="#5f6433"/>
<rect x="3" y="0" width="1" height="1" fill="#37322c"/>
<rect x="13" y="0" width="4" height="1" fill="#37322c"/>
<rect x="31" y="0" width="1" height="1" fill="#514c3f"/>
<rect x="30" y="0" width="1" height="1" fill="#37322c"/>
<rect x="22" y="0" width="8" height="1" fill="#35312c"/>
<rect x="4" y="0" width="9" height="1" fill="#34302b"/>
<rect x="0" y="0" width="1" height="2" fill="#917a51"/>
<rect x="1" y="0" width="1" height="2" fill="#8a7649"/>
<rect x="2" y="0" width="1" height="2" fill="#3f362d"/>
<rect x="13" y="1" width="4" height="1" fill="#39342c"/>
<rect x="30" y="1" width="1" height="1" fill="#842c2c"/>
<rect x="9" y="1" width="2" height="1" fill="#39342c"/>
<rect x="4" y="1" width="3" height="1" fill="#35312c"/>
<rect x="22" y="1" width="2" height="1" fill="#423f3b"/>
<rect x="26" y="1" width="1" height="1" fill="#35312c"/>
<rect x="7" y="1" width="2" height="1" fill="#37322c"/>
<rect x="25" y="1" width="1" height="1" fill="#423f3b"/>
<rect x="31" y="1" width="1" height="1" fill="#923931"/>
<rect x="28" y="1" width="2" height="1" fill="#6c342b"/>
<rect x="11" y="1" width="2" height="1" fill="#35312c"/>
<rect x="24" y="1" width="1" height="1" fill="#3e4d5c"/>
<rect x="3" y="1" width="1" height="1" fill="#39342c"/>
<rect x="27" y="1" width="1" height="1" fill="#3f362d"/>
<rect x="29" y="2" width="1" height="1" fill="#8b2c2c"/>
<rect x="31" y="2" width="1" height="1" fill="#a22e2e"/>
<rect x="26" y="2" width="1" height="1" fill="#39342c"/>
<rect x="28" y="2" width="1" height="1" fill="#842c2c"/>
<rect x="27" y="2" width="1" height="1" fill="#42392e"/>
<rect x="30" y="2" width="1" height="1" fill="#a32d2d"/>
<rect x="2" y="2" width="4" height="2" fill="#42392e"/>
<rect x="6" y="2" width="1" height="2" fill="#514c3f"/>
<rect x="0" y="2" width="2" height="2" fill="#917a51"/>
<rect x="25" y="2" width="1" height="2" fill="#385075"/>
<rect x="24" y="2" width="1" height="2" fill="#3b5982"/>
<rect x="11" y="2" width="6" height="2" fill="#3f362d"/>
<rect x="27" y="3" width="1" height="1" fill="#514c3f"/>
<rect x="30" y="3" width="2" height="1" fill="#917a51"/>
<rect x="28" y="3" width="1" height="1" fill="#76412f"/>
<rect x="29" y="3" width="1" height="1" fill="#776242"/>
<rect x="26" y="3" width="1" height="1" fill="#423f3b"/>
<rect x="13" y="4" width="1" height="1" fill="#6c342b"/>
<rect x="15" y="4" width="1" height="1" fill="#8b2c2c"/>
<rect x="28" y="4" width="4" height="1" fill="#a09370"/>
<rect x="0" y="4" width="2" height="1" fill="#8a7649"/>
<rect x="4" y="4" width="3" height="1" fill="#4d6846"/>
<rect x="16" y="4" width="1" height="1" fill="#a22e2e"/>
<rect x="2" y="4" width="2" height="1" fill="#423f3b"/>
<rect x="14" y="4" width="1" height="1" fill="#842c2c"/>
<rect x="20" y="0" width="1" height="6" fill="#717f41"/>
<rect x="21" y="2" width="1" height="4" fill="#4d6846"/>
<rect x="26" y="4" width="2" height="2" fill="#2f7f62"/>
<rect x="11" y="4" width="2" height="2" fill="#3f362d"/>
<rect x="28" y="5" width="1" height="1" fill="#917a51"/>
<rect x="29" y="5" width="3" height="1" fill="#a09370"/>
<rect x="0" y="5" width="2" height="1" fill="#6a5b3f"/>
<rect x="6" y="5" width="1" height="2" fill="#4e774b"/>
<rect x="2" y="5" width="2" height="2" fill="#326665"/>
<rect x="4" y="5" width="2" height="2" fill="#2f7f62"/>
<rect x="18" y="6" width="3" height="1" fill="#514c3f"/>
<rect x="1" y="6" width="1" height="1" fill="#6a5b3f"/>
<rect x="21" y="6" width="1" height="1" fill="#45565d"/>
<rect x="0" y="6" width="1" height="1" fill="#776242"/>
<rect x="27" y="6" width="1" height="1" fill="#4e774b"/>
<rect x="17" y="4" width="1" height="4" fill="#76412f"/>
<rect x="15" y="5" width="1" height="3" fill="#a22e2e"/>
<rect x="16" y="5" width="1" height="3" fill="#a32d2d"/>
<rect x="13" y="5" width="2" height="3" fill="#842c2c"/>
<rect x="11" y="6" width="2" height="2" fill="#42392e"/>
<rect x="2" y="7" width="5" height="2" fill="#a09370"/>
<rect x="0" y="7" width="2" height="2" fill="#9c8456"/>
<rect x="18" y="7" width="1" height="2" fill="#423f3b"/>
<rect x="13" y="8" width="1" height="1" fill="#842c2c"/>
<rect x="12" y="8" width="1" height="1" fill="#59352b"/>
<rect x="14" y="8" width="3" height="1" fill="#8b2c2c"/>
<rect x="17" y="8" width="1" height="1" fill="#59352b"/>
<rect x="11" y="8" width="1" height="1" fill="#42392e"/>
<rect x="19" y="7" width="2" height="3" fill="#514c3f"/>
<rect x="21" y="7" width="1" height="3" fill="#3e4d5c"/>
<rect x="17" y="9" width="2" height="1" fill="#423f3b"/>
<rect x="0" y="9" width="1" height="1" fill="#9c8456"/>
<rect x="2" y="9" width="1" height="1" fill="#4e774b"/>
<rect x="1" y="9" width="1" height="1" fill="#917a51"/>
<rect x="3" y="9" width="1" height="1" fill="#326665"/>
<rect x="18" y="10" width="3" height="1" fill="#514c3f"/>
<rect x="21" y="10" width="1" height="1" fill="#45565d"/>
<rect x="0" y="10" width="2" height="1" fill="#917a51"/>
<rect x="17" y="10" width="1" height="1" fill="#423f3b"/>
<rect x="22" y="2" width="2" height="10" fill="#385075"/>
<rect x="24" y="4" width="2" height="8" fill="#3b5982"/>
<rect x="29" y="6" width="1" height="6" fill="#8b2c2c"/>
<rect x="28" y="6" width="1" height="6" fill="#842c2c"/>
<rect x="31" y="6" width="1" height="6" fill="#a22e2e"/>
<rect x="30" y="6" width="1" height="6" fill="#a32d2d"/>
<rect x="27" y="7" width="1" height="5" fill="#326665"/>
<rect x="2" y="10" width="2" height="2" fill="#326665"/>
<rect x="20" y="11" width="1" height="1" fill="#717f41"/>
<rect x="9" y="2" width="1" height="11" fill="#717f41"/>
<rect x="10" y="3" width="1" height="10" fill="#75753d"/>
<rect x="26" y="6" width="1" height="7" fill="#2f7f62"/>
<rect x="11" y="9" width="2" height="4" fill="#842c2c"/>
<rect x="16" y="9" width="1" height="4" fill="#42392e"/>
<rect x="13" y="9" width="2" height="4" fill="#a32d2d"/>
<rect x="15" y="9" width="1" height="4" fill="#59352b"/>
<rect x="21" y="11" width="1" height="2" fill="#4d6846"/>
<rect x="25" y="12" width="1" height="1" fill="#45565d"/>
<rect x="30" y="12" width="1" height="1" fill="#923931"/>
<rect x="20" y="12" width="1" height="1" fill="#75753d"/>
<rect x="22" y="12" width="3" height="1" fill="#385075"/>
<rect x="27" y="12" width="1" height="1" fill="#4d6846"/>
<rect x="31" y="12" width="1" height="1" fill="#76412f"/>
<rect x="28" y="12" width="2" height="1" fill="#76412f"/>
<rect x="17" y="12" width="1" height="1" fill="#514c3f"/>
<rect x="4" y="9" width="2" height="5" fill="#2f7f62"/>
<rect x="6" y="9" width="1" height="5" fill="#4e774b"/>
<rect x="0" y="11" width="2" height="3" fill="#9c8456"/>
<rect x="2" y="12" width="1" height="2" fill="#4d6846"/>
<rect x="3" y="12" width="1" height="2" fill="#326665"/>
<rect x="30" y="13" width="2" height="1" fill="#6a5b3f"/>
<rect x="15" y="13" width="2" height="1" fill="#63533b"/>
<rect x="20" y="13" width="10" height="1" fill="#63533b"/>
<rect x="17" y="13" width="3" height="1" fill="#6a5b3f"/>
<rect x="11" y="13" width="4" height="1" fill="#76412f"/>
<rect x="30" y="14" width="2" height="1" fill="#776242"/>
<rect x="20" y="14" width="6" height="1" fill="#63533b"/>
<rect x="4" y="14" width="9" height="1" fill="#63533b"/>
<rect x="26" y="14" width="4" height="1" fill="#6a5b3f"/>
<rect x="1" y="14" width="3" height="1" fill="#6a5b3f"/>
<rect x="0" y="14" width="1" height="1" fill="#776242"/>
<rect x="13" y="14" width="7" height="1" fill="#6a5b3f"/>
<rect x="0" y="15" width="4" height="1" fill="#6a5b3f"/>
<rect x="11" y="15" width="2" height="1" fill="#6a5b3f"/>
<rect x="25" y="15" width="7" height="1" fill="#917a51"/>
<rect x="22" y="15" width="2" height="1" fill="#9c8456"/>
<rect x="19" y="15" width="3" height="1" fill="#917a51"/>
<rect x="13" y="15" width="4" height="1" fill="#776242"/>
<rect x="4" y="15" width="7" height="1" fill="#63533b"/>
<rect x="24" y="15" width="1" height="1" fill="#8a7649"/>
<rect x="17" y="15" width="2" height="1" fill="#8a7649"/>
<rect x="0" y="16" width="6" height="1" fill="#8a7649"/>
<rect x="6" y="16" width="1" height="1" fill="#917a51"/>
<rect x="28" y="16" width="4" height="1" fill="#8a7649"/>
<rect x="7" y="16" width="2" height="1" fill="#9c8456"/>
<rect x="11" y="16" width="6" height="1" fill="#917a51"/>
<rect x="24" y="16" width="4" height="1" fill="#917a51"/>
<rect x="17" y="16" width="7" height="1" fill="#9c8456"/>
<rect x="9" y="16" width="2" height="2" fill="#6a5b3f"/>
<rect x="22" y="17" width="1" height="1" fill="#63533b"/>
<rect x="11" y="17" width="5" height="1" fill="#8a7649"/>
<rect x="16" y="17" width="4" height="1" fill="#776242"/>
<rect x="25" y="17" width="2" height="1" fill="#42392e"/>
<rect x="29" y="17" width="1" height="1" fill="#37322c"/>
<rect x="30" y="17" width="1" height="1" fill="#35312c"/>
<rect x="6" y="17" width="3" height="1" fill="#9c8456"/>
<rect x="24" y="17" width="1" height="1" fill="#423f3b"/>
<rect x="0" y="17" width="6" height="1" fill="#917a51"/>
<rect x="28" y="17" width="1" height="1" fill="#39342c"/>
<rect x="27" y="17" width="1" height="1" fill="#3f362d"/>
<rect x="23" y="17" width="1" height="1" fill="#514c3f"/>
<rect x="20" y="17" width="2" height="1" fill="#6a5b3f"/>
<rect x="31" y="17" width="1" height="2" fill="#42392e"/>
<rect x="9" y="18" width="1" height="1" fill="#42392e"/>
<rect x="10" y="18" width="1" height="1" fill="#3f362d"/>
<rect x="16" y="18" width="3" height="1" fill="#37322c"/>
<rect x="5" y="18" width="4" height="1" fill="#45565d"/>
<rect x="2" y="18" width="1" height="1" fill="#776242"/>
<rect x="3" y="18" width="2" height="1" fill="#6a5b3f"/>
<rect x="20" y="18" width="1" height="1" fill="#34302b"/>
<rect x="21" y="18" width="10" height="1" fill="#35312c"/>
<rect x="11" y="18" width="1" height="1" fill="#42392e"/>
<rect x="12" y="18" width="4" height="1" fill="#39342c"/>
<rect x="19" y="18" width="1" height="1" fill="#35312c"/>
<rect x="9" y="19" width="1" height="1" fill="#34302b"/>
<rect x="30" y="19" width="1" height="1" fill="#35312c"/>
<rect x="15" y="19" width="4" height="1" fill="#39342c"/>
<rect x="3" y="19" width="1" height="1" fill="#37322c"/>
<rect x="21" y="19" width="1" height="1" fill="#3f362d"/>
<rect x="19" y="19" width="2" height="1" fill="#37322c"/>
<rect x="13" y="19" width="1" height="1" fill="#35312c"/>
<rect x="26" y="19" width="4" height="1" fill="#39342c"/>
<rect x="24" y="19" width="2" height="1" fill="#6c342b"/>
<rect x="14" y="19" width="1" height="1" fill="#37322c"/>
<rect x="10" y="19" width="1" height="1" fill="#35312c"/>
<rect x="11" y="19" width="2" height="1" fill="#34302b"/>
<rect x="22" y="19" width="2" height="1" fill="#59352b"/>
<rect x="2" y="19" width="1" height="2" fill="#423f3b"/>
<rect x="31" y="19" width="1" height="2" fill="#423f3b"/>
<rect x="30" y="20" width="1" height="1" fill="#34302b"/>
<rect x="13" y="20" width="2" height="1" fill="#75753d"/>
<rect x="26" y="20" width="4" height="1" fill="#3f362d"/>
<rect x="10" y="20" width="1" height="1" fill="#37322c"/>
<rect x="3" y="20" width="1" height="1" fill="#39342c"/>
<rect x="9" y="20" width="1" height="1" fill="#35312c"/>
<rect x="15" y="20" width="1" height="2" fill="#63533b"/>
<rect x="18" y="20" width="3" height="2" fill="#42392e"/>
<rect x="25" y="20" width="1" height="2" fill="#8b2c2c"/>
<rect x="16" y="20" width="2" height="2" fill="#3f362d"/>
<rect x="9" y="21" width="1" height="1" fill="#37322c"/>
<rect x="30" y="21" width="1" height="1" fill="#6c342b"/>
<rect x="10" y="21" width="1" height="1" fill="#39342c"/>
<rect x="31" y="21" width="1" height="1" fill="#76412f"/>
<rect x="27" y="21" width="3" height="1" fill="#59352b"/>
<rect x="26" y="21" width="1" height="1" fill="#42392e"/>
<rect x="13" y="21" width="2" height="1" fill="#8a7649"/>
<rect x="0" y="18" width="2" height="5" fill="#917a51"/>
<rect x="4" y="19" width="1" height="4" fill="#3e4d5c"/>
<rect x="3" y="21" width="1" height="2" fill="#3f362d"/>
<rect x="11" y="21" width="2" height="2" fill="#75753d"/>
<rect x="2" y="21" width="1" height="2" fill="#514c3f"/>
<rect x="10" y="22" width="1" height="1" fill="#42392e"/>
<rect x="15" y="22" width="1" height="1" fill="#75753d"/>
<rect x="13" y="22" width="1" height="1" fill="#9c8456"/>
<rect x="14" y="22" width="1" height="1" fill="#a09370"/>
<rect x="9" y="22" width="1" height="1" fill="#3f362d"/>
<rect x="21" y="20" width="1" height="4" fill="#59352b"/>
<rect x="18" y="22" width="2" height="2" fill="#42392e"/>
<rect x="20" y="22" width="1" height="2" fill="#3f362d"/>
<rect x="2" y="23" width="1" height="1" fill="#4d6846"/>
<rect x="1" y="23" width="1" height="1" fill="#776242"/>
<rect x="3" y="23" width="2" height="1" fill="#326665"/>
<rect x="0" y="23" width="1" height="1" fill="#8a7649"/>
<rect x="18" y="24" width="1" height="1" fill="#42392e"/>
<rect x="1" y="24" width="1" height="1" fill="#6a5b3f"/>
<rect x="0" y="24" width="1" height="1" fill="#776242"/>
<rect x="20" y="24" width="2" height="1" fill="#3e4d5c"/>
<rect x="19" y="24" width="1" height="1" fill="#423f3b"/>
<rect x="2" y="24" width="2" height="2" fill="#2f7f62"/>
<rect x="0" y="25" width="2" height="1" fill="#776242"/>
<rect x="18" y="25" width="1" height="1" fill="#3f362d"/>
<rect x="11" y="23" width="1" height="4" fill="#917a51"/>
<rect x="12" y="23" width="3" height="4" fill="#a09370"/>
<rect x="15" y="23" width="1" height="4" fill="#717f41"/>
<rect x="19" y="25" width="1" height="2" fill="#3e4d5c"/>
<rect x="18" y="26" width="1" height="1" fill="#42392e"/>
<rect x="8" y="19" width="1" height="9" fill="#385075"/>
<rect x="7" y="19" width="1" height="9" fill="#3b5982"/>
<rect x="0" y="26" width="1" height="2" fill="#a09370"/>
<rect x="1" y="26" width="1" height="2" fill="#9c8456"/>
<rect x="16" y="27" width="1" height="2" fill="#3f362d"/>
<rect x="23" y="20" width="1" height="10" fill="#8b2c2c"/>
<rect x="22" y="20" width="1" height="10" fill="#842c2c"/>
<rect x="24" y="20" width="1" height="10" fill="#a32d2d"/>
<rect x="30" y="22" width="2" height="8" fill="#76412f"/>
<rect x="28" y="22" width="2" height="8" fill="#6c342b"/>
<rect x="26" y="22" width="2" height="8" fill="#59352b"/>
<rect x="25" y="22" width="1" height="8" fill="#a22e2e"/>
<rect x="17" y="22" width="1" height="9" fill="#514c3f"/>
<rect x="21" y="25" width="1" height="6" fill="#45565d"/>
<rect x="20" y="25" width="1" height="6" fill="#3b5982"/>
<rect x="11" y="27" width="2" height="4" fill="#75753d"/>
<rect x="19" y="27" width="1" height="4" fill="#4d6846"/>
<rect x="13" y="27" width="2" height="4" fill="#8a7649"/>
<rect x="0" y="28" width="2" height="3" fill="#9c8456"/>
<rect x="16" y="29" width="1" height="2" fill="#42392e"/>
<rect x="29" y="30" width="3" height="1" fill="#6a5b3f"/>
<rect x="26" y="30" width="3" height="1" fill="#63533b"/>
<rect x="22" y="30" width="2" height="1" fill="#842c2c"/>
<rect x="24" y="30" width="2" height="1" fill="#923931"/>
<rect x="5" y="19" width="2" height="13" fill="#385075"/>
<rect x="9" y="23" width="2" height="9" fill="#842c2c"/>
<rect x="4" y="24" width="1" height="8" fill="#326665"/>
<rect x="3" y="26" width="1" height="6" fill="#2f7f62"/>
<rect x="2" y="26" width="1" height="6" fill="#4e774b"/>
<rect x="7" y="28" width="2" height="4" fill="#3b5982"/>
<rect x="16" y="31" width="3" height="1" fill="#63533b"/>
<rect x="15" y="31" width="1" height="1" fill="#6a5b3f"/>
<rect x="22" y="31" width="4" height="1" fill="#63533b"/>
<rect x="11" y="31" width="4" height="1" fill="#75753d"/>
<rect x="0" y="31" width="1" height="1" fill="#a09370"/>
<rect x="1" y="31" width="1" height="1" fill="#9c8456"/>
<rect x="26" y="31" width="2" height="1" fill="#776242"/>
<rect x="19" y="31" width="3" height="1" fill="#6a5b3f"/>
<rect x="28" y="31" width="4" height="1" fill="#6a5b3f"/>
</svg>