<?xml version="1.0" encoding="UTF-8"?>
<svg xmlns="http://www.w3.org/2000/svg" width="20mm" height="20mm" viewBox="0 0 32 32" shape-rendering="crispEdges">
<title>076 顶面 structured redraw</title>
<metadata>structured semantic redraw; no embedded raster; no tracing; physical-size=20mm</metadata>
<rect x="0" y="0" width="32" height="32" fill="#a96d22"/>
<rect x="0" y="0" width="32" height="32" fill="#ad7125"/>
<rect x="2" y="5" width="4" height="1" fill="#83561f"/>
<rect x="11" y="3" width="3" height="1" fill="#ce8b34"/>
<rect x="20" y="6" width="4" height="1" fill="#946422"/>
<rect x="27" y="4" width="3" height="1" fill="#d08c35"/>
<rect x="3" y="12" width="3" height="1" fill="#c1812d"/>
<rect x="12" y="10" width="4" height="1" fill="#80531d"/>
<rect x="20" y="13" width="3" height="1" fill="#cf8a32"/>
<rect x="26" y="11" width="4" height="1" fill="#8d5d21"/>
<rect x="2" y="20" width="5" height="1" fill="#8a591f"/>
<rect x="11" y="18" width="3" height="1" fill="#cb8731"/>
<rect x="19" y="22" width="5" height="1" fill="#8f5f22"/>
<rect x="26" y="19" width="3" height="1" fill="#d09037"/>
<rect x="4" y="27" width="3" height="1" fill="#ca8430"/>
<rect x="12" y="25" width="4" height="1" fill="#83561f"/>
<rect x="21" y="27" width="3" height="1" fill="#cb8731"/>
<rect x="27" y="25" width="3" height="1" fill="#8d5d21"/>
<rect x="8" y="1" width="2" height="30" fill="#b97d32"/>
<rect x="17" y="1" width="2" height="30" fill="#b97d32"/>
<rect x="25" y="1" width="2" height="30" fill="#b97d32"/>
<rect x="0" y="0" width="32" height="2" fill="#3d3b36"/>
<rect x="0" y="30" width="32" height="2" fill="#3d3b36"/>
</svg>