<?xml version="1.0" encoding="UTF-8"?>
<svg xmlns="http://www.w3.org/2000/svg" width="20mm" height="20mm" viewBox="0 0 32 32" shape-rendering="crispEdges">
<title>133 顶面 structured semantic redraw</title>
<metadata>registered 32-unit semantic vector redraw; no embedded raster; physical-size=20mm</metadata>
<rect x="0" y="0" width="32" height="32" fill="#8ea0b2"/>
<rect x="10" y="0" width="1" height="1" fill="#8da0b2"/>
<rect x="3" y="0" width="1" height="1" fill="#8b9dae"/>
<rect x="0" y="0" width="1" height="1" fill="#909fb1"/>
<rect x="29" y="0" width="1" height="1" fill="#8a9cab"/>
<rect x="2" y="0" width="1" height="1" fill="#8d9fb0"/>
<rect x="7" y="0" width="1" height="1" fill="#8ea1b2"/>
<rect x="11" y="0" width="1" height="1" fill="#8ea1b2"/>
<rect x="24" y="0" width="1" height="1" fill="#8d9fb0"/>
<rect x="15" y="0" width="1" height="1" fill="#8d9fb2"/>
<rect x="25" y="0" width="3" height="1" fill="#8ea1b2"/>
<rect x="8" y="0" width="1" height="1" fill="#8da0b1"/>
<rect x="17" y="0" width="3" height="1" fill="#8b9cad"/>
<rect x="20" y="0" width="4" height="1" fill="#8da0b1"/>
<rect x="16" y="0" width="1" height="1" fill="#8a9cad"/>
<rect x="13" y="0" width="1" height="1" fill="#8da0b2"/>
<rect x="4" y="0" width="1" height="1" fill="#8b9cad"/>
<rect x="1" y="0" width="1" height="1" fill="#8fa0b0"/>
<rect x="28" y="0" width="1" height="2" fill="#8c9fb0"/>
<rect x="5" y="0" width="1" height="2" fill="#8da0b1"/>
<rect x="17" y="1" width="2" height="1" fill="#8b9bac"/>
<rect x="22" y="1" width="2" height="1" fill="#8a9cac"/>
<rect x="20" y="1" width="2" height="1" fill="#8a9cad"/>
<rect x="25" y="1" width="2" height="1" fill="#8ea1b2"/>
<rect x="19" y="1" width="1" height="1" fill="#8a9cac"/>
<rect x="16" y="1" width="1" height="1" fill="#8a9cac"/>
<rect x="4" y="1" width="1" height="1" fill="#8a9bac"/>
<rect x="0" y="1" width="4" height="1" fill="#8a9cac"/>
<rect x="24" y="1" width="1" height="1" fill="#8b9cad"/>
<rect x="29" y="1" width="1" height="1" fill="#8b9bac"/>
<rect x="8" y="1" width="2" height="1" fill="#8da0b2"/>
<rect x="11" y="1" width="2" height="1" fill="#8da0b2"/>
<rect x="19" y="2" width="1" height="1" fill="#8a9bac"/>
<rect x="18" y="2" width="1" height="1" fill="#8a9cad"/>
<rect x="26" y="2" width="1" height="1" fill="#8da1b2"/>
<rect x="6" y="2" width="1" height="1" fill="#8c9fb0"/>
<rect x="29" y="2" width="1" height="1" fill="#8a9cac"/>
<rect x="0" y="2" width="2" height="1" fill="#8a9cac"/>
<rect x="7" y="2" width="1" height="1" fill="#8d9eaf"/>
<rect x="12" y="2" width="1" height="1" fill="#8da0b1"/>
<rect x="22" y="2" width="3" height="1" fill="#8b9cad"/>
<rect x="5" y="2" width="1" height="1" fill="#8d9fb0"/>
<rect x="8" y="2" width="1" height="1" fill="#8d9fb0"/>
<rect x="21" y="2" width="1" height="1" fill="#8b9bac"/>
<rect x="17" y="2" width="1" height="1" fill="#8a9bac"/>
<rect x="16" y="2" width="1" height="1" fill="#8a9cad"/>
<rect x="4" y="2" width="1" height="1" fill="#8b9cad"/>
<rect x="2" y="2" width="2" height="1" fill="#8a9bac"/>
<rect x="15" y="1" width="1" height="3" fill="#8da0b1"/>
<rect x="20" y="2" width="1" height="2" fill="#8a9cac"/>
<rect x="28" y="2" width="1" height="2" fill="#8d9fb2"/>
<rect x="27" y="2" width="1" height="2" fill="#8ea1b2"/>
<rect x="6" y="3" width="1" height="1" fill="#8a9bac"/>
<rect x="0" y="3" width="1" height="1" fill="#8d9eaf"/>
<rect x="7" y="3" width="1" height="1" fill="#8a9cac"/>
<rect x="19" y="3" width="1" height="1" fill="#8a9cad"/>
<rect x="16" y="3" width="2" height="1" fill="#8a9cad"/>
<rect x="5" y="3" width="1" height="1" fill="#8b9cad"/>
<rect x="9" y="3" width="2" height="1" fill="#8ea1b2"/>
<rect x="12" y="3" width="1" height="1" fill="#8da0b2"/>
<rect x="25" y="3" width="1" height="1" fill="#8da0b1"/>
<rect x="18" y="3" width="1" height="1" fill="#8b9cad"/>
<rect x="21" y="3" width="3" height="1" fill="#8b9cad"/>
<rect x="2" y="3" width="2" height="1" fill="#8da0b1"/>
<rect x="1" y="3" width="1" height="1" fill="#8d9fb0"/>
<rect x="29" y="3" width="1" height="2" fill="#899cac"/>
<rect x="24" y="3" width="1" height="2" fill="#8a9cad"/>
<rect x="3" y="4" width="1" height="1" fill="#8da0b2"/>
<rect x="15" y="4" width="1" height="1" fill="#8da0b2"/>
<rect x="23" y="4" width="1" height="1" fill="#8a9cac"/>
<rect x="20" y="4" width="3" height="1" fill="#8a9bac"/>
<rect x="25" y="4" width="2" height="1" fill="#8da0b1"/>
<rect x="10" y="4" width="1" height="1" fill="#8ea1b2"/>
<rect x="17" y="4" width="3" height="1" fill="#8a9cac"/>
<rect x="27" y="4" width="1" height="1" fill="#8da1b2"/>
<rect x="30" y="0" width="2" height="6" fill="#7e8d9c"/>
<rect x="16" y="4" width="1" height="2" fill="#8a9cad"/>
<rect x="7" y="4" width="1" height="2" fill="#8a9cad"/>
<rect x="5" y="4" width="2" height="2" fill="#8b9cad"/>
<rect x="4" y="5" width="1" height="1" fill="#8da0b1"/>
<rect x="15" y="5" width="1" height="1" fill="#8d9eaf"/>
<rect x="9" y="5" width="1" height="1" fill="#8ea1b2"/>
<rect x="23" y="5" width="2" height="1" fill="#8da0b1"/>
<rect x="12" y="5" width="2" height="1" fill="#8d9fb2"/>
<rect x="17" y="5" width="1" height="1" fill="#8a9cac"/>
<rect x="27" y="5" width="1" height="1" fill="#8ea1b2"/>
<rect x="18" y="5" width="1" height="1" fill="#8b9cad"/>
<rect x="10" y="5" width="1" height="1" fill="#8da1b2"/>
<rect x="29" y="5" width="1" height="1" fill="#8a9cad"/>
<rect x="21" y="5" width="1" height="1" fill="#8d9fb0"/>
<rect x="19" y="5" width="1" height="1" fill="#8a9cac"/>
<rect x="14" y="5" width="1" height="1" fill="#8d9fb0"/>
<rect x="8" y="3" width="1" height="4" fill="#8d9eaf"/>
<rect x="28" y="4" width="1" height="3" fill="#8da0b1"/>
<rect x="22" y="5" width="1" height="2" fill="#8d9fb2"/>
<rect x="25" y="5" width="1" height="2" fill="#8da0b2"/>
<rect x="6" y="6" width="1" height="1" fill="#8a9bac"/>
<rect x="2" y="6" width="1" height="1" fill="#8da1b2"/>
<rect x="4" y="6" width="1" height="1" fill="#8da0b2"/>
<rect x="7" y="6" width="1" height="1" fill="#8b9cad"/>
<rect x="30" y="6" width="1" height="1" fill="#899cab"/>
<rect x="5" y="6" width="1" height="1" fill="#8b9cad"/>
<rect x="13" y="6" width="1" height="1" fill="#8a9bac"/>
<rect x="14" y="6" width="5" height="1" fill="#8a9cac"/>
<rect x="10" y="6" width="1" height="1" fill="#8ea1b2"/>
<rect x="20" y="5" width="1" height="3" fill="#8b9dae"/>
<rect x="29" y="6" width="1" height="2" fill="#8b9dae"/>
<rect x="19" y="6" width="1" height="2" fill="#8a9bac"/>
<rect x="12" y="6" width="1" height="2" fill="#8b9cad"/>
<rect x="9" y="6" width="1" height="2" fill="#8ea0b1"/>
<rect x="27" y="6" width="1" height="2" fill="#8da0b2"/>
<rect x="13" y="7" width="2" height="1" fill="#8a9cac"/>
<rect x="5" y="7" width="1" height="1" fill="#8b9dae"/>
<rect x="15" y="7" width="1" height="1" fill="#8a9bac"/>
<rect x="28" y="7" width="1" height="1" fill="#8ea0b1"/>
<rect x="23" y="7" width="1" height="1" fill="#8d9fb2"/>
<rect x="21" y="7" width="2" height="1" fill="#8da0b2"/>
<rect x="7" y="7" width="1" height="1" fill="#8a9bac"/>
<rect x="16" y="7" width="1" height="1" fill="#899cac"/>
<rect x="26" y="7" width="1" height="1" fill="#8d9fb2"/>
<rect x="18" y="7" width="1" height="1" fill="#8a9cac"/>
<rect x="6" y="7" width="1" height="1" fill="#8b9cad"/>
<rect x="17" y="7" width="1" height="1" fill="#8a9cad"/>
<rect x="30" y="7" width="1" height="2" fill="#8a9cab"/>
<rect x="8" y="7" width="1" height="2" fill="#8b9dae"/>
<rect x="21" y="8" width="5" height="1" fill="#8da0b2"/>
<rect x="12" y="8" width="1" height="1" fill="#8b9dae"/>
<rect x="13" y="8" width="1" height="1" fill="#8b9cad"/>
<rect x="20" y="8" width="1" height="1" fill="#8b9cad"/>
<rect x="14" y="8" width="1" height="1" fill="#8a9cac"/>
<rect x="16" y="8" width="1" height="1" fill="#8a9bac"/>
<rect x="6" y="8" width="1" height="1" fill="#8b9bac"/>
<rect x="27" y="8" width="1" height="1" fill="#8d9fb2"/>
<rect x="15" y="8" width="1" height="1" fill="#8a9cad"/>
<rect x="7" y="8" width="1" height="1" fill="#8b9cad"/>
<rect x="5" y="8" width="1" height="1" fill="#8b9cad"/>
<rect x="17" y="8" width="3" height="1" fill="#8a9cac"/>
<rect x="31" y="6" width="1" height="4" fill="#7e8d9c"/>
<rect x="10" y="8" width="1" height="2" fill="#8da0b2"/>
<rect x="28" y="8" width="1" height="2" fill="#8da0b2"/>
<rect x="4" y="9" width="1" height="1" fill="#8da0b1"/>
<rect x="5" y="9" width="3" height="1" fill="#8b9cad"/>
<rect x="22" y="9" width="1" height="1" fill="#8da0b2"/>
<rect x="24" y="9" width="2" height="1" fill="#8da0b2"/>
<rect x="3" y="9" width="1" height="1" fill="#8da0b2"/>
<rect x="12" y="9" width="1" height="1" fill="#8d9eaf"/>
<rect x="26" y="9" width="2" height="1" fill="#8d9fb2"/>
<rect x="14" y="9" width="2" height="1" fill="#8b9cad"/>
<rect x="16" y="9" width="5" height="1" fill="#8b9dae"/>
<rect x="13" y="9" width="1" height="1" fill="#8b9dae"/>
<rect x="30" y="9" width="1" height="1" fill="#8b9bac"/>
<rect x="8" y="9" width="1" height="1" fill="#8d9eaf"/>
<rect x="11" y="9" width="1" height="1" fill="#8d9fb2"/>
<rect x="23" y="9" width="1" height="2" fill="#8d9fb2"/>
<rect x="17" y="10" width="1" height="1" fill="#8d9fb2"/>
<rect x="3" y="10" width="2" height="1" fill="#8b9cad"/>
<rect x="25" y="10" width="1" height="1" fill="#8da0b2"/>
<rect x="6" y="10" width="1" height="1" fill="#8ea0b1"/>
<rect x="5" y="10" width="1" height="1" fill="#8d9fb0"/>
<rect x="30" y="10" width="1" height="1" fill="#8a9cad"/>
<rect x="20" y="10" width="3" height="1" fill="#8da0b2"/>
<rect x="7" y="10" width="1" height="1" fill="#8d9fb2"/>
<rect x="26" y="10" width="1" height="1" fill="#8d9fb2"/>
<rect x="27" y="10" width="1" height="1" fill="#8da0b2"/>
<rect x="1" y="10" width="1" height="1" fill="#8da0b1"/>
<rect x="2" y="10" width="1" height="1" fill="#8a9cad"/>
<rect x="18" y="10" width="1" height="1" fill="#8da0b2"/>
<rect x="28" y="10" width="1" height="2" fill="#8d9fb2"/>
<rect x="31" y="10" width="1" height="2" fill="#b98397"/>
<rect x="16" y="10" width="1" height="2" fill="#8da0b2"/>
<rect x="6" y="11" width="4" height="1" fill="#8da0b2"/>
<rect x="18" y="11" width="2" height="1" fill="#8da0b2"/>
<rect x="1" y="11" width="1" height="1" fill="#8d9fb2"/>
<rect x="30" y="11" width="1" height="1" fill="#899cac"/>
<rect x="5" y="11" width="1" height="1" fill="#8c9fb0"/>
<rect x="2" y="11" width="2" height="1" fill="#8a9cac"/>
<rect x="29" y="8" width="1" height="5" fill="#8c9fb0"/>
<rect x="22" y="11" width="1" height="2" fill="#8da0b2"/>
<rect x="0" y="11" width="1" height="2" fill="#8da0b2"/>
<rect x="4" y="11" width="1" height="2" fill="#8a9bac"/>
<rect x="24" y="11" width="1" height="2" fill="#8d9fb2"/>
<rect x="2" y="12" width="1" height="1" fill="#8a9cac"/>
<rect x="21" y="12" width="1" height="1" fill="#8d9fb2"/>
<rect x="18" y="12" width="1" height="1" fill="#8d9fb2"/>
<rect x="9" y="12" width="1" height="1" fill="#8da0b2"/>
<rect x="10" y="12" width="1" height="1" fill="#8d9fb2"/>
<rect x="28" y="12" width="1" height="1" fill="#8da0b2"/>
<rect x="25" y="12" width="2" height="1" fill="#8da0b2"/>
<rect x="7" y="12" width="1" height="1" fill="#8da0b2"/>
<rect x="3" y="12" width="1" height="1" fill="#899cac"/>
<rect x="19" y="12" width="2" height="1" fill="#8da0b2"/>
<rect x="12" y="12" width="1" height="1" fill="#8d9fb2"/>
<rect x="31" y="12" width="1" height="1" fill="#ad91a4"/>
<rect x="5" y="12" width="1" height="1" fill="#8d9fb2"/>
<rect x="1" y="12" width="1" height="2" fill="#8c9fb0"/>
<rect x="30" y="12" width="1" height="2" fill="#8a9cad"/>
<rect x="21" y="13" width="4" height="1" fill="#8d9fb2"/>
<rect x="13" y="13" width="3" height="1" fill="#8d9fb2"/>
<rect x="27" y="13" width="1" height="1" fill="#8da0b1"/>
<rect x="7" y="13" width="2" height="1" fill="#909fb1"/>
<rect x="17" y="13" width="4" height="1" fill="#909fb1"/>
<rect x="29" y="13" width="1" height="1" fill="#8d9fb2"/>
<rect x="28" y="13" width="1" height="1" fill="#8ea0b1"/>
<rect x="9" y="13" width="2" height="1" fill="#8da0b2"/>
<rect x="5" y="13" width="2" height="1" fill="#9398aa"/>
<rect x="26" y="13" width="1" height="1" fill="#8d9fb2"/>
<rect x="2" y="13" width="3" height="1" fill="#8a9cad"/>
<rect x="25" y="13" width="1" height="1" fill="#8da0b1"/>
<rect x="12" y="13" width="1" height="1" fill="#8da0b1"/>
<rect x="16" y="13" width="1" height="1" fill="#8fa0b0"/>
<rect x="0" y="13" width="1" height="1" fill="#8da0b1"/>
<rect x="17" y="14" width="1" height="1" fill="#c08a9e"/>
<rect x="22" y="14" width="8" height="1" fill="#8a9cad"/>
<rect x="13" y="14" width="3" height="1" fill="#8a9bac"/>
<rect x="6" y="14" width="2" height="1" fill="#c08a9e"/>
<rect x="18" y="14" width="3" height="1" fill="#ba8a9e"/>
<rect x="31" y="13" width="1" height="3" fill="#9398aa"/>
<rect x="9" y="14" width="1" height="2" fill="#8da0b2"/>
<rect x="12" y="14" width="1" height="2" fill="#8b9dae"/>
<rect x="11" y="14" width="1" height="2" fill="#8da0b2"/>
<rect x="17" y="15" width="1" height="1" fill="#c18a9e"/>
<rect x="18" y="15" width="2" height="1" fill="#c08a9e"/>
<rect x="6" y="15" width="1" height="1" fill="#c1899e"/>
<rect x="22" y="15" width="1" height="1" fill="#8a9bac"/>
<rect x="7" y="15" width="1" height="1" fill="#c18a9e"/>
<rect x="14" y="15" width="1" height="1" fill="#8a9cac"/>
<rect x="13" y="15" width="1" height="1" fill="#899cac"/>
<rect x="26" y="15" width="4" height="1" fill="#8a9cac"/>
<rect x="24" y="15" width="2" height="1" fill="#8a9cad"/>
<rect x="0" y="14" width="2" height="3" fill="#8da0b1"/>
<rect x="21" y="14" width="1" height="3" fill="#9398aa"/>
<rect x="8" y="14" width="1" height="3" fill="#ad91a4"/>
<rect x="2" y="14" width="3" height="3" fill="#8da0b2"/>
<rect x="30" y="14" width="1" height="3" fill="#899bac"/>
<rect x="23" y="15" width="1" height="2" fill="#8a9cac"/>
<rect x="15" y="15" width="1" height="2" fill="#899cab"/>
<rect x="19" y="16" width="1" height="1" fill="#c08a9e"/>
<rect x="13" y="16" width="2" height="1" fill="#8a9cac"/>
<rect x="6" y="16" width="1" height="1" fill="#c18a9e"/>
<rect x="31" y="16" width="1" height="1" fill="#8a9cab"/>
<rect x="22" y="16" width="1" height="1" fill="#899cac"/>
<rect x="29" y="16" width="1" height="1" fill="#8a9bac"/>
<rect x="24" y="16" width="1" height="1" fill="#8a9cad"/>
<rect x="9" y="16" width="2" height="1" fill="#8da0b2"/>
<rect x="17" y="16" width="2" height="1" fill="#c18a9e"/>
<rect x="11" y="16" width="1" height="1" fill="#8d9fb2"/>
<rect x="25" y="16" width="3" height="1" fill="#8a9cac"/>
<rect x="7" y="16" width="1" height="1" fill="#c1899e"/>
<rect x="16" y="14" width="1" height="4" fill="#9398aa"/>
<rect x="28" y="16" width="1" height="2" fill="#899cac"/>
<rect x="12" y="16" width="1" height="2" fill="#8d9eaf"/>
<rect x="8" y="17" width="1" height="1" fill="#ba8a9e"/>
<rect x="10" y="17" width="1" height="1" fill="#8fa0b0"/>
<rect x="23" y="17" width="1" height="1" fill="#8a9bac"/>
<rect x="9" y="17" width="1" height="1" fill="#909fb1"/>
<rect x="4" y="17" width="1" height="1" fill="#8c9fb0"/>
<rect x="6" y="17" width="2" height="1" fill="#c08a9e"/>
<rect x="3" y="17" width="1" height="1" fill="#8d9eaf"/>
<rect x="11" y="17" width="1" height="1" fill="#8ea0b1"/>
<rect x="25" y="17" width="1" height="1" fill="#899cab"/>
<rect x="2" y="17" width="1" height="1" fill="#8b9dae"/>
<rect x="29" y="17" width="1" height="1" fill="#8a9cad"/>
<rect x="18" y="17" width="2" height="1" fill="#c1899e"/>
<rect x="26" y="17" width="2" height="1" fill="#8a9cac"/>
<rect x="13" y="17" width="3" height="1" fill="#8a9cac"/>
<rect x="30" y="17" width="2" height="1" fill="#899cab"/>
<rect x="20" y="15" width="1" height="4" fill="#c18a9e"/>
<rect x="24" y="17" width="1" height="2" fill="#899cac"/>
<rect x="22" y="17" width="1" height="2" fill="#899bac"/>
<rect x="28" y="18" width="1" height="1" fill="#8a9cac"/>
<rect x="26" y="18" width="2" height="1" fill="#8a9bac"/>
<rect x="14" y="18" width="1" height="1" fill="#899bac"/>
<rect x="18" y="18" width="1" height="1" fill="#c18a9e"/>
<rect x="29" y="18" width="2" height="1" fill="#899bac"/>
<rect x="4" y="18" width="1" height="1" fill="#899bac"/>
<rect x="2" y="18" width="1" height="1" fill="#899bac"/>
<rect x="3" y="18" width="1" height="1" fill="#8a9bac"/>
<rect x="31" y="18" width="1" height="1" fill="#899cab"/>
<rect x="19" y="18" width="1" height="1" fill="#c1899e"/>
<rect x="13" y="18" width="1" height="1" fill="#8a9cac"/>
<rect x="25" y="18" width="1" height="1" fill="#8a9cac"/>
<rect x="9" y="18" width="3" height="1" fill="#ba8a9e"/>
<rect x="23" y="18" width="1" height="1" fill="#8a9cac"/>
<rect x="0" y="17" width="1" height="3" fill="#8da0b2"/>
<rect x="17" y="17" width="1" height="3" fill="#c08a9e"/>
<rect x="8" y="18" width="1" height="2" fill="#c1899e"/>
<rect x="6" y="18" width="2" height="2" fill="#b98397"/>
<rect x="12" y="18" width="1" height="2" fill="#ad91a4"/>
<rect x="15" y="18" width="1" height="2" fill="#8a9cac"/>
<rect x="30" y="19" width="1" height="1" fill="#8b9dae"/>
<rect x="23" y="19" width="2" height="1" fill="#8a9cac"/>
<rect x="13" y="19" width="2" height="1" fill="#899cac"/>
<rect x="22" y="19" width="1" height="1" fill="#899cac"/>
<rect x="9" y="19" width="3" height="1" fill="#c18a9e"/>
<rect x="25" y="19" width="1" height="1" fill="#899cab"/>
<rect x="2" y="19" width="2" height="1" fill="#8a9bac"/>
<rect x="27" y="19" width="3" height="1" fill="#8da0b1"/>
<rect x="31" y="19" width="1" height="1" fill="#899bac"/>
<rect x="5" y="14" width="1" height="7" fill="#ba8a9e"/>
<rect x="21" y="17" width="1" height="4" fill="#ad91a4"/>
<rect x="1" y="17" width="1" height="4" fill="#8c9fb0"/>
<rect x="16" y="18" width="1" height="3" fill="#8b9bac"/>
<rect x="4" y="19" width="1" height="2" fill="#899cac"/>
<rect x="26" y="19" width="1" height="2" fill="#8a9cad"/>
<rect x="11" y="20" width="1" height="1" fill="#c1899e"/>
<rect x="10" y="20" width="1" height="1" fill="#c18a9e"/>
<rect x="3" y="20" width="1" height="1" fill="#8a9cac"/>
<rect x="24" y="20" width="1" height="1" fill="#899cac"/>
<rect x="6" y="20" width="3" height="1" fill="#b98397"/>
<rect x="2" y="20" width="1" height="1" fill="#899bac"/>
<rect x="28" y="20" width="1" height="1" fill="#8d9fb2"/>
<rect x="25" y="20" width="1" height="1" fill="#8a9cac"/>
<rect x="27" y="20" width="1" height="1" fill="#8da0b2"/>
<rect x="30" y="20" width="1" height="1" fill="#8c9fb0"/>
<rect x="31" y="20" width="1" height="1" fill="#899cac"/>
<rect x="22" y="20" width="1" height="1" fill="#8a9cad"/>
<rect x="9" y="20" width="1" height="1" fill="#c1899e"/>
<rect x="23" y="20" width="1" height="1" fill="#8a9cac"/>
<rect x="0" y="20" width="1" height="1" fill="#8da0b1"/>
<rect x="18" y="19" width="1" height="3" fill="#c1899e"/>
<rect x="19" y="19" width="2" height="3" fill="#c18a9e"/>
<rect x="13" y="20" width="1" height="2" fill="#899cac"/>
<rect x="0" y="21" width="2" height="1" fill="#8b9dae"/>
<rect x="24" y="21" width="3" height="1" fill="#8a9cac"/>
<rect x="3" y="21" width="1" height="1" fill="#8a9cab"/>
<rect x="2" y="21" width="1" height="1" fill="#8a9bac"/>
<rect x="6" y="21" width="1" height="1" fill="#ba8a9e"/>
<rect x="7" y="21" width="2" height="1" fill="#b98397"/>
<rect x="9" y="21" width="3" height="1" fill="#c18a9e"/>
<rect x="16" y="21" width="1" height="1" fill="#8a9bac"/>
<rect x="30" y="21" width="1" height="1" fill="#8d9fb2"/>
<rect x="28" y="21" width="2" height="1" fill="#8da0b2"/>
<rect x="5" y="21" width="1" height="1" fill="#ad91a4"/>
<rect x="4" y="21" width="1" height="1" fill="#8a9cac"/>
<rect x="31" y="21" width="1" height="1" fill="#8a9cad"/>
<rect x="27" y="21" width="1" height="1" fill="#8d9fb2"/>
<rect x="22" y="21" width="2" height="1" fill="#899cac"/>
<rect x="17" y="20" width="1" height="3" fill="#ba8a9e"/>
<rect x="14" y="20" width="2" height="3" fill="#8a9cac"/>
<rect x="21" y="21" width="1" height="2" fill="#ba8a9e"/>
<rect x="3" y="22" width="2" height="1" fill="#899cac"/>
<rect x="2" y="22" width="1" height="1" fill="#8a9cac"/>
<rect x="13" y="22" width="1" height="1" fill="#899bac"/>
<rect x="5" y="22" width="2" height="1" fill="#8b9bac"/>
<rect x="18" y="22" width="1" height="1" fill="#c18a9e"/>
<rect x="0" y="22" width="1" height="1" fill="#899bac"/>
<rect x="7" y="22" width="2" height="1" fill="#9398aa"/>
<rect x="26" y="22" width="1" height="1" fill="#899cac"/>
<rect x="23" y="22" width="2" height="1" fill="#899cac"/>
<rect x="27" y="22" width="1" height="1" fill="#8da0b1"/>
<rect x="10" y="22" width="1" height="1" fill="#c1899e"/>
<rect x="19" y="22" width="2" height="1" fill="#c08a9e"/>
<rect x="25" y="22" width="1" height="1" fill="#8a9cac"/>
<rect x="11" y="22" width="1" height="1" fill="#c18a9e"/>
<rect x="22" y="22" width="1" height="1" fill="#899bac"/>
<rect x="29" y="22" width="1" height="1" fill="#8d9fb2"/>
<rect x="16" y="22" width="1" height="1" fill="#899bac"/>
<rect x="1" y="22" width="1" height="1" fill="#8a9bac"/>
<rect x="31" y="22" width="1" height="2" fill="#8b9dae"/>
<rect x="18" y="23" width="2" height="1" fill="#dd8095"/>
<rect x="17" y="23" width="1" height="1" fill="#ca8499"/>
<rect x="7" y="23" width="1" height="1" fill="#8a9cac"/>
<rect x="20" y="23" width="2" height="1" fill="#ca8499"/>
<rect x="0" y="23" width="6" height="1" fill="#8a9cac"/>
<rect x="29" y="23" width="1" height="1" fill="#8da0b2"/>
<rect x="22" y="23" width="1" height="1" fill="#ad91a4"/>
<rect x="14" y="23" width="1" height="1" fill="#899cab"/>
<rect x="23" y="23" width="4" height="1" fill="#9398aa"/>
<rect x="10" y="23" width="2" height="1" fill="#c1899e"/>
<rect x="6" y="23" width="1" height="1" fill="#899cac"/>
<rect x="27" y="23" width="1" height="1" fill="#8d9fb2"/>
<rect x="13" y="23" width="1" height="2" fill="#8a9bac"/>
<rect x="28" y="24" width="2" height="1" fill="#8d9fb2"/>
<rect x="4" y="24" width="1" height="1" fill="#899cac"/>
<rect x="2" y="24" width="1" height="1" fill="#899cac"/>
<rect x="0" y="24" width="1" height="1" fill="#899bac"/>
<rect x="3" y="24" width="1" height="1" fill="#8a9bac"/>
<rect x="14" y="24" width="1" height="1" fill="#8a9cab"/>
<rect x="1" y="24" width="1" height="1" fill="#8a9cac"/>
<rect x="7" y="24" width="1" height="1" fill="#8a9cad"/>
<rect x="5" y="24" width="1" height="1" fill="#8a9bac"/>
<rect x="24" y="24" width="1" height="1" fill="#b98397"/>
<rect x="17" y="24" width="1" height="1" fill="#c68a9d"/>
<rect x="25" y="24" width="2" height="1" fill="#ba8a9e"/>
<rect x="6" y="24" width="1" height="1" fill="#8a9cac"/>
<rect x="31" y="24" width="1" height="1" fill="#8c9fb0"/>
<rect x="12" y="20" width="1" height="6" fill="#ba8a9e"/>
<rect x="30" y="22" width="1" height="4" fill="#8da0b1"/>
<rect x="16" y="23" width="1" height="3" fill="#899cac"/>
<rect x="8" y="23" width="1" height="3" fill="#8b9bac"/>
<rect x="15" y="23" width="1" height="3" fill="#8a9cac"/>
<rect x="27" y="24" width="1" height="2" fill="#9398aa"/>
<rect x="6" y="25" width="1" height="1" fill="#899bac"/>
<rect x="31" y="25" width="1" height="1" fill="#8b9dae"/>
<rect x="17" y="25" width="1" height="1" fill="#c1899e"/>
<rect x="28" y="25" width="1" height="1" fill="#8da0b2"/>
<rect x="7" y="25" width="1" height="1" fill="#8a9bac"/>
<rect x="5" y="25" width="1" height="1" fill="#8b9bac"/>
<rect x="2" y="25" width="3" height="1" fill="#9398aa"/>
<rect x="25" y="25" width="2" height="1" fill="#b98397"/>
<rect x="1" y="25" width="1" height="1" fill="#8b9bac"/>
<rect x="24" y="25" width="1" height="1" fill="#ba8a9e"/>
<rect x="14" y="25" width="1" height="1" fill="#899cac"/>
<rect x="22" y="24" width="2" height="3" fill="#c1899e"/>
<rect x="13" y="25" width="1" height="2" fill="#8b9bac"/>
<rect x="0" y="25" width="1" height="2" fill="#8a9cac"/>
<rect x="24" y="26" width="2" height="1" fill="#b98397"/>
<rect x="4" y="26" width="1" height="1" fill="#c08a9e"/>
<rect x="2" y="26" width="2" height="1" fill="#c18a9e"/>
<rect x="28" y="26" width="1" height="1" fill="#8da0b1"/>
<rect x="6" y="26" width="1" height="1" fill="#8c9fb0"/>
<rect x="7" y="26" width="1" height="1" fill="#8d9eaf"/>
<rect x="8" y="26" width="1" height="1" fill="#8b9cad"/>
<rect x="12" y="26" width="1" height="1" fill="#c08a9e"/>
<rect x="14" y="26" width="3" height="1" fill="#899cac"/>
<rect x="26" y="26" width="1" height="1" fill="#c1899e"/>
<rect x="9" y="22" width="1" height="6" fill="#c08a9e"/>
<rect x="18" y="24" width="4" height="4" fill="#dd8095"/>
<rect x="10" y="24" width="2" height="4" fill="#c18a9e"/>
<rect x="31" y="26" width="1" height="2" fill="#8c9fb0"/>
<rect x="17" y="26" width="1" height="2" fill="#ba8a9e"/>
<rect x="28" y="27" width="1" height="1" fill="#8da1b2"/>
<rect x="23" y="27" width="4" height="1" fill="#c1899e"/>
<rect x="14" y="27" width="1" height="1" fill="#ba8a9e"/>
<rect x="6" y="27" width="2" height="1" fill="#8da0b2"/>
<rect x="30" y="27" width="1" height="1" fill="#8da0b2"/>
<rect x="8" y="27" width="1" height="1" fill="#909fb1"/>
<rect x="2" y="27" width="3" height="1" fill="#c18a9e"/>
<rect x="15" y="27" width="2" height="1" fill="#ad91a4"/>
<rect x="12" y="27" width="2" height="1" fill="#c1899e"/>
<rect x="22" y="27" width="1" height="1" fill="#ca8499"/>
<rect x="1" y="26" width="1" height="3" fill="#9398aa"/>
<rect x="27" y="26" width="1" height="3" fill="#ad91a4"/>
<rect x="0" y="27" width="1" height="2" fill="#899bac"/>
<rect x="11" y="28" width="1" height="1" fill="#c1899e"/>
<rect x="10" y="28" width="1" height="1" fill="#c18a9e"/>
<rect x="17" y="28" width="5" height="1" fill="#dd8095"/>
<rect x="13" y="28" width="4" height="1" fill="#d77b91"/>
<rect x="28" y="28" width="3" height="1" fill="#8da1b2"/>
<rect x="22" y="28" width="5" height="1" fill="#ba8a9e"/>
<rect x="6" y="28" width="1" height="1" fill="#8da0b1"/>
<rect x="12" y="28" width="1" height="1" fill="#c18a9e"/>
<rect x="31" y="28" width="1" height="1" fill="#8da0b1"/>
<rect x="7" y="28" width="1" height="1" fill="#8d9fb2"/>
<rect x="2" y="28" width="3" height="1" fill="#c1899e"/>
<rect x="8" y="28" width="1" height="1" fill="#8ea0b1"/>
<rect x="5" y="26" width="1" height="4" fill="#9398aa"/>
<rect x="23" y="29" width="1" height="1" fill="#899cac"/>
<rect x="8" y="29" width="1" height="1" fill="#8b9dae"/>
<rect x="24" y="29" width="1" height="1" fill="#8b9bac"/>
<rect x="29" y="29" width="2" height="1" fill="#9398aa"/>
<rect x="27" y="29" width="2" height="1" fill="#ad91a4"/>
<rect x="6" y="29" width="1" height="1" fill="#8b9dae"/>
<rect x="2" y="29" width="1" height="1" fill="#c18a9e"/>
<rect x="3" y="29" width="1" height="1" fill="#c08a9e"/>
<rect x="25" y="29" width="2" height="1" fill="#9398aa"/>
<rect x="4" y="29" width="1" height="1" fill="#c1899e"/>
<rect x="7" y="29" width="1" height="1" fill="#8c9fb0"/>
<rect x="22" y="29" width="1" height="1" fill="#ad91a4"/>
<rect x="31" y="29" width="1" height="1" fill="#909fb1"/>
<rect x="0" y="29" width="2" height="1" fill="#ad91a4"/>
<rect x="9" y="28" width="1" height="3" fill="#ba8a9e"/>
<rect x="10" y="29" width="3" height="2" fill="#c1899e"/>
<rect x="25" y="30" width="1" height="1" fill="#8a9cad"/>
<rect x="31" y="30" width="1" height="1" fill="#ba8a9e"/>
<rect x="26" y="30" width="1" height="1" fill="#8a9cac"/>
<rect x="6" y="30" width="1" height="1" fill="#9398aa"/>
<rect x="7" y="30" width="1" height="1" fill="#909fb1"/>
<rect x="8" y="30" width="1" height="1" fill="#8d9eaf"/>
<rect x="2" y="30" width="3" height="1" fill="#ca8499"/>
<rect x="28" y="30" width="1" height="1" fill="#c1899e"/>
<rect x="23" y="30" width="1" height="1" fill="#8a9cac"/>
<rect x="5" y="30" width="1" height="1" fill="#ad91a4"/>
<rect x="27" y="30" width="1" height="1" fill="#9398aa"/>
<rect x="0" y="30" width="2" height="1" fill="#b98397"/>
<rect x="18" y="29" width="4" height="3" fill="#dd8095"/>
<rect x="13" y="29" width="5" height="3" fill="#d77b91"/>
<rect x="29" y="30" width="2" height="2" fill="#c18a9e"/>
<rect x="24" y="30" width="1" height="2" fill="#8a9bac"/>
<rect x="22" y="30" width="1" height="2" fill="#ba8a9e"/>
<rect x="7" y="31" width="3" height="1" fill="#ba8a9e"/>
<rect x="31" y="31" width="1" height="1" fill="#c08a9e"/>
<rect x="3" y="31" width="3" height="1" fill="#d77b91"/>
<rect x="6" y="31" width="1" height="1" fill="#b98397"/>
<rect x="23" y="31" width="1" height="1" fill="#899bac"/>
<rect x="10" y="31" width="3" height="1" fill="#c08a9e"/>
<rect x="27" y="31" width="1" height="1" fill="#8b9bac"/>
<rect x="25" y="31" width="1" height="1" fill="#8a9cac"/>
<rect x="28" y="31" width="1" height="1" fill="#c08a9e"/>
<rect x="26" y="31" width="1" height="1" fill="#8a9bac"/>
<rect x="0" y="31" width="3" height="1" fill="#b98397"/>
</svg>