<?xml version="1.0" encoding="UTF-8"?>
<svg xmlns="http://www.w3.org/2000/svg" width="20mm" height="20mm" viewBox="0 0 32 32" shape-rendering="crispEdges">
<title>135 正面 structured semantic redraw</title>
<metadata>registered 32-unit semantic vector redraw; no embedded raster; physical-size=20mm</metadata>
<rect x="0" y="0" width="32" height="32" fill="#543b2f"/>
<rect x="9" y="0" width="6" height="1" fill="#332b29"/>
<rect x="22" y="0" width="1" height="1" fill="#4d3c33"/>
<rect x="21" y="0" width="1" height="1" fill="#44332b"/>
<rect x="17" y="0" width="4" height="1" fill="#3a2f2c"/>
<rect x="24" y="0" width="8" height="1" fill="#4c4c4b"/>
<rect x="0" y="0" width="4" height="1" fill="#382d2a"/>
<rect x="15" y="0" width="2" height="1" fill="#362c2a"/>
<rect x="23" y="0" width="1" height="1" fill="#544137"/>
<rect x="4" y="0" width="5" height="2" fill="#362c2a"/>
<rect x="9" y="1" width="9" height="1" fill="#332b29"/>
<rect x="27" y="1" width="5" height="1" fill="#3a2f2c"/>
<rect x="18" y="1" width="4" height="1" fill="#362c2a"/>
<rect x="22" y="1" width="5" height="1" fill="#382d2a"/>
<rect x="31" y="2" width="1" height="1" fill="#332b29"/>
<rect x="28" y="2" width="1" height="1" fill="#332b29"/>
<rect x="7" y="2" width="2" height="1" fill="#382d2a"/>
<rect x="10" y="2" width="2" height="1" fill="#332b29"/>
<rect x="14" y="2" width="5" height="1" fill="#332b29"/>
<rect x="9" y="2" width="1" height="1" fill="#362c2a"/>
<rect x="4" y="2" width="3" height="1" fill="#3a2f2c"/>
<rect x="25" y="2" width="3" height="1" fill="#362c2a"/>
<rect x="29" y="2" width="2" height="1" fill="#362c2a"/>
<rect x="12" y="2" width="2" height="1" fill="#312a29"/>
<rect x="19" y="2" width="3" height="1" fill="#362c2a"/>
<rect x="22" y="2" width="3" height="2" fill="#382d2a"/>
<rect x="15" y="3" width="4" height="1" fill="#44332b"/>
<rect x="26" y="3" width="6" height="1" fill="#332b29"/>
<rect x="19" y="3" width="3" height="1" fill="#3a2f2c"/>
<rect x="13" y="3" width="2" height="1" fill="#4c372e"/>
<rect x="25" y="3" width="1" height="1" fill="#362c2a"/>
<rect x="12" y="3" width="1" height="1" fill="#4e382d"/>
<rect x="9" y="3" width="3" height="1" fill="#52392e"/>
<rect x="5" y="3" width="4" height="2" fill="#4e392e"/>
<rect x="23" y="4" width="2" height="1" fill="#52392e"/>
<rect x="29" y="4" width="2" height="1" fill="#362c2a"/>
<rect x="27" y="4" width="2" height="1" fill="#44332b"/>
<rect x="26" y="4" width="1" height="1" fill="#4c372e"/>
<rect x="25" y="4" width="1" height="1" fill="#4e382d"/>
<rect x="0" y="1" width="1" height="5" fill="#3a2f2c"/>
<rect x="1" y="1" width="3" height="5" fill="#382d2a"/>
<rect x="26" y="5" width="1" height="1" fill="#4e392d"/>
<rect x="8" y="5" width="1" height="1" fill="#4e392f"/>
<rect x="27" y="5" width="2" height="1" fill="#4e382d"/>
<rect x="5" y="5" width="3" height="1" fill="#4e392e"/>
<rect x="4" y="3" width="1" height="4" fill="#44332b"/>
<rect x="6" y="6" width="3" height="1" fill="#4e392e"/>
<rect x="26" y="6" width="3" height="1" fill="#4e392e"/>
<rect x="0" y="6" width="2" height="1" fill="#3a2f2c"/>
<rect x="11" y="6" width="1" height="1" fill="#543b2e"/>
<rect x="5" y="6" width="1" height="1" fill="#4e392f"/>
<rect x="2" y="6" width="2" height="1" fill="#382d2a"/>
<rect x="31" y="4" width="1" height="4" fill="#332b29"/>
<rect x="29" y="5" width="1" height="3" fill="#382d2a"/>
<rect x="30" y="5" width="1" height="3" fill="#362c2a"/>
<rect x="9" y="6" width="1" height="2" fill="#52392e"/>
<rect x="2" y="7" width="3" height="1" fill="#4c372e"/>
<rect x="1" y="7" width="1" height="1" fill="#4e392e"/>
<rect x="7" y="7" width="2" height="1" fill="#4e392e"/>
<rect x="26" y="7" width="1" height="1" fill="#4e382d"/>
<rect x="6" y="7" width="1" height="1" fill="#4e392f"/>
<rect x="5" y="7" width="1" height="1" fill="#4e392e"/>
<rect x="27" y="7" width="2" height="1" fill="#4e392e"/>
<rect x="26" y="8" width="3" height="1" fill="#4e392e"/>
<rect x="5" y="8" width="3" height="1" fill="#4e392f"/>
<rect x="1" y="8" width="4" height="1" fill="#4e392e"/>
<rect x="29" y="8" width="3" height="1" fill="#44332b"/>
<rect x="8" y="8" width="1" height="2" fill="#4e392e"/>
<rect x="7" y="9" width="1" height="1" fill="#4e392f"/>
<rect x="26" y="9" width="5" height="1" fill="#4e392e"/>
<rect x="1" y="9" width="2" height="1" fill="#4e392e"/>
<rect x="3" y="9" width="1" height="1" fill="#4e392f"/>
<rect x="4" y="9" width="3" height="1" fill="#4e392e"/>
<rect x="0" y="7" width="1" height="4" fill="#4e3a2f"/>
<rect x="1" y="10" width="5" height="1" fill="#4e392e"/>
<rect x="9" y="10" width="1" height="1" fill="#52392e"/>
<rect x="8" y="10" width="1" height="1" fill="#4e392f"/>
<rect x="26" y="10" width="3" height="1" fill="#4e392e"/>
<rect x="10" y="10" width="1" height="1" fill="#543b2e"/>
<rect x="7" y="10" width="1" height="1" fill="#4e392e"/>
<rect x="6" y="10" width="1" height="1" fill="#4e3a2f"/>
<rect x="29" y="10" width="2" height="1" fill="#4e392d"/>
<rect x="25" y="5" width="1" height="7" fill="#52392e"/>
<rect x="31" y="9" width="1" height="3" fill="#4e382d"/>
<rect x="0" y="11" width="9" height="1" fill="#44332b"/>
<rect x="13" y="11" width="1" height="1" fill="#52392e"/>
<rect x="26" y="11" width="5" height="1" fill="#4e392e"/>
<rect x="9" y="11" width="3" height="1" fill="#4c372e"/>
<rect x="12" y="11" width="1" height="1" fill="#4e382d"/>
<rect x="22" y="12" width="2" height="1" fill="#332b29"/>
<rect x="18" y="12" width="4" height="1" fill="#664232"/>
<rect x="24" y="12" width="4" height="1" fill="#362c2a"/>
<rect x="28" y="12" width="4" height="1" fill="#382d2a"/>
<rect x="1" y="12" width="2" height="1" fill="#312a29"/>
<rect x="15" y="12" width="3" height="1" fill="#674332"/>
<rect x="5" y="12" width="1" height="1" fill="#312a29"/>
<rect x="6" y="12" width="7" height="1" fill="#302a29"/>
<rect x="14" y="12" width="1" height="1" fill="#684332"/>
<rect x="3" y="12" width="2" height="1" fill="#302a29"/>
<rect x="15" y="13" width="3" height="1" fill="#684332"/>
<rect x="14" y="13" width="1" height="1" fill="#694332"/>
<rect x="13" y="12" width="1" height="3" fill="#3a2f2c"/>
<rect x="0" y="12" width="1" height="3" fill="#362c2a"/>
<rect x="22" y="13" width="9" height="2" fill="#312a29"/>
<rect x="18" y="13" width="1" height="2" fill="#674332"/>
<rect x="19" y="13" width="2" height="2" fill="#684332"/>
<rect x="31" y="13" width="1" height="2" fill="#302a29"/>
<rect x="1" y="13" width="12" height="2" fill="#312a29"/>
<rect x="21" y="13" width="1" height="3" fill="#664232"/>
<rect x="14" y="14" width="4" height="2" fill="#684332"/>
<rect x="2" y="15" width="8" height="1" fill="#302a29"/>
<rect x="10" y="15" width="3" height="1" fill="#312a29"/>
<rect x="29" y="15" width="1" height="1" fill="#312a29"/>
<rect x="1" y="15" width="1" height="1" fill="#312a29"/>
<rect x="0" y="15" width="1" height="1" fill="#3a2f2c"/>
<rect x="30" y="15" width="2" height="1" fill="#302a29"/>
<rect x="26" y="15" width="3" height="1" fill="#302a29"/>
<rect x="13" y="15" width="1" height="1" fill="#382d2a"/>
<rect x="23" y="15" width="3" height="1" fill="#312a29"/>
<rect x="18" y="15" width="3" height="1" fill="#674332"/>
<rect x="22" y="15" width="1" height="1" fill="#332b29"/>
<rect x="15" y="16" width="1" height="1" fill="#684332"/>
<rect x="9" y="16" width="1" height="1" fill="#3a2f2c"/>
<rect x="5" y="16" width="2" height="1" fill="#4c372e"/>
<rect x="16" y="16" width="2" height="1" fill="#674332"/>
<rect x="26" y="16" width="6" height="1" fill="#44332b"/>
<rect x="18" y="16" width="4" height="1" fill="#6e4533"/>
<rect x="0" y="16" width="1" height="1" fill="#4c372e"/>
<rect x="10" y="16" width="4" height="1" fill="#2c424b"/>
<rect x="7" y="16" width="1" height="1" fill="#44332b"/>
<rect x="8" y="16" width="1" height="1" fill="#4c372e"/>
<rect x="26" y="17" width="1" height="1" fill="#4e382d"/>
<rect x="5" y="17" width="4" height="1" fill="#4e392e"/>
<rect x="15" y="17" width="3" height="1" fill="#674332"/>
<rect x="28" y="17" width="1" height="1" fill="#4e392d"/>
<rect x="27" y="17" width="1" height="1" fill="#4e392e"/>
<rect x="14" y="16" width="1" height="3" fill="#684331"/>
<rect x="29" y="17" width="1" height="2" fill="#4c372e"/>
<rect x="0" y="17" width="1" height="2" fill="#4e392f"/>
<rect x="6" y="18" width="3" height="1" fill="#4e392e"/>
<rect x="26" y="18" width="3" height="1" fill="#4e392e"/>
<rect x="5" y="18" width="1" height="1" fill="#4e392f"/>
<rect x="1" y="16" width="4" height="4" fill="#44332b"/>
<rect x="22" y="16" width="4" height="4" fill="#2c424b"/>
<rect x="9" y="17" width="5" height="3" fill="#2c424b"/>
<rect x="30" y="17" width="2" height="3" fill="#44332b"/>
<rect x="8" y="19" width="1" height="1" fill="#4e392f"/>
<rect x="6" y="19" width="1" height="1" fill="#4e392f"/>
<rect x="7" y="19" width="1" height="1" fill="#4e3a2f"/>
<rect x="26" y="19" width="4" height="1" fill="#4c372e"/>
<rect x="5" y="19" width="1" height="1" fill="#4e392e"/>
<rect x="18" y="17" width="4" height="4" fill="#704633"/>
<rect x="15" y="18" width="3" height="3" fill="#684332"/>
<rect x="0" y="19" width="1" height="2" fill="#4d3c33"/>
<rect x="5" y="20" width="4" height="1" fill="#724839"/>
<rect x="22" y="20" width="3" height="1" fill="#2c424b"/>
<rect x="9" y="20" width="1" height="1" fill="#445960"/>
<rect x="1" y="20" width="3" height="1" fill="#44332b"/>
<rect x="10" y="20" width="4" height="1" fill="#2c424b"/>
<rect x="25" y="20" width="1" height="1" fill="#445960"/>
<rect x="30" y="20" width="2" height="1" fill="#4c372e"/>
<rect x="4" y="20" width="1" height="1" fill="#4c372e"/>
<rect x="1" y="21" width="1" height="1" fill="#4e392d"/>
<rect x="2" y="21" width="2" height="1" fill="#4e392e"/>
<rect x="15" y="21" width="2" height="1" fill="#684332"/>
<rect x="14" y="19" width="1" height="4" fill="#674332"/>
<rect x="15" y="22" width="1" height="1" fill="#684332"/>
<rect x="1" y="22" width="2" height="1" fill="#4e392e"/>
<rect x="3" y="22" width="1" height="1" fill="#4e392f"/>
<rect x="16" y="22" width="1" height="1" fill="#664232"/>
<rect x="26" y="20" width="4" height="4" fill="#cccccb"/>
<rect x="30" y="21" width="1" height="3" fill="#4e382d"/>
<rect x="31" y="21" width="1" height="3" fill="#4e392d"/>
<rect x="22" y="21" width="4" height="3" fill="#445960"/>
<rect x="17" y="21" width="1" height="3" fill="#674332"/>
<rect x="2" y="23" width="1" height="1" fill="#4e392f"/>
<rect x="1" y="23" width="1" height="1" fill="#4e382d"/>
<rect x="3" y="23" width="1" height="1" fill="#4e392e"/>
<rect x="18" y="21" width="1" height="4" fill="#6e4533"/>
<rect x="4" y="21" width="1" height="4" fill="#5b463e"/>
<rect x="10" y="21" width="4" height="4" fill="#445960"/>
<rect x="19" y="21" width="3" height="4" fill="#704633"/>
<rect x="0" y="21" width="1" height="4" fill="#544137"/>
<rect x="5" y="21" width="5" height="4" fill="#cccccb"/>
<rect x="15" y="23" width="2" height="2" fill="#684332"/>
<rect x="14" y="23" width="1" height="2" fill="#664232"/>
<rect x="26" y="24" width="4" height="1" fill="#724839"/>
<rect x="31" y="24" width="1" height="1" fill="#694332"/>
<rect x="17" y="24" width="1" height="1" fill="#694332"/>
<rect x="1" y="24" width="3" height="1" fill="#4e392e"/>
<rect x="22" y="24" width="4" height="1" fill="#4c4c4b"/>
<rect x="30" y="24" width="1" height="1" fill="#674332"/>
<rect x="5" y="25" width="1" height="1" fill="#cccccb"/>
<rect x="30" y="25" width="1" height="1" fill="#6d4634"/>
<rect x="0" y="25" width="1" height="1" fill="#5b463e"/>
<rect x="1" y="25" width="3" height="1" fill="#5a3e31"/>
<rect x="22" y="25" width="1" height="1" fill="#704633"/>
<rect x="4" y="25" width="1" height="1" fill="#674332"/>
<rect x="31" y="25" width="1" height="1" fill="#6e4533"/>
<rect x="10" y="25" width="2" height="1" fill="#5b463e"/>
<rect x="6" y="25" width="4" height="1" fill="#724839"/>
<rect x="24" y="25" width="1" height="1" fill="#6d4634"/>
<rect x="29" y="25" width="1" height="1" fill="#6e4533"/>
<rect x="25" y="25" width="2" height="1" fill="#6d4633"/>
<rect x="12" y="25" width="2" height="1" fill="#674332"/>
<rect x="27" y="25" width="2" height="1" fill="#6d4634"/>
<rect x="23" y="25" width="1" height="1" fill="#6d4633"/>
<rect x="7" y="26" width="1" height="1" fill="#6e4533"/>
<rect x="3" y="26" width="4" height="1" fill="#6d4634"/>
<rect x="1" y="26" width="1" height="1" fill="#6d4634"/>
<rect x="2" y="26" width="1" height="1" fill="#6e4533"/>
<rect x="8" y="26" width="6" height="1" fill="#6d4634"/>
<rect x="22" y="26" width="10" height="1" fill="#6d4634"/>
<rect x="14" y="25" width="8" height="3" fill="#724839"/>
<rect x="27" y="27" width="1" height="1" fill="#6e4533"/>
<rect x="5" y="27" width="1" height="1" fill="#6e4533"/>
<rect x="28" y="27" width="3" height="1" fill="#6d4634"/>
<rect x="22" y="27" width="1" height="1" fill="#704633"/>
<rect x="6" y="27" width="5" height="1" fill="#6d4634"/>
<rect x="31" y="27" width="1" height="1" fill="#6d4633"/>
<rect x="23" y="27" width="4" height="1" fill="#6d4634"/>
<rect x="2" y="27" width="3" height="1" fill="#6d4634"/>
<rect x="11" y="27" width="1" height="2" fill="#6d4633"/>
<rect x="1" y="27" width="1" height="2" fill="#6e4533"/>
<rect x="12" y="27" width="2" height="2" fill="#6d4634"/>
<rect x="14" y="28" width="7" height="1" fill="#724839"/>
<rect x="26" y="28" width="1" height="1" fill="#6d4633"/>
<rect x="27" y="28" width="5" height="1" fill="#694332"/>
<rect x="2" y="28" width="9" height="1" fill="#6d4634"/>
<rect x="21" y="28" width="5" height="1" fill="#6d4634"/>
<rect x="20" y="29" width="2" height="1" fill="#4e382d"/>
<rect x="1" y="29" width="12" height="1" fill="#6d4634"/>
<rect x="17" y="29" width="1" height="1" fill="#543b2e"/>
<rect x="14" y="29" width="3" height="1" fill="#5a3e31"/>
<rect x="13" y="29" width="1" height="1" fill="#6e4533"/>
<rect x="25" y="29" width="1" height="1" fill="#6e4533"/>
<rect x="18" y="29" width="2" height="1" fill="#52392e"/>
<rect x="23" y="29" width="2" height="1" fill="#6d4634"/>
<rect x="27" y="29" width="5" height="2" fill="#684332"/>
<rect x="4" y="30" width="5" height="1" fill="#684332"/>
<rect x="1" y="30" width="3" height="1" fill="#694332"/>
<rect x="0" y="26" width="1" height="6" fill="#724839"/>
<rect x="22" y="29" width="1" height="3" fill="#5a3e31"/>
<rect x="26" y="29" width="1" height="3" fill="#694332"/>
<rect x="10" y="30" width="4" height="2" fill="#6d4634"/>
<rect x="14" y="30" width="1" height="2" fill="#52392e"/>
<rect x="9" y="30" width="1" height="2" fill="#694332"/>
<rect x="15" y="30" width="7" height="2" fill="#4c372e"/>
<rect x="23" y="30" width="3" height="2" fill="#6d4634"/>
<rect x="31" y="31" width="1" height="1" fill="#694332"/>
<rect x="27" y="31" width="2" height="1" fill="#684332"/>
<rect x="30" y="31" width="1" height="1" fill="#684332"/>
<rect x="1" y="31" width="8" height="1" fill="#684332"/>
<rect x="29" y="31" width="1" height="1" fill="#684331"/>
</svg>