<?xml version="1.0" encoding="UTF-8"?>
<svg xmlns="http://www.w3.org/2000/svg" width="20mm" height="20mm" viewBox="0 0 32 32" shape-rendering="crispEdges">
<title>145 正面 structured semantic redraw</title>
<metadata>registered 32-unit semantic vector redraw; no embedded raster; physical-size=20mm</metadata>
<rect x="0" y="0" width="32" height="32" fill="#757575"/>
<rect x="12" y="0" width="5" height="1" fill="#d2dddd"/>
<rect x="9" y="0" width="2" height="1" fill="#9ea3a3"/>
<rect x="18" y="0" width="3" height="1" fill="#d5e3e3"/>
<rect x="17" y="0" width="1" height="1" fill="#e2e3e3"/>
<rect x="26" y="0" width="2" height="1" fill="#d5e3e3"/>
<rect x="23" y="0" width="1" height="1" fill="#838383"/>
<rect x="5" y="0" width="2" height="1" fill="#d5e3e3"/>
<rect x="31" y="0" width="1" height="1" fill="#737373"/>
<rect x="28" y="0" width="1" height="1" fill="#9ea3a3"/>
<rect x="30" y="0" width="1" height="1" fill="#9ea3a3"/>
<rect x="7" y="0" width="1" height="1" fill="#e2e3e3"/>
<rect x="21" y="0" width="1" height="1" fill="#d2dddd"/>
<rect x="29" y="0" width="1" height="1" fill="#6b6b6b"/>
<rect x="25" y="0" width="1" height="2" fill="#e2e3e3"/>
<rect x="24" y="0" width="1" height="2" fill="#c3cbcb"/>
<rect x="27" y="1" width="1" height="1" fill="#c3cbcb"/>
<rect x="29" y="1" width="1" height="1" fill="#707070"/>
<rect x="20" y="1" width="2" height="1" fill="#d2dddd"/>
<rect x="31" y="1" width="1" height="1" fill="#6b6b6b"/>
<rect x="30" y="1" width="1" height="1" fill="#737373"/>
<rect x="10" y="1" width="1" height="1" fill="#838383"/>
<rect x="15" y="1" width="1" height="1" fill="#d2dddd"/>
<rect x="16" y="1" width="4" height="1" fill="#d5e3e3"/>
<rect x="26" y="1" width="1" height="1" fill="#d2dddd"/>
<rect x="13" y="1" width="2" height="1" fill="#c3cbcb"/>
<rect x="12" y="1" width="1" height="1" fill="#d2dddd"/>
<rect x="9" y="1" width="1" height="1" fill="#6e6e6e"/>
<rect x="28" y="1" width="1" height="1" fill="#888a8a"/>
<rect x="0" y="0" width="5" height="3" fill="#e2e3e3"/>
<rect x="8" y="0" width="1" height="3" fill="#d2dddd"/>
<rect x="22" y="0" width="1" height="3" fill="#9ea3a3"/>
<rect x="5" y="1" width="3" height="2" fill="#d5e3e3"/>
<rect x="31" y="2" width="1" height="1" fill="#6d6d6d"/>
<rect x="29" y="2" width="1" height="1" fill="#747474"/>
<rect x="15" y="2" width="2" height="1" fill="#e2e3e3"/>
<rect x="21" y="2" width="1" height="1" fill="#c3cbcb"/>
<rect x="17" y="2" width="3" height="1" fill="#d5e3e3"/>
<rect x="14" y="2" width="1" height="1" fill="#9ea3a3"/>
<rect x="25" y="2" width="1" height="1" fill="#7b7b7b"/>
<rect x="20" y="2" width="1" height="1" fill="#d2dddd"/>
<rect x="28" y="2" width="1" height="1" fill="#757474"/>
<rect x="23" y="2" width="1" height="1" fill="#7d7d7d"/>
<rect x="24" y="2" width="1" height="1" fill="#838383"/>
<rect x="30" y="2" width="1" height="1" fill="#757474"/>
<rect x="26" y="2" width="1" height="1" fill="#747474"/>
<rect x="9" y="2" width="1" height="1" fill="#787878"/>
<rect x="11" y="0" width="1" height="4" fill="#d5e3e3"/>
<rect x="10" y="2" width="1" height="2" fill="#888a8a"/>
<rect x="12" y="2" width="1" height="2" fill="#c3cbcb"/>
<rect x="0" y="3" width="2" height="1" fill="#e2e3e3"/>
<rect x="17" y="3" width="1" height="1" fill="#9ea3a3"/>
<rect x="2" y="3" width="2" height="1" fill="#c3cbcb"/>
<rect x="18" y="3" width="1" height="1" fill="#c3cbcb"/>
<rect x="13" y="3" width="1" height="1" fill="#747474"/>
<rect x="23" y="3" width="1" height="1" fill="#838383"/>
<rect x="27" y="3" width="1" height="1" fill="#767676"/>
<rect x="25" y="3" width="1" height="1" fill="#6c6c6c"/>
<rect x="24" y="3" width="1" height="1" fill="#7a7a7a"/>
<rect x="30" y="3" width="1" height="1" fill="#7a7a7a"/>
<rect x="21" y="3" width="2" height="1" fill="#828282"/>
<rect x="16" y="3" width="1" height="1" fill="#d2dddd"/>
<rect x="29" y="3" width="1" height="1" fill="#777777"/>
<rect x="26" y="3" width="1" height="1" fill="#707070"/>
<rect x="5" y="3" width="3" height="1" fill="#d2dddd"/>
<rect x="8" y="3" width="1" height="1" fill="#c3cbcb"/>
<rect x="19" y="3" width="1" height="2" fill="#d5e3e3"/>
<rect x="4" y="3" width="1" height="2" fill="#d5e3e3"/>
<rect x="31" y="3" width="1" height="2" fill="#6f6f6f"/>
<rect x="9" y="3" width="1" height="2" fill="#838383"/>
<rect x="14" y="3" width="1" height="2" fill="#888a8a"/>
<rect x="20" y="3" width="1" height="2" fill="#c3cbcb"/>
<rect x="21" y="4" width="1" height="1" fill="#838383"/>
<rect x="13" y="4" width="1" height="1" fill="#6d6d6d"/>
<rect x="12" y="4" width="1" height="1" fill="#888a8a"/>
<rect x="27" y="4" width="1" height="1" fill="#6e6e6e"/>
<rect x="18" y="4" width="1" height="1" fill="#9ea3a3"/>
<rect x="22" y="4" width="1" height="1" fill="#818181"/>
<rect x="5" y="4" width="4" height="1" fill="#d2dddd"/>
<rect x="23" y="4" width="1" height="1" fill="#7d7d7d"/>
<rect x="17" y="4" width="1" height="1" fill="#818181"/>
<rect x="2" y="4" width="1" height="1" fill="#747474"/>
<rect x="28" y="4" width="1" height="1" fill="#717171"/>
<rect x="25" y="4" width="2" height="1" fill="#686868"/>
<rect x="11" y="4" width="1" height="1" fill="#9ea3a3"/>
<rect x="10" y="4" width="1" height="1" fill="#818181"/>
<rect x="15" y="3" width="1" height="3" fill="#e2e3e3"/>
<rect x="1" y="4" width="1" height="2" fill="#c3cbcb"/>
<rect x="0" y="4" width="1" height="2" fill="#d5e3e3"/>
<rect x="30" y="4" width="1" height="2" fill="#818181"/>
<rect x="29" y="4" width="1" height="2" fill="#828282"/>
<rect x="16" y="4" width="1" height="2" fill="#c3cbcb"/>
<rect x="3" y="4" width="1" height="2" fill="#9ea3a3"/>
<rect x="31" y="5" width="1" height="1" fill="#6d6d6d"/>
<rect x="12" y="5" width="1" height="1" fill="#747474"/>
<rect x="9" y="5" width="1" height="1" fill="#767676"/>
<rect x="5" y="5" width="1" height="1" fill="#9ea3a3"/>
<rect x="17" y="5" width="1" height="1" fill="#7d7d7d"/>
<rect x="10" y="5" width="1" height="1" fill="#6d6d6d"/>
<rect x="26" y="5" width="1" height="1" fill="#656565"/>
<rect x="27" y="5" width="1" height="1" fill="#6c6c6c"/>
<rect x="4" y="5" width="1" height="1" fill="#c3cbcb"/>
<rect x="21" y="5" width="2" height="1" fill="#656565"/>
<rect x="19" y="5" width="1" height="1" fill="#9ea3a3"/>
<rect x="13" y="5" width="1" height="1" fill="#6c6c6c"/>
<rect x="20" y="5" width="1" height="1" fill="#838383"/>
<rect x="6" y="5" width="1" height="1" fill="#888a8a"/>
<rect x="18" y="5" width="1" height="1" fill="#888a8a"/>
<rect x="25" y="5" width="1" height="1" fill="#636363"/>
<rect x="23" y="5" width="1" height="1" fill="#6c6c6c"/>
<rect x="24" y="5" width="1" height="1" fill="#6b6b6b"/>
<rect x="14" y="5" width="1" height="1" fill="#818181"/>
<rect x="28" y="5" width="1" height="1" fill="#6e6e6e"/>
<rect x="8" y="5" width="1" height="2" fill="#e2e3e3"/>
<rect x="7" y="5" width="1" height="2" fill="#c3cbcb"/>
<rect x="28" y="6" width="1" height="1" fill="#727272"/>
<rect x="23" y="6" width="2" height="1" fill="#6c6c6c"/>
<rect x="27" y="6" width="1" height="1" fill="#707070"/>
<rect x="31" y="6" width="1" height="1" fill="#6e6d6d"/>
<rect x="5" y="6" width="1" height="1" fill="#6f6f6f"/>
<rect x="13" y="6" width="1" height="1" fill="#717171"/>
<rect x="22" y="6" width="1" height="1" fill="#656565"/>
<rect x="15" y="6" width="1" height="1" fill="#828282"/>
<rect x="9" y="6" width="1" height="1" fill="#7a7a7a"/>
<rect x="17" y="6" width="3" height="1" fill="#6c6c6c"/>
<rect x="6" y="6" width="1" height="1" fill="#6c6c6c"/>
<rect x="10" y="6" width="1" height="1" fill="#6e6e6e"/>
<rect x="14" y="6" width="1" height="1" fill="#767676"/>
<rect x="0" y="6" width="1" height="1" fill="#888a8a"/>
<rect x="25" y="6" width="1" height="1" fill="#656565"/>
<rect x="21" y="6" width="1" height="1" fill="#636363"/>
<rect x="20" y="6" width="1" height="1" fill="#6b6b6b"/>
<rect x="29" y="6" width="1" height="1" fill="#777777"/>
<rect x="26" y="6" width="1" height="1" fill="#686868"/>
<rect x="16" y="6" width="1" height="1" fill="#777777"/>
<rect x="1" y="6" width="1" height="1" fill="#7b7d7d"/>
<rect x="2" y="7" width="1" height="1" fill="#767676"/>
<rect x="20" y="7" width="1" height="1" fill="#6c6c6c"/>
<rect x="16" y="7" width="1" height="1" fill="#747474"/>
<rect x="5" y="7" width="1" height="1" fill="#717171"/>
<rect x="11" y="7" width="1" height="1" fill="#767676"/>
<rect x="21" y="7" width="1" height="1" fill="#686868"/>
<rect x="31" y="7" width="1" height="1" fill="#6f6f6f"/>
<rect x="19" y="7" width="1" height="1" fill="#6d6d6d"/>
<rect x="8" y="7" width="1" height="1" fill="#888a8a"/>
<rect x="1" y="7" width="1" height="1" fill="#6f6f6f"/>
<rect x="9" y="7" width="1" height="1" fill="#777777"/>
<rect x="23" y="7" width="1" height="1" fill="#747474"/>
<rect x="6" y="7" width="1" height="1" fill="#6f6f6f"/>
<rect x="18" y="7" width="1" height="1" fill="#6c6c6c"/>
<rect x="0" y="7" width="1" height="1" fill="#6e6e6e"/>
<rect x="25" y="7" width="3" height="1" fill="#767676"/>
<rect x="7" y="7" width="1" height="1" fill="#9ea3a3"/>
<rect x="4" y="7" width="1" height="1" fill="#767676"/>
<rect x="22" y="7" width="1" height="1" fill="#6b6b6b"/>
<rect x="17" y="7" width="1" height="2" fill="#6d6d6d"/>
<rect x="30" y="7" width="1" height="2" fill="#737373"/>
<rect x="24" y="8" width="5" height="1" fill="#767676"/>
<rect x="2" y="8" width="1" height="1" fill="#7f7f7f"/>
<rect x="3" y="8" width="1" height="1" fill="#7b7b7b"/>
<rect x="21" y="8" width="1" height="1" fill="#6d6d6d"/>
<rect x="1" y="8" width="1" height="1" fill="#767676"/>
<rect x="0" y="8" width="1" height="1" fill="#727272"/>
<rect x="4" y="8" width="5" height="1" fill="#767676"/>
<rect x="14" y="8" width="1" height="1" fill="#7a7a7a"/>
<rect x="22" y="8" width="1" height="1" fill="#6c6c6c"/>
<rect x="18" y="8" width="3" height="1" fill="#6c6c6c"/>
<rect x="13" y="8" width="1" height="1" fill="#787878"/>
<rect x="15" y="8" width="2" height="1" fill="#7d7d7d"/>
<rect x="31" y="8" width="1" height="2" fill="#717171"/>
<rect x="3" y="9" width="1" height="1" fill="#7d7d7d"/>
<rect x="1" y="9" width="1" height="1" fill="#7a7a7a"/>
<rect x="6" y="9" width="1" height="1" fill="#777777"/>
<rect x="8" y="9" width="1" height="1" fill="#7b7b7b"/>
<rect x="4" y="9" width="2" height="1" fill="#767676"/>
<rect x="25" y="9" width="1" height="1" fill="#747474"/>
<rect x="0" y="9" width="1" height="1" fill="#777777"/>
<rect x="17" y="9" width="1" height="1" fill="#6e6e6e"/>
<rect x="2" y="9" width="1" height="1" fill="#838383"/>
<rect x="21" y="9" width="1" height="1" fill="#6c6c6c"/>
<rect x="23" y="9" width="1" height="1" fill="#717171"/>
<rect x="20" y="9" width="1" height="1" fill="#6d6d6d"/>
<rect x="14" y="9" width="2" height="1" fill="#838383"/>
<rect x="7" y="9" width="1" height="1" fill="#7a7a7a"/>
<rect x="9" y="9" width="1" height="1" fill="#7d7d7d"/>
<rect x="10" y="9" width="1" height="1" fill="#7f7f7f"/>
<rect x="27" y="9" width="2" height="1" fill="#767676"/>
<rect x="22" y="9" width="1" height="1" fill="#6d6d6d"/>
<rect x="24" y="9" width="1" height="1" fill="#707070"/>
<rect x="11" y="9" width="1" height="1" fill="#707070"/>
<rect x="30" y="9" width="1" height="1" fill="#747474"/>
<rect x="16" y="9" width="1" height="1" fill="#828282"/>
<rect x="18" y="9" width="2" height="1" fill="#6c6c6c"/>
<rect x="13" y="9" width="1" height="2" fill="#7f7f7f"/>
<rect x="12" y="9" width="1" height="2" fill="#6d6d6d"/>
<rect x="8" y="10" width="1" height="1" fill="#828282"/>
<rect x="28" y="10" width="1" height="1" fill="#767676"/>
<rect x="24" y="10" width="1" height="1" fill="#6c6c6c"/>
<rect x="3" y="10" width="1" height="1" fill="#787878"/>
<rect x="17" y="10" width="2" height="1" fill="#727272"/>
<rect x="30" y="10" width="1" height="1" fill="#737373"/>
<rect x="5" y="10" width="1" height="1" fill="#7b7b7b"/>
<rect x="15" y="10" width="2" height="1" fill="#7f7f7f"/>
<rect x="19" y="10" width="1" height="1" fill="#6d6d6d"/>
<rect x="23" y="10" width="1" height="1" fill="#6d6d6d"/>
<rect x="6" y="10" width="2" height="1" fill="#838383"/>
<rect x="1" y="10" width="1" height="1" fill="#767676"/>
<rect x="31" y="10" width="1" height="1" fill="#767575"/>
<rect x="2" y="10" width="1" height="1" fill="#7b7b7b"/>
<rect x="14" y="10" width="1" height="1" fill="#818181"/>
<rect x="9" y="10" width="2" height="1" fill="#838383"/>
<rect x="4" y="10" width="1" height="1" fill="#767676"/>
<rect x="11" y="10" width="1" height="1" fill="#717171"/>
<rect x="20" y="10" width="3" height="2" fill="#6c6c6c"/>
<rect x="25" y="10" width="1" height="2" fill="#737373"/>
<rect x="11" y="11" width="1" height="1" fill="#6e6e6e"/>
<rect x="5" y="11" width="1" height="1" fill="#7d7d7d"/>
<rect x="26" y="11" width="1" height="1" fill="#767676"/>
<rect x="17" y="11" width="2" height="1" fill="#767676"/>
<rect x="14" y="11" width="1" height="1" fill="#6d6d6d"/>
<rect x="6" y="11" width="1" height="1" fill="#838383"/>
<rect x="2" y="11" width="3" height="1" fill="#767676"/>
<rect x="29" y="11" width="1" height="1" fill="#727272"/>
<rect x="13" y="11" width="1" height="1" fill="#6f6f6f"/>
<rect x="1" y="11" width="1" height="1" fill="#6f6f6f"/>
<rect x="8" y="11" width="1" height="1" fill="#7f7f7f"/>
<rect x="31" y="11" width="1" height="1" fill="#727272"/>
<rect x="15" y="11" width="1" height="1" fill="#747474"/>
<rect x="0" y="11" width="1" height="1" fill="#6e6e6e"/>
<rect x="19" y="11" width="1" height="1" fill="#6e6e6e"/>
<rect x="7" y="11" width="1" height="1" fill="#828282"/>
<rect x="10" y="11" width="1" height="1" fill="#767676"/>
<rect x="23" y="11" width="2" height="1" fill="#6d6d6d"/>
<rect x="9" y="11" width="1" height="1" fill="#7b7b7b"/>
<rect x="12" y="11" width="1" height="2" fill="#6c6c6c"/>
<rect x="30" y="11" width="1" height="2" fill="#6b6b6b"/>
<rect x="3" y="12" width="1" height="1" fill="#717171"/>
<rect x="5" y="12" width="1" height="1" fill="#6b6b6b"/>
<rect x="13" y="12" width="1" height="1" fill="#6d6d6d"/>
<rect x="24" y="12" width="1" height="1" fill="#767676"/>
<rect x="31" y="12" width="1" height="1" fill="#707070"/>
<rect x="0" y="12" width="2" height="1" fill="#6e6e6e"/>
<rect x="29" y="12" width="1" height="1" fill="#737373"/>
<rect x="6" y="12" width="1" height="1" fill="#686868"/>
<rect x="22" y="12" width="2" height="1" fill="#747474"/>
<rect x="17" y="12" width="1" height="1" fill="#767676"/>
<rect x="21" y="12" width="1" height="1" fill="#727272"/>
<rect x="14" y="12" width="1" height="1" fill="#6c6c6c"/>
<rect x="18" y="12" width="1" height="1" fill="#787878"/>
<rect x="2" y="12" width="1" height="1" fill="#747474"/>
<rect x="4" y="12" width="1" height="1" fill="#6c6c6c"/>
<rect x="20" y="12" width="1" height="1" fill="#717171"/>
<rect x="7" y="12" width="1" height="1" fill="#6b6b6b"/>
<rect x="19" y="12" width="1" height="1" fill="#727272"/>
<rect x="11" y="12" width="1" height="1" fill="#686868"/>
<rect x="15" y="12" width="1" height="1" fill="#737373"/>
<rect x="8" y="12" width="1" height="1" fill="#6d6d6d"/>
<rect x="9" y="12" width="1" height="2" fill="#656565"/>
<rect x="10" y="12" width="1" height="2" fill="#636363"/>
<rect x="17" y="13" width="1" height="1" fill="#828282"/>
<rect x="1" y="13" width="1" height="1" fill="#6d6d6d"/>
<rect x="2" y="13" width="1" height="1" fill="#6c6c6c"/>
<rect x="4" y="13" width="3" height="1" fill="#636363"/>
<rect x="14" y="13" width="1" height="1" fill="#7a7a7a"/>
<rect x="26" y="13" width="1" height="1" fill="#767676"/>
<rect x="18" y="13" width="1" height="1" fill="#838383"/>
<rect x="12" y="13" width="1" height="1" fill="#6f6f6f"/>
<rect x="23" y="13" width="2" height="1" fill="#767676"/>
<rect x="8" y="13" width="1" height="1" fill="#6c6c6c"/>
<rect x="28" y="13" width="2" height="1" fill="#787878"/>
<rect x="31" y="13" width="1" height="1" fill="#727272"/>
<rect x="21" y="13" width="1" height="1" fill="#767676"/>
<rect x="16" y="13" width="1" height="1" fill="#818181"/>
<rect x="0" y="13" width="1" height="1" fill="#6f6f6f"/>
<rect x="27" y="13" width="1" height="1" fill="#777777"/>
<rect x="7" y="13" width="1" height="1" fill="#686868"/>
<rect x="11" y="13" width="1" height="1" fill="#6b6b6b"/>
<rect x="30" y="13" width="1" height="1" fill="#707070"/>
<rect x="15" y="13" width="1" height="1" fill="#7f7f7f"/>
<rect x="3" y="13" width="1" height="1" fill="#686868"/>
<rect x="19" y="13" width="1" height="2" fill="#7a7a7a"/>
<rect x="21" y="14" width="1" height="1" fill="#777777"/>
<rect x="20" y="14" width="1" height="1" fill="#767676"/>
<rect x="31" y="14" width="1" height="1" fill="#747474"/>
<rect x="7" y="14" width="1" height="1" fill="#737373"/>
<rect x="14" y="14" width="1" height="1" fill="#828282"/>
<rect x="8" y="14" width="1" height="1" fill="#7b7b7b"/>
<rect x="26" y="14" width="1" height="1" fill="#818181"/>
<rect x="6" y="14" width="1" height="1" fill="#6b6b6b"/>
<rect x="15" y="14" width="1" height="1" fill="#838383"/>
<rect x="29" y="14" width="1" height="1" fill="#818181"/>
<rect x="1" y="14" width="1" height="1" fill="#6c6c6c"/>
<rect x="25" y="14" width="1" height="1" fill="#7f7f7f"/>
<rect x="2" y="14" width="1" height="1" fill="#6d6d6d"/>
<rect x="23" y="14" width="1" height="1" fill="#7b7b7b"/>
<rect x="0" y="14" width="1" height="1" fill="#6e6e6e"/>
<rect x="17" y="14" width="2" height="1" fill="#838383"/>
<rect x="22" y="14" width="1" height="1" fill="#7a7a7a"/>
<rect x="24" y="14" width="1" height="1" fill="#7d7d7d"/>
<rect x="9" y="14" width="1" height="1" fill="#787878"/>
<rect x="4" y="14" width="2" height="1" fill="#686868"/>
<rect x="16" y="14" width="1" height="1" fill="#828282"/>
<rect x="3" y="14" width="1" height="1" fill="#6b6b6b"/>
<rect x="13" y="14" width="1" height="2" fill="#7d7d7d"/>
<rect x="28" y="14" width="1" height="2" fill="#838383"/>
<rect x="27" y="14" width="1" height="2" fill="#828282"/>
<rect x="2" y="15" width="1" height="1" fill="#7f7f7f"/>
<rect x="18" y="15" width="1" height="1" fill="#7a7a7a"/>
<rect x="17" y="15" width="1" height="1" fill="#7d7d7d"/>
<rect x="0" y="15" width="1" height="1" fill="#7a7a7a"/>
<rect x="21" y="15" width="1" height="1" fill="#7b7b7b"/>
<rect x="1" y="15" width="1" height="1" fill="#7b7b7b"/>
<rect x="4" y="15" width="1" height="1" fill="#828282"/>
<rect x="3" y="15" width="1" height="1" fill="#818181"/>
<rect x="31" y="15" width="1" height="1" fill="#727272"/>
<rect x="24" y="15" width="3" height="1" fill="#838383"/>
<rect x="29" y="15" width="1" height="1" fill="#828282"/>
<rect x="9" y="15" width="1" height="1" fill="#7b7b7b"/>
<rect x="19" y="15" width="1" height="1" fill="#767676"/>
<rect x="8" y="15" width="1" height="1" fill="#838383"/>
<rect x="7" y="15" width="1" height="1" fill="#7b7b7b"/>
<rect x="14" y="15" width="3" height="2" fill="#838383"/>
<rect x="23" y="15" width="1" height="2" fill="#828282"/>
<rect x="6" y="15" width="1" height="2" fill="#767676"/>
<rect x="10" y="15" width="1" height="2" fill="#767676"/>
<rect x="22" y="15" width="1" height="2" fill="#838383"/>
<rect x="21" y="16" width="1" height="1" fill="#7a7a7a"/>
<rect x="29" y="16" width="1" height="1" fill="#717171"/>
<rect x="13" y="16" width="1" height="1" fill="#828282"/>
<rect x="24" y="16" width="1" height="1" fill="#818181"/>
<rect x="8" y="16" width="1" height="1" fill="#7f7f7f"/>
<rect x="12" y="16" width="1" height="1" fill="#818181"/>
<rect x="9" y="16" width="1" height="1" fill="#7a7a7a"/>
<rect x="0" y="16" width="5" height="1" fill="#838383"/>
<rect x="25" y="16" width="1" height="1" fill="#7f7f7f"/>
<rect x="7" y="16" width="1" height="1" fill="#7a7a7a"/>
<rect x="30" y="16" width="1" height="1" fill="#6d6d6d"/>
<rect x="26" y="16" width="1" height="1" fill="#7b7b7b"/>
<rect x="27" y="16" width="1" height="1" fill="#777777"/>
<rect x="5" y="15" width="1" height="3" fill="#7d7d7d"/>
<rect x="11" y="16" width="1" height="2" fill="#7b7b7b"/>
<rect x="31" y="16" width="1" height="2" fill="#6b6b6b"/>
<rect x="17" y="16" width="1" height="2" fill="#7b7b7b"/>
<rect x="19" y="16" width="1" height="2" fill="#747474"/>
<rect x="6" y="17" width="2" height="1" fill="#767676"/>
<rect x="22" y="17" width="1" height="1" fill="#787878"/>
<rect x="24" y="17" width="1" height="1" fill="#767676"/>
<rect x="25" y="17" width="1" height="1" fill="#747474"/>
<rect x="26" y="17" width="5" height="1" fill="#6c6c6c"/>
<rect x="0" y="17" width="1" height="1" fill="#838383"/>
<rect x="2" y="17" width="2" height="1" fill="#7d7d7d"/>
<rect x="23" y="17" width="1" height="1" fill="#777777"/>
<rect x="12" y="17" width="4" height="1" fill="#838383"/>
<rect x="21" y="17" width="1" height="1" fill="#727272"/>
<rect x="1" y="17" width="1" height="1" fill="#7f7f7f"/>
<rect x="20" y="17" width="1" height="1" fill="#707070"/>
<rect x="16" y="17" width="1" height="1" fill="#828282"/>
<rect x="4" y="17" width="1" height="2" fill="#838383"/>
<rect x="29" y="18" width="1" height="1" fill="#6e6e6e"/>
<rect x="31" y="18" width="1" height="1" fill="#747474"/>
<rect x="14" y="18" width="1" height="1" fill="#6d6d6d"/>
<rect x="17" y="18" width="1" height="1" fill="#707070"/>
<rect x="16" y="18" width="1" height="1" fill="#6e6e6e"/>
<rect x="13" y="18" width="1" height="1" fill="#717171"/>
<rect x="27" y="18" width="1" height="1" fill="#6c6c6c"/>
<rect x="5" y="18" width="1" height="1" fill="#7f7f7f"/>
<rect x="10" y="18" width="1" height="1" fill="#747474"/>
<rect x="28" y="18" width="1" height="1" fill="#6d6d6d"/>
<rect x="15" y="18" width="1" height="1" fill="#6b6b6b"/>
<rect x="26" y="18" width="1" height="1" fill="#6d6d6d"/>
<rect x="11" y="18" width="2" height="1" fill="#767676"/>
<rect x="3" y="18" width="1" height="1" fill="#7a7a7a"/>
<rect x="6" y="18" width="3" height="1" fill="#767676"/>
<rect x="19" y="18" width="1" height="1" fill="#727272"/>
<rect x="30" y="18" width="1" height="1" fill="#717171"/>
<rect x="20" y="18" width="1" height="2" fill="#6c6c6c"/>
<rect x="21" y="18" width="1" height="2" fill="#6e6e6e"/>
<rect x="0" y="18" width="1" height="2" fill="#787878"/>
<rect x="15" y="19" width="1" height="1" fill="#656565"/>
<rect x="3" y="19" width="1" height="1" fill="#787878"/>
<rect x="7" y="19" width="1" height="1" fill="#737373"/>
<rect x="5" y="19" width="1" height="1" fill="#787878"/>
<rect x="8" y="19" width="1" height="1" fill="#6e6e6e"/>
<rect x="16" y="19" width="1" height="1" fill="#6c6c6c"/>
<rect x="17" y="19" width="1" height="1" fill="#6f6f6f"/>
<rect x="27" y="19" width="1" height="1" fill="#7f7f7f"/>
<rect x="19" y="19" width="1" height="1" fill="#747474"/>
<rect x="4" y="19" width="1" height="1" fill="#7d7d7d"/>
<rect x="9" y="19" width="1" height="1" fill="#6d6d6d"/>
<rect x="10" y="19" width="1" height="1" fill="#6c6c6c"/>
<rect x="12" y="19" width="3" height="1" fill="#636363"/>
<rect x="25" y="19" width="2" height="1" fill="#7d7d7d"/>
<rect x="30" y="19" width="1" height="1" fill="#7d7d7d"/>
<rect x="28" y="19" width="1" height="1" fill="#787878"/>
<rect x="24" y="19" width="1" height="1" fill="#7b7b7b"/>
<rect x="31" y="19" width="1" height="2" fill="#818181"/>
<rect x="11" y="19" width="1" height="2" fill="#686868"/>
<rect x="30" y="20" width="1" height="1" fill="#7b7b7b"/>
<rect x="16" y="20" width="1" height="1" fill="#707070"/>
<rect x="25" y="20" width="1" height="1" fill="#838383"/>
<rect x="7" y="20" width="1" height="1" fill="#727272"/>
<rect x="13" y="20" width="2" height="1" fill="#656565"/>
<rect x="1" y="20" width="1" height="1" fill="#686868"/>
<rect x="24" y="20" width="1" height="1" fill="#818181"/>
<rect x="29" y="20" width="1" height="1" fill="#767676"/>
<rect x="9" y="20" width="2" height="1" fill="#6c6c6c"/>
<rect x="0" y="20" width="1" height="1" fill="#6b6b6b"/>
<rect x="28" y="20" width="1" height="1" fill="#7a7a7a"/>
<rect x="17" y="20" width="1" height="1" fill="#727272"/>
<rect x="12" y="20" width="1" height="1" fill="#636363"/>
<rect x="15" y="20" width="1" height="1" fill="#6b6b6b"/>
<rect x="26" y="20" width="1" height="1" fill="#828282"/>
<rect x="20" y="20" width="1" height="1" fill="#747474"/>
<rect x="27" y="20" width="1" height="1" fill="#838383"/>
<rect x="8" y="20" width="1" height="1" fill="#6d6d6d"/>
<rect x="3" y="20" width="1" height="2" fill="#737373"/>
<rect x="5" y="20" width="1" height="2" fill="#6f6f6f"/>
<rect x="4" y="20" width="1" height="2" fill="#6c6c6c"/>
<rect x="11" y="21" width="1" height="1" fill="#7b7b7b"/>
<rect x="9" y="21" width="1" height="1" fill="#727272"/>
<rect x="27" y="21" width="1" height="1" fill="#7d7d7d"/>
<rect x="24" y="21" width="1" height="1" fill="#7f7f7f"/>
<rect x="7" y="21" width="1" height="1" fill="#737373"/>
<rect x="26" y="21" width="1" height="1" fill="#7f7f7f"/>
<rect x="31" y="21" width="1" height="1" fill="#717171"/>
<rect x="10" y="21" width="1" height="1" fill="#7a7a7a"/>
<rect x="8" y="21" width="1" height="1" fill="#6f6f6f"/>
<rect x="0" y="21" width="2" height="1" fill="#656565"/>
<rect x="12" y="21" width="2" height="1" fill="#7d7d7d"/>
<rect x="18" y="21" width="1" height="1" fill="#767676"/>
<rect x="28" y="21" width="1" height="1" fill="#747474"/>
<rect x="29" y="21" width="2" height="1" fill="#6c6c6c"/>
<rect x="6" y="21" width="1" height="1" fill="#767676"/>
<rect x="25" y="21" width="1" height="1" fill="#818181"/>
<rect x="2" y="19" width="1" height="4" fill="#767676"/>
<rect x="0" y="22" width="2" height="1" fill="#6b6b6b"/>
<rect x="24" y="22" width="2" height="1" fill="#656565"/>
<rect x="6" y="22" width="3" height="1" fill="#767676"/>
<rect x="10" y="22" width="3" height="1" fill="#838383"/>
<rect x="23" y="22" width="1" height="1" fill="#686868"/>
<rect x="27" y="22" width="1" height="1" fill="#6c6c6c"/>
<rect x="19" y="22" width="1" height="1" fill="#767676"/>
<rect x="13" y="22" width="1" height="1" fill="#7f7f7f"/>
<rect x="4" y="22" width="1" height="1" fill="#737373"/>
<rect x="5" y="22" width="1" height="1" fill="#747474"/>
<rect x="31" y="22" width="1" height="1" fill="#6c6c6c"/>
<rect x="22" y="22" width="1" height="1" fill="#6b6b6b"/>
<rect x="28" y="22" width="1" height="1" fill="#686868"/>
<rect x="29" y="22" width="1" height="2" fill="#636363"/>
<rect x="9" y="22" width="1" height="2" fill="#787878"/>
<rect x="30" y="22" width="1" height="2" fill="#656565"/>
<rect x="14" y="23" width="2" height="1" fill="#6f6f6f"/>
<rect x="12" y="23" width="1" height="1" fill="#7d7d7d"/>
<rect x="17" y="23" width="1" height="1" fill="#6d6d6d"/>
<rect x="23" y="23" width="3" height="1" fill="#636363"/>
<rect x="16" y="23" width="1" height="1" fill="#6e6e6e"/>
<rect x="31" y="23" width="1" height="1" fill="#6e6e6e"/>
<rect x="13" y="23" width="1" height="1" fill="#7b7b7b"/>
<rect x="22" y="23" width="1" height="1" fill="#656565"/>
<rect x="5" y="23" width="3" height="1" fill="#767676"/>
<rect x="21" y="23" width="1" height="1" fill="#767676"/>
<rect x="28" y="23" width="1" height="1" fill="#6b6b6b"/>
<rect x="11" y="23" width="1" height="1" fill="#828282"/>
<rect x="1" y="23" width="2" height="1" fill="#767676"/>
<rect x="26" y="22" width="1" height="3" fill="#686868"/>
<rect x="27" y="23" width="1" height="2" fill="#6d6d6d"/>
<rect x="22" y="24" width="1" height="1" fill="#686868"/>
<rect x="23" y="24" width="3" height="1" fill="#656565"/>
<rect x="5" y="24" width="1" height="1" fill="#717171"/>
<rect x="14" y="24" width="4" height="1" fill="#6c6c6c"/>
<rect x="2" y="24" width="2" height="1" fill="#747474"/>
<rect x="11" y="24" width="1" height="1" fill="#818181"/>
<rect x="6" y="24" width="2" height="1" fill="#707070"/>
<rect x="4" y="24" width="1" height="1" fill="#737373"/>
<rect x="28" y="24" width="1" height="1" fill="#6c6c6c"/>
<rect x="29" y="24" width="1" height="1" fill="#6b6b6b"/>
<rect x="10" y="23" width="1" height="3" fill="#838383"/>
<rect x="30" y="24" width="1" height="2" fill="#6c6c6c"/>
<rect x="13" y="24" width="1" height="2" fill="#747474"/>
<rect x="8" y="24" width="1" height="2" fill="#767676"/>
<rect x="9" y="24" width="1" height="2" fill="#777777"/>
<rect x="5" y="25" width="3" height="1" fill="#6d6d6d"/>
<rect x="2" y="25" width="2" height="1" fill="#6d6d6d"/>
<rect x="26" y="25" width="4" height="1" fill="#6d6d6d"/>
<rect x="17" y="25" width="1" height="1" fill="#6c6c6c"/>
<rect x="25" y="25" width="1" height="1" fill="#6c6c6c"/>
<rect x="11" y="25" width="1" height="1" fill="#828282"/>
<rect x="4" y="25" width="1" height="1" fill="#6c6c6c"/>
<rect x="18" y="25" width="2" height="1" fill="#707070"/>
<rect x="20" y="25" width="1" height="1" fill="#747474"/>
<rect x="24" y="25" width="1" height="1" fill="#717171"/>
<rect x="15" y="25" width="1" height="1" fill="#6c6c6c"/>
<rect x="16" y="25" width="1" height="1" fill="#6d6d6d"/>
<rect x="0" y="23" width="1" height="4" fill="#7a7a7a"/>
<rect x="31" y="24" width="1" height="3" fill="#7f7f7f"/>
<rect x="25" y="26" width="2" height="1" fill="#6c6c6c"/>
<rect x="9" y="26" width="1" height="1" fill="#737373"/>
<rect x="8" y="26" width="1" height="1" fill="#747474"/>
<rect x="20" y="26" width="1" height="1" fill="#737373"/>
<rect x="29" y="26" width="1" height="1" fill="#6f6f6f"/>
<rect x="24" y="26" width="1" height="1" fill="#727272"/>
<rect x="18" y="26" width="1" height="1" fill="#6d6d6d"/>
<rect x="2" y="26" width="4" height="1" fill="#6c6c6c"/>
<rect x="27" y="26" width="2" height="1" fill="#6d6d6d"/>
<rect x="21" y="26" width="1" height="1" fill="#767676"/>
<rect x="10" y="26" width="1" height="1" fill="#7b7b7b"/>
<rect x="6" y="26" width="2" height="1" fill="#6d6d6d"/>
<rect x="11" y="26" width="1" height="1" fill="#7a7a7a"/>
<rect x="19" y="26" width="1" height="1" fill="#6c6c6c"/>
<rect x="23" y="26" width="1" height="1" fill="#767676"/>
<rect x="30" y="26" width="1" height="1" fill="#717171"/>
<rect x="15" y="26" width="3" height="1" fill="#6c6c6c"/>
<rect x="14" y="25" width="1" height="3" fill="#6d6d6d"/>
<rect x="1" y="27" width="1" height="1" fill="#7a7a7a"/>
<rect x="25" y="27" width="1" height="1" fill="#7a7a7a"/>
<rect x="20" y="27" width="1" height="1" fill="#727272"/>
<rect x="28" y="27" width="1" height="1" fill="#818181"/>
<rect x="21" y="27" width="4" height="1" fill="#767676"/>
<rect x="4" y="27" width="2" height="1" fill="#737373"/>
<rect x="12" y="27" width="1" height="1" fill="#767676"/>
<rect x="30" y="27" width="2" height="1" fill="#838383"/>
<rect x="27" y="27" width="1" height="1" fill="#7f7f7f"/>
<rect x="2" y="27" width="1" height="1" fill="#777777"/>
<rect x="0" y="27" width="1" height="1" fill="#7b7b7b"/>
<rect x="6" y="27" width="1" height="1" fill="#6c6c6c"/>
<rect x="3" y="27" width="1" height="1" fill="#7a7a7a"/>
<rect x="7" y="27" width="1" height="1" fill="#6d6d6d"/>
<rect x="29" y="27" width="1" height="1" fill="#828282"/>
<rect x="26" y="27" width="1" height="1" fill="#7d7d7d"/>
<rect x="15" y="27" width="5" height="1" fill="#6c6c6c"/>
<rect x="8" y="27" width="1" height="2" fill="#6c6c6c"/>
<rect x="9" y="27" width="1" height="2" fill="#6d6d6d"/>
<rect x="21" y="28" width="2" height="1" fill="#767676"/>
<rect x="14" y="28" width="1" height="1" fill="#6f6f6f"/>
<rect x="19" y="28" width="1" height="1" fill="#747474"/>
<rect x="3" y="28" width="1" height="1" fill="#828282"/>
<rect x="16" y="28" width="1" height="1" fill="#717171"/>
<rect x="25" y="28" width="7" height="1" fill="#838383"/>
<rect x="0" y="28" width="3" height="1" fill="#838383"/>
<rect x="6" y="28" width="2" height="1" fill="#6d6d6d"/>
<rect x="4" y="28" width="1" height="1" fill="#767676"/>
<rect x="15" y="28" width="1" height="1" fill="#707070"/>
<rect x="17" y="28" width="2" height="1" fill="#737373"/>
<rect x="11" y="28" width="1" height="1" fill="#767676"/>
<rect x="24" y="28" width="1" height="1" fill="#787878"/>
<rect x="5" y="29" width="1" height="1" fill="#737373"/>
<rect x="31" y="29" width="1" height="1" fill="#7b7b7b"/>
<rect x="2" y="29" width="1" height="1" fill="#828282"/>
<rect x="9" y="29" width="1" height="1" fill="#737373"/>
<rect x="10" y="29" width="3" height="1" fill="#767676"/>
<rect x="21" y="29" width="3" height="1" fill="#767676"/>
<rect x="28" y="29" width="3" height="1" fill="#7d7d7d"/>
<rect x="4" y="29" width="1" height="1" fill="#747474"/>
<rect x="0" y="29" width="2" height="1" fill="#838383"/>
<rect x="6" y="29" width="1" height="1" fill="#6f6f6f"/>
<rect x="25" y="29" width="1" height="1" fill="#838383"/>
<rect x="14" y="29" width="4" height="1" fill="#767676"/>
<rect x="27" y="29" width="1" height="1" fill="#818181"/>
<rect x="7" y="29" width="1" height="1" fill="#707070"/>
<rect x="24" y="29" width="1" height="1" fill="#777777"/>
<rect x="8" y="29" width="1" height="1" fill="#727272"/>
<rect x="3" y="29" width="1" height="1" fill="#818181"/>
<rect x="26" y="29" width="1" height="1" fill="#828282"/>
<rect x="0" y="30" width="1" height="1" fill="#7d7d7d"/>
<rect x="5" y="30" width="1" height="1" fill="#6d6d6d"/>
<rect x="21" y="30" width="2" height="1" fill="#7b7b7b"/>
<rect x="4" y="30" width="1" height="1" fill="#6c6c6c"/>
<rect x="20" y="30" width="1" height="1" fill="#7a7a7a"/>
<rect x="29" y="30" width="1" height="1" fill="#727272"/>
<rect x="25" y="30" width="1" height="1" fill="#777777"/>
<rect x="23" y="30" width="1" height="1" fill="#767676"/>
<rect x="2" y="30" width="1" height="1" fill="#6f6f6f"/>
<rect x="30" y="30" width="2" height="1" fill="#767676"/>
<rect x="3" y="30" width="1" height="1" fill="#6e6e6e"/>
<rect x="7" y="30" width="10" height="1" fill="#767676"/>
<rect x="26" y="30" width="1" height="1" fill="#767676"/>
<rect x="1" y="30" width="1" height="1" fill="#787878"/>
<rect x="19" y="30" width="1" height="1" fill="#787878"/>
<rect x="18" y="30" width="1" height="1" fill="#767676"/>
<rect x="28" y="30" width="1" height="1" fill="#6c6c6c"/>
<rect x="27" y="30" width="1" height="2" fill="#6f6f6f"/>
<rect x="8" y="31" width="4" height="1" fill="#767676"/>
<rect x="18" y="31" width="1" height="1" fill="#7b7b7b"/>
<rect x="29" y="31" width="1" height="1" fill="#717171"/>
<rect x="15" y="31" width="1" height="1" fill="#6f6f6f"/>
<rect x="0" y="31" width="1" height="1" fill="#7a7a7a"/>
<rect x="24" y="31" width="3" height="1" fill="#767676"/>
<rect x="13" y="31" width="1" height="1" fill="#717171"/>
<rect x="2" y="31" width="4" height="1" fill="#6d6d6d"/>
<rect x="12" y="31" width="1" height="1" fill="#737373"/>
<rect x="14" y="31" width="1" height="1" fill="#707070"/>
<rect x="28" y="31" width="1" height="1" fill="#6d6d6d"/>
<rect x="20" y="31" width="2" height="1" fill="#838383"/>
<rect x="19" y="31" width="1" height="1" fill="#828282"/>
<rect x="31" y="31" width="1" height="1" fill="#787878"/>
<rect x="16" y="31" width="1" height="1" fill="#737373"/>
<rect x="22" y="31" width="1" height="1" fill="#818181"/>
<rect x="30" y="31" width="1" height="1" fill="#767676"/>
</svg>