<?xml version="1.0" encoding="UTF-8"?>
<svg xmlns="http://www.w3.org/2000/svg" width="20mm" height="20mm" viewBox="0 0 32 32" shape-rendering="crispEdges">
<title>118 右侧面 structured semantic redraw</title>
<metadata>registered 32-unit semantic vector redraw; no embedded raster; physical-size=20mm</metadata>
<rect x="0" y="0" width="32" height="32" fill="#b4b4b4"/>
<rect x="8" y="0" width="1" height="1" fill="#bebebe"/>
<rect x="27" y="0" width="1" height="1" fill="#bebebe"/>
<rect x="26" y="0" width="1" height="1" fill="#bfbfbf"/>
<rect x="17" y="0" width="2" height="1" fill="#b8b8b8"/>
<rect x="28" y="0" width="1" height="1" fill="#bfbfbf"/>
<rect x="29" y="0" width="3" height="1" fill="#b9b9b9"/>
<rect x="0" y="0" width="2" height="1" fill="#b2b2b2"/>
<rect x="11" y="0" width="1" height="1" fill="#adadad"/>
<rect x="5" y="0" width="1" height="1" fill="#b3b3b3"/>
<rect x="16" y="0" width="1" height="1" fill="#b9b9b9"/>
<rect x="10" y="0" width="1" height="1" fill="#afafaf"/>
<rect x="15" y="0" width="1" height="1" fill="#b0b0b0"/>
<rect x="12" y="0" width="1" height="1" fill="#acacac"/>
<rect x="25" y="0" width="1" height="1" fill="#b9b9b9"/>
<rect x="6" y="0" width="1" height="1" fill="#bfbfbf"/>
<rect x="2" y="0" width="1" height="1" fill="#b0b0b0"/>
<rect x="13" y="0" width="1" height="1" fill="#adadad"/>
<rect x="7" y="0" width="1" height="1" fill="#c1c1c1"/>
<rect x="3" y="0" width="2" height="1" fill="#b1b1b1"/>
<rect x="23" y="0" width="1" height="1" fill="#b9b9b9"/>
<rect x="24" y="0" width="1" height="1" fill="#b8b8b8"/>
<rect x="14" y="0" width="1" height="1" fill="#acacac"/>
<rect x="19" y="0" width="3" height="1" fill="#b1b1b1"/>
<rect x="9" y="0" width="1" height="1" fill="#b6b6b6"/>
<rect x="22" y="0" width="1" height="2" fill="#b7b7b7"/>
<rect x="23" y="1" width="2" height="1" fill="#b8b8b8"/>
<rect x="29" y="1" width="1" height="1" fill="#b8b8b8"/>
<rect x="5" y="1" width="1" height="1" fill="#aeaeae"/>
<rect x="25" y="1" width="1" height="1" fill="#bbbbbb"/>
<rect x="1" y="1" width="1" height="1" fill="#afafaf"/>
<rect x="3" y="1" width="2" height="1" fill="#b0b0b0"/>
<rect x="6" y="1" width="1" height="1" fill="#acacac"/>
<rect x="8" y="1" width="1" height="1" fill="#b1b1b1"/>
<rect x="28" y="1" width="1" height="1" fill="#bebebe"/>
<rect x="30" y="1" width="2" height="1" fill="#b7b7b7"/>
<rect x="26" y="1" width="2" height="1" fill="#bfbfbf"/>
<rect x="15" y="1" width="1" height="1" fill="#aeaeae"/>
<rect x="0" y="1" width="1" height="1" fill="#b2b2b2"/>
<rect x="7" y="1" width="1" height="1" fill="#b0b0b0"/>
<rect x="2" y="1" width="1" height="1" fill="#aaaaaa"/>
<rect x="9" y="1" width="1" height="1" fill="#aaaaaa"/>
<rect x="19" y="1" width="1" height="2" fill="#b0b0b0"/>
<rect x="18" y="1" width="1" height="2" fill="#b5b5b5"/>
<rect x="16" y="1" width="2" height="2" fill="#b7b7b7"/>
<rect x="13" y="1" width="1" height="2" fill="#a9a8a8"/>
<rect x="14" y="1" width="1" height="2" fill="#a8a8a7"/>
<rect x="20" y="1" width="2" height="2" fill="#b1b1b1"/>
<rect x="10" y="1" width="3" height="2" fill="#a8a8a7"/>
<rect x="9" y="2" width="1" height="1" fill="#a9a8a8"/>
<rect x="30" y="2" width="1" height="1" fill="#b3b3b3"/>
<rect x="8" y="2" width="1" height="1" fill="#afafaf"/>
<rect x="22" y="2" width="3" height="1" fill="#b5b5b5"/>
<rect x="25" y="2" width="1" height="1" fill="#b7b7b7"/>
<rect x="1" y="2" width="1" height="1" fill="#aeaeae"/>
<rect x="5" y="2" width="1" height="1" fill="#adadad"/>
<rect x="15" y="2" width="1" height="1" fill="#b0b0b0"/>
<rect x="4" y="2" width="1" height="1" fill="#afafaf"/>
<rect x="6" y="2" width="1" height="1" fill="#aaaaaa"/>
<rect x="0" y="2" width="1" height="1" fill="#b3b3b3"/>
<rect x="28" y="2" width="1" height="1" fill="#b8b8b8"/>
<rect x="26" y="2" width="2" height="1" fill="#b9b9b9"/>
<rect x="7" y="2" width="1" height="1" fill="#aeaeae"/>
<rect x="2" y="2" width="2" height="2" fill="#aaaaaa"/>
<rect x="15" y="3" width="1" height="1" fill="#b1b1b1"/>
<rect x="9" y="3" width="3" height="1" fill="#aaaaaa"/>
<rect x="24" y="3" width="1" height="1" fill="#b2b2b2"/>
<rect x="0" y="3" width="1" height="1" fill="#a3a2a2"/>
<rect x="26" y="3" width="1" height="1" fill="#b9b9b9"/>
<rect x="22" y="3" width="1" height="1" fill="#b2b2b2"/>
<rect x="8" y="3" width="1" height="1" fill="#aeaeae"/>
<rect x="16" y="3" width="1" height="1" fill="#b3b3b3"/>
<rect x="14" y="3" width="1" height="1" fill="#aeaeae"/>
<rect x="17" y="3" width="1" height="1" fill="#b2b2b2"/>
<rect x="12" y="3" width="1" height="1" fill="#acacac"/>
<rect x="13" y="3" width="1" height="1" fill="#adadad"/>
<rect x="27" y="3" width="2" height="1" fill="#b8b8b8"/>
<rect x="1" y="3" width="1" height="1" fill="#acacac"/>
<rect x="23" y="3" width="1" height="1" fill="#b3b3b3"/>
<rect x="5" y="3" width="2" height="1" fill="#aaaaaa"/>
<rect x="7" y="3" width="1" height="1" fill="#afafaf"/>
<rect x="4" y="3" width="1" height="2" fill="#a9a8a8"/>
<rect x="1" y="4" width="3" height="1" fill="#aaaaaa"/>
<rect x="9" y="4" width="1" height="1" fill="#b7b7b7"/>
<rect x="10" y="4" width="1" height="1" fill="#b8b8b8"/>
<rect x="7" y="4" width="2" height="1" fill="#aeaeae"/>
<rect x="0" y="4" width="1" height="1" fill="#977e70"/>
<rect x="22" y="4" width="3" height="1" fill="#b3b3b3"/>
<rect x="26" y="4" width="3" height="1" fill="#b8b8b8"/>
<rect x="6" y="4" width="1" height="1" fill="#aaaaaa"/>
<rect x="25" y="3" width="1" height="3" fill="#b6b6b6"/>
<rect x="18" y="3" width="1" height="3" fill="#b3b3b3"/>
<rect x="12" y="4" width="6" height="2" fill="#b2b2b2"/>
<rect x="11" y="4" width="1" height="2" fill="#b7b7b7"/>
<rect x="24" y="5" width="1" height="1" fill="#b2b2b2"/>
<rect x="29" y="5" width="3" height="1" fill="#b3b3b3"/>
<rect x="3" y="5" width="1" height="1" fill="#aaaaaa"/>
<rect x="9" y="5" width="2" height="1" fill="#b8b8b8"/>
<rect x="22" y="5" width="1" height="1" fill="#b2b2b2"/>
<rect x="1" y="5" width="1" height="1" fill="#afafaf"/>
<rect x="7" y="5" width="2" height="1" fill="#afafaf"/>
<rect x="26" y="5" width="2" height="1" fill="#b8b8b8"/>
<rect x="28" y="5" width="1" height="1" fill="#b7b7b7"/>
<rect x="2" y="5" width="1" height="1" fill="#aeaeae"/>
<rect x="23" y="5" width="1" height="1" fill="#b3b3b3"/>
<rect x="6" y="5" width="1" height="1" fill="#acacac"/>
<rect x="4" y="5" width="1" height="2" fill="#a8a8a7"/>
<rect x="3" y="6" width="1" height="1" fill="#aeaeae"/>
<rect x="24" y="6" width="1" height="1" fill="#b1b1b1"/>
<rect x="29" y="6" width="1" height="1" fill="#aaaaaa"/>
<rect x="30" y="6" width="1" height="1" fill="#a9a8a8"/>
<rect x="17" y="6" width="1" height="1" fill="#b2b2b2"/>
<rect x="21" y="6" width="1" height="1" fill="#b3b3b3"/>
<rect x="1" y="6" width="2" height="1" fill="#b0b0b0"/>
<rect x="22" y="6" width="2" height="1" fill="#b2b2b2"/>
<rect x="9" y="6" width="1" height="1" fill="#b8b8b8"/>
<rect x="14" y="6" width="3" height="1" fill="#b1b1b1"/>
<rect x="6" y="6" width="1" height="1" fill="#adadad"/>
<rect x="10" y="6" width="2" height="1" fill="#b7b7b7"/>
<rect x="12" y="6" width="2" height="1" fill="#b2b2b2"/>
<rect x="7" y="6" width="1" height="1" fill="#afafaf"/>
<rect x="0" y="5" width="1" height="3" fill="#9a8e86"/>
<rect x="8" y="6" width="1" height="2" fill="#b0b0b0"/>
<rect x="13" y="7" width="2" height="1" fill="#b3b3b3"/>
<rect x="4" y="7" width="1" height="1" fill="#acacac"/>
<rect x="11" y="7" width="1" height="1" fill="#b3b3b3"/>
<rect x="1" y="7" width="3" height="1" fill="#b0b0b0"/>
<rect x="7" y="7" width="1" height="1" fill="#adadad"/>
<rect x="12" y="7" width="1" height="1" fill="#b2b2b2"/>
<rect x="17" y="7" width="1" height="1" fill="#bfbfbf"/>
<rect x="6" y="7" width="1" height="1" fill="#acacac"/>
<rect x="15" y="7" width="1" height="1" fill="#bcbcbc"/>
<rect x="25" y="7" width="1" height="1" fill="#b3b3b3"/>
<rect x="19" y="7" width="3" height="1" fill="#afafaf"/>
<rect x="9" y="7" width="1" height="1" fill="#b5b5b5"/>
<rect x="16" y="7" width="1" height="1" fill="#bebebe"/>
<rect x="31" y="6" width="1" height="3" fill="#aaaaaa"/>
<rect x="22" y="7" width="3" height="2" fill="#b1b1b1"/>
<rect x="29" y="7" width="2" height="2" fill="#a9a8a8"/>
<rect x="11" y="8" width="1" height="1" fill="#aeaeae"/>
<rect x="6" y="8" width="2" height="1" fill="#a9a8a8"/>
<rect x="2" y="8" width="2" height="1" fill="#b0b0b0"/>
<rect x="20" y="8" width="2" height="1" fill="#afafaf"/>
<rect x="12" y="8" width="3" height="1" fill="#b3b3b3"/>
<rect x="19" y="8" width="1" height="1" fill="#aeaeae"/>
<rect x="9" y="8" width="2" height="1" fill="#acacac"/>
<rect x="18" y="8" width="1" height="1" fill="#b3b3b3"/>
<rect x="1" y="8" width="1" height="1" fill="#b1b1b1"/>
<rect x="0" y="8" width="1" height="1" fill="#877064"/>
<rect x="26" y="6" width="2" height="4" fill="#b5b5b5"/>
<rect x="28" y="7" width="1" height="3" fill="#b3b3b3"/>
<rect x="4" y="8" width="1" height="2" fill="#adadad"/>
<rect x="10" y="9" width="1" height="1" fill="#acacac"/>
<rect x="3" y="9" width="1" height="1" fill="#afafaf"/>
<rect x="0" y="9" width="1" height="1" fill="#9a8e86"/>
<rect x="2" y="9" width="1" height="1" fill="#b1b1b1"/>
<rect x="9" y="9" width="1" height="1" fill="#adadad"/>
<rect x="7" y="9" width="1" height="1" fill="#a9a8a8"/>
<rect x="29" y="9" width="1" height="1" fill="#a9a8a8"/>
<rect x="1" y="9" width="1" height="1" fill="#b3b3b3"/>
<rect x="19" y="9" width="3" height="1" fill="#afafaf"/>
<rect x="6" y="9" width="1" height="1" fill="#a8a8a7"/>
<rect x="18" y="9" width="1" height="1" fill="#b1b1b1"/>
<rect x="24" y="9" width="1" height="1" fill="#b0b0b0"/>
<rect x="30" y="9" width="2" height="1" fill="#aaaaaa"/>
<rect x="22" y="9" width="2" height="1" fill="#b1b1b1"/>
<rect x="11" y="9" width="1" height="1" fill="#afafaf"/>
<rect x="8" y="8" width="1" height="3" fill="#aaaaaa"/>
<rect x="15" y="8" width="3" height="3" fill="#c1c1c1"/>
<rect x="12" y="9" width="2" height="2" fill="#b3b3b3"/>
<rect x="6" y="10" width="2" height="1" fill="#a9a8a8"/>
<rect x="18" y="10" width="1" height="1" fill="#b0b0b0"/>
<rect x="20" y="10" width="2" height="1" fill="#afafaf"/>
<rect x="9" y="10" width="2" height="1" fill="#adadad"/>
<rect x="22" y="10" width="3" height="1" fill="#b1b1b1"/>
<rect x="19" y="10" width="1" height="1" fill="#aeaeae"/>
<rect x="14" y="10" width="1" height="1" fill="#b6b6b6"/>
<rect x="28" y="10" width="1" height="1" fill="#b0b0b0"/>
<rect x="25" y="10" width="3" height="1" fill="#b2b2b2"/>
<rect x="31" y="10" width="1" height="1" fill="#acacac"/>
<rect x="29" y="10" width="2" height="1" fill="#aaaaaa"/>
<rect x="0" y="10" width="1" height="1" fill="#a6a6a6"/>
<rect x="11" y="10" width="1" height="1" fill="#b0b0b0"/>
<rect x="3" y="10" width="1" height="1" fill="#b0b0b0"/>
<rect x="5" y="4" width="1" height="8" fill="#a6a6a6"/>
<rect x="4" y="10" width="1" height="2" fill="#acacac"/>
<rect x="24" y="11" width="1" height="1" fill="#b6b6b6"/>
<rect x="7" y="11" width="1" height="1" fill="#a6a6a6"/>
<rect x="3" y="11" width="1" height="1" fill="#b2b2b2"/>
<rect x="30" y="11" width="1" height="1" fill="#adadad"/>
<rect x="16" y="11" width="1" height="1" fill="#b3b3b3"/>
<rect x="21" y="11" width="1" height="1" fill="#b2b2b2"/>
<rect x="0" y="11" width="1" height="1" fill="#b0b0b0"/>
<rect x="14" y="11" width="1" height="1" fill="#b7aeae"/>
<rect x="18" y="11" width="3" height="1" fill="#afafaf"/>
<rect x="13" y="11" width="1" height="1" fill="#bda3a2"/>
<rect x="11" y="11" width="2" height="1" fill="#b7aeae"/>
<rect x="17" y="11" width="1" height="1" fill="#b1b1b1"/>
<rect x="8" y="11" width="3" height="1" fill="#a9a8a8"/>
<rect x="22" y="11" width="2" height="1" fill="#b5b5b5"/>
<rect x="6" y="11" width="1" height="1" fill="#a8a8a7"/>
<rect x="28" y="11" width="2" height="1" fill="#acacac"/>
<rect x="25" y="11" width="3" height="1" fill="#adadad"/>
<rect x="1" y="10" width="2" height="3" fill="#b3b3b3"/>
<rect x="31" y="11" width="1" height="2" fill="#aeaeae"/>
<rect x="4" y="12" width="1" height="1" fill="#aaaaaa"/>
<rect x="22" y="12" width="3" height="1" fill="#b6b6b6"/>
<rect x="26" y="12" width="1" height="1" fill="#acacac"/>
<rect x="25" y="12" width="1" height="1" fill="#adadad"/>
<rect x="15" y="12" width="3" height="1" fill="#acacac"/>
<rect x="30" y="12" width="1" height="1" fill="#acacac"/>
<rect x="27" y="12" width="3" height="1" fill="#adadad"/>
<rect x="21" y="12" width="1" height="1" fill="#b3b3b3"/>
<rect x="17" y="13" width="1" height="1" fill="#acacac"/>
<rect x="16" y="13" width="1" height="1" fill="#aaaaaa"/>
<rect x="28" y="13" width="3" height="1" fill="#acacac"/>
<rect x="31" y="13" width="1" height="1" fill="#adadad"/>
<rect x="4" y="13" width="1" height="1" fill="#a6a6a6"/>
<rect x="25" y="13" width="3" height="1" fill="#adadad"/>
<rect x="15" y="13" width="1" height="1" fill="#acacac"/>
<rect x="0" y="13" width="1" height="1" fill="#b5b5b5"/>
<rect x="11" y="12" width="4" height="3" fill="#bda3a2"/>
<rect x="3" y="12" width="1" height="3" fill="#b1b1b1"/>
<rect x="20" y="12" width="1" height="3" fill="#afafaf"/>
<rect x="18" y="12" width="2" height="3" fill="#b0b0b0"/>
<rect x="2" y="13" width="1" height="2" fill="#b3b3b3"/>
<rect x="22" y="13" width="2" height="2" fill="#b6b6b6"/>
<rect x="25" y="14" width="3" height="1" fill="#acacac"/>
<rect x="29" y="14" width="1" height="1" fill="#acacac"/>
<rect x="30" y="14" width="1" height="1" fill="#adadad"/>
<rect x="4" y="14" width="1" height="1" fill="#a3a2a2"/>
<rect x="28" y="14" width="1" height="1" fill="#adadad"/>
<rect x="15" y="14" width="3" height="1" fill="#acacac"/>
<rect x="31" y="14" width="1" height="1" fill="#afafaf"/>
<rect x="8" y="12" width="3" height="4" fill="#b58a8a"/>
<rect x="24" y="13" width="1" height="3" fill="#b5b5b5"/>
<rect x="0" y="14" width="2" height="2" fill="#b5b5b5"/>
<rect x="15" y="15" width="1" height="1" fill="#adadad"/>
<rect x="29" y="15" width="1" height="1" fill="#bbbbbb"/>
<rect x="17" y="15" width="1" height="1" fill="#afafaf"/>
<rect x="30" y="15" width="1" height="1" fill="#bcbcbc"/>
<rect x="13" y="15" width="1" height="1" fill="#b58a8a"/>
<rect x="25" y="15" width="1" height="1" fill="#b8b8b8"/>
<rect x="26" y="15" width="3" height="1" fill="#b9b9b9"/>
<rect x="16" y="15" width="1" height="1" fill="#aeaeae"/>
<rect x="14" y="15" width="1" height="1" fill="#acacac"/>
<rect x="11" y="15" width="2" height="1" fill="#bda3a2"/>
<rect x="18" y="15" width="2" height="1" fill="#b3b3b3"/>
<rect x="5" y="12" width="3" height="5" fill="#977e70"/>
<rect x="4" y="15" width="1" height="2" fill="#9a8e86"/>
<rect x="31" y="15" width="1" height="2" fill="#bfbfbf"/>
<rect x="3" y="15" width="1" height="2" fill="#b2b2b2"/>
<rect x="16" y="16" width="1" height="1" fill="#b2b2b2"/>
<rect x="25" y="16" width="2" height="1" fill="#bcbcbc"/>
<rect x="14" y="16" width="1" height="1" fill="#a8a8a7"/>
<rect x="15" y="16" width="1" height="1" fill="#b3b3b3"/>
<rect x="28" y="16" width="3" height="1" fill="#bcbcbc"/>
<rect x="27" y="16" width="1" height="1" fill="#bbbbbb"/>
<rect x="0" y="16" width="1" height="1" fill="#b5b5b5"/>
<rect x="2" y="16" width="1" height="1" fill="#b3b3b3"/>
<rect x="18" y="16" width="3" height="2" fill="#b8b8b8"/>
<rect x="14" y="17" width="1" height="1" fill="#adadad"/>
<rect x="25" y="17" width="1" height="1" fill="#bbbbbb"/>
<rect x="3" y="17" width="1" height="1" fill="#b1b1b1"/>
<rect x="0" y="17" width="1" height="1" fill="#bcbcbc"/>
<rect x="1" y="17" width="1" height="1" fill="#b5b5b5"/>
<rect x="26" y="17" width="5" height="1" fill="#bcbcbc"/>
<rect x="10" y="16" width="1" height="3" fill="#977e70"/>
<rect x="8" y="16" width="2" height="3" fill="#b58a8a"/>
<rect x="17" y="16" width="1" height="3" fill="#b5b5b5"/>
<rect x="11" y="16" width="3" height="3" fill="#877064"/>
<rect x="24" y="17" width="1" height="2" fill="#b5b5b5"/>
<rect x="4" y="17" width="4" height="2" fill="#977e70"/>
<rect x="15" y="17" width="2" height="2" fill="#b3b3b3"/>
<rect x="14" y="18" width="1" height="1" fill="#b0b0b0"/>
<rect x="3" y="18" width="1" height="1" fill="#afafaf"/>
<rect x="1" y="18" width="1" height="1" fill="#bbbbbb"/>
<rect x="20" y="18" width="1" height="1" fill="#b7b7b7"/>
<rect x="18" y="18" width="2" height="1" fill="#b8b8b8"/>
<rect x="25" y="18" width="2" height="1" fill="#bcbcbc"/>
<rect x="28" y="18" width="3" height="1" fill="#bcbcbc"/>
<rect x="0" y="18" width="1" height="1" fill="#bebebe"/>
<rect x="27" y="18" width="1" height="1" fill="#bbbbbb"/>
<rect x="2" y="18" width="1" height="1" fill="#b3b3b3"/>
<rect x="31" y="17" width="1" height="3" fill="#c1c1c1"/>
<rect x="3" y="19" width="1" height="1" fill="#acacac"/>
<rect x="15" y="19" width="2" height="1" fill="#b2b2b2"/>
<rect x="17" y="19" width="1" height="1" fill="#b6b6b6"/>
<rect x="18" y="19" width="3" height="1" fill="#b8b8b8"/>
<rect x="2" y="19" width="1" height="1" fill="#b9b9b9"/>
<rect x="23" y="19" width="1" height="1" fill="#b3b3b3"/>
<rect x="24" y="19" width="1" height="1" fill="#b6b6b6"/>
<rect x="7" y="19" width="3" height="1" fill="#b58a8a"/>
<rect x="10" y="19" width="4" height="1" fill="#877064"/>
<rect x="25" y="19" width="6" height="1" fill="#bcbcbc"/>
<rect x="14" y="19" width="1" height="1" fill="#b2b3b3"/>
<rect x="0" y="19" width="2" height="2" fill="#bebebe"/>
<rect x="10" y="20" width="3" height="1" fill="#9a8e86"/>
<rect x="17" y="20" width="2" height="1" fill="#b8b8b8"/>
<rect x="15" y="20" width="2" height="1" fill="#b7b7b7"/>
<rect x="19" y="20" width="2" height="1" fill="#b7b7b7"/>
<rect x="14" y="20" width="1" height="1" fill="#b8b8b8"/>
<rect x="13" y="20" width="1" height="1" fill="#a3a2a2"/>
<rect x="7" y="20" width="1" height="1" fill="#b58a8a"/>
<rect x="24" y="20" width="1" height="1" fill="#b8b8b8"/>
<rect x="3" y="20" width="1" height="1" fill="#aaaaaa"/>
<rect x="8" y="20" width="2" height="1" fill="#a3a2a2"/>
<rect x="29" y="20" width="2" height="2" fill="#bbbbbb"/>
<rect x="9" y="21" width="1" height="1" fill="#adadad"/>
<rect x="8" y="21" width="1" height="1" fill="#aeaeae"/>
<rect x="11" y="21" width="1" height="1" fill="#b1b2b2"/>
<rect x="12" y="21" width="1" height="1" fill="#b2b2b2"/>
<rect x="16" y="21" width="1" height="1" fill="#b9b9b9"/>
<rect x="7" y="21" width="1" height="1" fill="#acacac"/>
<rect x="14" y="21" width="1" height="1" fill="#b9b9b9"/>
<rect x="15" y="21" width="1" height="1" fill="#b8b8b8"/>
<rect x="0" y="21" width="1" height="1" fill="#bfbfbf"/>
<rect x="10" y="21" width="1" height="1" fill="#b1b1b1"/>
<rect x="4" y="19" width="3" height="4" fill="#977e70"/>
<rect x="2" y="20" width="1" height="3" fill="#bcbcbc"/>
<rect x="1" y="21" width="1" height="2" fill="#bebebe"/>
<rect x="17" y="21" width="3" height="2" fill="#b8b8b8"/>
<rect x="3" y="21" width="1" height="2" fill="#a3a2a2"/>
<rect x="29" y="22" width="1" height="1" fill="#bbbbbb"/>
<rect x="30" y="22" width="1" height="1" fill="#bcbcbc"/>
<rect x="0" y="22" width="1" height="1" fill="#c1c1c1"/>
<rect x="7" y="22" width="3" height="1" fill="#aeaeae"/>
<rect x="14" y="22" width="3" height="1" fill="#b9b9b9"/>
<rect x="28" y="20" width="1" height="4" fill="#bebebe"/>
<rect x="31" y="20" width="1" height="4" fill="#bfbfbf"/>
<rect x="24" y="21" width="1" height="3" fill="#b9b9b9"/>
<rect x="8" y="23" width="2" height="1" fill="#aeaeae"/>
<rect x="14" y="23" width="2" height="1" fill="#b9b9b9"/>
<rect x="2" y="23" width="1" height="1" fill="#bbbcbc"/>
<rect x="13" y="23" width="1" height="1" fill="#b5b5b5"/>
<rect x="22" y="23" width="1" height="1" fill="#b5b5b5"/>
<rect x="7" y="23" width="1" height="1" fill="#afafaf"/>
<rect x="16" y="23" width="4" height="1" fill="#b8b8b8"/>
<rect x="25" y="20" width="3" height="5" fill="#c1c1c1"/>
<rect x="20" y="21" width="1" height="4" fill="#b7b7b7"/>
<rect x="10" y="22" width="3" height="3" fill="#b2b2b2"/>
<rect x="4" y="23" width="2" height="2" fill="#977e70"/>
<rect x="29" y="23" width="2" height="2" fill="#bbbbbb"/>
<rect x="6" y="23" width="1" height="2" fill="#9a8e86"/>
<rect x="3" y="23" width="1" height="2" fill="#9a8e86"/>
<rect x="31" y="24" width="1" height="1" fill="#bebebe"/>
<rect x="13" y="24" width="1" height="1" fill="#b7b7b7"/>
<rect x="28" y="24" width="1" height="1" fill="#bcbcbc"/>
<rect x="24" y="24" width="1" height="1" fill="#bbbbbb"/>
<rect x="7" y="24" width="3" height="1" fill="#aeaeae"/>
<rect x="17" y="24" width="3" height="1" fill="#b8b8b8"/>
<rect x="14" y="24" width="3" height="1" fill="#b9b9b9"/>
<rect x="2" y="24" width="1" height="2" fill="#bcbcbc"/>
<rect x="20" y="25" width="1" height="1" fill="#b3b3b3"/>
<rect x="28" y="25" width="1" height="1" fill="#b9b9b9"/>
<rect x="6" y="25" width="4" height="1" fill="#a8a8a7"/>
<rect x="3" y="25" width="1" height="1" fill="#a6a6a6"/>
<rect x="4" y="25" width="2" height="1" fill="#a9a8a8"/>
<rect x="16" y="25" width="1" height="1" fill="#b6b6b6"/>
<rect x="26" y="25" width="2" height="1" fill="#bebebe"/>
<rect x="25" y="25" width="1" height="1" fill="#bfbfbf"/>
<rect x="13" y="25" width="1" height="1" fill="#b3b3b3"/>
<rect x="23" y="25" width="1" height="1" fill="#b7b7b7"/>
<rect x="29" y="25" width="2" height="1" fill="#b8b8b8"/>
<rect x="10" y="25" width="3" height="1" fill="#aaaaaa"/>
<rect x="17" y="25" width="3" height="1" fill="#b1b1b1"/>
<rect x="21" y="25" width="2" height="1" fill="#b8b8b8"/>
<rect x="0" y="23" width="2" height="4" fill="#c1c1c1"/>
<rect x="14" y="25" width="1" height="2" fill="#b6b6b6"/>
<rect x="15" y="25" width="1" height="2" fill="#b7b7b7"/>
<rect x="2" y="26" width="1" height="1" fill="#b9b9b9"/>
<rect x="10" y="26" width="2" height="1" fill="#a9a8a8"/>
<rect x="17" y="26" width="2" height="1" fill="#b1b1b1"/>
<rect x="12" y="26" width="1" height="1" fill="#aaaaaa"/>
<rect x="19" y="26" width="1" height="1" fill="#b0b0b0"/>
<rect x="28" y="26" width="1" height="1" fill="#bbbbbb"/>
<rect x="6" y="26" width="1" height="1" fill="#a9a8a8"/>
<rect x="7" y="26" width="2" height="1" fill="#a6a6a6"/>
<rect x="9" y="26" width="1" height="2" fill="#a8a8a7"/>
<rect x="29" y="26" width="1" height="2" fill="#b8b8b8"/>
<rect x="30" y="26" width="1" height="2" fill="#b7b7b7"/>
<rect x="6" y="27" width="2" height="1" fill="#a8a8a7"/>
<rect x="1" y="27" width="1" height="1" fill="#c1c1c1"/>
<rect x="17" y="27" width="3" height="1" fill="#b0b0b0"/>
<rect x="8" y="27" width="1" height="1" fill="#a6a6a6"/>
<rect x="13" y="27" width="1" height="1" fill="#b5b5b5"/>
<rect x="0" y="27" width="1" height="1" fill="#bfbfbf"/>
<rect x="2" y="27" width="1" height="1" fill="#b7b7b7"/>
<rect x="4" y="26" width="2" height="3" fill="#afafaf"/>
<rect x="16" y="26" width="1" height="3" fill="#b5b5b5"/>
<rect x="3" y="26" width="1" height="3" fill="#adadad"/>
<rect x="25" y="26" width="3" height="3" fill="#bfbfbf"/>
<rect x="11" y="27" width="2" height="2" fill="#aaaaaa"/>
<rect x="10" y="27" width="1" height="2" fill="#a9a8a8"/>
<rect x="14" y="27" width="2" height="2" fill="#b7b7b7"/>
<rect x="1" y="28" width="1" height="1" fill="#bebebe"/>
<rect x="6" y="28" width="4" height="1" fill="#a8a8a7"/>
<rect x="17" y="28" width="2" height="1" fill="#b1b1b1"/>
<rect x="19" y="28" width="1" height="1" fill="#b0b0b0"/>
<rect x="13" y="28" width="1" height="1" fill="#b6b6b6"/>
<rect x="2" y="28" width="1" height="1" fill="#b5b4b3"/>
<rect x="31" y="25" width="1" height="5" fill="#bcbcbc"/>
<rect x="24" y="25" width="1" height="5" fill="#bcbcbc"/>
<rect x="21" y="26" width="3" height="4" fill="#b8b8b8"/>
<rect x="28" y="27" width="1" height="3" fill="#b9b9b9"/>
<rect x="0" y="28" width="1" height="2" fill="#bbbbbb"/>
<rect x="29" y="28" width="2" height="2" fill="#b8b8b8"/>
<rect x="20" y="28" width="1" height="2" fill="#b5b5b5"/>
<rect x="25" y="29" width="2" height="1" fill="#bfbfbf"/>
<rect x="27" y="29" width="1" height="1" fill="#bebebe"/>
<rect x="3" y="29" width="1" height="1" fill="#aeaeae"/>
<rect x="14" y="29" width="2" height="1" fill="#b6b6b6"/>
<rect x="5" y="29" width="1" height="1" fill="#aeaeae"/>
<rect x="11" y="29" width="1" height="1" fill="#a9a8a8"/>
<rect x="12" y="29" width="1" height="1" fill="#aaaaaa"/>
<rect x="9" y="29" width="2" height="1" fill="#a8a8a7"/>
<rect x="16" y="29" width="1" height="1" fill="#b3b3b3"/>
<rect x="17" y="29" width="3" height="1" fill="#b0b0b0"/>
<rect x="13" y="29" width="1" height="1" fill="#b5b5b5"/>
<rect x="1" y="29" width="1" height="1" fill="#b9b9b9"/>
<rect x="2" y="29" width="1" height="1" fill="#b0b0b0"/>
<rect x="4" y="29" width="1" height="1" fill="#afafaf"/>
<rect x="6" y="29" width="3" height="1" fill="#a6a6a6"/>
<rect x="24" y="30" width="1" height="1" fill="#b5b5b5"/>
<rect x="30" y="30" width="1" height="1" fill="#b3b3b3"/>
<rect x="13" y="30" width="4" height="1" fill="#a6a6a6"/>
<rect x="31" y="30" width="1" height="1" fill="#b8b8b8"/>
<rect x="3" y="30" width="1" height="1" fill="#b1b1b1"/>
<rect x="1" y="30" width="1" height="1" fill="#b8b8b8"/>
<rect x="5" y="30" width="1" height="1" fill="#aaaaaa"/>
<rect x="21" y="30" width="1" height="1" fill="#b1b1b1"/>
<rect x="4" y="30" width="1" height="1" fill="#b2b2b2"/>
<rect x="22" y="30" width="1" height="1" fill="#b0b0b0"/>
<rect x="23" y="30" width="1" height="1" fill="#b1b1b1"/>
<rect x="17" y="30" width="3" height="1" fill="#a3a2a2"/>
<rect x="20" y="30" width="1" height="2" fill="#adadad"/>
<rect x="29" y="30" width="1" height="2" fill="#b2b2b2"/>
<rect x="25" y="30" width="3" height="2" fill="#b6b6b6"/>
<rect x="2" y="30" width="1" height="2" fill="#afafaf"/>
<rect x="9" y="30" width="4" height="2" fill="#a3a2a2"/>
<rect x="0" y="30" width="1" height="2" fill="#b9b9b9"/>
<rect x="6" y="30" width="3" height="2" fill="#9a8e86"/>
<rect x="23" y="31" width="1" height="1" fill="#b0b0b0"/>
<rect x="31" y="31" width="1" height="1" fill="#b7b7b7"/>
<rect x="4" y="31" width="1" height="1" fill="#b3b3b3"/>
<rect x="1" y="31" width="1" height="1" fill="#b7b7b7"/>
<rect x="30" y="31" width="1" height="1" fill="#b1b1b1"/>
<rect x="5" y="31" width="1" height="1" fill="#a8a8a7"/>
<rect x="16" y="31" width="4" height="1" fill="#a3a2a2"/>
<rect x="3" y="31" width="1" height="1" fill="#b2b2b2"/>
<rect x="21" y="31" width="2" height="1" fill="#afafaf"/>
<rect x="13" y="31" width="3" height="1" fill="#a6a6a6"/>
<rect x="28" y="31" width="1" height="1" fill="#b3b3b3"/>
</svg>