<?xml version="1.0" encoding="UTF-8"?>
<svg xmlns="http://www.w3.org/2000/svg" width="20mm" height="20mm" viewBox="0 0 32 32" shape-rendering="crispEdges">
<title>109 正面 structured semantic redraw</title>
<metadata>registered 32-unit semantic vector redraw; no embedded raster; physical-size=20mm</metadata>
<rect x="0" y="0" width="32" height="32" fill="#68bd5b"/>
<rect x="30" y="0" width="2" height="1" fill="#679365"/>
<rect x="20" y="0" width="1" height="1" fill="#b7c5b4"/>
<rect x="29" y="0" width="1" height="1" fill="#81bd79"/>
<rect x="16" y="0" width="4" height="1" fill="#b7bcb6"/>
<rect x="21" y="0" width="1" height="1" fill="#b7bcb6"/>
<rect x="22" y="0" width="3" height="1" fill="#b7c5b4"/>
<rect x="25" y="0" width="4" height="1" fill="#9bc193"/>
<rect x="5" y="0" width="1" height="2" fill="#63b059"/>
<rect x="0" y="0" width="5" height="2" fill="#9bc193"/>
<rect x="25" y="1" width="7" height="1" fill="#80c377"/>
<rect x="24" y="1" width="1" height="1" fill="#b7c5b4"/>
<rect x="6" y="0" width="4" height="3" fill="#4fa345"/>
<rect x="11" y="0" width="4" height="3" fill="#60a955"/>
<rect x="10" y="0" width="1" height="3" fill="#55a94a"/>
<rect x="0" y="2" width="3" height="1" fill="#7eb177"/>
<rect x="30" y="2" width="2" height="1" fill="#7eb177"/>
<rect x="4" y="2" width="1" height="1" fill="#9bc193"/>
<rect x="5" y="2" width="1" height="1" fill="#60a955"/>
<rect x="3" y="2" width="1" height="1" fill="#8cba85"/>
<rect x="15" y="0" width="1" height="4" fill="#8cba85"/>
<rect x="16" y="1" width="8" height="3" fill="#b7bcb6"/>
<rect x="24" y="2" width="1" height="2" fill="#9bc193"/>
<rect x="10" y="3" width="1" height="1" fill="#60a955"/>
<rect x="9" y="3" width="1" height="1" fill="#63b059"/>
<rect x="25" y="2" width="4" height="3" fill="#80c377"/>
<rect x="24" y="4" width="1" height="1" fill="#85bf7c"/>
<rect x="20" y="4" width="1" height="1" fill="#679365"/>
<rect x="16" y="4" width="1" height="1" fill="#85bf7c"/>
<rect x="21" y="4" width="2" height="1" fill="#7eb177"/>
<rect x="23" y="4" width="1" height="1" fill="#8cba85"/>
<rect x="17" y="4" width="3" height="1" fill="#8cba85"/>
<rect x="6" y="4" width="1" height="2" fill="#81bd79"/>
<rect x="7" y="4" width="3" height="2" fill="#7eb177"/>
<rect x="24" y="5" width="1" height="1" fill="#60a955"/>
<rect x="30" y="5" width="2" height="1" fill="#63b059"/>
<rect x="29" y="5" width="1" height="1" fill="#60a955"/>
<rect x="0" y="3" width="5" height="4" fill="#41823e"/>
<rect x="5" y="3" width="1" height="4" fill="#63b059"/>
<rect x="19" y="5" width="1" height="2" fill="#81bd79"/>
<rect x="9" y="6" width="1" height="1" fill="#81bd79"/>
<rect x="6" y="6" width="3" height="1" fill="#7eb177"/>
<rect x="11" y="3" width="4" height="5" fill="#55a94a"/>
<rect x="10" y="4" width="1" height="4" fill="#63b059"/>
<rect x="1" y="7" width="4" height="1" fill="#41823e"/>
<rect x="0" y="7" width="1" height="1" fill="#4c8948"/>
<rect x="6" y="7" width="4" height="1" fill="#7eb177"/>
<rect x="5" y="7" width="1" height="1" fill="#61a358"/>
<rect x="20" y="5" width="4" height="4" fill="#4c8948"/>
<rect x="29" y="6" width="3" height="3" fill="#60a955"/>
<rect x="28" y="6" width="1" height="3" fill="#63b059"/>
<rect x="24" y="6" width="1" height="3" fill="#63b059"/>
<rect x="8" y="8" width="1" height="1" fill="#3e593a"/>
<rect x="6" y="8" width="2" height="1" fill="#375533"/>
<rect x="9" y="8" width="4" height="1" fill="#426a3d"/>
<rect x="13" y="8" width="2" height="1" fill="#4a7c45"/>
<rect x="29" y="9" width="3" height="1" fill="#4a7c45"/>
<rect x="25" y="9" width="1" height="1" fill="#375533"/>
<rect x="26" y="9" width="3" height="1" fill="#426a3d"/>
<rect x="24" y="9" width="1" height="1" fill="#3e593a"/>
<rect x="0" y="8" width="5" height="4" fill="#4cb240"/>
<rect x="10" y="9" width="1" height="3" fill="#375533"/>
<rect x="11" y="9" width="4" height="3" fill="#3e593a"/>
<rect x="24" y="10" width="1" height="2" fill="#335030"/>
<rect x="25" y="10" width="3" height="2" fill="#304e2d"/>
<rect x="28" y="10" width="4" height="2" fill="#3e593a"/>
<rect x="15" y="4" width="1" height="9" fill="#7eb177"/>
<rect x="16" y="5" width="3" height="8" fill="#85bf7c"/>
<rect x="19" y="7" width="1" height="6" fill="#7eb177"/>
<rect x="5" y="8" width="1" height="5" fill="#426a3d"/>
<rect x="20" y="9" width="4" height="4" fill="#558e52"/>
<rect x="6" y="9" width="4" height="4" fill="#335030"/>
<rect x="12" y="12" width="3" height="1" fill="#3e593a"/>
<rect x="10" y="12" width="2" height="1" fill="#375533"/>
<rect x="24" y="12" width="4" height="1" fill="#304e2d"/>
<rect x="28" y="12" width="3" height="1" fill="#3e593a"/>
<rect x="31" y="12" width="1" height="2" fill="#426a3d"/>
<rect x="28" y="13" width="3" height="1" fill="#335030"/>
<rect x="5" y="13" width="1" height="1" fill="#3e593a"/>
<rect x="24" y="13" width="3" height="1" fill="#292e29"/>
<rect x="15" y="13" width="1" height="1" fill="#60a955"/>
<rect x="19" y="13" width="1" height="1" fill="#60a955"/>
<rect x="27" y="13" width="1" height="1" fill="#2f422d"/>
<rect x="23" y="13" width="1" height="1" fill="#4c8948"/>
<rect x="11" y="13" width="3" height="2" fill="#282828"/>
<rect x="27" y="14" width="1" height="1" fill="#282828"/>
<rect x="31" y="14" width="1" height="1" fill="#3e593a"/>
<rect x="26" y="14" width="1" height="1" fill="#272728"/>
<rect x="25" y="14" width="1" height="1" fill="#282828"/>
<rect x="24" y="14" width="1" height="2" fill="#272627"/>
<rect x="31" y="15" width="1" height="1" fill="#426a3d"/>
<rect x="11" y="15" width="2" height="1" fill="#282828"/>
<rect x="13" y="15" width="1" height="1" fill="#272727"/>
<rect x="25" y="15" width="2" height="1" fill="#272727"/>
<rect x="0" y="12" width="1" height="5" fill="#52b847"/>
<rect x="1" y="12" width="4" height="5" fill="#4cb240"/>
<rect x="10" y="13" width="1" height="4" fill="#292e29"/>
<rect x="6" y="13" width="4" height="4" fill="#304e2d"/>
<rect x="14" y="13" width="1" height="4" fill="#292e29"/>
<rect x="20" y="13" width="3" height="4" fill="#4fa345"/>
<rect x="19" y="14" width="1" height="3" fill="#55a94a"/>
<rect x="28" y="14" width="3" height="3" fill="#2f422d"/>
<rect x="15" y="14" width="1" height="3" fill="#63b059"/>
<rect x="23" y="14" width="1" height="3" fill="#41823e"/>
<rect x="5" y="14" width="1" height="3" fill="#375533"/>
<rect x="27" y="15" width="1" height="2" fill="#292e29"/>
<rect x="11" y="16" width="2" height="1" fill="#272727"/>
<rect x="13" y="16" width="1" height="1" fill="#272627"/>
<rect x="24" y="16" width="3" height="1" fill="#272727"/>
<rect x="31" y="16" width="1" height="1" fill="#4a7c45"/>
<rect x="0" y="17" width="1" height="1" fill="#80c377"/>
<rect x="10" y="17" width="5" height="1" fill="#5d875a"/>
<rect x="24" y="17" width="1" height="1" fill="#679365"/>
<rect x="19" y="17" width="4" height="1" fill="#426a3d"/>
<rect x="31" y="17" width="1" height="1" fill="#4c8948"/>
<rect x="6" y="17" width="4" height="1" fill="#4c8948"/>
<rect x="23" y="17" width="1" height="1" fill="#4a7c45"/>
<rect x="28" y="17" width="3" height="1" fill="#3e593a"/>
<rect x="15" y="17" width="4" height="1" fill="#41823e"/>
<rect x="5" y="17" width="1" height="1" fill="#558e52"/>
<rect x="25" y="17" width="3" height="1" fill="#5d875a"/>
<rect x="0" y="18" width="5" height="1" fill="#81bd79"/>
<rect x="27" y="18" width="1" height="2" fill="#7eb177"/>
<rect x="10" y="18" width="1" height="3" fill="#81bd79"/>
<rect x="24" y="18" width="3" height="3" fill="#b7bcb6"/>
<rect x="6" y="18" width="4" height="3" fill="#61a358"/>
<rect x="5" y="18" width="1" height="3" fill="#63b059"/>
<rect x="11" y="18" width="3" height="3" fill="#85bf7c"/>
<rect x="14" y="18" width="1" height="3" fill="#7eb177"/>
<rect x="23" y="18" width="1" height="3" fill="#679365"/>
<rect x="31" y="18" width="1" height="3" fill="#55a94a"/>
<rect x="15" y="18" width="8" height="3" fill="#304e2d"/>
<rect x="28" y="18" width="3" height="3" fill="#4a7c45"/>
<rect x="27" y="20" width="1" height="1" fill="#679365"/>
<rect x="1" y="19" width="4" height="3" fill="#81bd79"/>
<rect x="0" y="19" width="1" height="3" fill="#85bf7c"/>
<rect x="31" y="21" width="1" height="1" fill="#8cba85"/>
<rect x="10" y="21" width="4" height="1" fill="#679365"/>
<rect x="24" y="21" width="3" height="1" fill="#679365"/>
<rect x="14" y="21" width="1" height="1" fill="#5d875a"/>
<rect x="15" y="21" width="8" height="1" fill="#2f422d"/>
<rect x="28" y="21" width="3" height="1" fill="#55a94a"/>
<rect x="5" y="21" width="5" height="1" fill="#61a358"/>
<rect x="27" y="21" width="1" height="1" fill="#61a358"/>
<rect x="23" y="21" width="1" height="1" fill="#4a7c45"/>
<rect x="14" y="22" width="1" height="1" fill="#335030"/>
<rect x="18" y="22" width="1" height="1" fill="#272727"/>
<rect x="23" y="22" width="1" height="1" fill="#2f422d"/>
<rect x="26" y="22" width="1" height="1" fill="#304e2d"/>
<rect x="7" y="22" width="1" height="1" fill="#558e52"/>
<rect x="6" y="22" width="1" height="1" fill="#4c8948"/>
<rect x="27" y="22" width="1" height="1" fill="#55a94a"/>
<rect x="1" y="22" width="1" height="1" fill="#8cba85"/>
<rect x="20" y="22" width="1" height="1" fill="#272727"/>
<rect x="19" y="22" width="1" height="1" fill="#282828"/>
<rect x="0" y="22" width="1" height="1" fill="#9bc193"/>
<rect x="5" y="22" width="1" height="1" fill="#558e52"/>
<rect x="21" y="22" width="1" height="1" fill="#282728"/>
<rect x="8" y="22" width="2" height="1" fill="#4c8948"/>
<rect x="22" y="22" width="1" height="1" fill="#272727"/>
<rect x="3" y="22" width="2" height="1" fill="#8cba85"/>
<rect x="2" y="22" width="1" height="1" fill="#9bc193"/>
<rect x="24" y="22" width="2" height="1" fill="#335030"/>
<rect x="16" y="22" width="2" height="2" fill="#282828"/>
<rect x="27" y="23" width="1" height="1" fill="#60a955"/>
<rect x="18" y="23" width="2" height="1" fill="#272727"/>
<rect x="4" y="23" width="1" height="1" fill="#8cba85"/>
<rect x="20" y="23" width="1" height="1" fill="#282828"/>
<rect x="3" y="23" width="1" height="1" fill="#9bc193"/>
<rect x="21" y="23" width="2" height="1" fill="#272727"/>
<rect x="10" y="22" width="4" height="3" fill="#3e593a"/>
<rect x="31" y="22" width="1" height="3" fill="#b7bcb6"/>
<rect x="15" y="22" width="1" height="3" fill="#272727"/>
<rect x="2" y="23" width="1" height="2" fill="#8cba85"/>
<rect x="23" y="23" width="1" height="2" fill="#304e2d"/>
<rect x="24" y="23" width="3" height="2" fill="#335030"/>
<rect x="0" y="23" width="2" height="2" fill="#9bc193"/>
<rect x="27" y="24" width="1" height="1" fill="#63b059"/>
<rect x="17" y="24" width="6" height="1" fill="#272727"/>
<rect x="16" y="24" width="1" height="1" fill="#282828"/>
<rect x="3" y="24" width="2" height="1" fill="#9bc193"/>
<rect x="9" y="23" width="1" height="3" fill="#4c8948"/>
<rect x="5" y="23" width="4" height="3" fill="#558e52"/>
<rect x="14" y="23" width="1" height="3" fill="#2f422d"/>
<rect x="20" y="25" width="1" height="1" fill="#282828"/>
<rect x="12" y="25" width="2" height="1" fill="#375533"/>
<rect x="21" y="25" width="2" height="1" fill="#272727"/>
<rect x="15" y="25" width="1" height="1" fill="#282828"/>
<rect x="27" y="25" width="4" height="1" fill="#60a955"/>
<rect x="23" y="25" width="3" height="1" fill="#292e29"/>
<rect x="1" y="25" width="4" height="1" fill="#8cba85"/>
<rect x="26" y="25" width="1" height="1" fill="#2f422d"/>
<rect x="10" y="25" width="2" height="1" fill="#3e593a"/>
<rect x="16" y="25" width="4" height="1" fill="#272727"/>
<rect x="0" y="25" width="1" height="1" fill="#9bc193"/>
<rect x="31" y="25" width="1" height="1" fill="#558e52"/>
<rect x="17" y="26" width="1" height="1" fill="#272727"/>
<rect x="10" y="26" width="1" height="1" fill="#292e29"/>
<rect x="0" y="26" width="4" height="1" fill="#9bc193"/>
<rect x="4" y="26" width="1" height="1" fill="#b7c5b4"/>
<rect x="31" y="26" width="1" height="1" fill="#4c8948"/>
<rect x="11" y="26" width="2" height="1" fill="#282828"/>
<rect x="15" y="26" width="2" height="1" fill="#282828"/>
<rect x="20" y="26" width="6" height="1" fill="#272727"/>
<rect x="13" y="26" width="1" height="1" fill="#272727"/>
<rect x="14" y="26" width="1" height="1" fill="#282728"/>
<rect x="18" y="26" width="2" height="1" fill="#282828"/>
<rect x="30" y="26" width="1" height="1" fill="#55a94a"/>
<rect x="26" y="26" width="1" height="1" fill="#292e29"/>
<rect x="27" y="26" width="3" height="2" fill="#60a955"/>
<rect x="21" y="27" width="4" height="1" fill="#272727"/>
<rect x="26" y="27" width="1" height="1" fill="#2f422d"/>
<rect x="30" y="27" width="2" height="1" fill="#558e52"/>
<rect x="10" y="27" width="6" height="1" fill="#282828"/>
<rect x="20" y="27" width="1" height="1" fill="#282828"/>
<rect x="16" y="27" width="4" height="1" fill="#272727"/>
<rect x="25" y="27" width="1" height="2" fill="#282828"/>
<rect x="23" y="28" width="2" height="1" fill="#272727"/>
<rect x="27" y="28" width="4" height="1" fill="#55a94a"/>
<rect x="26" y="28" width="1" height="1" fill="#335030"/>
<rect x="15" y="28" width="7" height="1" fill="#272727"/>
<rect x="13" y="28" width="1" height="1" fill="#272727"/>
<rect x="10" y="28" width="3" height="1" fill="#282828"/>
<rect x="22" y="28" width="1" height="1" fill="#272627"/>
<rect x="31" y="28" width="1" height="1" fill="#558e52"/>
<rect x="14" y="28" width="1" height="1" fill="#282828"/>
<rect x="9" y="26" width="1" height="4" fill="#5d875a"/>
<rect x="5" y="26" width="4" height="4" fill="#679365"/>
<rect x="0" y="27" width="5" height="3" fill="#b7c5b4"/>
<rect x="17" y="29" width="1" height="1" fill="#426a3d"/>
<rect x="25" y="29" width="1" height="1" fill="#304e2d"/>
<rect x="18" y="29" width="1" height="1" fill="#4a7c45"/>
<rect x="19" y="29" width="1" height="1" fill="#5d875a"/>
<rect x="20" y="29" width="3" height="1" fill="#679365"/>
<rect x="15" y="29" width="2" height="1" fill="#3e593a"/>
<rect x="30" y="29" width="1" height="1" fill="#55a94a"/>
<rect x="26" y="29" width="1" height="1" fill="#375533"/>
<rect x="14" y="29" width="1" height="1" fill="#2f422d"/>
<rect x="10" y="29" width="4" height="1" fill="#282828"/>
<rect x="23" y="29" width="2" height="1" fill="#2f422d"/>
<rect x="26" y="30" width="1" height="1" fill="#3e593a"/>
<rect x="2" y="30" width="1" height="1" fill="#8cba85"/>
<rect x="4" y="30" width="1" height="1" fill="#80c377"/>
<rect x="30" y="30" width="1" height="1" fill="#60a955"/>
<rect x="9" y="30" width="1" height="1" fill="#63b059"/>
<rect x="14" y="30" width="1" height="1" fill="#5d875a"/>
<rect x="22" y="30" width="1" height="1" fill="#7eb177"/>
<rect x="3" y="30" width="1" height="1" fill="#85bf7c"/>
<rect x="0" y="30" width="2" height="1" fill="#9bc193"/>
<rect x="27" y="29" width="3" height="3" fill="#41823e"/>
<rect x="19" y="30" width="3" height="2" fill="#9bc193"/>
<rect x="10" y="30" width="4" height="2" fill="#2f422d"/>
<rect x="15" y="30" width="3" height="2" fill="#85bf7c"/>
<rect x="23" y="30" width="3" height="2" fill="#304e2d"/>
<rect x="18" y="30" width="1" height="2" fill="#8cba85"/>
<rect x="30" y="31" width="1" height="1" fill="#63b059"/>
<rect x="5" y="31" width="4" height="1" fill="#80c377"/>
<rect x="14" y="31" width="1" height="1" fill="#679365"/>
<rect x="26" y="31" width="1" height="1" fill="#426a3d"/>
<rect x="22" y="31" width="1" height="1" fill="#679365"/>
</svg>