<?xml version="1.0" encoding="UTF-8"?>
<svg xmlns="http://www.w3.org/2000/svg" width="20mm" height="20mm" viewBox="0 0 32 32" shape-rendering="crispEdges">
<title>131 右侧面 structured semantic redraw</title>
<metadata>registered 32-unit semantic vector redraw; no embedded raster; physical-size=20mm</metadata>
<rect x="0" y="0" width="32" height="32" fill="#4d6445"/>
<rect x="15" y="0" width="1" height="1" fill="#485c42"/>
<rect x="18" y="0" width="1" height="1" fill="#485c42"/>
<rect x="16" y="0" width="1" height="1" fill="#495e43"/>
<rect x="0" y="0" width="9" height="1" fill="#53694b"/>
<rect x="17" y="0" width="1" height="1" fill="#495d43"/>
<rect x="9" y="0" width="1" height="1" fill="#4d6246"/>
<rect x="11" y="0" width="4" height="1" fill="#465940"/>
<rect x="10" y="0" width="1" height="1" fill="#4a5e44"/>
<rect x="18" y="1" width="1" height="1" fill="#495d43"/>
<rect x="1" y="1" width="1" height="1" fill="#4b5d45"/>
<rect x="8" y="1" width="1" height="1" fill="#495d43"/>
<rect x="0" y="1" width="1" height="1" fill="#4d5f47"/>
<rect x="9" y="1" width="1" height="1" fill="#485c42"/>
<rect x="4" y="1" width="4" height="1" fill="#495e43"/>
<rect x="10" y="1" width="1" height="1" fill="#495d43"/>
<rect x="11" y="1" width="1" height="1" fill="#475941"/>
<rect x="16" y="1" width="2" height="1" fill="#495e43"/>
<rect x="22" y="1" width="3" height="1" fill="#4d6246"/>
<rect x="27" y="1" width="1" height="1" fill="#4d6246"/>
<rect x="14" y="1" width="1" height="1" fill="#475942"/>
<rect x="12" y="1" width="2" height="1" fill="#465940"/>
<rect x="2" y="1" width="1" height="1" fill="#485b43"/>
<rect x="19" y="0" width="1" height="3" fill="#4b6144"/>
<rect x="15" y="1" width="1" height="2" fill="#495d43"/>
<rect x="3" y="1" width="1" height="2" fill="#485c42"/>
<rect x="18" y="2" width="1" height="1" fill="#495e43"/>
<rect x="26" y="2" width="1" height="1" fill="#4b6144"/>
<rect x="9" y="2" width="2" height="1" fill="#495d43"/>
<rect x="4" y="2" width="1" height="1" fill="#4a5e44"/>
<rect x="17" y="2" width="1" height="1" fill="#495d43"/>
<rect x="24" y="2" width="2" height="1" fill="#4d6246"/>
<rect x="1" y="2" width="2" height="1" fill="#475942"/>
<rect x="12" y="2" width="1" height="1" fill="#465940"/>
<rect x="13" y="2" width="2" height="1" fill="#475942"/>
<rect x="16" y="2" width="1" height="1" fill="#495e43"/>
<rect x="29" y="2" width="2" height="1" fill="#4b6144"/>
<rect x="27" y="2" width="1" height="1" fill="#4a5e44"/>
<rect x="8" y="2" width="1" height="1" fill="#495e43"/>
<rect x="28" y="2" width="1" height="1" fill="#4d6246"/>
<rect x="31" y="2" width="1" height="1" fill="#4a5e44"/>
<rect x="6" y="2" width="2" height="1" fill="#495d43"/>
<rect x="11" y="2" width="1" height="2" fill="#475a42"/>
<rect x="0" y="2" width="1" height="2" fill="#43553f"/>
<rect x="5" y="2" width="1" height="2" fill="#495e43"/>
<rect x="4" y="3" width="1" height="1" fill="#495d43"/>
<rect x="15" y="3" width="5" height="1" fill="#485c42"/>
<rect x="24" y="3" width="4" height="1" fill="#485a43"/>
<rect x="12" y="3" width="3" height="1" fill="#475942"/>
<rect x="21" y="3" width="1" height="1" fill="#485c42"/>
<rect x="29" y="3" width="3" height="1" fill="#4a5e44"/>
<rect x="22" y="3" width="2" height="1" fill="#485b43"/>
<rect x="6" y="3" width="1" height="1" fill="#4a5e44"/>
<rect x="20" y="3" width="1" height="1" fill="#495d43"/>
<rect x="28" y="3" width="1" height="1" fill="#4b5d45"/>
<rect x="2" y="3" width="1" height="1" fill="#475a42"/>
<rect x="7" y="3" width="4" height="1" fill="#495d43"/>
<rect x="3" y="3" width="1" height="2" fill="#485b43"/>
<rect x="1" y="3" width="1" height="2" fill="#475942"/>
<rect x="13" y="4" width="1" height="1" fill="#465940"/>
<rect x="4" y="4" width="3" height="1" fill="#495d43"/>
<rect x="8" y="4" width="2" height="1" fill="#485b43"/>
<rect x="22" y="4" width="1" height="1" fill="#485a43"/>
<rect x="24" y="4" width="2" height="1" fill="#485a43"/>
<rect x="10" y="4" width="2" height="1" fill="#475a42"/>
<rect x="12" y="4" width="1" height="1" fill="#475942"/>
<rect x="14" y="4" width="2" height="1" fill="#475a42"/>
<rect x="16" y="4" width="6" height="1" fill="#475942"/>
<rect x="7" y="4" width="1" height="1" fill="#485c42"/>
<rect x="0" y="4" width="1" height="1" fill="#475842"/>
<rect x="23" y="4" width="1" height="1" fill="#485943"/>
<rect x="28" y="4" width="4" height="2" fill="#4a5e44"/>
<rect x="2" y="4" width="1" height="2" fill="#485a43"/>
<rect x="26" y="4" width="2" height="2" fill="#485a44"/>
<rect x="23" y="5" width="2" height="1" fill="#485a43"/>
<rect x="25" y="5" width="1" height="1" fill="#4a5b44"/>
<rect x="20" y="5" width="1" height="1" fill="#475a42"/>
<rect x="5" y="5" width="3" height="1" fill="#475942"/>
<rect x="0" y="5" width="1" height="1" fill="#485a44"/>
<rect x="22" y="5" width="1" height="1" fill="#475a42"/>
<rect x="13" y="5" width="4" height="1" fill="#475942"/>
<rect x="21" y="5" width="1" height="1" fill="#485a43"/>
<rect x="8" y="5" width="1" height="1" fill="#465940"/>
<rect x="18" y="5" width="2" height="1" fill="#475942"/>
<rect x="11" y="5" width="2" height="1" fill="#465940"/>
<rect x="1" y="5" width="1" height="1" fill="#475842"/>
<rect x="9" y="5" width="2" height="1" fill="#475942"/>
<rect x="17" y="5" width="1" height="1" fill="#475a42"/>
<rect x="3" y="5" width="2" height="2" fill="#475a42"/>
<rect x="28" y="6" width="2" height="1" fill="#4a5e44"/>
<rect x="18" y="6" width="1" height="1" fill="#485a43"/>
<rect x="13" y="6" width="2" height="1" fill="#475a42"/>
<rect x="17" y="6" width="1" height="1" fill="#475942"/>
<rect x="9" y="6" width="1" height="1" fill="#465940"/>
<rect x="0" y="6" width="1" height="1" fill="#4b5d45"/>
<rect x="10" y="6" width="1" height="1" fill="#475942"/>
<rect x="27" y="6" width="1" height="1" fill="#485943"/>
<rect x="25" y="6" width="1" height="1" fill="#485a44"/>
<rect x="8" y="6" width="1" height="1" fill="#475a42"/>
<rect x="26" y="6" width="1" height="1" fill="#485b43"/>
<rect x="24" y="6" width="1" height="1" fill="#4a5b44"/>
<rect x="15" y="6" width="1" height="1" fill="#475942"/>
<rect x="2" y="6" width="1" height="1" fill="#475942"/>
<rect x="30" y="6" width="1" height="1" fill="#4b5d45"/>
<rect x="16" y="6" width="1" height="1" fill="#485a43"/>
<rect x="7" y="6" width="1" height="1" fill="#475942"/>
<rect x="5" y="6" width="1" height="1" fill="#485a43"/>
<rect x="19" y="6" width="1" height="1" fill="#475a42"/>
<rect x="31" y="6" width="1" height="1" fill="#4a5e44"/>
<rect x="20" y="6" width="4" height="1" fill="#485a43"/>
<rect x="11" y="6" width="1" height="2" fill="#465940"/>
<rect x="6" y="6" width="1" height="2" fill="#475a42"/>
<rect x="1" y="6" width="1" height="2" fill="#465940"/>
<rect x="12" y="6" width="1" height="2" fill="#475942"/>
<rect x="5" y="7" width="1" height="1" fill="#475942"/>
<rect x="30" y="7" width="2" height="1" fill="#485b43"/>
<rect x="26" y="7" width="2" height="1" fill="#485a43"/>
<rect x="22" y="7" width="1" height="1" fill="#485943"/>
<rect x="2" y="7" width="3" height="1" fill="#475a42"/>
<rect x="19" y="7" width="3" height="1" fill="#485a43"/>
<rect x="14" y="7" width="1" height="1" fill="#475942"/>
<rect x="7" y="7" width="4" height="1" fill="#475942"/>
<rect x="23" y="7" width="2" height="1" fill="#485a43"/>
<rect x="29" y="7" width="1" height="1" fill="#4a5b44"/>
<rect x="18" y="7" width="1" height="1" fill="#475a42"/>
<rect x="13" y="7" width="1" height="1" fill="#465940"/>
<rect x="16" y="7" width="2" height="1" fill="#485943"/>
<rect x="25" y="7" width="1" height="1" fill="#485b43"/>
<rect x="28" y="7" width="1" height="1" fill="#495d43"/>
<rect x="15" y="7" width="1" height="1" fill="#475a42"/>
<rect x="29" y="8" width="1" height="1" fill="#485a44"/>
<rect x="4" y="8" width="1" height="1" fill="#485a42"/>
<rect x="27" y="8" width="1" height="1" fill="#485a44"/>
<rect x="30" y="8" width="2" height="1" fill="#485a43"/>
<rect x="12" y="8" width="5" height="1" fill="#475842"/>
<rect x="2" y="8" width="1" height="1" fill="#485a43"/>
<rect x="28" y="8" width="1" height="1" fill="#485a43"/>
<rect x="17" y="8" width="3" height="1" fill="#465542"/>
<rect x="5" y="8" width="1" height="1" fill="#475a42"/>
<rect x="24" y="8" width="1" height="1" fill="#485a43"/>
<rect x="26" y="8" width="1" height="1" fill="#485a43"/>
<rect x="9" y="8" width="3" height="1" fill="#475942"/>
<rect x="23" y="8" width="1" height="1" fill="#465542"/>
<rect x="8" y="8" width="1" height="1" fill="#465940"/>
<rect x="6" y="8" width="2" height="1" fill="#475942"/>
<rect x="20" y="8" width="2" height="1" fill="#455341"/>
<rect x="3" y="8" width="1" height="1" fill="#475942"/>
<rect x="22" y="8" width="1" height="1" fill="#445241"/>
<rect x="25" y="8" width="1" height="1" fill="#4a5b44"/>
<rect x="0" y="7" width="1" height="3" fill="#4d5f47"/>
<rect x="12" y="9" width="2" height="1" fill="#455341"/>
<rect x="15" y="9" width="5" height="1" fill="#455341"/>
<rect x="29" y="9" width="2" height="1" fill="#485a43"/>
<rect x="7" y="9" width="1" height="1" fill="#475a42"/>
<rect x="14" y="9" width="1" height="1" fill="#445241"/>
<rect x="3" y="9" width="3" height="1" fill="#475a42"/>
<rect x="31" y="9" width="1" height="1" fill="#475a42"/>
<rect x="8" y="9" width="3" height="1" fill="#495d43"/>
<rect x="27" y="9" width="1" height="1" fill="#485b43"/>
<rect x="28" y="9" width="1" height="1" fill="#485a44"/>
<rect x="11" y="9" width="1" height="1" fill="#475842"/>
<rect x="25" y="9" width="2" height="1" fill="#485a44"/>
<rect x="6" y="9" width="1" height="1" fill="#485a42"/>
<rect x="24" y="9" width="1" height="2" fill="#4a5b44"/>
<rect x="2" y="9" width="1" height="2" fill="#475942"/>
<rect x="11" y="10" width="1" height="1" fill="#475942"/>
<rect x="13" y="10" width="7" height="1" fill="#455341"/>
<rect x="5" y="10" width="2" height="1" fill="#475942"/>
<rect x="25" y="10" width="7" height="1" fill="#485a43"/>
<rect x="7" y="10" width="1" height="1" fill="#485a43"/>
<rect x="3" y="10" width="2" height="1" fill="#475a42"/>
<rect x="20" y="9" width="3" height="3" fill="#445241"/>
<rect x="8" y="10" width="3" height="2" fill="#495e43"/>
<rect x="0" y="10" width="1" height="2" fill="#53694b"/>
<rect x="15" y="11" width="3" height="1" fill="#455341"/>
<rect x="11" y="11" width="1" height="1" fill="#485943"/>
<rect x="14" y="11" width="1" height="1" fill="#445241"/>
<rect x="24" y="11" width="2" height="1" fill="#485a44"/>
<rect x="2" y="11" width="1" height="1" fill="#485a43"/>
<rect x="3" y="11" width="2" height="1" fill="#475942"/>
<rect x="18" y="11" width="1" height="1" fill="#465542"/>
<rect x="6" y="11" width="1" height="1" fill="#485943"/>
<rect x="26" y="11" width="5" height="1" fill="#485a43"/>
<rect x="13" y="11" width="1" height="1" fill="#455341"/>
<rect x="5" y="11" width="1" height="1" fill="#485a43"/>
<rect x="19" y="11" width="1" height="1" fill="#455341"/>
<rect x="23" y="9" width="1" height="4" fill="#455341"/>
<rect x="12" y="10" width="1" height="3" fill="#445241"/>
<rect x="7" y="11" width="1" height="2" fill="#475a42"/>
<rect x="31" y="11" width="1" height="2" fill="#475a42"/>
<rect x="29" y="12" width="1" height="1" fill="#485943"/>
<rect x="10" y="12" width="1" height="1" fill="#495e43"/>
<rect x="6" y="12" width="1" height="1" fill="#475942"/>
<rect x="8" y="12" width="1" height="1" fill="#495d43"/>
<rect x="19" y="12" width="1" height="1" fill="#445241"/>
<rect x="5" y="12" width="1" height="1" fill="#475a42"/>
<rect x="9" y="12" width="1" height="1" fill="#4a5e44"/>
<rect x="13" y="12" width="6" height="1" fill="#455341"/>
<rect x="30" y="12" width="1" height="1" fill="#485a43"/>
<rect x="11" y="12" width="1" height="1" fill="#485a43"/>
<rect x="24" y="12" width="4" height="1" fill="#495d43"/>
<rect x="21" y="12" width="2" height="1" fill="#445241"/>
<rect x="2" y="12" width="3" height="1" fill="#475942"/>
<rect x="20" y="12" width="1" height="1" fill="#445140"/>
<rect x="1" y="8" width="1" height="6" fill="#43553f"/>
<rect x="28" y="12" width="1" height="2" fill="#485a43"/>
<rect x="0" y="12" width="1" height="2" fill="#4d6246"/>
<rect x="9" y="13" width="2" height="1" fill="#475842"/>
<rect x="15" y="13" width="2" height="1" fill="#434e40"/>
<rect x="3" y="13" width="1" height="1" fill="#485943"/>
<rect x="14" y="13" width="1" height="1" fill="#434f40"/>
<rect x="17" y="13" width="2" height="1" fill="#424d3f"/>
<rect x="20" y="13" width="2" height="1" fill="#465542"/>
<rect x="11" y="13" width="1" height="1" fill="#455341"/>
<rect x="22" y="13" width="1" height="1" fill="#455341"/>
<rect x="19" y="13" width="1" height="1" fill="#434f40"/>
<rect x="2" y="13" width="1" height="1" fill="#475942"/>
<rect x="13" y="13" width="1" height="1" fill="#43503f"/>
<rect x="29" y="13" width="2" height="1" fill="#485943"/>
<rect x="6" y="13" width="2" height="1" fill="#475842"/>
<rect x="4" y="13" width="2" height="1" fill="#475942"/>
<rect x="31" y="13" width="1" height="1" fill="#485a43"/>
<rect x="12" y="13" width="1" height="1" fill="#434f40"/>
<rect x="8" y="13" width="1" height="1" fill="#475942"/>
<rect x="2" y="14" width="4" height="1" fill="#445241"/>
<rect x="11" y="14" width="1" height="1" fill="#424e40"/>
<rect x="28" y="14" width="3" height="1" fill="#485a43"/>
<rect x="31" y="14" width="1" height="1" fill="#475a42"/>
<rect x="8" y="14" width="1" height="1" fill="#424e40"/>
<rect x="12" y="14" width="1" height="1" fill="#424d3f"/>
<rect x="9" y="14" width="2" height="1" fill="#424d3f"/>
<rect x="14" y="14" width="1" height="1" fill="#424e40"/>
<rect x="15" y="14" width="1" height="1" fill="#434e40"/>
<rect x="0" y="14" width="1" height="1" fill="#4d5f47"/>
<rect x="6" y="14" width="2" height="1" fill="#445140"/>
<rect x="24" y="13" width="4" height="3" fill="#4a5e44"/>
<rect x="1" y="14" width="1" height="2" fill="#414c3f"/>
<rect x="14" y="15" width="2" height="1" fill="#424e40"/>
<rect x="0" y="15" width="1" height="1" fill="#4b5d45"/>
<rect x="29" y="15" width="1" height="1" fill="#485a43"/>
<rect x="8" y="15" width="5" height="1" fill="#424d3f"/>
<rect x="23" y="13" width="1" height="4" fill="#465542"/>
<rect x="16" y="14" width="3" height="3" fill="#424c3f"/>
<rect x="21" y="14" width="2" height="3" fill="#455341"/>
<rect x="13" y="14" width="1" height="3" fill="#434e40"/>
<rect x="20" y="14" width="1" height="3" fill="#465542"/>
<rect x="30" y="15" width="1" height="2" fill="#475a42"/>
<rect x="5" y="15" width="1" height="2" fill="#445140"/>
<rect x="6" y="15" width="1" height="2" fill="#445241"/>
<rect x="28" y="15" width="1" height="2" fill="#485b43"/>
<rect x="3" y="15" width="2" height="2" fill="#445241"/>
<rect x="31" y="15" width="1" height="2" fill="#485b43"/>
<rect x="9" y="16" width="1" height="1" fill="#424d3f"/>
<rect x="10" y="16" width="2" height="1" fill="#424e40"/>
<rect x="14" y="16" width="1" height="1" fill="#434f40"/>
<rect x="8" y="16" width="1" height="1" fill="#424e40"/>
<rect x="1" y="16" width="1" height="1" fill="#43503f"/>
<rect x="26" y="16" width="1" height="1" fill="#495e43"/>
<rect x="0" y="16" width="1" height="1" fill="#495d43"/>
<rect x="15" y="16" width="1" height="1" fill="#434e40"/>
<rect x="27" y="16" width="1" height="1" fill="#4a5e44"/>
<rect x="29" y="16" width="1" height="1" fill="#475942"/>
<rect x="24" y="16" width="2" height="1" fill="#4a5e44"/>
<rect x="19" y="14" width="1" height="4" fill="#434e40"/>
<rect x="2" y="15" width="1" height="3" fill="#445140"/>
<rect x="7" y="15" width="1" height="3" fill="#445140"/>
<rect x="12" y="16" width="1" height="2" fill="#424d3f"/>
<rect x="11" y="17" width="1" height="1" fill="#434e40"/>
<rect x="14" y="17" width="5" height="1" fill="#424d3f"/>
<rect x="1" y="17" width="1" height="1" fill="#445241"/>
<rect x="29" y="17" width="3" height="1" fill="#485a43"/>
<rect x="5" y="17" width="2" height="1" fill="#445241"/>
<rect x="27" y="17" width="1" height="1" fill="#455341"/>
<rect x="13" y="17" width="1" height="1" fill="#424e40"/>
<rect x="8" y="17" width="3" height="1" fill="#424e40"/>
<rect x="4" y="17" width="1" height="1" fill="#445140"/>
<rect x="24" y="17" width="3" height="1" fill="#465542"/>
<rect x="3" y="17" width="1" height="1" fill="#445241"/>
<rect x="23" y="17" width="1" height="1" fill="#43503f"/>
<rect x="20" y="17" width="3" height="1" fill="#445140"/>
<rect x="8" y="18" width="3" height="1" fill="#414c3f"/>
<rect x="3" y="18" width="1" height="1" fill="#445140"/>
<rect x="21" y="18" width="1" height="1" fill="#434f40"/>
<rect x="1" y="18" width="1" height="1" fill="#465542"/>
<rect x="6" y="18" width="1" height="1" fill="#424c3f"/>
<rect x="7" y="18" width="1" height="1" fill="#424d3f"/>
<rect x="16" y="18" width="3" height="1" fill="#434e40"/>
<rect x="31" y="18" width="1" height="1" fill="#475a42"/>
<rect x="29" y="18" width="1" height="1" fill="#485a42"/>
<rect x="24" y="18" width="3" height="1" fill="#445241"/>
<rect x="5" y="18" width="1" height="1" fill="#424d3f"/>
<rect x="4" y="18" width="1" height="1" fill="#43503f"/>
<rect x="0" y="17" width="1" height="3" fill="#465940"/>
<rect x="27" y="18" width="1" height="2" fill="#445140"/>
<rect x="19" y="18" width="2" height="2" fill="#424e40"/>
<rect x="11" y="18" width="5" height="2" fill="#424c3f"/>
<rect x="30" y="18" width="1" height="2" fill="#485a43"/>
<rect x="22" y="18" width="2" height="2" fill="#424e40"/>
<rect x="6" y="19" width="3" height="1" fill="#414c3f"/>
<rect x="10" y="19" width="1" height="1" fill="#414c3f"/>
<rect x="24" y="19" width="2" height="1" fill="#445140"/>
<rect x="21" y="19" width="1" height="1" fill="#434e40"/>
<rect x="16" y="19" width="1" height="1" fill="#424e40"/>
<rect x="9" y="19" width="1" height="1" fill="#424c3f"/>
<rect x="4" y="19" width="1" height="1" fill="#445140"/>
<rect x="26" y="19" width="1" height="1" fill="#445241"/>
<rect x="29" y="19" width="1" height="1" fill="#475942"/>
<rect x="17" y="19" width="2" height="1" fill="#434e40"/>
<rect x="5" y="19" width="1" height="1" fill="#424c3f"/>
<rect x="28" y="17" width="1" height="4" fill="#475842"/>
<rect x="2" y="18" width="1" height="3" fill="#43503f"/>
<rect x="31" y="19" width="1" height="2" fill="#485b43"/>
<rect x="1" y="19" width="1" height="2" fill="#4a5b44"/>
<rect x="27" y="20" width="1" height="1" fill="#445241"/>
<rect x="5" y="20" width="3" height="1" fill="#424c3f"/>
<rect x="8" y="20" width="3" height="1" fill="#414c3f"/>
<rect x="21" y="20" width="2" height="1" fill="#434e40"/>
<rect x="17" y="20" width="1" height="1" fill="#434f40"/>
<rect x="20" y="20" width="1" height="1" fill="#424e40"/>
<rect x="16" y="20" width="1" height="1" fill="#434e40"/>
<rect x="0" y="20" width="1" height="1" fill="#43553f"/>
<rect x="12" y="20" width="2" height="1" fill="#414c3f"/>
<rect x="29" y="20" width="1" height="1" fill="#485a42"/>
<rect x="19" y="20" width="1" height="1" fill="#434e40"/>
<rect x="11" y="20" width="1" height="1" fill="#424c3f"/>
<rect x="14" y="20" width="2" height="1" fill="#424c3f"/>
<rect x="18" y="20" width="1" height="1" fill="#424e40"/>
<rect x="30" y="20" width="1" height="1" fill="#475942"/>
<rect x="24" y="20" width="3" height="1" fill="#445140"/>
<rect x="23" y="20" width="1" height="1" fill="#424e40"/>
<rect x="3" y="19" width="1" height="3" fill="#445241"/>
<rect x="4" y="20" width="1" height="2" fill="#43503f"/>
<rect x="19" y="21" width="4" height="1" fill="#434f40"/>
<rect x="29" y="21" width="2" height="1" fill="#495d43"/>
<rect x="28" y="21" width="1" height="1" fill="#485c42"/>
<rect x="16" y="21" width="3" height="1" fill="#434e40"/>
<rect x="26" y="21" width="2" height="1" fill="#475842"/>
<rect x="2" y="21" width="1" height="1" fill="#424d3f"/>
<rect x="31" y="21" width="1" height="1" fill="#4a5e44"/>
<rect x="10" y="21" width="1" height="1" fill="#414c3f"/>
<rect x="5" y="21" width="5" height="1" fill="#424c3f"/>
<rect x="23" y="21" width="1" height="1" fill="#43503f"/>
<rect x="24" y="21" width="2" height="1" fill="#465542"/>
<rect x="11" y="21" width="5" height="1" fill="#424c3f"/>
<rect x="2" y="22" width="1" height="1" fill="#43553f"/>
<rect x="20" y="22" width="1" height="1" fill="#475842"/>
<rect x="21" y="22" width="1" height="1" fill="#465542"/>
<rect x="16" y="22" width="1" height="1" fill="#43503f"/>
<rect x="22" y="22" width="2" height="1" fill="#475842"/>
<rect x="5" y="22" width="2" height="1" fill="#434f40"/>
<rect x="17" y="22" width="3" height="1" fill="#445140"/>
<rect x="12" y="22" width="1" height="1" fill="#424c3f"/>
<rect x="13" y="22" width="3" height="1" fill="#424d3f"/>
<rect x="3" y="22" width="1" height="1" fill="#485943"/>
<rect x="7" y="22" width="1" height="1" fill="#434e40"/>
<rect x="4" y="22" width="1" height="1" fill="#475842"/>
<rect x="20" y="23" width="2" height="1" fill="#475842"/>
<rect x="22" y="23" width="1" height="1" fill="#465542"/>
<rect x="23" y="23" width="1" height="1" fill="#485943"/>
<rect x="12" y="23" width="4" height="1" fill="#424d3f"/>
<rect x="5" y="23" width="1" height="2" fill="#43503f"/>
<rect x="3" y="23" width="1" height="2" fill="#4a5e44"/>
<rect x="14" y="24" width="2" height="1" fill="#424d3f"/>
<rect x="12" y="24" width="1" height="1" fill="#424d3f"/>
<rect x="13" y="24" width="1" height="1" fill="#424c3f"/>
<rect x="8" y="22" width="1" height="4" fill="#424d3f"/>
<rect x="16" y="23" width="4" height="3" fill="#445140"/>
<rect x="6" y="23" width="2" height="3" fill="#434f40"/>
<rect x="20" y="24" width="1" height="2" fill="#465542"/>
<rect x="21" y="24" width="3" height="2" fill="#475842"/>
<rect x="12" y="25" width="1" height="1" fill="#424c3f"/>
<rect x="13" y="25" width="3" height="1" fill="#424d3f"/>
<rect x="5" y="25" width="1" height="1" fill="#445140"/>
<rect x="1" y="21" width="1" height="6" fill="#4d5f47"/>
<rect x="4" y="23" width="1" height="4" fill="#495d43"/>
<rect x="3" y="25" width="1" height="2" fill="#495e43"/>
<rect x="5" y="26" width="1" height="1" fill="#445241"/>
<rect x="29" y="26" width="2" height="1" fill="#485b43"/>
<rect x="24" y="26" width="4" height="1" fill="#4a5e44"/>
<rect x="6" y="26" width="2" height="1" fill="#43503f"/>
<rect x="18" y="26" width="1" height="1" fill="#445241"/>
<rect x="8" y="26" width="1" height="1" fill="#424e40"/>
<rect x="17" y="26" width="1" height="1" fill="#455341"/>
<rect x="13" y="26" width="1" height="1" fill="#424e40"/>
<rect x="20" y="26" width="4" height="1" fill="#4b6144"/>
<rect x="28" y="26" width="1" height="1" fill="#495d43"/>
<rect x="16" y="26" width="1" height="1" fill="#445241"/>
<rect x="19" y="26" width="1" height="1" fill="#455341"/>
<rect x="14" y="26" width="2" height="1" fill="#434e40"/>
<rect x="2" y="23" width="1" height="5" fill="#465940"/>
<rect x="8" y="27" width="1" height="1" fill="#434f40"/>
<rect x="26" y="27" width="2" height="1" fill="#4a5e44"/>
<rect x="25" y="27" width="1" height="1" fill="#495d43"/>
<rect x="1" y="27" width="1" height="1" fill="#4b5d45"/>
<rect x="24" y="27" width="1" height="1" fill="#495e43"/>
<rect x="13" y="27" width="2" height="1" fill="#434f40"/>
<rect x="15" y="27" width="1" height="1" fill="#434e40"/>
<rect x="28" y="27" width="2" height="1" fill="#485a43"/>
<rect x="30" y="27" width="1" height="1" fill="#485a44"/>
<rect x="3" y="27" width="1" height="2" fill="#495d43"/>
<rect x="5" y="27" width="1" height="2" fill="#455341"/>
<rect x="6" y="27" width="2" height="2" fill="#445140"/>
<rect x="8" y="28" width="1" height="1" fill="#43503f"/>
<rect x="2" y="28" width="1" height="1" fill="#485c42"/>
<rect x="24" y="28" width="1" height="1" fill="#4a5e44"/>
<rect x="25" y="28" width="3" height="1" fill="#495d43"/>
<rect x="13" y="28" width="1" height="1" fill="#424e40"/>
<rect x="14" y="28" width="2" height="1" fill="#434f40"/>
<rect x="1" y="28" width="1" height="1" fill="#485a42"/>
<rect x="23" y="28" width="1" height="1" fill="#4b6144"/>
<rect x="9" y="22" width="3" height="8" fill="#414c3f"/>
<rect x="12" y="26" width="1" height="4" fill="#424d3f"/>
<rect x="31" y="26" width="1" height="4" fill="#4b5d45"/>
<rect x="16" y="27" width="4" height="3" fill="#455341"/>
<rect x="4" y="27" width="1" height="3" fill="#495e43"/>
<rect x="20" y="28" width="1" height="2" fill="#4b6144"/>
<rect x="28" y="28" width="3" height="2" fill="#485a43"/>
<rect x="2" y="29" width="2" height="1" fill="#495d43"/>
<rect x="6" y="29" width="3" height="1" fill="#43503f"/>
<rect x="24" y="29" width="4" height="1" fill="#4a5e44"/>
<rect x="13" y="29" width="1" height="1" fill="#434f40"/>
<rect x="5" y="29" width="1" height="1" fill="#465542"/>
<rect x="1" y="29" width="1" height="1" fill="#465940"/>
<rect x="14" y="29" width="2" height="1" fill="#434e40"/>
<rect x="0" y="21" width="1" height="10" fill="#394e33"/>
<rect x="16" y="30" width="1" height="1" fill="#475842"/>
<rect x="31" y="30" width="1" height="1" fill="#4d5f47"/>
<rect x="11" y="30" width="1" height="1" fill="#445140"/>
<rect x="1" y="30" width="1" height="1" fill="#43553f"/>
<rect x="2" y="30" width="1" height="1" fill="#4a5b44"/>
<rect x="4" y="30" width="1" height="1" fill="#485b43"/>
<rect x="7" y="30" width="2" height="1" fill="#465542"/>
<rect x="13" y="30" width="3" height="1" fill="#445140"/>
<rect x="18" y="30" width="2" height="1" fill="#485a43"/>
<rect x="5" y="30" width="2" height="1" fill="#475842"/>
<rect x="12" y="30" width="1" height="1" fill="#43503f"/>
<rect x="17" y="30" width="1" height="1" fill="#485943"/>
<rect x="20" y="30" width="1" height="1" fill="#4d6246"/>
<rect x="28" y="30" width="3" height="1" fill="#495d43"/>
<rect x="9" y="30" width="2" height="1" fill="#43503f"/>
<rect x="24" y="30" width="4" height="1" fill="#4b6144"/>
<rect x="3" y="30" width="1" height="1" fill="#475a42"/>
<rect x="5" y="31" width="2" height="1" fill="#475942"/>
<rect x="8" y="31" width="1" height="1" fill="#475842"/>
<rect x="4" y="31" width="1" height="1" fill="#475a42"/>
<rect x="16" y="31" width="1" height="1" fill="#485b43"/>
<rect x="17" y="31" width="3" height="1" fill="#4a5e44"/>
<rect x="31" y="31" width="1" height="1" fill="#4d6246"/>
<rect x="2" y="31" width="1" height="1" fill="#4b5d45"/>
<rect x="3" y="31" width="1" height="1" fill="#475842"/>
<rect x="7" y="31" width="1" height="1" fill="#475a42"/>
<rect x="12" y="31" width="1" height="1" fill="#445241"/>
<rect x="13" y="31" width="1" height="1" fill="#445140"/>
<rect x="9" y="31" width="3" height="1" fill="#455341"/>
<rect x="14" y="31" width="2" height="1" fill="#445241"/>
<rect x="28" y="31" width="3" height="1" fill="#4a5e44"/>
<rect x="0" y="31" width="2" height="1" fill="#394e33"/>
</svg>