<?xml version="1.0" encoding="UTF-8"?>
<svg xmlns="http://www.w3.org/2000/svg" width="20mm" height="20mm" viewBox="0 0 32 32" shape-rendering="crispEdges">
<title>062 右侧面 structured semantic redraw</title>
<metadata>registered 32-unit semantic vector redraw; no embedded raster; physical-size=20mm</metadata>
<rect x="0" y="0" width="32" height="32" fill="#554b41"/>
<rect x="2" y="0" width="3" height="1" fill="#6d6d6d"/>
<rect x="0" y="0" width="1" height="1" fill="#6a6a69"/>
<rect x="9" y="0" width="1" height="1" fill="#595551"/>
<rect x="5" y="0" width="1" height="1" fill="#676766"/>
<rect x="24" y="0" width="1" height="1" fill="#58514a"/>
<rect x="8" y="0" width="1" height="1" fill="#5c5b5a"/>
<rect x="10" y="0" width="12" height="1" fill="#4a4847"/>
<rect x="22" y="0" width="2" height="1" fill="#514b45"/>
<rect x="25" y="0" width="1" height="1" fill="#514b45"/>
<rect x="7" y="0" width="1" height="1" fill="#61605f"/>
<rect x="6" y="0" width="1" height="1" fill="#636363"/>
<rect x="1" y="0" width="1" height="1" fill="#6c6c6c"/>
<rect x="28" y="0" width="2" height="2" fill="#564c42"/>
<rect x="30" y="0" width="1" height="2" fill="#5d5143"/>
<rect x="31" y="0" width="1" height="2" fill="#625544"/>
<rect x="2" y="1" width="1" height="1" fill="#595551"/>
<rect x="17" y="1" width="1" height="1" fill="#645748"/>
<rect x="15" y="1" width="1" height="1" fill="#514b45"/>
<rect x="20" y="1" width="1" height="1" fill="#645748"/>
<rect x="16" y="1" width="1" height="1" fill="#58514a"/>
<rect x="0" y="1" width="1" height="1" fill="#7a6c5a"/>
<rect x="1" y="1" width="1" height="1" fill="#605d5b"/>
<rect x="3" y="1" width="1" height="1" fill="#514b45"/>
<rect x="4" y="1" width="11" height="1" fill="#4a4847"/>
<rect x="18" y="1" width="2" height="1" fill="#6a5a46"/>
<rect x="23" y="1" width="1" height="1" fill="#615444"/>
<rect x="26" y="0" width="2" height="3" fill="#4b453f"/>
<rect x="24" y="1" width="1" height="2" fill="#625544"/>
<rect x="25" y="1" width="1" height="2" fill="#564c42"/>
<rect x="29" y="2" width="1" height="1" fill="#5d5143"/>
<rect x="1" y="2" width="1" height="1" fill="#58514a"/>
<rect x="30" y="2" width="2" height="1" fill="#594e42"/>
<rect x="20" y="2" width="1" height="1" fill="#6a5a46"/>
<rect x="28" y="2" width="1" height="1" fill="#594e42"/>
<rect x="17" y="2" width="3" height="1" fill="#705e48"/>
<rect x="10" y="2" width="2" height="1" fill="#645748"/>
<rect x="22" y="2" width="1" height="1" fill="#564c42"/>
<rect x="2" y="2" width="5" height="1" fill="#4a4847"/>
<rect x="9" y="2" width="1" height="1" fill="#615444"/>
<rect x="7" y="2" width="1" height="1" fill="#514b45"/>
<rect x="23" y="2" width="1" height="1" fill="#605343"/>
<rect x="8" y="2" width="1" height="1" fill="#58514a"/>
<rect x="12" y="2" width="2" height="1" fill="#605343"/>
<rect x="0" y="2" width="1" height="1" fill="#625544"/>
<rect x="16" y="2" width="1" height="2" fill="#6a5a46"/>
<rect x="23" y="3" width="1" height="1" fill="#594e42"/>
<rect x="13" y="3" width="1" height="1" fill="#615444"/>
<rect x="2" y="3" width="1" height="1" fill="#4a4847"/>
<rect x="24" y="3" width="1" height="1" fill="#564c42"/>
<rect x="7" y="3" width="1" height="1" fill="#6a5a46"/>
<rect x="19" y="3" width="2" height="1" fill="#6a5a46"/>
<rect x="12" y="3" width="1" height="1" fill="#625544"/>
<rect x="30" y="3" width="1" height="1" fill="#594e42"/>
<rect x="0" y="3" width="1" height="1" fill="#5d5143"/>
<rect x="28" y="3" width="2" height="1" fill="#625544"/>
<rect x="8" y="3" width="4" height="1" fill="#705e48"/>
<rect x="1" y="3" width="1" height="1" fill="#564c42"/>
<rect x="4" y="3" width="1" height="1" fill="#605343"/>
<rect x="17" y="3" width="2" height="1" fill="#705e48"/>
<rect x="3" y="3" width="1" height="1" fill="#514b45"/>
<rect x="21" y="3" width="2" height="1" fill="#5d5143"/>
<rect x="27" y="3" width="1" height="2" fill="#504840"/>
<rect x="25" y="3" width="1" height="2" fill="#504840"/>
<rect x="5" y="3" width="2" height="2" fill="#615444"/>
<rect x="26" y="3" width="1" height="2" fill="#4b453f"/>
<rect x="16" y="4" width="2" height="1" fill="#564c42"/>
<rect x="4" y="4" width="1" height="1" fill="#625544"/>
<rect x="3" y="4" width="1" height="1" fill="#504840"/>
<rect x="10" y="4" width="2" height="1" fill="#6a5a46"/>
<rect x="7" y="4" width="1" height="1" fill="#625544"/>
<rect x="1" y="4" width="1" height="1" fill="#504840"/>
<rect x="23" y="4" width="2" height="1" fill="#564c42"/>
<rect x="29" y="4" width="1" height="1" fill="#625544"/>
<rect x="28" y="4" width="1" height="1" fill="#615444"/>
<rect x="12" y="4" width="1" height="1" fill="#594e42"/>
<rect x="8" y="4" width="2" height="1" fill="#705e48"/>
<rect x="19" y="4" width="4" height="1" fill="#625544"/>
<rect x="30" y="4" width="1" height="1" fill="#5d5143"/>
<rect x="18" y="4" width="1" height="2" fill="#594e42"/>
<rect x="2" y="4" width="1" height="2" fill="#49453f"/>
<rect x="9" y="5" width="1" height="1" fill="#605343"/>
<rect x="22" y="5" width="1" height="1" fill="#645748"/>
<rect x="19" y="5" width="3" height="1" fill="#625544"/>
<rect x="8" y="5" width="1" height="1" fill="#625544"/>
<rect x="3" y="5" width="1" height="1" fill="#4b453f"/>
<rect x="0" y="5" width="1" height="1" fill="#594e42"/>
<rect x="28" y="5" width="1" height="1" fill="#6a5a46"/>
<rect x="23" y="5" width="4" height="1" fill="#58514a"/>
<rect x="12" y="5" width="1" height="1" fill="#4b453f"/>
<rect x="27" y="5" width="1" height="1" fill="#595551"/>
<rect x="13" y="5" width="1" height="1" fill="#49453f"/>
<rect x="4" y="5" width="2" height="1" fill="#5d5143"/>
<rect x="6" y="5" width="2" height="1" fill="#615444"/>
<rect x="29" y="5" width="1" height="1" fill="#705e48"/>
<rect x="30" y="5" width="1" height="2" fill="#6a5a46"/>
<rect x="31" y="5" width="1" height="2" fill="#625544"/>
<rect x="0" y="6" width="1" height="1" fill="#645748"/>
<rect x="20" y="6" width="1" height="1" fill="#61605f"/>
<rect x="1" y="6" width="1" height="1" fill="#615444"/>
<rect x="28" y="6" width="2" height="1" fill="#705e48"/>
<rect x="14" y="6" width="1" height="1" fill="#514b45"/>
<rect x="7" y="6" width="1" height="1" fill="#625544"/>
<rect x="6" y="6" width="1" height="1" fill="#615444"/>
<rect x="21" y="6" width="1" height="1" fill="#626262"/>
<rect x="19" y="6" width="1" height="1" fill="#605d5b"/>
<rect x="2" y="6" width="2" height="1" fill="#4b453f"/>
<rect x="18" y="6" width="1" height="1" fill="#5c5b5a"/>
<rect x="22" y="6" width="3" height="1" fill="#636363"/>
<rect x="17" y="6" width="1" height="1" fill="#595551"/>
<rect x="15" y="6" width="2" height="1" fill="#58514a"/>
<rect x="26" y="6" width="2" height="1" fill="#5c5b5a"/>
<rect x="12" y="6" width="2" height="1" fill="#4b453f"/>
<rect x="8" y="6" width="2" height="1" fill="#605343"/>
<rect x="25" y="6" width="1" height="2" fill="#61605f"/>
<rect x="13" y="7" width="2" height="1" fill="#626262"/>
<rect x="4" y="7" width="1" height="1" fill="#564c42"/>
<rect x="27" y="7" width="1" height="1" fill="#605d5b"/>
<rect x="10" y="7" width="1" height="1" fill="#595551"/>
<rect x="3" y="7" width="1" height="1" fill="#4b453f"/>
<rect x="26" y="7" width="1" height="1" fill="#5c5b5a"/>
<rect x="11" y="7" width="1" height="1" fill="#5c5b5a"/>
<rect x="6" y="7" width="2" height="1" fill="#645748"/>
<rect x="20" y="7" width="5" height="1" fill="#636363"/>
<rect x="30" y="7" width="2" height="1" fill="#705e48"/>
<rect x="8" y="7" width="2" height="1" fill="#605d5b"/>
<rect x="15" y="7" width="4" height="1" fill="#636363"/>
<rect x="1" y="7" width="1" height="1" fill="#625544"/>
<rect x="19" y="7" width="1" height="1" fill="#626262"/>
<rect x="28" y="7" width="1" height="1" fill="#705e48"/>
<rect x="5" y="7" width="1" height="1" fill="#594e42"/>
<rect x="2" y="7" width="1" height="1" fill="#504840"/>
<rect x="12" y="7" width="1" height="1" fill="#605d5b"/>
<rect x="0" y="7" width="1" height="1" fill="#6a5a46"/>
<rect x="29" y="7" width="1" height="1" fill="#76624a"/>
<rect x="23" y="8" width="1" height="1" fill="#676766"/>
<rect x="24" y="8" width="1" height="1" fill="#6a6a69"/>
<rect x="18" y="8" width="3" height="1" fill="#676766"/>
<rect x="26" y="8" width="1" height="1" fill="#626262"/>
<rect x="5" y="8" width="5" height="1" fill="#626262"/>
<rect x="10" y="8" width="2" height="1" fill="#5c5b5a"/>
<rect x="16" y="8" width="2" height="1" fill="#636363"/>
<rect x="12" y="8" width="1" height="1" fill="#61605f"/>
<rect x="21" y="8" width="2" height="1" fill="#636363"/>
<rect x="13" y="8" width="3" height="1" fill="#626262"/>
<rect x="25" y="8" width="1" height="1" fill="#676766"/>
<rect x="27" y="8" width="1" height="1" fill="#636363"/>
<rect x="29" y="8" width="3" height="1" fill="#7a6c5a"/>
<rect x="28" y="8" width="1" height="1" fill="#76624a"/>
<rect x="4" y="8" width="1" height="2" fill="#61605f"/>
<rect x="3" y="8" width="1" height="2" fill="#5c5b5a"/>
<rect x="10" y="9" width="2" height="1" fill="#626262"/>
<rect x="9" y="9" width="1" height="1" fill="#61605f"/>
<rect x="26" y="9" width="2" height="1" fill="#636363"/>
<rect x="16" y="9" width="3" height="1" fill="#757575"/>
<rect x="13" y="9" width="1" height="1" fill="#6d6d6d"/>
<rect x="14" y="9" width="2" height="1" fill="#737272"/>
<rect x="12" y="9" width="1" height="1" fill="#6a6a69"/>
<rect x="8" y="9" width="1" height="1" fill="#626262"/>
<rect x="5" y="9" width="1" height="1" fill="#626262"/>
<rect x="6" y="9" width="2" height="1" fill="#636363"/>
<rect x="28" y="9" width="4" height="1" fill="#7a6c5a"/>
<rect x="22" y="9" width="1" height="1" fill="#636363"/>
<rect x="0" y="8" width="2" height="3" fill="#76624a"/>
<rect x="21" y="9" width="1" height="2" fill="#676766"/>
<rect x="25" y="9" width="1" height="2" fill="#6a6a69"/>
<rect x="24" y="9" width="1" height="2" fill="#6d6d6d"/>
<rect x="23" y="9" width="1" height="2" fill="#6a6a69"/>
<rect x="19" y="9" width="1" height="2" fill="#767676"/>
<rect x="8" y="10" width="1" height="1" fill="#676766"/>
<rect x="31" y="10" width="1" height="1" fill="#76624a"/>
<rect x="22" y="10" width="1" height="1" fill="#626262"/>
<rect x="18" y="10" width="1" height="1" fill="#757575"/>
<rect x="3" y="10" width="1" height="1" fill="#61605f"/>
<rect x="12" y="10" width="1" height="1" fill="#737272"/>
<rect x="10" y="10" width="1" height="1" fill="#676766"/>
<rect x="5" y="10" width="1" height="1" fill="#737272"/>
<rect x="29" y="10" width="1" height="1" fill="#6a5a46"/>
<rect x="26" y="10" width="2" height="1" fill="#676766"/>
<rect x="6" y="10" width="2" height="1" fill="#757575"/>
<rect x="28" y="10" width="1" height="1" fill="#705e48"/>
<rect x="13" y="10" width="5" height="1" fill="#767676"/>
<rect x="30" y="10" width="1" height="1" fill="#705e48"/>
<rect x="2" y="8" width="1" height="4" fill="#6a6053"/>
<rect x="20" y="9" width="1" height="3" fill="#757575"/>
<rect x="11" y="10" width="1" height="2" fill="#6c6c6c"/>
<rect x="4" y="10" width="1" height="2" fill="#6a6a69"/>
<rect x="17" y="11" width="1" height="1" fill="#757575"/>
<rect x="13" y="11" width="2" height="1" fill="#737272"/>
<rect x="18" y="11" width="2" height="1" fill="#767676"/>
<rect x="3" y="11" width="1" height="1" fill="#626262"/>
<rect x="31" y="11" width="1" height="1" fill="#705e48"/>
<rect x="1" y="11" width="1" height="1" fill="#705e48"/>
<rect x="28" y="11" width="1" height="1" fill="#645748"/>
<rect x="15" y="11" width="2" height="1" fill="#767676"/>
<rect x="8" y="11" width="1" height="1" fill="#6a6a69"/>
<rect x="30" y="11" width="1" height="1" fill="#6a5a46"/>
<rect x="29" y="11" width="1" height="1" fill="#625544"/>
<rect x="24" y="11" width="3" height="1" fill="#6d6d6d"/>
<rect x="7" y="11" width="1" height="1" fill="#757575"/>
<rect x="12" y="11" width="1" height="1" fill="#6d6d6d"/>
<rect x="0" y="11" width="1" height="1" fill="#625544"/>
<rect x="10" y="11" width="1" height="1" fill="#636363"/>
<rect x="5" y="11" width="2" height="1" fill="#767676"/>
<rect x="23" y="11" width="1" height="2" fill="#676766"/>
<rect x="30" y="12" width="2" height="1" fill="#6a5a46"/>
<rect x="25" y="12" width="2" height="1" fill="#6c6c6c"/>
<rect x="29" y="12" width="1" height="1" fill="#605343"/>
<rect x="18" y="12" width="3" height="1" fill="#757575"/>
<rect x="11" y="12" width="1" height="1" fill="#636363"/>
<rect x="17" y="12" width="1" height="1" fill="#767676"/>
<rect x="28" y="12" width="1" height="1" fill="#615444"/>
<rect x="1" y="12" width="1" height="1" fill="#6a5a46"/>
<rect x="2" y="12" width="1" height="1" fill="#705e48"/>
<rect x="24" y="12" width="1" height="1" fill="#6d6d6d"/>
<rect x="6" y="12" width="1" height="1" fill="#737272"/>
<rect x="7" y="12" width="1" height="1" fill="#6d6d6d"/>
<rect x="4" y="12" width="1" height="1" fill="#6c6c6c"/>
<rect x="10" y="12" width="1" height="1" fill="#61605f"/>
<rect x="0" y="12" width="1" height="1" fill="#605343"/>
<rect x="3" y="12" width="1" height="1" fill="#676766"/>
<rect x="16" y="12" width="1" height="1" fill="#757575"/>
<rect x="15" y="12" width="1" height="1" fill="#767676"/>
<rect x="9" y="10" width="1" height="4" fill="#5c5b5a"/>
<rect x="22" y="11" width="1" height="3" fill="#5c5b5a"/>
<rect x="21" y="11" width="1" height="3" fill="#61605f"/>
<rect x="8" y="12" width="1" height="2" fill="#676766"/>
<rect x="14" y="12" width="1" height="2" fill="#6d6d6d"/>
<rect x="5" y="12" width="1" height="2" fill="#767676"/>
<rect x="13" y="12" width="1" height="2" fill="#6c6c6c"/>
<rect x="12" y="12" width="1" height="2" fill="#676766"/>
<rect x="7" y="13" width="1" height="1" fill="#6c6c6c"/>
<rect x="24" y="13" width="1" height="1" fill="#61605f"/>
<rect x="3" y="13" width="1" height="1" fill="#6c6c6c"/>
<rect x="6" y="13" width="1" height="1" fill="#757575"/>
<rect x="2" y="13" width="1" height="1" fill="#645748"/>
<rect x="10" y="13" width="1" height="1" fill="#605d5b"/>
<rect x="4" y="13" width="1" height="1" fill="#6d6d6d"/>
<rect x="15" y="13" width="4" height="1" fill="#737272"/>
<rect x="23" y="13" width="1" height="1" fill="#605d5b"/>
<rect x="25" y="13" width="1" height="1" fill="#636363"/>
<rect x="11" y="13" width="1" height="1" fill="#626363"/>
<rect x="27" y="11" width="1" height="4" fill="#6a6a69"/>
<rect x="20" y="13" width="1" height="2" fill="#767676"/>
<rect x="28" y="13" width="1" height="2" fill="#564c42"/>
<rect x="19" y="13" width="1" height="2" fill="#757575"/>
<rect x="1" y="13" width="1" height="2" fill="#605343"/>
<rect x="31" y="13" width="1" height="2" fill="#625544"/>
<rect x="0" y="13" width="1" height="2" fill="#504840"/>
<rect x="26" y="13" width="1" height="2" fill="#6d6d6d"/>
<rect x="30" y="13" width="1" height="2" fill="#5d5143"/>
<rect x="5" y="14" width="1" height="1" fill="#6d6d6d"/>
<rect x="7" y="14" width="1" height="1" fill="#626262"/>
<rect x="11" y="14" width="1" height="1" fill="#6c6c6c"/>
<rect x="18" y="14" width="1" height="1" fill="#6d6d6d"/>
<rect x="12" y="14" width="1" height="1" fill="#6a6a69"/>
<rect x="22" y="14" width="3" height="1" fill="#5c5b5a"/>
<rect x="17" y="14" width="1" height="1" fill="#6c6c6c"/>
<rect x="21" y="14" width="1" height="1" fill="#626262"/>
<rect x="13" y="14" width="4" height="1" fill="#636363"/>
<rect x="25" y="14" width="1" height="1" fill="#61605f"/>
<rect x="6" y="14" width="1" height="1" fill="#6c6c6c"/>
<rect x="8" y="14" width="1" height="1" fill="#636363"/>
<rect x="4" y="14" width="1" height="1" fill="#6a6a69"/>
<rect x="3" y="14" width="1" height="1" fill="#676766"/>
<rect x="9" y="14" width="2" height="1" fill="#6d6d6d"/>
<rect x="8" y="15" width="1" height="1" fill="#605d5b"/>
<rect x="17" y="15" width="2" height="1" fill="#6c6c6c"/>
<rect x="7" y="15" width="1" height="1" fill="#5c5b5a"/>
<rect x="4" y="15" width="1" height="1" fill="#636363"/>
<rect x="21" y="15" width="1" height="1" fill="#676766"/>
<rect x="30" y="15" width="2" height="1" fill="#594e42"/>
<rect x="19" y="15" width="2" height="1" fill="#737272"/>
<rect x="26" y="15" width="1" height="1" fill="#636363"/>
<rect x="27" y="15" width="1" height="1" fill="#61605f"/>
<rect x="23" y="15" width="3" height="1" fill="#676766"/>
<rect x="13" y="15" width="1" height="1" fill="#626262"/>
<rect x="22" y="15" width="1" height="1" fill="#636363"/>
<rect x="28" y="15" width="2" height="1" fill="#605343"/>
<rect x="11" y="15" width="2" height="1" fill="#6c6c6c"/>
<rect x="14" y="15" width="3" height="1" fill="#636363"/>
<rect x="5" y="15" width="2" height="1" fill="#626262"/>
<rect x="2" y="14" width="1" height="3" fill="#625544"/>
<rect x="0" y="15" width="2" height="2" fill="#6a5a46"/>
<rect x="3" y="15" width="1" height="2" fill="#605d5b"/>
<rect x="9" y="15" width="2" height="2" fill="#757575"/>
<rect x="4" y="16" width="2" height="1" fill="#636363"/>
<rect x="26" y="16" width="2" height="1" fill="#5c5b5a"/>
<rect x="8" y="16" width="1" height="1" fill="#676766"/>
<rect x="7" y="16" width="1" height="1" fill="#636363"/>
<rect x="11" y="16" width="6" height="1" fill="#737272"/>
<rect x="28" y="16" width="2" height="1" fill="#625544"/>
<rect x="22" y="16" width="3" height="1" fill="#767676"/>
<rect x="17" y="16" width="1" height="2" fill="#61605f"/>
<rect x="30" y="16" width="1" height="2" fill="#594e42"/>
<rect x="21" y="16" width="1" height="2" fill="#6d6d6d"/>
<rect x="25" y="16" width="1" height="2" fill="#6d6d6d"/>
<rect x="6" y="16" width="1" height="2" fill="#626262"/>
<rect x="18" y="16" width="3" height="2" fill="#5c5b5a"/>
<rect x="27" y="17" width="1" height="1" fill="#605d5b"/>
<rect x="22" y="17" width="3" height="1" fill="#757575"/>
<rect x="9" y="17" width="4" height="1" fill="#757575"/>
<rect x="7" y="17" width="1" height="1" fill="#737272"/>
<rect x="26" y="17" width="1" height="1" fill="#61605f"/>
<rect x="14" y="17" width="3" height="1" fill="#757575"/>
<rect x="28" y="17" width="2" height="1" fill="#5d5143"/>
<rect x="8" y="17" width="1" height="1" fill="#767676"/>
<rect x="0" y="17" width="1" height="1" fill="#705e48"/>
<rect x="13" y="17" width="1" height="1" fill="#767676"/>
<rect x="1" y="17" width="2" height="1" fill="#76624a"/>
<rect x="5" y="17" width="1" height="2" fill="#676766"/>
<rect x="3" y="17" width="1" height="2" fill="#7a6c5a"/>
<rect x="7" y="18" width="1" height="1" fill="#6d6d6d"/>
<rect x="1" y="18" width="1" height="1" fill="#705e48"/>
<rect x="16" y="18" width="2" height="1" fill="#676766"/>
<rect x="20" y="18" width="2" height="1" fill="#6c6c6c"/>
<rect x="15" y="18" width="1" height="1" fill="#6a6a69"/>
<rect x="22" y="18" width="1" height="1" fill="#6d6d6d"/>
<rect x="28" y="18" width="1" height="1" fill="#594e42"/>
<rect x="27" y="18" width="1" height="1" fill="#6a6a69"/>
<rect x="18" y="18" width="2" height="1" fill="#6a6a69"/>
<rect x="31" y="18" width="1" height="1" fill="#564c42"/>
<rect x="23" y="18" width="4" height="1" fill="#6c6c6c"/>
<rect x="8" y="18" width="7" height="1" fill="#737272"/>
<rect x="2" y="18" width="1" height="1" fill="#76624a"/>
<rect x="6" y="18" width="1" height="1" fill="#636363"/>
<rect x="0" y="18" width="1" height="1" fill="#76624a"/>
<rect x="4" y="17" width="1" height="3" fill="#6d6d6d"/>
<rect x="27" y="19" width="1" height="1" fill="#676766"/>
<rect x="26" y="19" width="1" height="1" fill="#6a6a69"/>
<rect x="29" y="19" width="2" height="1" fill="#594e42"/>
<rect x="14" y="19" width="1" height="1" fill="#6d6d6d"/>
<rect x="31" y="19" width="1" height="1" fill="#5d5143"/>
<rect x="10" y="19" width="4" height="1" fill="#6c6c6c"/>
<rect x="6" y="19" width="1" height="1" fill="#6d6d6d"/>
<rect x="8" y="19" width="1" height="1" fill="#626262"/>
<rect x="2" y="19" width="1" height="1" fill="#594e42"/>
<rect x="5" y="19" width="1" height="1" fill="#6c6c6c"/>
<rect x="17" y="19" width="1" height="1" fill="#6a6a69"/>
<rect x="0" y="19" width="1" height="1" fill="#615444"/>
<rect x="15" y="19" width="1" height="1" fill="#676766"/>
<rect x="16" y="19" width="1" height="1" fill="#636363"/>
<rect x="22" y="19" width="4" height="1" fill="#6c6c6c"/>
<rect x="3" y="19" width="1" height="1" fill="#58514a"/>
<rect x="7" y="19" width="1" height="1" fill="#676766"/>
<rect x="28" y="19" width="1" height="1" fill="#5d5143"/>
<rect x="18" y="19" width="4" height="1" fill="#6d6d6d"/>
<rect x="9" y="19" width="1" height="1" fill="#6a6a69"/>
<rect x="28" y="20" width="4" height="1" fill="#76624a"/>
<rect x="24" y="20" width="2" height="1" fill="#4a4847"/>
<rect x="11" y="20" width="1" height="1" fill="#61605f"/>
<rect x="23" y="20" width="1" height="1" fill="#514b45"/>
<rect x="27" y="20" width="1" height="1" fill="#514b45"/>
<rect x="8" y="20" width="1" height="1" fill="#605d5b"/>
<rect x="15" y="20" width="6" height="1" fill="#595551"/>
<rect x="9" y="20" width="1" height="1" fill="#61605f"/>
<rect x="0" y="20" width="1" height="1" fill="#645748"/>
<rect x="6" y="20" width="1" height="1" fill="#676766"/>
<rect x="12" y="20" width="3" height="1" fill="#605d5b"/>
<rect x="1" y="20" width="1" height="1" fill="#504840"/>
<rect x="3" y="20" width="1" height="1" fill="#594e42"/>
<rect x="4" y="20" width="2" height="1" fill="#6a6a69"/>
<rect x="7" y="20" width="1" height="1" fill="#636363"/>
<rect x="10" y="20" width="1" height="1" fill="#626262"/>
<rect x="21" y="20" width="2" height="1" fill="#58514a"/>
<rect x="26" y="20" width="1" height="1" fill="#4b453f"/>
<rect x="17" y="21" width="2" height="1" fill="#49453f"/>
<rect x="31" y="21" width="1" height="1" fill="#705e48"/>
<rect x="4" y="21" width="4" height="1" fill="#4b453f"/>
<rect x="11" y="21" width="1" height="1" fill="#504840"/>
<rect x="1" y="21" width="1" height="1" fill="#5d5143"/>
<rect x="28" y="21" width="3" height="1" fill="#76624a"/>
<rect x="25" y="21" width="2" height="1" fill="#4b453f"/>
<rect x="2" y="21" width="1" height="1" fill="#594e42"/>
<rect x="0" y="21" width="1" height="1" fill="#6a6053"/>
<rect x="13" y="21" width="1" height="1" fill="#504840"/>
<rect x="19" y="21" width="1" height="1" fill="#504840"/>
<rect x="12" y="21" width="1" height="1" fill="#49453f"/>
<rect x="16" y="21" width="1" height="1" fill="#4b453f"/>
<rect x="24" y="21" width="1" height="1" fill="#49453f"/>
<rect x="27" y="21" width="1" height="1" fill="#504840"/>
<rect x="15" y="21" width="1" height="2" fill="#504840"/>
<rect x="4" y="22" width="2" height="1" fill="#4b453f"/>
<rect x="19" y="22" width="2" height="1" fill="#5d5143"/>
<rect x="8" y="22" width="2" height="1" fill="#564c42"/>
<rect x="22" y="22" width="1" height="1" fill="#4b453f"/>
<rect x="30" y="22" width="1" height="1" fill="#6a5a46"/>
<rect x="13" y="22" width="2" height="1" fill="#594e42"/>
<rect x="12" y="22" width="1" height="1" fill="#564c42"/>
<rect x="0" y="22" width="1" height="1" fill="#705e48"/>
<rect x="10" y="22" width="1" height="1" fill="#504840"/>
<rect x="3" y="22" width="1" height="1" fill="#594e42"/>
<rect x="17" y="22" width="1" height="1" fill="#564c42"/>
<rect x="1" y="22" width="2" height="1" fill="#5d5143"/>
<rect x="18" y="22" width="1" height="1" fill="#605343"/>
<rect x="28" y="22" width="1" height="1" fill="#705e48"/>
<rect x="31" y="22" width="1" height="1" fill="#645748"/>
<rect x="24" y="22" width="1" height="1" fill="#5d5143"/>
<rect x="25" y="22" width="1" height="1" fill="#594e42"/>
<rect x="6" y="22" width="2" height="1" fill="#504840"/>
<rect x="29" y="22" width="1" height="1" fill="#76624a"/>
<rect x="26" y="22" width="2" height="2" fill="#4b453f"/>
<rect x="4" y="23" width="1" height="1" fill="#594e42"/>
<rect x="20" y="23" width="1" height="1" fill="#625544"/>
<rect x="28" y="23" width="2" height="1" fill="#705e48"/>
<rect x="25" y="23" width="1" height="1" fill="#5d5143"/>
<rect x="24" y="23" width="1" height="1" fill="#625544"/>
<rect x="18" y="23" width="1" height="1" fill="#705e48"/>
<rect x="17" y="23" width="1" height="1" fill="#605343"/>
<rect x="30" y="23" width="1" height="1" fill="#645748"/>
<rect x="0" y="23" width="1" height="1" fill="#76624a"/>
<rect x="8" y="23" width="1" height="1" fill="#625544"/>
<rect x="11" y="23" width="1" height="1" fill="#594e42"/>
<rect x="31" y="23" width="1" height="1" fill="#625544"/>
<rect x="1" y="23" width="1" height="1" fill="#6a5a46"/>
<rect x="14" y="23" width="1" height="1" fill="#625544"/>
<rect x="7" y="23" width="1" height="1" fill="#705e48"/>
<rect x="6" y="23" width="1" height="1" fill="#6a5a46"/>
<rect x="21" y="23" width="1" height="1" fill="#594e42"/>
<rect x="19" y="23" width="1" height="1" fill="#6a5a46"/>
<rect x="23" y="21" width="1" height="4" fill="#504840"/>
<rect x="12" y="23" width="1" height="2" fill="#705e48"/>
<rect x="15" y="23" width="1" height="2" fill="#564c42"/>
<rect x="5" y="23" width="1" height="2" fill="#4b453f"/>
<rect x="2" y="23" width="2" height="2" fill="#76624a"/>
<rect x="10" y="23" width="1" height="2" fill="#49453f"/>
<rect x="13" y="23" width="1" height="2" fill="#6a5a46"/>
<rect x="9" y="23" width="1" height="2" fill="#5d5143"/>
<rect x="19" y="24" width="1" height="1" fill="#625544"/>
<rect x="0" y="24" width="2" height="1" fill="#705e48"/>
<rect x="6" y="24" width="2" height="1" fill="#6a5a46"/>
<rect x="28" y="24" width="2" height="1" fill="#5d5143"/>
<rect x="14" y="24" width="1" height="1" fill="#5d5143"/>
<rect x="8" y="24" width="1" height="1" fill="#605343"/>
<rect x="4" y="24" width="1" height="1" fill="#615444"/>
<rect x="21" y="24" width="1" height="1" fill="#564c42"/>
<rect x="26" y="24" width="2" height="1" fill="#504840"/>
<rect x="30" y="24" width="1" height="1" fill="#615444"/>
<rect x="18" y="24" width="1" height="1" fill="#6a5a46"/>
<rect x="17" y="24" width="1" height="1" fill="#594e42"/>
<rect x="20" y="24" width="1" height="1" fill="#5d5143"/>
<rect x="24" y="24" width="2" height="1" fill="#594e42"/>
<rect x="16" y="22" width="1" height="4" fill="#49453f"/>
<rect x="22" y="23" width="1" height="3" fill="#49453f"/>
<rect x="31" y="24" width="1" height="2" fill="#645748"/>
<rect x="11" y="25" width="1" height="1" fill="#504840"/>
<rect x="6" y="25" width="1" height="1" fill="#594e42"/>
<rect x="2" y="25" width="1" height="1" fill="#625544"/>
<rect x="30" y="25" width="1" height="1" fill="#605343"/>
<rect x="5" y="25" width="1" height="1" fill="#49453f"/>
<rect x="13" y="25" width="1" height="1" fill="#5d5143"/>
<rect x="21" y="25" width="1" height="1" fill="#504840"/>
<rect x="12" y="25" width="1" height="1" fill="#625544"/>
<rect x="8" y="25" width="1" height="1" fill="#564c42"/>
<rect x="19" y="25" width="1" height="1" fill="#5d5143"/>
<rect x="10" y="25" width="1" height="1" fill="#4b453f"/>
<rect x="23" y="25" width="1" height="1" fill="#4b453f"/>
<rect x="15" y="25" width="1" height="1" fill="#504840"/>
<rect x="7" y="25" width="1" height="1" fill="#615444"/>
<rect x="0" y="25" width="1" height="1" fill="#605343"/>
<rect x="4" y="25" width="1" height="1" fill="#605343"/>
<rect x="1" y="25" width="1" height="1" fill="#645748"/>
<rect x="18" y="25" width="1" height="1" fill="#625544"/>
<rect x="3" y="25" width="1" height="2" fill="#705e48"/>
<rect x="17" y="26" width="1" height="1" fill="#605d5b"/>
<rect x="14" y="26" width="1" height="1" fill="#58514a"/>
<rect x="4" y="26" width="1" height="1" fill="#645748"/>
<rect x="23" y="26" width="1" height="1" fill="#595551"/>
<rect x="2" y="26" width="1" height="1" fill="#6a5a46"/>
<rect x="24" y="26" width="1" height="1" fill="#61605f"/>
<rect x="25" y="26" width="1" height="1" fill="#605d5b"/>
<rect x="31" y="26" width="1" height="1" fill="#705e48"/>
<rect x="6" y="26" width="1" height="1" fill="#58514a"/>
<rect x="15" y="26" width="1" height="1" fill="#595551"/>
<rect x="8" y="26" width="2" height="1" fill="#595551"/>
<rect x="20" y="26" width="2" height="1" fill="#605d5b"/>
<rect x="1" y="26" width="1" height="1" fill="#705e48"/>
<rect x="16" y="26" width="1" height="1" fill="#5c5b5a"/>
<rect x="26" y="26" width="2" height="1" fill="#58514a"/>
<rect x="30" y="26" width="1" height="1" fill="#6a5a46"/>
<rect x="28" y="26" width="2" height="1" fill="#625544"/>
<rect x="22" y="26" width="1" height="1" fill="#58514a"/>
<rect x="5" y="26" width="1" height="1" fill="#4a4847"/>
<rect x="10" y="26" width="2" height="1" fill="#514b45"/>
<rect x="12" y="26" width="2" height="1" fill="#6a6053"/>
<rect x="18" y="26" width="2" height="1" fill="#6a6053"/>
<rect x="7" y="26" width="1" height="1" fill="#6a6053"/>
<rect x="24" y="27" width="1" height="1" fill="#7b7b7c"/>
<rect x="15" y="27" width="1" height="1" fill="#636363"/>
<rect x="22" y="27" width="1" height="1" fill="#626262"/>
<rect x="6" y="27" width="1" height="1" fill="#676766"/>
<rect x="4" y="27" width="1" height="1" fill="#615444"/>
<rect x="3" y="27" width="1" height="1" fill="#645748"/>
<rect x="16" y="27" width="5" height="1" fill="#7b7b7c"/>
<rect x="14" y="27" width="1" height="1" fill="#5c5b5a"/>
<rect x="25" y="27" width="1" height="1" fill="#767676"/>
<rect x="10" y="27" width="1" height="1" fill="#626262"/>
<rect x="28" y="27" width="3" height="1" fill="#705e48"/>
<rect x="23" y="27" width="1" height="1" fill="#6a6a69"/>
<rect x="11" y="27" width="1" height="1" fill="#605d5b"/>
<rect x="12" y="27" width="2" height="1" fill="#7b7b7c"/>
<rect x="0" y="26" width="1" height="3" fill="#76624a"/>
<rect x="7" y="27" width="3" height="2" fill="#7b7b7c"/>
<rect x="21" y="27" width="1" height="2" fill="#767676"/>
<rect x="2" y="27" width="1" height="2" fill="#76624a"/>
<rect x="11" y="28" width="1" height="1" fill="#6a6a69"/>
<rect x="24" y="28" width="1" height="1" fill="#737272"/>
<rect x="4" y="28" width="1" height="1" fill="#645748"/>
<rect x="13" y="28" width="1" height="1" fill="#6d6d6d"/>
<rect x="25" y="28" width="1" height="1" fill="#6d6d6d"/>
<rect x="22" y="28" width="1" height="1" fill="#6a6a69"/>
<rect x="10" y="28" width="1" height="1" fill="#6d6d6d"/>
<rect x="17" y="28" width="4" height="1" fill="#7b7b7c"/>
<rect x="12" y="28" width="1" height="1" fill="#737272"/>
<rect x="16" y="28" width="1" height="1" fill="#767676"/>
<rect x="28" y="28" width="2" height="1" fill="#6a5a46"/>
<rect x="14" y="28" width="1" height="1" fill="#61605f"/>
<rect x="6" y="28" width="1" height="1" fill="#61605f"/>
<rect x="23" y="28" width="1" height="1" fill="#6c6c6c"/>
<rect x="15" y="28" width="1" height="1" fill="#626262"/>
<rect x="3" y="28" width="1" height="1" fill="#705e48"/>
<rect x="31" y="27" width="1" height="3" fill="#76624a"/>
<rect x="1" y="27" width="1" height="3" fill="#7a6c5a"/>
<rect x="5" y="27" width="1" height="3" fill="#595551"/>
<rect x="30" y="28" width="1" height="2" fill="#705e48"/>
<rect x="10" y="29" width="2" height="1" fill="#7b7b7c"/>
<rect x="17" y="29" width="1" height="1" fill="#6d6d6d"/>
<rect x="21" y="29" width="1" height="1" fill="#757575"/>
<rect x="20" y="29" width="1" height="1" fill="#767676"/>
<rect x="15" y="29" width="1" height="1" fill="#636363"/>
<rect x="22" y="29" width="1" height="1" fill="#767676"/>
<rect x="16" y="29" width="1" height="1" fill="#6c6c6c"/>
<rect x="2" y="29" width="2" height="1" fill="#76624a"/>
<rect x="24" y="29" width="1" height="1" fill="#636363"/>
<rect x="8" y="29" width="1" height="1" fill="#767676"/>
<rect x="0" y="29" width="1" height="1" fill="#705e48"/>
<rect x="14" y="29" width="1" height="1" fill="#626262"/>
<rect x="4" y="29" width="1" height="1" fill="#705e48"/>
<rect x="9" y="29" width="1" height="1" fill="#757575"/>
<rect x="25" y="29" width="1" height="1" fill="#61605f"/>
<rect x="6" y="29" width="1" height="1" fill="#5c5b5a"/>
<rect x="18" y="29" width="2" height="1" fill="#7b7b7c"/>
<rect x="7" y="29" width="1" height="2" fill="#757575"/>
<rect x="0" y="30" width="1" height="1" fill="#594e42"/>
<rect x="21" y="30" width="2" height="1" fill="#767676"/>
<rect x="14" y="30" width="3" height="1" fill="#676766"/>
<rect x="17" y="30" width="1" height="1" fill="#6c6c6c"/>
<rect x="30" y="30" width="1" height="1" fill="#645748"/>
<rect x="24" y="30" width="2" height="1" fill="#61605f"/>
<rect x="31" y="30" width="1" height="1" fill="#6a5a46"/>
<rect x="8" y="30" width="3" height="1" fill="#767676"/>
<rect x="1" y="30" width="1" height="1" fill="#6a5a46"/>
<rect x="18" y="30" width="3" height="1" fill="#7b7b7c"/>
<rect x="11" y="30" width="1" height="1" fill="#757575"/>
<rect x="2" y="30" width="3" height="1" fill="#705e48"/>
<rect x="26" y="27" width="2" height="5" fill="#595551"/>
<rect x="12" y="29" width="1" height="3" fill="#626262"/>
<rect x="29" y="29" width="1" height="3" fill="#625544"/>
<rect x="13" y="29" width="1" height="3" fill="#5c5b5a"/>
<rect x="28" y="29" width="1" height="3" fill="#615444"/>
<rect x="23" y="29" width="1" height="3" fill="#737272"/>
<rect x="5" y="30" width="2" height="2" fill="#595551"/>
<rect x="17" y="31" width="1" height="1" fill="#676766"/>
<rect x="11" y="31" width="1" height="1" fill="#6c6c6c"/>
<rect x="2" y="31" width="1" height="1" fill="#625544"/>
<rect x="7" y="31" width="1" height="1" fill="#737272"/>
<rect x="30" y="31" width="2" height="1" fill="#594e42"/>
<rect x="18" y="31" width="1" height="1" fill="#757575"/>
<rect x="1" y="31" width="1" height="1" fill="#5d5143"/>
<rect x="22" y="31" width="1" height="1" fill="#767676"/>
<rect x="24" y="31" width="2" height="1" fill="#5c5b5a"/>
<rect x="3" y="31" width="1" height="1" fill="#645748"/>
<rect x="4" y="31" width="1" height="1" fill="#705e48"/>
<rect x="20" y="31" width="2" height="1" fill="#7b7b7c"/>
<rect x="16" y="31" width="1" height="1" fill="#636363"/>
<rect x="14" y="31" width="1" height="1" fill="#6a6a69"/>
<rect x="0" y="31" width="1" height="1" fill="#4b453f"/>
<rect x="10" y="31" width="1" height="1" fill="#737272"/>
<rect x="19" y="31" width="1" height="1" fill="#767676"/>
<rect x="15" y="31" width="1" height="1" fill="#6c6c6c"/>
<rect x="8" y="31" width="2" height="1" fill="#767676"/>
</svg>