<?xml version="1.0" encoding="UTF-8"?>
<svg xmlns="http://www.w3.org/2000/svg" width="20mm" height="20mm" viewBox="0 0 32 32" shape-rendering="crispEdges">
<title>049 顶面 structured semantic redraw</title>
<metadata>registered 32-unit semantic vector redraw; no embedded raster; physical-size=20mm</metadata>
<rect x="0" y="0" width="32" height="32" fill="#efefef"/>
<rect x="12" y="0" width="1" height="1" fill="#ececec"/>
<rect x="9" y="0" width="1" height="1" fill="#e2e2e2"/>
<rect x="14" y="0" width="1" height="1" fill="#f2f2f2"/>
<rect x="15" y="0" width="2" height="1" fill="#f3f3f3"/>
<rect x="10" y="0" width="1" height="1" fill="#e4e4e4"/>
<rect x="1" y="0" width="3" height="1" fill="#cecece"/>
<rect x="0" y="0" width="1" height="1" fill="#d8d7d7"/>
<rect x="8" y="0" width="1" height="1" fill="#dfdfdf"/>
<rect x="4" y="0" width="1" height="1" fill="#d8d7d7"/>
<rect x="11" y="0" width="1" height="1" fill="#e9e8e8"/>
<rect x="17" y="0" width="1" height="1" fill="#f0f0f0"/>
<rect x="13" y="0" width="1" height="1" fill="#f0efef"/>
<rect x="27" y="0" width="1" height="1" fill="#ededed"/>
<rect x="5" y="0" width="3" height="1" fill="#dcdcdc"/>
<rect x="28" y="0" width="1" height="2" fill="#c9c9c9"/>
<rect x="29" y="0" width="1" height="2" fill="#c2c1c1"/>
<rect x="6" y="1" width="1" height="1" fill="#f5f5f5"/>
<rect x="15" y="1" width="1" height="1" fill="#f2f2f2"/>
<rect x="4" y="1" width="1" height="1" fill="#eeeeee"/>
<rect x="3" y="1" width="1" height="1" fill="#e4e4e4"/>
<rect x="16" y="1" width="2" height="1" fill="#f0f0f0"/>
<rect x="10" y="1" width="3" height="1" fill="#f5f5f5"/>
<rect x="27" y="1" width="1" height="1" fill="#eeeeee"/>
<rect x="0" y="1" width="2" height="1" fill="#d8d7d7"/>
<rect x="8" y="1" width="2" height="1" fill="#fafafa"/>
<rect x="5" y="1" width="1" height="1" fill="#f3f3f3"/>
<rect x="2" y="1" width="1" height="1" fill="#dfdfdf"/>
<rect x="13" y="1" width="2" height="1" fill="#f4f4f4"/>
<rect x="7" y="1" width="1" height="1" fill="#f8f8f8"/>
<rect x="23" y="2" width="1" height="1" fill="#eaeaea"/>
<rect x="14" y="2" width="4" height="1" fill="#eeeeee"/>
<rect x="10" y="2" width="2" height="1" fill="#f0f0f0"/>
<rect x="1" y="2" width="4" height="1" fill="#fafafa"/>
<rect x="9" y="2" width="1" height="1" fill="#f4f4f4"/>
<rect x="8" y="2" width="1" height="1" fill="#f5f5f5"/>
<rect x="24" y="2" width="1" height="1" fill="#e8e8e8"/>
<rect x="27" y="2" width="1" height="1" fill="#e2e2e2"/>
<rect x="26" y="2" width="1" height="1" fill="#e5e5e5"/>
<rect x="25" y="2" width="1" height="1" fill="#e7e7e7"/>
<rect x="5" y="2" width="3" height="1" fill="#f8f8f8"/>
<rect x="21" y="2" width="1" height="1" fill="#ededed"/>
<rect x="22" y="2" width="1" height="1" fill="#ececec"/>
<rect x="20" y="2" width="1" height="1" fill="#eeeeee"/>
<rect x="28" y="2" width="1" height="2" fill="#c2c1c1"/>
<rect x="29" y="2" width="1" height="2" fill="#bcbbbb"/>
<rect x="3" y="3" width="2" height="1" fill="#f0f0f0"/>
<rect x="15" y="3" width="2" height="1" fill="#ececec"/>
<rect x="19" y="3" width="1" height="1" fill="#e8e8e8"/>
<rect x="1" y="3" width="1" height="1" fill="#f3f3f3"/>
<rect x="17" y="3" width="1" height="1" fill="#ebebeb"/>
<rect x="18" y="3" width="1" height="1" fill="#eaeaea"/>
<rect x="20" y="3" width="1" height="1" fill="#e2e2e2"/>
<rect x="13" y="3" width="2" height="1" fill="#ededed"/>
<rect x="2" y="3" width="1" height="1" fill="#f2f2f2"/>
<rect x="21" y="3" width="7" height="1" fill="#dfdfdf"/>
<rect x="11" y="3" width="2" height="1" fill="#eeeeee"/>
<rect x="6" y="3" width="4" height="1" fill="#eeeeee"/>
<rect x="30" y="0" width="1" height="5" fill="#afafaf"/>
<rect x="0" y="2" width="1" height="3" fill="#dcdcdc"/>
<rect x="24" y="4" width="1" height="1" fill="#e7e7e7"/>
<rect x="20" y="4" width="3" height="1" fill="#e2e2e2"/>
<rect x="23" y="4" width="1" height="1" fill="#e5e5e5"/>
<rect x="9" y="4" width="1" height="1" fill="#e8e8e8"/>
<rect x="1" y="4" width="3" height="1" fill="#eeeeee"/>
<rect x="8" y="4" width="1" height="1" fill="#e9e9e9"/>
<rect x="26" y="4" width="1" height="1" fill="#eaeaea"/>
<rect x="7" y="4" width="1" height="1" fill="#eaeaea"/>
<rect x="11" y="4" width="1" height="1" fill="#e6e6e6"/>
<rect x="14" y="4" width="2" height="1" fill="#e8e8e8"/>
<rect x="25" y="4" width="1" height="1" fill="#e9e9e9"/>
<rect x="12" y="4" width="1" height="1" fill="#e5e5e5"/>
<rect x="10" y="4" width="1" height="1" fill="#e7e7e7"/>
<rect x="16" y="4" width="2" height="1" fill="#e9e9e9"/>
<rect x="19" y="4" width="1" height="1" fill="#e7e7e7"/>
<rect x="13" y="4" width="1" height="1" fill="#e6e6e6"/>
<rect x="6" y="4" width="1" height="1" fill="#ebebeb"/>
<rect x="18" y="4" width="1" height="1" fill="#e8e8e8"/>
<rect x="27" y="4" width="1" height="1" fill="#ececec"/>
<rect x="5" y="4" width="1" height="1" fill="#ececec"/>
<rect x="4" y="4" width="1" height="1" fill="#ededed"/>
<rect x="12" y="5" width="1" height="1" fill="#e8e8e8"/>
<rect x="1" y="5" width="1" height="1" fill="#e7e7e7"/>
<rect x="13" y="5" width="1" height="1" fill="#eaeaea"/>
<rect x="4" y="5" width="6" height="1" fill="#e5e5e5"/>
<rect x="2" y="5" width="2" height="1" fill="#e6e6e6"/>
<rect x="14" y="5" width="1" height="1" fill="#eeeeee"/>
<rect x="16" y="5" width="2" height="1" fill="#f0f0f0"/>
<rect x="11" y="5" width="1" height="1" fill="#e7e7e7"/>
<rect x="0" y="5" width="1" height="1" fill="#d8d7d7"/>
<rect x="18" y="5" width="3" height="1" fill="#eeeeee"/>
<rect x="10" y="5" width="1" height="1" fill="#e6e6e6"/>
<rect x="1" y="6" width="1" height="1" fill="#e6e6e6"/>
<rect x="4" y="6" width="1" height="1" fill="#ececec"/>
<rect x="12" y="6" width="5" height="1" fill="#f5f5f5"/>
<rect x="5" y="6" width="1" height="1" fill="#eeeeee"/>
<rect x="7" y="6" width="1" height="1" fill="#f3f3f3"/>
<rect x="9" y="6" width="3" height="1" fill="#f8f8f8"/>
<rect x="6" y="6" width="1" height="1" fill="#f0f0f0"/>
<rect x="17" y="6" width="1" height="1" fill="#f3f3f3"/>
<rect x="2" y="6" width="1" height="1" fill="#e8e8e8"/>
<rect x="3" y="6" width="1" height="1" fill="#eaeaea"/>
<rect x="0" y="6" width="1" height="1" fill="#cecece"/>
<rect x="8" y="6" width="1" height="1" fill="#f5f5f5"/>
<rect x="29" y="4" width="1" height="4" fill="#c2c1c1"/>
<rect x="28" y="4" width="1" height="4" fill="#cecece"/>
<rect x="11" y="7" width="1" height="1" fill="#f5f5f5"/>
<rect x="12" y="7" width="1" height="1" fill="#f3f3f3"/>
<rect x="0" y="7" width="1" height="1" fill="#dfdfdf"/>
<rect x="27" y="7" width="1" height="1" fill="#eeeeee"/>
<rect x="13" y="7" width="1" height="1" fill="#f2f2f2"/>
<rect x="14" y="7" width="3" height="1" fill="#f0f0f0"/>
<rect x="18" y="7" width="1" height="1" fill="#eeeeee"/>
<rect x="8" y="7" width="3" height="1" fill="#f8f8f8"/>
<rect x="2" y="7" width="6" height="1" fill="#fafafa"/>
<rect x="1" y="7" width="1" height="2" fill="#f8f8f8"/>
<rect x="4" y="8" width="1" height="1" fill="#f4f4f4"/>
<rect x="23" y="8" width="1" height="1" fill="#e6e6e6"/>
<rect x="6" y="8" width="2" height="1" fill="#f0f0f0"/>
<rect x="17" y="8" width="1" height="1" fill="#eeeeee"/>
<rect x="20" y="8" width="1" height="1" fill="#ebebeb"/>
<rect x="19" y="8" width="1" height="1" fill="#ececec"/>
<rect x="21" y="8" width="1" height="1" fill="#e9e9e9"/>
<rect x="2" y="8" width="2" height="1" fill="#f5f5f5"/>
<rect x="22" y="8" width="1" height="1" fill="#e8e8e8"/>
<rect x="24" y="8" width="1" height="1" fill="#e5e5e5"/>
<rect x="10" y="8" width="3" height="1" fill="#eeeeee"/>
<rect x="28" y="8" width="1" height="1" fill="#c9c9c9"/>
<rect x="5" y="8" width="1" height="1" fill="#f3f3f3"/>
<rect x="18" y="8" width="1" height="1" fill="#ededed"/>
<rect x="26" y="8" width="2" height="1" fill="#e2e2e2"/>
<rect x="0" y="8" width="1" height="1" fill="#e2e2e2"/>
<rect x="14" y="8" width="2" height="1" fill="#eeeeee"/>
<rect x="25" y="8" width="1" height="1" fill="#e4e4e4"/>
<rect x="29" y="8" width="1" height="2" fill="#bcbbbb"/>
<rect x="18" y="9" width="10" height="1" fill="#dfdfdf"/>
<rect x="15" y="9" width="1" height="1" fill="#eaeaea"/>
<rect x="8" y="9" width="3" height="1" fill="#ededed"/>
<rect x="1" y="9" width="7" height="1" fill="#eeeeee"/>
<rect x="16" y="9" width="1" height="1" fill="#e9e9e9"/>
<rect x="11" y="9" width="2" height="1" fill="#ececec"/>
<rect x="28" y="9" width="1" height="1" fill="#cecece"/>
<rect x="17" y="9" width="1" height="1" fill="#e7e7e7"/>
<rect x="13" y="9" width="2" height="1" fill="#ebebeb"/>
<rect x="30" y="5" width="1" height="6" fill="#b4b4b4"/>
<rect x="0" y="9" width="1" height="2" fill="#dcdcdc"/>
<rect x="14" y="10" width="2" height="1" fill="#e9e9e9"/>
<rect x="23" y="10" width="1" height="1" fill="#e8e8e8"/>
<rect x="6" y="10" width="1" height="1" fill="#e5e5e5"/>
<rect x="4" y="10" width="1" height="1" fill="#e8e8e8"/>
<rect x="16" y="10" width="2" height="1" fill="#e8e8e8"/>
<rect x="18" y="10" width="2" height="1" fill="#e2e2e2"/>
<rect x="22" y="10" width="1" height="1" fill="#e7e7e7"/>
<rect x="24" y="10" width="1" height="1" fill="#eaeaea"/>
<rect x="8" y="10" width="2" height="1" fill="#e5e5e5"/>
<rect x="7" y="10" width="1" height="1" fill="#e6e6e6"/>
<rect x="28" y="10" width="1" height="1" fill="#d8d7d7"/>
<rect x="5" y="10" width="1" height="1" fill="#e7e7e7"/>
<rect x="20" y="10" width="1" height="1" fill="#e4e4e4"/>
<rect x="27" y="10" width="1" height="1" fill="#ededed"/>
<rect x="10" y="10" width="4" height="1" fill="#e8e8e8"/>
<rect x="2" y="10" width="2" height="1" fill="#e9e9e9"/>
<rect x="26" y="10" width="1" height="1" fill="#ececec"/>
<rect x="1" y="10" width="1" height="1" fill="#ebebeb"/>
<rect x="25" y="10" width="1" height="1" fill="#ebebeb"/>
<rect x="21" y="10" width="1" height="1" fill="#e5e5e5"/>
<rect x="27" y="11" width="1" height="1" fill="#eeeeee"/>
<rect x="7" y="11" width="1" height="1" fill="#e7e7e7"/>
<rect x="5" y="11" width="2" height="1" fill="#e6e6e6"/>
<rect x="4" y="11" width="1" height="1" fill="#e5e5e5"/>
<rect x="9" y="11" width="1" height="1" fill="#eaeaea"/>
<rect x="2" y="11" width="1" height="1" fill="#e5e5e5"/>
<rect x="18" y="11" width="1" height="1" fill="#eeeeee"/>
<rect x="0" y="11" width="1" height="1" fill="#cecece"/>
<rect x="3" y="11" width="1" height="1" fill="#e4e4e4"/>
<rect x="8" y="11" width="1" height="1" fill="#e8e8e8"/>
<rect x="14" y="11" width="1" height="1" fill="#ededed"/>
<rect x="10" y="11" width="1" height="1" fill="#ededed"/>
<rect x="1" y="11" width="1" height="1" fill="#e4e4e4"/>
<rect x="11" y="11" width="1" height="1" fill="#eeeeee"/>
<rect x="15" y="11" width="2" height="1" fill="#eeeeee"/>
<rect x="29" y="10" width="1" height="3" fill="#c4c4c3"/>
<rect x="28" y="11" width="1" height="2" fill="#dcdcdc"/>
<rect x="1" y="12" width="1" height="1" fill="#f0f0f0"/>
<rect x="0" y="12" width="1" height="1" fill="#dcdcdc"/>
<rect x="3" y="12" width="1" height="1" fill="#f5f5f5"/>
<rect x="13" y="12" width="1" height="1" fill="#f3f3f3"/>
<rect x="4" y="12" width="3" height="1" fill="#f3f3f3"/>
<rect x="10" y="12" width="2" height="1" fill="#f5f5f5"/>
<rect x="12" y="12" width="1" height="1" fill="#f4f4f4"/>
<rect x="2" y="12" width="1" height="1" fill="#f3f3f3"/>
<rect x="7" y="12" width="3" height="1" fill="#f4f4f4"/>
<rect x="30" y="11" width="1" height="3" fill="#bcbbbb"/>
<rect x="28" y="13" width="1" height="1" fill="#dfdfdf"/>
<rect x="10" y="13" width="3" height="1" fill="#f0f0f0"/>
<rect x="8" y="13" width="2" height="1" fill="#f2f2f2"/>
<rect x="29" y="13" width="1" height="1" fill="#c2c1c1"/>
<rect x="4" y="13" width="2" height="1" fill="#f4f4f4"/>
<rect x="6" y="13" width="2" height="1" fill="#f3f3f3"/>
<rect x="3" y="13" width="1" height="1" fill="#f8f8f8"/>
<rect x="27" y="13" width="1" height="1" fill="#eeeeee"/>
<rect x="1" y="13" width="2" height="1" fill="#fafafa"/>
<rect x="0" y="13" width="1" height="1" fill="#e6e6e6"/>
<rect x="31" y="0" width="1" height="15" fill="#a2a2a2"/>
<rect x="19" y="14" width="2" height="1" fill="#ececec"/>
<rect x="25" y="14" width="3" height="1" fill="#e2e2e2"/>
<rect x="14" y="14" width="4" height="1" fill="#eeeeee"/>
<rect x="5" y="14" width="5" height="1" fill="#eeeeee"/>
<rect x="1" y="14" width="2" height="1" fill="#f0f0f0"/>
<rect x="21" y="14" width="1" height="1" fill="#ebebeb"/>
<rect x="23" y="14" width="1" height="1" fill="#e5e5e5"/>
<rect x="11" y="14" width="1" height="1" fill="#eeeeee"/>
<rect x="18" y="14" width="1" height="1" fill="#ededed"/>
<rect x="22" y="14" width="1" height="1" fill="#e7e7e7"/>
<rect x="24" y="14" width="1" height="1" fill="#e4e4e4"/>
<rect x="29" y="14" width="1" height="2" fill="#bcbbbb"/>
<rect x="30" y="14" width="1" height="2" fill="#b4b4b4"/>
<rect x="0" y="14" width="1" height="2" fill="#e2e2e2"/>
<rect x="28" y="14" width="1" height="2" fill="#d8d7d7"/>
<rect x="14" y="15" width="2" height="1" fill="#e5e5e5"/>
<rect x="22" y="15" width="1" height="1" fill="#e2e2e2"/>
<rect x="16" y="15" width="6" height="1" fill="#e8e8e8"/>
<rect x="1" y="15" width="3" height="1" fill="#eeeeee"/>
<rect x="12" y="15" width="1" height="1" fill="#e7e7e7"/>
<rect x="10" y="15" width="2" height="1" fill="#e8e8e8"/>
<rect x="13" y="15" width="1" height="1" fill="#e6e6e6"/>
<rect x="23" y="15" width="5" height="1" fill="#dfdfdf"/>
<rect x="8" y="15" width="2" height="1" fill="#eaeaea"/>
<rect x="5" y="15" width="1" height="1" fill="#ececec"/>
<rect x="4" y="15" width="1" height="1" fill="#ededed"/>
<rect x="6" y="15" width="2" height="1" fill="#ebebeb"/>
<rect x="31" y="15" width="1" height="2" fill="#a9a8a8"/>
<rect x="16" y="16" width="2" height="1" fill="#eaeaea"/>
<rect x="15" y="16" width="1" height="1" fill="#e6e6e6"/>
<rect x="3" y="16" width="2" height="1" fill="#e4e4e4"/>
<rect x="19" y="16" width="1" height="1" fill="#ececec"/>
<rect x="1" y="16" width="2" height="1" fill="#e5e5e5"/>
<rect x="24" y="16" width="1" height="1" fill="#eaeaea"/>
<rect x="28" y="16" width="1" height="1" fill="#e4e4e4"/>
<rect x="22" y="16" width="1" height="1" fill="#e8e8e8"/>
<rect x="27" y="16" width="1" height="1" fill="#ededed"/>
<rect x="26" y="16" width="1" height="1" fill="#ececec"/>
<rect x="6" y="16" width="6" height="1" fill="#e4e4e4"/>
<rect x="25" y="16" width="1" height="1" fill="#ebebeb"/>
<rect x="30" y="16" width="1" height="1" fill="#bcbbbb"/>
<rect x="23" y="16" width="1" height="1" fill="#e9e9e9"/>
<rect x="20" y="16" width="2" height="1" fill="#ebebeb"/>
<rect x="5" y="16" width="1" height="1" fill="#e5e5e5"/>
<rect x="18" y="16" width="1" height="1" fill="#ebebeb"/>
<rect x="12" y="16" width="3" height="1" fill="#e5e5e5"/>
<rect x="0" y="16" width="1" height="2" fill="#d8d7d7"/>
<rect x="10" y="17" width="1" height="1" fill="#f3f3f3"/>
<rect x="4" y="17" width="1" height="1" fill="#eaeaea"/>
<rect x="3" y="17" width="1" height="1" fill="#e9e9e9"/>
<rect x="28" y="17" width="1" height="1" fill="#e6e6e6"/>
<rect x="12" y="17" width="1" height="1" fill="#f0f0f0"/>
<rect x="11" y="17" width="1" height="1" fill="#f4f4f4"/>
<rect x="13" y="17" width="1" height="1" fill="#f2f2f2"/>
<rect x="15" y="17" width="4" height="1" fill="#f4f4f4"/>
<rect x="19" y="17" width="1" height="1" fill="#f5f5f5"/>
<rect x="1" y="17" width="1" height="1" fill="#e6e6e6"/>
<rect x="6" y="17" width="1" height="1" fill="#ededed"/>
<rect x="7" y="17" width="1" height="1" fill="#eeeeee"/>
<rect x="14" y="17" width="1" height="1" fill="#f3f3f3"/>
<rect x="5" y="17" width="1" height="1" fill="#ececec"/>
<rect x="8" y="17" width="2" height="1" fill="#f0f0f0"/>
<rect x="2" y="17" width="1" height="1" fill="#e7e7e7"/>
<rect x="31" y="17" width="1" height="2" fill="#a2a2a2"/>
<rect x="0" y="18" width="1" height="1" fill="#e8e8e8"/>
<rect x="3" y="18" width="8" height="1" fill="#fafafa"/>
<rect x="15" y="18" width="1" height="1" fill="#f4f4f4"/>
<rect x="11" y="18" width="1" height="1" fill="#f8f8f8"/>
<rect x="17" y="18" width="3" height="1" fill="#f2f2f2"/>
<rect x="13" y="18" width="2" height="1" fill="#f3f3f3"/>
<rect x="16" y="18" width="1" height="1" fill="#f3f3f3"/>
<rect x="28" y="18" width="1" height="1" fill="#e8e8e8"/>
<rect x="12" y="18" width="1" height="1" fill="#f4f4f4"/>
<rect x="29" y="16" width="1" height="4" fill="#c4c4c3"/>
<rect x="30" y="17" width="1" height="3" fill="#c2c1c1"/>
<rect x="1" y="18" width="2" height="2" fill="#f8f8f8"/>
<rect x="7" y="19" width="2" height="1" fill="#f3f3f3"/>
<rect x="10" y="19" width="2" height="1" fill="#f0f0f0"/>
<rect x="6" y="19" width="1" height="1" fill="#f4f4f4"/>
<rect x="27" y="19" width="1" height="1" fill="#eeeeee"/>
<rect x="3" y="19" width="3" height="1" fill="#f5f5f5"/>
<rect x="28" y="19" width="1" height="1" fill="#e9e9e9"/>
<rect x="9" y="19" width="1" height="1" fill="#f2f2f2"/>
<rect x="15" y="19" width="6" height="1" fill="#eeeeee"/>
<rect x="0" y="19" width="1" height="1" fill="#eaeaea"/>
<rect x="28" y="20" width="1" height="1" fill="#dfdfdf"/>
<rect x="15" y="20" width="5" height="1" fill="#ededed"/>
<rect x="1" y="20" width="8" height="1" fill="#eeeeee"/>
<rect x="26" y="20" width="2" height="1" fill="#e2e2e2"/>
<rect x="22" y="20" width="2" height="1" fill="#e6e6e6"/>
<rect x="0" y="20" width="1" height="1" fill="#e4e4e4"/>
<rect x="25" y="20" width="1" height="1" fill="#e4e4e4"/>
<rect x="11" y="20" width="4" height="1" fill="#eeeeee"/>
<rect x="21" y="20" width="1" height="1" fill="#e8e8e8"/>
<rect x="24" y="20" width="1" height="1" fill="#e5e5e5"/>
<rect x="20" y="20" width="1" height="1" fill="#e9e9e9"/>
<rect x="29" y="20" width="2" height="2" fill="#bcbbbb"/>
<rect x="9" y="21" width="1" height="1" fill="#e7e7e7"/>
<rect x="2" y="21" width="2" height="1" fill="#ebebeb"/>
<rect x="7" y="21" width="2" height="1" fill="#e8e8e8"/>
<rect x="4" y="21" width="1" height="1" fill="#eaeaea"/>
<rect x="5" y="21" width="2" height="1" fill="#e9e9e9"/>
<rect x="10" y="21" width="2" height="1" fill="#e6e6e6"/>
<rect x="28" y="21" width="1" height="1" fill="#dcdcdc"/>
<rect x="0" y="21" width="1" height="1" fill="#e2e2e2"/>
<rect x="20" y="21" width="1" height="1" fill="#e2e2e2"/>
<rect x="21" y="21" width="7" height="1" fill="#dfdfdf"/>
<rect x="15" y="21" width="5" height="1" fill="#e8e8e8"/>
<rect x="1" y="21" width="1" height="1" fill="#ececec"/>
<rect x="12" y="21" width="3" height="2" fill="#e9e9e9"/>
<rect x="27" y="22" width="1" height="1" fill="#ebebeb"/>
<rect x="20" y="22" width="3" height="1" fill="#e6e6e6"/>
<rect x="11" y="22" width="1" height="1" fill="#e5e5e5"/>
<rect x="0" y="22" width="1" height="1" fill="#dcdcdc"/>
<rect x="15" y="22" width="1" height="1" fill="#eaeaea"/>
<rect x="23" y="22" width="1" height="1" fill="#e7e7e7"/>
<rect x="24" y="22" width="1" height="1" fill="#e8e8e8"/>
<rect x="17" y="22" width="3" height="1" fill="#eaeaea"/>
<rect x="26" y="22" width="1" height="1" fill="#eaeaea"/>
<rect x="1" y="22" width="1" height="1" fill="#e5e5e5"/>
<rect x="29" y="22" width="1" height="1" fill="#c4c4c3"/>
<rect x="16" y="22" width="1" height="1" fill="#e9e9e9"/>
<rect x="25" y="22" width="1" height="1" fill="#e9e9e9"/>
<rect x="28" y="22" width="1" height="1" fill="#e9e9e9"/>
<rect x="2" y="22" width="9" height="1" fill="#e4e4e4"/>
<rect x="31" y="19" width="1" height="5" fill="#a9a8a8"/>
<rect x="12" y="23" width="2" height="1" fill="#f3f3f3"/>
<rect x="2" y="23" width="1" height="1" fill="#ededed"/>
<rect x="14" y="23" width="1" height="1" fill="#f4f4f4"/>
<rect x="11" y="23" width="1" height="1" fill="#f2f2f2"/>
<rect x="28" y="23" width="1" height="1" fill="#ededed"/>
<rect x="8" y="23" width="3" height="1" fill="#f0f0f0"/>
<rect x="6" y="23" width="1" height="1" fill="#f2f2f2"/>
<rect x="0" y="23" width="1" height="1" fill="#e2e2e2"/>
<rect x="7" y="23" width="1" height="1" fill="#f3f3f3"/>
<rect x="4" y="23" width="2" height="1" fill="#f0f0f0"/>
<rect x="1" y="23" width="1" height="1" fill="#ececec"/>
<rect x="15" y="23" width="1" height="2" fill="#f3f3f3"/>
<rect x="28" y="24" width="1" height="1" fill="#eeeeee"/>
<rect x="8" y="24" width="3" height="1" fill="#f4f4f4"/>
<rect x="1" y="24" width="6" height="1" fill="#fafafa"/>
<rect x="12" y="24" width="3" height="1" fill="#f4f4f4"/>
<rect x="11" y="24" width="1" height="1" fill="#f3f3f3"/>
<rect x="7" y="24" width="1" height="1" fill="#f8f8f8"/>
<rect x="7" y="25" width="2" height="1" fill="#f0f0f0"/>
<rect x="0" y="25" width="1" height="1" fill="#ececec"/>
<rect x="2" y="25" width="2" height="1" fill="#f4f4f4"/>
<rect x="4" y="25" width="1" height="1" fill="#f3f3f3"/>
<rect x="5" y="25" width="2" height="1" fill="#f2f2f2"/>
<rect x="1" y="25" width="1" height="1" fill="#f5f5f5"/>
<rect x="15" y="25" width="2" height="1" fill="#eeeeee"/>
<rect x="30" y="22" width="1" height="5" fill="#c2c1c1"/>
<rect x="29" y="23" width="1" height="4" fill="#c9c9c9"/>
<rect x="31" y="24" width="1" height="3" fill="#afafaf"/>
<rect x="0" y="26" width="1" height="1" fill="#e8e8e8"/>
<rect x="9" y="26" width="3" height="1" fill="#eeeeee"/>
<rect x="19" y="26" width="1" height="1" fill="#e6e6e6"/>
<rect x="14" y="26" width="2" height="1" fill="#ebebeb"/>
<rect x="13" y="26" width="1" height="1" fill="#ececec"/>
<rect x="16" y="26" width="2" height="1" fill="#eaeaea"/>
<rect x="24" y="26" width="3" height="1" fill="#dcdcdc"/>
<rect x="27" y="26" width="2" height="1" fill="#d8d7d7"/>
<rect x="23" y="26" width="1" height="1" fill="#dfdfdf"/>
<rect x="12" y="26" width="1" height="1" fill="#ededed"/>
<rect x="18" y="26" width="1" height="1" fill="#e8e8e8"/>
<rect x="20" y="26" width="1" height="1" fill="#e4e4e4"/>
<rect x="21" y="26" width="2" height="1" fill="#e2e2e2"/>
<rect x="14" y="27" width="2" height="1" fill="#c4c4c3"/>
<rect x="12" y="27" width="2" height="1" fill="#c9c9c9"/>
<rect x="29" y="27" width="2" height="1" fill="#c2c1c1"/>
<rect x="0" y="27" width="4" height="1" fill="#dcdcdc"/>
<rect x="25" y="27" width="4" height="1" fill="#c4c4c3"/>
<rect x="4" y="27" width="5" height="1" fill="#d8d7d7"/>
<rect x="18" y="27" width="6" height="1" fill="#c4c4c3"/>
<rect x="24" y="27" width="1" height="1" fill="#c2c1c1"/>
<rect x="9" y="27" width="3" height="1" fill="#cecece"/>
<rect x="31" y="27" width="1" height="2" fill="#b4b4b4"/>
<rect x="16" y="27" width="2" height="2" fill="#c9c9c9"/>
<rect x="18" y="28" width="5" height="1" fill="#c4c4c3"/>
<rect x="28" y="28" width="3" height="1" fill="#c2c1c1"/>
<rect x="0" y="28" width="12" height="1" fill="#c9c9c9"/>
<rect x="12" y="28" width="4" height="1" fill="#c4c4c3"/>
<rect x="23" y="28" width="3" height="1" fill="#c2c1c1"/>
<rect x="26" y="28" width="2" height="1" fill="#c4c4c3"/>
<rect x="10" y="29" width="2" height="1" fill="#b4b4b4"/>
<rect x="4" y="29" width="2" height="1" fill="#bcbbbb"/>
<rect x="23" y="29" width="2" height="1" fill="#a9a8a8"/>
<rect x="25" y="29" width="6" height="1" fill="#b4b4b4"/>
<rect x="12" y="29" width="4" height="1" fill="#bcbbbb"/>
<rect x="6" y="29" width="4" height="1" fill="#c2c1c1"/>
<rect x="0" y="29" width="1" height="1" fill="#c9c9c9"/>
<rect x="19" y="29" width="3" height="1" fill="#bcbbbb"/>
<rect x="22" y="29" width="1" height="1" fill="#b4b4b4"/>
<rect x="17" y="29" width="2" height="1" fill="#afafaf"/>
<rect x="1" y="29" width="3" height="1" fill="#c4c4c3"/>
<rect x="16" y="29" width="1" height="1" fill="#b4b4b4"/>
<rect x="31" y="29" width="1" height="1" fill="#afafaf"/>
<rect x="11" y="30" width="1" height="1" fill="#a2a2a2"/>
<rect x="10" y="30" width="1" height="1" fill="#afafaf"/>
<rect x="6" y="30" width="1" height="1" fill="#a9a8a8"/>
<rect x="24" y="30" width="2" height="1" fill="#a2a2a2"/>
<rect x="26" y="30" width="6" height="1" fill="#afafaf"/>
<rect x="19" y="30" width="5" height="1" fill="#afafaf"/>
<rect x="13" y="30" width="3" height="1" fill="#b4b4b4"/>
<rect x="12" y="30" width="1" height="1" fill="#a9a8a8"/>
<rect x="16" y="30" width="1" height="1" fill="#afafaf"/>
<rect x="4" y="30" width="1" height="1" fill="#afafaf"/>
<rect x="17" y="30" width="2" height="1" fill="#a2a2a2"/>
<rect x="1" y="30" width="3" height="1" fill="#b4b4b4"/>
<rect x="5" y="30" width="1" height="1" fill="#a2a2a2"/>
<rect x="7" y="30" width="3" height="1" fill="#b4b4b4"/>
<rect x="0" y="30" width="1" height="2" fill="#bcbbbb"/>
<rect x="27" y="31" width="4" height="1" fill="#b4b4b4"/>
<rect x="11" y="31" width="2" height="1" fill="#a2a2a2"/>
<rect x="17" y="31" width="1" height="1" fill="#a9a8a8"/>
<rect x="2" y="31" width="3" height="1" fill="#afafaf"/>
<rect x="18" y="31" width="2" height="1" fill="#a2a2a2"/>
<rect x="25" y="31" width="1" height="1" fill="#a2a2a2"/>
<rect x="26" y="31" width="1" height="1" fill="#a9a8a8"/>
<rect x="8" y="31" width="3" height="1" fill="#afafaf"/>
<rect x="13" y="31" width="1" height="1" fill="#a9a8a8"/>
<rect x="31" y="31" width="1" height="1" fill="#afafaf"/>
<rect x="20" y="31" width="4" height="1" fill="#afafaf"/>
<rect x="24" y="31" width="1" height="1" fill="#a9a8a8"/>
<rect x="14" y="31" width="3" height="1" fill="#afafaf"/>
<rect x="1" y="31" width="1" height="1" fill="#b4b4b4"/>
<rect x="7" y="31" width="1" height="1" fill="#a9a8a8"/>
<rect x="5" y="31" width="2" height="1" fill="#a2a2a2"/>
</svg>