<?xml version="1.0" encoding="UTF-8"?>
<svg xmlns="http://www.w3.org/2000/svg" width="20mm" height="20mm" viewBox="0 0 32 32" shape-rendering="crispEdges">
<title>078 右侧面 structured semantic redraw</title>
<metadata>registered 32-unit semantic vector redraw; no embedded raster; physical-size=20mm</metadata>
<rect x="0" y="0" width="32" height="32" fill="#6d3c3b"/>
<rect x="9" y="0" width="1" height="1" fill="#8d403e"/>
<rect x="19" y="0" width="4" height="1" fill="#893d3c"/>
<rect x="10" y="0" width="1" height="1" fill="#8d3d3c"/>
<rect x="13" y="0" width="2" height="1" fill="#a4774c"/>
<rect x="16" y="0" width="1" height="1" fill="#a4774c"/>
<rect x="23" y="0" width="5" height="1" fill="#873e3d"/>
<rect x="6" y="0" width="2" height="1" fill="#994643"/>
<rect x="8" y="0" width="1" height="1" fill="#974341"/>
<rect x="0" y="0" width="6" height="1" fill="#a4774c"/>
<rect x="11" y="0" width="1" height="1" fill="#893d3c"/>
<rect x="18" y="0" width="1" height="1" fill="#853c3b"/>
<rect x="15" y="0" width="1" height="1" fill="#bbae59"/>
<rect x="17" y="0" width="1" height="1" fill="#8d403e"/>
<rect x="28" y="0" width="2" height="2" fill="#8d403e"/>
<rect x="30" y="0" width="1" height="2" fill="#95413f"/>
<rect x="3" y="1" width="2" height="1" fill="#853c3b"/>
<rect x="8" y="1" width="3" height="1" fill="#893d3c"/>
<rect x="13" y="1" width="1" height="1" fill="#a4774c"/>
<rect x="0" y="1" width="2" height="1" fill="#854943"/>
<rect x="21" y="1" width="7" height="1" fill="#873e3d"/>
<rect x="14" y="1" width="1" height="1" fill="#bbae59"/>
<rect x="2" y="1" width="1" height="1" fill="#873e3d"/>
<rect x="5" y="1" width="3" height="1" fill="#8d3d3c"/>
<rect x="12" y="0" width="1" height="3" fill="#854943"/>
<rect x="19" y="1" width="1" height="2" fill="#893d3c"/>
<rect x="20" y="1" width="1" height="2" fill="#8d3d3c"/>
<rect x="18" y="1" width="1" height="2" fill="#873e3d"/>
<rect x="15" y="1" width="2" height="2" fill="#a4774c"/>
<rect x="5" y="2" width="4" height="1" fill="#893d3c"/>
<rect x="0" y="2" width="1" height="1" fill="#813e3c"/>
<rect x="4" y="2" width="1" height="1" fill="#853c3b"/>
<rect x="1" y="2" width="2" height="1" fill="#853c3b"/>
<rect x="27" y="2" width="1" height="1" fill="#893d3c"/>
<rect x="3" y="2" width="1" height="1" fill="#813e3c"/>
<rect x="13" y="2" width="2" height="1" fill="#bbae59"/>
<rect x="29" y="2" width="1" height="1" fill="#93403e"/>
<rect x="28" y="2" width="1" height="1" fill="#903d3c"/>
<rect x="21" y="2" width="6" height="1" fill="#873e3d"/>
<rect x="17" y="1" width="1" height="3" fill="#854943"/>
<rect x="11" y="1" width="1" height="3" fill="#853c3b"/>
<rect x="9" y="2" width="1" height="2" fill="#853c3b"/>
<rect x="10" y="2" width="1" height="2" fill="#873e3d"/>
<rect x="0" y="3" width="1" height="1" fill="#8d3d3c"/>
<rect x="19" y="3" width="5" height="1" fill="#8d3d3c"/>
<rect x="2" y="3" width="7" height="1" fill="#893d3c"/>
<rect x="18" y="3" width="1" height="1" fill="#893d3c"/>
<rect x="24" y="3" width="4" height="1" fill="#8d403e"/>
<rect x="28" y="3" width="1" height="2" fill="#93403e"/>
<rect x="29" y="3" width="1" height="2" fill="#95413f"/>
<rect x="25" y="4" width="3" height="1" fill="#8d403e"/>
<rect x="18" y="4" width="7" height="1" fill="#8d3d3c"/>
<rect x="2" y="4" width="10" height="1" fill="#893d3c"/>
<rect x="1" y="3" width="1" height="3" fill="#8d403e"/>
<rect x="12" y="3" width="1" height="3" fill="#8d403e"/>
<rect x="0" y="4" width="1" height="2" fill="#93403e"/>
<rect x="21" y="5" width="3" height="1" fill="#903d3c"/>
<rect x="24" y="5" width="4" height="1" fill="#93403e"/>
<rect x="11" y="5" width="1" height="1" fill="#893d3c"/>
<rect x="2" y="5" width="9" height="1" fill="#8d3d3c"/>
<rect x="18" y="5" width="3" height="1" fill="#8d3d3c"/>
<rect x="31" y="0" width="1" height="7" fill="#994643"/>
<rect x="30" y="2" width="1" height="5" fill="#974341"/>
<rect x="17" y="4" width="1" height="3" fill="#994643"/>
<rect x="28" y="5" width="2" height="2" fill="#95413f"/>
<rect x="22" y="6" width="6" height="1" fill="#93403e"/>
<rect x="0" y="6" width="2" height="1" fill="#93403e"/>
<rect x="2" y="6" width="11" height="1" fill="#8d3d3c"/>
<rect x="13" y="3" width="4" height="5" fill="#bbae59"/>
<rect x="18" y="6" width="4" height="2" fill="#903d3c"/>
<rect x="2" y="7" width="1" height="1" fill="#8d3d3c"/>
<rect x="0" y="7" width="1" height="1" fill="#93403e"/>
<rect x="5" y="7" width="4" height="1" fill="#8d3d3c"/>
<rect x="3" y="7" width="2" height="1" fill="#903d3c"/>
<rect x="30" y="7" width="2" height="1" fill="#994643"/>
<rect x="28" y="7" width="2" height="1" fill="#974341"/>
<rect x="9" y="7" width="4" height="1" fill="#903d3c"/>
<rect x="25" y="7" width="3" height="1" fill="#95413f"/>
<rect x="22" y="7" width="3" height="1" fill="#93403e"/>
<rect x="1" y="7" width="1" height="1" fill="#95413f"/>
<rect x="8" y="8" width="5" height="1" fill="#903d3c"/>
<rect x="21" y="8" width="11" height="1" fill="#994643"/>
<rect x="6" y="8" width="2" height="1" fill="#8d3d3c"/>
<rect x="2" y="8" width="4" height="1" fill="#903d3c"/>
<rect x="18" y="8" width="1" height="1" fill="#95413f"/>
<rect x="19" y="8" width="2" height="1" fill="#974341"/>
<rect x="0" y="8" width="2" height="1" fill="#95413f"/>
<rect x="30" y="9" width="2" height="1" fill="#974341"/>
<rect x="18" y="9" width="12" height="1" fill="#994643"/>
<rect x="9" y="9" width="4" height="1" fill="#974341"/>
<rect x="2" y="9" width="5" height="1" fill="#93403e"/>
<rect x="1" y="9" width="1" height="1" fill="#95413f"/>
<rect x="7" y="9" width="2" height="1" fill="#95413f"/>
<rect x="22" y="10" width="1" height="1" fill="#93403e"/>
<rect x="18" y="10" width="3" height="1" fill="#974341"/>
<rect x="23" y="10" width="5" height="1" fill="#8d403e"/>
<rect x="21" y="10" width="1" height="1" fill="#95413f"/>
<rect x="2" y="10" width="11" height="1" fill="#994643"/>
<rect x="28" y="10" width="1" height="2" fill="#873e3d"/>
<rect x="30" y="10" width="2" height="2" fill="#873e3d"/>
<rect x="29" y="10" width="1" height="2" fill="#853c3b"/>
<rect x="12" y="11" width="1" height="1" fill="#893d3c"/>
<rect x="26" y="11" width="2" height="1" fill="#8d403e"/>
<rect x="2" y="11" width="3" height="1" fill="#994643"/>
<rect x="7" y="11" width="2" height="1" fill="#95413f"/>
<rect x="9" y="11" width="1" height="1" fill="#93403e"/>
<rect x="20" y="11" width="2" height="1" fill="#893d3c"/>
<rect x="5" y="11" width="2" height="1" fill="#974341"/>
<rect x="10" y="11" width="2" height="1" fill="#8d403e"/>
<rect x="22" y="11" width="1" height="1" fill="#8d403e"/>
<rect x="18" y="11" width="2" height="1" fill="#873e3d"/>
<rect x="23" y="11" width="3" height="1" fill="#893d3c"/>
<rect x="17" y="7" width="1" height="6" fill="#a4774c"/>
<rect x="13" y="8" width="1" height="5" fill="#a4774c"/>
<rect x="14" y="8" width="3" height="5" fill="#bbae59"/>
<rect x="5" y="12" width="6" height="1" fill="#893d3c"/>
<rect x="18" y="12" width="1" height="1" fill="#853c3b"/>
<rect x="30" y="12" width="1" height="1" fill="#673c3b"/>
<rect x="29" y="12" width="1" height="1" fill="#6a3c3c"/>
<rect x="3" y="12" width="1" height="1" fill="#893d3c"/>
<rect x="25" y="12" width="2" height="1" fill="#77413f"/>
<rect x="11" y="12" width="2" height="1" fill="#873e3d"/>
<rect x="23" y="12" width="2" height="1" fill="#813e3c"/>
<rect x="4" y="12" width="1" height="1" fill="#873e3d"/>
<rect x="19" y="12" width="3" height="1" fill="#873e3d"/>
<rect x="22" y="12" width="1" height="1" fill="#853c3b"/>
<rect x="27" y="12" width="1" height="1" fill="#713c3b"/>
<rect x="31" y="12" width="1" height="1" fill="#623c3b"/>
<rect x="0" y="9" width="1" height="5" fill="#994643"/>
<rect x="1" y="10" width="1" height="4" fill="#974341"/>
<rect x="2" y="12" width="1" height="2" fill="#8d403e"/>
<rect x="27" y="13" width="1" height="1" fill="#5c3c3b"/>
<rect x="31" y="13" width="1" height="1" fill="#5a3b3a"/>
<rect x="19" y="13" width="2" height="1" fill="#5d3b3a"/>
<rect x="11" y="13" width="1" height="1" fill="#77413f"/>
<rect x="13" y="13" width="3" height="1" fill="#854943"/>
<rect x="16" y="13" width="1" height="1" fill="#77413f"/>
<rect x="18" y="13" width="1" height="1" fill="#623b3b"/>
<rect x="7" y="13" width="1" height="1" fill="#853c3b"/>
<rect x="5" y="13" width="2" height="1" fill="#873e3d"/>
<rect x="12" y="13" width="1" height="1" fill="#713c3b"/>
<rect x="3" y="13" width="2" height="1" fill="#893d3c"/>
<rect x="28" y="13" width="1" height="1" fill="#5b3b3b"/>
<rect x="25" y="13" width="2" height="1" fill="#5b3b3b"/>
<rect x="21" y="13" width="4" height="1" fill="#5c3c3b"/>
<rect x="8" y="13" width="3" height="1" fill="#813e3c"/>
<rect x="29" y="13" width="1" height="1" fill="#5c3c3b"/>
<rect x="30" y="13" width="1" height="1" fill="#5b3b3b"/>
<rect x="17" y="13" width="1" height="1" fill="#6b3d3c"/>
<rect x="0" y="14" width="1" height="1" fill="#77413f"/>
<rect x="26" y="14" width="6" height="1" fill="#5d3b3a"/>
<rect x="8" y="14" width="5" height="1" fill="#5a3b3a"/>
<rect x="13" y="14" width="1" height="1" fill="#5b3b3b"/>
<rect x="15" y="14" width="1" height="1" fill="#5c3c3b"/>
<rect x="16" y="14" width="1" height="1" fill="#5b3b3b"/>
<rect x="4" y="14" width="1" height="1" fill="#623c3b"/>
<rect x="1" y="14" width="1" height="1" fill="#6e3b3a"/>
<rect x="17" y="14" width="1" height="1" fill="#5c3c3b"/>
<rect x="23" y="14" width="1" height="1" fill="#5b3b3b"/>
<rect x="24" y="14" width="2" height="1" fill="#5c3c3b"/>
<rect x="19" y="14" width="4" height="1" fill="#5c3c3b"/>
<rect x="3" y="14" width="1" height="1" fill="#623b3b"/>
<rect x="5" y="14" width="2" height="1" fill="#5d3b3a"/>
<rect x="7" y="14" width="1" height="1" fill="#5b3b3b"/>
<rect x="2" y="14" width="1" height="1" fill="#673c3b"/>
<rect x="14" y="14" width="1" height="1" fill="#5a3b3a"/>
<rect x="18" y="14" width="1" height="1" fill="#5b3b3b"/>
<rect x="2" y="15" width="1" height="1" fill="#5b3b3b"/>
<rect x="1" y="15" width="1" height="1" fill="#5a3838"/>
<rect x="20" y="15" width="5" height="1" fill="#673c3b"/>
<rect x="0" y="15" width="1" height="1" fill="#623c3b"/>
<rect x="14" y="15" width="1" height="1" fill="#623b3b"/>
<rect x="28" y="15" width="1" height="1" fill="#693c3b"/>
<rect x="29" y="15" width="1" height="1" fill="#673c3b"/>
<rect x="25" y="15" width="2" height="1" fill="#693c3b"/>
<rect x="3" y="15" width="3" height="1" fill="#5a3b3a"/>
<rect x="31" y="15" width="1" height="1" fill="#6a3c3c"/>
<rect x="30" y="15" width="1" height="1" fill="#693c3b"/>
<rect x="9" y="15" width="5" height="1" fill="#5d3b3a"/>
<rect x="6" y="15" width="3" height="1" fill="#5b3b3b"/>
<rect x="15" y="15" width="5" height="1" fill="#623c3b"/>
<rect x="27" y="15" width="1" height="1" fill="#6a3c3b"/>
<rect x="1" y="16" width="1" height="1" fill="#683938"/>
<rect x="28" y="16" width="3" height="1" fill="#673c3b"/>
<rect x="15" y="16" width="2" height="1" fill="#6a3c3b"/>
<rect x="19" y="16" width="2" height="1" fill="#6a3c3c"/>
<rect x="24" y="16" width="1" height="1" fill="#693c3b"/>
<rect x="4" y="16" width="4" height="1" fill="#673c3b"/>
<rect x="25" y="16" width="1" height="1" fill="#6a3c3b"/>
<rect x="17" y="16" width="1" height="1" fill="#6a3c3c"/>
<rect x="18" y="16" width="1" height="1" fill="#6a3c3b"/>
<rect x="22" y="16" width="2" height="1" fill="#6a3c3b"/>
<rect x="8" y="16" width="1" height="1" fill="#693c3b"/>
<rect x="31" y="16" width="1" height="1" fill="#693c3b"/>
<rect x="12" y="16" width="3" height="1" fill="#693c3b"/>
<rect x="26" y="16" width="2" height="1" fill="#6a3c3c"/>
<rect x="9" y="16" width="1" height="1" fill="#6a3c3b"/>
<rect x="21" y="16" width="1" height="1" fill="#693c3b"/>
<rect x="3" y="16" width="1" height="1" fill="#6b3c3b"/>
<rect x="0" y="16" width="1" height="2" fill="#77413f"/>
<rect x="25" y="17" width="1" height="1" fill="#6b3d3c"/>
<rect x="29" y="17" width="2" height="1" fill="#693c3b"/>
<rect x="7" y="17" width="3" height="1" fill="#6a3c3b"/>
<rect x="22" y="17" width="1" height="1" fill="#6a3c3c"/>
<rect x="5" y="17" width="2" height="1" fill="#693c3b"/>
<rect x="17" y="17" width="1" height="1" fill="#6a3c3b"/>
<rect x="12" y="17" width="4" height="1" fill="#693c3b"/>
<rect x="16" y="17" width="1" height="1" fill="#6a3c3c"/>
<rect x="23" y="17" width="1" height="1" fill="#6b3d3c"/>
<rect x="31" y="17" width="1" height="1" fill="#6a3c3c"/>
<rect x="18" y="17" width="1" height="1" fill="#6a3c3c"/>
<rect x="19" y="17" width="3" height="1" fill="#6a3c3b"/>
<rect x="27" y="17" width="1" height="1" fill="#6a3c3a"/>
<rect x="24" y="17" width="1" height="1" fill="#6a3c3b"/>
<rect x="26" y="17" width="1" height="1" fill="#6a3c3b"/>
<rect x="28" y="17" width="1" height="2" fill="#673c3b"/>
<rect x="29" y="18" width="1" height="1" fill="#693c3b"/>
<rect x="20" y="18" width="6" height="1" fill="#6a3c3b"/>
<rect x="0" y="18" width="1" height="1" fill="#713c3b"/>
<rect x="26" y="18" width="1" height="1" fill="#693c3b"/>
<rect x="5" y="18" width="5" height="1" fill="#6a3c3b"/>
<rect x="12" y="18" width="8" height="1" fill="#693c3b"/>
<rect x="27" y="18" width="1" height="1" fill="#6a3c3b"/>
<rect x="10" y="16" width="1" height="4" fill="#6e3b3a"/>
<rect x="2" y="17" width="1" height="3" fill="#77413f"/>
<rect x="3" y="17" width="1" height="3" fill="#713c3b"/>
<rect x="1" y="17" width="1" height="3" fill="#813e3c"/>
<rect x="12" y="19" width="4" height="1" fill="#693c3b"/>
<rect x="16" y="19" width="1" height="1" fill="#6a3c3c"/>
<rect x="6" y="19" width="3" height="1" fill="#6a3c3b"/>
<rect x="22" y="19" width="2" height="1" fill="#673c3b"/>
<rect x="21" y="19" width="1" height="1" fill="#6a3c3b"/>
<rect x="28" y="19" width="2" height="1" fill="#6a3c3b"/>
<rect x="0" y="19" width="1" height="1" fill="#6e3b3a"/>
<rect x="9" y="19" width="1" height="1" fill="#6a3c3a"/>
<rect x="24" y="19" width="3" height="1" fill="#6b3c3b"/>
<rect x="5" y="19" width="1" height="1" fill="#693c3b"/>
<rect x="19" y="19" width="2" height="1" fill="#6b3c3b"/>
<rect x="17" y="19" width="2" height="1" fill="#6a3c3b"/>
<rect x="30" y="18" width="2" height="3" fill="#6a3c3c"/>
<rect x="5" y="20" width="1" height="1" fill="#6e3b3a"/>
<rect x="7" y="20" width="3" height="1" fill="#5d3b3a"/>
<rect x="6" y="20" width="1" height="1" fill="#673c3b"/>
<rect x="3" y="20" width="2" height="1" fill="#713c3b"/>
<rect x="1" y="20" width="1" height="1" fill="#77413f"/>
<rect x="2" y="20" width="1" height="2" fill="#813e3c"/>
<rect x="15" y="20" width="1" height="2" fill="#6b3c3b"/>
<rect x="23" y="20" width="1" height="2" fill="#5d3b3a"/>
<rect x="12" y="20" width="2" height="2" fill="#6b3c3b"/>
<rect x="17" y="20" width="4" height="2" fill="#713c3b"/>
<rect x="30" y="21" width="1" height="1" fill="#6a3c3c"/>
<rect x="3" y="21" width="3" height="1" fill="#713c3b"/>
<rect x="8" y="21" width="1" height="1" fill="#5b3b3b"/>
<rect x="31" y="21" width="1" height="1" fill="#6b3d3c"/>
<rect x="25" y="21" width="2" height="1" fill="#6b3c3b"/>
<rect x="7" y="21" width="1" height="1" fill="#5a3b3a"/>
<rect x="27" y="21" width="1" height="1" fill="#6a3c3b"/>
<rect x="9" y="21" width="1" height="1" fill="#5d3b3a"/>
<rect x="22" y="20" width="1" height="3" fill="#5b3b3b"/>
<rect x="1" y="21" width="1" height="2" fill="#854943"/>
<rect x="6" y="21" width="1" height="2" fill="#623b3b"/>
<rect x="20" y="22" width="1" height="1" fill="#623b3b"/>
<rect x="21" y="22" width="1" height="1" fill="#5d3b3a"/>
<rect x="18" y="22" width="1" height="1" fill="#713c3b"/>
<rect x="23" y="22" width="1" height="1" fill="#5c3c3b"/>
<rect x="29" y="22" width="1" height="1" fill="#6e3b3a"/>
<rect x="2" y="22" width="1" height="1" fill="#77413f"/>
<rect x="5" y="22" width="1" height="1" fill="#693c3b"/>
<rect x="7" y="22" width="3" height="1" fill="#5a3b3a"/>
<rect x="10" y="22" width="2" height="1" fill="#623b3b"/>
<rect x="30" y="22" width="2" height="2" fill="#6b3d3c"/>
<rect x="3" y="22" width="1" height="2" fill="#713c3b"/>
<rect x="24" y="22" width="4" height="2" fill="#5d3b3a"/>
<rect x="17" y="23" width="2" height="1" fill="#713c3b"/>
<rect x="22" y="23" width="1" height="1" fill="#5a3b3a"/>
<rect x="10" y="23" width="2" height="1" fill="#5d3b3a"/>
<rect x="23" y="23" width="1" height="1" fill="#5b3b3b"/>
<rect x="1" y="23" width="2" height="1" fill="#77413f"/>
<rect x="20" y="23" width="2" height="1" fill="#5d3b3a"/>
<rect x="5" y="23" width="2" height="1" fill="#5d3b3a"/>
<rect x="28" y="23" width="1" height="1" fill="#6b3c3b"/>
<rect x="7" y="23" width="3" height="2" fill="#5b3b3b"/>
<rect x="18" y="24" width="2" height="1" fill="#5d3b3a"/>
<rect x="28" y="24" width="2" height="1" fill="#5c3c3b"/>
<rect x="30" y="24" width="1" height="1" fill="#673c3b"/>
<rect x="3" y="24" width="1" height="1" fill="#673c3b"/>
<rect x="6" y="24" width="1" height="1" fill="#5c3c3b"/>
<rect x="2" y="24" width="1" height="1" fill="#713c3b"/>
<rect x="16" y="24" width="1" height="1" fill="#6e3b3a"/>
<rect x="5" y="24" width="1" height="1" fill="#5d3b3a"/>
<rect x="24" y="24" width="4" height="1" fill="#5b3b3b"/>
<rect x="13" y="24" width="1" height="1" fill="#623b3b"/>
<rect x="23" y="24" width="1" height="1" fill="#5a3b3a"/>
<rect x="4" y="24" width="1" height="1" fill="#623b3b"/>
<rect x="10" y="24" width="1" height="1" fill="#5d3b3a"/>
<rect x="12" y="24" width="1" height="1" fill="#623c3b"/>
<rect x="11" y="24" width="1" height="1" fill="#5c3c3b"/>
<rect x="20" y="24" width="3" height="1" fill="#5b3b3b"/>
<rect x="17" y="24" width="1" height="1" fill="#6b3d3c"/>
<rect x="3" y="25" width="1" height="1" fill="#5d3b3a"/>
<rect x="28" y="25" width="2" height="1" fill="#5b3b3b"/>
<rect x="6" y="25" width="7" height="1" fill="#5a3b3a"/>
<rect x="25" y="25" width="3" height="1" fill="#5a3b3a"/>
<rect x="18" y="25" width="2" height="1" fill="#5b3b3b"/>
<rect x="5" y="25" width="1" height="1" fill="#5b3b3b"/>
<rect x="13" y="25" width="1" height="1" fill="#5b3b3b"/>
<rect x="17" y="25" width="1" height="1" fill="#6b3c3b"/>
<rect x="30" y="25" width="1" height="1" fill="#623c3b"/>
<rect x="24" y="25" width="1" height="1" fill="#5b3b3b"/>
<rect x="4" y="25" width="1" height="1" fill="#5a3b3a"/>
<rect x="20" y="25" width="4" height="1" fill="#5a3b3a"/>
<rect x="14" y="20" width="1" height="7" fill="#693c3b"/>
<rect x="15" y="22" width="1" height="5" fill="#6a3c3b"/>
<rect x="31" y="24" width="1" height="3" fill="#6b3d3c"/>
<rect x="30" y="26" width="1" height="1" fill="#673c3b"/>
<rect x="24" y="26" width="2" height="1" fill="#5b3b3b"/>
<rect x="7" y="26" width="3" height="1" fill="#5d3b3a"/>
<rect x="20" y="26" width="2" height="1" fill="#5b3b3b"/>
<rect x="18" y="26" width="1" height="1" fill="#6a3c3b"/>
<rect x="29" y="26" width="1" height="1" fill="#693c3b"/>
<rect x="10" y="26" width="1" height="1" fill="#5a3b3a"/>
<rect x="13" y="26" width="1" height="1" fill="#673c3b"/>
<rect x="22" y="26" width="2" height="1" fill="#5d3b3a"/>
<rect x="3" y="26" width="2" height="1" fill="#673c3b"/>
<rect x="5" y="26" width="2" height="1" fill="#5a3b3a"/>
<rect x="19" y="26" width="1" height="1" fill="#673c3b"/>
<rect x="12" y="26" width="1" height="1" fill="#623c3b"/>
<rect x="11" y="26" width="1" height="1" fill="#5b3b3b"/>
<rect x="26" y="26" width="1" height="1" fill="#5a3b3a"/>
<rect x="28" y="26" width="1" height="1" fill="#673c3b"/>
<rect x="1" y="24" width="1" height="4" fill="#77413f"/>
<rect x="27" y="26" width="1" height="2" fill="#5b3b3b"/>
<rect x="11" y="27" width="1" height="1" fill="#5a3b3a"/>
<rect x="6" y="27" width="1" height="1" fill="#5a3b3a"/>
<rect x="17" y="27" width="1" height="1" fill="#6e3b3a"/>
<rect x="18" y="27" width="1" height="1" fill="#713c3b"/>
<rect x="24" y="27" width="3" height="1" fill="#5a3b3a"/>
<rect x="12" y="27" width="1" height="1" fill="#693c3b"/>
<rect x="7" y="27" width="4" height="1" fill="#5d3b3a"/>
<rect x="28" y="27" width="1" height="1" fill="#6a3c3b"/>
<rect x="30" y="27" width="2" height="1" fill="#6b3d3c"/>
<rect x="5" y="27" width="1" height="1" fill="#5d3b3a"/>
<rect x="14" y="27" width="2" height="1" fill="#6a3c3b"/>
<rect x="21" y="27" width="3" height="1" fill="#5d3b3a"/>
<rect x="4" y="27" width="1" height="1" fill="#713c3b"/>
<rect x="20" y="27" width="1" height="1" fill="#5c3c3b"/>
<rect x="2" y="25" width="1" height="4" fill="#683938"/>
<rect x="1" y="28" width="1" height="1" fill="#6b3d3c"/>
<rect x="28" y="28" width="2" height="1" fill="#623c3b"/>
<rect x="26" y="28" width="1" height="1" fill="#5d3b3a"/>
<rect x="11" y="28" width="1" height="1" fill="#5d3b3a"/>
<rect x="18" y="28" width="1" height="1" fill="#623c3b"/>
<rect x="3" y="28" width="1" height="1" fill="#673c3b"/>
<rect x="27" y="28" width="1" height="1" fill="#623b3b"/>
<rect x="7" y="28" width="3" height="1" fill="#673c3b"/>
<rect x="25" y="28" width="1" height="1" fill="#623b3b"/>
<rect x="24" y="28" width="1" height="1" fill="#623c3b"/>
<rect x="10" y="28" width="1" height="1" fill="#623b3b"/>
<rect x="19" y="28" width="1" height="1" fill="#623b3b"/>
<rect x="15" y="28" width="1" height="1" fill="#6a3c3b"/>
<rect x="4" y="28" width="1" height="1" fill="#623b3b"/>
<rect x="22" y="28" width="2" height="1" fill="#673c3b"/>
<rect x="12" y="28" width="2" height="1" fill="#623b3b"/>
<rect x="5" y="28" width="2" height="1" fill="#5d3b3a"/>
<rect x="21" y="28" width="1" height="2" fill="#623b3b"/>
<rect x="14" y="28" width="1" height="2" fill="#673c3b"/>
<rect x="20" y="28" width="1" height="2" fill="#623c3b"/>
<rect x="11" y="29" width="1" height="1" fill="#623b3b"/>
<rect x="15" y="29" width="1" height="1" fill="#693c3b"/>
<rect x="28" y="29" width="2" height="1" fill="#5c3c3b"/>
<rect x="12" y="29" width="1" height="1" fill="#5d3b3a"/>
<rect x="13" y="29" width="1" height="1" fill="#5b3b3b"/>
<rect x="26" y="29" width="2" height="1" fill="#623c3b"/>
<rect x="2" y="29" width="1" height="1" fill="#6a3c3a"/>
<rect x="24" y="29" width="2" height="1" fill="#623b3b"/>
<rect x="23" y="29" width="1" height="1" fill="#6a3c3b"/>
<rect x="4" y="29" width="1" height="1" fill="#5a3b3a"/>
<rect x="18" y="29" width="2" height="1" fill="#5c3c3b"/>
<rect x="10" y="29" width="1" height="1" fill="#673c3b"/>
<rect x="3" y="29" width="1" height="1" fill="#623c3b"/>
<rect x="5" y="29" width="2" height="1" fill="#623b3b"/>
<rect x="22" y="29" width="1" height="1" fill="#6b3c3b"/>
<rect x="0" y="20" width="1" height="11" fill="#643231"/>
<rect x="30" y="28" width="1" height="3" fill="#673c3b"/>
<rect x="31" y="28" width="1" height="3" fill="#6b3d3c"/>
<rect x="1" y="30" width="1" height="1" fill="#683938"/>
<rect x="10" y="30" width="1" height="1" fill="#6a3c3b"/>
<rect x="28" y="30" width="2" height="1" fill="#623c3b"/>
<rect x="4" y="30" width="3" height="1" fill="#673c3b"/>
<rect x="24" y="30" width="4" height="1" fill="#673c3b"/>
<rect x="22" y="30" width="2" height="1" fill="#6b3c3b"/>
<rect x="3" y="30" width="1" height="1" fill="#6a3c3a"/>
<rect x="15" y="30" width="1" height="1" fill="#6a3c3b"/>
<rect x="11" y="30" width="4" height="1" fill="#673c3b"/>
<rect x="18" y="30" width="4" height="1" fill="#673c3b"/>
<rect x="7" y="29" width="1" height="3" fill="#6b3c3b"/>
<rect x="2" y="30" width="1" height="2" fill="#6b3d3c"/>
<rect x="3" y="31" width="1" height="1" fill="#6a3c3b"/>
<rect x="0" y="31" width="1" height="1" fill="#5a3838"/>
<rect x="30" y="31" width="2" height="1" fill="#6b3d3c"/>
<rect x="5" y="31" width="1" height="1" fill="#6b3c3b"/>
<rect x="14" y="31" width="1" height="1" fill="#6a3c3c"/>
<rect x="22" y="31" width="1" height="1" fill="#6b3c3b"/>
<rect x="28" y="31" width="1" height="1" fill="#6b3d3c"/>
<rect x="20" y="31" width="2" height="1" fill="#693c3b"/>
<rect x="4" y="31" width="1" height="1" fill="#6e3b3a"/>
<rect x="1" y="31" width="1" height="1" fill="#643231"/>
<rect x="15" y="31" width="1" height="1" fill="#693c3b"/>
<rect x="6" y="31" width="1" height="1" fill="#693c3b"/>
<rect x="24" y="31" width="1" height="1" fill="#6b3c3b"/>
</svg>