<?xml version="1.0" encoding="UTF-8"?>
<svg xmlns="http://www.w3.org/2000/svg" width="20mm" height="20mm" viewBox="0 0 32 32" shape-rendering="crispEdges">
<title>136 正面 structured semantic redraw</title>
<metadata>registered 32-unit semantic vector redraw; no embedded raster; physical-size=20mm</metadata>
<rect x="0" y="0" width="32" height="32" fill="#d18969"/>
<rect x="2" y="0" width="1" height="1" fill="#c1532d"/>
<rect x="14" y="0" width="1" height="1" fill="#ae4d2c"/>
<rect x="17" y="0" width="1" height="1" fill="#b9502c"/>
<rect x="18" y="0" width="4" height="1" fill="#c1532d"/>
<rect x="5" y="0" width="1" height="1" fill="#ae4c2c"/>
<rect x="6" y="0" width="3" height="1" fill="#ae4d2c"/>
<rect x="29" y="0" width="3" height="1" fill="#bc7155"/>
<rect x="15" y="0" width="2" height="1" fill="#b14e2d"/>
<rect x="24" y="0" width="5" height="1" fill="#b85d3f"/>
<rect x="22" y="0" width="2" height="1" fill="#c0522d"/>
<rect x="3" y="0" width="1" height="1" fill="#c0522d"/>
<rect x="1" y="0" width="1" height="2" fill="#c0522d"/>
<rect x="0" y="0" width="1" height="2" fill="#c1532d"/>
<rect x="16" y="1" width="1" height="1" fill="#ae4c2c"/>
<rect x="30" y="1" width="1" height="1" fill="#c1532d"/>
<rect x="7" y="1" width="2" height="1" fill="#ae4d2c"/>
<rect x="6" y="1" width="1" height="1" fill="#ae4c2c"/>
<rect x="29" y="1" width="1" height="1" fill="#c0522d"/>
<rect x="14" y="1" width="2" height="1" fill="#ae4d2c"/>
<rect x="2" y="1" width="2" height="1" fill="#c1532d"/>
<rect x="31" y="1" width="1" height="1" fill="#c0522d"/>
<rect x="20" y="1" width="2" height="1" fill="#c0522d"/>
<rect x="5" y="1" width="1" height="1" fill="#ae4d2c"/>
<rect x="19" y="1" width="1" height="1" fill="#c1532d"/>
<rect x="18" y="1" width="1" height="1" fill="#c0522d"/>
<rect x="25" y="1" width="1" height="1" fill="#ae4d2c"/>
<rect x="10" y="0" width="3" height="3" fill="#bc795b"/>
<rect x="13" y="0" width="1" height="3" fill="#b85d3f"/>
<rect x="22" y="1" width="3" height="2" fill="#b9502c"/>
<rect x="17" y="1" width="1" height="2" fill="#b14e2d"/>
<rect x="21" y="2" width="1" height="1" fill="#c0522d"/>
<rect x="14" y="2" width="3" height="1" fill="#ae4c2c"/>
<rect x="0" y="2" width="4" height="1" fill="#c1532d"/>
<rect x="20" y="2" width="1" height="1" fill="#c1532d"/>
<rect x="18" y="2" width="2" height="1" fill="#c0522d"/>
<rect x="5" y="2" width="4" height="2" fill="#ae4d2c"/>
<rect x="30" y="2" width="1" height="2" fill="#c0522d"/>
<rect x="31" y="2" width="1" height="2" fill="#b9502c"/>
<rect x="18" y="3" width="4" height="1" fill="#b9502c"/>
<rect x="1" y="3" width="3" height="1" fill="#c0522d"/>
<rect x="22" y="3" width="3" height="1" fill="#b14e2d"/>
<rect x="14" y="3" width="3" height="1" fill="#bc7155"/>
<rect x="17" y="3" width="1" height="1" fill="#b85d3f"/>
<rect x="30" y="4" width="2" height="1" fill="#c0522d"/>
<rect x="3" y="4" width="1" height="1" fill="#c1532d"/>
<rect x="1" y="4" width="2" height="1" fill="#c0522d"/>
<rect x="20" y="4" width="5" height="1" fill="#ae4d2c"/>
<rect x="18" y="4" width="2" height="1" fill="#ae4c2c"/>
<rect x="17" y="4" width="1" height="2" fill="#bc7155"/>
<rect x="1" y="5" width="1" height="1" fill="#c0522d"/>
<rect x="2" y="5" width="1" height="1" fill="#c1532d"/>
<rect x="19" y="5" width="6" height="1" fill="#ae4d2c"/>
<rect x="3" y="5" width="1" height="1" fill="#c0522d"/>
<rect x="9" y="0" width="1" height="7" fill="#bc7155"/>
<rect x="4" y="0" width="1" height="7" fill="#b9502c"/>
<rect x="25" y="2" width="1" height="5" fill="#ae4c2c"/>
<rect x="10" y="3" width="4" height="4" fill="#bc795b"/>
<rect x="0" y="3" width="1" height="4" fill="#c1532d"/>
<rect x="14" y="4" width="3" height="3" fill="#ca8262"/>
<rect x="8" y="4" width="1" height="3" fill="#ae4c2c"/>
<rect x="5" y="4" width="3" height="3" fill="#ae4d2c"/>
<rect x="18" y="5" width="1" height="2" fill="#ae4c2c"/>
<rect x="19" y="6" width="1" height="1" fill="#ae4d2c"/>
<rect x="17" y="6" width="1" height="1" fill="#bc795b"/>
<rect x="23" y="6" width="2" height="1" fill="#ae4d2c"/>
<rect x="20" y="6" width="1" height="1" fill="#ae4c2c"/>
<rect x="1" y="6" width="3" height="1" fill="#c0522d"/>
<rect x="21" y="6" width="1" height="1" fill="#ae4d2c"/>
<rect x="22" y="6" width="1" height="1" fill="#ae4c2c"/>
<rect x="26" y="1" width="3" height="7" fill="#9f4a2e"/>
<rect x="29" y="2" width="1" height="6" fill="#b9502c"/>
<rect x="5" y="7" width="4" height="1" fill="#694036"/>
<rect x="18" y="7" width="3" height="1" fill="#b85d3f"/>
<rect x="23" y="7" width="3" height="1" fill="#ae4c2c"/>
<rect x="14" y="7" width="4" height="1" fill="#ca8262"/>
<rect x="12" y="7" width="1" height="1" fill="#a0533b"/>
<rect x="13" y="7" width="1" height="1" fill="#bc7155"/>
<rect x="9" y="7" width="3" height="1" fill="#715249"/>
<rect x="22" y="7" width="1" height="1" fill="#9f4a2e"/>
<rect x="21" y="7" width="1" height="1" fill="#b14e2d"/>
<rect x="29" y="8" width="1" height="1" fill="#ae4d2c"/>
<rect x="17" y="8" width="1" height="1" fill="#d18968"/>
<rect x="24" y="8" width="5" height="1" fill="#694036"/>
<rect x="16" y="8" width="1" height="1" fill="#d08868"/>
<rect x="5" y="8" width="3" height="1" fill="#694036"/>
<rect x="15" y="8" width="1" height="1" fill="#d18968"/>
<rect x="22" y="8" width="2" height="1" fill="#683f36"/>
<rect x="12" y="8" width="1" height="1" fill="#683f36"/>
<rect x="10" y="8" width="2" height="1" fill="#694036"/>
<rect x="8" y="8" width="2" height="1" fill="#683f36"/>
<rect x="13" y="8" width="1" height="2" fill="#a0533b"/>
<rect x="26" y="9" width="2" height="1" fill="#683f36"/>
<rect x="28" y="9" width="1" height="1" fill="#694036"/>
<rect x="1" y="7" width="3" height="4" fill="#ae4d2c"/>
<rect x="4" y="7" width="1" height="4" fill="#9f4a2e"/>
<rect x="0" y="7" width="1" height="4" fill="#b14e2d"/>
<rect x="14" y="8" width="1" height="3" fill="#d28969"/>
<rect x="22" y="9" width="3" height="2" fill="#683f36"/>
<rect x="15" y="9" width="2" height="2" fill="#d18968"/>
<rect x="18" y="9" width="2" height="2" fill="#d18968"/>
<rect x="17" y="9" width="1" height="2" fill="#d08868"/>
<rect x="25" y="9" width="1" height="2" fill="#694036"/>
<rect x="5" y="9" width="8" height="2" fill="#694036"/>
<rect x="26" y="10" width="3" height="1" fill="#683f36"/>
<rect x="31" y="5" width="1" height="7" fill="#c0522d"/>
<rect x="30" y="5" width="1" height="7" fill="#c1532d"/>
<rect x="21" y="8" width="1" height="4" fill="#ca8262"/>
<rect x="29" y="9" width="1" height="3" fill="#9f4a2e"/>
<rect x="13" y="10" width="1" height="2" fill="#715249"/>
<rect x="8" y="11" width="2" height="1" fill="#715249"/>
<rect x="23" y="11" width="2" height="1" fill="#683f36"/>
<rect x="4" y="11" width="1" height="1" fill="#a0533b"/>
<rect x="10" y="11" width="3" height="1" fill="#683f36"/>
<rect x="5" y="11" width="3" height="1" fill="#9d8170"/>
<rect x="22" y="11" width="1" height="1" fill="#694036"/>
<rect x="19" y="11" width="2" height="1" fill="#d18968"/>
<rect x="25" y="11" width="4" height="1" fill="#694036"/>
<rect x="14" y="11" width="1" height="1" fill="#d48c6c"/>
<rect x="0" y="11" width="4" height="1" fill="#9f4a2e"/>
<rect x="15" y="11" width="4" height="1" fill="#d28969"/>
<rect x="15" y="12" width="6" height="1" fill="#db906e"/>
<rect x="1" y="12" width="3" height="1" fill="#683f36"/>
<rect x="0" y="12" width="1" height="1" fill="#694036"/>
<rect x="4" y="12" width="1" height="1" fill="#9d8170"/>
<rect x="30" y="12" width="2" height="1" fill="#694036"/>
<rect x="26" y="12" width="3" height="1" fill="#bbb8b2"/>
<rect x="21" y="12" width="1" height="2" fill="#d48c6c"/>
<rect x="20" y="13" width="1" height="1" fill="#db906d"/>
<rect x="15" y="13" width="5" height="1" fill="#db906e"/>
<rect x="0" y="13" width="4" height="1" fill="#694036"/>
<rect x="2" y="14" width="1" height="1" fill="#683f36"/>
<rect x="3" y="14" width="1" height="1" fill="#694036"/>
<rect x="18" y="14" width="3" height="1" fill="#db906e"/>
<rect x="15" y="14" width="2" height="1" fill="#db906e"/>
<rect x="17" y="14" width="1" height="1" fill="#db906d"/>
<rect x="0" y="14" width="2" height="1" fill="#694036"/>
<rect x="10" y="12" width="4" height="4" fill="#30727d"/>
<rect x="14" y="12" width="1" height="4" fill="#dd906e"/>
<rect x="25" y="12" width="1" height="4" fill="#31818e"/>
<rect x="29" y="12" width="1" height="4" fill="#9d8170"/>
<rect x="22" y="12" width="3" height="4" fill="#30727d"/>
<rect x="4" y="13" width="1" height="3" fill="#715249"/>
<rect x="30" y="13" width="2" height="3" fill="#683f36"/>
<rect x="21" y="14" width="1" height="2" fill="#d68e6d"/>
<rect x="15" y="15" width="6" height="1" fill="#db906e"/>
<rect x="1" y="15" width="3" height="1" fill="#683f36"/>
<rect x="0" y="15" width="1" height="1" fill="#694036"/>
<rect x="4" y="16" width="1" height="1" fill="#ba8a71"/>
<rect x="30" y="16" width="2" height="1" fill="#ca8262"/>
<rect x="14" y="16" width="1" height="1" fill="#db906d"/>
<rect x="0" y="16" width="4" height="1" fill="#bc795b"/>
<rect x="15" y="16" width="6" height="1" fill="#d68e6d"/>
<rect x="14" y="17" width="4" height="1" fill="#d68e6d"/>
<rect x="19" y="17" width="2" height="1" fill="#d68e6d"/>
<rect x="18" y="17" width="1" height="1" fill="#d48c6c"/>
<rect x="21" y="16" width="1" height="3" fill="#d48c6c"/>
<rect x="14" y="18" width="5" height="1" fill="#d68e6d"/>
<rect x="19" y="18" width="1" height="1" fill="#d48c6c"/>
<rect x="20" y="18" width="1" height="1" fill="#d68e6d"/>
<rect x="9" y="12" width="1" height="8" fill="#6f9095"/>
<rect x="26" y="13" width="3" height="7" fill="#d6dadb"/>
<rect x="10" y="16" width="4" height="4" fill="#31818e"/>
<rect x="22" y="16" width="4" height="4" fill="#31818e"/>
<rect x="29" y="16" width="1" height="4" fill="#bbb8b2"/>
<rect x="14" y="19" width="1" height="1" fill="#d68e6d"/>
<rect x="15" y="19" width="2" height="1" fill="#d48c6c"/>
<rect x="1" y="19" width="1" height="1" fill="#d18968"/>
<rect x="17" y="19" width="1" height="1" fill="#d68e6d"/>
<rect x="19" y="19" width="3" height="1" fill="#d68e6d"/>
<rect x="18" y="19" width="1" height="1" fill="#d48c6c"/>
<rect x="5" y="12" width="4" height="9" fill="#d6dadb"/>
<rect x="30" y="17" width="2" height="4" fill="#d08868"/>
<rect x="4" y="17" width="1" height="4" fill="#db916e"/>
<rect x="1" y="20" width="1" height="1" fill="#d08868"/>
<rect x="25" y="20" width="1" height="1" fill="#ba8a71"/>
<rect x="14" y="20" width="8" height="1" fill="#ca8262"/>
<rect x="10" y="20" width="4" height="1" fill="#6f9095"/>
<rect x="2" y="20" width="1" height="1" fill="#d18968"/>
<rect x="22" y="20" width="3" height="1" fill="#9d8170"/>
<rect x="26" y="20" width="4" height="1" fill="#db916e"/>
<rect x="9" y="20" width="1" height="1" fill="#bbb8b2"/>
<rect x="10" y="21" width="3" height="1" fill="#dd906e"/>
<rect x="23" y="21" width="3" height="1" fill="#db906e"/>
<rect x="26" y="21" width="2" height="1" fill="#db906d"/>
<rect x="31" y="21" width="1" height="1" fill="#d18968"/>
<rect x="13" y="21" width="1" height="1" fill="#db906d"/>
<rect x="30" y="21" width="1" height="1" fill="#d08868"/>
<rect x="5" y="21" width="1" height="1" fill="#db906e"/>
<rect x="1" y="21" width="1" height="1" fill="#d18968"/>
<rect x="2" y="21" width="2" height="1" fill="#d08868"/>
<rect x="28" y="21" width="1" height="1" fill="#db906e"/>
<rect x="29" y="21" width="1" height="1" fill="#d68e6d"/>
<rect x="6" y="21" width="4" height="1" fill="#db906d"/>
<rect x="1" y="22" width="1" height="1" fill="#d08868"/>
<rect x="5" y="22" width="6" height="1" fill="#db906e"/>
<rect x="30" y="22" width="2" height="1" fill="#d08868"/>
<rect x="11" y="22" width="2" height="1" fill="#db906d"/>
<rect x="13" y="22" width="1" height="1" fill="#d68e6d"/>
<rect x="3" y="22" width="1" height="1" fill="#d08868"/>
<rect x="22" y="21" width="1" height="3" fill="#d48c6c"/>
<rect x="14" y="21" width="8" height="3" fill="#bc795b"/>
<rect x="23" y="22" width="6" height="2" fill="#db906e"/>
<rect x="29" y="22" width="1" height="2" fill="#db906d"/>
<rect x="3" y="23" width="1" height="1" fill="#d18968"/>
<rect x="30" y="23" width="1" height="1" fill="#d08868"/>
<rect x="5" y="23" width="7" height="1" fill="#db906e"/>
<rect x="12" y="23" width="2" height="1" fill="#db906d"/>
<rect x="2" y="23" width="1" height="1" fill="#d08868"/>
<rect x="4" y="21" width="1" height="4" fill="#d28969"/>
<rect x="21" y="24" width="1" height="1" fill="#b85d3f"/>
<rect x="25" y="24" width="1" height="1" fill="#b85d3f"/>
<rect x="8" y="24" width="1" height="1" fill="#db906d"/>
<rect x="14" y="24" width="2" height="1" fill="#bc795b"/>
<rect x="6" y="24" width="1" height="1" fill="#db916e"/>
<rect x="7" y="24" width="1" height="1" fill="#db906e"/>
<rect x="1" y="24" width="1" height="1" fill="#d18968"/>
<rect x="13" y="24" width="1" height="1" fill="#d68e6d"/>
<rect x="3" y="24" width="1" height="1" fill="#d08868"/>
<rect x="5" y="24" width="1" height="1" fill="#db906e"/>
<rect x="30" y="24" width="2" height="1" fill="#d18968"/>
<rect x="22" y="24" width="3" height="1" fill="#bc7155"/>
<rect x="16" y="24" width="5" height="1" fill="#bc7155"/>
<rect x="11" y="24" width="2" height="1" fill="#db906e"/>
<rect x="9" y="24" width="2" height="1" fill="#db916e"/>
<rect x="26" y="24" width="1" height="1" fill="#d28969"/>
<rect x="31" y="25" width="1" height="1" fill="#d18968"/>
<rect x="10" y="25" width="2" height="1" fill="#a0533b"/>
<rect x="17" y="25" width="9" height="1" fill="#893933"/>
<rect x="4" y="25" width="1" height="1" fill="#d18968"/>
<rect x="12" y="25" width="5" height="1" fill="#8b3b34"/>
<rect x="5" y="25" width="4" height="1" fill="#d48c6c"/>
<rect x="12" y="26" width="1" height="1" fill="#893933"/>
<rect x="4" y="26" width="1" height="1" fill="#d08868"/>
<rect x="11" y="26" width="1" height="1" fill="#8b3b34"/>
<rect x="7" y="26" width="1" height="1" fill="#d08868"/>
<rect x="20" y="26" width="3" height="1" fill="#893933"/>
<rect x="24" y="26" width="2" height="1" fill="#893933"/>
<rect x="13" y="26" width="7" height="1" fill="#8b3b34"/>
<rect x="23" y="26" width="1" height="1" fill="#8b3b34"/>
<rect x="29" y="24" width="1" height="4" fill="#d48c6c"/>
<rect x="27" y="24" width="2" height="4" fill="#d68e6d"/>
<rect x="8" y="26" width="1" height="2" fill="#d18968"/>
<rect x="15" y="27" width="2" height="1" fill="#893933"/>
<rect x="25" y="27" width="1" height="1" fill="#893933"/>
<rect x="17" y="27" width="3" height="1" fill="#8b3b34"/>
<rect x="20" y="27" width="1" height="1" fill="#893933"/>
<rect x="1" y="27" width="1" height="1" fill="#d18968"/>
<rect x="23" y="27" width="2" height="1" fill="#8b3b34"/>
<rect x="11" y="27" width="4" height="1" fill="#8b3b34"/>
<rect x="21" y="27" width="1" height="1" fill="#8b3b34"/>
<rect x="22" y="27" width="1" height="1" fill="#893933"/>
<rect x="3" y="27" width="1" height="1" fill="#d08868"/>
<rect x="26" y="25" width="1" height="4" fill="#ca8262"/>
<rect x="10" y="26" width="1" height="3" fill="#893933"/>
<rect x="13" y="28" width="6" height="1" fill="#893933"/>
<rect x="29" y="28" width="1" height="1" fill="#d28969"/>
<rect x="11" y="28" width="2" height="1" fill="#8b3b34"/>
<rect x="23" y="28" width="3" height="1" fill="#a0533b"/>
<rect x="2" y="28" width="2" height="1" fill="#d08868"/>
<rect x="19" y="28" width="4" height="1" fill="#8b3b34"/>
<rect x="27" y="28" width="2" height="1" fill="#d48c6c"/>
<rect x="5" y="28" width="1" height="1" fill="#d18968"/>
<rect x="0" y="17" width="1" height="13" fill="#d48c6c"/>
<rect x="9" y="25" width="1" height="5" fill="#bc7155"/>
<rect x="10" y="29" width="3" height="1" fill="#a0533b"/>
<rect x="17" y="29" width="1" height="1" fill="#bc795b"/>
<rect x="22" y="29" width="1" height="1" fill="#d18968"/>
<rect x="20" y="29" width="2" height="1" fill="#d08868"/>
<rect x="29" y="29" width="1" height="1" fill="#d18968"/>
<rect x="13" y="29" width="1" height="1" fill="#b85d3f"/>
<rect x="4" y="29" width="1" height="1" fill="#d18968"/>
<rect x="14" y="29" width="3" height="1" fill="#bc7155"/>
<rect x="18" y="29" width="2" height="1" fill="#ca8262"/>
<rect x="27" y="29" width="2" height="1" fill="#d28969"/>
<rect x="28" y="30" width="1" height="1" fill="#d28969"/>
<rect x="29" y="30" width="1" height="1" fill="#d08868"/>
<rect x="21" y="30" width="1" height="1" fill="#d18968"/>
<rect x="0" y="30" width="1" height="1" fill="#d08868"/>
<rect x="9" y="30" width="3" height="1" fill="#d28969"/>
<rect x="17" y="30" width="2" height="1" fill="#d18968"/>
<rect x="1" y="30" width="4" height="1" fill="#ca8262"/>
<rect x="30" y="28" width="2" height="4" fill="#ca8262"/>
<rect x="26" y="30" width="1" height="2" fill="#d18968"/>
<rect x="6" y="31" width="1" height="1" fill="#d18968"/>
<rect x="28" y="31" width="2" height="1" fill="#d28969"/>
<rect x="9" y="31" width="1" height="1" fill="#d18968"/>
<rect x="16" y="31" width="1" height="1" fill="#d08868"/>
<rect x="0" y="31" width="5" height="1" fill="#ca8262"/>
</svg>