<?xml version="1.0" encoding="UTF-8"?>
<svg xmlns="http://www.w3.org/2000/svg" width="20mm" height="20mm" viewBox="0 0 32 32" shape-rendering="crispEdges">
<title>136 右侧面 structured semantic redraw</title>
<metadata>registered 32-unit semantic vector redraw; no embedded raster; physical-size=20mm</metadata>
<rect x="0" y="0" width="32" height="32" fill="#8c4e3e"/>
<rect x="11" y="0" width="1" height="1" fill="#b1543b"/>
<rect x="4" y="0" width="3" height="1" fill="#b4765d"/>
<rect x="19" y="0" width="1" height="1" fill="#b1543b"/>
<rect x="16" y="0" width="3" height="1" fill="#b3563c"/>
<rect x="12" y="0" width="3" height="1" fill="#a3513c"/>
<rect x="0" y="0" width="4" height="1" fill="#c28164"/>
<rect x="20" y="0" width="8" height="1" fill="#b3563c"/>
<rect x="7" y="0" width="1" height="1" fill="#a8715b"/>
<rect x="8" y="0" width="3" height="1" fill="#b55b42"/>
<rect x="28" y="0" width="4" height="2" fill="#a9543d"/>
<rect x="1" y="1" width="2" height="1" fill="#b55b42"/>
<rect x="12" y="1" width="3" height="1" fill="#a0523d"/>
<rect x="16" y="1" width="12" height="1" fill="#b3563c"/>
<rect x="3" y="1" width="1" height="1" fill="#b3563c"/>
<rect x="5" y="1" width="3" height="1" fill="#a3513c"/>
<rect x="4" y="1" width="1" height="1" fill="#a9543d"/>
<rect x="0" y="1" width="1" height="1" fill="#b4765d"/>
<rect x="15" y="0" width="1" height="3" fill="#a9543d"/>
<rect x="13" y="2" width="2" height="1" fill="#a3523d"/>
<rect x="24" y="2" width="1" height="1" fill="#b1543b"/>
<rect x="27" y="2" width="1" height="1" fill="#a4533e"/>
<rect x="28" y="2" width="2" height="1" fill="#a9543d"/>
<rect x="12" y="2" width="1" height="1" fill="#a0523d"/>
<rect x="30" y="2" width="2" height="1" fill="#b1543b"/>
<rect x="16" y="2" width="8" height="1" fill="#b3563c"/>
<rect x="25" y="2" width="2" height="1" fill="#a9543d"/>
<rect x="11" y="1" width="1" height="3" fill="#a9543d"/>
<rect x="8" y="1" width="3" height="3" fill="#b3563c"/>
<rect x="7" y="2" width="1" height="2" fill="#a3523d"/>
<rect x="17" y="3" width="3" height="1" fill="#a9543d"/>
<rect x="21" y="3" width="3" height="1" fill="#a3523d"/>
<rect x="12" y="3" width="3" height="1" fill="#a0523d"/>
<rect x="20" y="3" width="1" height="1" fill="#a4533e"/>
<rect x="16" y="3" width="1" height="1" fill="#b1543b"/>
<rect x="25" y="3" width="3" height="1" fill="#9a513e"/>
<rect x="15" y="3" width="1" height="1" fill="#a4533e"/>
<rect x="5" y="2" width="2" height="3" fill="#a0523d"/>
<rect x="4" y="2" width="1" height="3" fill="#a4533e"/>
<rect x="29" y="3" width="3" height="2" fill="#b1543b"/>
<rect x="24" y="3" width="1" height="2" fill="#9b503d"/>
<rect x="19" y="4" width="1" height="1" fill="#a0523d"/>
<rect x="12" y="4" width="1" height="1" fill="#8e4c3f"/>
<rect x="9" y="4" width="1" height="1" fill="#a0523d"/>
<rect x="16" y="4" width="1" height="1" fill="#a3523d"/>
<rect x="11" y="4" width="1" height="1" fill="#96503d"/>
<rect x="10" y="4" width="1" height="1" fill="#9b503d"/>
<rect x="8" y="4" width="1" height="1" fill="#a3523d"/>
<rect x="25" y="4" width="2" height="1" fill="#9b513e"/>
<rect x="7" y="4" width="1" height="1" fill="#9b513e"/>
<rect x="13" y="4" width="1" height="1" fill="#8c4d3c"/>
<rect x="18" y="4" width="1" height="1" fill="#a3523d"/>
<rect x="17" y="4" width="1" height="1" fill="#a0523d"/>
<rect x="14" y="4" width="1" height="1" fill="#8c4d3d"/>
<rect x="20" y="4" width="3" height="2" fill="#a3523d"/>
<rect x="19" y="5" width="1" height="1" fill="#a3513c"/>
<rect x="24" y="5" width="2" height="1" fill="#9a513e"/>
<rect x="5" y="5" width="2" height="1" fill="#8c4d3d"/>
<rect x="10" y="5" width="4" height="1" fill="#8c4d3c"/>
<rect x="4" y="5" width="1" height="1" fill="#9a513e"/>
<rect x="26" y="5" width="1" height="1" fill="#9b513e"/>
<rect x="16" y="5" width="3" height="1" fill="#a3523d"/>
<rect x="7" y="5" width="3" height="1" fill="#8b4d3d"/>
<rect x="28" y="3" width="1" height="4" fill="#a9543d"/>
<rect x="23" y="4" width="1" height="3" fill="#a0523d"/>
<rect x="30" y="5" width="2" height="2" fill="#b1543b"/>
<rect x="29" y="5" width="1" height="2" fill="#b3563c"/>
<rect x="4" y="6" width="1" height="1" fill="#9b503d"/>
<rect x="19" y="6" width="4" height="1" fill="#a3523d"/>
<rect x="8" y="6" width="5" height="1" fill="#8c4d3c"/>
<rect x="13" y="6" width="1" height="1" fill="#8c4d3d"/>
<rect x="18" y="6" width="1" height="1" fill="#a3513c"/>
<rect x="16" y="6" width="2" height="1" fill="#a3523d"/>
<rect x="15" y="4" width="1" height="4" fill="#93503d"/>
<rect x="14" y="5" width="1" height="3" fill="#8b4d3d"/>
<rect x="25" y="6" width="2" height="2" fill="#9b513e"/>
<rect x="24" y="6" width="1" height="2" fill="#9a513e"/>
<rect x="8" y="7" width="4" height="1" fill="#8c4d3c"/>
<rect x="30" y="7" width="2" height="1" fill="#a4533e"/>
<rect x="4" y="7" width="1" height="1" fill="#9b513e"/>
<rect x="28" y="7" width="1" height="1" fill="#a4533e"/>
<rect x="19" y="7" width="5" height="1" fill="#a0523d"/>
<rect x="29" y="7" width="1" height="1" fill="#a9543d"/>
<rect x="12" y="7" width="1" height="1" fill="#8c4d3d"/>
<rect x="16" y="7" width="3" height="1" fill="#a3523d"/>
<rect x="13" y="7" width="1" height="1" fill="#8c4d3c"/>
<rect x="0" y="2" width="1" height="7" fill="#b55b42"/>
<rect x="8" y="8" width="5" height="1" fill="#8b4d3d"/>
<rect x="16" y="8" width="1" height="1" fill="#95503d"/>
<rect x="18" y="8" width="1" height="1" fill="#8e4c3f"/>
<rect x="23" y="8" width="1" height="1" fill="#9a513e"/>
<rect x="4" y="8" width="1" height="1" fill="#9b503d"/>
<rect x="20" y="8" width="3" height="1" fill="#9b513e"/>
<rect x="13" y="8" width="2" height="1" fill="#884d3e"/>
<rect x="15" y="8" width="1" height="1" fill="#8b4d3d"/>
<rect x="28" y="8" width="4" height="1" fill="#a4533e"/>
<rect x="17" y="8" width="1" height="1" fill="#93503d"/>
<rect x="24" y="8" width="3" height="1" fill="#9b513e"/>
<rect x="19" y="8" width="1" height="1" fill="#93503d"/>
<rect x="2" y="2" width="2" height="8" fill="#b3563c"/>
<rect x="1" y="2" width="1" height="8" fill="#b1543b"/>
<rect x="20" y="9" width="1" height="1" fill="#9a513e"/>
<rect x="21" y="9" width="1" height="1" fill="#9b503d"/>
<rect x="0" y="9" width="1" height="1" fill="#b3563c"/>
<rect x="22" y="9" width="5" height="1" fill="#9b513e"/>
<rect x="29" y="9" width="3" height="2" fill="#a4533e"/>
<rect x="28" y="9" width="1" height="2" fill="#a3523d"/>
<rect x="4" y="9" width="1" height="2" fill="#a0523d"/>
<rect x="20" y="10" width="1" height="1" fill="#9b513e"/>
<rect x="23" y="10" width="4" height="1" fill="#9b513e"/>
<rect x="18" y="10" width="1" height="1" fill="#8b4d3d"/>
<rect x="21" y="10" width="2" height="1" fill="#9b503d"/>
<rect x="0" y="10" width="4" height="1" fill="#b3563c"/>
<rect x="27" y="4" width="1" height="8" fill="#9a513e"/>
<rect x="6" y="6" width="2" height="6" fill="#8c4d3d"/>
<rect x="19" y="9" width="1" height="3" fill="#8c4e3d"/>
<rect x="25" y="11" width="1" height="1" fill="#9b503d"/>
<rect x="2" y="11" width="1" height="1" fill="#b1543b"/>
<rect x="31" y="11" width="1" height="1" fill="#a3523d"/>
<rect x="20" y="11" width="1" height="1" fill="#9b503d"/>
<rect x="3" y="11" width="1" height="1" fill="#b3563c"/>
<rect x="26" y="11" width="1" height="1" fill="#9b513e"/>
<rect x="28" y="11" width="3" height="1" fill="#a4533e"/>
<rect x="4" y="11" width="1" height="1" fill="#a3523d"/>
<rect x="21" y="11" width="4" height="1" fill="#9b513e"/>
<rect x="18" y="11" width="1" height="1" fill="#8c4d3d"/>
<rect x="1" y="11" width="1" height="1" fill="#a95942"/>
<rect x="5" y="6" width="1" height="7" fill="#8b4d3d"/>
<rect x="8" y="9" width="8" height="4" fill="#834b3d"/>
<rect x="0" y="11" width="1" height="2" fill="#b3563c"/>
<rect x="27" y="12" width="1" height="1" fill="#8e4c3f"/>
<rect x="28" y="12" width="1" height="1" fill="#96503d"/>
<rect x="2" y="12" width="2" height="1" fill="#b3563c"/>
<rect x="7" y="12" width="1" height="1" fill="#8c4d3c"/>
<rect x="20" y="12" width="3" height="1" fill="#9b513e"/>
<rect x="29" y="12" width="3" height="1" fill="#9a513e"/>
<rect x="24" y="12" width="2" height="1" fill="#93503d"/>
<rect x="4" y="12" width="1" height="1" fill="#a4533e"/>
<rect x="17" y="12" width="1" height="1" fill="#8c4e3d"/>
<rect x="6" y="12" width="1" height="1" fill="#8c4d3d"/>
<rect x="26" y="12" width="1" height="1" fill="#8c4f3f"/>
<rect x="1" y="12" width="1" height="2" fill="#b55b42"/>
<rect x="21" y="13" width="1" height="1" fill="#9b503d"/>
<rect x="20" y="13" width="1" height="1" fill="#9b513e"/>
<rect x="9" y="13" width="7" height="1" fill="#a06955"/>
<rect x="5" y="13" width="4" height="1" fill="#96513e"/>
<rect x="4" y="13" width="1" height="1" fill="#a9543d"/>
<rect x="0" y="13" width="1" height="1" fill="#95503d"/>
<rect x="22" y="13" width="1" height="1" fill="#9b513e"/>
<rect x="5" y="14" width="7" height="1" fill="#ac745c"/>
<rect x="17" y="14" width="2" height="1" fill="#8c4d3d"/>
<rect x="27" y="14" width="1" height="1" fill="#8c4d3d"/>
<rect x="23" y="12" width="1" height="4" fill="#9a513e"/>
<rect x="31" y="13" width="1" height="3" fill="#9a513e"/>
<rect x="20" y="14" width="3" height="2" fill="#9b513e"/>
<rect x="26" y="15" width="2" height="1" fill="#8c4d3d"/>
<rect x="29" y="13" width="2" height="4" fill="#96513e"/>
<rect x="16" y="13" width="1" height="4" fill="#8b4d3d"/>
<rect x="28" y="13" width="1" height="4" fill="#95503d"/>
<rect x="0" y="14" width="1" height="3" fill="#643f3c"/>
<rect x="1" y="14" width="1" height="3" fill="#a95942"/>
<rect x="8" y="15" width="4" height="2" fill="#ac745c"/>
<rect x="24" y="16" width="3" height="1" fill="#8c4d3d"/>
<rect x="31" y="16" width="1" height="1" fill="#96503d"/>
<rect x="20" y="16" width="4" height="1" fill="#9a513e"/>
<rect x="2" y="13" width="1" height="5" fill="#b1543b"/>
<rect x="3" y="13" width="1" height="5" fill="#b3563c"/>
<rect x="12" y="14" width="3" height="4" fill="#a8715b"/>
<rect x="4" y="14" width="1" height="4" fill="#b55b42"/>
<rect x="15" y="14" width="1" height="4" fill="#a06955"/>
<rect x="8" y="17" width="2" height="1" fill="#a8715b"/>
<rect x="28" y="17" width="4" height="1" fill="#96503d"/>
<rect x="0" y="17" width="1" height="1" fill="#96513e"/>
<rect x="24" y="17" width="3" height="1" fill="#93503d"/>
<rect x="27" y="17" width="1" height="1" fill="#95503d"/>
<rect x="20" y="17" width="1" height="1" fill="#8e4c3f"/>
<rect x="18" y="17" width="1" height="1" fill="#8c4e3d"/>
<rect x="1" y="17" width="1" height="1" fill="#9a513e"/>
<rect x="10" y="17" width="2" height="1" fill="#a06955"/>
<rect x="26" y="18" width="1" height="1" fill="#93503d"/>
<rect x="27" y="18" width="2" height="1" fill="#95503d"/>
<rect x="1" y="18" width="1" height="1" fill="#a8715b"/>
<rect x="24" y="18" width="2" height="1" fill="#95503d"/>
<rect x="5" y="15" width="3" height="5" fill="#ab745c"/>
<rect x="29" y="18" width="3" height="2" fill="#96503d"/>
<rect x="19" y="19" width="1" height="1" fill="#8c4e3d"/>
<rect x="1" y="19" width="1" height="1" fill="#ac745c"/>
<rect x="3" y="18" width="1" height="3" fill="#a3523d"/>
<rect x="9" y="18" width="3" height="3" fill="#714640"/>
<rect x="12" y="18" width="1" height="3" fill="#a06955"/>
<rect x="13" y="18" width="3" height="3" fill="#a8715b"/>
<rect x="25" y="19" width="4" height="2" fill="#95503d"/>
<rect x="29" y="20" width="1" height="1" fill="#96503d"/>
<rect x="31" y="20" width="1" height="1" fill="#96503d"/>
<rect x="6" y="20" width="2" height="1" fill="#ab745c"/>
<rect x="23" y="20" width="1" height="1" fill="#8c4e3d"/>
<rect x="30" y="20" width="1" height="1" fill="#96513e"/>
<rect x="2" y="18" width="1" height="4" fill="#a3513c"/>
<rect x="0" y="18" width="1" height="4" fill="#c28164"/>
<rect x="4" y="18" width="1" height="4" fill="#a4533e"/>
<rect x="16" y="19" width="1" height="3" fill="#8c4f3f"/>
<rect x="5" y="20" width="1" height="2" fill="#a8715b"/>
<rect x="1" y="20" width="1" height="2" fill="#b4765d"/>
<rect x="29" y="21" width="2" height="1" fill="#96503d"/>
<rect x="18" y="21" width="1" height="1" fill="#8b4d3d"/>
<rect x="9" y="21" width="2" height="1" fill="#714640"/>
<rect x="31" y="21" width="1" height="1" fill="#96513e"/>
<rect x="3" y="21" width="1" height="1" fill="#a0523d"/>
<rect x="12" y="21" width="4" height="1" fill="#a06955"/>
<rect x="22" y="21" width="2" height="1" fill="#8c4e3d"/>
<rect x="11" y="21" width="1" height="1" fill="#834b3d"/>
<rect x="24" y="19" width="1" height="4" fill="#93503d"/>
<rect x="27" y="21" width="2" height="2" fill="#95503d"/>
<rect x="26" y="21" width="1" height="2" fill="#93503d"/>
<rect x="25" y="21" width="1" height="2" fill="#95503d"/>
<rect x="6" y="21" width="1" height="2" fill="#ab745c"/>
<rect x="7" y="21" width="1" height="2" fill="#ac745c"/>
<rect x="5" y="22" width="1" height="1" fill="#ac745c"/>
<rect x="20" y="22" width="1" height="1" fill="#8c4e3d"/>
<rect x="23" y="22" width="1" height="1" fill="#8c4d3d"/>
<rect x="3" y="22" width="2" height="1" fill="#b4765d"/>
<rect x="29" y="22" width="1" height="1" fill="#96503d"/>
<rect x="2" y="22" width="1" height="1" fill="#a8715b"/>
<rect x="30" y="22" width="2" height="1" fill="#96513e"/>
<rect x="16" y="22" width="4" height="2" fill="#884d3e"/>
<rect x="7" y="23" width="1" height="1" fill="#ab745c"/>
<rect x="29" y="23" width="2" height="1" fill="#96503d"/>
<rect x="20" y="23" width="4" height="1" fill="#8c4e3d"/>
<rect x="5" y="23" width="2" height="1" fill="#ac745c"/>
<rect x="24" y="23" width="2" height="2" fill="#93503d"/>
<rect x="26" y="23" width="3" height="2" fill="#95503d"/>
<rect x="29" y="24" width="1" height="1" fill="#96503d"/>
<rect x="20" y="24" width="1" height="1" fill="#8c4e3d"/>
<rect x="30" y="24" width="1" height="1" fill="#96513e"/>
<rect x="21" y="24" width="3" height="1" fill="#8c4d3d"/>
<rect x="9" y="22" width="3" height="4" fill="#8c4b40"/>
<rect x="12" y="22" width="1" height="4" fill="#714640"/>
<rect x="13" y="22" width="3" height="4" fill="#643f3c"/>
<rect x="6" y="24" width="1" height="2" fill="#ab745c"/>
<rect x="7" y="24" width="1" height="2" fill="#ac745c"/>
<rect x="5" y="24" width="1" height="2" fill="#ac745c"/>
<rect x="16" y="24" width="1" height="2" fill="#834b3d"/>
<rect x="17" y="24" width="3" height="2" fill="#884d3e"/>
<rect x="23" y="25" width="1" height="1" fill="#8c4d3d"/>
<rect x="28" y="25" width="1" height="1" fill="#95503d"/>
<rect x="21" y="25" width="2" height="1" fill="#8c4e3d"/>
<rect x="25" y="25" width="2" height="1" fill="#95503d"/>
<rect x="24" y="25" width="1" height="1" fill="#93503d"/>
<rect x="20" y="25" width="1" height="1" fill="#8c4d3d"/>
<rect x="27" y="25" width="1" height="1" fill="#93503d"/>
<rect x="29" y="25" width="1" height="2" fill="#96513e"/>
<rect x="30" y="25" width="1" height="2" fill="#95503d"/>
<rect x="21" y="26" width="1" height="1" fill="#8c4e3d"/>
<rect x="12" y="26" width="4" height="1" fill="#643f3c"/>
<rect x="9" y="26" width="1" height="1" fill="#643f3c"/>
<rect x="22" y="26" width="1" height="1" fill="#8c4d3d"/>
<rect x="10" y="26" width="2" height="1" fill="#714640"/>
<rect x="26" y="26" width="1" height="1" fill="#8c4e3d"/>
<rect x="23" y="26" width="2" height="1" fill="#8c4e3d"/>
<rect x="25" y="26" width="1" height="1" fill="#8c4d3c"/>
<rect x="2" y="23" width="3" height="5" fill="#b4765d"/>
<rect x="27" y="26" width="1" height="2" fill="#8c4d3d"/>
<rect x="5" y="26" width="3" height="2" fill="#ac745c"/>
<rect x="20" y="27" width="3" height="1" fill="#8c4e3d"/>
<rect x="29" y="27" width="1" height="1" fill="#95503d"/>
<rect x="30" y="27" width="1" height="1" fill="#96513e"/>
<rect x="16" y="26" width="1" height="3" fill="#884d3e"/>
<rect x="24" y="27" width="3" height="2" fill="#8c4e3d"/>
<rect x="23" y="27" width="1" height="2" fill="#8c4d3d"/>
<rect x="19" y="28" width="4" height="1" fill="#8c4e3d"/>
<rect x="29" y="28" width="1" height="1" fill="#96513e"/>
<rect x="30" y="28" width="1" height="1" fill="#95503d"/>
<rect x="8" y="18" width="1" height="12" fill="#a06955"/>
<rect x="31" y="23" width="1" height="7" fill="#9a513e"/>
<rect x="28" y="26" width="1" height="4" fill="#93503d"/>
<rect x="9" y="27" width="7" height="3" fill="#643f3c"/>
<rect x="6" y="28" width="2" height="2" fill="#ac745c"/>
<rect x="2" y="28" width="4" height="2" fill="#b4765d"/>
<rect x="29" y="29" width="1" height="1" fill="#96503d"/>
<rect x="22" y="29" width="4" height="1" fill="#8c4e3d"/>
<rect x="16" y="29" width="1" height="1" fill="#834b3d"/>
<rect x="30" y="29" width="1" height="1" fill="#96513e"/>
<rect x="27" y="29" width="1" height="1" fill="#8c4d3d"/>
<rect x="9" y="30" width="7" height="1" fill="#834b3d"/>
<rect x="18" y="30" width="2" height="1" fill="#8c4d3d"/>
<rect x="28" y="30" width="1" height="1" fill="#8e4c3f"/>
<rect x="23" y="30" width="3" height="1" fill="#8c4e3d"/>
<rect x="16" y="30" width="1" height="1" fill="#884d3e"/>
<rect x="31" y="30" width="1" height="1" fill="#96513e"/>
<rect x="17" y="30" width="1" height="1" fill="#8c4e3d"/>
<rect x="29" y="30" width="2" height="1" fill="#93503d"/>
<rect x="0" y="22" width="2" height="10" fill="#c28164"/>
<rect x="8" y="30" width="1" height="2" fill="#a8715b"/>
<rect x="2" y="30" width="3" height="2" fill="#b4765d"/>
<rect x="5" y="30" width="3" height="2" fill="#ac745c"/>
<rect x="12" y="31" width="1" height="1" fill="#8b4d3d"/>
<rect x="31" y="31" width="1" height="1" fill="#8c4f3f"/>
<rect x="19" y="31" width="1" height="1" fill="#8c4d3d"/>
<rect x="29" y="31" width="1" height="1" fill="#8c4d3d"/>
<rect x="10" y="31" width="2" height="1" fill="#884d3e"/>
<rect x="14" y="31" width="1" height="1" fill="#8c4d3d"/>
<rect x="18" y="31" width="1" height="1" fill="#8c4e3d"/>
<rect x="9" y="31" width="1" height="1" fill="#8b4d3d"/>
</svg>