<?xml version="1.0" encoding="UTF-8"?>
<svg xmlns="http://www.w3.org/2000/svg" width="20mm" height="20mm" viewBox="0 0 32 32" shape-rendering="crispEdges">
<title>092 顶面 structured semantic redraw</title>
<metadata>registered 32-unit semantic vector redraw; no embedded raster; physical-size=20mm</metadata>
<rect x="0" y="0" width="32" height="32" fill="#695a51"/>
<rect x="16" y="0" width="1" height="1" fill="#695b52"/>
<rect x="1" y="0" width="1" height="1" fill="#5e5851"/>
<rect x="20" y="0" width="3" height="1" fill="#6c5c52"/>
<rect x="0" y="0" width="1" height="1" fill="#645b53"/>
<rect x="11" y="0" width="1" height="1" fill="#665a52"/>
<rect x="6" y="0" width="1" height="1" fill="#5e5851"/>
<rect x="2" y="0" width="1" height="1" fill="#55524f"/>
<rect x="7" y="0" width="1" height="1" fill="#5d5550"/>
<rect x="3" y="0" width="2" height="1" fill="#5e5851"/>
<rect x="24" y="0" width="1" height="1" fill="#6a5b52"/>
<rect x="14" y="0" width="2" height="1" fill="#6a5b52"/>
<rect x="30" y="0" width="2" height="1" fill="#4f4943"/>
<rect x="23" y="0" width="1" height="1" fill="#695b53"/>
<rect x="9" y="0" width="2" height="1" fill="#655951"/>
<rect x="8" y="0" width="1" height="1" fill="#615751"/>
<rect x="17" y="0" width="1" height="1" fill="#6a5b52"/>
<rect x="27" y="0" width="1" height="1" fill="#615751"/>
<rect x="5" y="0" width="1" height="1" fill="#615751"/>
<rect x="18" y="0" width="2" height="1" fill="#6d5c52"/>
<rect x="28" y="0" width="1" height="2" fill="#55524f"/>
<rect x="12" y="0" width="2" height="2" fill="#6e5f54"/>
<rect x="29" y="0" width="1" height="2" fill="#5e5851"/>
<rect x="14" y="1" width="2" height="1" fill="#665a52"/>
<rect x="22" y="1" width="1" height="1" fill="#605650"/>
<rect x="5" y="1" width="1" height="1" fill="#6d5c52"/>
<rect x="23" y="1" width="1" height="1" fill="#615751"/>
<rect x="3" y="1" width="1" height="1" fill="#6b5b52"/>
<rect x="8" y="1" width="1" height="1" fill="#6c5c52"/>
<rect x="7" y="1" width="1" height="1" fill="#6a5b52"/>
<rect x="20" y="1" width="1" height="1" fill="#625750"/>
<rect x="16" y="1" width="1" height="1" fill="#665951"/>
<rect x="30" y="1" width="1" height="1" fill="#55524f"/>
<rect x="6" y="1" width="1" height="1" fill="#6c5c52"/>
<rect x="27" y="1" width="1" height="1" fill="#645b53"/>
<rect x="9" y="1" width="1" height="1" fill="#6d5c52"/>
<rect x="0" y="1" width="3" height="1" fill="#665a52"/>
<rect x="4" y="1" width="1" height="1" fill="#6c5c52"/>
<rect x="11" y="1" width="1" height="1" fill="#695b52"/>
<rect x="17" y="1" width="3" height="1" fill="#655951"/>
<rect x="21" y="1" width="1" height="1" fill="#615650"/>
<rect x="10" y="1" width="1" height="1" fill="#6a5b52"/>
<rect x="25" y="0" width="2" height="3" fill="#6e5f54"/>
<rect x="24" y="1" width="1" height="2" fill="#625851"/>
<rect x="12" y="2" width="1" height="1" fill="#625851"/>
<rect x="2" y="2" width="1" height="1" fill="#6c5b51"/>
<rect x="14" y="2" width="4" height="1" fill="#625851"/>
<rect x="18" y="2" width="2" height="1" fill="#635851"/>
<rect x="7" y="2" width="1" height="1" fill="#635851"/>
<rect x="1" y="2" width="1" height="1" fill="#6d5c52"/>
<rect x="30" y="2" width="1" height="1" fill="#5d5550"/>
<rect x="20" y="2" width="3" height="1" fill="#615751"/>
<rect x="27" y="2" width="1" height="1" fill="#635851"/>
<rect x="11" y="2" width="1" height="1" fill="#615751"/>
<rect x="3" y="2" width="1" height="1" fill="#6a5b52"/>
<rect x="13" y="2" width="1" height="1" fill="#635851"/>
<rect x="10" y="2" width="1" height="1" fill="#625750"/>
<rect x="8" y="2" width="1" height="1" fill="#655951"/>
<rect x="0" y="2" width="1" height="1" fill="#6c5c52"/>
<rect x="6" y="2" width="1" height="1" fill="#665951"/>
<rect x="4" y="2" width="2" height="1" fill="#695b52"/>
<rect x="9" y="2" width="1" height="1" fill="#665a52"/>
<rect x="28" y="2" width="2" height="2" fill="#55524f"/>
<rect x="10" y="3" width="2" height="1" fill="#625750"/>
<rect x="2" y="3" width="1" height="1" fill="#5d5550"/>
<rect x="17" y="3" width="1" height="1" fill="#695b52"/>
<rect x="8" y="3" width="1" height="1" fill="#625851"/>
<rect x="16" y="3" width="1" height="1" fill="#685a51"/>
<rect x="7" y="3" width="1" height="1" fill="#615751"/>
<rect x="25" y="3" width="1" height="1" fill="#6c5c52"/>
<rect x="30" y="3" width="1" height="1" fill="#645b53"/>
<rect x="20" y="3" width="2" height="1" fill="#6c5c52"/>
<rect x="3" y="3" width="2" height="1" fill="#5b534e"/>
<rect x="27" y="3" width="1" height="1" fill="#645b53"/>
<rect x="12" y="3" width="3" height="1" fill="#655951"/>
<rect x="5" y="3" width="2" height="1" fill="#605650"/>
<rect x="19" y="3" width="1" height="1" fill="#6b5b52"/>
<rect x="15" y="3" width="1" height="1" fill="#665a52"/>
<rect x="22" y="3" width="1" height="1" fill="#695b52"/>
<rect x="26" y="3" width="1" height="1" fill="#6d5c52"/>
<rect x="18" y="3" width="1" height="1" fill="#6a5b52"/>
<rect x="0" y="3" width="2" height="1" fill="#695b52"/>
<rect x="9" y="3" width="1" height="1" fill="#635851"/>
<rect x="23" y="2" width="1" height="3" fill="#605650"/>
<rect x="24" y="3" width="1" height="2" fill="#615650"/>
<rect x="10" y="4" width="4" height="1" fill="#6d5c52"/>
<rect x="5" y="4" width="1" height="1" fill="#695b52"/>
<rect x="26" y="4" width="1" height="1" fill="#6c5c52"/>
<rect x="4" y="4" width="1" height="1" fill="#655951"/>
<rect x="14" y="4" width="1" height="1" fill="#695b52"/>
<rect x="16" y="4" width="1" height="1" fill="#6c5c52"/>
<rect x="28" y="4" width="1" height="1" fill="#55524f"/>
<rect x="7" y="4" width="1" height="1" fill="#6a5b52"/>
<rect x="0" y="4" width="1" height="1" fill="#695b52"/>
<rect x="1" y="4" width="1" height="1" fill="#685a52"/>
<rect x="21" y="4" width="1" height="1" fill="#6c5c52"/>
<rect x="6" y="4" width="1" height="1" fill="#695b53"/>
<rect x="3" y="4" width="1" height="1" fill="#615751"/>
<rect x="20" y="4" width="1" height="1" fill="#6d5c51"/>
<rect x="25" y="4" width="1" height="1" fill="#6a5a51"/>
<rect x="17" y="4" width="2" height="1" fill="#6d5c52"/>
<rect x="19" y="4" width="1" height="1" fill="#6c5b51"/>
<rect x="8" y="4" width="2" height="1" fill="#6c5c52"/>
<rect x="15" y="4" width="1" height="1" fill="#695a52"/>
<rect x="29" y="4" width="1" height="1" fill="#4f4943"/>
<rect x="22" y="4" width="1" height="2" fill="#6b5b52"/>
<rect x="27" y="4" width="1" height="2" fill="#665a52"/>
<rect x="2" y="4" width="1" height="2" fill="#5b534e"/>
<rect x="3" y="5" width="1" height="1" fill="#695b53"/>
<rect x="7" y="5" width="3" height="1" fill="#6d5c52"/>
<rect x="10" y="5" width="4" height="1" fill="#6c5c52"/>
<rect x="4" y="5" width="3" height="1" fill="#6e5f54"/>
<rect x="25" y="5" width="1" height="1" fill="#675951"/>
<rect x="17" y="5" width="1" height="1" fill="#6b5b52"/>
<rect x="15" y="5" width="1" height="1" fill="#695b52"/>
<rect x="1" y="5" width="1" height="1" fill="#695a52"/>
<rect x="16" y="5" width="1" height="1" fill="#6a5b52"/>
<rect x="0" y="5" width="1" height="1" fill="#6c5c52"/>
<rect x="14" y="5" width="1" height="1" fill="#6a5b52"/>
<rect x="28" y="5" width="1" height="1" fill="#5b534e"/>
<rect x="23" y="5" width="2" height="1" fill="#625851"/>
<rect x="18" y="5" width="1" height="1" fill="#6a5b52"/>
<rect x="19" y="5" width="1" height="1" fill="#6a5a51"/>
<rect x="26" y="5" width="1" height="2" fill="#695a52"/>
<rect x="21" y="5" width="1" height="2" fill="#6d5c52"/>
<rect x="29" y="5" width="1" height="2" fill="#55524f"/>
<rect x="7" y="6" width="4" height="1" fill="#6a5b52"/>
<rect x="11" y="6" width="5" height="1" fill="#695b52"/>
<rect x="2" y="6" width="1" height="1" fill="#5d5550"/>
<rect x="28" y="6" width="1" height="1" fill="#5d5550"/>
<rect x="17" y="6" width="1" height="1" fill="#685a51"/>
<rect x="22" y="6" width="1" height="1" fill="#6c5b51"/>
<rect x="4" y="6" width="1" height="1" fill="#6e5f54"/>
<rect x="27" y="6" width="1" height="1" fill="#685a52"/>
<rect x="1" y="6" width="1" height="1" fill="#685a52"/>
<rect x="0" y="6" width="1" height="1" fill="#695b53"/>
<rect x="23" y="6" width="1" height="1" fill="#625750"/>
<rect x="24" y="6" width="1" height="1" fill="#625851"/>
<rect x="25" y="6" width="1" height="1" fill="#655951"/>
<rect x="5" y="6" width="2" height="1" fill="#6c5c52"/>
<rect x="3" y="6" width="1" height="1" fill="#695b52"/>
<rect x="20" y="5" width="1" height="3" fill="#6a5b52"/>
<rect x="19" y="6" width="1" height="2" fill="#685a51"/>
<rect x="29" y="7" width="1" height="1" fill="#5b534e"/>
<rect x="15" y="7" width="1" height="1" fill="#655951"/>
<rect x="0" y="7" width="2" height="1" fill="#665a52"/>
<rect x="3" y="7" width="1" height="1" fill="#695a52"/>
<rect x="6" y="7" width="1" height="1" fill="#695b53"/>
<rect x="9" y="7" width="4" height="1" fill="#685a52"/>
<rect x="8" y="7" width="1" height="1" fill="#695a52"/>
<rect x="13" y="7" width="1" height="1" fill="#665a52"/>
<rect x="28" y="7" width="1" height="1" fill="#5e5851"/>
<rect x="25" y="7" width="1" height="1" fill="#635851"/>
<rect x="26" y="7" width="2" height="1" fill="#685a51"/>
<rect x="14" y="7" width="1" height="1" fill="#665951"/>
<rect x="18" y="7" width="1" height="1" fill="#665951"/>
<rect x="7" y="7" width="1" height="1" fill="#695b52"/>
<rect x="2" y="7" width="1" height="1" fill="#605650"/>
<rect x="16" y="7" width="2" height="1" fill="#635851"/>
<rect x="24" y="7" width="1" height="1" fill="#605650"/>
<rect x="31" y="1" width="1" height="8" fill="#4f4943"/>
<rect x="30" y="4" width="1" height="5" fill="#675f57"/>
<rect x="21" y="7" width="2" height="2" fill="#6c5b51"/>
<rect x="14" y="8" width="1" height="1" fill="#615650"/>
<rect x="1" y="8" width="1" height="1" fill="#695b52"/>
<rect x="28" y="8" width="1" height="1" fill="#615751"/>
<rect x="13" y="8" width="1" height="1" fill="#625851"/>
<rect x="25" y="8" width="1" height="1" fill="#625750"/>
<rect x="7" y="8" width="3" height="1" fill="#615751"/>
<rect x="6" y="8" width="1" height="1" fill="#665a52"/>
<rect x="10" y="8" width="1" height="1" fill="#625750"/>
<rect x="18" y="8" width="1" height="1" fill="#635851"/>
<rect x="11" y="8" width="2" height="1" fill="#635851"/>
<rect x="0" y="8" width="1" height="1" fill="#685a52"/>
<rect x="15" y="8" width="1" height="1" fill="#605650"/>
<rect x="16" y="8" width="2" height="1" fill="#605550"/>
<rect x="26" y="8" width="2" height="1" fill="#695a52"/>
<rect x="3" y="8" width="1" height="1" fill="#695b52"/>
<rect x="23" y="7" width="1" height="3" fill="#615650"/>
<rect x="4" y="7" width="1" height="3" fill="#6d5c52"/>
<rect x="5" y="7" width="1" height="3" fill="#6a5b52"/>
<rect x="29" y="8" width="1" height="2" fill="#5d5550"/>
<rect x="2" y="8" width="1" height="2" fill="#625851"/>
<rect x="7" y="9" width="1" height="1" fill="#605650"/>
<rect x="14" y="9" width="2" height="1" fill="#635851"/>
<rect x="17" y="9" width="1" height="1" fill="#605550"/>
<rect x="21" y="9" width="2" height="1" fill="#6a5b52"/>
<rect x="30" y="9" width="1" height="1" fill="#645b53"/>
<rect x="0" y="9" width="1" height="1" fill="#685a51"/>
<rect x="25" y="9" width="1" height="1" fill="#635851"/>
<rect x="6" y="9" width="1" height="1" fill="#685a52"/>
<rect x="11" y="9" width="3" height="1" fill="#655951"/>
<rect x="16" y="9" width="1" height="1" fill="#615751"/>
<rect x="10" y="9" width="1" height="1" fill="#635851"/>
<rect x="31" y="9" width="1" height="1" fill="#55524f"/>
<rect x="28" y="9" width="1" height="1" fill="#625851"/>
<rect x="1" y="9" width="1" height="1" fill="#6a5b52"/>
<rect x="3" y="9" width="1" height="1" fill="#695b51"/>
<rect x="8" y="9" width="1" height="1" fill="#615650"/>
<rect x="26" y="9" width="2" height="1" fill="#6c5b51"/>
<rect x="9" y="9" width="1" height="1" fill="#625750"/>
<rect x="24" y="8" width="1" height="3" fill="#605550"/>
<rect x="26" y="10" width="1" height="1" fill="#6c5b51"/>
<rect x="31" y="10" width="1" height="1" fill="#625851"/>
<rect x="9" y="10" width="4" height="1" fill="#695b52"/>
<rect x="21" y="10" width="2" height="1" fill="#695a52"/>
<rect x="17" y="10" width="1" height="1" fill="#605650"/>
<rect x="1" y="10" width="1" height="1" fill="#675951"/>
<rect x="16" y="10" width="1" height="1" fill="#655951"/>
<rect x="13" y="10" width="1" height="1" fill="#695a52"/>
<rect x="23" y="10" width="1" height="1" fill="#625750"/>
<rect x="6" y="10" width="1" height="1" fill="#665951"/>
<rect x="14" y="10" width="2" height="1" fill="#695b52"/>
<rect x="0" y="10" width="1" height="1" fill="#665951"/>
<rect x="4" y="10" width="2" height="1" fill="#695b52"/>
<rect x="20" y="10" width="1" height="1" fill="#685a51"/>
<rect x="25" y="10" width="1" height="1" fill="#615650"/>
<rect x="27" y="10" width="1" height="1" fill="#6d5c51"/>
<rect x="18" y="9" width="1" height="3" fill="#625750"/>
<rect x="7" y="10" width="1" height="2" fill="#5d5550"/>
<rect x="30" y="10" width="1" height="2" fill="#5d5550"/>
<rect x="28" y="10" width="1" height="2" fill="#645b53"/>
<rect x="3" y="10" width="1" height="2" fill="#655951"/>
<rect x="8" y="10" width="1" height="2" fill="#615751"/>
<rect x="29" y="10" width="1" height="2" fill="#5e5851"/>
<rect x="2" y="10" width="1" height="2" fill="#605650"/>
<rect x="9" y="11" width="1" height="1" fill="#695a52"/>
<rect x="0" y="11" width="1" height="1" fill="#655951"/>
<rect x="23" y="11" width="1" height="1" fill="#655951"/>
<rect x="15" y="11" width="1" height="1" fill="#6a5b52"/>
<rect x="12" y="11" width="1" height="1" fill="#685a52"/>
<rect x="21" y="11" width="2" height="1" fill="#6a5b52"/>
<rect x="5" y="11" width="1" height="1" fill="#695a52"/>
<rect x="16" y="11" width="1" height="1" fill="#665951"/>
<rect x="4" y="11" width="1" height="1" fill="#695b52"/>
<rect x="14" y="11" width="1" height="1" fill="#685a52"/>
<rect x="13" y="11" width="1" height="1" fill="#665a52"/>
<rect x="1" y="11" width="1" height="1" fill="#665951"/>
<rect x="10" y="11" width="1" height="1" fill="#685a52"/>
<rect x="24" y="11" width="1" height="1" fill="#60564f"/>
<rect x="26" y="11" width="2" height="1" fill="#6b5b52"/>
<rect x="19" y="11" width="1" height="1" fill="#695a52"/>
<rect x="25" y="11" width="1" height="1" fill="#615751"/>
<rect x="17" y="11" width="1" height="1" fill="#615650"/>
<rect x="11" y="11" width="1" height="1" fill="#685a51"/>
<rect x="7" y="12" width="1" height="1" fill="#605650"/>
<rect x="11" y="12" width="3" height="1" fill="#625851"/>
<rect x="24" y="12" width="2" height="1" fill="#625851"/>
<rect x="2" y="12" width="1" height="1" fill="#615751"/>
<rect x="17" y="12" width="1" height="1" fill="#625750"/>
<rect x="4" y="12" width="1" height="1" fill="#6d5c52"/>
<rect x="26" y="12" width="2" height="1" fill="#685a51"/>
<rect x="9" y="12" width="1" height="1" fill="#695b52"/>
<rect x="23" y="12" width="1" height="1" fill="#685a51"/>
<rect x="5" y="12" width="1" height="1" fill="#695b51"/>
<rect x="22" y="12" width="1" height="1" fill="#6d5c52"/>
<rect x="19" y="12" width="2" height="1" fill="#695b52"/>
<rect x="21" y="12" width="1" height="2" fill="#6c5b51"/>
<rect x="18" y="12" width="1" height="2" fill="#635851"/>
<rect x="0" y="12" width="1" height="2" fill="#665951"/>
<rect x="14" y="12" width="1" height="2" fill="#655951"/>
<rect x="28" y="12" width="1" height="2" fill="#665a52"/>
<rect x="9" y="13" width="1" height="1" fill="#695a52"/>
<rect x="26" y="13" width="1" height="1" fill="#685a52"/>
<rect x="11" y="13" width="1" height="1" fill="#625750"/>
<rect x="22" y="13" width="1" height="1" fill="#6c5c52"/>
<rect x="17" y="13" width="1" height="1" fill="#625851"/>
<rect x="27" y="13" width="1" height="1" fill="#685a51"/>
<rect x="19" y="13" width="2" height="1" fill="#695a52"/>
<rect x="24" y="13" width="2" height="1" fill="#625750"/>
<rect x="5" y="13" width="1" height="1" fill="#695a52"/>
<rect x="23" y="13" width="1" height="1" fill="#695b52"/>
<rect x="12" y="13" width="2" height="1" fill="#625851"/>
<rect x="4" y="13" width="1" height="1" fill="#6c5b51"/>
<rect x="6" y="11" width="1" height="4" fill="#675951"/>
<rect x="16" y="12" width="1" height="3" fill="#675951"/>
<rect x="1" y="12" width="1" height="3" fill="#675951"/>
<rect x="30" y="12" width="1" height="3" fill="#60564f"/>
<rect x="2" y="13" width="1" height="2" fill="#625750"/>
<rect x="24" y="14" width="1" height="1" fill="#605550"/>
<rect x="18" y="14" width="1" height="1" fill="#615650"/>
<rect x="27" y="14" width="1" height="1" fill="#675951"/>
<rect x="17" y="14" width="1" height="1" fill="#605650"/>
<rect x="13" y="14" width="1" height="1" fill="#605650"/>
<rect x="25" y="14" width="1" height="1" fill="#605650"/>
<rect x="21" y="14" width="1" height="1" fill="#6c5c52"/>
<rect x="0" y="14" width="1" height="1" fill="#685a51"/>
<rect x="12" y="14" width="1" height="1" fill="#615751"/>
<rect x="19" y="14" width="1" height="1" fill="#685a51"/>
<rect x="14" y="14" width="1" height="1" fill="#635851"/>
<rect x="4" y="14" width="1" height="1" fill="#6c5c52"/>
<rect x="11" y="14" width="1" height="1" fill="#625851"/>
<rect x="28" y="14" width="1" height="1" fill="#685a52"/>
<rect x="22" y="14" width="1" height="1" fill="#6d5c52"/>
<rect x="3" y="12" width="1" height="4" fill="#685a51"/>
<rect x="8" y="12" width="1" height="4" fill="#625750"/>
<rect x="15" y="12" width="1" height="4" fill="#695b52"/>
<rect x="29" y="12" width="1" height="4" fill="#645b53"/>
<rect x="10" y="12" width="1" height="4" fill="#665a52"/>
<rect x="26" y="14" width="1" height="2" fill="#665951"/>
<rect x="13" y="15" width="1" height="1" fill="#615650"/>
<rect x="28" y="15" width="1" height="1" fill="#695a52"/>
<rect x="23" y="15" width="1" height="1" fill="#6a5b52"/>
<rect x="0" y="15" width="2" height="1" fill="#675951"/>
<rect x="24" y="15" width="2" height="1" fill="#605550"/>
<rect x="30" y="15" width="1" height="1" fill="#615751"/>
<rect x="21" y="15" width="1" height="1" fill="#6b5b52"/>
<rect x="14" y="15" width="1" height="1" fill="#625750"/>
<rect x="11" y="15" width="2" height="1" fill="#625750"/>
<rect x="19" y="15" width="1" height="1" fill="#685a52"/>
<rect x="20" y="15" width="1" height="1" fill="#695b52"/>
<rect x="9" y="15" width="1" height="1" fill="#685a51"/>
<rect x="22" y="15" width="1" height="1" fill="#6d5c51"/>
<rect x="17" y="15" width="2" height="1" fill="#605650"/>
<rect x="31" y="11" width="1" height="6" fill="#675f57"/>
<rect x="2" y="15" width="1" height="2" fill="#615751"/>
<rect x="16" y="15" width="1" height="2" fill="#685a52"/>
<rect x="6" y="15" width="1" height="2" fill="#685a51"/>
<rect x="12" y="16" width="1" height="1" fill="#685a52"/>
<rect x="17" y="16" width="1" height="1" fill="#625750"/>
<rect x="18" y="16" width="1" height="1" fill="#625851"/>
<rect x="15" y="16" width="1" height="1" fill="#695b51"/>
<rect x="10" y="16" width="1" height="1" fill="#685a51"/>
<rect x="19" y="16" width="1" height="1" fill="#685a51"/>
<rect x="1" y="16" width="1" height="1" fill="#665951"/>
<rect x="23" y="16" width="1" height="1" fill="#685a51"/>
<rect x="30" y="16" width="1" height="1" fill="#5e5851"/>
<rect x="0" y="16" width="1" height="1" fill="#675951"/>
<rect x="13" y="16" width="2" height="1" fill="#685a51"/>
<rect x="7" y="13" width="1" height="5" fill="#605550"/>
<rect x="26" y="16" width="1" height="2" fill="#635851"/>
<rect x="3" y="16" width="1" height="2" fill="#675951"/>
<rect x="25" y="16" width="1" height="2" fill="#605550"/>
<rect x="29" y="16" width="1" height="2" fill="#615751"/>
<rect x="8" y="16" width="1" height="2" fill="#615650"/>
<rect x="24" y="16" width="1" height="2" fill="#605650"/>
<rect x="20" y="17" width="1" height="1" fill="#695a52"/>
<rect x="16" y="17" width="1" height="1" fill="#685a51"/>
<rect x="17" y="17" width="1" height="1" fill="#625851"/>
<rect x="0" y="17" width="2" height="1" fill="#665951"/>
<rect x="2" y="17" width="1" height="1" fill="#615650"/>
<rect x="21" y="17" width="2" height="1" fill="#685a51"/>
<rect x="18" y="17" width="1" height="1" fill="#625750"/>
<rect x="6" y="17" width="1" height="1" fill="#675951"/>
<rect x="19" y="17" width="1" height="1" fill="#675951"/>
<rect x="12" y="17" width="2" height="1" fill="#685a51"/>
<rect x="23" y="17" width="1" height="1" fill="#685a52"/>
<rect x="31" y="17" width="1" height="1" fill="#645b53"/>
<rect x="9" y="17" width="3" height="1" fill="#675951"/>
<rect x="15" y="17" width="1" height="1" fill="#695a52"/>
<rect x="30" y="17" width="1" height="2" fill="#5d5550"/>
<rect x="13" y="18" width="1" height="1" fill="#615650"/>
<rect x="24" y="18" width="1" height="1" fill="#625750"/>
<rect x="26" y="18" width="1" height="1" fill="#625750"/>
<rect x="11" y="18" width="1" height="1" fill="#5b534e"/>
<rect x="23" y="18" width="1" height="1" fill="#6a5b52"/>
<rect x="22" y="18" width="1" height="1" fill="#6b5b52"/>
<rect x="15" y="18" width="2" height="1" fill="#635851"/>
<rect x="12" y="18" width="1" height="1" fill="#5d5550"/>
<rect x="6" y="18" width="1" height="1" fill="#685a51"/>
<rect x="14" y="18" width="1" height="1" fill="#625750"/>
<rect x="1" y="18" width="1" height="1" fill="#665951"/>
<rect x="0" y="18" width="1" height="1" fill="#675951"/>
<rect x="7" y="18" width="4" height="1" fill="#605550"/>
<rect x="29" y="18" width="1" height="1" fill="#5e5851"/>
<rect x="17" y="18" width="2" height="1" fill="#625851"/>
<rect x="31" y="18" width="1" height="1" fill="#5e5851"/>
<rect x="25" y="18" width="1" height="1" fill="#615650"/>
<rect x="3" y="18" width="1" height="2" fill="#665951"/>
<rect x="2" y="18" width="1" height="2" fill="#605550"/>
<rect x="19" y="18" width="1" height="2" fill="#665951"/>
<rect x="13" y="19" width="2" height="1" fill="#605550"/>
<rect x="30" y="19" width="2" height="1" fill="#55524f"/>
<rect x="24" y="19" width="1" height="1" fill="#635851"/>
<rect x="15" y="19" width="1" height="1" fill="#615751"/>
<rect x="25" y="19" width="1" height="1" fill="#625851"/>
<rect x="16" y="19" width="1" height="1" fill="#625750"/>
<rect x="29" y="19" width="1" height="1" fill="#5d5550"/>
<rect x="22" y="19" width="2" height="1" fill="#6d5c52"/>
<rect x="8" y="19" width="3" height="1" fill="#605550"/>
<rect x="7" y="19" width="1" height="1" fill="#615650"/>
<rect x="11" y="19" width="2" height="1" fill="#5b534e"/>
<rect x="18" y="19" width="1" height="1" fill="#625750"/>
<rect x="6" y="19" width="1" height="1" fill="#675951"/>
<rect x="17" y="19" width="1" height="1" fill="#615751"/>
<rect x="0" y="19" width="1" height="1" fill="#665951"/>
<rect x="20" y="19" width="1" height="1" fill="#685a51"/>
<rect x="26" y="19" width="1" height="2" fill="#635851"/>
<rect x="27" y="19" width="1" height="2" fill="#685a51"/>
<rect x="0" y="20" width="1" height="1" fill="#655951"/>
<rect x="29" y="20" width="1" height="1" fill="#605650"/>
<rect x="31" y="20" width="1" height="1" fill="#4f4943"/>
<rect x="22" y="20" width="1" height="1" fill="#6c5b51"/>
<rect x="24" y="20" width="1" height="1" fill="#655951"/>
<rect x="30" y="20" width="1" height="1" fill="#55524f"/>
<rect x="11" y="20" width="3" height="1" fill="#665951"/>
<rect x="25" y="20" width="1" height="1" fill="#625750"/>
<rect x="8" y="20" width="3" height="1" fill="#675951"/>
<rect x="23" y="20" width="1" height="1" fill="#6d5c52"/>
<rect x="14" y="20" width="4" height="1" fill="#655951"/>
<rect x="18" y="20" width="1" height="1" fill="#635851"/>
<rect x="19" y="20" width="1" height="1" fill="#675951"/>
<rect x="6" y="20" width="2" height="1" fill="#685a51"/>
<rect x="4" y="15" width="1" height="7" fill="#6c5b51"/>
<rect x="1" y="19" width="1" height="3" fill="#675951"/>
<rect x="21" y="21" width="1" height="1" fill="#695b51"/>
<rect x="24" y="21" width="1" height="1" fill="#635851"/>
<rect x="20" y="21" width="1" height="1" fill="#695a52"/>
<rect x="16" y="21" width="1" height="1" fill="#685a51"/>
<rect x="12" y="21" width="1" height="1" fill="#675951"/>
<rect x="14" y="21" width="1" height="1" fill="#695b52"/>
<rect x="29" y="21" width="1" height="1" fill="#635851"/>
<rect x="13" y="21" width="1" height="1" fill="#685a51"/>
<rect x="25" y="21" width="1" height="1" fill="#605550"/>
<rect x="15" y="21" width="1" height="1" fill="#695b51"/>
<rect x="5" y="21" width="1" height="1" fill="#6a5a51"/>
<rect x="0" y="21" width="1" height="1" fill="#685a51"/>
<rect x="18" y="21" width="1" height="1" fill="#695a52"/>
<rect x="22" y="21" width="2" height="1" fill="#6c5b51"/>
<rect x="8" y="21" width="2" height="1" fill="#675951"/>
<rect x="10" y="21" width="2" height="1" fill="#685a51"/>
<rect x="26" y="21" width="1" height="1" fill="#605650"/>
<rect x="3" y="20" width="1" height="3" fill="#675951"/>
<rect x="27" y="21" width="1" height="2" fill="#685a52"/>
<rect x="22" y="22" width="1" height="1" fill="#6c5b51"/>
<rect x="14" y="22" width="2" height="1" fill="#6a5a51"/>
<rect x="28" y="22" width="1" height="1" fill="#685a51"/>
<rect x="29" y="22" width="1" height="1" fill="#655951"/>
<rect x="23" y="22" width="1" height="1" fill="#6d5c52"/>
<rect x="6" y="22" width="1" height="1" fill="#6c5c52"/>
<rect x="21" y="22" width="1" height="1" fill="#695b52"/>
<rect x="24" y="22" width="1" height="1" fill="#665951"/>
<rect x="4" y="22" width="2" height="1" fill="#6c5b51"/>
<rect x="9" y="22" width="5" height="1" fill="#6b5b52"/>
<rect x="24" y="23" width="1" height="1" fill="#675951"/>
<rect x="9" y="23" width="1" height="1" fill="#6c5b51"/>
<rect x="11" y="23" width="3" height="1" fill="#6d5c52"/>
<rect x="7" y="23" width="1" height="1" fill="#695a52"/>
<rect x="17" y="23" width="1" height="1" fill="#6d5c52"/>
<rect x="10" y="23" width="1" height="1" fill="#6d5c51"/>
<rect x="27" y="23" width="1" height="1" fill="#675951"/>
<rect x="29" y="23" width="1" height="1" fill="#665951"/>
<rect x="4" y="23" width="2" height="1" fill="#6a5a51"/>
<rect x="3" y="23" width="1" height="1" fill="#655951"/>
<rect x="19" y="23" width="1" height="1" fill="#6d5c52"/>
<rect x="28" y="23" width="1" height="1" fill="#695b51"/>
<rect x="15" y="23" width="1" height="1" fill="#6d5c52"/>
<rect x="14" y="23" width="1" height="1" fill="#6c5b51"/>
<rect x="18" y="23" width="1" height="1" fill="#6c5b51"/>
<rect x="6" y="23" width="1" height="1" fill="#6c5b51"/>
<rect x="2" y="20" width="1" height="5" fill="#625750"/>
<rect x="1" y="22" width="1" height="3" fill="#6a5b52"/>
<rect x="20" y="23" width="2" height="2" fill="#6e5f54"/>
<rect x="16" y="23" width="1" height="2" fill="#6c5b51"/>
<rect x="22" y="23" width="2" height="2" fill="#6d5c52"/>
<rect x="29" y="24" width="1" height="1" fill="#685a52"/>
<rect x="7" y="24" width="2" height="1" fill="#615650"/>
<rect x="17" y="24" width="1" height="1" fill="#6c5c52"/>
<rect x="19" y="24" width="1" height="1" fill="#6d5c51"/>
<rect x="18" y="24" width="1" height="1" fill="#6d5c52"/>
<rect x="3" y="24" width="1" height="1" fill="#615751"/>
<rect x="11" y="24" width="2" height="1" fill="#675951"/>
<rect x="6" y="24" width="1" height="1" fill="#635851"/>
<rect x="5" y="24" width="1" height="1" fill="#615751"/>
<rect x="4" y="24" width="1" height="1" fill="#605550"/>
<rect x="28" y="24" width="1" height="1" fill="#685a51"/>
<rect x="14" y="24" width="1" height="1" fill="#6a5b52"/>
<rect x="24" y="24" width="1" height="1" fill="#685a51"/>
<rect x="15" y="24" width="1" height="1" fill="#6b5b52"/>
<rect x="9" y="24" width="1" height="1" fill="#625750"/>
<rect x="10" y="24" width="1" height="1" fill="#655951"/>
<rect x="30" y="21" width="2" height="5" fill="#55524f"/>
<rect x="25" y="22" width="2" height="4" fill="#605650"/>
<rect x="27" y="24" width="1" height="2" fill="#665951"/>
<rect x="23" y="25" width="1" height="1" fill="#6a5a51"/>
<rect x="24" y="25" width="1" height="1" fill="#675951"/>
<rect x="29" y="25" width="1" height="1" fill="#685a51"/>
<rect x="2" y="25" width="1" height="1" fill="#665951"/>
<rect x="19" y="25" width="1" height="1" fill="#655951"/>
<rect x="11" y="25" width="1" height="1" fill="#605550"/>
<rect x="21" y="25" width="1" height="1" fill="#695b52"/>
<rect x="3" y="25" width="1" height="1" fill="#635851"/>
<rect x="16" y="25" width="2" height="1" fill="#615650"/>
<rect x="4" y="25" width="1" height="1" fill="#615650"/>
<rect x="14" y="25" width="1" height="1" fill="#605550"/>
<rect x="10" y="25" width="1" height="1" fill="#605650"/>
<rect x="1" y="25" width="1" height="1" fill="#6c5b51"/>
<rect x="28" y="25" width="1" height="1" fill="#695b52"/>
<rect x="7" y="25" width="2" height="1" fill="#605650"/>
<rect x="18" y="25" width="1" height="1" fill="#635851"/>
<rect x="15" y="25" width="1" height="1" fill="#605650"/>
<rect x="12" y="25" width="2" height="1" fill="#605650"/>
<rect x="5" y="25" width="2" height="1" fill="#625750"/>
<rect x="9" y="25" width="1" height="1" fill="#605550"/>
<rect x="20" y="25" width="1" height="1" fill="#675951"/>
<rect x="0" y="25" width="1" height="1" fill="#6a5b52"/>
<rect x="28" y="26" width="1" height="1" fill="#6c5b51"/>
<rect x="30" y="26" width="1" height="1" fill="#5b534e"/>
<rect x="9" y="26" width="1" height="1" fill="#665951"/>
<rect x="11" y="26" width="1" height="1" fill="#625750"/>
<rect x="7" y="26" width="1" height="1" fill="#665951"/>
<rect x="29" y="26" width="1" height="1" fill="#6b5b52"/>
<rect x="22" y="26" width="5" height="1" fill="#605650"/>
<rect x="27" y="26" width="1" height="1" fill="#665a52"/>
<rect x="13" y="26" width="1" height="1" fill="#605550"/>
<rect x="14" y="26" width="1" height="1" fill="#605650"/>
<rect x="20" y="26" width="2" height="1" fill="#605550"/>
<rect x="6" y="26" width="1" height="1" fill="#675951"/>
<rect x="1" y="26" width="2" height="1" fill="#6d5c52"/>
<rect x="8" y="26" width="1" height="1" fill="#655951"/>
<rect x="10" y="26" width="1" height="1" fill="#635851"/>
<rect x="12" y="26" width="1" height="1" fill="#615650"/>
<rect x="0" y="26" width="1" height="1" fill="#6c5c52"/>
<rect x="4" y="26" width="1" height="1" fill="#6c5c52"/>
<rect x="3" y="26" width="1" height="1" fill="#6d5c51"/>
<rect x="15" y="26" width="3" height="1" fill="#605550"/>
<rect x="18" y="26" width="2" height="1" fill="#605650"/>
<rect x="13" y="27" width="2" height="1" fill="#685a52"/>
<rect x="0" y="27" width="1" height="1" fill="#655951"/>
<rect x="12" y="27" width="1" height="1" fill="#685a51"/>
<rect x="2" y="27" width="1" height="1" fill="#655951"/>
<rect x="6" y="27" width="1" height="1" fill="#695b52"/>
<rect x="17" y="27" width="1" height="1" fill="#665a52"/>
<rect x="1" y="27" width="1" height="1" fill="#665a52"/>
<rect x="20" y="27" width="1" height="1" fill="#615650"/>
<rect x="15" y="27" width="1" height="1" fill="#695b52"/>
<rect x="26" y="27" width="1" height="1" fill="#615650"/>
<rect x="21" y="27" width="5" height="1" fill="#605650"/>
<rect x="16" y="27" width="1" height="1" fill="#6a5b52"/>
<rect x="5" y="27" width="1" height="1" fill="#6a5b52"/>
<rect x="18" y="27" width="1" height="1" fill="#635851"/>
<rect x="19" y="27" width="1" height="1" fill="#625750"/>
<rect x="10" y="27" width="1" height="1" fill="#6c5b51"/>
<rect x="9" y="27" width="1" height="1" fill="#6c5c52"/>
<rect x="4" y="27" width="1" height="1" fill="#6a5a51"/>
<rect x="31" y="26" width="1" height="3" fill="#55524f"/>
<rect x="28" y="27" width="2" height="2" fill="#6d5c52"/>
<rect x="30" y="27" width="1" height="2" fill="#5d5550"/>
<rect x="27" y="27" width="1" height="2" fill="#665951"/>
<rect x="3" y="28" width="2" height="1" fill="#55524f"/>
<rect x="26" y="28" width="1" height="1" fill="#635851"/>
<rect x="0" y="28" width="2" height="1" fill="#5b534e"/>
<rect x="17" y="28" width="1" height="1" fill="#6d5c52"/>
<rect x="5" y="28" width="1" height="1" fill="#5b534e"/>
<rect x="18" y="28" width="1" height="1" fill="#695b52"/>
<rect x="21" y="28" width="1" height="1" fill="#685a51"/>
<rect x="7" y="28" width="1" height="1" fill="#615751"/>
<rect x="25" y="28" width="1" height="1" fill="#665951"/>
<rect x="15" y="28" width="1" height="1" fill="#6d5c52"/>
<rect x="8" y="28" width="1" height="1" fill="#655951"/>
<rect x="2" y="28" width="1" height="1" fill="#4f4943"/>
<rect x="13" y="28" width="2" height="1" fill="#695b52"/>
<rect x="10" y="28" width="1" height="1" fill="#6b5b52"/>
<rect x="16" y="28" width="1" height="1" fill="#6e5f54"/>
<rect x="6" y="28" width="1" height="1" fill="#5d5550"/>
<rect x="19" y="28" width="1" height="1" fill="#695a52"/>
<rect x="11" y="28" width="1" height="1" fill="#695b52"/>
<rect x="22" y="28" width="1" height="1" fill="#695b52"/>
<rect x="24" y="28" width="1" height="1" fill="#685a51"/>
<rect x="9" y="28" width="1" height="1" fill="#685a52"/>
<rect x="23" y="28" width="1" height="1" fill="#695a52"/>
<rect x="20" y="28" width="1" height="1" fill="#685a52"/>
<rect x="30" y="29" width="1" height="1" fill="#665a52"/>
<rect x="20" y="29" width="1" height="1" fill="#695a52"/>
<rect x="21" y="29" width="1" height="1" fill="#695b52"/>
<rect x="22" y="29" width="1" height="1" fill="#6b5b52"/>
<rect x="12" y="29" width="1" height="1" fill="#635851"/>
<rect x="16" y="29" width="2" height="1" fill="#6e5f54"/>
<rect x="7" y="29" width="1" height="1" fill="#55524f"/>
<rect x="0" y="29" width="2" height="1" fill="#675f57"/>
<rect x="8" y="29" width="3" height="1" fill="#5b534e"/>
<rect x="2" y="29" width="1" height="1" fill="#5e5851"/>
<rect x="15" y="29" width="1" height="1" fill="#695b52"/>
<rect x="31" y="29" width="1" height="1" fill="#5d5550"/>
<rect x="4" y="29" width="3" height="1" fill="#4f4943"/>
<rect x="14" y="29" width="1" height="1" fill="#665a52"/>
<rect x="18" y="29" width="2" height="1" fill="#695b52"/>
<rect x="23" y="29" width="7" height="1" fill="#6d5c52"/>
<rect x="13" y="29" width="1" height="1" fill="#645b53"/>
<rect x="11" y="29" width="1" height="1" fill="#625851"/>
<rect x="3" y="29" width="1" height="2" fill="#55524f"/>
<rect x="19" y="30" width="1" height="1" fill="#615751"/>
<rect x="24" y="30" width="1" height="1" fill="#6b5b52"/>
<rect x="17" y="30" width="1" height="1" fill="#625851"/>
<rect x="4" y="30" width="5" height="1" fill="#675f57"/>
<rect x="10" y="30" width="4" height="1" fill="#5b534e"/>
<rect x="20" y="30" width="1" height="1" fill="#5d5550"/>
<rect x="18" y="30" width="1" height="1" fill="#5e5851"/>
<rect x="25" y="30" width="1" height="1" fill="#6c5c52"/>
<rect x="9" y="30" width="1" height="1" fill="#5e5851"/>
<rect x="0" y="30" width="3" height="1" fill="#4f4943"/>
<rect x="22" y="30" width="1" height="1" fill="#655951"/>
<rect x="26" y="30" width="4" height="1" fill="#6d5c52"/>
<rect x="16" y="30" width="1" height="1" fill="#615751"/>
<rect x="15" y="30" width="1" height="1" fill="#60564f"/>
<rect x="14" y="30" width="1" height="1" fill="#5d5550"/>
<rect x="21" y="30" width="1" height="1" fill="#615751"/>
<rect x="23" y="30" width="1" height="1" fill="#695a52"/>
<rect x="30" y="30" width="1" height="1" fill="#695b53"/>
<rect x="31" y="30" width="1" height="2" fill="#5e5851"/>
<rect x="27" y="31" width="1" height="1" fill="#5d5550"/>
<rect x="21" y="31" width="5" height="1" fill="#55524f"/>
<rect x="26" y="31" width="1" height="1" fill="#5b534e"/>
<rect x="20" y="31" width="1" height="1" fill="#4f4943"/>
<rect x="18" y="31" width="2" height="1" fill="#55524f"/>
<rect x="16" y="31" width="1" height="1" fill="#60564f"/>
<rect x="17" y="31" width="1" height="1" fill="#5b534e"/>
<rect x="29" y="31" width="1" height="1" fill="#665951"/>
<rect x="30" y="31" width="1" height="1" fill="#665a52"/>
<rect x="0" y="31" width="9" height="1" fill="#4f4943"/>
<rect x="10" y="31" width="5" height="1" fill="#675f57"/>
<rect x="28" y="31" width="1" height="1" fill="#625750"/>
<rect x="9" y="31" width="1" height="1" fill="#60564f"/>
<rect x="15" y="31" width="1" height="1" fill="#645b53"/>
</svg>