<?xml version="1.0" encoding="UTF-8"?>
<svg xmlns="http://www.w3.org/2000/svg" width="20mm" height="20mm" viewBox="0 0 32 32" shape-rendering="crispEdges">
<title>122 右侧面 structured semantic redraw</title>
<metadata>registered 32-unit semantic vector redraw; no embedded raster; physical-size=20mm</metadata>
<rect x="0" y="0" width="32" height="32" fill="#534f4c"/>
<rect x="20" y="0" width="1" height="1" fill="#585350"/>
<rect x="21" y="0" width="1" height="1" fill="#595451"/>
<rect x="19" y="0" width="1" height="1" fill="#57524f"/>
<rect x="13" y="0" width="2" height="1" fill="#575350"/>
<rect x="8" y="0" width="1" height="1" fill="#5e5b57"/>
<rect x="17" y="0" width="1" height="1" fill="#56514d"/>
<rect x="28" y="0" width="1" height="1" fill="#595552"/>
<rect x="18" y="0" width="1" height="1" fill="#56514e"/>
<rect x="0" y="0" width="7" height="1" fill="#6b6966"/>
<rect x="22" y="0" width="2" height="1" fill="#5b5754"/>
<rect x="10" y="0" width="1" height="1" fill="#5b5754"/>
<rect x="26" y="0" width="2" height="1" fill="#5c5855"/>
<rect x="16" y="0" width="1" height="1" fill="#55504d"/>
<rect x="15" y="0" width="1" height="1" fill="#56514d"/>
<rect x="7" y="0" width="1" height="1" fill="#62605d"/>
<rect x="29" y="0" width="1" height="1" fill="#595451"/>
<rect x="11" y="0" width="2" height="1" fill="#5a5552"/>
<rect x="9" y="0" width="1" height="1" fill="#5c5855"/>
<rect x="24" y="0" width="1" height="2" fill="#5c5855"/>
<rect x="30" y="0" width="1" height="2" fill="#54504e"/>
<rect x="31" y="0" width="1" height="2" fill="#4d4c4b"/>
<rect x="25" y="0" width="1" height="2" fill="#5d5855"/>
<rect x="3" y="1" width="1" height="1" fill="#5e5c59"/>
<rect x="11" y="1" width="2" height="1" fill="#595451"/>
<rect x="5" y="1" width="1" height="1" fill="#5e5c59"/>
<rect x="6" y="1" width="1" height="1" fill="#5d5a57"/>
<rect x="21" y="1" width="1" height="1" fill="#585350"/>
<rect x="26" y="1" width="2" height="1" fill="#5c5956"/>
<rect x="1" y="1" width="1" height="1" fill="#5b5754"/>
<rect x="8" y="1" width="1" height="1" fill="#575350"/>
<rect x="0" y="1" width="1" height="1" fill="#5b5653"/>
<rect x="4" y="1" width="1" height="1" fill="#62605d"/>
<rect x="22" y="1" width="1" height="1" fill="#5a5653"/>
<rect x="13" y="1" width="1" height="1" fill="#56514e"/>
<rect x="7" y="1" width="1" height="1" fill="#595451"/>
<rect x="9" y="1" width="2" height="1" fill="#595552"/>
<rect x="2" y="1" width="1" height="1" fill="#5d5956"/>
<rect x="14" y="1" width="1" height="1" fill="#55504c"/>
<rect x="29" y="1" width="1" height="2" fill="#575350"/>
<rect x="20" y="1" width="1" height="2" fill="#55504d"/>
<rect x="28" y="1" width="1" height="2" fill="#595451"/>
<rect x="23" y="1" width="1" height="2" fill="#5b5754"/>
<rect x="16" y="2" width="3" height="1" fill="#504d4b"/>
<rect x="5" y="2" width="1" height="1" fill="#5c5956"/>
<rect x="12" y="2" width="1" height="1" fill="#524e4d"/>
<rect x="9" y="2" width="2" height="1" fill="#585350"/>
<rect x="4" y="2" width="1" height="1" fill="#605d5a"/>
<rect x="24" y="2" width="2" height="1" fill="#5c5855"/>
<rect x="7" y="2" width="1" height="1" fill="#595552"/>
<rect x="21" y="2" width="1" height="1" fill="#575350"/>
<rect x="6" y="2" width="1" height="1" fill="#5b5754"/>
<rect x="26" y="2" width="2" height="1" fill="#5b5754"/>
<rect x="1" y="2" width="1" height="1" fill="#57524f"/>
<rect x="30" y="2" width="1" height="1" fill="#54514e"/>
<rect x="8" y="2" width="1" height="1" fill="#595451"/>
<rect x="2" y="2" width="1" height="1" fill="#5c5855"/>
<rect x="22" y="2" width="1" height="1" fill="#5b5653"/>
<rect x="19" y="1" width="1" height="3" fill="#544f4c"/>
<rect x="13" y="2" width="2" height="2" fill="#504d4b"/>
<rect x="31" y="2" width="1" height="2" fill="#504d4b"/>
<rect x="28" y="3" width="2" height="1" fill="#595451"/>
<rect x="11" y="3" width="1" height="1" fill="#544f4c"/>
<rect x="24" y="3" width="1" height="1" fill="#5d5855"/>
<rect x="0" y="3" width="1" height="1" fill="#595451"/>
<rect x="23" y="3" width="1" height="1" fill="#595451"/>
<rect x="1" y="3" width="1" height="1" fill="#5c5855"/>
<rect x="25" y="3" width="1" height="1" fill="#5c5855"/>
<rect x="8" y="3" width="1" height="1" fill="#5a5552"/>
<rect x="10" y="3" width="1" height="1" fill="#575350"/>
<rect x="9" y="3" width="1" height="1" fill="#585350"/>
<rect x="30" y="3" width="1" height="2" fill="#56514e"/>
<rect x="2" y="3" width="1" height="2" fill="#605d5a"/>
<rect x="22" y="3" width="1" height="2" fill="#57524f"/>
<rect x="5" y="3" width="1" height="2" fill="#5a5552"/>
<rect x="6" y="3" width="1" height="2" fill="#585350"/>
<rect x="7" y="3" width="1" height="2" fill="#595451"/>
<rect x="4" y="3" width="1" height="2" fill="#5b5754"/>
<rect x="17" y="4" width="2" height="1" fill="#54504e"/>
<rect x="9" y="4" width="1" height="1" fill="#56514e"/>
<rect x="1" y="4" width="1" height="1" fill="#5c5956"/>
<rect x="31" y="4" width="1" height="1" fill="#524e4d"/>
<rect x="8" y="4" width="1" height="1" fill="#585350"/>
<rect x="16" y="4" width="1" height="1" fill="#56514e"/>
<rect x="24" y="4" width="2" height="1" fill="#5d5956"/>
<rect x="29" y="4" width="1" height="1" fill="#575350"/>
<rect x="28" y="4" width="1" height="1" fill="#595451"/>
<rect x="10" y="4" width="1" height="1" fill="#54504e"/>
<rect x="0" y="4" width="1" height="1" fill="#5b5754"/>
<rect x="15" y="4" width="1" height="1" fill="#54504e"/>
<rect x="23" y="4" width="1" height="1" fill="#585350"/>
<rect x="3" y="2" width="1" height="4" fill="#5e5b57"/>
<rect x="27" y="3" width="1" height="3" fill="#5b5754"/>
<rect x="21" y="3" width="1" height="3" fill="#55504d"/>
<rect x="12" y="4" width="1" height="2" fill="#524e4d"/>
<rect x="18" y="5" width="1" height="1" fill="#55504d"/>
<rect x="4" y="5" width="2" height="1" fill="#585350"/>
<rect x="28" y="5" width="1" height="1" fill="#5a5552"/>
<rect x="22" y="5" width="1" height="1" fill="#56514e"/>
<rect x="6" y="5" width="2" height="1" fill="#57524f"/>
<rect x="8" y="5" width="1" height="1" fill="#56514d"/>
<rect x="30" y="5" width="1" height="1" fill="#575350"/>
<rect x="17" y="5" width="1" height="1" fill="#56514e"/>
<rect x="14" y="5" width="3" height="1" fill="#54504e"/>
<rect x="24" y="5" width="2" height="1" fill="#5a5552"/>
<rect x="2" y="5" width="1" height="1" fill="#62605d"/>
<rect x="19" y="5" width="1" height="1" fill="#54504e"/>
<rect x="0" y="5" width="2" height="1" fill="#605d5a"/>
<rect x="29" y="5" width="1" height="1" fill="#595451"/>
<rect x="9" y="5" width="1" height="1" fill="#544f4c"/>
<rect x="23" y="5" width="1" height="2" fill="#57524f"/>
<rect x="3" y="6" width="1" height="1" fill="#5e5c59"/>
<rect x="21" y="6" width="2" height="1" fill="#56514e"/>
<rect x="12" y="6" width="1" height="1" fill="#56514e"/>
<rect x="9" y="6" width="1" height="1" fill="#55504d"/>
<rect x="31" y="6" width="1" height="1" fill="#544f4c"/>
<rect x="8" y="6" width="1" height="1" fill="#56514e"/>
<rect x="27" y="6" width="1" height="1" fill="#5d5855"/>
<rect x="20" y="6" width="1" height="1" fill="#55504d"/>
<rect x="0" y="6" width="3" height="1" fill="#62605d"/>
<rect x="14" y="6" width="2" height="1" fill="#595552"/>
<rect x="11" y="6" width="1" height="1" fill="#55504d"/>
<rect x="10" y="6" width="1" height="1" fill="#544f4c"/>
<rect x="13" y="6" width="1" height="1" fill="#575350"/>
<rect x="5" y="6" width="3" height="1" fill="#57524f"/>
<rect x="4" y="6" width="1" height="1" fill="#575350"/>
<rect x="17" y="6" width="1" height="2" fill="#595451"/>
<rect x="24" y="6" width="2" height="2" fill="#595451"/>
<rect x="30" y="6" width="1" height="2" fill="#57524f"/>
<rect x="18" y="6" width="1" height="2" fill="#585350"/>
<rect x="16" y="6" width="1" height="2" fill="#5a5653"/>
<rect x="19" y="6" width="1" height="2" fill="#56524f"/>
<rect x="6" y="7" width="2" height="1" fill="#585350"/>
<rect x="1" y="7" width="1" height="1" fill="#605d5a"/>
<rect x="4" y="7" width="1" height="1" fill="#5a5653"/>
<rect x="14" y="7" width="1" height="1" fill="#5c5956"/>
<rect x="12" y="7" width="1" height="1" fill="#5a5653"/>
<rect x="15" y="7" width="1" height="1" fill="#5a5754"/>
<rect x="21" y="7" width="3" height="1" fill="#56514e"/>
<rect x="5" y="7" width="1" height="1" fill="#595552"/>
<rect x="20" y="7" width="1" height="1" fill="#54504e"/>
<rect x="26" y="3" width="1" height="6" fill="#5b5653"/>
<rect x="28" y="6" width="2" height="3" fill="#5a5552"/>
<rect x="8" y="7" width="3" height="2" fill="#595451"/>
<rect x="27" y="7" width="1" height="2" fill="#5b5754"/>
<rect x="11" y="7" width="1" height="2" fill="#5a5552"/>
<rect x="13" y="7" width="1" height="2" fill="#5b5754"/>
<rect x="2" y="7" width="1" height="2" fill="#62605d"/>
<rect x="3" y="7" width="1" height="2" fill="#605d5a"/>
<rect x="12" y="8" width="1" height="1" fill="#5b5653"/>
<rect x="7" y="8" width="1" height="1" fill="#585350"/>
<rect x="30" y="8" width="1" height="1" fill="#56514e"/>
<rect x="14" y="8" width="3" height="1" fill="#5c5956"/>
<rect x="1" y="8" width="1" height="1" fill="#5e5c59"/>
<rect x="18" y="8" width="1" height="1" fill="#5b5653"/>
<rect x="19" y="8" width="1" height="1" fill="#595451"/>
<rect x="17" y="8" width="1" height="1" fill="#5b5754"/>
<rect x="20" y="8" width="2" height="1" fill="#56514e"/>
<rect x="22" y="8" width="1" height="1" fill="#55504d"/>
<rect x="4" y="8" width="1" height="1" fill="#5a5754"/>
<rect x="5" y="8" width="1" height="1" fill="#5a5653"/>
<rect x="23" y="8" width="1" height="1" fill="#56514e"/>
<rect x="6" y="8" width="1" height="1" fill="#57524f"/>
<rect x="0" y="7" width="1" height="3" fill="#62605d"/>
<rect x="3" y="9" width="1" height="1" fill="#5e5c59"/>
<rect x="15" y="9" width="2" height="1" fill="#5e5c59"/>
<rect x="7" y="9" width="1" height="1" fill="#5d5855"/>
<rect x="19" y="9" width="1" height="1" fill="#595552"/>
<rect x="1" y="9" width="1" height="1" fill="#5c5956"/>
<rect x="28" y="9" width="1" height="1" fill="#5a5552"/>
<rect x="12" y="9" width="1" height="1" fill="#5d5956"/>
<rect x="30" y="9" width="1" height="1" fill="#57524f"/>
<rect x="2" y="9" width="1" height="1" fill="#605d5a"/>
<rect x="26" y="9" width="2" height="1" fill="#5b5653"/>
<rect x="29" y="9" width="1" height="1" fill="#595552"/>
<rect x="6" y="9" width="1" height="1" fill="#5c5855"/>
<rect x="20" y="9" width="2" height="1" fill="#56524f"/>
<rect x="22" y="9" width="2" height="1" fill="#56514e"/>
<rect x="13" y="9" width="2" height="1" fill="#5d5a57"/>
<rect x="4" y="9" width="2" height="1" fill="#5c5956"/>
<rect x="8" y="9" width="4" height="1" fill="#5c5855"/>
<rect x="24" y="8" width="2" height="3" fill="#585350"/>
<rect x="18" y="9" width="1" height="2" fill="#5b5754"/>
<rect x="26" y="10" width="1" height="1" fill="#5d5956"/>
<rect x="10" y="10" width="2" height="1" fill="#5c5855"/>
<rect x="16" y="10" width="1" height="1" fill="#5e5c59"/>
<rect x="20" y="10" width="1" height="1" fill="#56524f"/>
<rect x="27" y="10" width="1" height="1" fill="#5e5b57"/>
<rect x="5" y="10" width="1" height="1" fill="#5e5c59"/>
<rect x="0" y="10" width="1" height="1" fill="#605d5a"/>
<rect x="28" y="10" width="2" height="1" fill="#5b5754"/>
<rect x="4" y="10" width="1" height="1" fill="#5d5a57"/>
<rect x="13" y="10" width="3" height="1" fill="#5e5b57"/>
<rect x="8" y="10" width="2" height="1" fill="#5d5956"/>
<rect x="3" y="10" width="1" height="1" fill="#5c5956"/>
<rect x="1" y="10" width="1" height="1" fill="#55504d"/>
<rect x="6" y="10" width="2" height="1" fill="#5e5b57"/>
<rect x="12" y="10" width="1" height="1" fill="#5c5956"/>
<rect x="19" y="10" width="1" height="1" fill="#5a5552"/>
<rect x="31" y="10" width="1" height="2" fill="#56514e"/>
<rect x="2" y="10" width="1" height="2" fill="#5a5754"/>
<rect x="3" y="11" width="1" height="1" fill="#5c5855"/>
<rect x="24" y="11" width="1" height="1" fill="#57524f"/>
<rect x="1" y="11" width="1" height="1" fill="#54504e"/>
<rect x="25" y="11" width="1" height="1" fill="#585350"/>
<rect x="28" y="11" width="2" height="1" fill="#5c5855"/>
<rect x="13" y="11" width="1" height="1" fill="#5d5855"/>
<rect x="10" y="11" width="3" height="1" fill="#5d5956"/>
<rect x="26" y="11" width="2" height="1" fill="#5e5b57"/>
<rect x="8" y="11" width="2" height="1" fill="#5e5b57"/>
<rect x="4" y="11" width="2" height="1" fill="#5d5a57"/>
<rect x="17" y="9" width="1" height="4" fill="#5d5a57"/>
<rect x="21" y="10" width="1" height="3" fill="#56514e"/>
<rect x="16" y="11" width="1" height="2" fill="#5e5b57"/>
<rect x="14" y="11" width="1" height="2" fill="#5c5956"/>
<rect x="20" y="11" width="1" height="2" fill="#57524f"/>
<rect x="0" y="11" width="1" height="2" fill="#62605d"/>
<rect x="18" y="11" width="1" height="2" fill="#5d5956"/>
<rect x="23" y="11" width="1" height="2" fill="#524e4d"/>
<rect x="19" y="11" width="1" height="2" fill="#5b5754"/>
<rect x="15" y="11" width="1" height="2" fill="#5d5956"/>
<rect x="22" y="11" width="1" height="2" fill="#504d4b"/>
<rect x="6" y="11" width="2" height="2" fill="#5e5c59"/>
<rect x="24" y="12" width="1" height="1" fill="#585350"/>
<rect x="25" y="12" width="1" height="1" fill="#595451"/>
<rect x="5" y="12" width="1" height="1" fill="#5a5754"/>
<rect x="27" y="12" width="1" height="1" fill="#5d5956"/>
<rect x="26" y="12" width="1" height="1" fill="#5c5956"/>
<rect x="9" y="12" width="1" height="1" fill="#5e5c59"/>
<rect x="8" y="12" width="1" height="1" fill="#605d5a"/>
<rect x="12" y="12" width="2" height="1" fill="#5c5855"/>
<rect x="11" y="12" width="1" height="2" fill="#5d5956"/>
<rect x="31" y="12" width="1" height="2" fill="#54514e"/>
<rect x="3" y="12" width="2" height="2" fill="#595552"/>
<rect x="28" y="12" width="2" height="2" fill="#5a5754"/>
<rect x="10" y="12" width="1" height="2" fill="#5d5a57"/>
<rect x="8" y="13" width="1" height="1" fill="#5e5c59"/>
<rect x="0" y="13" width="1" height="1" fill="#605d5a"/>
<rect x="16" y="13" width="1" height="1" fill="#5a5552"/>
<rect x="14" y="13" width="1" height="1" fill="#5b5754"/>
<rect x="15" y="13" width="1" height="1" fill="#5b5653"/>
<rect x="5" y="13" width="1" height="1" fill="#5a5653"/>
<rect x="26" y="13" width="2" height="1" fill="#5c5855"/>
<rect x="6" y="13" width="2" height="1" fill="#5d5a57"/>
<rect x="9" y="13" width="1" height="1" fill="#5e5b57"/>
<rect x="25" y="13" width="1" height="1" fill="#595552"/>
<rect x="30" y="10" width="1" height="5" fill="#575350"/>
<rect x="2" y="12" width="1" height="3" fill="#595451"/>
<rect x="21" y="13" width="1" height="2" fill="#54514e"/>
<rect x="19" y="13" width="1" height="2" fill="#595552"/>
<rect x="17" y="13" width="1" height="2" fill="#5b5653"/>
<rect x="20" y="13" width="1" height="2" fill="#56524f"/>
<rect x="12" y="13" width="1" height="2" fill="#5d5855"/>
<rect x="13" y="13" width="1" height="2" fill="#5c5855"/>
<rect x="18" y="13" width="1" height="2" fill="#5b5754"/>
<rect x="24" y="13" width="1" height="2" fill="#595451"/>
<rect x="4" y="14" width="1" height="1" fill="#5a5552"/>
<rect x="8" y="14" width="1" height="1" fill="#5c5956"/>
<rect x="31" y="14" width="1" height="1" fill="#524e4d"/>
<rect x="15" y="14" width="2" height="1" fill="#5a5552"/>
<rect x="26" y="14" width="4" height="1" fill="#5c5956"/>
<rect x="10" y="14" width="1" height="1" fill="#5e5b57"/>
<rect x="25" y="14" width="1" height="1" fill="#5a5552"/>
<rect x="0" y="14" width="1" height="1" fill="#5d5855"/>
<rect x="9" y="14" width="1" height="1" fill="#5d5956"/>
<rect x="11" y="14" width="1" height="1" fill="#5d5a57"/>
<rect x="14" y="14" width="1" height="1" fill="#5a5653"/>
<rect x="5" y="14" width="1" height="1" fill="#595451"/>
<rect x="1" y="12" width="1" height="4" fill="#544f4c"/>
<rect x="6" y="14" width="2" height="2" fill="#575350"/>
<rect x="3" y="14" width="1" height="2" fill="#5b5653"/>
<rect x="14" y="15" width="1" height="1" fill="#595552"/>
<rect x="19" y="15" width="1" height="1" fill="#57524f"/>
<rect x="13" y="15" width="1" height="1" fill="#5b5653"/>
<rect x="9" y="15" width="2" height="1" fill="#5c5855"/>
<rect x="8" y="15" width="1" height="1" fill="#5b5754"/>
<rect x="15" y="15" width="3" height="1" fill="#595451"/>
<rect x="0" y="15" width="1" height="1" fill="#5b5653"/>
<rect x="18" y="15" width="1" height="1" fill="#585350"/>
<rect x="4" y="15" width="2" height="1" fill="#595552"/>
<rect x="11" y="15" width="2" height="1" fill="#5b5754"/>
<rect x="2" y="15" width="1" height="1" fill="#585350"/>
<rect x="27" y="15" width="1" height="1" fill="#605d5a"/>
<rect x="26" y="15" width="1" height="1" fill="#5e5c59"/>
<rect x="22" y="15" width="1" height="2" fill="#544f4c"/>
<rect x="23" y="15" width="1" height="2" fill="#55504d"/>
<rect x="25" y="15" width="1" height="2" fill="#5b5653"/>
<rect x="30" y="15" width="1" height="2" fill="#56524f"/>
<rect x="24" y="15" width="1" height="2" fill="#5a5653"/>
<rect x="28" y="15" width="1" height="2" fill="#5d5a57"/>
<rect x="29" y="15" width="1" height="2" fill="#5c5956"/>
<rect x="2" y="16" width="1" height="1" fill="#5a5552"/>
<rect x="11" y="16" width="1" height="1" fill="#56514e"/>
<rect x="14" y="16" width="1" height="1" fill="#595451"/>
<rect x="17" y="16" width="1" height="1" fill="#585350"/>
<rect x="7" y="16" width="1" height="1" fill="#57524f"/>
<rect x="13" y="16" width="1" height="1" fill="#585350"/>
<rect x="12" y="16" width="1" height="1" fill="#57524f"/>
<rect x="20" y="16" width="1" height="1" fill="#504d4b"/>
<rect x="26" y="16" width="2" height="1" fill="#5e5c59"/>
<rect x="19" y="16" width="1" height="1" fill="#56514e"/>
<rect x="1" y="16" width="1" height="1" fill="#57524f"/>
<rect x="15" y="16" width="1" height="1" fill="#585350"/>
<rect x="16" y="16" width="1" height="1" fill="#595451"/>
<rect x="18" y="16" width="1" height="1" fill="#57524f"/>
<rect x="8" y="16" width="3" height="1" fill="#55504d"/>
<rect x="5" y="16" width="1" height="2" fill="#5b5754"/>
<rect x="6" y="16" width="1" height="2" fill="#585350"/>
<rect x="3" y="16" width="2" height="2" fill="#5c5855"/>
<rect x="24" y="17" width="2" height="1" fill="#605d5a"/>
<rect x="14" y="17" width="2" height="1" fill="#585350"/>
<rect x="1" y="17" width="2" height="1" fill="#5a5552"/>
<rect x="16" y="17" width="2" height="1" fill="#57524f"/>
<rect x="10" y="17" width="2" height="1" fill="#56514e"/>
<rect x="22" y="17" width="1" height="1" fill="#585350"/>
<rect x="7" y="17" width="1" height="1" fill="#56514e"/>
<rect x="12" y="17" width="2" height="1" fill="#57524f"/>
<rect x="23" y="17" width="1" height="1" fill="#595552"/>
<rect x="8" y="17" width="2" height="1" fill="#55504d"/>
<rect x="0" y="17" width="1" height="1" fill="#504d4b"/>
<rect x="18" y="17" width="2" height="1" fill="#55504d"/>
<rect x="26" y="17" width="2" height="1" fill="#62605d"/>
<rect x="21" y="17" width="1" height="1" fill="#55504d"/>
<rect x="31" y="15" width="1" height="4" fill="#504d4b"/>
<rect x="30" y="17" width="1" height="2" fill="#54504e"/>
<rect x="29" y="17" width="1" height="2" fill="#595552"/>
<rect x="28" y="17" width="1" height="2" fill="#5a5754"/>
<rect x="0" y="18" width="1" height="1" fill="#55504c"/>
<rect x="23" y="18" width="1" height="1" fill="#5a5653"/>
<rect x="20" y="18" width="1" height="1" fill="#55504c"/>
<rect x="1" y="18" width="1" height="1" fill="#5e5b57"/>
<rect x="22" y="18" width="1" height="1" fill="#5a5552"/>
<rect x="25" y="18" width="3" height="1" fill="#62605d"/>
<rect x="21" y="18" width="1" height="1" fill="#56514e"/>
<rect x="8" y="18" width="1" height="1" fill="#5a5552"/>
<rect x="24" y="18" width="1" height="1" fill="#605d5a"/>
<rect x="14" y="18" width="1" height="1" fill="#56514e"/>
<rect x="3" y="18" width="3" height="1" fill="#605d5a"/>
<rect x="6" y="18" width="2" height="1" fill="#5d5a57"/>
<rect x="15" y="18" width="1" height="1" fill="#56514d"/>
<rect x="16" y="18" width="2" height="1" fill="#544f4c"/>
<rect x="2" y="18" width="1" height="1" fill="#5c5855"/>
<rect x="9" y="18" width="1" height="2" fill="#595451"/>
<rect x="10" y="18" width="1" height="2" fill="#56514e"/>
<rect x="11" y="18" width="3" height="2" fill="#55504d"/>
<rect x="21" y="19" width="1" height="1" fill="#595451"/>
<rect x="1" y="19" width="1" height="1" fill="#605d5a"/>
<rect x="28" y="19" width="1" height="1" fill="#575350"/>
<rect x="20" y="19" width="1" height="1" fill="#575350"/>
<rect x="24" y="19" width="2" height="1" fill="#62605d"/>
<rect x="22" y="19" width="1" height="1" fill="#5c5855"/>
<rect x="14" y="19" width="2" height="1" fill="#56524f"/>
<rect x="26" y="19" width="2" height="1" fill="#605d5a"/>
<rect x="3" y="19" width="4" height="1" fill="#605d5a"/>
<rect x="29" y="19" width="1" height="1" fill="#56514e"/>
<rect x="16" y="19" width="1" height="1" fill="#56514e"/>
<rect x="17" y="19" width="2" height="1" fill="#55504d"/>
<rect x="2" y="19" width="1" height="1" fill="#5c5956"/>
<rect x="8" y="19" width="1" height="1" fill="#5a5653"/>
<rect x="23" y="19" width="1" height="1" fill="#5d5956"/>
<rect x="0" y="19" width="1" height="1" fill="#544f4c"/>
<rect x="19" y="19" width="1" height="1" fill="#56514e"/>
<rect x="30" y="19" width="1" height="2" fill="#544f4c"/>
<rect x="27" y="20" width="1" height="1" fill="#5d5a57"/>
<rect x="0" y="20" width="1" height="1" fill="#595552"/>
<rect x="10" y="20" width="2" height="1" fill="#5a5653"/>
<rect x="16" y="20" width="1" height="1" fill="#5a5552"/>
<rect x="23" y="20" width="3" height="1" fill="#62605d"/>
<rect x="29" y="20" width="1" height="1" fill="#55504c"/>
<rect x="1" y="20" width="4" height="1" fill="#62605d"/>
<rect x="22" y="20" width="1" height="1" fill="#605d5a"/>
<rect x="9" y="20" width="1" height="1" fill="#5a5754"/>
<rect x="26" y="20" width="1" height="1" fill="#5e5c59"/>
<rect x="7" y="19" width="1" height="3" fill="#5d5a57"/>
<rect x="28" y="20" width="1" height="2" fill="#56514e"/>
<rect x="8" y="20" width="1" height="2" fill="#5c5956"/>
<rect x="18" y="20" width="2" height="2" fill="#5d5855"/>
<rect x="17" y="20" width="1" height="2" fill="#5b5653"/>
<rect x="21" y="20" width="1" height="2" fill="#5e5b57"/>
<rect x="6" y="20" width="1" height="2" fill="#5e5c59"/>
<rect x="14" y="20" width="2" height="2" fill="#595552"/>
<rect x="20" y="20" width="1" height="2" fill="#5d5a57"/>
<rect x="31" y="20" width="1" height="2" fill="#55504d"/>
<rect x="12" y="20" width="2" height="2" fill="#5b5754"/>
<rect x="5" y="20" width="1" height="2" fill="#605d5a"/>
<rect x="26" y="21" width="1" height="1" fill="#5d5956"/>
<rect x="27" y="21" width="1" height="1" fill="#5c5855"/>
<rect x="11" y="21" width="1" height="1" fill="#5a5653"/>
<rect x="22" y="21" width="4" height="1" fill="#62605d"/>
<rect x="10" y="21" width="1" height="1" fill="#5a5754"/>
<rect x="0" y="21" width="1" height="1" fill="#5a5754"/>
<rect x="16" y="21" width="1" height="1" fill="#5a5653"/>
<rect x="29" y="21" width="2" height="1" fill="#544f4c"/>
<rect x="2" y="21" width="3" height="1" fill="#62605d"/>
<rect x="9" y="21" width="1" height="1" fill="#5c5855"/>
<rect x="16" y="22" width="1" height="1" fill="#5c5956"/>
<rect x="25" y="22" width="1" height="1" fill="#605d5a"/>
<rect x="2" y="22" width="2" height="1" fill="#605d5a"/>
<rect x="8" y="22" width="1" height="1" fill="#5a5754"/>
<rect x="17" y="22" width="1" height="1" fill="#5d5a57"/>
<rect x="5" y="22" width="1" height="1" fill="#5c5855"/>
<rect x="7" y="22" width="1" height="1" fill="#5a5653"/>
<rect x="30" y="22" width="1" height="1" fill="#55504c"/>
<rect x="0" y="22" width="1" height="1" fill="#62605d"/>
<rect x="13" y="22" width="3" height="1" fill="#5d5a57"/>
<rect x="27" y="22" width="1" height="1" fill="#56524f"/>
<rect x="4" y="22" width="1" height="1" fill="#5e5c59"/>
<rect x="6" y="22" width="1" height="1" fill="#5b5754"/>
<rect x="10" y="22" width="2" height="1" fill="#5a5754"/>
<rect x="20" y="22" width="5" height="1" fill="#62605d"/>
<rect x="28" y="22" width="1" height="1" fill="#544f4c"/>
<rect x="12" y="22" width="1" height="1" fill="#5c5956"/>
<rect x="9" y="22" width="1" height="1" fill="#5b5754"/>
<rect x="1" y="21" width="1" height="3" fill="#6b6966"/>
<rect x="26" y="22" width="1" height="2" fill="#575350"/>
<rect x="19" y="22" width="1" height="2" fill="#605d5a"/>
<rect x="31" y="22" width="1" height="2" fill="#56514e"/>
<rect x="18" y="22" width="1" height="2" fill="#5e5c59"/>
<rect x="6" y="23" width="1" height="1" fill="#5a5653"/>
<rect x="24" y="23" width="2" height="1" fill="#605d5a"/>
<rect x="30" y="23" width="1" height="1" fill="#54504e"/>
<rect x="20" y="23" width="4" height="1" fill="#62605d"/>
<rect x="9" y="23" width="2" height="1" fill="#5b5754"/>
<rect x="2" y="23" width="2" height="1" fill="#5d5a57"/>
<rect x="28" y="23" width="2" height="1" fill="#544f4c"/>
<rect x="27" y="23" width="1" height="1" fill="#56514e"/>
<rect x="4" y="23" width="1" height="1" fill="#5c5956"/>
<rect x="7" y="23" width="1" height="1" fill="#595552"/>
<rect x="16" y="23" width="2" height="1" fill="#5d5a57"/>
<rect x="0" y="23" width="1" height="1" fill="#5e5c59"/>
<rect x="8" y="23" width="1" height="1" fill="#5a5653"/>
<rect x="5" y="23" width="1" height="1" fill="#595552"/>
<rect x="11" y="23" width="1" height="1" fill="#5a5754"/>
<rect x="14" y="23" width="2" height="1" fill="#5e5c59"/>
<rect x="12" y="23" width="2" height="2" fill="#5c5956"/>
<rect x="24" y="24" width="1" height="1" fill="#5b5754"/>
<rect x="6" y="24" width="2" height="1" fill="#56514e"/>
<rect x="31" y="24" width="1" height="1" fill="#54514e"/>
<rect x="16" y="24" width="1" height="1" fill="#5e5b57"/>
<rect x="0" y="24" width="1" height="1" fill="#595451"/>
<rect x="8" y="24" width="1" height="1" fill="#585350"/>
<rect x="26" y="24" width="1" height="1" fill="#55504c"/>
<rect x="4" y="24" width="1" height="1" fill="#595451"/>
<rect x="11" y="24" width="1" height="1" fill="#5a5653"/>
<rect x="27" y="24" width="3" height="1" fill="#544f4c"/>
<rect x="2" y="24" width="1" height="1" fill="#595451"/>
<rect x="9" y="24" width="1" height="1" fill="#595451"/>
<rect x="3" y="24" width="1" height="1" fill="#595552"/>
<rect x="5" y="24" width="1" height="1" fill="#57524f"/>
<rect x="25" y="24" width="1" height="1" fill="#5a5653"/>
<rect x="20" y="24" width="2" height="2" fill="#605d5a"/>
<rect x="17" y="24" width="1" height="2" fill="#5d5a57"/>
<rect x="1" y="24" width="1" height="2" fill="#62605d"/>
<rect x="22" y="24" width="2" height="2" fill="#62605d"/>
<rect x="14" y="24" width="2" height="2" fill="#605d5a"/>
<rect x="18" y="24" width="2" height="2" fill="#5a5754"/>
<rect x="10" y="24" width="1" height="2" fill="#5a5552"/>
<rect x="16" y="25" width="1" height="1" fill="#5e5c59"/>
<rect x="29" y="25" width="1" height="1" fill="#544f4c"/>
<rect x="3" y="25" width="1" height="1" fill="#56514e"/>
<rect x="28" y="25" width="1" height="1" fill="#55504c"/>
<rect x="12" y="25" width="1" height="1" fill="#5c5855"/>
<rect x="27" y="25" width="1" height="1" fill="#544f4c"/>
<rect x="5" y="25" width="1" height="1" fill="#544f4c"/>
<rect x="31" y="25" width="1" height="1" fill="#54504e"/>
<rect x="8" y="25" width="1" height="1" fill="#56514e"/>
<rect x="13" y="25" width="1" height="1" fill="#5d5956"/>
<rect x="7" y="25" width="1" height="1" fill="#55504d"/>
<rect x="26" y="25" width="1" height="1" fill="#55504d"/>
<rect x="6" y="25" width="1" height="1" fill="#54504e"/>
<rect x="0" y="25" width="1" height="1" fill="#585350"/>
<rect x="25" y="25" width="1" height="1" fill="#5a5552"/>
<rect x="24" y="25" width="1" height="1" fill="#5b5653"/>
<rect x="11" y="25" width="1" height="1" fill="#5b5653"/>
<rect x="9" y="25" width="1" height="1" fill="#585350"/>
<rect x="2" y="25" width="1" height="2" fill="#55504c"/>
<rect x="9" y="26" width="1" height="1" fill="#56514e"/>
<rect x="22" y="26" width="1" height="1" fill="#5a5754"/>
<rect x="7" y="26" width="1" height="1" fill="#544f4c"/>
<rect x="23" y="26" width="1" height="1" fill="#5a5653"/>
<rect x="19" y="26" width="1" height="1" fill="#595552"/>
<rect x="14" y="26" width="2" height="1" fill="#5d5855"/>
<rect x="16" y="26" width="1" height="1" fill="#5d5956"/>
<rect x="13" y="26" width="1" height="1" fill="#5b5653"/>
<rect x="29" y="26" width="2" height="1" fill="#504d4b"/>
<rect x="21" y="26" width="1" height="1" fill="#5c5855"/>
<rect x="24" y="26" width="2" height="1" fill="#56514e"/>
<rect x="17" y="26" width="1" height="1" fill="#5d5855"/>
<rect x="12" y="26" width="1" height="1" fill="#5a5653"/>
<rect x="10" y="26" width="1" height="1" fill="#585350"/>
<rect x="0" y="26" width="1" height="1" fill="#56514d"/>
<rect x="11" y="26" width="1" height="1" fill="#595451"/>
<rect x="8" y="26" width="1" height="1" fill="#55504d"/>
<rect x="28" y="26" width="1" height="1" fill="#524e4d"/>
<rect x="18" y="26" width="1" height="1" fill="#5a5552"/>
<rect x="20" y="26" width="1" height="1" fill="#5d5956"/>
<rect x="4" y="25" width="1" height="3" fill="#55504d"/>
<rect x="1" y="26" width="1" height="2" fill="#605d5a"/>
<rect x="3" y="26" width="1" height="2" fill="#57524f"/>
<rect x="20" y="27" width="1" height="1" fill="#5c5855"/>
<rect x="26" y="27" width="1" height="1" fill="#544f4c"/>
<rect x="11" y="27" width="1" height="1" fill="#585350"/>
<rect x="18" y="27" width="2" height="1" fill="#5a5552"/>
<rect x="16" y="27" width="1" height="1" fill="#5d5855"/>
<rect x="8" y="27" width="1" height="1" fill="#544f4c"/>
<rect x="23" y="27" width="1" height="1" fill="#595451"/>
<rect x="9" y="27" width="1" height="1" fill="#55504d"/>
<rect x="17" y="27" width="1" height="1" fill="#5b5754"/>
<rect x="21" y="27" width="1" height="1" fill="#5b5754"/>
<rect x="22" y="27" width="1" height="1" fill="#595552"/>
<rect x="13" y="27" width="1" height="1" fill="#5a5552"/>
<rect x="24" y="27" width="2" height="1" fill="#55504d"/>
<rect x="12" y="27" width="1" height="1" fill="#595451"/>
<rect x="14" y="27" width="2" height="1" fill="#5b5653"/>
<rect x="2" y="27" width="1" height="1" fill="#56514d"/>
<rect x="10" y="27" width="1" height="1" fill="#57524f"/>
<rect x="31" y="26" width="1" height="3" fill="#524e4d"/>
<rect x="0" y="27" width="1" height="2" fill="#494847"/>
<rect x="28" y="27" width="3" height="2" fill="#504d4b"/>
<rect x="20" y="28" width="4" height="1" fill="#54504e"/>
<rect x="14" y="28" width="1" height="1" fill="#54504e"/>
<rect x="11" y="28" width="1" height="1" fill="#54504e"/>
<rect x="10" y="28" width="1" height="1" fill="#524e4d"/>
<rect x="13" y="28" width="1" height="1" fill="#56514e"/>
<rect x="17" y="28" width="1" height="1" fill="#56524f"/>
<rect x="16" y="28" width="1" height="1" fill="#56514e"/>
<rect x="19" y="28" width="1" height="1" fill="#524e4d"/>
<rect x="1" y="28" width="1" height="1" fill="#56524f"/>
<rect x="7" y="28" width="3" height="1" fill="#504d4b"/>
<rect x="3" y="28" width="2" height="1" fill="#55504d"/>
<rect x="12" y="28" width="1" height="1" fill="#54514e"/>
<rect x="24" y="28" width="4" height="1" fill="#524e4d"/>
<rect x="15" y="28" width="1" height="1" fill="#524e4d"/>
<rect x="5" y="28" width="1" height="2" fill="#54504e"/>
<rect x="6" y="29" width="1" height="1" fill="#524e4d"/>
<rect x="11" y="29" width="1" height="1" fill="#524e4d"/>
<rect x="14" y="29" width="2" height="1" fill="#4d4c4b"/>
<rect x="22" y="29" width="10" height="1" fill="#524e4d"/>
<rect x="0" y="29" width="1" height="1" fill="#a6a5a5"/>
<rect x="10" y="29" width="1" height="1" fill="#4d4c4b"/>
<rect x="18" y="29" width="2" height="1" fill="#4d4c4b"/>
<rect x="13" y="29" width="1" height="1" fill="#524e4d"/>
<rect x="20" y="29" width="2" height="1" fill="#504d4b"/>
<rect x="16" y="29" width="2" height="1" fill="#504d4b"/>
<rect x="8" y="29" width="2" height="1" fill="#494847"/>
<rect x="12" y="29" width="1" height="1" fill="#54504e"/>
<rect x="4" y="29" width="1" height="1" fill="#54514e"/>
<rect x="2" y="29" width="2" height="1" fill="#504d4b"/>
<rect x="1" y="29" width="1" height="1" fill="#62605d"/>
<rect x="7" y="29" width="1" height="1" fill="#4d4c4b"/>
<rect x="12" y="30" width="2" height="1" fill="#4d4c4b"/>
<rect x="14" y="30" width="2" height="1" fill="#6b6966"/>
<rect x="16" y="30" width="3" height="1" fill="#a6a5a5"/>
<rect x="22" y="30" width="1" height="1" fill="#4d4c4b"/>
<rect x="21" y="30" width="1" height="1" fill="#5e5c59"/>
<rect x="7" y="30" width="3" height="1" fill="#a6a5a5"/>
<rect x="0" y="30" width="3" height="1" fill="#a6a5a5"/>
<rect x="3" y="30" width="1" height="1" fill="#6b6966"/>
<rect x="10" y="30" width="1" height="1" fill="#6b6966"/>
<rect x="25" y="30" width="6" height="1" fill="#4d4c4b"/>
<rect x="23" y="30" width="2" height="1" fill="#494847"/>
<rect x="11" y="30" width="1" height="1" fill="#494847"/>
<rect x="19" y="30" width="1" height="1" fill="#6b6966"/>
<rect x="20" y="30" width="1" height="1" fill="#62605d"/>
<rect x="4" y="30" width="3" height="1" fill="#4d4c4b"/>
<rect x="31" y="30" width="1" height="1" fill="#504d4b"/>
<rect x="14" y="31" width="6" height="1" fill="#a6a5a5"/>
<rect x="22" y="31" width="9" height="1" fill="#494847"/>
<rect x="31" y="31" width="1" height="1" fill="#4d4c4b"/>
<rect x="11" y="31" width="3" height="1" fill="#494847"/>
<rect x="0" y="31" width="4" height="1" fill="#a6a5a5"/>
<rect x="7" y="31" width="4" height="1" fill="#a6a5a5"/>
<rect x="4" y="31" width="3" height="1" fill="#494847"/>
<rect x="20" y="31" width="2" height="1" fill="#6b6966"/>
</svg>