<?xml version="1.0" encoding="UTF-8"?>
<svg xmlns="http://www.w3.org/2000/svg" width="20mm" height="20mm" viewBox="0 0 32 32" shape-rendering="crispEdges">
<title>146 右侧面 structured semantic redraw</title>
<metadata>registered 32-unit semantic vector redraw; no embedded raster; physical-size=20mm</metadata>
<rect x="0" y="0" width="32" height="32" fill="#959696"/>
<rect x="27" y="0" width="2" height="1" fill="#c3cfcf"/>
<rect x="2" y="0" width="3" height="1" fill="#5b5b5b"/>
<rect x="14" y="0" width="1" height="1" fill="#919191"/>
<rect x="17" y="0" width="1" height="1" fill="#cecfcf"/>
<rect x="12" y="0" width="2" height="1" fill="#c3cfcf"/>
<rect x="6" y="0" width="1" height="1" fill="#7c7c7c"/>
<rect x="16" y="0" width="1" height="1" fill="#8b8c8c"/>
<rect x="1" y="0" width="1" height="1" fill="#646464"/>
<rect x="0" y="0" width="1" height="1" fill="#919191"/>
<rect x="10" y="0" width="1" height="1" fill="#606060"/>
<rect x="8" y="0" width="1" height="1" fill="#c3cfcf"/>
<rect x="9" y="0" width="1" height="1" fill="#8b8c8c"/>
<rect x="7" y="0" width="1" height="1" fill="#cecfcf"/>
<rect x="29" y="0" width="3" height="1" fill="#cecfcf"/>
<rect x="18" y="0" width="1" height="1" fill="#c3cfcf"/>
<rect x="21" y="0" width="5" height="1" fill="#c3cfcf"/>
<rect x="19" y="0" width="2" height="1" fill="#cecfcf"/>
<rect x="5" y="0" width="1" height="1" fill="#595959"/>
<rect x="11" y="0" width="1" height="2" fill="#6e6e6e"/>
<rect x="26" y="0" width="1" height="2" fill="#b8bfbf"/>
<rect x="15" y="0" width="1" height="2" fill="#707070"/>
<rect x="1" y="1" width="1" height="1" fill="#707070"/>
<rect x="2" y="1" width="1" height="1" fill="#595959"/>
<rect x="16" y="1" width="1" height="1" fill="#818181"/>
<rect x="6" y="1" width="1" height="1" fill="#696969"/>
<rect x="14" y="1" width="1" height="1" fill="#9e9f9f"/>
<rect x="27" y="1" width="5" height="1" fill="#cecfcf"/>
<rect x="3" y="1" width="3" height="1" fill="#5b5b5b"/>
<rect x="19" y="1" width="7" height="1" fill="#c3cfcf"/>
<rect x="7" y="1" width="2" height="1" fill="#cecfcf"/>
<rect x="13" y="1" width="1" height="1" fill="#c3cfcf"/>
<rect x="12" y="1" width="1" height="1" fill="#b8bfbf"/>
<rect x="9" y="1" width="1" height="1" fill="#9e9f9f"/>
<rect x="0" y="1" width="1" height="1" fill="#8b8c8c"/>
<rect x="10" y="1" width="1" height="1" fill="#707070"/>
<rect x="17" y="1" width="2" height="2" fill="#cecfcf"/>
<rect x="25" y="2" width="2" height="1" fill="#b8bfbf"/>
<rect x="5" y="2" width="1" height="1" fill="#5b5b5b"/>
<rect x="7" y="2" width="1" height="1" fill="#b8bfbf"/>
<rect x="6" y="2" width="1" height="1" fill="#606060"/>
<rect x="31" y="2" width="1" height="1" fill="#c3cfcf"/>
<rect x="15" y="2" width="1" height="1" fill="#676766"/>
<rect x="2" y="2" width="1" height="1" fill="#696969"/>
<rect x="13" y="2" width="2" height="1" fill="#878787"/>
<rect x="10" y="2" width="2" height="1" fill="#757575"/>
<rect x="27" y="2" width="4" height="1" fill="#cecfcf"/>
<rect x="3" y="2" width="1" height="1" fill="#646464"/>
<rect x="12" y="2" width="1" height="1" fill="#797979"/>
<rect x="16" y="2" width="1" height="1" fill="#797979"/>
<rect x="4" y="2" width="1" height="1" fill="#5d5d5d"/>
<rect x="8" y="2" width="1" height="2" fill="#cecfcf"/>
<rect x="9" y="2" width="1" height="2" fill="#b8bfbf"/>
<rect x="19" y="2" width="6" height="2" fill="#c3cfcf"/>
<rect x="3" y="3" width="1" height="1" fill="#717171"/>
<rect x="15" y="3" width="1" height="1" fill="#4a4a4a"/>
<rect x="5" y="3" width="2" height="1" fill="#5c5c5c"/>
<rect x="25" y="3" width="1" height="1" fill="#8b8c8c"/>
<rect x="14" y="3" width="1" height="1" fill="#696969"/>
<rect x="16" y="3" width="1" height="1" fill="#565656"/>
<rect x="7" y="3" width="1" height="1" fill="#9e9f9f"/>
<rect x="26" y="3" width="1" height="1" fill="#818181"/>
<rect x="4" y="3" width="1" height="1" fill="#676766"/>
<rect x="17" y="3" width="1" height="1" fill="#c3cfcf"/>
<rect x="10" y="3" width="1" height="1" fill="#787878"/>
<rect x="2" y="3" width="1" height="1" fill="#707070"/>
<rect x="0" y="2" width="2" height="3" fill="#757575"/>
<rect x="27" y="3" width="1" height="2" fill="#b8bfbf"/>
<rect x="31" y="3" width="1" height="2" fill="#b8bfbf"/>
<rect x="28" y="3" width="3" height="2" fill="#cecfcf"/>
<rect x="11" y="3" width="3" height="2" fill="#757575"/>
<rect x="10" y="4" width="1" height="1" fill="#7c7c7c"/>
<rect x="2" y="4" width="2" height="1" fill="#717171"/>
<rect x="15" y="4" width="2" height="1" fill="#4a4a4a"/>
<rect x="22" y="4" width="3" height="1" fill="#c3cfcf"/>
<rect x="14" y="4" width="1" height="1" fill="#6e6e6e"/>
<rect x="19" y="4" width="2" height="1" fill="#9e9f9f"/>
<rect x="5" y="4" width="1" height="1" fill="#5c5c5c"/>
<rect x="21" y="4" width="1" height="1" fill="#b8bfbf"/>
<rect x="9" y="4" width="1" height="1" fill="#8b8c8c"/>
<rect x="26" y="4" width="1" height="1" fill="#595959"/>
<rect x="7" y="4" width="1" height="1" fill="#646464"/>
<rect x="8" y="4" width="1" height="1" fill="#7c7c7c"/>
<rect x="25" y="4" width="1" height="2" fill="#878787"/>
<rect x="4" y="4" width="1" height="2" fill="#6d6d6c"/>
<rect x="17" y="4" width="1" height="2" fill="#b8bfbf"/>
<rect x="2" y="5" width="1" height="1" fill="#727272"/>
<rect x="11" y="5" width="1" height="1" fill="#787878"/>
<rect x="23" y="5" width="2" height="1" fill="#b8bfbf"/>
<rect x="14" y="5" width="1" height="1" fill="#717171"/>
<rect x="0" y="5" width="1" height="1" fill="#757575"/>
<rect x="31" y="5" width="1" height="1" fill="#727272"/>
<rect x="5" y="5" width="1" height="1" fill="#5d5d5d"/>
<rect x="12" y="5" width="2" height="1" fill="#757575"/>
<rect x="1" y="5" width="1" height="1" fill="#737373"/>
<rect x="20" y="5" width="1" height="1" fill="#878787"/>
<rect x="27" y="5" width="1" height="1" fill="#9e9f9f"/>
<rect x="26" y="5" width="1" height="1" fill="#5b5b5b"/>
<rect x="3" y="5" width="1" height="1" fill="#707070"/>
<rect x="18" y="3" width="1" height="4" fill="#cecfcf"/>
<rect x="15" y="5" width="1" height="2" fill="#4f4f4f"/>
<rect x="30" y="5" width="1" height="2" fill="#b8bfbf"/>
<rect x="8" y="5" width="1" height="2" fill="#6e6e6e"/>
<rect x="10" y="5" width="1" height="2" fill="#757575"/>
<rect x="29" y="5" width="1" height="2" fill="#c3cfcf"/>
<rect x="9" y="5" width="1" height="2" fill="#6d6d6c"/>
<rect x="28" y="5" width="1" height="2" fill="#cecfcf"/>
<rect x="7" y="5" width="1" height="2" fill="#606060"/>
<rect x="5" y="6" width="1" height="1" fill="#606060"/>
<rect x="1" y="6" width="3" height="1" fill="#717171"/>
<rect x="13" y="6" width="1" height="1" fill="#717171"/>
<rect x="14" y="6" width="1" height="1" fill="#707070"/>
<rect x="4" y="6" width="1" height="1" fill="#707070"/>
<rect x="11" y="6" width="1" height="1" fill="#797979"/>
<rect x="20" y="6" width="1" height="1" fill="#8b8c8c"/>
<rect x="12" y="6" width="1" height="1" fill="#777777"/>
<rect x="6" y="4" width="1" height="4" fill="#5b5b5b"/>
<rect x="19" y="5" width="1" height="3" fill="#9e9f9f"/>
<rect x="22" y="5" width="1" height="3" fill="#c3cfcf"/>
<rect x="21" y="5" width="1" height="3" fill="#9e9f9f"/>
<rect x="25" y="6" width="1" height="2" fill="#717171"/>
<rect x="24" y="6" width="1" height="2" fill="#878787"/>
<rect x="0" y="6" width="1" height="2" fill="#727272"/>
<rect x="23" y="6" width="1" height="2" fill="#b8bfbf"/>
<rect x="29" y="7" width="2" height="1" fill="#9e9f9f"/>
<rect x="15" y="7" width="1" height="1" fill="#535353"/>
<rect x="5" y="7" width="1" height="1" fill="#646464"/>
<rect x="8" y="7" width="1" height="1" fill="#676766"/>
<rect x="11" y="7" width="1" height="1" fill="#787878"/>
<rect x="13" y="7" width="2" height="1" fill="#727272"/>
<rect x="17" y="7" width="1" height="1" fill="#717171"/>
<rect x="7" y="7" width="1" height="1" fill="#5c5c5c"/>
<rect x="10" y="7" width="1" height="1" fill="#707070"/>
<rect x="28" y="7" width="1" height="1" fill="#797979"/>
<rect x="9" y="7" width="1" height="1" fill="#696969"/>
<rect x="1" y="7" width="4" height="1" fill="#717171"/>
<rect x="12" y="7" width="1" height="1" fill="#797979"/>
<rect x="16" y="5" width="1" height="4" fill="#484848"/>
<rect x="26" y="6" width="1" height="3" fill="#565656"/>
<rect x="27" y="7" width="1" height="2" fill="#676766"/>
<rect x="18" y="8" width="1" height="1" fill="#919191"/>
<rect x="17" y="8" width="1" height="1" fill="#676766"/>
<rect x="14" y="8" width="1" height="1" fill="#6d6d6c"/>
<rect x="13" y="8" width="1" height="1" fill="#646464"/>
<rect x="11" y="8" width="1" height="1" fill="#535353"/>
<rect x="24" y="8" width="1" height="1" fill="#818181"/>
<rect x="3" y="8" width="1" height="1" fill="#737373"/>
<rect x="12" y="8" width="1" height="1" fill="#5d5d5d"/>
<rect x="23" y="8" width="1" height="1" fill="#8b8c8c"/>
<rect x="10" y="8" width="1" height="1" fill="#5b5b5b"/>
<rect x="0" y="8" width="1" height="1" fill="#717171"/>
<rect x="25" y="8" width="1" height="1" fill="#727272"/>
<rect x="22" y="8" width="1" height="1" fill="#7c7c7c"/>
<rect x="30" y="8" width="1" height="1" fill="#878787"/>
<rect x="28" y="8" width="1" height="1" fill="#707070"/>
<rect x="4" y="8" width="1" height="1" fill="#727272"/>
<rect x="1" y="8" width="2" height="1" fill="#727272"/>
<rect x="29" y="8" width="1" height="1" fill="#8b8c8c"/>
<rect x="31" y="6" width="1" height="4" fill="#5c5c5c"/>
<rect x="8" y="8" width="1" height="2" fill="#606060"/>
<rect x="5" y="8" width="1" height="2" fill="#696969"/>
<rect x="20" y="8" width="1" height="2" fill="#9e9f9f"/>
<rect x="9" y="8" width="1" height="2" fill="#646464"/>
<rect x="6" y="8" width="2" height="2" fill="#5b5b5b"/>
<rect x="15" y="8" width="1" height="2" fill="#565656"/>
<rect x="27" y="9" width="1" height="1" fill="#646464"/>
<rect x="17" y="9" width="1" height="1" fill="#606060"/>
<rect x="26" y="9" width="1" height="1" fill="#5d5d5d"/>
<rect x="18" y="9" width="1" height="1" fill="#8b8c8c"/>
<rect x="0" y="9" width="2" height="1" fill="#727272"/>
<rect x="16" y="9" width="1" height="1" fill="#535353"/>
<rect x="4" y="9" width="1" height="1" fill="#646464"/>
<rect x="28" y="9" width="1" height="1" fill="#6d6d6c"/>
<rect x="23" y="9" width="1" height="1" fill="#707070"/>
<rect x="24" y="9" width="1" height="1" fill="#777777"/>
<rect x="22" y="9" width="1" height="1" fill="#6d6d6c"/>
<rect x="2" y="9" width="1" height="1" fill="#707070"/>
<rect x="14" y="9" width="1" height="1" fill="#4a4a4a"/>
<rect x="29" y="9" width="1" height="1" fill="#878787"/>
<rect x="10" y="9" width="1" height="1" fill="#5d5d5d"/>
<rect x="11" y="9" width="3" height="1" fill="#484848"/>
<rect x="3" y="9" width="1" height="1" fill="#606060"/>
<rect x="30" y="9" width="1" height="1" fill="#8b8c8c"/>
<rect x="25" y="9" width="1" height="2" fill="#707070"/>
<rect x="8" y="10" width="1" height="1" fill="#646464"/>
<rect x="28" y="10" width="1" height="1" fill="#5c5c5c"/>
<rect x="16" y="10" width="2" height="1" fill="#5d5d5d"/>
<rect x="18" y="10" width="1" height="1" fill="#646464"/>
<rect x="11" y="10" width="1" height="1" fill="#4a4a4a"/>
<rect x="10" y="10" width="1" height="1" fill="#646464"/>
<rect x="3" y="10" width="1" height="1" fill="#535353"/>
<rect x="29" y="10" width="1" height="1" fill="#535353"/>
<rect x="31" y="10" width="1" height="1" fill="#565656"/>
<rect x="9" y="10" width="1" height="1" fill="#6d6d6c"/>
<rect x="22" y="10" width="2" height="1" fill="#707070"/>
<rect x="0" y="10" width="3" height="1" fill="#717171"/>
<rect x="19" y="10" width="1" height="1" fill="#6e6e6e"/>
<rect x="6" y="10" width="1" height="1" fill="#565656"/>
<rect x="7" y="10" width="1" height="1" fill="#595959"/>
<rect x="30" y="10" width="1" height="1" fill="#646464"/>
<rect x="12" y="10" width="3" height="1" fill="#484848"/>
<rect x="20" y="10" width="2" height="1" fill="#919191"/>
<rect x="24" y="10" width="1" height="1" fill="#787878"/>
<rect x="15" y="10" width="1" height="2" fill="#4f4f4f"/>
<rect x="27" y="10" width="1" height="2" fill="#5d5d5d"/>
<rect x="26" y="10" width="1" height="2" fill="#606060"/>
<rect x="4" y="10" width="1" height="2" fill="#434343"/>
<rect x="5" y="10" width="1" height="2" fill="#484848"/>
<rect x="8" y="11" width="1" height="1" fill="#676766"/>
<rect x="23" y="11" width="1" height="1" fill="#818181"/>
<rect x="12" y="11" width="1" height="1" fill="#6e6e6e"/>
<rect x="30" y="11" width="1" height="1" fill="#434343"/>
<rect x="25" y="11" width="1" height="1" fill="#717171"/>
<rect x="19" y="11" width="1" height="1" fill="#646464"/>
<rect x="9" y="11" width="1" height="1" fill="#919191"/>
<rect x="29" y="11" width="1" height="1" fill="#4a4a4a"/>
<rect x="11" y="11" width="1" height="1" fill="#818181"/>
<rect x="10" y="11" width="1" height="1" fill="#8b8c8c"/>
<rect x="13" y="11" width="1" height="1" fill="#565656"/>
<rect x="0" y="11" width="1" height="1" fill="#717171"/>
<rect x="16" y="11" width="3" height="1" fill="#5d5d5d"/>
<rect x="24" y="11" width="1" height="1" fill="#757575"/>
<rect x="14" y="11" width="1" height="1" fill="#4a4a4a"/>
<rect x="22" y="11" width="1" height="1" fill="#878787"/>
<rect x="28" y="11" width="1" height="1" fill="#5b5b5b"/>
<rect x="6" y="11" width="1" height="1" fill="#535353"/>
<rect x="31" y="11" width="1" height="1" fill="#484848"/>
<rect x="1" y="11" width="2" height="1" fill="#727272"/>
<rect x="7" y="11" width="1" height="2" fill="#565656"/>
<rect x="3" y="11" width="1" height="2" fill="#5d5d5d"/>
<rect x="20" y="11" width="1" height="2" fill="#797979"/>
<rect x="21" y="11" width="1" height="2" fill="#7c7c7c"/>
<rect x="8" y="12" width="1" height="1" fill="#606060"/>
<rect x="10" y="12" width="1" height="1" fill="#919191"/>
<rect x="2" y="12" width="1" height="1" fill="#5c5c5c"/>
<rect x="24" y="12" width="1" height="1" fill="#727272"/>
<rect x="14" y="12" width="1" height="1" fill="#595959"/>
<rect x="4" y="12" width="1" height="1" fill="#484848"/>
<rect x="17" y="12" width="1" height="1" fill="#5b5b5b"/>
<rect x="23" y="12" width="1" height="1" fill="#878787"/>
<rect x="19" y="12" width="1" height="1" fill="#606060"/>
<rect x="0" y="12" width="1" height="1" fill="#696969"/>
<rect x="29" y="12" width="1" height="1" fill="#535353"/>
<rect x="5" y="12" width="1" height="1" fill="#434343"/>
<rect x="26" y="12" width="2" height="1" fill="#696969"/>
<rect x="1" y="12" width="1" height="1" fill="#565656"/>
<rect x="31" y="12" width="1" height="1" fill="#4a4a4a"/>
<rect x="28" y="12" width="1" height="1" fill="#646464"/>
<rect x="30" y="12" width="1" height="1" fill="#484848"/>
<rect x="18" y="12" width="1" height="1" fill="#5d5d5d"/>
<rect x="13" y="12" width="1" height="1" fill="#818181"/>
<rect x="6" y="12" width="1" height="1" fill="#4f4f4f"/>
<rect x="15" y="12" width="1" height="1" fill="#565656"/>
<rect x="22" y="12" width="1" height="1" fill="#8b8c8c"/>
<rect x="16" y="12" width="1" height="1" fill="#595959"/>
<rect x="25" y="12" width="1" height="2" fill="#707070"/>
<rect x="9" y="12" width="1" height="2" fill="#8b8c8c"/>
<rect x="29" y="13" width="1" height="1" fill="#717171"/>
<rect x="7" y="13" width="1" height="1" fill="#787878"/>
<rect x="28" y="13" width="1" height="1" fill="#727272"/>
<rect x="23" y="13" width="1" height="1" fill="#818181"/>
<rect x="13" y="13" width="1" height="1" fill="#878787"/>
<rect x="24" y="13" width="1" height="1" fill="#737373"/>
<rect x="21" y="13" width="1" height="1" fill="#696969"/>
<rect x="4" y="13" width="2" height="1" fill="#565656"/>
<rect x="0" y="13" width="1" height="1" fill="#6d6d6c"/>
<rect x="6" y="13" width="1" height="1" fill="#696969"/>
<rect x="10" y="13" width="2" height="1" fill="#919191"/>
<rect x="31" y="13" width="1" height="1" fill="#535353"/>
<rect x="22" y="13" width="1" height="1" fill="#7c7c7c"/>
<rect x="20" y="13" width="1" height="1" fill="#606060"/>
<rect x="1" y="13" width="1" height="1" fill="#4f4f4f"/>
<rect x="26" y="13" width="1" height="1" fill="#696969"/>
<rect x="30" y="13" width="1" height="1" fill="#696969"/>
<rect x="18" y="13" width="1" height="1" fill="#5c5c5c"/>
<rect x="8" y="13" width="1" height="1" fill="#6d6d6c"/>
<rect x="27" y="13" width="1" height="1" fill="#6d6d6c"/>
<rect x="14" y="13" width="2" height="1" fill="#5b5b5b"/>
<rect x="2" y="13" width="2" height="2" fill="#434343"/>
<rect x="16" y="13" width="2" height="2" fill="#565656"/>
<rect x="19" y="13" width="1" height="2" fill="#5d5d5d"/>
<rect x="7" y="14" width="2" height="1" fill="#9e9f9f"/>
<rect x="24" y="14" width="2" height="1" fill="#757575"/>
<rect x="31" y="14" width="1" height="1" fill="#595959"/>
<rect x="30" y="14" width="1" height="1" fill="#6e6e6e"/>
<rect x="1" y="14" width="1" height="1" fill="#595959"/>
<rect x="6" y="14" width="1" height="1" fill="#6d6d6c"/>
<rect x="12" y="14" width="2" height="1" fill="#818181"/>
<rect x="5" y="14" width="1" height="1" fill="#5b5b5b"/>
<rect x="26" y="14" width="2" height="1" fill="#6d6d6c"/>
<rect x="29" y="14" width="1" height="1" fill="#727272"/>
<rect x="22" y="14" width="1" height="1" fill="#4a4a4a"/>
<rect x="18" y="14" width="1" height="1" fill="#5b5b5b"/>
<rect x="0" y="14" width="1" height="1" fill="#707070"/>
<rect x="20" y="14" width="2" height="1" fill="#535353"/>
<rect x="15" y="14" width="1" height="1" fill="#5b5b5b"/>
<rect x="14" y="14" width="1" height="1" fill="#5d5d5d"/>
<rect x="28" y="14" width="1" height="1" fill="#717171"/>
<rect x="4" y="14" width="1" height="1" fill="#565656"/>
<rect x="23" y="14" width="1" height="1" fill="#4f4f4f"/>
<rect x="11" y="14" width="1" height="2" fill="#8b8c8c"/>
<rect x="20" y="15" width="1" height="1" fill="#565656"/>
<rect x="31" y="15" width="1" height="1" fill="#676766"/>
<rect x="25" y="15" width="1" height="1" fill="#777777"/>
<rect x="2" y="15" width="2" height="1" fill="#484848"/>
<rect x="28" y="15" width="1" height="1" fill="#4f4f4f"/>
<rect x="18" y="15" width="1" height="1" fill="#6d6d6c"/>
<rect x="24" y="15" width="1" height="1" fill="#737373"/>
<rect x="1" y="15" width="1" height="1" fill="#696969"/>
<rect x="14" y="15" width="1" height="1" fill="#676766"/>
<rect x="6" y="15" width="1" height="1" fill="#646464"/>
<rect x="17" y="15" width="1" height="1" fill="#787878"/>
<rect x="19" y="15" width="1" height="1" fill="#646464"/>
<rect x="0" y="15" width="1" height="1" fill="#757575"/>
<rect x="5" y="15" width="1" height="1" fill="#5d5d5d"/>
<rect x="21" y="15" width="1" height="1" fill="#535353"/>
<rect x="8" y="15" width="1" height="1" fill="#9e9f9f"/>
<rect x="30" y="15" width="1" height="1" fill="#6d6d6c"/>
<rect x="12" y="15" width="2" height="1" fill="#717171"/>
<rect x="16" y="15" width="1" height="1" fill="#7c7c7c"/>
<rect x="22" y="15" width="2" height="1" fill="#4a4a4a"/>
<rect x="29" y="15" width="1" height="1" fill="#646464"/>
<rect x="4" y="15" width="1" height="1" fill="#535353"/>
<rect x="27" y="15" width="1" height="2" fill="#646464"/>
<rect x="26" y="15" width="1" height="2" fill="#727272"/>
<rect x="15" y="15" width="1" height="2" fill="#646464"/>
<rect x="1" y="16" width="1" height="1" fill="#757575"/>
<rect x="5" y="16" width="1" height="1" fill="#8b8c8c"/>
<rect x="21" y="16" width="1" height="1" fill="#696969"/>
<rect x="25" y="16" width="1" height="1" fill="#757575"/>
<rect x="14" y="16" width="1" height="1" fill="#696969"/>
<rect x="28" y="16" width="1" height="1" fill="#484848"/>
<rect x="10" y="16" width="2" height="1" fill="#919191"/>
<rect x="7" y="16" width="1" height="1" fill="#919191"/>
<rect x="24" y="16" width="1" height="1" fill="#6d6d6c"/>
<rect x="13" y="16" width="1" height="1" fill="#727272"/>
<rect x="2" y="16" width="1" height="1" fill="#606060"/>
<rect x="4" y="16" width="1" height="1" fill="#6e6e6e"/>
<rect x="30" y="16" width="1" height="1" fill="#696969"/>
<rect x="22" y="16" width="1" height="1" fill="#595959"/>
<rect x="29" y="16" width="1" height="1" fill="#595959"/>
<rect x="16" y="16" width="1" height="1" fill="#878787"/>
<rect x="6" y="16" width="1" height="1" fill="#818181"/>
<rect x="12" y="16" width="1" height="1" fill="#757575"/>
<rect x="23" y="16" width="1" height="1" fill="#4f4f4f"/>
<rect x="20" y="16" width="1" height="1" fill="#787878"/>
<rect x="18" y="16" width="1" height="2" fill="#919191"/>
<rect x="3" y="16" width="1" height="2" fill="#5b5b5b"/>
<rect x="0" y="16" width="1" height="2" fill="#777777"/>
<rect x="19" y="16" width="1" height="2" fill="#8b8c8c"/>
<rect x="31" y="16" width="1" height="2" fill="#9e9f9f"/>
<rect x="12" y="17" width="2" height="1" fill="#5d5d5d"/>
<rect x="21" y="17" width="1" height="1" fill="#717171"/>
<rect x="14" y="17" width="1" height="1" fill="#707070"/>
<rect x="9" y="17" width="1" height="1" fill="#919191"/>
<rect x="1" y="17" width="1" height="1" fill="#787878"/>
<rect x="20" y="17" width="1" height="1" fill="#7c7c7c"/>
<rect x="4" y="17" width="1" height="1" fill="#696969"/>
<rect x="11" y="17" width="1" height="1" fill="#7c7c7c"/>
<rect x="2" y="17" width="1" height="1" fill="#646464"/>
<rect x="30" y="17" width="1" height="1" fill="#6d6d6c"/>
<rect x="5" y="17" width="1" height="1" fill="#919191"/>
<rect x="24" y="17" width="4" height="1" fill="#535353"/>
<rect x="15" y="17" width="1" height="1" fill="#6e6e6e"/>
<rect x="22" y="17" width="1" height="1" fill="#646464"/>
<rect x="29" y="17" width="1" height="1" fill="#646464"/>
<rect x="28" y="17" width="1" height="2" fill="#434343"/>
<rect x="10" y="17" width="1" height="2" fill="#797979"/>
<rect x="16" y="17" width="1" height="2" fill="#818181"/>
<rect x="23" y="17" width="1" height="2" fill="#5d5d5d"/>
<rect x="1" y="18" width="1" height="1" fill="#6d6d6c"/>
<rect x="5" y="18" width="1" height="1" fill="#8b8c8c"/>
<rect x="24" y="18" width="1" height="1" fill="#535353"/>
<rect x="26" y="18" width="1" height="1" fill="#4a4a4a"/>
<rect x="12" y="18" width="1" height="1" fill="#565656"/>
<rect x="3" y="18" width="2" height="1" fill="#646464"/>
<rect x="0" y="18" width="1" height="1" fill="#676766"/>
<rect x="21" y="18" width="1" height="1" fill="#737373"/>
<rect x="20" y="18" width="1" height="1" fill="#878787"/>
<rect x="25" y="18" width="1" height="1" fill="#4f4f4f"/>
<rect x="14" y="18" width="1" height="1" fill="#727272"/>
<rect x="22" y="18" width="1" height="1" fill="#696969"/>
<rect x="2" y="18" width="1" height="1" fill="#6e6e6e"/>
<rect x="27" y="18" width="1" height="1" fill="#484848"/>
<rect x="18" y="18" width="1" height="1" fill="#818181"/>
<rect x="17" y="18" width="1" height="1" fill="#6d6d6c"/>
<rect x="13" y="18" width="1" height="2" fill="#484848"/>
<rect x="30" y="18" width="1" height="2" fill="#9e9f9f"/>
<rect x="11" y="18" width="1" height="2" fill="#777777"/>
<rect x="29" y="18" width="1" height="2" fill="#878787"/>
<rect x="19" y="19" width="1" height="1" fill="#9e9f9f"/>
<rect x="17" y="19" width="1" height="1" fill="#646464"/>
<rect x="10" y="19" width="1" height="1" fill="#7c7c7c"/>
<rect x="14" y="19" width="1" height="1" fill="#696969"/>
<rect x="4" y="19" width="1" height="1" fill="#878787"/>
<rect x="12" y="19" width="1" height="1" fill="#5d5d5d"/>
<rect x="0" y="19" width="1" height="1" fill="#606060"/>
<rect x="28" y="19" width="1" height="1" fill="#484848"/>
<rect x="2" y="19" width="1" height="1" fill="#6d6d6c"/>
<rect x="7" y="19" width="1" height="1" fill="#7c7c7c"/>
<rect x="5" y="19" width="2" height="1" fill="#797979"/>
<rect x="21" y="19" width="2" height="1" fill="#7c7c7c"/>
<rect x="25" y="19" width="1" height="1" fill="#565656"/>
<rect x="9" y="19" width="1" height="1" fill="#8b8c8c"/>
<rect x="18" y="19" width="1" height="1" fill="#737373"/>
<rect x="23" y="19" width="1" height="1" fill="#787878"/>
<rect x="24" y="19" width="1" height="1" fill="#606060"/>
<rect x="16" y="19" width="1" height="1" fill="#878787"/>
<rect x="8" y="19" width="1" height="1" fill="#878787"/>
<rect x="3" y="19" width="1" height="1" fill="#8b8c8c"/>
<rect x="26" y="19" width="2" height="1" fill="#4f4f4f"/>
<rect x="20" y="19" width="1" height="2" fill="#919191"/>
<rect x="16" y="20" width="1" height="1" fill="#8b8c8c"/>
<rect x="21" y="20" width="3" height="1" fill="#7c7c7c"/>
<rect x="17" y="20" width="1" height="1" fill="#696969"/>
<rect x="27" y="20" width="1" height="1" fill="#707070"/>
<rect x="6" y="20" width="1" height="1" fill="#6d6d6c"/>
<rect x="11" y="20" width="1" height="1" fill="#727272"/>
<rect x="25" y="20" width="2" height="1" fill="#5c5c5c"/>
<rect x="8" y="20" width="3" height="1" fill="#717171"/>
<rect x="29" y="20" width="3" height="1" fill="#818181"/>
<rect x="0" y="20" width="1" height="1" fill="#696969"/>
<rect x="18" y="20" width="1" height="1" fill="#717171"/>
<rect x="4" y="20" width="1" height="1" fill="#8b8c8c"/>
<rect x="2" y="20" width="1" height="1" fill="#646464"/>
<rect x="13" y="20" width="1" height="1" fill="#434343"/>
<rect x="3" y="20" width="1" height="1" fill="#878787"/>
<rect x="14" y="20" width="1" height="1" fill="#5c5c5c"/>
<rect x="5" y="20" width="1" height="1" fill="#7c7c7c"/>
<rect x="12" y="20" width="1" height="1" fill="#606060"/>
<rect x="1" y="19" width="1" height="3" fill="#565656"/>
<rect x="7" y="20" width="1" height="2" fill="#6e6e6e"/>
<rect x="28" y="20" width="1" height="2" fill="#9e9f9f"/>
<rect x="24" y="20" width="1" height="2" fill="#676766"/>
<rect x="18" y="21" width="1" height="1" fill="#7c7c7c"/>
<rect x="21" y="21" width="1" height="1" fill="#757575"/>
<rect x="2" y="21" width="1" height="1" fill="#5c5c5c"/>
<rect x="9" y="21" width="3" height="1" fill="#727272"/>
<rect x="22" y="21" width="1" height="1" fill="#787878"/>
<rect x="25" y="21" width="1" height="1" fill="#595959"/>
<rect x="8" y="21" width="1" height="1" fill="#717171"/>
<rect x="23" y="21" width="1" height="1" fill="#7c7c7c"/>
<rect x="26" y="21" width="1" height="1" fill="#5c5c5c"/>
<rect x="27" y="21" width="1" height="1" fill="#6e6e6e"/>
<rect x="4" y="21" width="1" height="1" fill="#878787"/>
<rect x="19" y="21" width="1" height="1" fill="#757575"/>
<rect x="0" y="21" width="1" height="1" fill="#676766"/>
<rect x="6" y="21" width="1" height="1" fill="#707070"/>
<rect x="29" y="21" width="1" height="1" fill="#818181"/>
<rect x="31" y="21" width="1" height="1" fill="#737373"/>
<rect x="5" y="21" width="1" height="1" fill="#818181"/>
<rect x="17" y="21" width="1" height="1" fill="#818181"/>
<rect x="16" y="21" width="1" height="1" fill="#919191"/>
<rect x="3" y="21" width="1" height="1" fill="#777777"/>
<rect x="14" y="21" width="1" height="1" fill="#535353"/>
<rect x="30" y="21" width="1" height="1" fill="#717171"/>
<rect x="12" y="21" width="1" height="1" fill="#646464"/>
<rect x="20" y="21" width="1" height="1" fill="#787878"/>
<rect x="13" y="21" width="1" height="2" fill="#484848"/>
<rect x="31" y="22" width="1" height="1" fill="#757575"/>
<rect x="5" y="22" width="1" height="1" fill="#646464"/>
<rect x="3" y="22" width="1" height="1" fill="#5b5b5b"/>
<rect x="24" y="22" width="1" height="1" fill="#5d5d5d"/>
<rect x="21" y="22" width="1" height="1" fill="#717171"/>
<rect x="22" y="22" width="1" height="1" fill="#737373"/>
<rect x="6" y="22" width="2" height="1" fill="#818181"/>
<rect x="1" y="22" width="1" height="1" fill="#5b5b5b"/>
<rect x="19" y="22" width="2" height="1" fill="#727272"/>
<rect x="0" y="22" width="1" height="1" fill="#595959"/>
<rect x="17" y="22" width="2" height="1" fill="#818181"/>
<rect x="23" y="22" width="1" height="1" fill="#777777"/>
<rect x="26" y="22" width="1" height="1" fill="#5b5b5b"/>
<rect x="10" y="22" width="1" height="1" fill="#707070"/>
<rect x="2" y="22" width="1" height="1" fill="#595959"/>
<rect x="15" y="22" width="1" height="1" fill="#8b8c8c"/>
<rect x="11" y="22" width="1" height="1" fill="#6d6d6c"/>
<rect x="29" y="22" width="1" height="1" fill="#7c7c7c"/>
<rect x="9" y="22" width="1" height="1" fill="#717171"/>
<rect x="30" y="22" width="1" height="1" fill="#797979"/>
<rect x="14" y="22" width="1" height="1" fill="#4f4f4f"/>
<rect x="28" y="22" width="1" height="1" fill="#6e6e6e"/>
<rect x="12" y="22" width="1" height="1" fill="#696969"/>
<rect x="8" y="22" width="1" height="1" fill="#777777"/>
<rect x="4" y="22" width="1" height="1" fill="#5c5c5c"/>
<rect x="25" y="22" width="1" height="2" fill="#484848"/>
<rect x="27" y="22" width="1" height="2" fill="#5d5d5d"/>
<rect x="9" y="23" width="2" height="1" fill="#707070"/>
<rect x="1" y="23" width="1" height="1" fill="#606060"/>
<rect x="16" y="23" width="1" height="1" fill="#787878"/>
<rect x="30" y="23" width="1" height="1" fill="#818181"/>
<rect x="5" y="23" width="1" height="1" fill="#5d5d5d"/>
<rect x="21" y="23" width="1" height="1" fill="#727272"/>
<rect x="3" y="23" width="2" height="1" fill="#5b5b5b"/>
<rect x="7" y="23" width="1" height="1" fill="#878787"/>
<rect x="20" y="23" width="1" height="1" fill="#757575"/>
<rect x="31" y="23" width="1" height="1" fill="#777777"/>
<rect x="13" y="23" width="1" height="1" fill="#4a4a4a"/>
<rect x="24" y="23" width="1" height="1" fill="#606060"/>
<rect x="26" y="23" width="1" height="1" fill="#595959"/>
<rect x="15" y="23" width="1" height="1" fill="#6e6e6e"/>
<rect x="11" y="23" width="1" height="1" fill="#676766"/>
<rect x="28" y="23" width="1" height="1" fill="#5b5b5b"/>
<rect x="29" y="23" width="1" height="1" fill="#777777"/>
<rect x="23" y="23" width="1" height="1" fill="#727272"/>
<rect x="6" y="23" width="1" height="1" fill="#818181"/>
<rect x="18" y="23" width="2" height="1" fill="#787878"/>
<rect x="12" y="23" width="1" height="1" fill="#646464"/>
<rect x="0" y="23" width="1" height="1" fill="#4f4f4f"/>
<rect x="22" y="23" width="1" height="1" fill="#717171"/>
<rect x="17" y="23" width="1" height="1" fill="#777777"/>
<rect x="2" y="23" width="1" height="1" fill="#565656"/>
<rect x="8" y="23" width="1" height="2" fill="#7c7c7c"/>
<rect x="28" y="24" width="1" height="1" fill="#5c5c5c"/>
<rect x="17" y="24" width="2" height="1" fill="#737373"/>
<rect x="5" y="24" width="1" height="1" fill="#707070"/>
<rect x="24" y="24" width="1" height="1" fill="#4f4f4f"/>
<rect x="9" y="24" width="2" height="1" fill="#6e6e6e"/>
<rect x="7" y="24" width="1" height="1" fill="#818181"/>
<rect x="31" y="24" width="1" height="1" fill="#6e6e6e"/>
<rect x="11" y="24" width="2" height="1" fill="#676766"/>
<rect x="0" y="24" width="1" height="1" fill="#595959"/>
<rect x="26" y="24" width="2" height="1" fill="#797979"/>
<rect x="16" y="24" width="1" height="1" fill="#727272"/>
<rect x="15" y="24" width="1" height="1" fill="#676766"/>
<rect x="2" y="24" width="1" height="1" fill="#797979"/>
<rect x="21" y="24" width="1" height="1" fill="#737373"/>
<rect x="19" y="24" width="2" height="1" fill="#7c7c7c"/>
<rect x="25" y="24" width="1" height="1" fill="#535353"/>
<rect x="13" y="24" width="1" height="1" fill="#4f4f4f"/>
<rect x="29" y="24" width="1" height="1" fill="#6d6d6c"/>
<rect x="3" y="24" width="1" height="1" fill="#777777"/>
<rect x="6" y="24" width="1" height="1" fill="#727272"/>
<rect x="30" y="24" width="1" height="1" fill="#757575"/>
<rect x="4" y="24" width="1" height="1" fill="#737373"/>
<rect x="23" y="24" width="1" height="1" fill="#4a4a4a"/>
<rect x="14" y="23" width="1" height="3" fill="#484848"/>
<rect x="22" y="24" width="1" height="2" fill="#6d6d6c"/>
<rect x="1" y="24" width="1" height="2" fill="#7c7c7c"/>
<rect x="8" y="25" width="2" height="1" fill="#4a4a4a"/>
<rect x="17" y="25" width="1" height="1" fill="#707070"/>
<rect x="19" y="25" width="1" height="1" fill="#757575"/>
<rect x="23" y="25" width="2" height="1" fill="#4a4a4a"/>
<rect x="26" y="25" width="1" height="1" fill="#818181"/>
<rect x="21" y="25" width="1" height="1" fill="#727272"/>
<rect x="25" y="25" width="1" height="1" fill="#565656"/>
<rect x="7" y="25" width="1" height="1" fill="#484848"/>
<rect x="31" y="25" width="1" height="1" fill="#4a4a4a"/>
<rect x="6" y="25" width="1" height="1" fill="#787878"/>
<rect x="20" y="25" width="1" height="1" fill="#797979"/>
<rect x="28" y="25" width="2" height="1" fill="#5c5c5c"/>
<rect x="13" y="25" width="1" height="1" fill="#4a4a4a"/>
<rect x="15" y="25" width="1" height="1" fill="#5b5b5b"/>
<rect x="18" y="25" width="1" height="1" fill="#737373"/>
<rect x="16" y="25" width="1" height="1" fill="#6d6d6c"/>
<rect x="10" y="25" width="3" height="1" fill="#4f4f4f"/>
<rect x="0" y="25" width="1" height="1" fill="#535353"/>
<rect x="27" y="25" width="1" height="1" fill="#878787"/>
<rect x="30" y="25" width="1" height="2" fill="#595959"/>
<rect x="15" y="26" width="1" height="1" fill="#535353"/>
<rect x="17" y="26" width="1" height="1" fill="#696969"/>
<rect x="8" y="26" width="7" height="1" fill="#484848"/>
<rect x="1" y="26" width="1" height="1" fill="#676766"/>
<rect x="26" y="26" width="2" height="1" fill="#7c7c7c"/>
<rect x="6" y="26" width="1" height="1" fill="#878787"/>
<rect x="20" y="26" width="3" height="1" fill="#4f4f4f"/>
<rect x="7" y="26" width="1" height="1" fill="#4a4a4a"/>
<rect x="29" y="26" width="1" height="1" fill="#5d5d5d"/>
<rect x="25" y="26" width="1" height="1" fill="#787878"/>
<rect x="23" y="26" width="2" height="1" fill="#818181"/>
<rect x="28" y="26" width="1" height="1" fill="#646464"/>
<rect x="31" y="26" width="1" height="1" fill="#4f4f4f"/>
<rect x="18" y="26" width="1" height="1" fill="#727272"/>
<rect x="19" y="26" width="1" height="1" fill="#5d5d5d"/>
<rect x="2" y="26" width="1" height="2" fill="#919191"/>
<rect x="0" y="26" width="1" height="2" fill="#434343"/>
<rect x="16" y="26" width="1" height="2" fill="#606060"/>
<rect x="8" y="27" width="1" height="1" fill="#595959"/>
<rect x="30" y="27" width="1" height="1" fill="#5b5b5b"/>
<rect x="25" y="27" width="1" height="1" fill="#878787"/>
<rect x="17" y="27" width="1" height="1" fill="#646464"/>
<rect x="14" y="27" width="2" height="1" fill="#565656"/>
<rect x="27" y="27" width="1" height="1" fill="#717171"/>
<rect x="13" y="27" width="1" height="1" fill="#595959"/>
<rect x="20" y="27" width="1" height="1" fill="#4f4f4f"/>
<rect x="7" y="27" width="1" height="1" fill="#5d5d5d"/>
<rect x="21" y="27" width="2" height="1" fill="#4a4a4a"/>
<rect x="19" y="27" width="1" height="1" fill="#646464"/>
<rect x="10" y="27" width="1" height="1" fill="#696969"/>
<rect x="12" y="27" width="1" height="1" fill="#5d5d5d"/>
<rect x="18" y="27" width="1" height="1" fill="#717171"/>
<rect x="24" y="27" width="1" height="1" fill="#919191"/>
<rect x="31" y="27" width="1" height="1" fill="#5d5d5d"/>
<rect x="5" y="27" width="2" height="1" fill="#797979"/>
<rect x="4" y="27" width="1" height="1" fill="#8b8c8c"/>
<rect x="23" y="27" width="1" height="1" fill="#8b8c8c"/>
<rect x="9" y="27" width="1" height="1" fill="#646464"/>
<rect x="11" y="27" width="1" height="1" fill="#646464"/>
<rect x="29" y="27" width="1" height="1" fill="#646464"/>
<rect x="1" y="27" width="1" height="1" fill="#484848"/>
<rect x="27" y="28" width="1" height="1" fill="#757575"/>
<rect x="8" y="28" width="1" height="1" fill="#676766"/>
<rect x="22" y="28" width="3" height="1" fill="#8b8c8c"/>
<rect x="5" y="28" width="1" height="1" fill="#717171"/>
<rect x="2" y="28" width="1" height="1" fill="#818181"/>
<rect x="20" y="28" width="1" height="1" fill="#5c5c5c"/>
<rect x="4" y="28" width="1" height="1" fill="#919191"/>
<rect x="31" y="28" width="1" height="1" fill="#5b5b5b"/>
<rect x="12" y="28" width="2" height="1" fill="#919191"/>
<rect x="9" y="28" width="1" height="1" fill="#7c7c7c"/>
<rect x="16" y="28" width="1" height="1" fill="#5d5d5d"/>
<rect x="6" y="28" width="1" height="1" fill="#6e6e6e"/>
<rect x="15" y="28" width="1" height="1" fill="#8b8c8c"/>
<rect x="19" y="28" width="1" height="1" fill="#535353"/>
<rect x="18" y="28" width="1" height="1" fill="#4a4a4a"/>
<rect x="30" y="28" width="1" height="1" fill="#606060"/>
<rect x="21" y="28" width="1" height="1" fill="#7c7c7c"/>
<rect x="29" y="28" width="1" height="1" fill="#696969"/>
<rect x="10" y="28" width="1" height="1" fill="#9e9f9f"/>
<rect x="25" y="28" width="1" height="1" fill="#7c7c7c"/>
<rect x="28" y="27" width="1" height="3" fill="#727272"/>
<rect x="17" y="28" width="1" height="2" fill="#595959"/>
<rect x="0" y="28" width="2" height="2" fill="#434343"/>
<rect x="7" y="28" width="1" height="2" fill="#696969"/>
<rect x="12" y="29" width="1" height="1" fill="#8b8c8c"/>
<rect x="8" y="29" width="1" height="1" fill="#646464"/>
<rect x="9" y="29" width="1" height="1" fill="#737373"/>
<rect x="18" y="29" width="1" height="1" fill="#484848"/>
<rect x="23" y="29" width="1" height="1" fill="#919191"/>
<rect x="15" y="29" width="1" height="1" fill="#919191"/>
<rect x="6" y="29" width="1" height="1" fill="#707070"/>
<rect x="22" y="29" width="1" height="1" fill="#9e9f9f"/>
<rect x="5" y="29" width="1" height="1" fill="#777777"/>
<rect x="2" y="29" width="1" height="1" fill="#6d6d6c"/>
<rect x="3" y="29" width="2" height="1" fill="#8b8c8c"/>
<rect x="25" y="29" width="1" height="1" fill="#727272"/>
<rect x="24" y="29" width="1" height="1" fill="#878787"/>
<rect x="20" y="29" width="1" height="1" fill="#606060"/>
<rect x="21" y="29" width="1" height="1" fill="#818181"/>
<rect x="29" y="29" width="1" height="1" fill="#757575"/>
<rect x="30" y="29" width="1" height="1" fill="#707070"/>
<rect x="16" y="29" width="1" height="1" fill="#606060"/>
<rect x="19" y="29" width="1" height="1" fill="#4f4f4f"/>
<rect x="13" y="29" width="1" height="1" fill="#919191"/>
<rect x="26" y="27" width="1" height="4" fill="#797979"/>
<rect x="31" y="29" width="1" height="2" fill="#4a4a4a"/>
<rect x="27" y="29" width="1" height="2" fill="#7c7c7c"/>
<rect x="9" y="30" width="1" height="1" fill="#565656"/>
<rect x="13" y="30" width="1" height="1" fill="#777777"/>
<rect x="2" y="30" width="1" height="1" fill="#535353"/>
<rect x="20" y="30" width="1" height="1" fill="#5d5d5d"/>
<rect x="29" y="30" width="1" height="1" fill="#6e6e6e"/>
<rect x="21" y="30" width="1" height="1" fill="#676766"/>
<rect x="18" y="30" width="1" height="1" fill="#595959"/>
<rect x="6" y="30" width="1" height="1" fill="#797979"/>
<rect x="10" y="30" width="1" height="1" fill="#878787"/>
<rect x="16" y="30" width="1" height="1" fill="#6e6e6e"/>
<rect x="25" y="30" width="1" height="1" fill="#787878"/>
<rect x="5" y="30" width="1" height="1" fill="#737373"/>
<rect x="8" y="30" width="1" height="1" fill="#4f4f4f"/>
<rect x="1" y="30" width="1" height="1" fill="#434343"/>
<rect x="23" y="30" width="2" height="1" fill="#7c7c7c"/>
<rect x="7" y="30" width="1" height="1" fill="#6d6d6c"/>
<rect x="14" y="30" width="2" height="1" fill="#757575"/>
<rect x="19" y="30" width="1" height="1" fill="#565656"/>
<rect x="30" y="30" width="1" height="1" fill="#646464"/>
<rect x="22" y="30" width="1" height="1" fill="#797979"/>
<rect x="12" y="30" width="1" height="1" fill="#797979"/>
<rect x="28" y="30" width="1" height="1" fill="#787878"/>
<rect x="0" y="30" width="1" height="1" fill="#4a4a4a"/>
<rect x="17" y="30" width="1" height="1" fill="#6d6d6c"/>
<rect x="4" y="30" width="1" height="2" fill="#696969"/>
<rect x="3" y="30" width="1" height="2" fill="#6d6d6c"/>
<rect x="11" y="30" width="1" height="2" fill="#8b8c8c"/>
<rect x="27" y="31" width="1" height="1" fill="#797979"/>
<rect x="30" y="31" width="2" height="1" fill="#4a4a4a"/>
<rect x="8" y="31" width="2" height="1" fill="#4f4f4f"/>
<rect x="16" y="31" width="1" height="1" fill="#707070"/>
<rect x="2" y="31" width="1" height="1" fill="#4f4f4f"/>
<rect x="24" y="31" width="1" height="1" fill="#737373"/>
<rect x="13" y="31" width="1" height="1" fill="#757575"/>
<rect x="5" y="31" width="1" height="1" fill="#707070"/>
<rect x="17" y="31" width="1" height="1" fill="#717171"/>
<rect x="7" y="31" width="1" height="1" fill="#727272"/>
<rect x="28" y="31" width="1" height="1" fill="#818181"/>
<rect x="18" y="31" width="1" height="1" fill="#606060"/>
<rect x="14" y="31" width="1" height="1" fill="#707070"/>
<rect x="19" y="31" width="4" height="1" fill="#5b5b5b"/>
<rect x="25" y="31" width="2" height="1" fill="#7c7c7c"/>
<rect x="23" y="31" width="1" height="1" fill="#696969"/>
<rect x="1" y="31" width="1" height="1" fill="#565656"/>
<rect x="6" y="31" width="1" height="1" fill="#787878"/>
<rect x="12" y="31" width="1" height="1" fill="#7c7c7c"/>
<rect x="15" y="31" width="1" height="1" fill="#6e6e6e"/>
<rect x="0" y="31" width="1" height="1" fill="#5d5d5d"/>
<rect x="29" y="31" width="1" height="1" fill="#646464"/>
<rect x="10" y="31" width="1" height="1" fill="#818181"/>
</svg>