<?xml version="1.0" encoding="UTF-8"?>
<svg xmlns="http://www.w3.org/2000/svg" width="20mm" height="20mm" viewBox="0 0 32 32" shape-rendering="crispEdges">
<title>146 顶面 structured semantic redraw</title>
<metadata>registered 32-unit semantic vector redraw; no embedded raster; physical-size=20mm</metadata>
<rect x="0" y="0" width="32" height="32" fill="#f6ffff"/>
<rect x="26" y="0" width="1" height="1" fill="#fdffff"/>
<rect x="3" y="0" width="1" height="1" fill="#ffffff"/>
<rect x="24" y="0" width="1" height="1" fill="#f4fdfd"/>
<rect x="23" y="0" width="1" height="1" fill="#edfbfb"/>
<rect x="22" y="0" width="1" height="1" fill="#f4fefe"/>
<rect x="15" y="0" width="1" height="1" fill="#edfbfb"/>
<rect x="14" y="0" width="1" height="1" fill="#f2fcfc"/>
<rect x="17" y="0" width="1" height="1" fill="#ffffff"/>
<rect x="18" y="0" width="1" height="1" fill="#feffff"/>
<rect x="25" y="0" width="1" height="1" fill="#ffffff"/>
<rect x="12" y="0" width="1" height="1" fill="#f6fdfd"/>
<rect x="5" y="0" width="2" height="1" fill="#f7ffff"/>
<rect x="28" y="0" width="1" height="1" fill="#f7ffff"/>
<rect x="13" y="0" width="1" height="1" fill="#f4fdfd"/>
<rect x="10" y="0" width="1" height="1" fill="#fdffff"/>
<rect x="7" y="0" width="2" height="1" fill="#ffffff"/>
<rect x="9" y="0" width="1" height="1" fill="#feffff"/>
<rect x="19" y="0" width="2" height="1" fill="#f7ffff"/>
<rect x="27" y="0" width="1" height="1" fill="#faffff"/>
<rect x="0" y="0" width="3" height="1" fill="#fdfefe"/>
<rect x="30" y="0" width="1" height="2" fill="#d8e0df"/>
<rect x="4" y="0" width="1" height="2" fill="#feffff"/>
<rect x="16" y="0" width="1" height="2" fill="#effcfc"/>
<rect x="29" y="0" width="1" height="2" fill="#f1fdfd"/>
<rect x="17" y="1" width="1" height="1" fill="#feffff"/>
<rect x="24" y="1" width="2" height="1" fill="#ffffff"/>
<rect x="20" y="1" width="1" height="1" fill="#f4fefe"/>
<rect x="21" y="1" width="1" height="1" fill="#eefcfc"/>
<rect x="23" y="1" width="1" height="1" fill="#feffff"/>
<rect x="15" y="1" width="1" height="1" fill="#ecfafa"/>
<rect x="18" y="1" width="1" height="1" fill="#fbffff"/>
<rect x="7" y="1" width="3" height="1" fill="#f7ffff"/>
<rect x="14" y="1" width="1" height="1" fill="#ebfafa"/>
<rect x="31" y="0" width="1" height="3" fill="#cbd0d0"/>
<rect x="13" y="1" width="1" height="2" fill="#ecfbfb"/>
<rect x="0" y="1" width="4" height="2" fill="#ffffff"/>
<rect x="22" y="1" width="1" height="2" fill="#f4fdfd"/>
<rect x="26" y="1" width="1" height="2" fill="#faffff"/>
<rect x="27" y="2" width="1" height="1" fill="#f7ffff"/>
<rect x="28" y="2" width="1" height="1" fill="#effcfc"/>
<rect x="15" y="2" width="1" height="1" fill="#fdfefe"/>
<rect x="14" y="2" width="1" height="1" fill="#effcfc"/>
<rect x="4" y="2" width="1" height="1" fill="#fdffff"/>
<rect x="9" y="2" width="1" height="1" fill="#f7ffff"/>
<rect x="12" y="1" width="1" height="3" fill="#f4fefe"/>
<rect x="20" y="2" width="1" height="2" fill="#f1fdfd"/>
<rect x="21" y="2" width="1" height="2" fill="#ebfbfb"/>
<rect x="29" y="2" width="1" height="2" fill="#e7f4f4"/>
<rect x="23" y="2" width="3" height="2" fill="#ffffff"/>
<rect x="3" y="3" width="1" height="1" fill="#fdffff"/>
<rect x="10" y="3" width="1" height="1" fill="#f5ffff"/>
<rect x="4" y="3" width="1" height="1" fill="#faffff"/>
<rect x="14" y="3" width="1" height="1" fill="#f2fcfc"/>
<rect x="7" y="3" width="2" height="1" fill="#effcfc"/>
<rect x="22" y="3" width="1" height="1" fill="#f7fdfd"/>
<rect x="28" y="3" width="1" height="1" fill="#ecfbfb"/>
<rect x="5" y="3" width="2" height="1" fill="#f1fdfd"/>
<rect x="0" y="3" width="3" height="1" fill="#ffffff"/>
<rect x="13" y="3" width="1" height="1" fill="#ebfbfb"/>
<rect x="16" y="2" width="1" height="3" fill="#fbffff"/>
<rect x="17" y="3" width="3" height="2" fill="#f7ffff"/>
<rect x="26" y="3" width="1" height="2" fill="#f7ffff"/>
<rect x="15" y="3" width="1" height="2" fill="#ffffff"/>
<rect x="13" y="4" width="1" height="1" fill="#f8fefe"/>
<rect x="21" y="4" width="1" height="1" fill="#ecfafa"/>
<rect x="29" y="4" width="1" height="1" fill="#e8e9e9"/>
<rect x="1" y="4" width="1" height="1" fill="#ffffff"/>
<rect x="9" y="4" width="1" height="1" fill="#f7ffff"/>
<rect x="20" y="4" width="1" height="1" fill="#effcfc"/>
<rect x="11" y="4" width="2" height="1" fill="#f4fefe"/>
<rect x="14" y="4" width="1" height="1" fill="#fdfefe"/>
<rect x="4" y="4" width="1" height="1" fill="#f4fefe"/>
<rect x="25" y="4" width="1" height="1" fill="#fbffff"/>
<rect x="5" y="4" width="3" height="1" fill="#ebfafa"/>
<rect x="22" y="4" width="1" height="1" fill="#f8fefe"/>
<rect x="8" y="4" width="1" height="1" fill="#effcfc"/>
<rect x="24" y="4" width="1" height="1" fill="#fdffff"/>
<rect x="0" y="4" width="1" height="1" fill="#fbffff"/>
<rect x="2" y="4" width="1" height="2" fill="#fbffff"/>
<rect x="23" y="4" width="1" height="2" fill="#ffffff"/>
<rect x="3" y="5" width="1" height="1" fill="#f4fefe"/>
<rect x="29" y="5" width="1" height="1" fill="#dae6e5"/>
<rect x="1" y="5" width="1" height="1" fill="#feffff"/>
<rect x="6" y="5" width="1" height="1" fill="#effcfc"/>
<rect x="0" y="5" width="1" height="1" fill="#faffff"/>
<rect x="8" y="5" width="1" height="1" fill="#fdffff"/>
<rect x="10" y="5" width="1" height="1" fill="#f8fefe"/>
<rect x="19" y="5" width="1" height="1" fill="#f1fdfd"/>
<rect x="4" y="5" width="1" height="1" fill="#f1fdfd"/>
<rect x="7" y="5" width="1" height="1" fill="#faffff"/>
<rect x="13" y="5" width="3" height="1" fill="#ffffff"/>
<rect x="18" y="5" width="1" height="1" fill="#f4fefe"/>
<rect x="20" y="5" width="1" height="1" fill="#f8fefe"/>
<rect x="24" y="5" width="1" height="1" fill="#f7ffff"/>
<rect x="9" y="5" width="1" height="1" fill="#feffff"/>
<rect x="16" y="5" width="1" height="1" fill="#faffff"/>
<rect x="5" y="5" width="1" height="1" fill="#ecfbfb"/>
<rect x="12" y="5" width="1" height="1" fill="#f2fcfc"/>
<rect x="27" y="5" width="1" height="2" fill="#f4fefe"/>
<rect x="21" y="5" width="1" height="2" fill="#fdfefe"/>
<rect x="22" y="5" width="1" height="2" fill="#feffff"/>
<rect x="7" y="6" width="1" height="1" fill="#ffffff"/>
<rect x="1" y="6" width="1" height="1" fill="#effcfc"/>
<rect x="3" y="6" width="2" height="1" fill="#ebfafa"/>
<rect x="8" y="6" width="1" height="1" fill="#feffff"/>
<rect x="19" y="6" width="1" height="1" fill="#ebfbfb"/>
<rect x="5" y="6" width="1" height="1" fill="#ecfafa"/>
<rect x="18" y="6" width="1" height="1" fill="#effcfc"/>
<rect x="20" y="6" width="1" height="1" fill="#fbffff"/>
<rect x="6" y="6" width="1" height="1" fill="#f2fcfc"/>
<rect x="2" y="6" width="1" height="1" fill="#edfbfb"/>
<rect x="12" y="6" width="1" height="1" fill="#f4fdfd"/>
<rect x="0" y="6" width="1" height="1" fill="#f8fefe"/>
<rect x="15" y="6" width="1" height="1" fill="#f7ffff"/>
<rect x="23" y="6" width="1" height="1" fill="#fdffff"/>
<rect x="14" y="6" width="1" height="1" fill="#fbffff"/>
<rect x="10" y="6" width="1" height="1" fill="#f7fdfd"/>
<rect x="30" y="2" width="1" height="6" fill="#cfd6d6"/>
<rect x="28" y="4" width="1" height="4" fill="#ebfafa"/>
<rect x="11" y="5" width="1" height="3" fill="#ebfafa"/>
<rect x="29" y="6" width="1" height="2" fill="#d8e0df"/>
<rect x="24" y="6" width="3" height="2" fill="#f7ffff"/>
<rect x="14" y="7" width="1" height="1" fill="#faffff"/>
<rect x="27" y="7" width="1" height="1" fill="#f1fdfd"/>
<rect x="5" y="7" width="1" height="1" fill="#f1fdfd"/>
<rect x="1" y="7" width="1" height="1" fill="#ecfafa"/>
<rect x="15" y="7" width="1" height="1" fill="#f5ffff"/>
<rect x="4" y="7" width="1" height="1" fill="#effcfc"/>
<rect x="12" y="7" width="1" height="1" fill="#f6fdfd"/>
<rect x="7" y="7" width="1" height="1" fill="#faffff"/>
<rect x="6" y="7" width="1" height="1" fill="#f4fefe"/>
<rect x="20" y="7" width="1" height="1" fill="#effcfc"/>
<rect x="18" y="7" width="1" height="1" fill="#eefcfc"/>
<rect x="21" y="7" width="1" height="1" fill="#edfbfb"/>
<rect x="10" y="7" width="1" height="1" fill="#f6fdfd"/>
<rect x="0" y="7" width="1" height="1" fill="#f7fdfd"/>
<rect x="2" y="7" width="2" height="1" fill="#edfbfb"/>
<rect x="17" y="5" width="1" height="4" fill="#f7ffff"/>
<rect x="13" y="6" width="1" height="3" fill="#ffffff"/>
<rect x="9" y="6" width="1" height="3" fill="#ffffff"/>
<rect x="19" y="7" width="1" height="2" fill="#ecfbfb"/>
<rect x="8" y="7" width="1" height="2" fill="#fbffff"/>
<rect x="26" y="8" width="1" height="1" fill="#eefcfc"/>
<rect x="11" y="8" width="1" height="1" fill="#f4fdfd"/>
<rect x="16" y="8" width="1" height="1" fill="#f4fefe"/>
<rect x="10" y="8" width="1" height="1" fill="#f8fefe"/>
<rect x="20" y="8" width="1" height="1" fill="#edfbfb"/>
<rect x="12" y="8" width="1" height="1" fill="#fbffff"/>
<rect x="25" y="8" width="1" height="1" fill="#f4fefe"/>
<rect x="21" y="8" width="1" height="1" fill="#eefcfc"/>
<rect x="1" y="8" width="1" height="1" fill="#fdfefe"/>
<rect x="24" y="8" width="1" height="1" fill="#f7ffff"/>
<rect x="0" y="8" width="1" height="1" fill="#fdffff"/>
<rect x="27" y="8" width="1" height="1" fill="#ecfbfb"/>
<rect x="18" y="8" width="1" height="1" fill="#edfbfb"/>
<rect x="31" y="3" width="1" height="7" fill="#c5cdcd"/>
<rect x="30" y="8" width="1" height="2" fill="#cbd0d0"/>
<rect x="2" y="8" width="1" height="2" fill="#fbffff"/>
<rect x="14" y="8" width="1" height="2" fill="#f2fcfc"/>
<rect x="4" y="8" width="1" height="2" fill="#f7ffff"/>
<rect x="20" y="9" width="1" height="1" fill="#fdfefe"/>
<rect x="9" y="9" width="5" height="1" fill="#ffffff"/>
<rect x="19" y="9" width="1" height="1" fill="#edfbfb"/>
<rect x="1" y="9" width="1" height="1" fill="#feffff"/>
<rect x="25" y="9" width="1" height="1" fill="#f1fdfd"/>
<rect x="7" y="9" width="1" height="1" fill="#edfcfc"/>
<rect x="26" y="9" width="1" height="1" fill="#edfcfc"/>
<rect x="21" y="9" width="1" height="1" fill="#fdffff"/>
<rect x="16" y="9" width="2" height="1" fill="#f1fdfd"/>
<rect x="0" y="9" width="1" height="1" fill="#ffffff"/>
<rect x="27" y="9" width="1" height="1" fill="#ebfbfb"/>
<rect x="15" y="8" width="1" height="3" fill="#ecfbfb"/>
<rect x="28" y="8" width="1" height="3" fill="#e7f4f4"/>
<rect x="18" y="9" width="1" height="2" fill="#ecfbfb"/>
<rect x="6" y="9" width="1" height="2" fill="#f1fdfd"/>
<rect x="8" y="9" width="1" height="2" fill="#f7fdfd"/>
<rect x="26" y="10" width="1" height="1" fill="#f4fefe"/>
<rect x="22" y="10" width="2" height="1" fill="#faffff"/>
<rect x="14" y="10" width="1" height="1" fill="#effcfc"/>
<rect x="16" y="10" width="2" height="1" fill="#ebfafa"/>
<rect x="11" y="10" width="1" height="1" fill="#f4fdfd"/>
<rect x="19" y="10" width="1" height="1" fill="#effcfc"/>
<rect x="12" y="10" width="1" height="1" fill="#fdfefe"/>
<rect x="10" y="10" width="1" height="1" fill="#f8fefe"/>
<rect x="0" y="10" width="3" height="1" fill="#f7ffff"/>
<rect x="30" y="10" width="2" height="1" fill="#c5cdcd"/>
<rect x="13" y="10" width="1" height="1" fill="#ffffff"/>
<rect x="7" y="10" width="1" height="1" fill="#ecfbfb"/>
<rect x="21" y="10" width="1" height="1" fill="#fbffff"/>
<rect x="4" y="10" width="2" height="1" fill="#f7ffff"/>
<rect x="27" y="10" width="1" height="1" fill="#edfbfb"/>
<rect x="9" y="10" width="1" height="1" fill="#fdffff"/>
<rect x="20" y="10" width="1" height="1" fill="#fdffff"/>
<rect x="28" y="11" width="1" height="1" fill="#e8e9e9"/>
<rect x="30" y="11" width="1" height="1" fill="#cbd0d0"/>
<rect x="7" y="11" width="1" height="1" fill="#fdfefe"/>
<rect x="27" y="11" width="1" height="1" fill="#ecfafa"/>
<rect x="23" y="11" width="1" height="1" fill="#faffff"/>
<rect x="0" y="11" width="1" height="1" fill="#f5ffff"/>
<rect x="13" y="11" width="1" height="1" fill="#feffff"/>
<rect x="16" y="11" width="1" height="1" fill="#f4fdfd"/>
<rect x="11" y="11" width="1" height="1" fill="#ebfafa"/>
<rect x="12" y="11" width="1" height="1" fill="#fbffff"/>
<rect x="4" y="11" width="1" height="1" fill="#f1fdfd"/>
<rect x="21" y="11" width="1" height="1" fill="#f4fdfd"/>
<rect x="2" y="11" width="2" height="1" fill="#f4fefe"/>
<rect x="17" y="11" width="1" height="1" fill="#f6fdfd"/>
<rect x="10" y="11" width="1" height="1" fill="#eefcfc"/>
<rect x="14" y="11" width="2" height="1" fill="#f2fcfc"/>
<rect x="8" y="11" width="1" height="1" fill="#faffff"/>
<rect x="5" y="11" width="1" height="1" fill="#effcfc"/>
<rect x="31" y="11" width="1" height="1" fill="#c5cdcd"/>
<rect x="18" y="11" width="3" height="2" fill="#ecfbfb"/>
<rect x="6" y="11" width="1" height="2" fill="#f7fdfd"/>
<rect x="1" y="12" width="1" height="1" fill="#ecfbfb"/>
<rect x="26" y="12" width="1" height="1" fill="#f4fefe"/>
<rect x="25" y="12" width="1" height="1" fill="#f7ffff"/>
<rect x="11" y="12" width="1" height="1" fill="#f4fefe"/>
<rect x="10" y="12" width="1" height="1" fill="#f1fdfd"/>
<rect x="17" y="12" width="1" height="1" fill="#fbffff"/>
<rect x="14" y="12" width="1" height="1" fill="#fdfefe"/>
<rect x="21" y="12" width="1" height="1" fill="#f6fdfd"/>
<rect x="2" y="12" width="4" height="1" fill="#ebfafa"/>
<rect x="7" y="12" width="1" height="1" fill="#feffff"/>
<rect x="12" y="12" width="1" height="1" fill="#effcfc"/>
<rect x="23" y="12" width="2" height="1" fill="#feffff"/>
<rect x="8" y="12" width="1" height="1" fill="#f7ffff"/>
<rect x="22" y="11" width="1" height="3" fill="#ffffff"/>
<rect x="15" y="12" width="2" height="2" fill="#ffffff"/>
<rect x="27" y="12" width="1" height="2" fill="#ebfafa"/>
<rect x="0" y="12" width="1" height="2" fill="#f4fdfd"/>
<rect x="28" y="12" width="1" height="2" fill="#dae6e5"/>
<rect x="21" y="13" width="1" height="1" fill="#f8fefe"/>
<rect x="17" y="13" width="1" height="1" fill="#feffff"/>
<rect x="10" y="13" width="1" height="1" fill="#f7ffff"/>
<rect x="14" y="13" width="1" height="1" fill="#feffff"/>
<rect x="5" y="13" width="1" height="1" fill="#f4fefe"/>
<rect x="3" y="13" width="2" height="1" fill="#f1fdfd"/>
<rect x="2" y="13" width="1" height="1" fill="#effcfc"/>
<rect x="25" y="13" width="1" height="1" fill="#f4fefe"/>
<rect x="20" y="13" width="1" height="1" fill="#ecfbfb"/>
<rect x="23" y="13" width="1" height="1" fill="#feffff"/>
<rect x="7" y="13" width="1" height="1" fill="#f7ffff"/>
<rect x="18" y="13" width="1" height="1" fill="#fdfefe"/>
<rect x="12" y="13" width="1" height="1" fill="#ecfbfb"/>
<rect x="6" y="13" width="1" height="1" fill="#f6fdfd"/>
<rect x="19" y="13" width="1" height="1" fill="#f4fdfd"/>
<rect x="26" y="13" width="1" height="1" fill="#f1fdfd"/>
<rect x="1" y="13" width="1" height="1" fill="#edfbfb"/>
<rect x="24" y="13" width="1" height="1" fill="#fdffff"/>
<rect x="29" y="8" width="1" height="7" fill="#cfd6d6"/>
<rect x="30" y="12" width="2" height="3" fill="#cbd0d0"/>
<rect x="13" y="12" width="1" height="3" fill="#edfbfb"/>
<rect x="25" y="14" width="3" height="1" fill="#ebfafa"/>
<rect x="28" y="14" width="1" height="1" fill="#d8e0df"/>
<rect x="10" y="14" width="1" height="1" fill="#effcfc"/>
<rect x="11" y="14" width="1" height="1" fill="#edfcfc"/>
<rect x="2" y="14" width="1" height="1" fill="#faffff"/>
<rect x="23" y="14" width="1" height="1" fill="#effcfc"/>
<rect x="19" y="14" width="1" height="1" fill="#f2fcfc"/>
<rect x="14" y="14" width="3" height="1" fill="#ffffff"/>
<rect x="8" y="14" width="2" height="1" fill="#f1fdfd"/>
<rect x="12" y="14" width="1" height="1" fill="#ebfbfb"/>
<rect x="21" y="14" width="1" height="1" fill="#fbffff"/>
<rect x="17" y="14" width="2" height="1" fill="#feffff"/>
<rect x="24" y="14" width="1" height="1" fill="#ecfafa"/>
<rect x="22" y="14" width="1" height="1" fill="#feffff"/>
<rect x="0" y="14" width="2" height="1" fill="#feffff"/>
<rect x="6" y="14" width="2" height="1" fill="#f4fefe"/>
<rect x="20" y="14" width="1" height="2" fill="#ebfbfb"/>
<rect x="26" y="15" width="1" height="1" fill="#eefcfc"/>
<rect x="13" y="15" width="1" height="1" fill="#f2fcfc"/>
<rect x="10" y="15" width="1" height="1" fill="#ecfbfb"/>
<rect x="25" y="15" width="1" height="1" fill="#f1fdfd"/>
<rect x="15" y="15" width="1" height="1" fill="#faffff"/>
<rect x="19" y="15" width="1" height="1" fill="#effcfc"/>
<rect x="16" y="15" width="2" height="1" fill="#f7ffff"/>
<rect x="1" y="15" width="1" height="1" fill="#fdffff"/>
<rect x="0" y="15" width="1" height="1" fill="#feffff"/>
<rect x="2" y="15" width="1" height="1" fill="#f7ffff"/>
<rect x="21" y="15" width="1" height="1" fill="#fdfefe"/>
<rect x="24" y="15" width="1" height="1" fill="#effcfc"/>
<rect x="7" y="15" width="3" height="1" fill="#ebfafa"/>
<rect x="6" y="15" width="1" height="1" fill="#eefcfc"/>
<rect x="27" y="15" width="1" height="1" fill="#ebfafa"/>
<rect x="23" y="15" width="1" height="1" fill="#eefcfc"/>
<rect x="14" y="15" width="1" height="1" fill="#fbffff"/>
<rect x="11" y="15" width="2" height="1" fill="#edfbfb"/>
<rect x="22" y="15" width="1" height="2" fill="#fdffff"/>
<rect x="29" y="15" width="2" height="2" fill="#cbd0d0"/>
<rect x="31" y="15" width="1" height="2" fill="#c5cdcd"/>
<rect x="11" y="16" width="1" height="1" fill="#fdffff"/>
<rect x="0" y="16" width="1" height="1" fill="#faffff"/>
<rect x="23" y="16" width="1" height="1" fill="#f5ffff"/>
<rect x="17" y="16" width="1" height="1" fill="#f4fefe"/>
<rect x="18" y="16" width="1" height="1" fill="#f1fdfd"/>
<rect x="8" y="16" width="1" height="1" fill="#f6fdfd"/>
<rect x="9" y="16" width="1" height="1" fill="#f8fefe"/>
<rect x="20" y="16" width="1" height="1" fill="#f8fefe"/>
<rect x="26" y="16" width="1" height="1" fill="#effcfc"/>
<rect x="6" y="16" width="2" height="1" fill="#f2fcfc"/>
<rect x="10" y="16" width="1" height="1" fill="#fdfefe"/>
<rect x="16" y="16" width="1" height="1" fill="#f7ffff"/>
<rect x="19" y="16" width="1" height="1" fill="#f6fdfd"/>
<rect x="5" y="16" width="1" height="1" fill="#f7ffff"/>
<rect x="1" y="16" width="1" height="1" fill="#f5ffff"/>
<rect x="21" y="16" width="1" height="2" fill="#feffff"/>
<rect x="27" y="16" width="1" height="2" fill="#e7f4f4"/>
<rect x="5" y="17" width="5" height="1" fill="#ffffff"/>
<rect x="12" y="17" width="1" height="1" fill="#f5ffff"/>
<rect x="25" y="17" width="1" height="1" fill="#eefcfc"/>
<rect x="19" y="17" width="1" height="1" fill="#fdfefe"/>
<rect x="24" y="17" width="1" height="1" fill="#f1fdfd"/>
<rect x="0" y="17" width="1" height="1" fill="#f7ffff"/>
<rect x="26" y="17" width="1" height="1" fill="#ecfbfb"/>
<rect x="11" y="17" width="1" height="1" fill="#fbffff"/>
<rect x="29" y="17" width="3" height="1" fill="#c5cdcd"/>
<rect x="22" y="17" width="1" height="1" fill="#fbffff"/>
<rect x="20" y="17" width="1" height="1" fill="#ffffff"/>
<rect x="10" y="17" width="1" height="1" fill="#feffff"/>
<rect x="17" y="17" width="1" height="1" fill="#eefcfc"/>
<rect x="18" y="17" width="1" height="1" fill="#ebfafa"/>
<rect x="28" y="15" width="1" height="4" fill="#cfd6d6"/>
<rect x="4" y="17" width="1" height="2" fill="#fbffff"/>
<rect x="25" y="18" width="1" height="1" fill="#ecfbfb"/>
<rect x="14" y="18" width="1" height="1" fill="#f5ffff"/>
<rect x="18" y="18" width="1" height="1" fill="#ecfbfb"/>
<rect x="15" y="18" width="2" height="1" fill="#f4fefe"/>
<rect x="29" y="18" width="1" height="1" fill="#cbd0d0"/>
<rect x="0" y="18" width="3" height="1" fill="#f5ffff"/>
<rect x="30" y="18" width="2" height="1" fill="#c5cdcd"/>
<rect x="27" y="18" width="1" height="1" fill="#e8e9e9"/>
<rect x="8" y="18" width="2" height="1" fill="#f7ffff"/>
<rect x="19" y="18" width="1" height="1" fill="#feffff"/>
<rect x="7" y="18" width="1" height="1" fill="#faffff"/>
<rect x="11" y="18" width="1" height="1" fill="#f5ffff"/>
<rect x="24" y="18" width="1" height="1" fill="#effcfc"/>
<rect x="22" y="18" width="1" height="1" fill="#f5ffff"/>
<rect x="17" y="18" width="1" height="1" fill="#edfbfb"/>
<rect x="5" y="18" width="1" height="1" fill="#faffff"/>
<rect x="6" y="18" width="1" height="1" fill="#fbffff"/>
<rect x="20" y="18" width="1" height="1" fill="#fdffff"/>
<rect x="26" y="18" width="1" height="2" fill="#ebfafa"/>
<rect x="14" y="19" width="1" height="1" fill="#ecfbfb"/>
<rect x="6" y="19" width="1" height="1" fill="#f5ffff"/>
<rect x="21" y="19" width="1" height="1" fill="#f1fdfd"/>
<rect x="0" y="19" width="1" height="1" fill="#faffff"/>
<rect x="15" y="19" width="3" height="1" fill="#ebfafa"/>
<rect x="4" y="19" width="1" height="1" fill="#effcfc"/>
<rect x="20" y="19" width="1" height="1" fill="#f8fefe"/>
<rect x="10" y="19" width="1" height="1" fill="#f4fefe"/>
<rect x="1" y="19" width="1" height="1" fill="#fbffff"/>
<rect x="5" y="19" width="1" height="1" fill="#ebfbfb"/>
<rect x="22" y="19" width="1" height="1" fill="#effcfc"/>
<rect x="29" y="19" width="2" height="1" fill="#cbd0d0"/>
<rect x="23" y="19" width="1" height="1" fill="#eefcfc"/>
<rect x="12" y="19" width="1" height="1" fill="#effcfc"/>
<rect x="19" y="19" width="1" height="1" fill="#fdfefe"/>
<rect x="8" y="19" width="1" height="1" fill="#f5ffff"/>
<rect x="2" y="19" width="1" height="1" fill="#fdffff"/>
<rect x="11" y="19" width="1" height="1" fill="#f1fdfd"/>
<rect x="3" y="19" width="1" height="1" fill="#feffff"/>
<rect x="24" y="19" width="2" height="1" fill="#ecfbfb"/>
<rect x="18" y="19" width="1" height="1" fill="#edfbfb"/>
<rect x="27" y="19" width="1" height="2" fill="#dae6e5"/>
<rect x="13" y="19" width="1" height="2" fill="#edfbfb"/>
<rect x="31" y="19" width="1" height="2" fill="#c5cdcd"/>
<rect x="25" y="20" width="1" height="1" fill="#effcfc"/>
<rect x="12" y="20" width="1" height="1" fill="#ecfafa"/>
<rect x="17" y="20" width="2" height="1" fill="#f4fefe"/>
<rect x="30" y="20" width="1" height="1" fill="#a9b0b0"/>
<rect x="23" y="20" width="1" height="1" fill="#edfbfb"/>
<rect x="14" y="20" width="1" height="1" fill="#effcfc"/>
<rect x="0" y="20" width="2" height="1" fill="#ffffff"/>
<rect x="3" y="20" width="1" height="1" fill="#fdfefe"/>
<rect x="24" y="20" width="1" height="1" fill="#edfcfc"/>
<rect x="10" y="20" width="2" height="1" fill="#ebfafa"/>
<rect x="16" y="20" width="1" height="1" fill="#f7fdfd"/>
<rect x="2" y="20" width="1" height="1" fill="#feffff"/>
<rect x="26" y="20" width="1" height="1" fill="#f1fdfd"/>
<rect x="20" y="20" width="2" height="1" fill="#ebfafa"/>
<rect x="4" y="20" width="2" height="1" fill="#f1fdfd"/>
<rect x="9" y="20" width="1" height="1" fill="#f4fefe"/>
<rect x="15" y="20" width="1" height="1" fill="#f4fdfd"/>
<rect x="22" y="20" width="1" height="1" fill="#ecfafa"/>
<rect x="28" y="19" width="1" height="3" fill="#c5cdcd"/>
<rect x="29" y="20" width="1" height="2" fill="#cbd0d0"/>
<rect x="19" y="20" width="1" height="2" fill="#ecfbfb"/>
<rect x="16" y="21" width="1" height="1" fill="#feffff"/>
<rect x="1" y="21" width="1" height="1" fill="#effcfc"/>
<rect x="9" y="21" width="2" height="1" fill="#f1fdfd"/>
<rect x="12" y="21" width="1" height="1" fill="#fdffff"/>
<rect x="22" y="21" width="1" height="1" fill="#fdfefe"/>
<rect x="8" y="21" width="1" height="1" fill="#f4fefe"/>
<rect x="27" y="21" width="1" height="1" fill="#d8e0df"/>
<rect x="3" y="21" width="1" height="1" fill="#ebfafa"/>
<rect x="23" y="21" width="1" height="1" fill="#feffff"/>
<rect x="26" y="21" width="1" height="1" fill="#f5ffff"/>
<rect x="7" y="21" width="1" height="1" fill="#f5ffff"/>
<rect x="18" y="21" width="1" height="1" fill="#f4fefe"/>
<rect x="20" y="21" width="1" height="1" fill="#f2fcfc"/>
<rect x="4" y="21" width="1" height="1" fill="#f4fefe"/>
<rect x="2" y="21" width="1" height="1" fill="#ecfafa"/>
<rect x="11" y="21" width="1" height="1" fill="#f8fefe"/>
<rect x="30" y="21" width="2" height="1" fill="#a9b0b0"/>
<rect x="0" y="21" width="1" height="1" fill="#f6fdfd"/>
<rect x="21" y="21" width="1" height="1" fill="#faffff"/>
<rect x="5" y="21" width="1" height="1" fill="#f7ffff"/>
<rect x="14" y="21" width="2" height="1" fill="#ffffff"/>
<rect x="13" y="21" width="1" height="2" fill="#feffff"/>
<rect x="23" y="22" width="1" height="1" fill="#fbffff"/>
<rect x="19" y="22" width="1" height="1" fill="#ebfafa"/>
<rect x="7" y="22" width="2" height="1" fill="#ebfafa"/>
<rect x="22" y="22" width="1" height="1" fill="#fdffff"/>
<rect x="6" y="22" width="1" height="1" fill="#ecfbfb"/>
<rect x="20" y="22" width="1" height="1" fill="#f7fdfd"/>
<rect x="15" y="22" width="1" height="1" fill="#faffff"/>
<rect x="21" y="22" width="1" height="1" fill="#ffffff"/>
<rect x="18" y="22" width="1" height="1" fill="#f1fdfd"/>
<rect x="5" y="22" width="1" height="1" fill="#eefcfc"/>
<rect x="26" y="22" width="1" height="1" fill="#ebfafa"/>
<rect x="0" y="22" width="1" height="1" fill="#f2fcfc"/>
<rect x="3" y="22" width="2" height="1" fill="#f1fdfd"/>
<rect x="12" y="22" width="1" height="1" fill="#fbffff"/>
<rect x="9" y="22" width="1" height="1" fill="#effcfc"/>
<rect x="14" y="22" width="1" height="1" fill="#ffffff"/>
<rect x="25" y="22" width="1" height="1" fill="#f4fdfd"/>
<rect x="11" y="22" width="1" height="1" fill="#faffff"/>
<rect x="1" y="22" width="1" height="1" fill="#edfbfb"/>
<rect x="16" y="22" width="1" height="1" fill="#f7ffff"/>
<rect x="2" y="22" width="1" height="1" fill="#eefcfc"/>
<rect x="28" y="22" width="3" height="2" fill="#c5cdcd"/>
<rect x="6" y="23" width="1" height="1" fill="#edfbfb"/>
<rect x="8" y="23" width="1" height="1" fill="#f1fdfd"/>
<rect x="10" y="23" width="1" height="1" fill="#f5ffff"/>
<rect x="19" y="23" width="1" height="1" fill="#faffff"/>
<rect x="1" y="23" width="1" height="1" fill="#feffff"/>
<rect x="18" y="23" width="1" height="1" fill="#f8fefe"/>
<rect x="25" y="23" width="1" height="1" fill="#f1fdfd"/>
<rect x="20" y="23" width="2" height="1" fill="#feffff"/>
<rect x="14" y="23" width="1" height="1" fill="#feffff"/>
<rect x="2" y="23" width="1" height="1" fill="#f7ffff"/>
<rect x="24" y="23" width="1" height="1" fill="#f5ffff"/>
<rect x="12" y="23" width="1" height="1" fill="#ebfafa"/>
<rect x="7" y="23" width="1" height="1" fill="#effcfc"/>
<rect x="0" y="23" width="1" height="1" fill="#fdffff"/>
<rect x="11" y="23" width="1" height="1" fill="#effcfc"/>
<rect x="5" y="23" width="1" height="1" fill="#ebfafa"/>
<rect x="13" y="23" width="1" height="1" fill="#fbffff"/>
<rect x="15" y="23" width="2" height="1" fill="#f7ffff"/>
<rect x="17" y="23" width="1" height="1" fill="#faffff"/>
<rect x="26" y="23" width="1" height="1" fill="#ecfafa"/>
<rect x="9" y="23" width="1" height="1" fill="#f4fefe"/>
<rect x="31" y="22" width="1" height="3" fill="#a9b0b0"/>
<rect x="27" y="22" width="1" height="3" fill="#cfd6d6"/>
<rect x="4" y="23" width="1" height="2" fill="#ecfbfb"/>
<rect x="14" y="24" width="6" height="1" fill="#ffffff"/>
<rect x="26" y="24" width="1" height="1" fill="#fdfefe"/>
<rect x="25" y="24" width="1" height="1" fill="#f8fefe"/>
<rect x="11" y="24" width="1" height="1" fill="#f4fdfd"/>
<rect x="20" y="24" width="1" height="1" fill="#fbffff"/>
<rect x="13" y="24" width="1" height="1" fill="#feffff"/>
<rect x="8" y="24" width="2" height="1" fill="#f5ffff"/>
<rect x="3" y="24" width="1" height="1" fill="#f6fdfd"/>
<rect x="12" y="24" width="1" height="1" fill="#f6fdfd"/>
<rect x="28" y="24" width="2" height="1" fill="#cbd0d0"/>
<rect x="0" y="24" width="2" height="1" fill="#fbffff"/>
<rect x="24" y="24" width="1" height="1" fill="#ecfbfb"/>
<rect x="21" y="24" width="1" height="1" fill="#f7fdfd"/>
<rect x="10" y="24" width="1" height="1" fill="#f4fefe"/>
<rect x="30" y="24" width="1" height="1" fill="#c5cdcd"/>
<rect x="5" y="24" width="1" height="1" fill="#edfbfb"/>
<rect x="23" y="24" width="1" height="1" fill="#f4fdfd"/>
<rect x="10" y="25" width="1" height="1" fill="#ebfafa"/>
<rect x="15" y="25" width="1" height="1" fill="#f7fdfd"/>
<rect x="20" y="25" width="2" height="1" fill="#ecfbfb"/>
<rect x="7" y="25" width="1" height="1" fill="#eefcfc"/>
<rect x="3" y="25" width="1" height="1" fill="#f4fefe"/>
<rect x="12" y="25" width="1" height="1" fill="#ffffff"/>
<rect x="26" y="25" width="1" height="1" fill="#e8e9e9"/>
<rect x="1" y="25" width="2" height="1" fill="#f5ffff"/>
<rect x="11" y="25" width="1" height="1" fill="#fbffff"/>
<rect x="6" y="25" width="1" height="1" fill="#f1fdfd"/>
<rect x="30" y="25" width="2" height="1" fill="#c5cdcd"/>
<rect x="9" y="25" width="1" height="1" fill="#ecfbfb"/>
<rect x="24" y="25" width="1" height="1" fill="#e7f4f4"/>
<rect x="27" y="25" width="3" height="1" fill="#cbd0d0"/>
<rect x="13" y="25" width="1" height="1" fill="#fdfefe"/>
<rect x="23" y="25" width="1" height="1" fill="#ecfafa"/>
<rect x="18" y="25" width="1" height="1" fill="#fdffff"/>
<rect x="4" y="25" width="2" height="1" fill="#ecfbfb"/>
<rect x="19" y="25" width="1" height="1" fill="#ffffff"/>
<rect x="8" y="25" width="1" height="1" fill="#edfbfb"/>
<rect x="14" y="25" width="1" height="1" fill="#fbffff"/>
<rect x="22" y="25" width="1" height="1" fill="#f2fcfc"/>
<rect x="16" y="25" width="1" height="1" fill="#f8fefe"/>
<rect x="17" y="25" width="1" height="1" fill="#f7ffff"/>
<rect x="25" y="25" width="1" height="1" fill="#f2f6f6"/>
<rect x="17" y="26" width="3" height="1" fill="#f2f6f6"/>
<rect x="7" y="26" width="3" height="1" fill="#ecfbfb"/>
<rect x="10" y="26" width="1" height="1" fill="#ebfbfb"/>
<rect x="20" y="26" width="7" height="1" fill="#e8e9e9"/>
<rect x="2" y="26" width="1" height="1" fill="#fdffff"/>
<rect x="4" y="26" width="1" height="1" fill="#ecfafa"/>
<rect x="13" y="26" width="1" height="1" fill="#ecfafa"/>
<rect x="12" y="26" width="1" height="1" fill="#edfbfb"/>
<rect x="16" y="26" width="1" height="1" fill="#edfbfb"/>
<rect x="14" y="26" width="2" height="1" fill="#ebfafa"/>
<rect x="11" y="26" width="1" height="1" fill="#effcfc"/>
<rect x="6" y="26" width="1" height="1" fill="#ebfafa"/>
<rect x="3" y="26" width="1" height="1" fill="#fdfefe"/>
<rect x="5" y="26" width="1" height="1" fill="#ebfbfb"/>
<rect x="27" y="26" width="1" height="1" fill="#cfd6d6"/>
<rect x="28" y="26" width="3" height="2" fill="#cbd0d0"/>
<rect x="31" y="26" width="1" height="2" fill="#c5cdcd"/>
<rect x="4" y="27" width="1" height="1" fill="#f1fdfd"/>
<rect x="11" y="27" width="3" height="1" fill="#e7f4f4"/>
<rect x="7" y="27" width="1" height="1" fill="#f1fdfd"/>
<rect x="23" y="27" width="4" height="1" fill="#e3e3e3"/>
<rect x="0" y="27" width="2" height="1" fill="#f7ffff"/>
<rect x="21" y="27" width="2" height="1" fill="#dae6e5"/>
<rect x="5" y="27" width="2" height="1" fill="#f4fefe"/>
<rect x="2" y="27" width="1" height="1" fill="#feffff"/>
<rect x="9" y="27" width="2" height="1" fill="#ebfafa"/>
<rect x="14" y="27" width="7" height="1" fill="#e8e9e9"/>
<rect x="27" y="27" width="1" height="1" fill="#d8e0df"/>
<rect x="8" y="27" width="1" height="1" fill="#ebfbfb"/>
<rect x="3" y="27" width="1" height="2" fill="#fdffff"/>
<rect x="6" y="28" width="1" height="1" fill="#ecfafa"/>
<rect x="9" y="28" width="6" height="1" fill="#e8e9e9"/>
<rect x="5" y="28" width="1" height="1" fill="#f2fcfc"/>
<rect x="2" y="28" width="1" height="1" fill="#ffffff"/>
<rect x="21" y="28" width="1" height="1" fill="#d8e0df"/>
<rect x="4" y="28" width="1" height="1" fill="#f4fdfd"/>
<rect x="25" y="28" width="3" height="1" fill="#e3e3e3"/>
<rect x="30" y="28" width="2" height="1" fill="#c5cdcd"/>
<rect x="15" y="28" width="2" height="1" fill="#dae6e5"/>
<rect x="7" y="28" width="2" height="1" fill="#e7f4f4"/>
<rect x="29" y="28" width="1" height="1" fill="#cbd0d0"/>
<rect x="0" y="28" width="2" height="1" fill="#feffff"/>
<rect x="17" y="28" width="4" height="1" fill="#e3e3e3"/>
<rect x="22" y="28" width="3" height="2" fill="#cfd6d6"/>
<rect x="2" y="29" width="1" height="1" fill="#e8e9e9"/>
<rect x="16" y="29" width="1" height="1" fill="#dae6e5"/>
<rect x="25" y="29" width="1" height="1" fill="#d8e0df"/>
<rect x="10" y="29" width="2" height="1" fill="#e8e9e9"/>
<rect x="17" y="29" width="1" height="1" fill="#e3e3e3"/>
<rect x="1" y="29" width="1" height="1" fill="#f2f6f6"/>
<rect x="12" y="29" width="4" height="1" fill="#e3e3e3"/>
<rect x="3" y="29" width="7" height="1" fill="#dae6e5"/>
<rect x="0" y="29" width="1" height="1" fill="#f7fdfd"/>
<rect x="19" y="29" width="3" height="1" fill="#d8e0df"/>
<rect x="26" y="29" width="2" height="1" fill="#e3e3e3"/>
<rect x="28" y="28" width="1" height="3" fill="#cfd6d6"/>
<rect x="30" y="29" width="2" height="2" fill="#a9b0b0"/>
<rect x="29" y="29" width="1" height="2" fill="#c5cdcd"/>
<rect x="18" y="29" width="1" height="2" fill="#dae6e5"/>
<rect x="6" y="30" width="1" height="1" fill="#d8e0df"/>
<rect x="4" y="30" width="2" height="1" fill="#cfd6d6"/>
<rect x="0" y="30" width="2" height="1" fill="#e8e9e9"/>
<rect x="3" y="30" width="1" height="1" fill="#d8e0df"/>
<rect x="22" y="30" width="2" height="1" fill="#cfd6d6"/>
<rect x="11" y="30" width="2" height="1" fill="#dae6e5"/>
<rect x="19" y="30" width="2" height="1" fill="#d8e0df"/>
<rect x="2" y="30" width="1" height="1" fill="#e3e3e3"/>
<rect x="24" y="30" width="1" height="1" fill="#d8e0df"/>
<rect x="21" y="30" width="1" height="1" fill="#dae6e5"/>
<rect x="10" y="30" width="1" height="1" fill="#e3e3e3"/>
<rect x="7" y="30" width="3" height="1" fill="#dae6e5"/>
<rect x="13" y="30" width="5" height="1" fill="#e3e3e3"/>
<rect x="25" y="30" width="3" height="2" fill="#e3e3e3"/>
<rect x="8" y="31" width="3" height="1" fill="#e3e3e3"/>
<rect x="7" y="31" width="1" height="1" fill="#dae6e5"/>
<rect x="17" y="31" width="2" height="1" fill="#e3e3e3"/>
<rect x="20" y="31" width="3" height="1" fill="#d8e0df"/>
<rect x="23" y="31" width="2" height="1" fill="#cfd6d6"/>
<rect x="29" y="31" width="3" height="1" fill="#a9b0b0"/>
<rect x="11" y="31" width="1" height="1" fill="#dae6e5"/>
<rect x="12" y="31" width="1" height="1" fill="#d8e0df"/>
<rect x="3" y="31" width="4" height="1" fill="#d8e0df"/>
<rect x="16" y="31" width="1" height="1" fill="#d8e0df"/>
<rect x="13" y="31" width="3" height="1" fill="#e3e3e3"/>
<rect x="19" y="31" width="1" height="1" fill="#dae6e5"/>
<rect x="28" y="31" width="1" height="1" fill="#cbd0d0"/>
<rect x="0" y="31" width="3" height="1" fill="#e3e3e3"/>
</svg>