<?xml version="1.0" encoding="UTF-8"?>
<svg xmlns="http://www.w3.org/2000/svg" width="20mm" height="20mm" viewBox="0 0 32 32" shape-rendering="crispEdges">
<title>018 顶面 structured semantic redraw</title>
<metadata>registered 32-unit semantic vector redraw; no embedded raster; physical-size=20mm</metadata>
<rect x="0" y="0" width="32" height="32" fill="#846654"/>
<rect x="15" y="0" width="1" height="1" fill="#a67f61"/>
<rect x="6" y="0" width="1" height="1" fill="#98725a"/>
<rect x="26" y="0" width="1" height="1" fill="#a0755c"/>
<rect x="8" y="0" width="2" height="1" fill="#c29c71"/>
<rect x="3" y="0" width="1" height="1" fill="#916b56"/>
<rect x="14" y="0" width="1" height="1" fill="#997f60"/>
<rect x="12" y="0" width="1" height="1" fill="#916b56"/>
<rect x="2" y="0" width="1" height="1" fill="#98725a"/>
<rect x="30" y="0" width="1" height="1" fill="#c29c71"/>
<rect x="27" y="0" width="2" height="1" fill="#93785d"/>
<rect x="31" y="0" width="1" height="1" fill="#e3c78a"/>
<rect x="1" y="0" width="1" height="1" fill="#d89a71"/>
<rect x="10" y="0" width="2" height="1" fill="#d0956f"/>
<rect x="5" y="0" width="1" height="1" fill="#866955"/>
<rect x="13" y="0" width="1" height="1" fill="#8b6e58"/>
<rect x="25" y="0" width="1" height="1" fill="#a67f61"/>
<rect x="7" y="0" width="1" height="1" fill="#b78666"/>
<rect x="18" y="0" width="4" height="1" fill="#fbf1da"/>
<rect x="16" y="0" width="2" height="1" fill="#d89a71"/>
<rect x="0" y="0" width="1" height="1" fill="#e3c78a"/>
<rect x="23" y="0" width="1" height="1" fill="#e3c78a"/>
<rect x="24" y="0" width="1" height="1" fill="#d2ac7f"/>
<rect x="22" y="0" width="1" height="1" fill="#fae29e"/>
<rect x="29" y="0" width="1" height="1" fill="#987d5f"/>
<rect x="19" y="1" width="1" height="1" fill="#896b57"/>
<rect x="23" y="1" width="2" height="1" fill="#d89a71"/>
<rect x="26" y="1" width="1" height="1" fill="#866955"/>
<rect x="14" y="1" width="1" height="1" fill="#987d5f"/>
<rect x="9" y="1" width="1" height="1" fill="#956d58"/>
<rect x="12" y="1" width="1" height="1" fill="#8b6e58"/>
<rect x="6" y="1" width="2" height="1" fill="#896b57"/>
<rect x="22" y="1" width="1" height="1" fill="#f1d58f"/>
<rect x="25" y="1" width="1" height="1" fill="#90715a"/>
<rect x="3" y="1" width="1" height="1" fill="#a67f61"/>
<rect x="2" y="1" width="1" height="1" fill="#d0956f"/>
<rect x="27" y="1" width="1" height="1" fill="#8b6e58"/>
<rect x="5" y="1" width="1" height="1" fill="#876b56"/>
<rect x="0" y="1" width="1" height="1" fill="#fae29e"/>
<rect x="15" y="1" width="1" height="1" fill="#997f60"/>
<rect x="1" y="1" width="1" height="1" fill="#f1d58f"/>
<rect x="13" y="1" width="1" height="1" fill="#876b56"/>
<rect x="29" y="1" width="3" height="1" fill="#93785d"/>
<rect x="10" y="1" width="2" height="1" fill="#b78666"/>
<rect x="16" y="1" width="1" height="1" fill="#98725a"/>
<rect x="20" y="1" width="1" height="1" fill="#d2ac7f"/>
<rect x="21" y="1" width="1" height="1" fill="#fee388"/>
<rect x="17" y="1" width="2" height="1" fill="#90715a"/>
<rect x="8" y="1" width="1" height="2" fill="#916b56"/>
<rect x="28" y="1" width="1" height="2" fill="#997f60"/>
<rect x="25" y="2" width="1" height="1" fill="#93785d"/>
<rect x="2" y="2" width="1" height="1" fill="#a67f61"/>
<rect x="31" y="2" width="1" height="1" fill="#81604c"/>
<rect x="9" y="2" width="1" height="1" fill="#866955"/>
<rect x="14" y="2" width="1" height="1" fill="#997f60"/>
<rect x="3" y="2" width="1" height="1" fill="#a0755c"/>
<rect x="18" y="2" width="1" height="1" fill="#987d5f"/>
<rect x="10" y="2" width="4" height="1" fill="#876b56"/>
<rect x="4" y="2" width="1" height="1" fill="#93785d"/>
<rect x="15" y="2" width="3" height="1" fill="#a4896a"/>
<rect x="26" y="2" width="2" height="1" fill="#987d5f"/>
<rect x="24" y="2" width="1" height="1" fill="#98725a"/>
<rect x="1" y="2" width="1" height="1" fill="#e3c78a"/>
<rect x="20" y="2" width="1" height="1" fill="#997f60"/>
<rect x="21" y="2" width="1" height="1" fill="#c29c71"/>
<rect x="5" y="2" width="3" height="1" fill="#956d58"/>
<rect x="30" y="2" width="1" height="1" fill="#997f60"/>
<rect x="22" y="2" width="1" height="1" fill="#b78666"/>
<rect x="23" y="2" width="1" height="1" fill="#a0755c"/>
<rect x="0" y="2" width="1" height="1" fill="#f1d58f"/>
<rect x="29" y="2" width="1" height="1" fill="#987d5f"/>
<rect x="19" y="2" width="1" height="1" fill="#866955"/>
<rect x="31" y="3" width="1" height="1" fill="#997f60"/>
<rect x="9" y="3" width="1" height="1" fill="#916b56"/>
<rect x="2" y="3" width="1" height="1" fill="#896b57"/>
<rect x="19" y="3" width="2" height="1" fill="#876b56"/>
<rect x="30" y="3" width="1" height="1" fill="#c29c71"/>
<rect x="0" y="3" width="1" height="1" fill="#b78666"/>
<rect x="8" y="3" width="1" height="1" fill="#a67f61"/>
<rect x="25" y="3" width="1" height="1" fill="#876b56"/>
<rect x="18" y="3" width="1" height="1" fill="#dfbb89"/>
<rect x="3" y="3" width="1" height="1" fill="#93785d"/>
<rect x="7" y="3" width="1" height="1" fill="#b78666"/>
<rect x="17" y="3" width="1" height="1" fill="#fee388"/>
<rect x="26" y="3" width="3" height="1" fill="#a4896a"/>
<rect x="29" y="3" width="1" height="1" fill="#b78666"/>
<rect x="16" y="3" width="1" height="1" fill="#fbf1da"/>
<rect x="6" y="3" width="1" height="1" fill="#c29c71"/>
<rect x="1" y="3" width="1" height="1" fill="#d0956f"/>
<rect x="4" y="3" width="1" height="1" fill="#a67f61"/>
<rect x="10" y="3" width="1" height="1" fill="#896b57"/>
<rect x="5" y="3" width="1" height="1" fill="#b78666"/>
<rect x="12" y="3" width="2" height="1" fill="#876b56"/>
<rect x="11" y="3" width="1" height="2" fill="#866955"/>
<rect x="14" y="3" width="1" height="2" fill="#dfbb89"/>
<rect x="15" y="3" width="1" height="2" fill="#fffdf6"/>
<rect x="13" y="4" width="1" height="1" fill="#a4896a"/>
<rect x="10" y="4" width="1" height="1" fill="#956d58"/>
<rect x="7" y="4" width="1" height="1" fill="#d89a71"/>
<rect x="12" y="4" width="1" height="1" fill="#90715a"/>
<rect x="24" y="4" width="2" height="1" fill="#987d5f"/>
<rect x="16" y="4" width="1" height="1" fill="#fff8e4"/>
<rect x="22" y="4" width="1" height="1" fill="#876b56"/>
<rect x="27" y="4" width="1" height="1" fill="#fff8e4"/>
<rect x="9" y="4" width="1" height="1" fill="#98725a"/>
<rect x="31" y="4" width="1" height="1" fill="#e3c78a"/>
<rect x="5" y="4" width="1" height="1" fill="#f1d58f"/>
<rect x="17" y="4" width="2" height="1" fill="#feecb1"/>
<rect x="28" y="4" width="1" height="1" fill="#fbf1da"/>
<rect x="0" y="4" width="1" height="1" fill="#90715a"/>
<rect x="29" y="4" width="1" height="1" fill="#fee388"/>
<rect x="26" y="4" width="1" height="1" fill="#feecb1"/>
<rect x="2" y="4" width="1" height="1" fill="#987d5f"/>
<rect x="1" y="4" width="1" height="1" fill="#866955"/>
<rect x="30" y="4" width="1" height="1" fill="#fde186"/>
<rect x="4" y="4" width="1" height="1" fill="#d89a71"/>
<rect x="19" y="4" width="2" height="1" fill="#c48d69"/>
<rect x="8" y="4" width="1" height="1" fill="#d0956f"/>
<rect x="3" y="4" width="1" height="1" fill="#b78666"/>
<rect x="23" y="4" width="1" height="1" fill="#8b6e58"/>
<rect x="21" y="4" width="1" height="1" fill="#98725a"/>
<rect x="6" y="4" width="1" height="1" fill="#fee388"/>
<rect x="17" y="5" width="2" height="1" fill="#fff9e5"/>
<rect x="26" y="5" width="1" height="1" fill="#dfbb89"/>
<rect x="21" y="5" width="1" height="1" fill="#b78666"/>
<rect x="15" y="5" width="2" height="1" fill="#fff8e4"/>
<rect x="3" y="5" width="1" height="1" fill="#dfbb89"/>
<rect x="10" y="5" width="1" height="1" fill="#c48d69"/>
<rect x="14" y="5" width="1" height="1" fill="#fae29e"/>
<rect x="12" y="5" width="1" height="1" fill="#a67f61"/>
<rect x="2" y="5" width="1" height="1" fill="#c48d69"/>
<rect x="4" y="5" width="5" height="1" fill="#fbf1da"/>
<rect x="29" y="5" width="1" height="1" fill="#feecb1"/>
<rect x="24" y="5" width="2" height="1" fill="#a4896a"/>
<rect x="19" y="5" width="1" height="1" fill="#dfbb89"/>
<rect x="1" y="5" width="1" height="1" fill="#896b57"/>
<rect x="0" y="5" width="1" height="1" fill="#8b6e58"/>
<rect x="27" y="5" width="2" height="1" fill="#fff9e5"/>
<rect x="13" y="5" width="1" height="1" fill="#fee388"/>
<rect x="9" y="5" width="1" height="1" fill="#d89a71"/>
<rect x="20" y="5" width="1" height="1" fill="#d89a71"/>
<rect x="22" y="5" width="2" height="1" fill="#896b57"/>
<rect x="31" y="5" width="1" height="2" fill="#fde186"/>
<rect x="30" y="5" width="1" height="2" fill="#fee388"/>
<rect x="26" y="6" width="1" height="1" fill="#fff8e4"/>
<rect x="13" y="6" width="2" height="1" fill="#dfbb89"/>
<rect x="20" y="6" width="1" height="1" fill="#a0755c"/>
<rect x="24" y="6" width="1" height="1" fill="#e3c78a"/>
<rect x="25" y="6" width="1" height="1" fill="#fbf1da"/>
<rect x="11" y="6" width="1" height="1" fill="#916b56"/>
<rect x="29" y="6" width="1" height="1" fill="#fff8e4"/>
<rect x="3" y="6" width="1" height="1" fill="#e3c78a"/>
<rect x="5" y="6" width="1" height="1" fill="#fff9e5"/>
<rect x="18" y="6" width="1" height="1" fill="#d2ac7f"/>
<rect x="10" y="6" width="1" height="1" fill="#d2ac7f"/>
<rect x="1" y="6" width="1" height="1" fill="#8b6e58"/>
<rect x="6" y="6" width="1" height="1" fill="#fff8e4"/>
<rect x="4" y="6" width="1" height="1" fill="#fffdf6"/>
<rect x="7" y="6" width="1" height="1" fill="#fbf1da"/>
<rect x="27" y="6" width="2" height="1" fill="#fffdf6"/>
<rect x="0" y="6" width="1" height="1" fill="#876b56"/>
<rect x="8" y="6" width="1" height="1" fill="#feecb1"/>
<rect x="21" y="6" width="1" height="1" fill="#98725a"/>
<rect x="2" y="6" width="1" height="1" fill="#d89a71"/>
<rect x="15" y="6" width="2" height="1" fill="#fae29e"/>
<rect x="9" y="6" width="1" height="1" fill="#dfbb89"/>
<rect x="19" y="6" width="1" height="2" fill="#c48d69"/>
<rect x="17" y="6" width="1" height="2" fill="#dfbb89"/>
<rect x="22" y="6" width="2" height="2" fill="#987d5f"/>
<rect x="12" y="6" width="1" height="2" fill="#98725a"/>
<rect x="18" y="7" width="1" height="1" fill="#d0956f"/>
<rect x="11" y="7" width="1" height="1" fill="#a0755c"/>
<rect x="8" y="7" width="2" height="1" fill="#fee388"/>
<rect x="30" y="7" width="1" height="1" fill="#f1d58f"/>
<rect x="10" y="7" width="1" height="1" fill="#fde186"/>
<rect x="27" y="7" width="1" height="1" fill="#fff8e4"/>
<rect x="24" y="7" width="1" height="1" fill="#c29c71"/>
<rect x="28" y="7" width="2" height="1" fill="#fff9e5"/>
<rect x="31" y="7" width="1" height="1" fill="#e3c78a"/>
<rect x="2" y="7" width="1" height="1" fill="#fde186"/>
<rect x="14" y="7" width="1" height="1" fill="#d89a71"/>
<rect x="25" y="7" width="2" height="1" fill="#fbf1da"/>
<rect x="4" y="7" width="1" height="1" fill="#fff9e5"/>
<rect x="0" y="7" width="1" height="1" fill="#916b56"/>
<rect x="7" y="7" width="1" height="1" fill="#fae29e"/>
<rect x="5" y="7" width="2" height="1" fill="#fff8e4"/>
<rect x="3" y="7" width="1" height="1" fill="#fae29e"/>
<rect x="16" y="7" width="1" height="1" fill="#fde186"/>
<rect x="1" y="7" width="1" height="1" fill="#98725a"/>
<rect x="20" y="7" width="2" height="1" fill="#956d58"/>
<rect x="15" y="7" width="1" height="1" fill="#f1d58f"/>
<rect x="13" y="7" width="1" height="1" fill="#d0956f"/>
<rect x="0" y="8" width="1" height="1" fill="#896b57"/>
<rect x="12" y="8" width="1" height="1" fill="#876754"/>
<rect x="5" y="8" width="1" height="1" fill="#fae29e"/>
<rect x="7" y="8" width="2" height="1" fill="#fee388"/>
<rect x="21" y="8" width="1" height="1" fill="#997f60"/>
<rect x="6" y="8" width="1" height="1" fill="#feecb1"/>
<rect x="23" y="8" width="1" height="1" fill="#956d58"/>
<rect x="27" y="8" width="1" height="1" fill="#d2ac7f"/>
<rect x="14" y="8" width="2" height="1" fill="#a0755c"/>
<rect x="30" y="8" width="1" height="1" fill="#c29c71"/>
<rect x="17" y="8" width="3" height="1" fill="#90715a"/>
<rect x="13" y="8" width="1" height="1" fill="#98725a"/>
<rect x="24" y="8" width="1" height="1" fill="#98725a"/>
<rect x="10" y="8" width="1" height="1" fill="#d2ac7f"/>
<rect x="1" y="8" width="1" height="1" fill="#916b56"/>
<rect x="11" y="8" width="1" height="1" fill="#98725a"/>
<rect x="22" y="8" width="1" height="1" fill="#98725a"/>
<rect x="20" y="8" width="1" height="1" fill="#987d5f"/>
<rect x="16" y="8" width="1" height="1" fill="#93785d"/>
<rect x="4" y="8" width="1" height="1" fill="#e3c78a"/>
<rect x="2" y="8" width="2" height="1" fill="#c29c71"/>
<rect x="28" y="8" width="2" height="1" fill="#fee388"/>
<rect x="9" y="8" width="1" height="1" fill="#dfbb89"/>
<rect x="25" y="8" width="2" height="1" fill="#d89a71"/>
<rect x="25" y="9" width="1" height="1" fill="#c48d69"/>
<rect x="30" y="9" width="1" height="1" fill="#e3c78a"/>
<rect x="10" y="9" width="1" height="1" fill="#d0956f"/>
<rect x="11" y="9" width="1" height="1" fill="#a0755c"/>
<rect x="26" y="9" width="2" height="1" fill="#d0956f"/>
<rect x="31" y="9" width="1" height="1" fill="#90715a"/>
<rect x="5" y="9" width="1" height="1" fill="#dfbb89"/>
<rect x="23" y="9" width="2" height="1" fill="#956d58"/>
<rect x="13" y="9" width="1" height="1" fill="#916b56"/>
<rect x="28" y="9" width="2" height="1" fill="#f1d58f"/>
<rect x="6" y="9" width="2" height="1" fill="#fde186"/>
<rect x="3" y="9" width="1" height="1" fill="#98725a"/>
<rect x="8" y="9" width="1" height="1" fill="#fee388"/>
<rect x="20" y="9" width="3" height="1" fill="#987d5f"/>
<rect x="4" y="9" width="1" height="1" fill="#d89a71"/>
<rect x="9" y="9" width="1" height="1" fill="#d2ac7f"/>
<rect x="0" y="9" width="1" height="1" fill="#876b56"/>
<rect x="18" y="9" width="2" height="1" fill="#90715a"/>
<rect x="15" y="9" width="1" height="1" fill="#916b56"/>
<rect x="14" y="9" width="1" height="1" fill="#956d58"/>
<rect x="16" y="9" width="2" height="1" fill="#866955"/>
<rect x="0" y="10" width="1" height="1" fill="#c29c71"/>
<rect x="17" y="10" width="1" height="1" fill="#997f60"/>
<rect x="31" y="10" width="1" height="1" fill="#b78666"/>
<rect x="15" y="10" width="1" height="1" fill="#896b57"/>
<rect x="26" y="10" width="2" height="1" fill="#98725a"/>
<rect x="1" y="10" width="1" height="1" fill="#987d5f"/>
<rect x="2" y="10" width="1" height="1" fill="#896b57"/>
<rect x="3" y="10" width="1" height="1" fill="#876b56"/>
<rect x="29" y="10" width="1" height="1" fill="#8b6e58"/>
<rect x="8" y="10" width="1" height="1" fill="#d89a71"/>
<rect x="20" y="10" width="1" height="1" fill="#c29c71"/>
<rect x="14" y="10" width="1" height="1" fill="#876754"/>
<rect x="19" y="10" width="1" height="1" fill="#fde186"/>
<rect x="11" y="10" width="1" height="1" fill="#896b57"/>
<rect x="30" y="10" width="1" height="1" fill="#896b57"/>
<rect x="23" y="10" width="3" height="1" fill="#987d5f"/>
<rect x="22" y="10" width="1" height="1" fill="#98725a"/>
<rect x="7" y="10" width="1" height="1" fill="#c48d69"/>
<rect x="6" y="10" width="1" height="1" fill="#a0755c"/>
<rect x="10" y="10" width="1" height="1" fill="#8b6e58"/>
<rect x="28" y="10" width="1" height="1" fill="#90715a"/>
<rect x="5" y="10" width="1" height="1" fill="#98725a"/>
<rect x="21" y="10" width="1" height="1" fill="#956d58"/>
<rect x="4" y="10" width="1" height="1" fill="#8b6e58"/>
<rect x="16" y="10" width="1" height="1" fill="#987d5f"/>
<rect x="12" y="10" width="2" height="1" fill="#876b56"/>
<rect x="9" y="10" width="1" height="2" fill="#a67f61"/>
<rect x="18" y="10" width="1" height="2" fill="#e3c78a"/>
<rect x="1" y="11" width="1" height="1" fill="#a4896a"/>
<rect x="20" y="11" width="1" height="1" fill="#e3c78a"/>
<rect x="19" y="11" width="1" height="1" fill="#fee388"/>
<rect x="26" y="11" width="2" height="1" fill="#956d58"/>
<rect x="25" y="11" width="1" height="1" fill="#987d5f"/>
<rect x="7" y="11" width="1" height="1" fill="#a67f61"/>
<rect x="11" y="11" width="1" height="1" fill="#866955"/>
<rect x="12" y="11" width="1" height="1" fill="#8b6e58"/>
<rect x="16" y="11" width="2" height="1" fill="#a4896a"/>
<rect x="29" y="11" width="1" height="1" fill="#866955"/>
<rect x="23" y="11" width="1" height="1" fill="#987d5f"/>
<rect x="3" y="11" width="1" height="1" fill="#896b57"/>
<rect x="4" y="11" width="1" height="1" fill="#866955"/>
<rect x="0" y="11" width="1" height="1" fill="#d2ac7f"/>
<rect x="21" y="11" width="2" height="1" fill="#98725a"/>
<rect x="13" y="11" width="1" height="1" fill="#876b56"/>
<rect x="15" y="11" width="1" height="1" fill="#876754"/>
<rect x="5" y="11" width="1" height="1" fill="#896b57"/>
<rect x="24" y="11" width="1" height="1" fill="#997f60"/>
<rect x="31" y="11" width="1" height="1" fill="#98725a"/>
<rect x="8" y="11" width="1" height="1" fill="#d0956f"/>
<rect x="2" y="11" width="1" height="1" fill="#8b6e58"/>
<rect x="28" y="11" width="1" height="1" fill="#916b56"/>
<rect x="6" y="11" width="1" height="1" fill="#956d58"/>
<rect x="2" y="12" width="1" height="1" fill="#a0755c"/>
<rect x="28" y="12" width="1" height="1" fill="#8b6e58"/>
<rect x="29" y="12" width="1" height="1" fill="#d2ac7f"/>
<rect x="23" y="12" width="1" height="1" fill="#c29c71"/>
<rect x="24" y="12" width="1" height="1" fill="#876b56"/>
<rect x="11" y="12" width="1" height="1" fill="#8b6e58"/>
<rect x="21" y="12" width="2" height="1" fill="#f1d58f"/>
<rect x="17" y="12" width="1" height="1" fill="#fffdf6"/>
<rect x="0" y="12" width="1" height="1" fill="#feecb1"/>
<rect x="9" y="12" width="1" height="1" fill="#956d58"/>
<rect x="7" y="12" width="1" height="1" fill="#896b57"/>
<rect x="14" y="12" width="2" height="1" fill="#956d58"/>
<rect x="18" y="12" width="1" height="1" fill="#fff8e4"/>
<rect x="3" y="12" width="1" height="1" fill="#956d58"/>
<rect x="12" y="12" width="2" height="1" fill="#987d5f"/>
<rect x="10" y="12" width="1" height="1" fill="#876b56"/>
<rect x="8" y="12" width="1" height="1" fill="#98725a"/>
<rect x="1" y="12" width="1" height="1" fill="#fee388"/>
<rect x="19" y="12" width="2" height="1" fill="#fbf1da"/>
<rect x="30" y="12" width="2" height="1" fill="#e3c78a"/>
<rect x="5" y="12" width="1" height="1" fill="#93785d"/>
<rect x="16" y="12" width="1" height="1" fill="#fbf1da"/>
<rect x="25" y="12" width="3" height="1" fill="#896b57"/>
<rect x="4" y="12" width="1" height="2" fill="#987d5f"/>
<rect x="9" y="13" width="1" height="1" fill="#a0755c"/>
<rect x="30" y="13" width="2" height="1" fill="#fee388"/>
<rect x="15" y="13" width="1" height="1" fill="#956d58"/>
<rect x="24" y="13" width="1" height="1" fill="#866955"/>
<rect x="26" y="13" width="1" height="1" fill="#866955"/>
<rect x="3" y="13" width="1" height="1" fill="#a67f61"/>
<rect x="0" y="13" width="1" height="1" fill="#fae29e"/>
<rect x="29" y="13" width="1" height="1" fill="#c29c71"/>
<rect x="1" y="13" width="1" height="1" fill="#e3c78a"/>
<rect x="6" y="13" width="2" height="1" fill="#a4896a"/>
<rect x="8" y="13" width="1" height="1" fill="#a67f61"/>
<rect x="22" y="13" width="1" height="1" fill="#fee388"/>
<rect x="2" y="13" width="1" height="1" fill="#b78666"/>
<rect x="16" y="13" width="1" height="1" fill="#feecb1"/>
<rect x="10" y="13" width="2" height="1" fill="#90715a"/>
<rect x="17" y="13" width="2" height="1" fill="#fffdf6"/>
<rect x="23" y="13" width="1" height="1" fill="#f1d58f"/>
<rect x="27" y="13" width="2" height="1" fill="#876b56"/>
<rect x="5" y="13" width="1" height="1" fill="#997f60"/>
<rect x="14" y="13" width="1" height="1" fill="#98725a"/>
<rect x="21" y="13" width="1" height="2" fill="#fae29e"/>
<rect x="19" y="13" width="2" height="2" fill="#fff8e4"/>
<rect x="12" y="13" width="1" height="2" fill="#997f60"/>
<rect x="17" y="14" width="2" height="1" fill="#fff9e5"/>
<rect x="9" y="14" width="1" height="1" fill="#f1d58f"/>
<rect x="4" y="14" width="1" height="1" fill="#956d58"/>
<rect x="15" y="14" width="1" height="1" fill="#d0956f"/>
<rect x="16" y="14" width="1" height="1" fill="#e3c78a"/>
<rect x="31" y="14" width="1" height="1" fill="#dfbb89"/>
<rect x="24" y="14" width="1" height="1" fill="#98725a"/>
<rect x="22" y="14" width="2" height="1" fill="#d2ac7f"/>
<rect x="6" y="14" width="1" height="1" fill="#fff8e4"/>
<rect x="3" y="14" width="1" height="1" fill="#d0956f"/>
<rect x="7" y="14" width="1" height="1" fill="#fbf1da"/>
<rect x="27" y="14" width="2" height="1" fill="#90715a"/>
<rect x="8" y="14" width="1" height="1" fill="#fee388"/>
<rect x="0" y="14" width="1" height="1" fill="#dfbb89"/>
<rect x="1" y="14" width="2" height="1" fill="#d89a71"/>
<rect x="29" y="14" width="1" height="1" fill="#997f60"/>
<rect x="5" y="14" width="1" height="1" fill="#a4896a"/>
<rect x="30" y="14" width="1" height="1" fill="#d2ac7f"/>
<rect x="13" y="13" width="1" height="3" fill="#987d5f"/>
<rect x="14" y="14" width="1" height="2" fill="#c48d69"/>
<rect x="10" y="14" width="2" height="2" fill="#d0956f"/>
<rect x="0" y="15" width="1" height="1" fill="#c29c71"/>
<rect x="21" y="15" width="1" height="1" fill="#fbf1da"/>
<rect x="28" y="15" width="2" height="1" fill="#997f60"/>
<rect x="1" y="15" width="3" height="1" fill="#b78666"/>
<rect x="24" y="15" width="1" height="1" fill="#a67f61"/>
<rect x="16" y="15" width="1" height="1" fill="#dfbb89"/>
<rect x="17" y="15" width="1" height="1" fill="#fff9e5"/>
<rect x="12" y="15" width="1" height="1" fill="#a67f61"/>
<rect x="8" y="15" width="2" height="1" fill="#fde186"/>
<rect x="30" y="15" width="2" height="1" fill="#987d5f"/>
<rect x="18" y="15" width="3" height="1" fill="#fff8e4"/>
<rect x="6" y="15" width="2" height="1" fill="#fbf1da"/>
<rect x="22" y="15" width="2" height="1" fill="#d89a71"/>
<rect x="15" y="15" width="1" height="1" fill="#d89a71"/>
<rect x="27" y="15" width="1" height="1" fill="#93785d"/>
<rect x="4" y="15" width="1" height="1" fill="#a67f61"/>
<rect x="5" y="15" width="1" height="1" fill="#b78666"/>
<rect x="22" y="16" width="2" height="1" fill="#c48d69"/>
<rect x="19" y="16" width="3" height="1" fill="#feecb1"/>
<rect x="11" y="16" width="5" height="1" fill="#98725a"/>
<rect x="24" y="16" width="1" height="1" fill="#b78666"/>
<rect x="8" y="16" width="2" height="1" fill="#d89a71"/>
<rect x="1" y="16" width="1" height="1" fill="#956d58"/>
<rect x="5" y="16" width="1" height="1" fill="#d89a71"/>
<rect x="6" y="16" width="1" height="1" fill="#fee388"/>
<rect x="27" y="16" width="1" height="1" fill="#8b6e58"/>
<rect x="17" y="16" width="1" height="1" fill="#dfbb89"/>
<rect x="18" y="16" width="1" height="1" fill="#e3c78a"/>
<rect x="0" y="16" width="1" height="1" fill="#a67f61"/>
<rect x="28" y="16" width="4" height="1" fill="#987d5f"/>
<rect x="7" y="16" width="1" height="1" fill="#fde186"/>
<rect x="16" y="16" width="1" height="1" fill="#a67f61"/>
<rect x="4" y="16" width="1" height="1" fill="#d0956f"/>
<rect x="3" y="16" width="1" height="1" fill="#876754"/>
<rect x="10" y="16" width="1" height="2" fill="#a0755c"/>
<rect x="28" y="17" width="1" height="1" fill="#8b6e58"/>
<rect x="31" y="17" width="1" height="1" fill="#987d5f"/>
<rect x="0" y="17" width="1" height="1" fill="#956d58"/>
<rect x="18" y="17" width="1" height="1" fill="#d0956f"/>
<rect x="30" y="17" width="1" height="1" fill="#8b6e58"/>
<rect x="7" y="17" width="1" height="1" fill="#f1d58f"/>
<rect x="8" y="17" width="1" height="1" fill="#d89a71"/>
<rect x="29" y="17" width="1" height="1" fill="#876b56"/>
<rect x="9" y="17" width="1" height="1" fill="#d0956f"/>
<rect x="1" y="17" width="1" height="1" fill="#916b56"/>
<rect x="19" y="17" width="1" height="1" fill="#d2ac7f"/>
<rect x="14" y="17" width="1" height="1" fill="#916b56"/>
<rect x="2" y="17" width="2" height="1" fill="#8b6e58"/>
<rect x="6" y="17" width="1" height="1" fill="#e3c78a"/>
<rect x="11" y="17" width="3" height="1" fill="#956d58"/>
<rect x="4" y="17" width="2" height="1" fill="#c48d69"/>
<rect x="22" y="17" width="1" height="1" fill="#b78666"/>
<rect x="20" y="17" width="2" height="1" fill="#fee388"/>
<rect x="17" y="17" width="1" height="1" fill="#c48d69"/>
<rect x="23" y="17" width="2" height="2" fill="#956d58"/>
<rect x="8" y="18" width="1" height="1" fill="#997f60"/>
<rect x="17" y="18" width="1" height="1" fill="#b78666"/>
<rect x="28" y="18" width="3" height="1" fill="#876b56"/>
<rect x="9" y="18" width="1" height="1" fill="#a67f61"/>
<rect x="20" y="18" width="2" height="1" fill="#fde186"/>
<rect x="19" y="18" width="1" height="1" fill="#d0956f"/>
<rect x="18" y="18" width="1" height="1" fill="#c48d69"/>
<rect x="11" y="18" width="3" height="1" fill="#e3c78a"/>
<rect x="16" y="18" width="1" height="1" fill="#8b6e58"/>
<rect x="7" y="18" width="1" height="1" fill="#896b57"/>
<rect x="14" y="18" width="1" height="1" fill="#d2ac7f"/>
<rect x="2" y="18" width="1" height="1" fill="#93785d"/>
<rect x="4" y="18" width="2" height="1" fill="#956d58"/>
<rect x="15" y="18" width="1" height="1" fill="#90715a"/>
<rect x="25" y="18" width="1" height="1" fill="#896b57"/>
<rect x="3" y="18" width="1" height="1" fill="#997f60"/>
<rect x="31" y="18" width="1" height="1" fill="#93785d"/>
<rect x="22" y="18" width="1" height="1" fill="#d2ac7f"/>
<rect x="6" y="18" width="1" height="2" fill="#876754"/>
<rect x="4" y="19" width="2" height="1" fill="#a0755c"/>
<rect x="31" y="19" width="1" height="1" fill="#90715a"/>
<rect x="17" y="19" width="1" height="1" fill="#90715a"/>
<rect x="29" y="19" width="1" height="1" fill="#8b6e58"/>
<rect x="0" y="19" width="2" height="1" fill="#8b6e58"/>
<rect x="15" y="19" width="1" height="1" fill="#a4896a"/>
<rect x="30" y="19" width="1" height="1" fill="#896b57"/>
<rect x="13" y="19" width="1" height="1" fill="#fff9e5"/>
<rect x="14" y="19" width="1" height="1" fill="#fff8e4"/>
<rect x="20" y="19" width="1" height="1" fill="#d0956f"/>
<rect x="11" y="19" width="1" height="1" fill="#fee388"/>
<rect x="19" y="19" width="1" height="1" fill="#876754"/>
<rect x="9" y="19" width="1" height="1" fill="#997f60"/>
<rect x="12" y="19" width="1" height="1" fill="#feecb1"/>
<rect x="2" y="19" width="2" height="1" fill="#c29c71"/>
<rect x="8" y="19" width="1" height="1" fill="#93785d"/>
<rect x="25" y="19" width="3" height="1" fill="#866955"/>
<rect x="23" y="19" width="2" height="1" fill="#876754"/>
<rect x="10" y="18" width="1" height="3" fill="#d2ac7f"/>
<rect x="28" y="19" width="1" height="2" fill="#896b57"/>
<rect x="21" y="19" width="1" height="2" fill="#d89a71"/>
<rect x="22" y="19" width="1" height="2" fill="#d0956f"/>
<rect x="16" y="19" width="1" height="2" fill="#997f60"/>
<rect x="23" y="20" width="1" height="1" fill="#896b57"/>
<rect x="1" y="20" width="1" height="1" fill="#997f60"/>
<rect x="15" y="20" width="1" height="1" fill="#c29c71"/>
<rect x="11" y="20" width="2" height="1" fill="#feecb1"/>
<rect x="0" y="20" width="1" height="1" fill="#93785d"/>
<rect x="8" y="20" width="1" height="1" fill="#8b6e58"/>
<rect x="29" y="20" width="3" height="1" fill="#956d58"/>
<rect x="3" y="20" width="1" height="1" fill="#fee388"/>
<rect x="20" y="20" width="1" height="1" fill="#c48d69"/>
<rect x="4" y="20" width="1" height="1" fill="#d89a71"/>
<rect x="9" y="20" width="1" height="1" fill="#90715a"/>
<rect x="26" y="20" width="2" height="1" fill="#876b56"/>
<rect x="5" y="20" width="1" height="1" fill="#d0956f"/>
<rect x="17" y="20" width="1" height="1" fill="#93785d"/>
<rect x="13" y="20" width="2" height="1" fill="#fff9e5"/>
<rect x="2" y="20" width="1" height="2" fill="#f1d58f"/>
<rect x="6" y="20" width="1" height="2" fill="#956d58"/>
<rect x="9" y="21" width="1" height="1" fill="#876b56"/>
<rect x="4" y="21" width="2" height="1" fill="#d89a71"/>
<rect x="24" y="21" width="1" height="1" fill="#876b56"/>
<rect x="20" y="21" width="1" height="1" fill="#a67f61"/>
<rect x="18" y="21" width="1" height="1" fill="#c48d69"/>
<rect x="23" y="21" width="1" height="1" fill="#98725a"/>
<rect x="15" y="21" width="1" height="1" fill="#feecb1"/>
<rect x="19" y="21" width="1" height="1" fill="#b78666"/>
<rect x="16" y="21" width="1" height="1" fill="#f1d58f"/>
<rect x="17" y="21" width="1" height="1" fill="#e3c78a"/>
<rect x="8" y="21" width="1" height="1" fill="#866955"/>
<rect x="0" y="21" width="2" height="1" fill="#c29c71"/>
<rect x="11" y="21" width="2" height="1" fill="#fff9e5"/>
<rect x="26" y="21" width="1" height="1" fill="#93785d"/>
<rect x="29" y="21" width="2" height="1" fill="#916b56"/>
<rect x="31" y="21" width="1" height="1" fill="#956d58"/>
<rect x="21" y="21" width="2" height="1" fill="#b78666"/>
<rect x="3" y="21" width="1" height="1" fill="#fae29e"/>
<rect x="27" y="21" width="2" height="1" fill="#8b6e58"/>
<rect x="10" y="21" width="1" height="1" fill="#c29c71"/>
<rect x="13" y="21" width="2" height="2" fill="#fffdf6"/>
<rect x="7" y="22" width="1" height="1" fill="#dfbb89"/>
<rect x="26" y="22" width="1" height="1" fill="#dfbb89"/>
<rect x="9" y="22" width="1" height="1" fill="#866955"/>
<rect x="16" y="22" width="2" height="1" fill="#fee388"/>
<rect x="10" y="22" width="1" height="1" fill="#a4896a"/>
<rect x="29" y="22" width="1" height="1" fill="#e3c78a"/>
<rect x="11" y="22" width="2" height="1" fill="#fbf1da"/>
<rect x="15" y="22" width="1" height="1" fill="#fbf1da"/>
<rect x="28" y="22" width="1" height="1" fill="#feecb1"/>
<rect x="20" y="22" width="1" height="1" fill="#c48d69"/>
<rect x="6" y="22" width="1" height="1" fill="#e3c78a"/>
<rect x="31" y="22" width="1" height="1" fill="#c29c71"/>
<rect x="4" y="22" width="2" height="1" fill="#fbf1da"/>
<rect x="0" y="22" width="1" height="1" fill="#e3c78a"/>
<rect x="1" y="22" width="1" height="1" fill="#fee388"/>
<rect x="8" y="22" width="1" height="1" fill="#a4896a"/>
<rect x="23" y="22" width="1" height="1" fill="#8b6e58"/>
<rect x="27" y="22" width="1" height="1" fill="#fbf1da"/>
<rect x="30" y="22" width="1" height="1" fill="#d2ac7f"/>
<rect x="18" y="22" width="2" height="1" fill="#d89a71"/>
<rect x="24" y="22" width="2" height="2" fill="#987d5f"/>
<rect x="2" y="22" width="1" height="2" fill="#fff9e5"/>
<rect x="14" y="23" width="1" height="1" fill="#feecb1"/>
<rect x="1" y="23" width="1" height="1" fill="#fde186"/>
<rect x="11" y="23" width="2" height="1" fill="#a4896a"/>
<rect x="30" y="23" width="2" height="1" fill="#fee388"/>
<rect x="13" y="23" width="1" height="1" fill="#fae29e"/>
<rect x="5" y="23" width="1" height="1" fill="#fff8e4"/>
<rect x="27" y="23" width="1" height="1" fill="#fff9e5"/>
<rect x="16" y="23" width="1" height="1" fill="#e3c78a"/>
<rect x="26" y="23" width="1" height="1" fill="#c29c71"/>
<rect x="15" y="23" width="1" height="1" fill="#fae29e"/>
<rect x="17" y="23" width="1" height="1" fill="#f1d58f"/>
<rect x="18" y="23" width="1" height="1" fill="#d89a71"/>
<rect x="4" y="23" width="1" height="1" fill="#fff9e5"/>
<rect x="21" y="23" width="1" height="1" fill="#896b57"/>
<rect x="19" y="23" width="2" height="1" fill="#d0956f"/>
<rect x="0" y="23" width="1" height="1" fill="#dfbb89"/>
<rect x="29" y="23" width="1" height="1" fill="#fbf1da"/>
<rect x="28" y="23" width="1" height="1" fill="#fff8e4"/>
<rect x="6" y="23" width="2" height="1" fill="#fff9e5"/>
<rect x="10" y="23" width="1" height="1" fill="#896b57"/>
<rect x="3" y="22" width="1" height="3" fill="#fffdf6"/>
<rect x="23" y="23" width="1" height="2" fill="#896b57"/>
<rect x="8" y="23" width="1" height="2" fill="#dfbb89"/>
<rect x="20" y="24" width="1" height="1" fill="#a0755c"/>
<rect x="19" y="24" width="1" height="1" fill="#98725a"/>
<rect x="29" y="24" width="1" height="1" fill="#fff8e4"/>
<rect x="24" y="24" width="3" height="1" fill="#c29c71"/>
<rect x="22" y="24" width="1" height="1" fill="#876b56"/>
<rect x="18" y="24" width="1" height="1" fill="#b78666"/>
<rect x="11" y="24" width="2" height="1" fill="#987d5f"/>
<rect x="17" y="24" width="1" height="1" fill="#d89a71"/>
<rect x="13" y="24" width="1" height="1" fill="#dfbb89"/>
<rect x="6" y="24" width="2" height="1" fill="#fbf1da"/>
<rect x="4" y="24" width="2" height="1" fill="#feecb1"/>
<rect x="31" y="24" width="1" height="1" fill="#fee388"/>
<rect x="16" y="24" width="1" height="1" fill="#d0956f"/>
<rect x="30" y="24" width="1" height="1" fill="#fae29e"/>
<rect x="10" y="24" width="1" height="1" fill="#866955"/>
<rect x="28" y="24" width="1" height="1" fill="#fff9e5"/>
<rect x="14" y="24" width="1" height="1" fill="#fee388"/>
<rect x="0" y="24" width="1" height="2" fill="#c48d69"/>
<rect x="15" y="24" width="1" height="2" fill="#fde186"/>
<rect x="1" y="24" width="1" height="2" fill="#d89a71"/>
<rect x="2" y="24" width="1" height="2" fill="#fbf1da"/>
<rect x="21" y="24" width="1" height="2" fill="#8b6e58"/>
<rect x="27" y="24" width="1" height="2" fill="#fbf1da"/>
<rect x="24" y="25" width="1" height="1" fill="#dfbb89"/>
<rect x="3" y="25" width="1" height="1" fill="#fff8e4"/>
<rect x="18" y="25" width="1" height="1" fill="#c48d69"/>
<rect x="28" y="25" width="2" height="1" fill="#fffdf6"/>
<rect x="9" y="25" width="2" height="1" fill="#916b56"/>
<rect x="19" y="25" width="2" height="1" fill="#956d58"/>
<rect x="6" y="25" width="1" height="1" fill="#dfbb89"/>
<rect x="14" y="25" width="1" height="1" fill="#f1d58f"/>
<rect x="26" y="25" width="1" height="1" fill="#fde186"/>
<rect x="30" y="25" width="1" height="1" fill="#fbf1da"/>
<rect x="5" y="25" width="1" height="1" fill="#fee388"/>
<rect x="16" y="25" width="2" height="1" fill="#d89a71"/>
<rect x="12" y="25" width="1" height="1" fill="#93785d"/>
<rect x="13" y="25" width="1" height="1" fill="#c29c71"/>
<rect x="22" y="25" width="2" height="1" fill="#876b56"/>
<rect x="8" y="25" width="1" height="1" fill="#d0956f"/>
<rect x="25" y="25" width="1" height="1" fill="#fee388"/>
<rect x="31" y="25" width="1" height="1" fill="#feecb1"/>
<rect x="11" y="25" width="1" height="1" fill="#90715a"/>
<rect x="7" y="25" width="1" height="2" fill="#d89a71"/>
<rect x="4" y="25" width="1" height="2" fill="#fae29e"/>
<rect x="14" y="26" width="1" height="1" fill="#93785d"/>
<rect x="17" y="26" width="2" height="1" fill="#a67f61"/>
<rect x="24" y="26" width="1" height="1" fill="#c29c71"/>
<rect x="31" y="26" width="1" height="1" fill="#fff8e4"/>
<rect x="16" y="26" width="1" height="1" fill="#a0755c"/>
<rect x="25" y="26" width="2" height="1" fill="#fee388"/>
<rect x="20" y="26" width="1" height="1" fill="#956d58"/>
<rect x="21" y="26" width="1" height="1" fill="#916b56"/>
<rect x="22" y="26" width="1" height="1" fill="#896b57"/>
<rect x="15" y="26" width="1" height="1" fill="#997f60"/>
<rect x="13" y="26" width="1" height="1" fill="#876b56"/>
<rect x="1" y="26" width="1" height="1" fill="#a67f61"/>
<rect x="2" y="26" width="1" height="1" fill="#fae29e"/>
<rect x="6" y="26" width="1" height="1" fill="#e3c78a"/>
<rect x="19" y="26" width="1" height="1" fill="#916b56"/>
<rect x="28" y="26" width="3" height="1" fill="#fffdf6"/>
<rect x="3" y="26" width="1" height="1" fill="#fbf1da"/>
<rect x="0" y="26" width="1" height="1" fill="#a0755c"/>
<rect x="27" y="26" width="1" height="1" fill="#feecb1"/>
<rect x="23" y="26" width="1" height="1" fill="#876b56"/>
<rect x="8" y="26" width="1" height="1" fill="#c48d69"/>
<rect x="11" y="26" width="1" height="1" fill="#876754"/>
<rect x="5" y="26" width="1" height="1" fill="#fde186"/>
<rect x="9" y="26" width="2" height="2" fill="#956d58"/>
<rect x="6" y="27" width="1" height="1" fill="#d0956f"/>
<rect x="26" y="27" width="1" height="1" fill="#e3c78a"/>
<rect x="22" y="27" width="2" height="1" fill="#93785d"/>
<rect x="25" y="27" width="1" height="1" fill="#d2ac7f"/>
<rect x="31" y="27" width="1" height="1" fill="#fff9e5"/>
<rect x="5" y="27" width="1" height="1" fill="#d89a71"/>
<rect x="7" y="27" width="2" height="1" fill="#b78666"/>
<rect x="11" y="27" width="1" height="1" fill="#896b57"/>
<rect x="27" y="27" width="1" height="1" fill="#f1d58f"/>
<rect x="29" y="27" width="2" height="1" fill="#fffdf6"/>
<rect x="24" y="27" width="1" height="1" fill="#997f60"/>
<rect x="21" y="27" width="1" height="1" fill="#896b57"/>
<rect x="14" y="27" width="1" height="1" fill="#866955"/>
<rect x="28" y="27" width="1" height="1" fill="#fff9e5"/>
<rect x="15" y="27" width="1" height="1" fill="#876b56"/>
<rect x="0" y="27" width="1" height="1" fill="#866955"/>
<rect x="2" y="27" width="1" height="1" fill="#e3c78a"/>
<rect x="3" y="27" width="1" height="2" fill="#fee388"/>
<rect x="4" y="27" width="1" height="2" fill="#dfbb89"/>
<rect x="14" y="28" width="1" height="1" fill="#a4896a"/>
<rect x="30" y="28" width="1" height="1" fill="#e3c78a"/>
<rect x="29" y="28" width="1" height="1" fill="#dfbb89"/>
<rect x="12" y="28" width="1" height="1" fill="#e3c78a"/>
<rect x="13" y="28" width="1" height="1" fill="#d2ac7f"/>
<rect x="16" y="28" width="1" height="1" fill="#8b6e58"/>
<rect x="31" y="28" width="1" height="1" fill="#dfbb89"/>
<rect x="0" y="28" width="1" height="1" fill="#997f60"/>
<rect x="27" y="28" width="1" height="1" fill="#a0755c"/>
<rect x="26" y="28" width="1" height="1" fill="#956d58"/>
<rect x="15" y="28" width="1" height="1" fill="#987d5f"/>
<rect x="1" y="28" width="1" height="1" fill="#8b6e58"/>
<rect x="9" y="28" width="2" height="1" fill="#866955"/>
<rect x="22" y="28" width="1" height="1" fill="#987d5f"/>
<rect x="28" y="28" width="1" height="1" fill="#d89a71"/>
<rect x="2" y="28" width="1" height="1" fill="#dfbb89"/>
<rect x="6" y="28" width="1" height="2" fill="#b78666"/>
<rect x="23" y="28" width="2" height="2" fill="#997f60"/>
<rect x="7" y="28" width="2" height="2" fill="#916b56"/>
<rect x="5" y="28" width="1" height="2" fill="#d0956f"/>
<rect x="25" y="28" width="1" height="2" fill="#98725a"/>
<rect x="9" y="29" width="2" height="1" fill="#81604c"/>
<rect x="1" y="29" width="1" height="1" fill="#c48d69"/>
<rect x="16" y="29" width="1" height="1" fill="#d2ac7f"/>
<rect x="30" y="29" width="1" height="1" fill="#d89a71"/>
<rect x="26" y="29" width="2" height="1" fill="#956d58"/>
<rect x="17" y="29" width="2" height="1" fill="#916b56"/>
<rect x="12" y="29" width="1" height="1" fill="#fff9e5"/>
<rect x="13" y="29" width="1" height="1" fill="#fff8e4"/>
<rect x="0" y="29" width="1" height="1" fill="#d2ac7f"/>
<rect x="2" y="29" width="1" height="1" fill="#b78666"/>
<rect x="28" y="29" width="1" height="1" fill="#b78666"/>
<rect x="29" y="29" width="1" height="1" fill="#d0956f"/>
<rect x="22" y="29" width="1" height="1" fill="#93785d"/>
<rect x="19" y="29" width="1" height="1" fill="#876b56"/>
<rect x="31" y="29" width="1" height="1" fill="#c48d69"/>
<rect x="3" y="29" width="2" height="1" fill="#c29c71"/>
<rect x="11" y="28" width="1" height="3" fill="#d2ac7f"/>
<rect x="20" y="29" width="1" height="2" fill="#866955"/>
<rect x="15" y="29" width="1" height="2" fill="#fde186"/>
<rect x="14" y="29" width="1" height="2" fill="#fee388"/>
<rect x="28" y="30" width="1" height="1" fill="#a0755c"/>
<rect x="29" y="30" width="3" height="1" fill="#d89a71"/>
<rect x="26" y="30" width="1" height="1" fill="#916b56"/>
<rect x="7" y="30" width="1" height="1" fill="#8b6e58"/>
<rect x="10" y="30" width="1" height="1" fill="#93785d"/>
<rect x="16" y="30" width="1" height="1" fill="#e3c78a"/>
<rect x="25" y="30" width="1" height="1" fill="#90715a"/>
<rect x="22" y="30" width="1" height="1" fill="#896b57"/>
<rect x="1" y="30" width="2" height="1" fill="#b78666"/>
<rect x="21" y="30" width="1" height="1" fill="#876b56"/>
<rect x="9" y="30" width="1" height="1" fill="#997f60"/>
<rect x="24" y="30" width="1" height="1" fill="#93785d"/>
<rect x="23" y="30" width="1" height="1" fill="#90715a"/>
<rect x="17" y="30" width="3" height="1" fill="#916b56"/>
<rect x="27" y="30" width="1" height="1" fill="#956d58"/>
<rect x="0" y="30" width="1" height="1" fill="#dfbb89"/>
<rect x="8" y="30" width="1" height="1" fill="#93785d"/>
<rect x="12" y="30" width="2" height="1" fill="#fff8e4"/>
<rect x="3" y="30" width="3" height="1" fill="#81604c"/>
<rect x="10" y="31" width="1" height="1" fill="#c48d69"/>
<rect x="13" y="31" width="1" height="1" fill="#fae29e"/>
<rect x="18" y="31" width="2" height="1" fill="#916b56"/>
<rect x="1" y="31" width="1" height="1" fill="#c48d69"/>
<rect x="0" y="31" width="1" height="1" fill="#e3c78a"/>
<rect x="29" y="31" width="1" height="1" fill="#a0755c"/>
<rect x="2" y="31" width="1" height="1" fill="#b78666"/>
<rect x="17" y="31" width="1" height="1" fill="#98725a"/>
<rect x="30" y="31" width="2" height="1" fill="#b78666"/>
<rect x="3" y="31" width="6" height="1" fill="#81604c"/>
<rect x="24" y="31" width="2" height="1" fill="#866955"/>
<rect x="12" y="31" width="1" height="1" fill="#f1d58f"/>
<rect x="11" y="31" width="1" height="1" fill="#c29c71"/>
<rect x="27" y="31" width="2" height="1" fill="#876754"/>
<rect x="9" y="31" width="1" height="1" fill="#916b56"/>
<rect x="20" y="31" width="1" height="1" fill="#81604c"/>
<rect x="14" y="31" width="3" height="1" fill="#f1d58f"/>
<rect x="22" y="31" width="2" height="1" fill="#876754"/>
</svg>