<?xml version="1.0" encoding="UTF-8"?>
<svg xmlns="http://www.w3.org/2000/svg" width="20mm" height="20mm" viewBox="0 0 32 32" shape-rendering="crispEdges">
<title>028 正面 structured semantic redraw</title>
<metadata>registered 32-unit semantic vector redraw; no embedded raster; physical-size=20mm</metadata>
<rect x="0" y="0" width="32" height="32" fill="#527730"/>
<rect x="14" y="0" width="1" height="1" fill="#989c30"/>
<rect x="10" y="0" width="1" height="1" fill="#989c30"/>
<rect x="19" y="0" width="1" height="1" fill="#869331"/>
<rect x="5" y="0" width="2" height="1" fill="#3e7131"/>
<rect x="13" y="0" width="1" height="1" fill="#8b9632"/>
<rect x="20" y="0" width="1" height="1" fill="#9ba23f"/>
<rect x="7" y="0" width="1" height="1" fill="#4d7530"/>
<rect x="23" y="0" width="2" height="1" fill="#9ba23f"/>
<rect x="0" y="0" width="1" height="1" fill="#688633"/>
<rect x="9" y="0" width="1" height="1" fill="#949a30"/>
<rect x="22" y="0" width="1" height="1" fill="#798d33"/>
<rect x="25" y="0" width="3" height="1" fill="#6e8936"/>
<rect x="8" y="0" width="1" height="1" fill="#507730"/>
<rect x="1" y="0" width="1" height="1" fill="#678633"/>
<rect x="28" y="0" width="4" height="1" fill="#9ba23f"/>
<rect x="4" y="0" width="1" height="1" fill="#6a8632"/>
<rect x="21" y="0" width="1" height="1" fill="#869331"/>
<rect x="3" y="0" width="1" height="2" fill="#979b30"/>
<rect x="12" y="0" width="1" height="2" fill="#688633"/>
<rect x="15" y="0" width="1" height="2" fill="#5b7d33"/>
<rect x="16" y="0" width="3" height="2" fill="#3e7131"/>
<rect x="0" y="1" width="2" height="1" fill="#688633"/>
<rect x="19" y="1" width="1" height="1" fill="#798d33"/>
<rect x="25" y="1" width="1" height="1" fill="#567830"/>
<rect x="22" y="1" width="1" height="1" fill="#6a8632"/>
<rect x="28" y="1" width="1" height="1" fill="#798d33"/>
<rect x="31" y="1" width="1" height="1" fill="#6e8936"/>
<rect x="14" y="1" width="1" height="1" fill="#979b30"/>
<rect x="20" y="1" width="1" height="1" fill="#989c30"/>
<rect x="30" y="1" width="1" height="1" fill="#798d33"/>
<rect x="29" y="1" width="1" height="1" fill="#9ba23f"/>
<rect x="4" y="1" width="1" height="1" fill="#6c8732"/>
<rect x="10" y="1" width="1" height="1" fill="#979b30"/>
<rect x="27" y="1" width="1" height="1" fill="#3e7131"/>
<rect x="23" y="1" width="2" height="1" fill="#959c33"/>
<rect x="21" y="1" width="1" height="1" fill="#798d33"/>
<rect x="5" y="1" width="4" height="2" fill="#3e7131"/>
<rect x="26" y="1" width="1" height="2" fill="#507730"/>
<rect x="29" y="2" width="1" height="1" fill="#919830"/>
<rect x="21" y="2" width="1" height="1" fill="#748a31"/>
<rect x="18" y="2" width="1" height="1" fill="#507730"/>
<rect x="27" y="2" width="1" height="1" fill="#5b7d33"/>
<rect x="14" y="2" width="1" height="1" fill="#979c30"/>
<rect x="4" y="2" width="1" height="1" fill="#748a31"/>
<rect x="1" y="2" width="1" height="1" fill="#688633"/>
<rect x="10" y="2" width="1" height="1" fill="#979c30"/>
<rect x="23" y="2" width="2" height="1" fill="#919830"/>
<rect x="19" y="2" width="1" height="1" fill="#809031"/>
<rect x="28" y="2" width="1" height="1" fill="#748a31"/>
<rect x="16" y="2" width="1" height="1" fill="#3e7131"/>
<rect x="30" y="2" width="2" height="1" fill="#6e8936"/>
<rect x="17" y="2" width="1" height="1" fill="#4d7530"/>
<rect x="15" y="2" width="1" height="1" fill="#658030"/>
<rect x="25" y="2" width="1" height="1" fill="#4d7530"/>
<rect x="20" y="2" width="1" height="1" fill="#979b30"/>
<rect x="2" y="0" width="1" height="4" fill="#919830"/>
<rect x="9" y="1" width="1" height="3" fill="#919830"/>
<rect x="3" y="2" width="1" height="2" fill="#979b31"/>
<rect x="12" y="2" width="1" height="2" fill="#678633"/>
<rect x="0" y="2" width="1" height="2" fill="#6a8632"/>
<rect x="27" y="3" width="1" height="1" fill="#979c30"/>
<rect x="19" y="3" width="1" height="1" fill="#798d33"/>
<rect x="26" y="3" width="1" height="1" fill="#527830"/>
<rect x="15" y="3" width="1" height="1" fill="#748a31"/>
<rect x="14" y="3" width="1" height="1" fill="#979b30"/>
<rect x="23" y="3" width="1" height="1" fill="#919830"/>
<rect x="10" y="3" width="1" height="1" fill="#979b30"/>
<rect x="20" y="3" width="1" height="1" fill="#979c30"/>
<rect x="28" y="3" width="1" height="1" fill="#809031"/>
<rect x="24" y="3" width="1" height="1" fill="#949a30"/>
<rect x="16" y="3" width="3" height="1" fill="#507730"/>
<rect x="1" y="3" width="1" height="1" fill="#688433"/>
<rect x="11" y="0" width="1" height="5" fill="#748a31"/>
<rect x="13" y="1" width="1" height="4" fill="#869331"/>
<rect x="7" y="3" width="2" height="2" fill="#3e7131"/>
<rect x="5" y="3" width="2" height="2" fill="#507730"/>
<rect x="31" y="3" width="1" height="2" fill="#6e8936"/>
<rect x="25" y="3" width="1" height="2" fill="#3e7131"/>
<rect x="0" y="4" width="2" height="1" fill="#688633"/>
<rect x="17" y="4" width="1" height="1" fill="#5b7d33"/>
<rect x="14" y="4" width="1" height="1" fill="#979b2f"/>
<rect x="24" y="4" width="1" height="1" fill="#969b30"/>
<rect x="26" y="4" width="1" height="1" fill="#4d7530"/>
<rect x="15" y="4" width="1" height="1" fill="#809031"/>
<rect x="16" y="4" width="1" height="1" fill="#688433"/>
<rect x="3" y="4" width="1" height="1" fill="#979c30"/>
<rect x="20" y="4" width="1" height="1" fill="#979b30"/>
<rect x="22" y="2" width="1" height="4" fill="#688633"/>
<rect x="29" y="3" width="2" height="3" fill="#688633"/>
<rect x="21" y="3" width="1" height="3" fill="#798d33"/>
<rect x="12" y="4" width="1" height="2" fill="#688633"/>
<rect x="27" y="4" width="1" height="2" fill="#979b2f"/>
<rect x="10" y="4" width="1" height="2" fill="#989c30"/>
<rect x="19" y="4" width="1" height="2" fill="#748a31"/>
<rect x="28" y="4" width="1" height="2" fill="#869331"/>
<rect x="23" y="4" width="1" height="2" fill="#8b9632"/>
<rect x="13" y="5" width="1" height="1" fill="#748a31"/>
<rect x="3" y="5" width="1" height="1" fill="#979b30"/>
<rect x="7" y="5" width="2" height="1" fill="#507730"/>
<rect x="17" y="5" width="1" height="1" fill="#658030"/>
<rect x="25" y="5" width="2" height="1" fill="#4d7530"/>
<rect x="20" y="5" width="1" height="1" fill="#949a30"/>
<rect x="16" y="5" width="1" height="1" fill="#798d33"/>
<rect x="24" y="5" width="1" height="1" fill="#979c30"/>
<rect x="14" y="5" width="2" height="1" fill="#809031"/>
<rect x="1" y="5" width="1" height="1" fill="#678633"/>
<rect x="0" y="5" width="1" height="1" fill="#6a8632"/>
<rect x="5" y="5" width="1" height="1" fill="#52772f"/>
<rect x="4" y="3" width="1" height="4" fill="#798d33"/>
<rect x="2" y="4" width="1" height="3" fill="#8b9632"/>
<rect x="9" y="4" width="1" height="3" fill="#8b9632"/>
<rect x="11" y="5" width="1" height="2" fill="#798d33"/>
<rect x="23" y="6" width="1" height="1" fill="#969b30"/>
<rect x="25" y="6" width="1" height="1" fill="#567830"/>
<rect x="12" y="6" width="3" height="1" fill="#688633"/>
<rect x="1" y="6" width="1" height="1" fill="#6c8732"/>
<rect x="0" y="6" width="1" height="1" fill="#748a31"/>
<rect x="10" y="6" width="1" height="1" fill="#979c30"/>
<rect x="24" y="6" width="1" height="1" fill="#989c30"/>
<rect x="26" y="6" width="1" height="1" fill="#4d7530"/>
<rect x="15" y="6" width="1" height="1" fill="#809031"/>
<rect x="27" y="6" width="2" height="1" fill="#809031"/>
<rect x="29" y="6" width="1" height="1" fill="#798d33"/>
<rect x="3" y="6" width="1" height="1" fill="#949a30"/>
<rect x="20" y="6" width="1" height="1" fill="#688633"/>
<rect x="30" y="6" width="1" height="1" fill="#6c8732"/>
<rect x="22" y="6" width="1" height="1" fill="#919830"/>
<rect x="18" y="4" width="1" height="4" fill="#507730"/>
<rect x="21" y="6" width="1" height="2" fill="#809031"/>
<rect x="16" y="6" width="1" height="2" fill="#979b30"/>
<rect x="19" y="6" width="1" height="2" fill="#5b7d33"/>
<rect x="5" y="6" width="1" height="2" fill="#507730"/>
<rect x="17" y="6" width="1" height="2" fill="#798d33"/>
<rect x="13" y="7" width="1" height="1" fill="#748a31"/>
<rect x="22" y="7" width="1" height="1" fill="#979b30"/>
<rect x="10" y="7" width="1" height="1" fill="#798d33"/>
<rect x="29" y="7" width="1" height="1" fill="#979b30"/>
<rect x="27" y="7" width="1" height="1" fill="#688633"/>
<rect x="3" y="7" width="1" height="1" fill="#6a8632"/>
<rect x="20" y="7" width="1" height="1" fill="#678633"/>
<rect x="1" y="7" width="1" height="1" fill="#979b30"/>
<rect x="11" y="7" width="2" height="1" fill="#809031"/>
<rect x="25" y="7" width="1" height="1" fill="#5b7d33"/>
<rect x="9" y="7" width="1" height="1" fill="#748a31"/>
<rect x="28" y="7" width="1" height="1" fill="#748a31"/>
<rect x="8" y="7" width="1" height="1" fill="#507730"/>
<rect x="23" y="7" width="2" height="1" fill="#979c30"/>
<rect x="2" y="7" width="1" height="2" fill="#748a31"/>
<rect x="4" y="7" width="1" height="2" fill="#658030"/>
<rect x="21" y="8" width="1" height="1" fill="#748a31"/>
<rect x="16" y="8" width="1" height="1" fill="#979b2f"/>
<rect x="3" y="8" width="1" height="1" fill="#688633"/>
<rect x="13" y="8" width="1" height="1" fill="#809031"/>
<rect x="27" y="8" width="1" height="1" fill="#5b7d33"/>
<rect x="22" y="8" width="3" height="1" fill="#979b30"/>
<rect x="18" y="8" width="2" height="1" fill="#507730"/>
<rect x="28" y="8" width="1" height="1" fill="#688433"/>
<rect x="10" y="8" width="1" height="1" fill="#688633"/>
<rect x="11" y="8" width="1" height="1" fill="#869331"/>
<rect x="9" y="8" width="1" height="1" fill="#658030"/>
<rect x="5" y="8" width="1" height="1" fill="#52772f"/>
<rect x="15" y="7" width="1" height="3" fill="#798d33"/>
<rect x="30" y="7" width="1" height="3" fill="#809031"/>
<rect x="17" y="8" width="1" height="2" fill="#809031"/>
<rect x="25" y="8" width="1" height="2" fill="#658030"/>
<rect x="29" y="8" width="1" height="2" fill="#979c30"/>
<rect x="9" y="9" width="2" height="1" fill="#5b7d33"/>
<rect x="21" y="9" width="1" height="1" fill="#6c8732"/>
<rect x="3" y="9" width="2" height="1" fill="#567830"/>
<rect x="22" y="9" width="2" height="1" fill="#979b30"/>
<rect x="24" y="9" width="1" height="1" fill="#979c30"/>
<rect x="11" y="9" width="1" height="1" fill="#809031"/>
<rect x="28" y="9" width="1" height="2" fill="#5b7d33"/>
<rect x="22" y="10" width="1" height="1" fill="#979b30"/>
<rect x="21" y="10" width="1" height="1" fill="#6a8632"/>
<rect x="29" y="10" width="1" height="1" fill="#969b30"/>
<rect x="24" y="10" width="1" height="1" fill="#748a31"/>
<rect x="12" y="8" width="1" height="4" fill="#979b30"/>
<rect x="9" y="10" width="1" height="2" fill="#527830"/>
<rect x="30" y="10" width="1" height="2" fill="#869331"/>
<rect x="17" y="10" width="1" height="2" fill="#869331"/>
<rect x="10" y="11" width="1" height="1" fill="#507730"/>
<rect x="22" y="11" width="1" height="1" fill="#979c30"/>
<rect x="31" y="5" width="1" height="8" fill="#688433"/>
<rect x="13" y="9" width="1" height="4" fill="#869331"/>
<rect x="2" y="9" width="1" height="4" fill="#658030"/>
<rect x="16" y="9" width="1" height="4" fill="#979c30"/>
<rect x="28" y="11" width="1" height="2" fill="#567830"/>
<rect x="29" y="11" width="1" height="2" fill="#949a30"/>
<rect x="4" y="12" width="1" height="1" fill="#527830"/>
<rect x="12" y="12" width="1" height="1" fill="#979c30"/>
<rect x="23" y="10" width="1" height="4" fill="#869331"/>
<rect x="11" y="10" width="1" height="4" fill="#748a31"/>
<rect x="21" y="11" width="1" height="3" fill="#658030"/>
<rect x="17" y="12" width="1" height="2" fill="#8b9632"/>
<rect x="30" y="12" width="1" height="2" fill="#8b9632"/>
<rect x="29" y="13" width="1" height="1" fill="#919830"/>
<rect x="2" y="13" width="1" height="1" fill="#6a8632"/>
<rect x="16" y="13" width="1" height="1" fill="#979b30"/>
<rect x="10" y="13" width="1" height="1" fill="#567830"/>
<rect x="3" y="13" width="2" height="1" fill="#567830"/>
<rect x="12" y="13" width="1" height="1" fill="#989b31"/>
<rect x="7" y="13" width="3" height="1" fill="#527830"/>
<rect x="0" y="7" width="1" height="8" fill="#989b31"/>
<rect x="1" y="8" width="1" height="7" fill="#989c30"/>
<rect x="18" y="9" width="1" height="6" fill="#507730"/>
<rect x="15" y="10" width="1" height="5" fill="#748a31"/>
<rect x="24" y="11" width="1" height="4" fill="#688633"/>
<rect x="22" y="12" width="1" height="3" fill="#979b30"/>
<rect x="7" y="14" width="1" height="1" fill="#527830"/>
<rect x="29" y="14" width="2" height="1" fill="#919830"/>
<rect x="12" y="14" width="1" height="1" fill="#979c30"/>
<rect x="14" y="7" width="1" height="9" fill="#688633"/>
<rect x="25" y="10" width="1" height="6" fill="#5b7d33"/>
<rect x="13" y="13" width="1" height="3" fill="#8b9632"/>
<rect x="31" y="13" width="1" height="3" fill="#678633"/>
<rect x="3" y="14" width="1" height="2" fill="#688633"/>
<rect x="21" y="14" width="1" height="2" fill="#6c8732"/>
<rect x="2" y="14" width="1" height="2" fill="#798d33"/>
<rect x="20" y="14" width="1" height="2" fill="#688433"/>
<rect x="23" y="14" width="1" height="2" fill="#8b9632"/>
<rect x="11" y="14" width="1" height="2" fill="#798d33"/>
<rect x="10" y="14" width="1" height="2" fill="#688633"/>
<rect x="4" y="14" width="1" height="2" fill="#658030"/>
<rect x="9" y="14" width="1" height="2" fill="#658030"/>
<rect x="16" y="14" width="1" height="2" fill="#979c30"/>
<rect x="12" y="15" width="1" height="1" fill="#979b30"/>
<rect x="29" y="15" width="1" height="1" fill="#8b9632"/>
<rect x="1" y="15" width="1" height="1" fill="#979b30"/>
<rect x="0" y="15" width="1" height="1" fill="#959c33"/>
<rect x="24" y="15" width="1" height="1" fill="#678633"/>
<rect x="22" y="15" width="1" height="1" fill="#989c30"/>
<rect x="8" y="15" width="1" height="1" fill="#507730"/>
<rect x="30" y="15" width="1" height="1" fill="#919830"/>
<rect x="17" y="14" width="1" height="3" fill="#919830"/>
<rect x="19" y="14" width="1" height="3" fill="#567830"/>
<rect x="25" y="16" width="1" height="1" fill="#748a31"/>
<rect x="4" y="16" width="1" height="1" fill="#869331"/>
<rect x="21" y="16" width="1" height="1" fill="#8b9632"/>
<rect x="22" y="16" width="2" height="1" fill="#748a31"/>
<rect x="1" y="16" width="1" height="1" fill="#6c8732"/>
<rect x="10" y="16" width="1" height="1" fill="#919830"/>
<rect x="29" y="16" width="1" height="1" fill="#869331"/>
<rect x="12" y="16" width="2" height="1" fill="#6c8732"/>
<rect x="20" y="16" width="1" height="1" fill="#919830"/>
<rect x="24" y="16" width="1" height="1" fill="#919830"/>
<rect x="3" y="16" width="1" height="1" fill="#949a30"/>
<rect x="31" y="16" width="1" height="1" fill="#688433"/>
<rect x="28" y="14" width="1" height="4" fill="#507730"/>
<rect x="5" y="14" width="1" height="4" fill="#507730"/>
<rect x="7" y="16" width="2" height="2" fill="#3e7131"/>
<rect x="9" y="16" width="1" height="2" fill="#748a31"/>
<rect x="26" y="16" width="1" height="2" fill="#3e7131"/>
<rect x="11" y="16" width="1" height="2" fill="#869331"/>
<rect x="27" y="16" width="1" height="2" fill="#4d7530"/>
<rect x="30" y="16" width="1" height="2" fill="#949a30"/>
<rect x="22" y="17" width="1" height="1" fill="#688633"/>
<rect x="3" y="17" width="1" height="1" fill="#979b30"/>
<rect x="20" y="17" width="2" height="1" fill="#949a30"/>
<rect x="6" y="17" width="1" height="1" fill="#52772f"/>
<rect x="31" y="17" width="1" height="1" fill="#6a8632"/>
<rect x="4" y="17" width="1" height="1" fill="#8b9632"/>
<rect x="18" y="17" width="2" height="1" fill="#567830"/>
<rect x="24" y="17" width="1" height="1" fill="#979b30"/>
<rect x="29" y="17" width="1" height="1" fill="#809031"/>
<rect x="15" y="15" width="1" height="4" fill="#6c8732"/>
<rect x="16" y="16" width="1" height="3" fill="#969b30"/>
<rect x="14" y="16" width="1" height="3" fill="#6a8632"/>
<rect x="17" y="17" width="1" height="2" fill="#949a30"/>
<rect x="25" y="17" width="1" height="2" fill="#809031"/>
<rect x="10" y="17" width="1" height="2" fill="#979b30"/>
<rect x="18" y="18" width="1" height="1" fill="#4d7530"/>
<rect x="19" y="18" width="1" height="1" fill="#3e7131"/>
<rect x="21" y="18" width="1" height="1" fill="#949a30"/>
<rect x="30" y="18" width="1" height="1" fill="#969b30"/>
<rect x="29" y="18" width="1" height="1" fill="#798d33"/>
<rect x="24" y="18" width="1" height="1" fill="#979b2f"/>
<rect x="23" y="17" width="1" height="3" fill="#6c8732"/>
<rect x="12" y="17" width="2" height="3" fill="#688633"/>
<rect x="31" y="18" width="1" height="2" fill="#6c8732"/>
<rect x="4" y="18" width="1" height="2" fill="#869331"/>
<rect x="22" y="18" width="1" height="2" fill="#6a8632"/>
<rect x="5" y="18" width="4" height="2" fill="#3e7131"/>
<rect x="26" y="18" width="3" height="2" fill="#3e7131"/>
<rect x="9" y="18" width="1" height="2" fill="#6c8732"/>
<rect x="20" y="18" width="1" height="2" fill="#919830"/>
<rect x="16" y="19" width="1" height="1" fill="#949a30"/>
<rect x="14" y="19" width="1" height="1" fill="#688433"/>
<rect x="10" y="19" width="1" height="1" fill="#989c30"/>
<rect x="24" y="19" width="1" height="1" fill="#969b30"/>
<rect x="17" y="19" width="1" height="1" fill="#969b30"/>
<rect x="29" y="19" width="1" height="1" fill="#748a31"/>
<rect x="25" y="19" width="1" height="1" fill="#869331"/>
<rect x="15" y="19" width="1" height="1" fill="#6a8632"/>
<rect x="3" y="18" width="1" height="3" fill="#979c30"/>
<rect x="21" y="19" width="1" height="2" fill="#969b30"/>
<rect x="29" y="20" width="1" height="1" fill="#6c8732"/>
<rect x="28" y="20" width="1" height="1" fill="#3c6430"/>
<rect x="17" y="20" width="1" height="1" fill="#6c8732"/>
<rect x="8" y="20" width="1" height="1" fill="#406930"/>
<rect x="9" y="20" width="1" height="1" fill="#688433"/>
<rect x="27" y="20" width="1" height="1" fill="#6a8632"/>
<rect x="12" y="20" width="1" height="1" fill="#678633"/>
<rect x="10" y="20" width="1" height="1" fill="#979b30"/>
<rect x="13" y="20" width="1" height="1" fill="#6a8632"/>
<rect x="23" y="20" width="1" height="1" fill="#688633"/>
<rect x="5" y="20" width="3" height="1" fill="#3e7131"/>
<rect x="20" y="20" width="1" height="1" fill="#8b9632"/>
<rect x="14" y="20" width="2" height="1" fill="#809031"/>
<rect x="26" y="20" width="1" height="1" fill="#809031"/>
<rect x="16" y="20" width="1" height="1" fill="#748a31"/>
<rect x="24" y="20" width="2" height="1" fill="#748a31"/>
<rect x="2" y="16" width="1" height="6" fill="#869331"/>
<rect x="18" y="19" width="2" height="3" fill="#3e7131"/>
<rect x="31" y="20" width="1" height="2" fill="#748a31"/>
<rect x="23" y="21" width="2" height="1" fill="#688633"/>
<rect x="26" y="21" width="1" height="1" fill="#979b30"/>
<rect x="8" y="21" width="1" height="1" fill="#3c6330"/>
<rect x="3" y="21" width="1" height="1" fill="#979b30"/>
<rect x="12" y="21" width="1" height="1" fill="#688633"/>
<rect x="7" y="21" width="1" height="1" fill="#3c6430"/>
<rect x="13" y="21" width="1" height="1" fill="#6c8732"/>
<rect x="25" y="21" width="1" height="1" fill="#6c8732"/>
<rect x="10" y="21" width="1" height="1" fill="#979b31"/>
<rect x="16" y="21" width="1" height="1" fill="#567830"/>
<rect x="1" y="17" width="1" height="6" fill="#688633"/>
<rect x="22" y="20" width="1" height="3" fill="#6c8732"/>
<rect x="4" y="20" width="1" height="3" fill="#8b9632"/>
<rect x="27" y="21" width="1" height="2" fill="#809031"/>
<rect x="29" y="21" width="1" height="2" fill="#658030"/>
<rect x="5" y="21" width="2" height="2" fill="#3e7131"/>
<rect x="21" y="21" width="1" height="2" fill="#979b30"/>
<rect x="14" y="21" width="2" height="2" fill="#969b30"/>
<rect x="20" y="21" width="1" height="2" fill="#869331"/>
<rect x="18" y="22" width="2" height="1" fill="#406930"/>
<rect x="12" y="22" width="1" height="1" fill="#658030"/>
<rect x="24" y="22" width="2" height="1" fill="#5b7d33"/>
<rect x="3" y="22" width="1" height="1" fill="#989b31"/>
<rect x="10" y="22" width="1" height="1" fill="#979c30"/>
<rect x="26" y="22" width="1" height="1" fill="#969b30"/>
<rect x="16" y="22" width="1" height="1" fill="#527830"/>
<rect x="17" y="22" width="1" height="1" fill="#4d7530"/>
<rect x="7" y="22" width="2" height="1" fill="#3c6430"/>
<rect x="31" y="22" width="1" height="1" fill="#688433"/>
<rect x="13" y="22" width="1" height="1" fill="#688433"/>
<rect x="30" y="19" width="1" height="5" fill="#979b30"/>
<rect x="28" y="21" width="1" height="3" fill="#3c6330"/>
<rect x="9" y="21" width="1" height="3" fill="#658030"/>
<rect x="23" y="22" width="1" height="2" fill="#688633"/>
<rect x="24" y="23" width="2" height="1" fill="#567830"/>
<rect x="6" y="23" width="1" height="1" fill="#507730"/>
<rect x="29" y="23" width="1" height="1" fill="#5b7d33"/>
<rect x="13" y="23" width="1" height="1" fill="#567830"/>
<rect x="3" y="23" width="1" height="1" fill="#979b31"/>
<rect x="8" y="23" width="1" height="1" fill="#3c6430"/>
<rect x="31" y="23" width="1" height="1" fill="#6a8632"/>
<rect x="10" y="23" width="1" height="1" fill="#979b31"/>
<rect x="26" y="23" width="1" height="1" fill="#949a30"/>
<rect x="22" y="23" width="1" height="1" fill="#748a31"/>
<rect x="27" y="23" width="1" height="1" fill="#869331"/>
<rect x="12" y="23" width="1" height="1" fill="#52772f"/>
<rect x="5" y="23" width="1" height="1" fill="#52772f"/>
<rect x="0" y="16" width="1" height="9" fill="#6e8936"/>
<rect x="11" y="18" width="1" height="7" fill="#8b9632"/>
<rect x="2" y="22" width="1" height="3" fill="#809031"/>
<rect x="21" y="23" width="1" height="2" fill="#979b2f"/>
<rect x="14" y="23" width="1" height="2" fill="#949a30"/>
<rect x="16" y="23" width="1" height="2" fill="#4d7530"/>
<rect x="20" y="23" width="1" height="2" fill="#809031"/>
<rect x="1" y="23" width="1" height="2" fill="#688433"/>
<rect x="22" y="24" width="1" height="1" fill="#6c8732"/>
<rect x="8" y="24" width="1" height="1" fill="#3c6330"/>
<rect x="27" y="24" width="1" height="1" fill="#8b9632"/>
<rect x="31" y="24" width="1" height="1" fill="#6c8732"/>
<rect x="10" y="24" width="1" height="1" fill="#979c30"/>
<rect x="24" y="24" width="1" height="1" fill="#527830"/>
<rect x="12" y="24" width="1" height="1" fill="#507730"/>
<rect x="23" y="24" width="1" height="1" fill="#5b7d33"/>
<rect x="26" y="24" width="1" height="1" fill="#919830"/>
<rect x="29" y="24" width="1" height="1" fill="#567830"/>
<rect x="7" y="23" width="1" height="3" fill="#406930"/>
<rect x="28" y="24" width="1" height="2" fill="#3c6430"/>
<rect x="3" y="24" width="1" height="2" fill="#979b30"/>
<rect x="9" y="24" width="1" height="2" fill="#5b7d33"/>
<rect x="6" y="25" width="1" height="1" fill="#3e7131"/>
<rect x="10" y="25" width="1" height="1" fill="#989c30"/>
<rect x="22" y="25" width="1" height="1" fill="#658030"/>
<rect x="0" y="25" width="1" height="1" fill="#688433"/>
<rect x="2" y="25" width="1" height="1" fill="#798d33"/>
<rect x="21" y="25" width="1" height="1" fill="#979b30"/>
<rect x="1" y="25" width="1" height="1" fill="#5b7d33"/>
<rect x="20" y="25" width="1" height="1" fill="#798d33"/>
<rect x="8" y="25" width="1" height="1" fill="#3c6430"/>
<rect x="26" y="25" width="2" height="1" fill="#919830"/>
<rect x="16" y="25" width="1" height="1" fill="#507730"/>
<rect x="5" y="25" width="1" height="1" fill="#4d7530"/>
<rect x="19" y="23" width="1" height="4" fill="#3c6330"/>
<rect x="18" y="23" width="1" height="4" fill="#3c6430"/>
<rect x="15" y="23" width="1" height="4" fill="#979b30"/>
<rect x="17" y="23" width="1" height="4" fill="#3e7131"/>
<rect x="30" y="24" width="1" height="3" fill="#989c30"/>
<rect x="14" y="25" width="1" height="2" fill="#919830"/>
<rect x="31" y="25" width="1" height="2" fill="#748a31"/>
<rect x="21" y="26" width="1" height="1" fill="#979b2f"/>
<rect x="3" y="26" width="1" height="1" fill="#979b31"/>
<rect x="16" y="26" width="1" height="1" fill="#527830"/>
<rect x="10" y="26" width="1" height="1" fill="#979b30"/>
<rect x="22" y="26" width="1" height="1" fill="#688433"/>
<rect x="4" y="23" width="1" height="5" fill="#919830"/>
<rect x="11" y="25" width="1" height="3" fill="#919830"/>
<rect x="25" y="25" width="1" height="3" fill="#507730"/>
<rect x="28" y="26" width="1" height="2" fill="#406930"/>
<rect x="27" y="26" width="1" height="2" fill="#949a30"/>
<rect x="5" y="26" width="2" height="2" fill="#3e7131"/>
<rect x="20" y="26" width="1" height="2" fill="#748a31"/>
<rect x="9" y="26" width="1" height="2" fill="#567830"/>
<rect x="29" y="26" width="1" height="2" fill="#4d7530"/>
<rect x="26" y="26" width="1" height="2" fill="#8b9632"/>
<rect x="1" y="26" width="1" height="2" fill="#507730"/>
<rect x="21" y="27" width="1" height="1" fill="#979b30"/>
<rect x="12" y="27" width="1" height="1" fill="#527830"/>
<rect x="31" y="27" width="1" height="1" fill="#798d33"/>
<rect x="30" y="27" width="1" height="1" fill="#979c30"/>
<rect x="7" y="26" width="2" height="3" fill="#3c6430"/>
<rect x="22" y="27" width="1" height="2" fill="#6c8732"/>
<rect x="17" y="27" width="3" height="2" fill="#3c6430"/>
<rect x="3" y="27" width="1" height="2" fill="#979c30"/>
<rect x="30" y="28" width="1" height="1" fill="#979b30"/>
<rect x="27" y="28" width="1" height="1" fill="#979b2f"/>
<rect x="6" y="28" width="1" height="1" fill="#3c6330"/>
<rect x="25" y="28" width="1" height="1" fill="#5b7d33"/>
<rect x="26" y="28" width="1" height="1" fill="#869331"/>
<rect x="24" y="28" width="1" height="1" fill="#567830"/>
<rect x="20" y="28" width="1" height="1" fill="#6c8732"/>
<rect x="31" y="28" width="1" height="1" fill="#869331"/>
<rect x="2" y="26" width="1" height="4" fill="#748a31"/>
<rect x="14" y="27" width="1" height="3" fill="#8b9632"/>
<rect x="15" y="27" width="1" height="3" fill="#979c30"/>
<rect x="16" y="27" width="1" height="3" fill="#567830"/>
<rect x="21" y="28" width="1" height="2" fill="#979c30"/>
<rect x="28" y="28" width="2" height="2" fill="#406930"/>
<rect x="17" y="29" width="2" height="1" fill="#3c6430"/>
<rect x="23" y="29" width="1" height="1" fill="#507730"/>
<rect x="19" y="29" width="1" height="1" fill="#3c6330"/>
<rect x="20" y="29" width="1" height="1" fill="#688433"/>
<rect x="30" y="29" width="1" height="1" fill="#969b30"/>
<rect x="26" y="29" width="1" height="1" fill="#8b9632"/>
<rect x="13" y="27" width="1" height="4" fill="#507730"/>
<rect x="11" y="28" width="1" height="3" fill="#949a30"/>
<rect x="12" y="28" width="1" height="3" fill="#567830"/>
<rect x="31" y="29" width="1" height="2" fill="#8b9632"/>
<rect x="25" y="29" width="1" height="2" fill="#688633"/>
<rect x="6" y="29" width="3" height="2" fill="#3c6430"/>
<rect x="22" y="29" width="1" height="2" fill="#748a31"/>
<rect x="24" y="29" width="1" height="2" fill="#5b7d33"/>
<rect x="23" y="30" width="1" height="1" fill="#527830"/>
<rect x="16" y="30" width="1" height="1" fill="#5b7d33"/>
<rect x="17" y="30" width="3" height="1" fill="#3c6330"/>
<rect x="28" y="30" width="1" height="1" fill="#4d7530"/>
<rect x="15" y="30" width="1" height="1" fill="#979b30"/>
<rect x="30" y="30" width="1" height="1" fill="#949a30"/>
<rect x="21" y="30" width="1" height="1" fill="#989c30"/>
<rect x="0" y="26" width="1" height="6" fill="#5b7d33"/>
<rect x="10" y="27" width="1" height="5" fill="#989c30"/>
<rect x="5" y="28" width="1" height="4" fill="#406930"/>
<rect x="4" y="28" width="1" height="4" fill="#949a30"/>
<rect x="3" y="29" width="1" height="3" fill="#979b31"/>
<rect x="27" y="29" width="1" height="3" fill="#989c30"/>
<rect x="14" y="30" width="1" height="2" fill="#869331"/>
<rect x="20" y="30" width="1" height="2" fill="#658030"/>
<rect x="9" y="30" width="1" height="2" fill="#4d7530"/>
<rect x="29" y="30" width="1" height="2" fill="#3c6430"/>
<rect x="26" y="30" width="1" height="2" fill="#869331"/>
<rect x="2" y="30" width="1" height="2" fill="#6c8732"/>
<rect x="23" y="31" width="2" height="1" fill="#688633"/>
<rect x="8" y="31" width="1" height="1" fill="#3c6330"/>
<rect x="17" y="31" width="1" height="1" fill="#3c6330"/>
<rect x="6" y="31" width="2" height="1" fill="#3c6430"/>
<rect x="19" y="31" width="1" height="1" fill="#3e7131"/>
<rect x="12" y="31" width="1" height="1" fill="#5b7d33"/>
<rect x="13" y="31" width="1" height="1" fill="#567830"/>
<rect x="16" y="31" width="1" height="1" fill="#658030"/>
<rect x="21" y="31" width="1" height="1" fill="#979b30"/>
<rect x="11" y="31" width="1" height="1" fill="#969b30"/>
<rect x="15" y="31" width="1" height="1" fill="#979c30"/>
<rect x="28" y="31" width="1" height="1" fill="#52772f"/>
<rect x="30" y="31" width="2" height="1" fill="#919830"/>
<rect x="25" y="31" width="1" height="1" fill="#6a8632"/>
<rect x="22" y="31" width="1" height="1" fill="#869331"/>
<rect x="18" y="31" width="1" height="1" fill="#3c6430"/>
</svg>