<?xml version="1.0" encoding="UTF-8"?>
<svg xmlns="http://www.w3.org/2000/svg" width="20mm" height="20mm" viewBox="0 0 32 32" shape-rendering="crispEdges">
<title>071 右侧面 structured semantic redraw</title>
<metadata>registered 32-unit semantic vector redraw; no embedded raster; physical-size=20mm</metadata>
<rect x="0" y="0" width="32" height="32" fill="#bd8451"/>
<rect x="8" y="0" width="1" height="1" fill="#bf9366"/>
<rect x="16" y="0" width="4" height="1" fill="#655850"/>
<rect x="26" y="0" width="1" height="1" fill="#4b413e"/>
<rect x="21" y="0" width="1" height="1" fill="#4d423e"/>
<rect x="27" y="0" width="1" height="1" fill="#4a413e"/>
<rect x="31" y="0" width="1" height="1" fill="#4a413e"/>
<rect x="0" y="0" width="5" height="1" fill="#655850"/>
<rect x="25" y="0" width="1" height="1" fill="#4a403d"/>
<rect x="22" y="0" width="3" height="1" fill="#49403d"/>
<rect x="10" y="0" width="1" height="1" fill="#7c6147"/>
<rect x="6" y="0" width="1" height="1" fill="#b5885b"/>
<rect x="20" y="0" width="1" height="1" fill="#584c42"/>
<rect x="11" y="0" width="3" height="1" fill="#655850"/>
<rect x="9" y="0" width="1" height="1" fill="#ac7c50"/>
<rect x="5" y="0" width="1" height="1" fill="#956f4c"/>
<rect x="14" y="0" width="2" height="1" fill="#635245"/>
<rect x="7" y="0" width="1" height="1" fill="#c49969"/>
<rect x="28" y="0" width="1" height="2" fill="#4d443e"/>
<rect x="29" y="0" width="2" height="2" fill="#50473e"/>
<rect x="0" y="1" width="1" height="1" fill="#635245"/>
<rect x="25" y="1" width="1" height="1" fill="#50473e"/>
<rect x="1" y="1" width="9" height="1" fill="#655850"/>
<rect x="23" y="1" width="1" height="1" fill="#735a44"/>
<rect x="18" y="1" width="2" height="1" fill="#4a3e3b"/>
<rect x="16" y="1" width="1" height="1" fill="#50443f"/>
<rect x="11" y="1" width="5" height="1" fill="#655850"/>
<rect x="27" y="1" width="1" height="1" fill="#4b413e"/>
<rect x="22" y="1" width="1" height="1" fill="#635245"/>
<rect x="17" y="1" width="1" height="1" fill="#4a403d"/>
<rect x="26" y="1" width="1" height="1" fill="#4d443e"/>
<rect x="10" y="1" width="1" height="1" fill="#635245"/>
<rect x="20" y="1" width="1" height="1" fill="#4d423e"/>
<rect x="21" y="1" width="1" height="1" fill="#614c3d"/>
<rect x="24" y="1" width="1" height="2" fill="#635245"/>
<rect x="31" y="1" width="1" height="2" fill="#4a403d"/>
<rect x="7" y="2" width="4" height="1" fill="#655850"/>
<rect x="0" y="2" width="1" height="1" fill="#42332e"/>
<rect x="23" y="2" width="1" height="1" fill="#826446"/>
<rect x="27" y="2" width="1" height="1" fill="#614c3d"/>
<rect x="30" y="2" width="1" height="1" fill="#4b413e"/>
<rect x="20" y="2" width="1" height="1" fill="#956f4c"/>
<rect x="29" y="2" width="1" height="1" fill="#4d443e"/>
<rect x="12" y="2" width="1" height="1" fill="#4d443e"/>
<rect x="6" y="2" width="1" height="1" fill="#635245"/>
<rect x="22" y="2" width="1" height="1" fill="#a0744c"/>
<rect x="28" y="2" width="1" height="1" fill="#584c42"/>
<rect x="19" y="2" width="1" height="1" fill="#735a44"/>
<rect x="25" y="2" width="2" height="1" fill="#584c42"/>
<rect x="1" y="2" width="1" height="1" fill="#4a3e3b"/>
<rect x="11" y="2" width="1" height="1" fill="#584c42"/>
<rect x="18" y="2" width="1" height="1" fill="#50443f"/>
<rect x="2" y="2" width="4" height="1" fill="#655850"/>
<rect x="16" y="2" width="2" height="1" fill="#49403d"/>
<rect x="13" y="2" width="3" height="1" fill="#4a3e3b"/>
<rect x="16" y="3" width="1" height="1" fill="#4a403d"/>
<rect x="9" y="3" width="1" height="1" fill="#4a3e3b"/>
<rect x="4" y="3" width="3" height="1" fill="#655850"/>
<rect x="19" y="3" width="1" height="1" fill="#826446"/>
<rect x="0" y="3" width="3" height="1" fill="#42332e"/>
<rect x="18" y="3" width="1" height="1" fill="#584c42"/>
<rect x="11" y="3" width="1" height="1" fill="#50443f"/>
<rect x="20" y="3" width="1" height="1" fill="#a0744c"/>
<rect x="21" y="3" width="1" height="1" fill="#bf8754"/>
<rect x="17" y="3" width="1" height="1" fill="#49403d"/>
<rect x="26" y="3" width="1" height="1" fill="#956f4c"/>
<rect x="8" y="3" width="1" height="1" fill="#4b413e"/>
<rect x="25" y="3" width="1" height="1" fill="#b58253"/>
<rect x="7" y="3" width="1" height="1" fill="#584c42"/>
<rect x="23" y="3" width="1" height="1" fill="#bf9366"/>
<rect x="10" y="3" width="1" height="1" fill="#49403d"/>
<rect x="3" y="3" width="1" height="1" fill="#584c42"/>
<rect x="27" y="3" width="1" height="1" fill="#826446"/>
<rect x="28" y="3" width="1" height="1" fill="#635245"/>
<rect x="24" y="3" width="1" height="1" fill="#b5885b"/>
<rect x="13" y="3" width="1" height="1" fill="#826446"/>
<rect x="14" y="3" width="1" height="1" fill="#a0744c"/>
<rect x="29" y="3" width="3" height="1" fill="#4a413e"/>
<rect x="22" y="3" width="1" height="1" fill="#b5885b"/>
<rect x="12" y="3" width="1" height="1" fill="#635245"/>
<rect x="15" y="3" width="1" height="2" fill="#614c3d"/>
<rect x="11" y="4" width="1" height="1" fill="#b58253"/>
<rect x="0" y="4" width="1" height="1" fill="#42332e"/>
<rect x="1" y="4" width="1" height="1" fill="#473d39"/>
<rect x="31" y="4" width="1" height="1" fill="#4a403d"/>
<rect x="16" y="4" width="1" height="1" fill="#49403d"/>
<rect x="2" y="4" width="1" height="1" fill="#42332e"/>
<rect x="26" y="4" width="1" height="1" fill="#a0744c"/>
<rect x="18" y="4" width="1" height="1" fill="#635245"/>
<rect x="8" y="4" width="1" height="1" fill="#50443f"/>
<rect x="5" y="4" width="1" height="1" fill="#4a3e3b"/>
<rect x="19" y="4" width="1" height="1" fill="#ac7c50"/>
<rect x="17" y="4" width="1" height="1" fill="#4b413e"/>
<rect x="29" y="4" width="2" height="1" fill="#635245"/>
<rect x="27" y="4" width="1" height="1" fill="#8a6848"/>
<rect x="28" y="4" width="1" height="1" fill="#7c6147"/>
<rect x="9" y="4" width="1" height="1" fill="#735a44"/>
<rect x="6" y="4" width="2" height="1" fill="#4a403d"/>
<rect x="21" y="4" width="1" height="1" fill="#c69e6d"/>
<rect x="24" y="4" width="1" height="1" fill="#bf9366"/>
<rect x="3" y="4" width="1" height="1" fill="#40302b"/>
<rect x="10" y="4" width="1" height="1" fill="#a0744c"/>
<rect x="20" y="4" width="1" height="2" fill="#c08c59"/>
<rect x="23" y="4" width="1" height="2" fill="#c9b498"/>
<rect x="5" y="5" width="1" height="1" fill="#4a403d"/>
<rect x="7" y="5" width="1" height="1" fill="#4b413e"/>
<rect x="21" y="5" width="1" height="1" fill="#c49969"/>
<rect x="13" y="5" width="1" height="1" fill="#ac7c50"/>
<rect x="2" y="5" width="2" height="1" fill="#40302b"/>
<rect x="24" y="5" width="1" height="1" fill="#c6a781"/>
<rect x="18" y="5" width="1" height="1" fill="#735a44"/>
<rect x="10" y="5" width="1" height="1" fill="#ac7c50"/>
<rect x="17" y="5" width="1" height="1" fill="#50473e"/>
<rect x="29" y="5" width="1" height="1" fill="#826446"/>
<rect x="9" y="5" width="1" height="1" fill="#7c6147"/>
<rect x="14" y="5" width="1" height="1" fill="#8a6848"/>
<rect x="25" y="5" width="1" height="1" fill="#c8b193"/>
<rect x="8" y="5" width="1" height="1" fill="#584c42"/>
<rect x="30" y="5" width="1" height="1" fill="#735a44"/>
<rect x="11" y="5" width="2" height="1" fill="#c08c59"/>
<rect x="22" y="4" width="1" height="3" fill="#c6a781"/>
<rect x="4" y="4" width="1" height="3" fill="#50443f"/>
<rect x="16" y="5" width="1" height="2" fill="#4a403d"/>
<rect x="28" y="5" width="1" height="2" fill="#a0744c"/>
<rect x="0" y="5" width="2" height="2" fill="#42332e"/>
<rect x="6" y="5" width="1" height="2" fill="#50473e"/>
<rect x="26" y="5" width="1" height="2" fill="#bf9366"/>
<rect x="15" y="5" width="1" height="2" fill="#50443f"/>
<rect x="10" y="6" width="1" height="1" fill="#c6a781"/>
<rect x="27" y="6" width="1" height="1" fill="#bf8754"/>
<rect x="14" y="6" width="1" height="1" fill="#7c6147"/>
<rect x="11" y="6" width="1" height="1" fill="#c8b193"/>
<rect x="5" y="6" width="1" height="1" fill="#4b413e"/>
<rect x="17" y="6" width="1" height="1" fill="#4d443e"/>
<rect x="29" y="6" width="1" height="1" fill="#956f4c"/>
<rect x="23" y="6" width="3" height="1" fill="#c9b498"/>
<rect x="8" y="6" width="1" height="1" fill="#826446"/>
<rect x="12" y="6" width="1" height="1" fill="#c69e6d"/>
<rect x="9" y="6" width="1" height="1" fill="#ac7c50"/>
<rect x="20" y="6" width="1" height="1" fill="#ac7c50"/>
<rect x="13" y="6" width="1" height="1" fill="#a0744c"/>
<rect x="30" y="6" width="1" height="1" fill="#7c6147"/>
<rect x="7" y="6" width="1" height="1" fill="#614c3d"/>
<rect x="19" y="6" width="1" height="1" fill="#8a6848"/>
<rect x="18" y="6" width="1" height="2" fill="#635245"/>
<rect x="3" y="6" width="1" height="2" fill="#42332e"/>
<rect x="12" y="7" width="1" height="1" fill="#bf9366"/>
<rect x="14" y="7" width="1" height="1" fill="#584c42"/>
<rect x="19" y="7" width="1" height="1" fill="#826446"/>
<rect x="23" y="7" width="1" height="1" fill="#c6a781"/>
<rect x="27" y="7" width="1" height="1" fill="#c9b498"/>
<rect x="13" y="7" width="1" height="1" fill="#7c6147"/>
<rect x="25" y="7" width="1" height="1" fill="#c9b498"/>
<rect x="20" y="7" width="1" height="1" fill="#a0744c"/>
<rect x="5" y="7" width="1" height="1" fill="#49403d"/>
<rect x="6" y="7" width="1" height="1" fill="#4d423e"/>
<rect x="24" y="7" width="1" height="1" fill="#c8b193"/>
<rect x="26" y="7" width="1" height="1" fill="#c8b193"/>
<rect x="17" y="7" width="1" height="1" fill="#49403d"/>
<rect x="0" y="7" width="1" height="1" fill="#473d39"/>
<rect x="21" y="7" width="1" height="1" fill="#b58253"/>
<rect x="4" y="7" width="1" height="1" fill="#4d423e"/>
<rect x="22" y="7" width="1" height="1" fill="#c69e6d"/>
<rect x="8" y="7" width="1" height="1" fill="#a0744c"/>
<rect x="7" y="7" width="1" height="1" fill="#7c6147"/>
<rect x="10" y="7" width="1" height="1" fill="#c8b193"/>
<rect x="15" y="7" width="2" height="1" fill="#4a403d"/>
<rect x="11" y="7" width="1" height="2" fill="#c6a781"/>
<rect x="28" y="7" width="1" height="2" fill="#c49969"/>
<rect x="1" y="7" width="1" height="2" fill="#42332e"/>
<rect x="5" y="8" width="1" height="1" fill="#4a403d"/>
<rect x="8" y="8" width="1" height="1" fill="#bf9366"/>
<rect x="9" y="8" width="1" height="1" fill="#c8b193"/>
<rect x="19" y="8" width="1" height="1" fill="#584c42"/>
<rect x="13" y="8" width="1" height="1" fill="#635245"/>
<rect x="7" y="8" width="1" height="1" fill="#a0744c"/>
<rect x="24" y="8" width="1" height="1" fill="#c6a781"/>
<rect x="10" y="8" width="1" height="1" fill="#c9b498"/>
<rect x="25" y="8" width="3" height="1" fill="#c9b498"/>
<rect x="0" y="8" width="1" height="1" fill="#614c3d"/>
<rect x="14" y="8" width="1" height="1" fill="#50473e"/>
<rect x="6" y="8" width="1" height="1" fill="#50473e"/>
<rect x="21" y="8" width="1" height="1" fill="#826446"/>
<rect x="16" y="8" width="1" height="1" fill="#584c42"/>
<rect x="3" y="8" width="1" height="1" fill="#473d39"/>
<rect x="17" y="8" width="2" height="1" fill="#614c3d"/>
<rect x="4" y="8" width="1" height="1" fill="#4a3e3b"/>
<rect x="15" y="8" width="1" height="1" fill="#50443f"/>
<rect x="22" y="8" width="1" height="1" fill="#ac7c50"/>
<rect x="30" y="7" width="1" height="3" fill="#8a6848"/>
<rect x="20" y="8" width="1" height="2" fill="#735a44"/>
<rect x="10" y="9" width="1" height="1" fill="#c6a781"/>
<rect x="24" y="9" width="4" height="1" fill="#c69e6d"/>
<rect x="14" y="9" width="1" height="1" fill="#584c42"/>
<rect x="0" y="9" width="1" height="1" fill="#826446"/>
<rect x="21" y="9" width="1" height="1" fill="#7c6147"/>
<rect x="3" y="9" width="2" height="1" fill="#473d39"/>
<rect x="6" y="9" width="1" height="1" fill="#614c3d"/>
<rect x="18" y="9" width="1" height="1" fill="#614c3d"/>
<rect x="22" y="9" width="2" height="1" fill="#ac7c50"/>
<rect x="5" y="9" width="1" height="1" fill="#4d443e"/>
<rect x="13" y="9" width="1" height="1" fill="#50473e"/>
<rect x="12" y="9" width="1" height="1" fill="#826446"/>
<rect x="19" y="9" width="1" height="1" fill="#49403d"/>
<rect x="8" y="9" width="1" height="1" fill="#c6a781"/>
<rect x="9" y="9" width="1" height="1" fill="#c9b498"/>
<rect x="17" y="9" width="1" height="1" fill="#826446"/>
<rect x="15" y="9" width="1" height="1" fill="#b58253"/>
<rect x="11" y="9" width="1" height="1" fill="#b5885b"/>
<rect x="16" y="9" width="1" height="2" fill="#ac7c50"/>
<rect x="28" y="9" width="1" height="2" fill="#c08c59"/>
<rect x="24" y="10" width="1" height="1" fill="#b58253"/>
<rect x="19" y="10" width="1" height="1" fill="#956f4c"/>
<rect x="23" y="10" width="1" height="1" fill="#826446"/>
<rect x="8" y="10" width="2" height="1" fill="#c8b193"/>
<rect x="12" y="10" width="1" height="1" fill="#50473e"/>
<rect x="13" y="10" width="1" height="1" fill="#4a403d"/>
<rect x="3" y="10" width="1" height="1" fill="#4a3e3b"/>
<rect x="14" y="10" width="1" height="1" fill="#614c3d"/>
<rect x="6" y="10" width="1" height="1" fill="#7c6147"/>
<rect x="7" y="10" width="1" height="1" fill="#c6a781"/>
<rect x="11" y="10" width="1" height="1" fill="#826446"/>
<rect x="0" y="10" width="1" height="1" fill="#ac7c50"/>
<rect x="30" y="10" width="1" height="1" fill="#826446"/>
<rect x="21" y="10" width="1" height="1" fill="#50443f"/>
<rect x="17" y="10" width="1" height="1" fill="#956f4c"/>
<rect x="20" y="10" width="1" height="1" fill="#635245"/>
<rect x="27" y="10" width="1" height="1" fill="#c69e6d"/>
<rect x="18" y="10" width="1" height="1" fill="#8a6848"/>
<rect x="5" y="10" width="1" height="1" fill="#584c42"/>
<rect x="22" y="10" width="1" height="1" fill="#7c6147"/>
<rect x="26" y="10" width="1" height="1" fill="#c49969"/>
<rect x="26" y="11" width="2" height="1" fill="#c08c59"/>
<rect x="5" y="11" width="1" height="1" fill="#735a44"/>
<rect x="24" y="11" width="2" height="1" fill="#ac7c50"/>
<rect x="28" y="11" width="1" height="1" fill="#a0744c"/>
<rect x="9" y="11" width="1" height="1" fill="#c6a781"/>
<rect x="13" y="11" width="1" height="1" fill="#735a44"/>
<rect x="12" y="11" width="1" height="1" fill="#4d443e"/>
<rect x="29" y="11" width="1" height="1" fill="#8a6848"/>
<rect x="23" y="11" width="1" height="1" fill="#7c6147"/>
<rect x="21" y="11" width="1" height="1" fill="#4b413e"/>
<rect x="16" y="11" width="1" height="1" fill="#c08c59"/>
<rect x="8" y="11" width="1" height="1" fill="#c8b193"/>
<rect x="14" y="11" width="1" height="1" fill="#8a6848"/>
<rect x="20" y="11" width="1" height="1" fill="#614c3d"/>
<rect x="17" y="11" width="1" height="1" fill="#c69e6d"/>
<rect x="7" y="11" width="1" height="1" fill="#c9b498"/>
<rect x="11" y="11" width="1" height="1" fill="#635245"/>
<rect x="3" y="11" width="1" height="1" fill="#4d423e"/>
<rect x="18" y="11" width="1" height="1" fill="#c08c59"/>
<rect x="22" y="11" width="1" height="1" fill="#735a44"/>
<rect x="10" y="11" width="1" height="1" fill="#a0744c"/>
<rect x="6" y="11" width="1" height="1" fill="#956f4c"/>
<rect x="1" y="9" width="1" height="4" fill="#614c3d"/>
<rect x="4" y="10" width="1" height="3" fill="#473d39"/>
<rect x="30" y="11" width="1" height="2" fill="#635245"/>
<rect x="26" y="12" width="1" height="1" fill="#b58253"/>
<rect x="17" y="12" width="3" height="1" fill="#c69e6d"/>
<rect x="16" y="12" width="1" height="1" fill="#bf9366"/>
<rect x="9" y="12" width="1" height="1" fill="#a0744c"/>
<rect x="13" y="12" width="1" height="1" fill="#7c6147"/>
<rect x="28" y="12" width="1" height="1" fill="#956f4c"/>
<rect x="6" y="12" width="1" height="1" fill="#b5885b"/>
<rect x="7" y="12" width="1" height="1" fill="#c69e6d"/>
<rect x="29" y="12" width="1" height="1" fill="#826446"/>
<rect x="8" y="12" width="1" height="1" fill="#c08c59"/>
<rect x="5" y="12" width="1" height="1" fill="#956f4c"/>
<rect x="11" y="12" width="2" height="1" fill="#4b413e"/>
<rect x="22" y="12" width="1" height="1" fill="#584c42"/>
<rect x="24" y="12" width="1" height="1" fill="#7c6147"/>
<rect x="20" y="12" width="2" height="1" fill="#a0744c"/>
<rect x="25" y="12" width="1" height="1" fill="#826446"/>
<rect x="14" y="12" width="1" height="1" fill="#956f4c"/>
<rect x="31" y="5" width="1" height="9" fill="#49403d"/>
<rect x="0" y="11" width="1" height="3" fill="#bf8754"/>
<rect x="3" y="12" width="1" height="2" fill="#4d443e"/>
<rect x="23" y="12" width="1" height="2" fill="#4d423e"/>
<rect x="10" y="12" width="1" height="2" fill="#4d443e"/>
<rect x="12" y="13" width="1" height="1" fill="#735a44"/>
<rect x="29" y="13" width="1" height="1" fill="#614c3d"/>
<rect x="24" y="13" width="2" height="1" fill="#7c6147"/>
<rect x="9" y="13" width="1" height="1" fill="#8a6848"/>
<rect x="30" y="13" width="1" height="1" fill="#50473e"/>
<rect x="22" y="13" width="1" height="1" fill="#50473e"/>
<rect x="13" y="13" width="1" height="1" fill="#ac7c50"/>
<rect x="20" y="13" width="1" height="1" fill="#c08c59"/>
<rect x="14" y="13" width="1" height="1" fill="#b5885b"/>
<rect x="8" y="13" width="1" height="1" fill="#b58253"/>
<rect x="26" y="13" width="1" height="1" fill="#a0744c"/>
<rect x="21" y="13" width="1" height="1" fill="#b58253"/>
<rect x="1" y="13" width="1" height="1" fill="#4a3e3b"/>
<rect x="15" y="13" width="1" height="1" fill="#c49969"/>
<rect x="27" y="13" width="1" height="1" fill="#956f4c"/>
<rect x="28" y="13" width="1" height="1" fill="#735a44"/>
<rect x="4" y="13" width="1" height="1" fill="#4a3e3b"/>
<rect x="6" y="13" width="1" height="1" fill="#c08c59"/>
<rect x="7" y="13" width="1" height="1" fill="#c49969"/>
<rect x="11" y="13" width="1" height="1" fill="#614c3d"/>
<rect x="2" y="6" width="1" height="9" fill="#40302b"/>
<rect x="5" y="13" width="1" height="2" fill="#b58253"/>
<rect x="17" y="13" width="3" height="2" fill="#c9b498"/>
<rect x="16" y="13" width="1" height="2" fill="#c6a781"/>
<rect x="28" y="14" width="1" height="1" fill="#4b413e"/>
<rect x="29" y="14" width="1" height="1" fill="#4a413e"/>
<rect x="9" y="14" width="1" height="1" fill="#4d443e"/>
<rect x="24" y="14" width="1" height="1" fill="#50443f"/>
<rect x="30" y="14" width="1" height="1" fill="#4b413e"/>
<rect x="15" y="14" width="1" height="1" fill="#c69e6d"/>
<rect x="7" y="14" width="1" height="1" fill="#8a6848"/>
<rect x="20" y="14" width="2" height="1" fill="#bf9366"/>
<rect x="12" y="14" width="1" height="1" fill="#8a6848"/>
<rect x="0" y="14" width="1" height="1" fill="#614c3d"/>
<rect x="25" y="14" width="1" height="1" fill="#4b413e"/>
<rect x="23" y="14" width="1" height="1" fill="#735a44"/>
<rect x="10" y="14" width="1" height="1" fill="#49403d"/>
<rect x="3" y="14" width="2" height="1" fill="#50443f"/>
<rect x="1" y="14" width="1" height="1" fill="#42332e"/>
<rect x="8" y="14" width="1" height="1" fill="#584c42"/>
<rect x="14" y="14" width="1" height="1" fill="#c08c59"/>
<rect x="22" y="14" width="1" height="1" fill="#7c6147"/>
<rect x="6" y="14" width="1" height="1" fill="#a0744c"/>
<rect x="11" y="14" width="1" height="1" fill="#735a44"/>
<rect x="31" y="14" width="1" height="2" fill="#4a403d"/>
<rect x="26" y="14" width="2" height="2" fill="#50473e"/>
<rect x="6" y="15" width="1" height="1" fill="#956f4c"/>
<rect x="28" y="15" width="3" height="1" fill="#4b413e"/>
<rect x="15" y="15" width="1" height="1" fill="#c8b193"/>
<rect x="10" y="15" width="1" height="1" fill="#584c42"/>
<rect x="4" y="15" width="1" height="1" fill="#584c42"/>
<rect x="13" y="15" width="1" height="1" fill="#bf9366"/>
<rect x="25" y="15" width="1" height="1" fill="#4a413e"/>
<rect x="11" y="15" width="1" height="1" fill="#956f4c"/>
<rect x="23" y="15" width="1" height="1" fill="#7c6147"/>
<rect x="22" y="15" width="1" height="1" fill="#826446"/>
<rect x="16" y="15" width="4" height="1" fill="#c9b498"/>
<rect x="7" y="15" width="1" height="1" fill="#7c6147"/>
<rect x="8" y="15" width="2" height="1" fill="#50473e"/>
<rect x="12" y="15" width="1" height="1" fill="#ac7c50"/>
<rect x="14" y="15" width="1" height="2" fill="#c6a781"/>
<rect x="10" y="16" width="1" height="1" fill="#826446"/>
<rect x="11" y="16" width="1" height="1" fill="#b58253"/>
<rect x="7" y="16" width="1" height="1" fill="#50473e"/>
<rect x="6" y="16" width="1" height="1" fill="#584c42"/>
<rect x="5" y="16" width="1" height="1" fill="#635245"/>
<rect x="15" y="16" width="4" height="1" fill="#c9b498"/>
<rect x="4" y="16" width="1" height="1" fill="#4d423e"/>
<rect x="25" y="16" width="3" height="1" fill="#4a413e"/>
<rect x="28" y="16" width="1" height="1" fill="#4a403d"/>
<rect x="9" y="16" width="1" height="1" fill="#635245"/>
<rect x="22" y="16" width="2" height="1" fill="#a0744c"/>
<rect x="13" y="16" width="1" height="1" fill="#c69e6d"/>
<rect x="0" y="15" width="1" height="3" fill="#42332e"/>
<rect x="21" y="15" width="1" height="3" fill="#c49969"/>
<rect x="20" y="15" width="1" height="3" fill="#c69e6d"/>
<rect x="1" y="15" width="2" height="3" fill="#40302b"/>
<rect x="24" y="15" width="1" height="3" fill="#4d423e"/>
<rect x="19" y="16" width="1" height="2" fill="#c8b193"/>
<rect x="29" y="16" width="3" height="2" fill="#4b413e"/>
<rect x="8" y="16" width="1" height="2" fill="#49403d"/>
<rect x="26" y="17" width="1" height="1" fill="#49403d"/>
<rect x="6" y="17" width="2" height="1" fill="#50473e"/>
<rect x="25" y="17" width="1" height="1" fill="#4a403d"/>
<rect x="5" y="17" width="1" height="1" fill="#4b413e"/>
<rect x="23" y="17" width="1" height="1" fill="#ac7c50"/>
<rect x="27" y="17" width="2" height="1" fill="#4a403d"/>
<rect x="4" y="17" width="1" height="1" fill="#49403d"/>
<rect x="9" y="17" width="1" height="1" fill="#735a44"/>
<rect x="17" y="17" width="2" height="1" fill="#c9b498"/>
<rect x="10" y="17" width="1" height="1" fill="#956f4c"/>
<rect x="3" y="15" width="1" height="4" fill="#50443f"/>
<rect x="12" y="16" width="1" height="3" fill="#c08c59"/>
<rect x="13" y="17" width="3" height="2" fill="#c69e6d"/>
<rect x="16" y="17" width="1" height="2" fill="#c8b193"/>
<rect x="23" y="18" width="1" height="1" fill="#8a6848"/>
<rect x="8" y="18" width="1" height="1" fill="#4a403d"/>
<rect x="28" y="18" width="2" height="1" fill="#7c6147"/>
<rect x="31" y="18" width="1" height="1" fill="#4a403d"/>
<rect x="17" y="18" width="1" height="1" fill="#c9b498"/>
<rect x="9" y="18" width="1" height="1" fill="#a0744c"/>
<rect x="21" y="18" width="1" height="1" fill="#bf9366"/>
<rect x="25" y="18" width="1" height="1" fill="#735a44"/>
<rect x="18" y="18" width="2" height="1" fill="#c8b193"/>
<rect x="26" y="18" width="1" height="1" fill="#956f4c"/>
<rect x="5" y="18" width="3" height="1" fill="#4b413e"/>
<rect x="22" y="18" width="1" height="1" fill="#956f4c"/>
<rect x="27" y="18" width="1" height="1" fill="#a0744c"/>
<rect x="24" y="18" width="1" height="1" fill="#635245"/>
<rect x="20" y="18" width="1" height="1" fill="#c49969"/>
<rect x="2" y="18" width="1" height="2" fill="#42332e"/>
<rect x="0" y="18" width="1" height="2" fill="#614c3d"/>
<rect x="4" y="18" width="1" height="2" fill="#4a403d"/>
<rect x="30" y="18" width="1" height="2" fill="#584c42"/>
<rect x="8" y="19" width="1" height="1" fill="#4d423e"/>
<rect x="6" y="19" width="2" height="1" fill="#4d443e"/>
<rect x="22" y="19" width="1" height="1" fill="#49403d"/>
<rect x="28" y="19" width="1" height="1" fill="#8a6848"/>
<rect x="31" y="19" width="1" height="1" fill="#4a413e"/>
<rect x="3" y="19" width="1" height="1" fill="#4b413e"/>
<rect x="9" y="19" width="1" height="1" fill="#956f4c"/>
<rect x="27" y="19" width="1" height="1" fill="#b58253"/>
<rect x="24" y="19" width="1" height="1" fill="#826446"/>
<rect x="5" y="19" width="1" height="1" fill="#4b413e"/>
<rect x="29" y="19" width="1" height="1" fill="#826446"/>
<rect x="11" y="19" width="3" height="1" fill="#c08c59"/>
<rect x="25" y="19" width="1" height="1" fill="#8a6848"/>
<rect x="23" y="19" width="1" height="1" fill="#50443f"/>
<rect x="10" y="19" width="1" height="1" fill="#a0744c"/>
<rect x="14" y="19" width="1" height="2" fill="#c49969"/>
<rect x="19" y="19" width="1" height="2" fill="#c49969"/>
<rect x="21" y="19" width="1" height="2" fill="#a0744c"/>
<rect x="15" y="19" width="4" height="2" fill="#c69e6d"/>
<rect x="26" y="20" width="2" height="1" fill="#c08c59"/>
<rect x="5" y="20" width="1" height="1" fill="#7c6147"/>
<rect x="24" y="20" width="1" height="1" fill="#8a6848"/>
<rect x="3" y="20" width="1" height="1" fill="#4a3e3b"/>
<rect x="8" y="20" width="1" height="1" fill="#50473e"/>
<rect x="0" y="20" width="1" height="1" fill="#7c6147"/>
<rect x="31" y="20" width="1" height="1" fill="#4b413e"/>
<rect x="12" y="20" width="1" height="1" fill="#c08c59"/>
<rect x="4" y="20" width="1" height="1" fill="#635245"/>
<rect x="11" y="20" width="1" height="1" fill="#c69e6d"/>
<rect x="2" y="20" width="1" height="1" fill="#473d39"/>
<rect x="23" y="20" width="1" height="1" fill="#614c3d"/>
<rect x="6" y="20" width="1" height="1" fill="#b58253"/>
<rect x="9" y="20" width="1" height="1" fill="#4a413e"/>
<rect x="28" y="20" width="2" height="1" fill="#a0744c"/>
<rect x="25" y="20" width="1" height="1" fill="#956f4c"/>
<rect x="30" y="20" width="1" height="1" fill="#635245"/>
<rect x="22" y="20" width="1" height="1" fill="#4d423e"/>
<rect x="7" y="20" width="1" height="2" fill="#8a6848"/>
<rect x="10" y="20" width="1" height="2" fill="#635245"/>
<rect x="23" y="21" width="1" height="1" fill="#8a6848"/>
<rect x="2" y="21" width="1" height="1" fill="#4a3e3b"/>
<rect x="20" y="21" width="1" height="1" fill="#50443f"/>
<rect x="27" y="21" width="1" height="1" fill="#c49969"/>
<rect x="21" y="21" width="1" height="1" fill="#614c3d"/>
<rect x="31" y="21" width="1" height="1" fill="#49403d"/>
<rect x="25" y="21" width="1" height="1" fill="#bf8754"/>
<rect x="26" y="21" width="1" height="1" fill="#c69e6d"/>
<rect x="18" y="21" width="1" height="1" fill="#bf8754"/>
<rect x="0" y="21" width="1" height="1" fill="#735a44"/>
<rect x="4" y="21" width="1" height="1" fill="#735a44"/>
<rect x="5" y="21" width="1" height="1" fill="#8a6848"/>
<rect x="9" y="21" width="1" height="1" fill="#4d423e"/>
<rect x="8" y="21" width="1" height="1" fill="#584c42"/>
<rect x="11" y="21" width="1" height="1" fill="#ac7c50"/>
<rect x="22" y="21" width="1" height="1" fill="#7c6147"/>
<rect x="30" y="21" width="1" height="1" fill="#735a44"/>
<rect x="13" y="21" width="3" height="1" fill="#c08c59"/>
<rect x="12" y="21" width="1" height="1" fill="#b5885b"/>
<rect x="19" y="21" width="1" height="2" fill="#a0744c"/>
<rect x="17" y="21" width="1" height="2" fill="#c49969"/>
<rect x="16" y="21" width="1" height="2" fill="#c69e6d"/>
<rect x="11" y="22" width="1" height="1" fill="#49403d"/>
<rect x="23" y="22" width="1" height="1" fill="#956f4c"/>
<rect x="4" y="22" width="1" height="1" fill="#956f4c"/>
<rect x="26" y="22" width="2" height="1" fill="#c69e6d"/>
<rect x="5" y="22" width="1" height="1" fill="#b58253"/>
<rect x="9" y="22" width="1" height="1" fill="#584c42"/>
<rect x="6" y="22" width="1" height="1" fill="#c49969"/>
<rect x="12" y="22" width="1" height="1" fill="#a0744c"/>
<rect x="22" y="22" width="1" height="1" fill="#826446"/>
<rect x="2" y="22" width="1" height="1" fill="#4d423e"/>
<rect x="20" y="22" width="1" height="1" fill="#473d39"/>
<rect x="25" y="22" width="1" height="1" fill="#c08c59"/>
<rect x="10" y="22" width="1" height="1" fill="#4d443e"/>
<rect x="0" y="22" width="1" height="1" fill="#4a3e3b"/>
<rect x="21" y="22" width="1" height="1" fill="#584c42"/>
<rect x="13" y="22" width="1" height="1" fill="#c69e6d"/>
<rect x="14" y="22" width="2" height="1" fill="#bf8754"/>
<rect x="31" y="22" width="1" height="2" fill="#4a403d"/>
<rect x="8" y="22" width="1" height="2" fill="#b58253"/>
<rect x="7" y="22" width="1" height="2" fill="#c08c59"/>
<rect x="4" y="23" width="1" height="1" fill="#a0744c"/>
<rect x="19" y="23" width="2" height="1" fill="#735a44"/>
<rect x="16" y="23" width="1" height="1" fill="#bf9366"/>
<rect x="6" y="23" width="1" height="1" fill="#c69e6d"/>
<rect x="11" y="23" width="1" height="1" fill="#4b413e"/>
<rect x="10" y="23" width="1" height="1" fill="#584c42"/>
<rect x="13" y="23" width="1" height="1" fill="#ac7c50"/>
<rect x="18" y="23" width="1" height="1" fill="#7c6147"/>
<rect x="14" y="23" width="2" height="1" fill="#c08c59"/>
<rect x="17" y="23" width="1" height="1" fill="#b58253"/>
<rect x="0" y="23" width="1" height="1" fill="#473d39"/>
<rect x="23" y="23" width="1" height="1" fill="#b5885b"/>
<rect x="12" y="23" width="1" height="1" fill="#956f4c"/>
<rect x="5" y="23" width="1" height="1" fill="#c08c59"/>
<rect x="21" y="23" width="1" height="1" fill="#8a6848"/>
<rect x="9" y="23" width="1" height="1" fill="#614c3d"/>
<rect x="22" y="23" width="1" height="1" fill="#ac7c50"/>
<rect x="24" y="23" width="4" height="1" fill="#c8b193"/>
<rect x="3" y="21" width="1" height="4" fill="#473d39"/>
<rect x="28" y="21" width="1" height="4" fill="#bf8754"/>
<rect x="30" y="22" width="1" height="3" fill="#635245"/>
<rect x="12" y="24" width="1" height="1" fill="#4a413e"/>
<rect x="5" y="24" width="1" height="1" fill="#ac7c50"/>
<rect x="4" y="24" width="1" height="1" fill="#826446"/>
<rect x="11" y="24" width="1" height="1" fill="#50473e"/>
<rect x="31" y="24" width="1" height="1" fill="#4a413e"/>
<rect x="6" y="24" width="2" height="1" fill="#c8b193"/>
<rect x="20" y="24" width="1" height="1" fill="#826446"/>
<rect x="19" y="24" width="1" height="1" fill="#614c3d"/>
<rect x="13" y="24" width="1" height="1" fill="#50473e"/>
<rect x="18" y="24" width="1" height="1" fill="#49403d"/>
<rect x="23" y="24" width="1" height="1" fill="#bf9366"/>
<rect x="27" y="24" width="1" height="1" fill="#c8b193"/>
<rect x="24" y="24" width="3" height="1" fill="#c9b498"/>
<rect x="17" y="24" width="1" height="1" fill="#956f4c"/>
<rect x="21" y="24" width="1" height="1" fill="#956f4c"/>
<rect x="14" y="24" width="2" height="1" fill="#c49969"/>
<rect x="1" y="18" width="1" height="8" fill="#40302b"/>
<rect x="0" y="24" width="1" height="2" fill="#42332e"/>
<rect x="8" y="24" width="1" height="2" fill="#c6a781"/>
<rect x="10" y="24" width="1" height="2" fill="#8a6848"/>
<rect x="13" y="25" width="1" height="1" fill="#584c42"/>
<rect x="5" y="25" width="1" height="1" fill="#b5885b"/>
<rect x="18" y="25" width="1" height="1" fill="#584c42"/>
<rect x="23" y="25" width="1" height="1" fill="#c6a781"/>
<rect x="27" y="25" width="1" height="1" fill="#bf9366"/>
<rect x="21" y="25" width="1" height="1" fill="#b5885b"/>
<rect x="20" y="25" width="1" height="1" fill="#956f4c"/>
<rect x="3" y="25" width="1" height="1" fill="#4a3e3b"/>
<rect x="12" y="25" width="1" height="1" fill="#4d443e"/>
<rect x="31" y="25" width="1" height="1" fill="#4b413e"/>
<rect x="4" y="25" width="1" height="1" fill="#7c6147"/>
<rect x="19" y="25" width="1" height="1" fill="#735a44"/>
<rect x="16" y="25" width="1" height="1" fill="#a0744c"/>
<rect x="17" y="25" width="1" height="1" fill="#8a6848"/>
<rect x="11" y="25" width="1" height="1" fill="#584c42"/>
<rect x="22" y="25" width="1" height="1" fill="#c69e6d"/>
<rect x="6" y="25" width="2" height="1" fill="#c9b498"/>
<rect x="28" y="25" width="2" height="1" fill="#956f4c"/>
<rect x="14" y="25" width="2" height="1" fill="#b5885b"/>
<rect x="24" y="25" width="1" height="1" fill="#c9b498"/>
<rect x="9" y="25" width="1" height="1" fill="#bf8754"/>
<rect x="26" y="25" width="1" height="1" fill="#c49969"/>
<rect x="30" y="25" width="1" height="1" fill="#614c3d"/>
<rect x="25" y="25" width="1" height="2" fill="#c6a781"/>
<rect x="8" y="26" width="1" height="1" fill="#c9b498"/>
<rect x="22" y="26" width="3" height="1" fill="#c9b498"/>
<rect x="9" y="26" width="1" height="1" fill="#c8b193"/>
<rect x="17" y="26" width="1" height="1" fill="#614c3d"/>
<rect x="16" y="26" width="1" height="1" fill="#49403d"/>
<rect x="27" y="26" width="1" height="1" fill="#b58253"/>
<rect x="5" y="26" width="1" height="1" fill="#8a6848"/>
<rect x="30" y="26" width="1" height="1" fill="#584c42"/>
<rect x="28" y="26" width="2" height="1" fill="#826446"/>
<rect x="3" y="26" width="1" height="1" fill="#473d39"/>
<rect x="14" y="26" width="2" height="1" fill="#4a403d"/>
<rect x="6" y="26" width="1" height="1" fill="#c08c59"/>
<rect x="18" y="26" width="1" height="1" fill="#826446"/>
<rect x="19" y="26" width="1" height="2" fill="#a0744c"/>
<rect x="11" y="26" width="1" height="2" fill="#b58253"/>
<rect x="7" y="26" width="1" height="2" fill="#c8b193"/>
<rect x="10" y="26" width="1" height="2" fill="#bf9366"/>
<rect x="13" y="26" width="1" height="2" fill="#50473e"/>
<rect x="12" y="26" width="1" height="2" fill="#584c42"/>
<rect x="4" y="26" width="1" height="2" fill="#50473e"/>
<rect x="21" y="26" width="1" height="2" fill="#c69e6d"/>
<rect x="16" y="27" width="1" height="1" fill="#4a403d"/>
<rect x="26" y="27" width="1" height="1" fill="#b58253"/>
<rect x="27" y="27" width="1" height="1" fill="#ac7c50"/>
<rect x="17" y="27" width="1" height="1" fill="#635245"/>
<rect x="30" y="27" width="1" height="1" fill="#50473e"/>
<rect x="29" y="27" width="1" height="1" fill="#735a44"/>
<rect x="14" y="27" width="1" height="1" fill="#4a403d"/>
<rect x="23" y="27" width="2" height="1" fill="#c8b193"/>
<rect x="6" y="27" width="1" height="1" fill="#bf8754"/>
<rect x="8" y="27" width="2" height="1" fill="#c9b498"/>
<rect x="28" y="27" width="1" height="1" fill="#7c6147"/>
<rect x="15" y="27" width="1" height="1" fill="#4a413e"/>
<rect x="5" y="27" width="1" height="1" fill="#956f4c"/>
<rect x="18" y="27" width="1" height="1" fill="#8a6848"/>
<rect x="20" y="27" width="1" height="1" fill="#bf8754"/>
<rect x="25" y="27" width="1" height="1" fill="#c69e6d"/>
<rect x="0" y="26" width="2" height="3" fill="#40302b"/>
<rect x="12" y="28" width="1" height="1" fill="#b58253"/>
<rect x="7" y="28" width="1" height="1" fill="#c08c59"/>
<rect x="29" y="28" width="2" height="1" fill="#4a403d"/>
<rect x="4" y="28" width="1" height="1" fill="#4a413e"/>
<rect x="17" y="28" width="1" height="1" fill="#8a6848"/>
<rect x="6" y="28" width="1" height="1" fill="#956f4c"/>
<rect x="2" y="23" width="1" height="7" fill="#50443f"/>
<rect x="31" y="26" width="1" height="4" fill="#4d423e"/>
<rect x="3" y="27" width="1" height="3" fill="#4a3e3b"/>
<rect x="22" y="27" width="1" height="3" fill="#c9b498"/>
<rect x="10" y="28" width="1" height="2" fill="#c69e6d"/>
<rect x="27" y="28" width="1" height="2" fill="#735a44"/>
<rect x="5" y="28" width="1" height="2" fill="#735a44"/>
<rect x="23" y="28" width="1" height="2" fill="#c69e6d"/>
<rect x="16" y="28" width="1" height="2" fill="#50473e"/>
<rect x="11" y="28" width="1" height="2" fill="#c49969"/>
<rect x="26" y="28" width="1" height="2" fill="#826446"/>
<rect x="20" y="28" width="1" height="2" fill="#c69e6d"/>
<rect x="19" y="28" width="1" height="2" fill="#bf9366"/>
<rect x="28" y="28" width="1" height="2" fill="#4d423e"/>
<rect x="9" y="28" width="1" height="2" fill="#c9b498"/>
<rect x="25" y="28" width="1" height="2" fill="#a0744c"/>
<rect x="8" y="28" width="1" height="2" fill="#c69e6d"/>
<rect x="21" y="28" width="1" height="2" fill="#c6a781"/>
<rect x="13" y="28" width="1" height="2" fill="#956f4c"/>
<rect x="15" y="28" width="1" height="2" fill="#4d443e"/>
<rect x="4" y="29" width="1" height="1" fill="#4a403d"/>
<rect x="17" y="29" width="1" height="1" fill="#956f4c"/>
<rect x="6" y="29" width="1" height="1" fill="#8a6848"/>
<rect x="29" y="29" width="1" height="1" fill="#4a403d"/>
<rect x="1" y="29" width="1" height="2" fill="#42332e"/>
<rect x="11" y="30" width="1" height="1" fill="#b58253"/>
<rect x="4" y="30" width="2" height="1" fill="#50473e"/>
<rect x="21" y="30" width="1" height="1" fill="#ac7c50"/>
<rect x="26" y="30" width="2" height="1" fill="#584c42"/>
<rect x="25" y="30" width="1" height="1" fill="#635245"/>
<rect x="7" y="30" width="1" height="1" fill="#8a6848"/>
<rect x="20" y="30" width="1" height="1" fill="#c08c59"/>
<rect x="13" y="30" width="1" height="1" fill="#735a44"/>
<rect x="6" y="30" width="1" height="1" fill="#635245"/>
<rect x="12" y="30" width="1" height="1" fill="#8a6848"/>
<rect x="23" y="30" width="1" height="1" fill="#7c6147"/>
<rect x="22" y="30" width="1" height="1" fill="#956f4c"/>
<rect x="2" y="30" width="1" height="1" fill="#4d423e"/>
<rect x="19" y="30" width="1" height="1" fill="#b58253"/>
<rect x="3" y="30" width="1" height="1" fill="#4a403d"/>
<rect x="9" y="30" width="1" height="1" fill="#bf9366"/>
<rect x="24" y="30" width="1" height="1" fill="#735a44"/>
<rect x="18" y="30" width="1" height="1" fill="#956f4c"/>
<rect x="10" y="30" width="1" height="1" fill="#c08c59"/>
<rect x="14" y="28" width="1" height="4" fill="#49403d"/>
<rect x="30" y="29" width="1" height="3" fill="#4b413e"/>
<rect x="0" y="29" width="1" height="3" fill="#40302b"/>
<rect x="8" y="30" width="1" height="2" fill="#ac7c50"/>
<rect x="17" y="30" width="1" height="2" fill="#735a44"/>
<rect x="15" y="30" width="2" height="2" fill="#4b413e"/>
<rect x="28" y="30" width="2" height="2" fill="#50473e"/>
<rect x="31" y="30" width="1" height="2" fill="#4d443e"/>
<rect x="5" y="31" width="1" height="1" fill="#4a403d"/>
<rect x="1" y="31" width="1" height="1" fill="#473d39"/>
<rect x="6" y="31" width="1" height="1" fill="#584c42"/>
<rect x="24" y="31" width="1" height="1" fill="#50473e"/>
<rect x="3" y="31" width="1" height="1" fill="#4d443e"/>
<rect x="13" y="31" width="1" height="1" fill="#635245"/>
<rect x="7" y="31" width="1" height="1" fill="#826446"/>
<rect x="27" y="31" width="1" height="1" fill="#4d443e"/>
<rect x="19" y="31" width="1" height="1" fill="#ac7c50"/>
<rect x="22" y="31" width="1" height="1" fill="#826446"/>
<rect x="23" y="31" width="1" height="1" fill="#635245"/>
<rect x="12" y="31" width="1" height="1" fill="#826446"/>
<rect x="25" y="31" width="1" height="1" fill="#4d443e"/>
<rect x="2" y="31" width="1" height="1" fill="#4a403d"/>
<rect x="21" y="31" width="1" height="1" fill="#956f4c"/>
<rect x="4" y="31" width="1" height="1" fill="#50473e"/>
<rect x="26" y="31" width="1" height="1" fill="#4a403d"/>
<rect x="11" y="31" width="1" height="1" fill="#ac7c50"/>
<rect x="18" y="31" width="1" height="1" fill="#826446"/>
</svg>