<?xml version="1.0" encoding="UTF-8"?>
<svg xmlns="http://www.w3.org/2000/svg" width="20mm" height="20mm" viewBox="0 0 32 32" shape-rendering="crispEdges">
<title>043 右侧面 structured semantic redraw</title>
<metadata>registered 32-unit semantic vector redraw; no embedded raster; physical-size=20mm</metadata>
<rect x="0" y="0" width="32" height="32" fill="#717171"/>
<rect x="20" y="0" width="3" height="1" fill="#707a5e"/>
<rect x="31" y="0" width="1" height="1" fill="#5b664e"/>
<rect x="27" y="0" width="3" height="1" fill="#5f6e4c"/>
<rect x="24" y="0" width="1" height="1" fill="#747374"/>
<rect x="26" y="0" width="1" height="1" fill="#667155"/>
<rect x="17" y="0" width="1" height="1" fill="#787f6a"/>
<rect x="13" y="0" width="2" height="1" fill="#6a7655"/>
<rect x="9" y="0" width="4" height="1" fill="#707a5e"/>
<rect x="2" y="0" width="4" height="1" fill="#858384"/>
<rect x="1" y="0" width="1" height="1" fill="#7b7a7a"/>
<rect x="7" y="0" width="2" height="1" fill="#787f6a"/>
<rect x="19" y="0" width="1" height="1" fill="#787f6a"/>
<rect x="18" y="0" width="1" height="1" fill="#858384"/>
<rect x="25" y="0" width="1" height="1" fill="#727471"/>
<rect x="0" y="0" width="1" height="1" fill="#707a5e"/>
<rect x="6" y="0" width="1" height="1" fill="#7b7a7a"/>
<rect x="15" y="0" width="2" height="1" fill="#5f6e4c"/>
<rect x="23" y="0" width="1" height="1" fill="#707667"/>
<rect x="30" y="0" width="1" height="2" fill="#5e6b4d"/>
<rect x="0" y="1" width="4" height="1" fill="#858384"/>
<rect x="26" y="1" width="4" height="1" fill="#5f6e4c"/>
<rect x="31" y="1" width="1" height="1" fill="#5a654e"/>
<rect x="17" y="1" width="1" height="1" fill="#727471"/>
<rect x="21" y="1" width="1" height="1" fill="#727172"/>
<rect x="19" y="1" width="1" height="1" fill="#727272"/>
<rect x="4" y="1" width="2" height="1" fill="#5f6e4c"/>
<rect x="6" y="1" width="4" height="1" fill="#6a7655"/>
<rect x="10" y="1" width="3" height="1" fill="#707a5e"/>
<rect x="18" y="1" width="1" height="1" fill="#747374"/>
<rect x="16" y="1" width="1" height="1" fill="#6e7269"/>
<rect x="14" y="1" width="2" height="1" fill="#667155"/>
<rect x="20" y="1" width="1" height="1" fill="#727271"/>
<rect x="24" y="1" width="1" height="1" fill="#727272"/>
<rect x="13" y="1" width="1" height="1" fill="#6a7655"/>
<rect x="28" y="2" width="1" height="1" fill="#667155"/>
<rect x="26" y="2" width="2" height="1" fill="#646d57"/>
<rect x="8" y="2" width="4" height="1" fill="#6a7655"/>
<rect x="3" y="2" width="1" height="1" fill="#7b7a7a"/>
<rect x="4" y="2" width="1" height="1" fill="#5f6e4c"/>
<rect x="24" y="2" width="1" height="1" fill="#6f6e6f"/>
<rect x="16" y="2" width="1" height="1" fill="#7b7a7a"/>
<rect x="19" y="2" width="2" height="1" fill="#727172"/>
<rect x="1" y="2" width="1" height="1" fill="#7b7a7a"/>
<rect x="5" y="2" width="3" height="1" fill="#667155"/>
<rect x="25" y="2" width="1" height="1" fill="#6c6e6a"/>
<rect x="0" y="2" width="1" height="1" fill="#777677"/>
<rect x="30" y="2" width="1" height="1" fill="#5b664e"/>
<rect x="22" y="2" width="2" height="1" fill="#727272"/>
<rect x="2" y="2" width="1" height="1" fill="#858384"/>
<rect x="12" y="2" width="1" height="2" fill="#707a5e"/>
<rect x="15" y="2" width="1" height="2" fill="#6e7269"/>
<rect x="17" y="2" width="1" height="2" fill="#747374"/>
<rect x="16" y="3" width="1" height="1" fill="#797878"/>
<rect x="9" y="3" width="3" height="1" fill="#6a7655"/>
<rect x="3" y="3" width="1" height="1" fill="#747374"/>
<rect x="8" y="3" width="1" height="1" fill="#707a5e"/>
<rect x="27" y="3" width="1" height="1" fill="#747374"/>
<rect x="21" y="3" width="1" height="1" fill="#707667"/>
<rect x="7" y="3" width="1" height="1" fill="#5f6e4c"/>
<rect x="23" y="3" width="1" height="1" fill="#727471"/>
<rect x="2" y="3" width="1" height="1" fill="#777677"/>
<rect x="20" y="3" width="1" height="1" fill="#707a5e"/>
<rect x="22" y="3" width="1" height="1" fill="#797878"/>
<rect x="29" y="2" width="1" height="3" fill="#5f6e4c"/>
<rect x="24" y="3" width="2" height="2" fill="#5b664e"/>
<rect x="26" y="3" width="1" height="2" fill="#71726f"/>
<rect x="5" y="3" width="1" height="2" fill="#727471"/>
<rect x="4" y="3" width="1" height="2" fill="#797878"/>
<rect x="0" y="3" width="1" height="2" fill="#7b7a7a"/>
<rect x="17" y="4" width="1" height="1" fill="#727271"/>
<rect x="8" y="4" width="2" height="1" fill="#6a7655"/>
<rect x="10" y="4" width="2" height="1" fill="#667155"/>
<rect x="22" y="4" width="1" height="1" fill="#7b7a7a"/>
<rect x="3" y="4" width="1" height="1" fill="#727272"/>
<rect x="21" y="4" width="1" height="1" fill="#707a5e"/>
<rect x="27" y="4" width="1" height="1" fill="#727272"/>
<rect x="18" y="4" width="1" height="1" fill="#727172"/>
<rect x="23" y="4" width="1" height="1" fill="#747374"/>
<rect x="2" y="4" width="1" height="1" fill="#747374"/>
<rect x="14" y="2" width="1" height="4" fill="#5f6e4c"/>
<rect x="19" y="3" width="1" height="3" fill="#6e7269"/>
<rect x="28" y="3" width="1" height="3" fill="#646d57"/>
<rect x="20" y="4" width="1" height="2" fill="#6a7655"/>
<rect x="16" y="4" width="1" height="2" fill="#727172"/>
<rect x="15" y="4" width="1" height="2" fill="#696c65"/>
<rect x="24" y="5" width="1" height="1" fill="#696c65"/>
<rect x="3" y="5" width="1" height="1" fill="#777677"/>
<rect x="10" y="5" width="1" height="1" fill="#5f6e4c"/>
<rect x="17" y="5" width="2" height="1" fill="#727272"/>
<rect x="22" y="5" width="1" height="1" fill="#747374"/>
<rect x="21" y="5" width="1" height="1" fill="#707667"/>
<rect x="0" y="5" width="1" height="1" fill="#797878"/>
<rect x="25" y="5" width="1" height="1" fill="#6c6e6a"/>
<rect x="4" y="5" width="1" height="1" fill="#747374"/>
<rect x="29" y="5" width="1" height="1" fill="#5b664e"/>
<rect x="23" y="5" width="1" height="1" fill="#727172"/>
<rect x="13" y="2" width="1" height="5" fill="#667155"/>
<rect x="30" y="3" width="1" height="4" fill="#5b5f54"/>
<rect x="6" y="3" width="1" height="4" fill="#5a654e"/>
<rect x="7" y="4" width="1" height="3" fill="#5e6b4d"/>
<rect x="9" y="5" width="1" height="2" fill="#667155"/>
<rect x="11" y="5" width="1" height="2" fill="#667155"/>
<rect x="5" y="5" width="1" height="2" fill="#6f6e6f"/>
<rect x="8" y="5" width="1" height="2" fill="#6a7655"/>
<rect x="26" y="5" width="2" height="2" fill="#6e6d6e"/>
<rect x="22" y="6" width="1" height="1" fill="#6d6c6d"/>
<rect x="28" y="6" width="2" height="1" fill="#5b664e"/>
<rect x="24" y="6" width="1" height="1" fill="#727272"/>
<rect x="18" y="6" width="1" height="1" fill="#797878"/>
<rect x="16" y="6" width="1" height="1" fill="#727272"/>
<rect x="14" y="6" width="1" height="1" fill="#696c65"/>
<rect x="25" y="6" width="1" height="1" fill="#727172"/>
<rect x="0" y="6" width="1" height="1" fill="#777677"/>
<rect x="23" y="6" width="1" height="1" fill="#6e6d6e"/>
<rect x="4" y="6" width="1" height="1" fill="#727272"/>
<rect x="3" y="6" width="1" height="1" fill="#797878"/>
<rect x="15" y="6" width="1" height="1" fill="#6c6e6a"/>
<rect x="10" y="6" width="1" height="1" fill="#646d57"/>
<rect x="12" y="4" width="1" height="4" fill="#6a7655"/>
<rect x="2" y="5" width="1" height="3" fill="#7b7a7a"/>
<rect x="17" y="6" width="1" height="2" fill="#747374"/>
<rect x="19" y="6" width="1" height="2" fill="#777677"/>
<rect x="4" y="7" width="1" height="1" fill="#6f6e6f"/>
<rect x="7" y="7" width="1" height="1" fill="#696c65"/>
<rect x="11" y="7" width="1" height="1" fill="#707667"/>
<rect x="3" y="7" width="1" height="1" fill="#777677"/>
<rect x="29" y="7" width="1" height="1" fill="#6c6e6a"/>
<rect x="5" y="7" width="1" height="1" fill="#6e6d6e"/>
<rect x="8" y="7" width="1" height="1" fill="#5b664e"/>
<rect x="26" y="7" width="1" height="1" fill="#6d6b6d"/>
<rect x="10" y="7" width="1" height="1" fill="#797878"/>
<rect x="30" y="7" width="1" height="1" fill="#60615f"/>
<rect x="27" y="7" width="1" height="1" fill="#676867"/>
<rect x="18" y="7" width="1" height="1" fill="#7b7a7a"/>
<rect x="22" y="7" width="2" height="1" fill="#6e6d6e"/>
<rect x="6" y="7" width="1" height="1" fill="#6c6e6a"/>
<rect x="0" y="7" width="1" height="1" fill="#727272"/>
<rect x="14" y="7" width="1" height="1" fill="#6d6b6d"/>
<rect x="28" y="7" width="1" height="1" fill="#696c65"/>
<rect x="16" y="7" width="1" height="1" fill="#727271"/>
<rect x="31" y="2" width="1" height="7" fill="#5b5a5b"/>
<rect x="15" y="7" width="1" height="2" fill="#6f6e6f"/>
<rect x="9" y="7" width="1" height="2" fill="#646d57"/>
<rect x="13" y="7" width="1" height="2" fill="#696c65"/>
<rect x="4" y="8" width="2" height="1" fill="#6d6c6d"/>
<rect x="18" y="8" width="2" height="1" fill="#667155"/>
<rect x="7" y="8" width="1" height="1" fill="#6c6e6a"/>
<rect x="11" y="8" width="1" height="1" fill="#71726f"/>
<rect x="29" y="8" width="1" height="1" fill="#727272"/>
<rect x="30" y="8" width="1" height="1" fill="#676867"/>
<rect x="16" y="8" width="1" height="1" fill="#727272"/>
<rect x="12" y="8" width="1" height="1" fill="#667155"/>
<rect x="8" y="8" width="1" height="1" fill="#5a654e"/>
<rect x="14" y="8" width="1" height="1" fill="#6e6d6e"/>
<rect x="10" y="8" width="1" height="1" fill="#7b7a7a"/>
<rect x="2" y="8" width="1" height="1" fill="#797878"/>
<rect x="17" y="8" width="1" height="1" fill="#6e7269"/>
<rect x="6" y="8" width="1" height="1" fill="#727172"/>
<rect x="0" y="8" width="1" height="1" fill="#6f6e6f"/>
<rect x="26" y="8" width="2" height="2" fill="#676867"/>
<rect x="28" y="8" width="1" height="2" fill="#6f6e6f"/>
<rect x="20" y="8" width="1" height="2" fill="#6a7655"/>
<rect x="22" y="8" width="1" height="2" fill="#727272"/>
<rect x="24" y="8" width="2" height="2" fill="#6d6c6d"/>
<rect x="21" y="8" width="1" height="2" fill="#707a5e"/>
<rect x="6" y="9" width="2" height="1" fill="#6e6d6e"/>
<rect x="9" y="9" width="1" height="1" fill="#6c6e6a"/>
<rect x="4" y="9" width="2" height="1" fill="#696c65"/>
<rect x="8" y="9" width="1" height="1" fill="#696c65"/>
<rect x="18" y="9" width="2" height="1" fill="#5f6e4c"/>
<rect x="31" y="9" width="1" height="1" fill="#5b5f54"/>
<rect x="0" y="9" width="1" height="1" fill="#6d6c6d"/>
<rect x="14" y="9" width="3" height="1" fill="#727272"/>
<rect x="23" y="9" width="1" height="1" fill="#727172"/>
<rect x="2" y="9" width="1" height="1" fill="#7b7a7a"/>
<rect x="30" y="9" width="1" height="2" fill="#62675d"/>
<rect x="17" y="9" width="1" height="2" fill="#696c65"/>
<rect x="11" y="9" width="1" height="2" fill="#6e7269"/>
<rect x="12" y="9" width="1" height="2" fill="#5f6e4c"/>
<rect x="10" y="9" width="1" height="2" fill="#727272"/>
<rect x="13" y="9" width="1" height="2" fill="#646d57"/>
<rect x="7" y="10" width="2" height="1" fill="#6d6b6d"/>
<rect x="23" y="10" width="1" height="1" fill="#646d57"/>
<rect x="24" y="10" width="2" height="1" fill="#5b664e"/>
<rect x="18" y="10" width="4" height="1" fill="#667155"/>
<rect x="26" y="10" width="1" height="1" fill="#6f6e6f"/>
<rect x="22" y="10" width="1" height="1" fill="#62675d"/>
<rect x="28" y="10" width="2" height="1" fill="#6e6d6e"/>
<rect x="16" y="10" width="1" height="1" fill="#6e7269"/>
<rect x="6" y="10" width="1" height="1" fill="#6c6e6a"/>
<rect x="14" y="10" width="1" height="1" fill="#727172"/>
<rect x="15" y="10" width="1" height="1" fill="#71726f"/>
<rect x="5" y="10" width="1" height="1" fill="#5f6e4c"/>
<rect x="9" y="10" width="1" height="1" fill="#6e6d6e"/>
<rect x="1" y="3" width="1" height="9" fill="#858384"/>
<rect x="4" y="10" width="1" height="2" fill="#646d57"/>
<rect x="31" y="10" width="1" height="2" fill="#565c4b"/>
<rect x="27" y="10" width="1" height="2" fill="#727272"/>
<rect x="2" y="10" width="1" height="2" fill="#797878"/>
<rect x="0" y="10" width="1" height="2" fill="#676867"/>
<rect x="7" y="11" width="1" height="1" fill="#696c65"/>
<rect x="8" y="11" width="2" height="1" fill="#6f6e6f"/>
<rect x="29" y="11" width="1" height="1" fill="#6d6c6d"/>
<rect x="26" y="11" width="1" height="1" fill="#71726f"/>
<rect x="5" y="11" width="1" height="1" fill="#5e6b4d"/>
<rect x="12" y="11" width="1" height="1" fill="#696c65"/>
<rect x="21" y="11" width="1" height="1" fill="#5e6b4d"/>
<rect x="16" y="11" width="2" height="1" fill="#5f6e4c"/>
<rect x="22" y="11" width="4" height="1" fill="#5b664e"/>
<rect x="30" y="11" width="1" height="1" fill="#60615f"/>
<rect x="20" y="11" width="1" height="1" fill="#5f6e4c"/>
<rect x="14" y="11" width="1" height="1" fill="#6e6d6e"/>
<rect x="13" y="11" width="1" height="1" fill="#6c6e6a"/>
<rect x="10" y="11" width="1" height="1" fill="#6e6d6e"/>
<rect x="6" y="11" width="1" height="1" fill="#62675d"/>
<rect x="28" y="11" width="1" height="1" fill="#6e6d6e"/>
<rect x="11" y="11" width="1" height="2" fill="#6d6c6d"/>
<rect x="15" y="11" width="1" height="2" fill="#696c65"/>
<rect x="18" y="11" width="1" height="2" fill="#6a7655"/>
<rect x="19" y="11" width="1" height="2" fill="#667155"/>
<rect x="10" y="12" width="1" height="1" fill="#6d6b6d"/>
<rect x="26" y="12" width="1" height="1" fill="#6e6d6e"/>
<rect x="1" y="12" width="1" height="1" fill="#797878"/>
<rect x="22" y="12" width="2" height="1" fill="#5b664e"/>
<rect x="20" y="12" width="2" height="1" fill="#5e6b4d"/>
<rect x="0" y="12" width="1" height="1" fill="#5b664e"/>
<rect x="8" y="12" width="1" height="1" fill="#71726f"/>
<rect x="6" y="12" width="1" height="1" fill="#5e6b4d"/>
<rect x="12" y="12" width="1" height="1" fill="#6d6b6d"/>
<rect x="7" y="12" width="1" height="1" fill="#5f6e4c"/>
<rect x="27" y="12" width="1" height="1" fill="#6f6e6f"/>
<rect x="17" y="12" width="1" height="1" fill="#667155"/>
<rect x="24" y="12" width="2" height="1" fill="#62675d"/>
<rect x="16" y="12" width="1" height="1" fill="#5f6e4c"/>
<rect x="13" y="12" width="2" height="1" fill="#6d6c6d"/>
<rect x="3" y="10" width="1" height="4" fill="#6d6b6d"/>
<rect x="31" y="12" width="1" height="2" fill="#5b664e"/>
<rect x="5" y="12" width="1" height="2" fill="#5a654e"/>
<rect x="2" y="12" width="1" height="2" fill="#747374"/>
<rect x="26" y="13" width="1" height="1" fill="#6d6c6d"/>
<rect x="12" y="13" width="2" height="1" fill="#676867"/>
<rect x="20" y="13" width="4" height="1" fill="#5b664e"/>
<rect x="29" y="13" width="1" height="1" fill="#727272"/>
<rect x="25" y="13" width="1" height="1" fill="#6e6d6e"/>
<rect x="8" y="13" width="1" height="1" fill="#6c6e6a"/>
<rect x="1" y="13" width="1" height="1" fill="#777677"/>
<rect x="27" y="13" width="1" height="1" fill="#6d6b6d"/>
<rect x="15" y="13" width="1" height="1" fill="#5e6b4d"/>
<rect x="0" y="13" width="1" height="1" fill="#5a654e"/>
<rect x="6" y="13" width="2" height="1" fill="#5e6b4d"/>
<rect x="9" y="13" width="1" height="1" fill="#6d6c6d"/>
<rect x="14" y="13" width="1" height="1" fill="#646d57"/>
<rect x="24" y="13" width="1" height="1" fill="#6d6c6d"/>
<rect x="30" y="12" width="1" height="3" fill="#62675d"/>
<rect x="10" y="13" width="2" height="2" fill="#6d6b6d"/>
<rect x="19" y="13" width="1" height="2" fill="#5e6b4d"/>
<rect x="16" y="13" width="3" height="2" fill="#5f6e4c"/>
<rect x="20" y="14" width="2" height="1" fill="#5b664e"/>
<rect x="7" y="14" width="1" height="1" fill="#5a654e"/>
<rect x="9" y="14" width="1" height="1" fill="#676867"/>
<rect x="22" y="14" width="1" height="1" fill="#5a654e"/>
<rect x="23" y="14" width="1" height="1" fill="#5b664e"/>
<rect x="12" y="14" width="1" height="1" fill="#676867"/>
<rect x="5" y="14" width="2" height="1" fill="#5b664e"/>
<rect x="0" y="14" width="1" height="1" fill="#5e6b4d"/>
<rect x="31" y="14" width="1" height="1" fill="#5b5f54"/>
<rect x="1" y="14" width="1" height="1" fill="#6f6e6f"/>
<rect x="14" y="14" width="2" height="1" fill="#5b664e"/>
<rect x="13" y="14" width="1" height="1" fill="#62675d"/>
<rect x="28" y="14" width="2" height="1" fill="#6d6b6d"/>
<rect x="24" y="14" width="4" height="1" fill="#676867"/>
<rect x="4" y="12" width="1" height="4" fill="#62675d"/>
<rect x="2" y="14" width="1" height="2" fill="#6d6b6d"/>
<rect x="3" y="14" width="1" height="2" fill="#676867"/>
<rect x="8" y="14" width="1" height="2" fill="#62675d"/>
<rect x="9" y="15" width="1" height="1" fill="#60615f"/>
<rect x="12" y="15" width="2" height="1" fill="#60615f"/>
<rect x="5" y="15" width="1" height="1" fill="#5b664e"/>
<rect x="14" y="15" width="4" height="1" fill="#5b5f54"/>
<rect x="26" y="15" width="6" height="1" fill="#60615f"/>
<rect x="10" y="15" width="2" height="1" fill="#676867"/>
<rect x="6" y="15" width="2" height="1" fill="#5a654e"/>
<rect x="1" y="15" width="1" height="1" fill="#6d6c6d"/>
<rect x="0" y="15" width="1" height="1" fill="#5b664e"/>
<rect x="18" y="15" width="8" height="2" fill="#565c4b"/>
<rect x="12" y="16" width="6" height="1" fill="#5b5a5b"/>
<rect x="0" y="16" width="1" height="1" fill="#60615f"/>
<rect x="31" y="16" width="1" height="1" fill="#62675d"/>
<rect x="26" y="16" width="5" height="1" fill="#60615f"/>
<rect x="6" y="16" width="2" height="1" fill="#565c4b"/>
<rect x="8" y="16" width="4" height="1" fill="#60615f"/>
<rect x="5" y="16" width="1" height="2" fill="#5b5a5b"/>
<rect x="2" y="16" width="3" height="2" fill="#60615f"/>
<rect x="1" y="16" width="1" height="2" fill="#676867"/>
<rect x="18" y="17" width="1" height="1" fill="#6e7269"/>
<rect x="16" y="17" width="2" height="1" fill="#676867"/>
<rect x="20" y="17" width="1" height="1" fill="#727471"/>
<rect x="29" y="17" width="1" height="1" fill="#707a5e"/>
<rect x="8" y="17" width="2" height="1" fill="#60615f"/>
<rect x="12" y="17" width="2" height="1" fill="#60615f"/>
<rect x="10" y="17" width="2" height="1" fill="#676867"/>
<rect x="31" y="17" width="1" height="1" fill="#707a5e"/>
<rect x="14" y="17" width="2" height="1" fill="#5b5a5b"/>
<rect x="30" y="17" width="1" height="1" fill="#6a7655"/>
<rect x="21" y="17" width="1" height="1" fill="#777677"/>
<rect x="26" y="17" width="3" height="1" fill="#6a7655"/>
<rect x="19" y="17" width="1" height="1" fill="#71726f"/>
<rect x="23" y="17" width="3" height="1" fill="#7b7a7a"/>
<rect x="6" y="17" width="1" height="1" fill="#5b5f54"/>
<rect x="0" y="17" width="1" height="1" fill="#62675d"/>
<rect x="22" y="17" width="1" height="1" fill="#797878"/>
<rect x="7" y="17" width="1" height="1" fill="#565c4b"/>
<rect x="5" y="18" width="1" height="1" fill="#667155"/>
<rect x="26" y="18" width="4" height="1" fill="#6a7655"/>
<rect x="6" y="18" width="1" height="1" fill="#707667"/>
<rect x="18" y="18" width="8" height="1" fill="#858384"/>
<rect x="2" y="18" width="3" height="1" fill="#6a7655"/>
<rect x="30" y="18" width="2" height="1" fill="#707a5e"/>
<rect x="13" y="18" width="1" height="2" fill="#777677"/>
<rect x="7" y="18" width="5" height="2" fill="#858384"/>
<rect x="12" y="18" width="1" height="2" fill="#7b7a7a"/>
<rect x="16" y="18" width="2" height="2" fill="#7b7a7a"/>
<rect x="29" y="19" width="1" height="1" fill="#797878"/>
<rect x="30" y="19" width="1" height="1" fill="#707a5e"/>
<rect x="3" y="19" width="1" height="1" fill="#707a5e"/>
<rect x="2" y="19" width="1" height="1" fill="#6a7655"/>
<rect x="4" y="19" width="2" height="1" fill="#6a7655"/>
<rect x="26" y="19" width="3" height="1" fill="#727471"/>
<rect x="6" y="19" width="1" height="1" fill="#787f6a"/>
<rect x="24" y="19" width="2" height="1" fill="#7b7a7a"/>
<rect x="20" y="19" width="2" height="1" fill="#7b7a7a"/>
<rect x="22" y="19" width="2" height="1" fill="#858384"/>
<rect x="18" y="19" width="2" height="1" fill="#858384"/>
<rect x="1" y="18" width="1" height="3" fill="#707a5e"/>
<rect x="0" y="18" width="1" height="3" fill="#6a7655"/>
<rect x="31" y="19" width="1" height="2" fill="#6a7655"/>
<rect x="25" y="20" width="2" height="1" fill="#7b7a7a"/>
<rect x="30" y="20" width="1" height="1" fill="#707667"/>
<rect x="27" y="20" width="1" height="1" fill="#797878"/>
<rect x="3" y="20" width="1" height="1" fill="#707667"/>
<rect x="22" y="20" width="3" height="1" fill="#797878"/>
<rect x="4" y="20" width="2" height="1" fill="#727471"/>
<rect x="7" y="20" width="3" height="1" fill="#7b7a7a"/>
<rect x="2" y="20" width="1" height="1" fill="#5f6e4c"/>
<rect x="6" y="20" width="1" height="1" fill="#797878"/>
<rect x="28" y="20" width="2" height="1" fill="#7b7a7a"/>
<rect x="19" y="20" width="1" height="1" fill="#797878"/>
<rect x="21" y="20" width="1" height="1" fill="#747374"/>
<rect x="18" y="20" width="1" height="1" fill="#7b7a7a"/>
<rect x="13" y="20" width="1" height="1" fill="#6f6e6f"/>
<rect x="11" y="20" width="2" height="2" fill="#727272"/>
<rect x="10" y="20" width="1" height="2" fill="#747374"/>
<rect x="3" y="21" width="1" height="1" fill="#727471"/>
<rect x="8" y="21" width="1" height="1" fill="#7b7a7a"/>
<rect x="18" y="21" width="1" height="1" fill="#797878"/>
<rect x="24" y="21" width="2" height="1" fill="#777677"/>
<rect x="28" y="21" width="4" height="1" fill="#707667"/>
<rect x="0" y="21" width="2" height="1" fill="#6a7655"/>
<rect x="21" y="21" width="1" height="1" fill="#727272"/>
<rect x="19" y="21" width="1" height="1" fill="#777677"/>
<rect x="2" y="21" width="1" height="1" fill="#5e6b4d"/>
<rect x="9" y="21" width="1" height="1" fill="#797878"/>
<rect x="4" y="21" width="3" height="1" fill="#7b7a7a"/>
<rect x="7" y="21" width="1" height="1" fill="#797878"/>
<rect x="22" y="21" width="2" height="2" fill="#797878"/>
<rect x="26" y="21" width="2" height="2" fill="#797878"/>
<rect x="28" y="22" width="1" height="1" fill="#667155"/>
<rect x="2" y="22" width="1" height="1" fill="#6e7269"/>
<rect x="20" y="22" width="1" height="1" fill="#6d6b6d"/>
<rect x="9" y="22" width="2" height="1" fill="#727272"/>
<rect x="31" y="22" width="1" height="1" fill="#747374"/>
<rect x="25" y="22" width="1" height="1" fill="#6e6d6e"/>
<rect x="1" y="22" width="1" height="1" fill="#727471"/>
<rect x="29" y="22" width="1" height="1" fill="#5f6e4c"/>
<rect x="11" y="22" width="1" height="1" fill="#727271"/>
<rect x="3" y="22" width="4" height="1" fill="#747374"/>
<rect x="0" y="22" width="1" height="1" fill="#727272"/>
<rect x="24" y="22" width="1" height="1" fill="#6d6c6d"/>
<rect x="14" y="18" width="1" height="6" fill="#5b5a5b"/>
<rect x="15" y="18" width="1" height="6" fill="#60615f"/>
<rect x="7" y="22" width="1" height="2" fill="#7b7a7a"/>
<rect x="12" y="22" width="1" height="2" fill="#6e6d6e"/>
<rect x="8" y="22" width="1" height="2" fill="#777677"/>
<rect x="30" y="22" width="1" height="2" fill="#6e7269"/>
<rect x="21" y="22" width="1" height="2" fill="#6f6e6f"/>
<rect x="18" y="22" width="1" height="2" fill="#727272"/>
<rect x="13" y="22" width="1" height="2" fill="#6d6b6d"/>
<rect x="29" y="23" width="1" height="1" fill="#5e6b4d"/>
<rect x="10" y="23" width="2" height="1" fill="#727272"/>
<rect x="28" y="23" width="1" height="1" fill="#646d57"/>
<rect x="3" y="23" width="1" height="1" fill="#747374"/>
<rect x="31" y="23" width="1" height="1" fill="#777677"/>
<rect x="24" y="23" width="2" height="1" fill="#6e6d6e"/>
<rect x="1" y="23" width="1" height="1" fill="#7b7a7a"/>
<rect x="6" y="23" width="1" height="1" fill="#747374"/>
<rect x="26" y="23" width="2" height="1" fill="#777677"/>
<rect x="0" y="23" width="1" height="1" fill="#777677"/>
<rect x="23" y="23" width="1" height="1" fill="#777677"/>
<rect x="4" y="23" width="1" height="1" fill="#727272"/>
<rect x="2" y="23" width="1" height="1" fill="#777677"/>
<rect x="20" y="23" width="1" height="1" fill="#6d6c6d"/>
<rect x="22" y="23" width="1" height="1" fill="#797878"/>
<rect x="0" y="24" width="2" height="1" fill="#7b7a7a"/>
<rect x="2" y="24" width="1" height="1" fill="#727172"/>
<rect x="28" y="24" width="2" height="1" fill="#5b664e"/>
<rect x="7" y="24" width="1" height="1" fill="#747374"/>
<rect x="25" y="24" width="1" height="1" fill="#727172"/>
<rect x="12" y="24" width="2" height="1" fill="#676867"/>
<rect x="10" y="24" width="1" height="1" fill="#696c65"/>
<rect x="11" y="24" width="1" height="1" fill="#646d57"/>
<rect x="22" y="24" width="2" height="1" fill="#6e6d6e"/>
<rect x="8" y="24" width="1" height="1" fill="#727272"/>
<rect x="18" y="24" width="2" height="1" fill="#6e6d6e"/>
<rect x="3" y="24" width="4" height="1" fill="#777677"/>
<rect x="16" y="20" width="2" height="6" fill="#858384"/>
<rect x="31" y="24" width="1" height="2" fill="#7b7a7a"/>
<rect x="30" y="24" width="1" height="2" fill="#71726f"/>
<rect x="12" y="25" width="2" height="1" fill="#62675d"/>
<rect x="20" y="25" width="1" height="1" fill="#727172"/>
<rect x="3" y="25" width="1" height="1" fill="#777677"/>
<rect x="28" y="25" width="1" height="1" fill="#646d57"/>
<rect x="22" y="25" width="1" height="1" fill="#6d6b6d"/>
<rect x="1" y="25" width="1" height="1" fill="#7b7a7a"/>
<rect x="4" y="25" width="3" height="1" fill="#797878"/>
<rect x="18" y="25" width="1" height="1" fill="#6e6d6e"/>
<rect x="19" y="25" width="1" height="1" fill="#6d6c6d"/>
<rect x="23" y="25" width="1" height="1" fill="#6d6c6d"/>
<rect x="0" y="25" width="1" height="1" fill="#747374"/>
<rect x="29" y="25" width="1" height="1" fill="#5b664e"/>
<rect x="8" y="25" width="2" height="1" fill="#727272"/>
<rect x="14" y="24" width="2" height="3" fill="#5b5a5b"/>
<rect x="19" y="26" width="1" height="1" fill="#6a7655"/>
<rect x="16" y="26" width="1" height="1" fill="#797878"/>
<rect x="7" y="26" width="1" height="1" fill="#727272"/>
<rect x="3" y="26" width="1" height="1" fill="#727272"/>
<rect x="29" y="26" width="1" height="1" fill="#6c6e6a"/>
<rect x="17" y="26" width="1" height="1" fill="#7b7a7a"/>
<rect x="20" y="26" width="2" height="1" fill="#707a5e"/>
<rect x="1" y="26" width="1" height="1" fill="#747374"/>
<rect x="18" y="26" width="1" height="1" fill="#707a5e"/>
<rect x="13" y="26" width="1" height="1" fill="#676867"/>
<rect x="4" y="26" width="3" height="1" fill="#747374"/>
<rect x="28" y="26" width="1" height="1" fill="#6d6c6d"/>
<rect x="23" y="26" width="1" height="1" fill="#727172"/>
<rect x="9" y="26" width="1" height="1" fill="#6e6d6e"/>
<rect x="2" y="25" width="1" height="3" fill="#6f6e6f"/>
<rect x="26" y="25" width="1" height="3" fill="#727272"/>
<rect x="10" y="25" width="1" height="3" fill="#646d57"/>
<rect x="30" y="26" width="1" height="2" fill="#6d6c6d"/>
<rect x="24" y="26" width="2" height="2" fill="#797878"/>
<rect x="0" y="26" width="1" height="2" fill="#6e6d6e"/>
<rect x="22" y="27" width="1" height="1" fill="#71726f"/>
<rect x="9" y="27" width="1" height="1" fill="#6d6b6d"/>
<rect x="21" y="27" width="1" height="1" fill="#707a5e"/>
<rect x="4" y="27" width="4" height="1" fill="#727272"/>
<rect x="29" y="27" width="1" height="1" fill="#6d6b6d"/>
<rect x="18" y="27" width="3" height="1" fill="#6a7655"/>
<rect x="23" y="27" width="1" height="1" fill="#727272"/>
<rect x="28" y="27" width="1" height="1" fill="#6e6d6e"/>
<rect x="11" y="25" width="1" height="4" fill="#5f6e4c"/>
<rect x="1" y="27" width="1" height="2" fill="#727172"/>
<rect x="4" y="28" width="1" height="1" fill="#6f6e6f"/>
<rect x="7" y="28" width="1" height="1" fill="#6e6d6e"/>
<rect x="3" y="28" width="1" height="1" fill="#6e6d6e"/>
<rect x="23" y="28" width="2" height="1" fill="#6f6e6f"/>
<rect x="5" y="28" width="1" height="1" fill="#6c6e6a"/>
<rect x="8" y="28" width="1" height="1" fill="#6c6e6a"/>
<rect x="0" y="28" width="1" height="1" fill="#6d6c6d"/>
<rect x="9" y="28" width="2" height="1" fill="#646d57"/>
<rect x="2" y="28" width="1" height="1" fill="#6d6c6d"/>
<rect x="21" y="28" width="1" height="1" fill="#6e7269"/>
<rect x="6" y="28" width="1" height="1" fill="#676867"/>
<rect x="20" y="28" width="1" height="1" fill="#707667"/>
<rect x="12" y="26" width="1" height="4" fill="#696c65"/>
<rect x="17" y="27" width="1" height="3" fill="#797878"/>
<rect x="16" y="27" width="1" height="3" fill="#777677"/>
<rect x="31" y="27" width="1" height="3" fill="#6f6e6f"/>
<rect x="13" y="27" width="1" height="3" fill="#6d6b6d"/>
<rect x="30" y="28" width="1" height="2" fill="#6e6d6e"/>
<rect x="22" y="28" width="1" height="2" fill="#6e6d6e"/>
<rect x="18" y="28" width="2" height="2" fill="#707a5e"/>
<rect x="27" y="29" width="2" height="1" fill="#727272"/>
<rect x="20" y="29" width="1" height="1" fill="#71726f"/>
<rect x="5" y="29" width="2" height="1" fill="#676867"/>
<rect x="8" y="29" width="1" height="1" fill="#696c65"/>
<rect x="7" y="29" width="1" height="1" fill="#6d6b6d"/>
<rect x="25" y="29" width="1" height="1" fill="#6d6c6d"/>
<rect x="23" y="29" width="2" height="1" fill="#6d6b6d"/>
<rect x="9" y="29" width="3" height="1" fill="#5f6e4c"/>
<rect x="4" y="29" width="1" height="1" fill="#6d6c6d"/>
<rect x="1" y="29" width="1" height="1" fill="#6f6e6f"/>
<rect x="2" y="29" width="2" height="1" fill="#6d6b6d"/>
<rect x="0" y="29" width="1" height="1" fill="#676867"/>
<rect x="0" y="30" width="1" height="1" fill="#60615f"/>
<rect x="26" y="30" width="1" height="1" fill="#6e6d6e"/>
<rect x="11" y="30" width="1" height="1" fill="#696c65"/>
<rect x="18" y="30" width="2" height="1" fill="#667155"/>
<rect x="7" y="30" width="1" height="1" fill="#62675d"/>
<rect x="16" y="30" width="1" height="1" fill="#6e6d6e"/>
<rect x="1" y="30" width="4" height="1" fill="#676867"/>
<rect x="12" y="30" width="1" height="1" fill="#6c6e6a"/>
<rect x="30" y="30" width="1" height="1" fill="#6d6b6d"/>
<rect x="31" y="30" width="1" height="1" fill="#6c6e6a"/>
<rect x="5" y="30" width="1" height="1" fill="#62675d"/>
<rect x="20" y="30" width="2" height="1" fill="#62675d"/>
<rect x="8" y="30" width="1" height="1" fill="#646d57"/>
<rect x="13" y="30" width="1" height="1" fill="#6f6e6f"/>
<rect x="27" y="30" width="3" height="1" fill="#6f6e6f"/>
<rect x="6" y="30" width="1" height="1" fill="#5b5f54"/>
<rect x="15" y="27" width="1" height="5" fill="#5b5a5b"/>
<rect x="14" y="27" width="1" height="5" fill="#60615f"/>
<rect x="22" y="30" width="1" height="2" fill="#6d6c6d"/>
<rect x="23" y="30" width="1" height="2" fill="#6d6b6d"/>
<rect x="9" y="30" width="1" height="2" fill="#5f6e4c"/>
<rect x="24" y="30" width="2" height="2" fill="#676867"/>
<rect x="10" y="30" width="1" height="2" fill="#646d57"/>
<rect x="30" y="31" width="2" height="1" fill="#676867"/>
<rect x="4" y="31" width="1" height="1" fill="#676867"/>
<rect x="2" y="31" width="1" height="1" fill="#676867"/>
<rect x="6" y="31" width="3" height="1" fill="#5b664e"/>
<rect x="17" y="31" width="1" height="1" fill="#6d6c6d"/>
<rect x="3" y="31" width="1" height="1" fill="#62675d"/>
<rect x="26" y="31" width="1" height="1" fill="#6d6b6d"/>
<rect x="11" y="31" width="1" height="1" fill="#6d6b6d"/>
<rect x="12" y="31" width="1" height="1" fill="#6f6e6f"/>
<rect x="29" y="31" width="1" height="1" fill="#6d6b6d"/>
<rect x="16" y="31" width="1" height="1" fill="#676867"/>
<rect x="5" y="31" width="1" height="1" fill="#5b5f54"/>
<rect x="13" y="31" width="1" height="1" fill="#727272"/>
<rect x="0" y="31" width="1" height="1" fill="#565c4b"/>
<rect x="27" y="31" width="2" height="1" fill="#6d6c6d"/>
<rect x="1" y="31" width="1" height="1" fill="#60615f"/>
<rect x="18" y="31" width="4" height="1" fill="#5b664e"/>
</svg>