<?xml version="1.0" encoding="UTF-8"?>
<svg xmlns="http://www.w3.org/2000/svg" width="20mm" height="20mm" viewBox="0 0 32 32" shape-rendering="crispEdges">
<title>183 顶面 structured semantic redraw</title>
<metadata>registered 32-unit semantic vector redraw; no embedded raster; physical-size=20mm</metadata>
<rect x="0" y="0" width="32" height="32" fill="#fbffff"/>
<rect x="12" y="0" width="1" height="1" fill="#f4ffff"/>
<rect x="19" y="0" width="1" height="1" fill="#f9ffff"/>
<rect x="10" y="0" width="1" height="1" fill="#faffff"/>
<rect x="30" y="0" width="1" height="1" fill="#e3e5e5"/>
<rect x="0" y="0" width="6" height="1" fill="#ffffff"/>
<rect x="28" y="0" width="1" height="1" fill="#f8ffff"/>
<rect x="21" y="0" width="1" height="1" fill="#f3ffff"/>
<rect x="20" y="0" width="1" height="1" fill="#f8ffff"/>
<rect x="22" y="0" width="1" height="1" fill="#f1ffff"/>
<rect x="23" y="0" width="1" height="1" fill="#f4ffff"/>
<rect x="24" y="0" width="1" height="1" fill="#f7ffff"/>
<rect x="11" y="0" width="1" height="1" fill="#f7ffff"/>
<rect x="6" y="0" width="2" height="1" fill="#feffff"/>
<rect x="13" y="0" width="1" height="1" fill="#f2fefe"/>
<rect x="17" y="0" width="1" height="1" fill="#f5ffff"/>
<rect x="26" y="0" width="1" height="2" fill="#fdffff"/>
<rect x="18" y="0" width="1" height="2" fill="#f7ffff"/>
<rect x="16" y="0" width="1" height="2" fill="#f4fdfd"/>
<rect x="29" y="0" width="1" height="2" fill="#f2fefe"/>
<rect x="15" y="0" width="1" height="2" fill="#f0fcfc"/>
<rect x="14" y="0" width="1" height="2" fill="#eefcfc"/>
<rect x="23" y="1" width="1" height="1" fill="#f9ffff"/>
<rect x="6" y="1" width="1" height="1" fill="#f8ffff"/>
<rect x="19" y="1" width="1" height="1" fill="#f5ffff"/>
<rect x="12" y="1" width="2" height="1" fill="#efffff"/>
<rect x="22" y="1" width="1" height="1" fill="#f6ffff"/>
<rect x="8" y="1" width="3" height="1" fill="#f4ffff"/>
<rect x="20" y="1" width="1" height="1" fill="#f2ffff"/>
<rect x="17" y="1" width="1" height="1" fill="#f6ffff"/>
<rect x="28" y="1" width="1" height="1" fill="#f7ffff"/>
<rect x="7" y="1" width="1" height="1" fill="#f5ffff"/>
<rect x="11" y="1" width="1" height="1" fill="#f2ffff"/>
<rect x="27" y="1" width="1" height="1" fill="#faffff"/>
<rect x="30" y="1" width="1" height="1" fill="#d9e4e3"/>
<rect x="31" y="0" width="1" height="3" fill="#cfd1d1"/>
<rect x="0" y="1" width="4" height="2" fill="#ffffff"/>
<rect x="4" y="1" width="1" height="2" fill="#fdffff"/>
<rect x="18" y="2" width="1" height="1" fill="#f8ffff"/>
<rect x="14" y="2" width="1" height="1" fill="#f5ffff"/>
<rect x="6" y="2" width="1" height="1" fill="#f7ffff"/>
<rect x="28" y="2" width="1" height="1" fill="#f2fefe"/>
<rect x="13" y="2" width="1" height="1" fill="#f3ffff"/>
<rect x="10" y="2" width="2" height="1" fill="#f2ffff"/>
<rect x="8" y="2" width="1" height="1" fill="#f2fefe"/>
<rect x="12" y="2" width="1" height="1" fill="#f1ffff"/>
<rect x="5" y="2" width="1" height="1" fill="#faffff"/>
<rect x="16" y="2" width="1" height="1" fill="#f7ffff"/>
<rect x="7" y="2" width="1" height="1" fill="#f4ffff"/>
<rect x="9" y="2" width="1" height="1" fill="#f3ffff"/>
<rect x="27" y="2" width="1" height="1" fill="#f7ffff"/>
<rect x="15" y="2" width="1" height="1" fill="#f6ffff"/>
<rect x="21" y="1" width="1" height="3" fill="#f4ffff"/>
<rect x="25" y="1" width="1" height="3" fill="#ffffff"/>
<rect x="24" y="1" width="1" height="3" fill="#fdffff"/>
<rect x="23" y="2" width="1" height="2" fill="#faffff"/>
<rect x="19" y="2" width="1" height="2" fill="#f3ffff"/>
<rect x="17" y="2" width="1" height="2" fill="#f9ffff"/>
<rect x="30" y="2" width="1" height="2" fill="#d4dddb"/>
<rect x="22" y="2" width="1" height="2" fill="#f7ffff"/>
<rect x="10" y="3" width="3" height="1" fill="#f1ffff"/>
<rect x="5" y="3" width="1" height="1" fill="#f0fcfc"/>
<rect x="18" y="3" width="1" height="1" fill="#f7ffff"/>
<rect x="9" y="3" width="1" height="1" fill="#efffff"/>
<rect x="13" y="3" width="1" height="1" fill="#f4ffff"/>
<rect x="1" y="3" width="1" height="1" fill="#fdffff"/>
<rect x="15" y="3" width="1" height="1" fill="#f7ffff"/>
<rect x="0" y="3" width="1" height="1" fill="#feffff"/>
<rect x="4" y="3" width="1" height="1" fill="#f5fefe"/>
<rect x="3" y="3" width="1" height="1" fill="#faffff"/>
<rect x="14" y="3" width="1" height="1" fill="#f6ffff"/>
<rect x="6" y="3" width="3" height="1" fill="#eefcfc"/>
<rect x="16" y="3" width="1" height="1" fill="#f8ffff"/>
<rect x="27" y="3" width="1" height="1" fill="#f5ffff"/>
<rect x="20" y="2" width="1" height="3" fill="#f1ffff"/>
<rect x="4" y="4" width="1" height="1" fill="#f2fefe"/>
<rect x="8" y="4" width="1" height="1" fill="#f0fcfc"/>
<rect x="6" y="4" width="1" height="1" fill="#ecfcfc"/>
<rect x="7" y="4" width="1" height="1" fill="#eefcfc"/>
<rect x="10" y="4" width="1" height="1" fill="#f5ffff"/>
<rect x="19" y="4" width="1" height="1" fill="#f2ffff"/>
<rect x="11" y="4" width="1" height="1" fill="#f6ffff"/>
<rect x="3" y="4" width="1" height="1" fill="#f6ffff"/>
<rect x="5" y="4" width="1" height="1" fill="#eefcfc"/>
<rect x="2" y="4" width="1" height="1" fill="#f8ffff"/>
<rect x="0" y="4" width="2" height="1" fill="#f9ffff"/>
<rect x="22" y="4" width="1" height="1" fill="#f8ffff"/>
<rect x="12" y="4" width="1" height="1" fill="#f8ffff"/>
<rect x="18" y="4" width="1" height="1" fill="#f6ffff"/>
<rect x="13" y="4" width="1" height="1" fill="#f9ffff"/>
<rect x="9" y="4" width="1" height="1" fill="#f3ffff"/>
<rect x="15" y="4" width="2" height="1" fill="#feffff"/>
<rect x="21" y="4" width="1" height="1" fill="#f5ffff"/>
<rect x="29" y="2" width="1" height="4" fill="#e9f9f9"/>
<rect x="28" y="3" width="1" height="3" fill="#efffff"/>
<rect x="26" y="4" width="1" height="2" fill="#f6ffff"/>
<rect x="27" y="4" width="1" height="2" fill="#f2ffff"/>
<rect x="0" y="5" width="1" height="1" fill="#f9ffff"/>
<rect x="22" y="5" width="1" height="1" fill="#fdffff"/>
<rect x="8" y="5" width="1" height="1" fill="#fdffff"/>
<rect x="7" y="5" width="1" height="1" fill="#f9fefe"/>
<rect x="1" y="5" width="1" height="1" fill="#f7fefe"/>
<rect x="17" y="5" width="1" height="1" fill="#f6ffff"/>
<rect x="18" y="5" width="1" height="1" fill="#f3ffff"/>
<rect x="23" y="5" width="1" height="1" fill="#ffffff"/>
<rect x="6" y="5" width="1" height="1" fill="#f4fdfd"/>
<rect x="16" y="5" width="1" height="1" fill="#faffff"/>
<rect x="3" y="5" width="2" height="1" fill="#eefcfc"/>
<rect x="21" y="5" width="1" height="1" fill="#faffff"/>
<rect x="25" y="5" width="1" height="1" fill="#faffff"/>
<rect x="24" y="5" width="1" height="1" fill="#fdffff"/>
<rect x="2" y="5" width="1" height="1" fill="#f4fdfd"/>
<rect x="5" y="5" width="1" height="2" fill="#f0fcfc"/>
<rect x="20" y="5" width="1" height="2" fill="#f6ffff"/>
<rect x="19" y="5" width="1" height="2" fill="#f4ffff"/>
<rect x="11" y="6" width="2" height="1" fill="#faffff"/>
<rect x="1" y="6" width="1" height="1" fill="#f0fcfc"/>
<rect x="28" y="6" width="1" height="1" fill="#f2fefe"/>
<rect x="3" y="6" width="1" height="1" fill="#e9f9f9"/>
<rect x="23" y="6" width="1" height="1" fill="#f7ffff"/>
<rect x="27" y="6" width="1" height="1" fill="#f3ffff"/>
<rect x="9" y="6" width="1" height="1" fill="#faffff"/>
<rect x="6" y="6" width="1" height="1" fill="#f5fefe"/>
<rect x="4" y="6" width="1" height="1" fill="#edfafa"/>
<rect x="16" y="6" width="1" height="1" fill="#f6ffff"/>
<rect x="7" y="6" width="1" height="1" fill="#faffff"/>
<rect x="0" y="6" width="1" height="1" fill="#f5fefe"/>
<rect x="2" y="6" width="1" height="1" fill="#edfafa"/>
<rect x="17" y="6" width="2" height="1" fill="#f2ffff"/>
<rect x="21" y="6" width="1" height="1" fill="#f7fefe"/>
<rect x="24" y="6" width="2" height="1" fill="#f6ffff"/>
<rect x="22" y="6" width="1" height="1" fill="#f8ffff"/>
<rect x="29" y="6" width="1" height="1" fill="#e8efef"/>
<rect x="10" y="6" width="1" height="1" fill="#f9ffff"/>
<rect x="15" y="6" width="1" height="2" fill="#f8ffff"/>
<rect x="26" y="6" width="1" height="2" fill="#f5ffff"/>
<rect x="13" y="6" width="2" height="2" fill="#f7ffff"/>
<rect x="25" y="7" width="1" height="1" fill="#f7ffff"/>
<rect x="16" y="7" width="1" height="1" fill="#f4ffff"/>
<rect x="23" y="7" width="1" height="1" fill="#f2ffff"/>
<rect x="2" y="7" width="2" height="1" fill="#f0fcfc"/>
<rect x="29" y="7" width="1" height="1" fill="#e3e5e5"/>
<rect x="5" y="7" width="1" height="1" fill="#f4fefe"/>
<rect x="22" y="7" width="1" height="1" fill="#efffff"/>
<rect x="1" y="7" width="1" height="1" fill="#f4fdfd"/>
<rect x="7" y="7" width="1" height="1" fill="#f8ffff"/>
<rect x="11" y="7" width="1" height="1" fill="#faffff"/>
<rect x="12" y="7" width="1" height="1" fill="#f9ffff"/>
<rect x="8" y="7" width="1" height="1" fill="#f9ffff"/>
<rect x="17" y="7" width="5" height="1" fill="#eefcfc"/>
<rect x="28" y="7" width="1" height="1" fill="#f0fcfc"/>
<rect x="0" y="7" width="1" height="1" fill="#f7fefe"/>
<rect x="4" y="7" width="1" height="1" fill="#f4fdfd"/>
<rect x="9" y="7" width="2" height="1" fill="#f7ffff"/>
<rect x="24" y="7" width="1" height="1" fill="#f4ffff"/>
<rect x="6" y="7" width="1" height="2" fill="#f5ffff"/>
<rect x="11" y="8" width="1" height="1" fill="#fdffff"/>
<rect x="21" y="8" width="1" height="1" fill="#f0fcfc"/>
<rect x="1" y="8" width="1" height="1" fill="#feffff"/>
<rect x="5" y="8" width="1" height="1" fill="#f4ffff"/>
<rect x="23" y="8" width="1" height="1" fill="#f8ffff"/>
<rect x="17" y="8" width="4" height="1" fill="#eefcfc"/>
<rect x="4" y="8" width="1" height="1" fill="#f7ffff"/>
<rect x="3" y="8" width="1" height="1" fill="#f9ffff"/>
<rect x="16" y="8" width="1" height="1" fill="#f2fefe"/>
<rect x="0" y="8" width="1" height="1" fill="#ffffff"/>
<rect x="7" y="8" width="3" height="1" fill="#f8ffff"/>
<rect x="14" y="8" width="1" height="1" fill="#f9ffff"/>
<rect x="26" y="8" width="1" height="1" fill="#f4ffff"/>
<rect x="28" y="8" width="1" height="1" fill="#eefcfc"/>
<rect x="22" y="8" width="1" height="1" fill="#f5fefe"/>
<rect x="15" y="8" width="1" height="1" fill="#f6ffff"/>
<rect x="25" y="8" width="1" height="1" fill="#f5ffff"/>
<rect x="31" y="3" width="1" height="7" fill="#c2cec9"/>
<rect x="30" y="4" width="1" height="6" fill="#cfd1d1"/>
<rect x="27" y="7" width="1" height="3" fill="#f2fefe"/>
<rect x="24" y="8" width="1" height="2" fill="#f7ffff"/>
<rect x="12" y="8" width="1" height="2" fill="#feffff"/>
<rect x="16" y="9" width="1" height="1" fill="#f0fcfc"/>
<rect x="11" y="9" width="1" height="1" fill="#ffffff"/>
<rect x="21" y="9" width="1" height="1" fill="#f7ffff"/>
<rect x="22" y="9" width="2" height="1" fill="#faffff"/>
<rect x="3" y="9" width="1" height="1" fill="#f6ffff"/>
<rect x="9" y="9" width="1" height="1" fill="#faffff"/>
<rect x="2" y="9" width="1" height="1" fill="#f8ffff"/>
<rect x="10" y="9" width="1" height="1" fill="#feffff"/>
<rect x="26" y="9" width="1" height="1" fill="#f5ffff"/>
<rect x="25" y="9" width="1" height="1" fill="#f6ffff"/>
<rect x="14" y="9" width="1" height="1" fill="#f7fefe"/>
<rect x="0" y="9" width="1" height="1" fill="#fdffff"/>
<rect x="5" y="9" width="1" height="1" fill="#f1ffff"/>
<rect x="8" y="9" width="1" height="1" fill="#f8ffff"/>
<rect x="13" y="9" width="1" height="1" fill="#fbfefe"/>
<rect x="15" y="9" width="1" height="1" fill="#f4fdfd"/>
<rect x="20" y="9" width="1" height="1" fill="#f4fefe"/>
<rect x="29" y="8" width="1" height="3" fill="#d9e4e3"/>
<rect x="6" y="9" width="1" height="2" fill="#f2ffff"/>
<rect x="18" y="9" width="1" height="2" fill="#edfafa"/>
<rect x="19" y="9" width="1" height="2" fill="#f0fcfc"/>
<rect x="17" y="9" width="1" height="2" fill="#e9f9f9"/>
<rect x="7" y="9" width="1" height="2" fill="#f5ffff"/>
<rect x="28" y="9" width="1" height="2" fill="#f0fcfc"/>
<rect x="4" y="9" width="1" height="2" fill="#f3ffff"/>
<rect x="3" y="10" width="1" height="1" fill="#f4ffff"/>
<rect x="20" y="10" width="1" height="1" fill="#f4fdfd"/>
<rect x="10" y="10" width="2" height="1" fill="#f6ffff"/>
<rect x="27" y="10" width="1" height="1" fill="#f4ffff"/>
<rect x="1" y="10" width="1" height="1" fill="#f4ffff"/>
<rect x="21" y="10" width="1" height="1" fill="#f4fefe"/>
<rect x="2" y="10" width="1" height="1" fill="#f5ffff"/>
<rect x="8" y="10" width="2" height="1" fill="#f7ffff"/>
<rect x="15" y="10" width="1" height="1" fill="#f0fcfc"/>
<rect x="5" y="10" width="1" height="1" fill="#f2fefe"/>
<rect x="26" y="10" width="1" height="1" fill="#f7ffff"/>
<rect x="14" y="10" width="1" height="1" fill="#f4fdfd"/>
<rect x="0" y="10" width="1" height="1" fill="#f3ffff"/>
<rect x="13" y="10" width="1" height="1" fill="#f2fefe"/>
<rect x="16" y="10" width="1" height="1" fill="#edfafa"/>
<rect x="25" y="10" width="1" height="1" fill="#faffff"/>
<rect x="12" y="10" width="1" height="1" fill="#f5fefe"/>
<rect x="23" y="10" width="1" height="2" fill="#f9ffff"/>
<rect x="30" y="10" width="2" height="2" fill="#cfd1d1"/>
<rect x="22" y="10" width="1" height="2" fill="#f6ffff"/>
<rect x="9" y="11" width="1" height="1" fill="#f6ffff"/>
<rect x="13" y="11" width="2" height="1" fill="#f4fdfd"/>
<rect x="16" y="11" width="2" height="1" fill="#fbfefe"/>
<rect x="12" y="11" width="1" height="1" fill="#f4fefe"/>
<rect x="7" y="11" width="1" height="1" fill="#f6ffff"/>
<rect x="18" y="11" width="1" height="1" fill="#f5fefe"/>
<rect x="21" y="11" width="1" height="1" fill="#f4fdfd"/>
<rect x="2" y="11" width="1" height="1" fill="#f0fcfc"/>
<rect x="0" y="11" width="1" height="1" fill="#f4fefe"/>
<rect x="20" y="11" width="1" height="1" fill="#f0fcfc"/>
<rect x="1" y="11" width="1" height="1" fill="#f2fefe"/>
<rect x="3" y="11" width="1" height="1" fill="#edfafa"/>
<rect x="4" y="11" width="1" height="1" fill="#eefcfc"/>
<rect x="27" y="11" width="1" height="1" fill="#f5ffff"/>
<rect x="10" y="11" width="2" height="1" fill="#f4ffff"/>
<rect x="15" y="11" width="1" height="1" fill="#f7fefe"/>
<rect x="8" y="11" width="1" height="1" fill="#f7ffff"/>
<rect x="28" y="11" width="1" height="1" fill="#eefcfc"/>
<rect x="5" y="11" width="1" height="2" fill="#f0fcfc"/>
<rect x="26" y="11" width="1" height="2" fill="#f8ffff"/>
<rect x="6" y="11" width="1" height="2" fill="#f4fefe"/>
<rect x="19" y="11" width="1" height="2" fill="#f4fdfd"/>
<rect x="29" y="11" width="1" height="2" fill="#d4dddb"/>
<rect x="14" y="12" width="1" height="1" fill="#f8ffff"/>
<rect x="10" y="12" width="1" height="1" fill="#f2ffff"/>
<rect x="1" y="12" width="1" height="1" fill="#f0fcfc"/>
<rect x="7" y="12" width="2" height="1" fill="#f5ffff"/>
<rect x="3" y="12" width="1" height="1" fill="#e9f9f9"/>
<rect x="4" y="12" width="1" height="1" fill="#edfafa"/>
<rect x="25" y="12" width="1" height="1" fill="#fdffff"/>
<rect x="11" y="12" width="1" height="1" fill="#f1ffff"/>
<rect x="30" y="12" width="1" height="1" fill="#cfd1d1"/>
<rect x="0" y="12" width="1" height="1" fill="#f5fefe"/>
<rect x="2" y="12" width="1" height="1" fill="#edfafa"/>
<rect x="28" y="12" width="1" height="1" fill="#edfafa"/>
<rect x="27" y="12" width="1" height="1" fill="#f2fefe"/>
<rect x="22" y="12" width="1" height="1" fill="#faffff"/>
<rect x="18" y="12" width="1" height="1" fill="#f7fefe"/>
<rect x="12" y="12" width="1" height="1" fill="#f2ffff"/>
<rect x="23" y="12" width="1" height="1" fill="#fdffff"/>
<rect x="9" y="12" width="1" height="1" fill="#f4ffff"/>
<rect x="20" y="12" width="1" height="1" fill="#f5fefe"/>
<rect x="21" y="12" width="1" height="1" fill="#f9fefe"/>
<rect x="31" y="12" width="1" height="1" fill="#c2cec9"/>
<rect x="24" y="12" width="1" height="1" fill="#ffffff"/>
<rect x="13" y="12" width="1" height="1" fill="#f5ffff"/>
<rect x="19" y="13" width="3" height="1" fill="#f9ffff"/>
<rect x="0" y="13" width="1" height="1" fill="#f9fefe"/>
<rect x="15" y="13" width="1" height="1" fill="#f9ffff"/>
<rect x="25" y="13" width="1" height="1" fill="#f0fcfc"/>
<rect x="16" y="13" width="1" height="1" fill="#fdffff"/>
<rect x="17" y="13" width="1" height="1" fill="#ffffff"/>
<rect x="27" y="13" width="1" height="1" fill="#e9f9f9"/>
<rect x="5" y="13" width="5" height="1" fill="#f4ffff"/>
<rect x="29" y="13" width="3" height="1" fill="#cfd1d1"/>
<rect x="11" y="13" width="1" height="1" fill="#efffff"/>
<rect x="1" y="13" width="1" height="1" fill="#f7fefe"/>
<rect x="26" y="13" width="1" height="1" fill="#edfafa"/>
<rect x="22" y="13" width="3" height="1" fill="#f9fefe"/>
<rect x="13" y="13" width="1" height="1" fill="#f2fefe"/>
<rect x="2" y="13" width="3" height="1" fill="#f5fefe"/>
<rect x="10" y="13" width="1" height="1" fill="#f2fefe"/>
<rect x="12" y="13" width="1" height="1" fill="#f0fcfc"/>
<rect x="14" y="13" width="1" height="2" fill="#f5fefe"/>
<rect x="9" y="14" width="3" height="1" fill="#e9f9f9"/>
<rect x="29" y="14" width="2" height="1" fill="#cfd1d1"/>
<rect x="18" y="14" width="1" height="1" fill="#f5ffff"/>
<rect x="1" y="14" width="1" height="1" fill="#feffff"/>
<rect x="13" y="14" width="1" height="1" fill="#f0fcfc"/>
<rect x="4" y="14" width="1" height="1" fill="#f5ffff"/>
<rect x="15" y="14" width="1" height="1" fill="#f8ffff"/>
<rect x="25" y="14" width="3" height="1" fill="#edfafa"/>
<rect x="5" y="14" width="1" height="1" fill="#f3ffff"/>
<rect x="22" y="14" width="3" height="1" fill="#f4fdfd"/>
<rect x="3" y="14" width="1" height="1" fill="#f9ffff"/>
<rect x="0" y="14" width="1" height="1" fill="#ffffff"/>
<rect x="19" y="14" width="1" height="1" fill="#f3ffff"/>
<rect x="7" y="14" width="1" height="1" fill="#f0fcfc"/>
<rect x="17" y="14" width="1" height="1" fill="#faffff"/>
<rect x="12" y="14" width="1" height="1" fill="#edfafa"/>
<rect x="20" y="14" width="1" height="1" fill="#f4ffff"/>
<rect x="6" y="14" width="1" height="1" fill="#f2fefe"/>
<rect x="21" y="14" width="1" height="1" fill="#f5ffff"/>
<rect x="31" y="14" width="1" height="1" fill="#c2cec9"/>
<rect x="8" y="14" width="1" height="1" fill="#edfafa"/>
<rect x="28" y="13" width="1" height="3" fill="#e8efef"/>
<rect x="3" y="15" width="1" height="1" fill="#f4ffff"/>
<rect x="21" y="15" width="1" height="1" fill="#f7ffff"/>
<rect x="15" y="15" width="2" height="1" fill="#f4ffff"/>
<rect x="22" y="15" width="2" height="1" fill="#f9fefe"/>
<rect x="8" y="15" width="3" height="1" fill="#edfafa"/>
<rect x="5" y="15" width="2" height="1" fill="#efffff"/>
<rect x="4" y="15" width="1" height="1" fill="#f2ffff"/>
<rect x="13" y="15" width="1" height="1" fill="#f5fefe"/>
<rect x="12" y="15" width="1" height="1" fill="#f4fdfd"/>
<rect x="18" y="15" width="2" height="1" fill="#f1ffff"/>
<rect x="25" y="15" width="1" height="1" fill="#f4ffff"/>
<rect x="27" y="15" width="1" height="1" fill="#eefcfc"/>
<rect x="17" y="15" width="1" height="1" fill="#f3ffff"/>
<rect x="26" y="15" width="1" height="1" fill="#efffff"/>
<rect x="20" y="15" width="1" height="1" fill="#f5ffff"/>
<rect x="24" y="15" width="1" height="1" fill="#f8ffff"/>
<rect x="7" y="15" width="1" height="1" fill="#ecfcfc"/>
<rect x="0" y="15" width="1" height="1" fill="#fdffff"/>
<rect x="14" y="15" width="1" height="1" fill="#f6ffff"/>
<rect x="11" y="15" width="1" height="1" fill="#f0fcfc"/>
<rect x="1" y="15" width="1" height="1" fill="#faffff"/>
<rect x="6" y="16" width="1" height="1" fill="#f9fefe"/>
<rect x="14" y="16" width="1" height="1" fill="#f5ffff"/>
<rect x="22" y="16" width="1" height="1" fill="#ffffff"/>
<rect x="26" y="16" width="1" height="1" fill="#eefcfc"/>
<rect x="24" y="16" width="1" height="1" fill="#f6ffff"/>
<rect x="16" y="16" width="1" height="1" fill="#f3ffff"/>
<rect x="21" y="16" width="1" height="1" fill="#fdffff"/>
<rect x="7" y="16" width="1" height="1" fill="#fbfefe"/>
<rect x="20" y="16" width="1" height="1" fill="#faffff"/>
<rect x="3" y="16" width="2" height="1" fill="#f4ffff"/>
<rect x="10" y="16" width="1" height="1" fill="#ffffff"/>
<rect x="18" y="16" width="1" height="1" fill="#f3ffff"/>
<rect x="9" y="16" width="1" height="1" fill="#feffff"/>
<rect x="15" y="16" width="1" height="1" fill="#f4ffff"/>
<rect x="1" y="16" width="1" height="1" fill="#f8ffff"/>
<rect x="5" y="16" width="1" height="1" fill="#f5ffff"/>
<rect x="11" y="16" width="1" height="1" fill="#feffff"/>
<rect x="17" y="16" width="1" height="1" fill="#f2ffff"/>
<rect x="19" y="16" width="1" height="1" fill="#f6ffff"/>
<rect x="13" y="16" width="1" height="1" fill="#f8ffff"/>
<rect x="25" y="16" width="1" height="1" fill="#f2ffff"/>
<rect x="2" y="15" width="1" height="3" fill="#f6ffff"/>
<rect x="8" y="16" width="1" height="2" fill="#fdffff"/>
<rect x="27" y="16" width="1" height="2" fill="#e9f9f9"/>
<rect x="28" y="16" width="1" height="2" fill="#d9e4e3"/>
<rect x="5" y="17" width="1" height="1" fill="#feffff"/>
<rect x="10" y="17" width="1" height="1" fill="#faffff"/>
<rect x="16" y="17" width="2" height="1" fill="#f1ffff"/>
<rect x="0" y="17" width="1" height="1" fill="#f7ffff"/>
<rect x="21" y="17" width="2" height="1" fill="#f9ffff"/>
<rect x="20" y="17" width="1" height="1" fill="#f8ffff"/>
<rect x="19" y="17" width="1" height="1" fill="#f5fefe"/>
<rect x="26" y="17" width="1" height="1" fill="#ecfcfc"/>
<rect x="6" y="17" width="1" height="1" fill="#ffffff"/>
<rect x="23" y="17" width="1" height="1" fill="#f4ffff"/>
<rect x="11" y="17" width="1" height="1" fill="#f7ffff"/>
<rect x="12" y="17" width="1" height="1" fill="#f5ffff"/>
<rect x="24" y="17" width="2" height="1" fill="#efffff"/>
<rect x="7" y="17" width="1" height="1" fill="#feffff"/>
<rect x="15" y="17" width="1" height="1" fill="#f3ffff"/>
<rect x="13" y="17" width="2" height="1" fill="#f4ffff"/>
<rect x="18" y="17" width="1" height="1" fill="#f2fefe"/>
<rect x="3" y="17" width="1" height="2" fill="#f9ffff"/>
<rect x="1" y="17" width="1" height="2" fill="#f5ffff"/>
<rect x="21" y="18" width="1" height="1" fill="#f7ffff"/>
<rect x="10" y="18" width="2" height="1" fill="#f3ffff"/>
<rect x="25" y="18" width="1" height="1" fill="#edfafa"/>
<rect x="20" y="18" width="1" height="1" fill="#f6ffff"/>
<rect x="6" y="18" width="1" height="1" fill="#f5ffff"/>
<rect x="12" y="18" width="2" height="1" fill="#f2fefe"/>
<rect x="4" y="18" width="1" height="1" fill="#faffff"/>
<rect x="8" y="18" width="1" height="1" fill="#f3ffff"/>
<rect x="18" y="18" width="1" height="1" fill="#f0fcfc"/>
<rect x="7" y="18" width="1" height="1" fill="#f1ffff"/>
<rect x="2" y="18" width="1" height="1" fill="#f7ffff"/>
<rect x="24" y="18" width="1" height="1" fill="#ecfcfc"/>
<rect x="23" y="18" width="1" height="1" fill="#f0fcfc"/>
<rect x="15" y="18" width="3" height="1" fill="#edfafa"/>
<rect x="14" y="18" width="1" height="1" fill="#eefcfc"/>
<rect x="0" y="18" width="1" height="1" fill="#f3ffff"/>
<rect x="9" y="18" width="1" height="1" fill="#f4ffff"/>
<rect x="5" y="18" width="1" height="1" fill="#f8ffff"/>
<rect x="19" y="18" width="1" height="1" fill="#f4fdfd"/>
<rect x="26" y="18" width="2" height="1" fill="#e9f9f9"/>
<rect x="22" y="18" width="1" height="1" fill="#f5fefe"/>
<rect x="30" y="15" width="2" height="5" fill="#c2cec9"/>
<rect x="29" y="15" width="1" height="5" fill="#cfd1d1"/>
<rect x="28" y="18" width="1" height="2" fill="#d4dddb"/>
<rect x="18" y="19" width="2" height="1" fill="#f2fefe"/>
<rect x="17" y="19" width="1" height="1" fill="#edfafa"/>
<rect x="12" y="19" width="5" height="1" fill="#e9f9f9"/>
<rect x="1" y="19" width="2" height="1" fill="#fdffff"/>
<rect x="22" y="19" width="4" height="1" fill="#e9f9f9"/>
<rect x="10" y="19" width="1" height="1" fill="#efffff"/>
<rect x="20" y="19" width="1" height="1" fill="#eefcfc"/>
<rect x="4" y="19" width="1" height="1" fill="#f7ffff"/>
<rect x="8" y="19" width="2" height="1" fill="#f2ffff"/>
<rect x="5" y="19" width="1" height="1" fill="#f5ffff"/>
<rect x="21" y="19" width="1" height="1" fill="#edfafa"/>
<rect x="26" y="19" width="2" height="1" fill="#edfafa"/>
<rect x="11" y="19" width="1" height="1" fill="#eefcfc"/>
<rect x="7" y="19" width="1" height="1" fill="#efffff"/>
<rect x="6" y="19" width="1" height="2" fill="#f2ffff"/>
<rect x="16" y="20" width="1" height="1" fill="#feffff"/>
<rect x="19" y="20" width="1" height="1" fill="#f2fefe"/>
<rect x="3" y="20" width="1" height="1" fill="#f4fefe"/>
<rect x="15" y="20" width="1" height="1" fill="#fbfefe"/>
<rect x="4" y="20" width="1" height="1" fill="#f2ffff"/>
<rect x="2" y="20" width="1" height="1" fill="#f9fefe"/>
<rect x="28" y="20" width="1" height="1" fill="#cfd1d1"/>
<rect x="1" y="20" width="1" height="1" fill="#fdffff"/>
<rect x="0" y="20" width="1" height="1" fill="#feffff"/>
<rect x="24" y="20" width="1" height="1" fill="#fbfefe"/>
<rect x="20" y="20" width="2" height="1" fill="#eefcfc"/>
<rect x="13" y="20" width="1" height="1" fill="#f4fdfd"/>
<rect x="14" y="20" width="1" height="1" fill="#f7fefe"/>
<rect x="26" y="20" width="1" height="1" fill="#f7ffff"/>
<rect x="29" y="20" width="3" height="1" fill="#c2cec9"/>
<rect x="9" y="20" width="2" height="1" fill="#efffff"/>
<rect x="11" y="20" width="2" height="1" fill="#eefcfc"/>
<rect x="5" y="20" width="1" height="1" fill="#f1ffff"/>
<rect x="18" y="20" width="1" height="1" fill="#f6ffff"/>
<rect x="27" y="20" width="1" height="1" fill="#f2ffff"/>
<rect x="25" y="20" width="1" height="1" fill="#f9ffff"/>
<rect x="8" y="20" width="1" height="1" fill="#f2ffff"/>
<rect x="23" y="20" width="1" height="1" fill="#f7fefe"/>
<rect x="7" y="20" width="1" height="1" fill="#f4ffff"/>
<rect x="22" y="20" width="1" height="1" fill="#f0fcfc"/>
<rect x="1" y="21" width="1" height="1" fill="#f0fcfc"/>
<rect x="4" y="21" width="3" height="1" fill="#efffff"/>
<rect x="7" y="21" width="3" height="1" fill="#eefcfc"/>
<rect x="14" y="21" width="1" height="1" fill="#feffff"/>
<rect x="26" y="21" width="1" height="1" fill="#f2fefe"/>
<rect x="13" y="21" width="1" height="1" fill="#ffffff"/>
<rect x="18" y="21" width="2" height="1" fill="#f2ffff"/>
<rect x="20" y="21" width="1" height="1" fill="#f5ffff"/>
<rect x="23" y="21" width="1" height="1" fill="#feffff"/>
<rect x="2" y="21" width="2" height="1" fill="#eefcfc"/>
<rect x="11" y="21" width="1" height="1" fill="#f7ffff"/>
<rect x="21" y="21" width="1" height="1" fill="#f9ffff"/>
<rect x="15" y="21" width="1" height="1" fill="#fdffff"/>
<rect x="17" y="21" width="1" height="1" fill="#f7ffff"/>
<rect x="25" y="21" width="1" height="1" fill="#f5ffff"/>
<rect x="30" y="21" width="2" height="2" fill="#c2cec9"/>
<rect x="27" y="21" width="1" height="2" fill="#e9f9f9"/>
<rect x="0" y="21" width="1" height="2" fill="#f5fefe"/>
<rect x="10" y="21" width="1" height="2" fill="#f2fefe"/>
<rect x="21" y="22" width="2" height="1" fill="#fdffff"/>
<rect x="18" y="22" width="1" height="1" fill="#f2ffff"/>
<rect x="6" y="22" width="2" height="1" fill="#e9f9f9"/>
<rect x="24" y="22" width="1" height="1" fill="#f6ffff"/>
<rect x="23" y="22" width="1" height="1" fill="#faffff"/>
<rect x="13" y="22" width="3" height="1" fill="#f7ffff"/>
<rect x="12" y="22" width="1" height="1" fill="#f6ffff"/>
<rect x="20" y="22" width="1" height="1" fill="#faffff"/>
<rect x="26" y="22" width="1" height="1" fill="#efffff"/>
<rect x="1" y="22" width="1" height="1" fill="#f4fdfd"/>
<rect x="16" y="22" width="1" height="1" fill="#f8ffff"/>
<rect x="8" y="22" width="1" height="1" fill="#ecfcfc"/>
<rect x="5" y="22" width="1" height="1" fill="#ecfcfc"/>
<rect x="25" y="22" width="1" height="1" fill="#f1ffff"/>
<rect x="2" y="22" width="2" height="1" fill="#f2fefe"/>
<rect x="19" y="22" width="1" height="1" fill="#f6ffff"/>
<rect x="17" y="22" width="1" height="1" fill="#f5ffff"/>
<rect x="11" y="22" width="1" height="1" fill="#f4ffff"/>
<rect x="9" y="22" width="1" height="1" fill="#eefcfc"/>
<rect x="4" y="22" width="1" height="2" fill="#efffff"/>
<rect x="3" y="23" width="1" height="1" fill="#f4ffff"/>
<rect x="12" y="23" width="1" height="1" fill="#f4ffff"/>
<rect x="14" y="23" width="1" height="1" fill="#f8ffff"/>
<rect x="17" y="23" width="1" height="1" fill="#feffff"/>
<rect x="21" y="23" width="1" height="1" fill="#feffff"/>
<rect x="0" y="23" width="1" height="1" fill="#faffff"/>
<rect x="24" y="23" width="1" height="1" fill="#f2fefe"/>
<rect x="25" y="23" width="1" height="1" fill="#f4ffff"/>
<rect x="10" y="23" width="2" height="1" fill="#f1ffff"/>
<rect x="27" y="23" width="1" height="1" fill="#f4fdfd"/>
<rect x="5" y="23" width="3" height="1" fill="#eefcfc"/>
<rect x="2" y="23" width="1" height="1" fill="#f7ffff"/>
<rect x="26" y="23" width="1" height="1" fill="#f8ffff"/>
<rect x="18" y="23" width="3" height="1" fill="#ffffff"/>
<rect x="8" y="23" width="1" height="1" fill="#f2fefe"/>
<rect x="13" y="23" width="1" height="1" fill="#f6ffff"/>
<rect x="22" y="23" width="1" height="1" fill="#faffff"/>
<rect x="23" y="23" width="1" height="1" fill="#f4fefe"/>
<rect x="1" y="23" width="1" height="1" fill="#f9ffff"/>
<rect x="9" y="23" width="1" height="1" fill="#f3ffff"/>
<rect x="31" y="23" width="1" height="2" fill="#82a27b"/>
<rect x="16" y="23" width="1" height="2" fill="#fdffff"/>
<rect x="30" y="23" width="1" height="2" fill="#c2cec9"/>
<rect x="24" y="24" width="2" height="1" fill="#edfafa"/>
<rect x="19" y="24" width="1" height="1" fill="#f9ffff"/>
<rect x="23" y="24" width="1" height="1" fill="#ecfcfc"/>
<rect x="8" y="24" width="3" height="1" fill="#f0fcfc"/>
<rect x="13" y="24" width="1" height="1" fill="#feffff"/>
<rect x="0" y="24" width="1" height="1" fill="#f7ffff"/>
<rect x="11" y="24" width="1" height="1" fill="#f2fefe"/>
<rect x="27" y="24" width="1" height="1" fill="#e3e5e5"/>
<rect x="22" y="24" width="1" height="1" fill="#f2fefe"/>
<rect x="20" y="24" width="1" height="1" fill="#f7ffff"/>
<rect x="1" y="24" width="1" height="1" fill="#f6ffff"/>
<rect x="21" y="24" width="1" height="1" fill="#f6ffff"/>
<rect x="26" y="24" width="1" height="1" fill="#e8efef"/>
<rect x="3" y="24" width="5" height="1" fill="#efffff"/>
<rect x="12" y="24" width="1" height="1" fill="#f8ffff"/>
<rect x="2" y="24" width="1" height="1" fill="#f3ffff"/>
<rect x="14" y="24" width="2" height="1" fill="#ffffff"/>
<rect x="28" y="21" width="2" height="5" fill="#cfd1d1"/>
<rect x="4" y="25" width="1" height="1" fill="#efffff"/>
<rect x="21" y="25" width="5" height="1" fill="#e8efef"/>
<rect x="6" y="25" width="1" height="1" fill="#edfafa"/>
<rect x="14" y="25" width="1" height="1" fill="#f0fcfc"/>
<rect x="7" y="25" width="3" height="1" fill="#e9f9f9"/>
<rect x="16" y="25" width="1" height="1" fill="#eefcfc"/>
<rect x="2" y="25" width="1" height="1" fill="#f2ffff"/>
<rect x="10" y="25" width="1" height="1" fill="#f0fcfc"/>
<rect x="11" y="25" width="3" height="1" fill="#f4fdfd"/>
<rect x="19" y="25" width="1" height="1" fill="#f0fcfc"/>
<rect x="1" y="25" width="1" height="1" fill="#f3ffff"/>
<rect x="15" y="25" width="1" height="1" fill="#edfafa"/>
<rect x="3" y="25" width="1" height="1" fill="#f1ffff"/>
<rect x="0" y="25" width="1" height="1" fill="#f4ffff"/>
<rect x="18" y="25" width="1" height="1" fill="#f4fefe"/>
<rect x="20" y="25" width="1" height="1" fill="#edfafa"/>
<rect x="17" y="25" width="1" height="1" fill="#f2fefe"/>
<rect x="26" y="25" width="2" height="1" fill="#e3e5e5"/>
<rect x="5" y="25" width="1" height="2" fill="#f0fcfc"/>
<rect x="30" y="25" width="2" height="2" fill="#82a27b"/>
<rect x="2" y="26" width="1" height="1" fill="#f7ffff"/>
<rect x="29" y="26" width="1" height="1" fill="#c2cec9"/>
<rect x="10" y="26" width="5" height="1" fill="#e9f9f9"/>
<rect x="21" y="26" width="1" height="1" fill="#e3e5e5"/>
<rect x="6" y="26" width="2" height="1" fill="#e9f9f9"/>
<rect x="4" y="26" width="1" height="1" fill="#f4fdfd"/>
<rect x="3" y="26" width="1" height="1" fill="#f5ffff"/>
<rect x="22" y="26" width="3" height="1" fill="#d9e4e3"/>
<rect x="0" y="26" width="2" height="1" fill="#faffff"/>
<rect x="15" y="26" width="6" height="1" fill="#e8efef"/>
<rect x="8" y="26" width="2" height="1" fill="#edfafa"/>
<rect x="28" y="26" width="1" height="2" fill="#d4dddb"/>
<rect x="25" y="26" width="3" height="2" fill="#e3e5e5"/>
<rect x="9" y="27" width="1" height="1" fill="#e9f9f9"/>
<rect x="6" y="27" width="1" height="1" fill="#f2ffff"/>
<rect x="31" y="27" width="1" height="1" fill="#82a27b"/>
<rect x="5" y="27" width="1" height="1" fill="#f5fefe"/>
<rect x="4" y="27" width="1" height="1" fill="#f9fefe"/>
<rect x="21" y="27" width="1" height="1" fill="#d9e4e3"/>
<rect x="22" y="27" width="2" height="1" fill="#d4dddb"/>
<rect x="29" y="27" width="2" height="1" fill="#c2cec9"/>
<rect x="2" y="27" width="1" height="1" fill="#faffff"/>
<rect x="1" y="27" width="1" height="1" fill="#fdffff"/>
<rect x="7" y="27" width="1" height="1" fill="#efffff"/>
<rect x="3" y="27" width="1" height="1" fill="#f8ffff"/>
<rect x="16" y="27" width="5" height="1" fill="#e3e5e5"/>
<rect x="0" y="27" width="1" height="1" fill="#ffffff"/>
<rect x="8" y="27" width="1" height="1" fill="#ecfcfc"/>
<rect x="10" y="27" width="6" height="1" fill="#e8efef"/>
<rect x="24" y="27" width="1" height="1" fill="#d9e4e3"/>
<rect x="3" y="28" width="1" height="1" fill="#fdffff"/>
<rect x="23" y="28" width="1" height="1" fill="#cfd1d1"/>
<rect x="10" y="28" width="3" height="1" fill="#e8efef"/>
<rect x="28" y="28" width="1" height="1" fill="#cfd1d1"/>
<rect x="13" y="28" width="6" height="1" fill="#e3e5e5"/>
<rect x="5" y="28" width="1" height="1" fill="#e9f9f9"/>
<rect x="8" y="28" width="1" height="1" fill="#e3e5e5"/>
<rect x="6" y="28" width="2" height="1" fill="#e8efef"/>
<rect x="30" y="28" width="2" height="1" fill="#82a27b"/>
<rect x="19" y="28" width="3" height="1" fill="#d9e4e3"/>
<rect x="25" y="28" width="1" height="1" fill="#e3e5e5"/>
<rect x="24" y="28" width="1" height="1" fill="#d4dddb"/>
<rect x="0" y="28" width="3" height="1" fill="#ffffff"/>
<rect x="9" y="28" width="1" height="1" fill="#d9e4e3"/>
<rect x="22" y="28" width="1" height="1" fill="#d4dddb"/>
<rect x="29" y="28" width="1" height="1" fill="#c2cec9"/>
<rect x="4" y="28" width="1" height="1" fill="#f4fdfd"/>
<rect x="26" y="28" width="1" height="1" fill="#d9e4e3"/>
<rect x="27" y="28" width="1" height="1" fill="#d4dddb"/>
<rect x="18" y="29" width="1" height="1" fill="#e3e5e5"/>
<rect x="0" y="29" width="1" height="1" fill="#f4fdfd"/>
<rect x="19" y="29" width="2" height="1" fill="#d9e4e3"/>
<rect x="3" y="29" width="4" height="1" fill="#d9e4e3"/>
<rect x="1" y="29" width="1" height="1" fill="#edfafa"/>
<rect x="16" y="29" width="1" height="1" fill="#d4dddb"/>
<rect x="23" y="29" width="3" height="1" fill="#c2cec9"/>
<rect x="7" y="29" width="4" height="1" fill="#e3e5e5"/>
<rect x="2" y="29" width="1" height="1" fill="#e8efef"/>
<rect x="13" y="29" width="2" height="1" fill="#e3e5e5"/>
<rect x="15" y="29" width="1" height="1" fill="#d9e4e3"/>
<rect x="21" y="29" width="2" height="1" fill="#d4dddb"/>
<rect x="26" y="29" width="6" height="1" fill="#82a27b"/>
<rect x="17" y="29" width="1" height="1" fill="#d9e4e3"/>
<rect x="11" y="29" width="2" height="1" fill="#d9e4e3"/>
<rect x="8" y="30" width="2" height="1" fill="#e3e5e5"/>
<rect x="3" y="30" width="1" height="1" fill="#d9e4e3"/>
<rect x="10" y="30" width="1" height="1" fill="#d9e4e3"/>
<rect x="2" y="30" width="1" height="1" fill="#e3e5e5"/>
<rect x="0" y="30" width="2" height="1" fill="#e8efef"/>
<rect x="12" y="30" width="1" height="1" fill="#d4dddb"/>
<rect x="19" y="30" width="1" height="1" fill="#cfd1d1"/>
<rect x="20" y="30" width="2" height="1" fill="#d4dddb"/>
<rect x="4" y="30" width="1" height="1" fill="#e3e5e5"/>
<rect x="14" y="30" width="3" height="1" fill="#d4dddb"/>
<rect x="11" y="30" width="1" height="1" fill="#c2cec9"/>
<rect x="5" y="30" width="3" height="1" fill="#d9e4e3"/>
<rect x="18" y="30" width="1" height="1" fill="#d9e4e3"/>
<rect x="17" y="30" width="1" height="2" fill="#e3e5e5"/>
<rect x="22" y="30" width="1" height="2" fill="#c2cec9"/>
<rect x="23" y="30" width="9" height="2" fill="#82a27b"/>
<rect x="13" y="30" width="1" height="2" fill="#d9e4e3"/>
<rect x="19" y="31" width="3" height="1" fill="#82a27b"/>
<rect x="6" y="31" width="4" height="1" fill="#d9e4e3"/>
<rect x="15" y="31" width="2" height="1" fill="#c2cec9"/>
<rect x="10" y="31" width="3" height="1" fill="#d4dddb"/>
<rect x="14" y="31" width="1" height="1" fill="#d4dddb"/>
<rect x="18" y="31" width="1" height="1" fill="#c2cec9"/>
<rect x="0" y="31" width="6" height="1" fill="#e3e5e5"/>
</svg>