<?xml version="1.0" encoding="UTF-8"?>
<svg xmlns="http://www.w3.org/2000/svg" width="20mm" height="20mm" viewBox="0 0 32 32" shape-rendering="crispEdges">
<title>072 顶面 structured semantic redraw</title>
<metadata>registered 32-unit semantic vector redraw; no embedded raster; physical-size=20mm</metadata>
<rect x="0" y="0" width="32" height="32" fill="#a05a51"/>
<rect x="22" y="0" width="2" height="1" fill="#8d8b8b"/>
<rect x="10" y="0" width="1" height="1" fill="#c25356"/>
<rect x="9" y="0" width="1" height="1" fill="#c85c54"/>
<rect x="11" y="0" width="1" height="1" fill="#f06351"/>
<rect x="21" y="0" width="1" height="1" fill="#b77169"/>
<rect x="0" y="0" width="3" height="1" fill="#f36552"/>
<rect x="12" y="0" width="1" height="1" fill="#ef6654"/>
<rect x="17" y="0" width="2" height="1" fill="#c25356"/>
<rect x="13" y="0" width="4" height="1" fill="#9e9f9f"/>
<rect x="30" y="0" width="1" height="1" fill="#c24d4b"/>
<rect x="3" y="0" width="3" height="1" fill="#e25b52"/>
<rect x="27" y="0" width="1" height="1" fill="#ac5b55"/>
<rect x="25" y="0" width="1" height="1" fill="#9e9f9f"/>
<rect x="24" y="0" width="1" height="1" fill="#99999a"/>
<rect x="19" y="0" width="2" height="1" fill="#dc6455"/>
<rect x="26" y="0" width="1" height="1" fill="#a59896"/>
<rect x="31" y="0" width="1" height="1" fill="#b34e51"/>
<rect x="8" y="0" width="1" height="1" fill="#af8b86"/>
<rect x="6" y="0" width="2" height="1" fill="#b77169"/>
<rect x="29" y="0" width="1" height="1" fill="#aa655f"/>
<rect x="22" y="1" width="2" height="1" fill="#505053"/>
<rect x="11" y="1" width="2" height="1" fill="#c85c54"/>
<rect x="30" y="1" width="2" height="1" fill="#c24d4b"/>
<rect x="25" y="1" width="2" height="1" fill="#9e9f9f"/>
<rect x="13" y="1" width="2" height="1" fill="#8d8b8b"/>
<rect x="24" y="1" width="1" height="1" fill="#8d8b8b"/>
<rect x="10" y="1" width="1" height="1" fill="#ae5655"/>
<rect x="3" y="1" width="1" height="1" fill="#c25356"/>
<rect x="28" y="1" width="1" height="1" fill="#9d5851"/>
<rect x="2" y="1" width="1" height="1" fill="#a59896"/>
<rect x="20" y="1" width="2" height="1" fill="#525255"/>
<rect x="0" y="1" width="2" height="1" fill="#af8b86"/>
<rect x="9" y="1" width="1" height="1" fill="#b77169"/>
<rect x="6" y="1" width="3" height="1" fill="#9e9f9f"/>
<rect x="17" y="1" width="1" height="2" fill="#aa655f"/>
<rect x="4" y="1" width="1" height="2" fill="#dc6455"/>
<rect x="15" y="1" width="1" height="2" fill="#99999a"/>
<rect x="16" y="1" width="1" height="2" fill="#9e9f9f"/>
<rect x="19" y="1" width="1" height="2" fill="#895656"/>
<rect x="27" y="2" width="1" height="1" fill="#aa655f"/>
<rect x="1" y="2" width="1" height="1" fill="#99999a"/>
<rect x="8" y="2" width="1" height="1" fill="#797778"/>
<rect x="24" y="2" width="1" height="1" fill="#8b6867"/>
<rect x="20" y="2" width="1" height="1" fill="#525255"/>
<rect x="2" y="2" width="1" height="1" fill="#8d8b8b"/>
<rect x="22" y="2" width="2" height="1" fill="#695455"/>
<rect x="13" y="2" width="1" height="1" fill="#6d6e6f"/>
<rect x="11" y="2" width="1" height="1" fill="#505053"/>
<rect x="30" y="2" width="1" height="1" fill="#c85c54"/>
<rect x="25" y="2" width="2" height="1" fill="#af8b86"/>
<rect x="21" y="2" width="1" height="1" fill="#5b5659"/>
<rect x="7" y="2" width="1" height="1" fill="#99999a"/>
<rect x="14" y="2" width="1" height="1" fill="#707272"/>
<rect x="10" y="2" width="1" height="1" fill="#525255"/>
<rect x="12" y="2" width="1" height="1" fill="#4e5053"/>
<rect x="3" y="2" width="1" height="1" fill="#ae5655"/>
<rect x="5" y="1" width="1" height="3" fill="#ef6654"/>
<rect x="9" y="2" width="1" height="2" fill="#646365"/>
<rect x="6" y="2" width="1" height="2" fill="#a59896"/>
<rect x="0" y="2" width="1" height="2" fill="#a59896"/>
<rect x="29" y="2" width="1" height="2" fill="#9d5851"/>
<rect x="21" y="3" width="3" height="1" fill="#c25356"/>
<rect x="12" y="3" width="1" height="1" fill="#895656"/>
<rect x="4" y="3" width="1" height="1" fill="#c85c54"/>
<rect x="17" y="3" width="2" height="1" fill="#5b5659"/>
<rect x="14" y="3" width="1" height="1" fill="#aa655f"/>
<rect x="19" y="3" width="1" height="1" fill="#695455"/>
<rect x="15" y="3" width="1" height="1" fill="#737070"/>
<rect x="2" y="3" width="1" height="1" fill="#737070"/>
<rect x="20" y="3" width="1" height="1" fill="#b34e51"/>
<rect x="7" y="3" width="1" height="1" fill="#8d8b8b"/>
<rect x="24" y="3" width="1" height="1" fill="#b34e51"/>
<rect x="10" y="3" width="2" height="1" fill="#695455"/>
<rect x="13" y="3" width="1" height="1" fill="#8b6867"/>
<rect x="16" y="3" width="1" height="1" fill="#646365"/>
<rect x="1" y="3" width="1" height="1" fill="#8d8b8b"/>
<rect x="8" y="3" width="1" height="1" fill="#737070"/>
<rect x="31" y="2" width="1" height="3" fill="#c24d4b"/>
<rect x="30" y="3" width="1" height="2" fill="#aa655f"/>
<rect x="2" y="4" width="1" height="1" fill="#8b6867"/>
<rect x="1" y="4" width="1" height="1" fill="#aa655f"/>
<rect x="17" y="4" width="2" height="1" fill="#505053"/>
<rect x="4" y="4" width="1" height="1" fill="#aa655f"/>
<rect x="6" y="4" width="2" height="1" fill="#695455"/>
<rect x="29" y="4" width="1" height="1" fill="#b34e51"/>
<rect x="20" y="4" width="5" height="1" fill="#c25356"/>
<rect x="3" y="4" width="1" height="1" fill="#737070"/>
<rect x="0" y="4" width="1" height="1" fill="#b77169"/>
<rect x="15" y="4" width="1" height="1" fill="#895656"/>
<rect x="28" y="4" width="1" height="1" fill="#ae5655"/>
<rect x="5" y="4" width="1" height="1" fill="#c25356"/>
<rect x="12" y="4" width="3" height="1" fill="#c25356"/>
<rect x="19" y="4" width="1" height="1" fill="#5b5659"/>
<rect x="11" y="4" width="1" height="1" fill="#ae5655"/>
<rect x="16" y="4" width="1" height="1" fill="#4e5053"/>
<rect x="25" y="4" width="3" height="1" fill="#ac5b55"/>
<rect x="19" y="5" width="1" height="1" fill="#525053"/>
<rect x="3" y="5" width="1" height="1" fill="#6d6e6f"/>
<rect x="10" y="5" width="1" height="1" fill="#c25356"/>
<rect x="11" y="5" width="2" height="1" fill="#c85c54"/>
<rect x="5" y="5" width="1" height="1" fill="#ae5655"/>
<rect x="0" y="5" width="1" height="1" fill="#c25356"/>
<rect x="1" y="5" width="1" height="1" fill="#ae5655"/>
<rect x="8" y="5" width="2" height="1" fill="#c85c54"/>
<rect x="13" y="5" width="2" height="1" fill="#e25b52"/>
<rect x="26" y="5" width="2" height="1" fill="#f36552"/>
<rect x="15" y="5" width="2" height="1" fill="#c85c54"/>
<rect x="24" y="5" width="2" height="1" fill="#f06351"/>
<rect x="30" y="5" width="1" height="1" fill="#dc6455"/>
<rect x="17" y="5" width="1" height="1" fill="#ac5b55"/>
<rect x="28" y="5" width="2" height="1" fill="#e25b52"/>
<rect x="31" y="5" width="1" height="1" fill="#b34e51"/>
<rect x="4" y="5" width="1" height="1" fill="#8b6867"/>
<rect x="6" y="5" width="2" height="1" fill="#895656"/>
<rect x="23" y="5" width="1" height="1" fill="#ef6654"/>
<rect x="21" y="5" width="2" height="2" fill="#e25b52"/>
<rect x="20" y="5" width="1" height="2" fill="#c85c54"/>
<rect x="18" y="5" width="1" height="2" fill="#505053"/>
<rect x="4" y="6" width="1" height="1" fill="#525255"/>
<rect x="10" y="6" width="3" height="1" fill="#e25b52"/>
<rect x="6" y="6" width="1" height="1" fill="#c85c54"/>
<rect x="2" y="6" width="1" height="1" fill="#ef6654"/>
<rect x="17" y="6" width="1" height="1" fill="#dc6455"/>
<rect x="9" y="6" width="1" height="1" fill="#f06351"/>
<rect x="31" y="6" width="1" height="1" fill="#ae5655"/>
<rect x="14" y="6" width="3" height="1" fill="#f36552"/>
<rect x="28" y="6" width="3" height="1" fill="#e25b52"/>
<rect x="3" y="6" width="1" height="1" fill="#5b5659"/>
<rect x="7" y="6" width="2" height="1" fill="#f36552"/>
<rect x="0" y="6" width="2" height="1" fill="#f06351"/>
<rect x="23" y="6" width="3" height="1" fill="#f36552"/>
<rect x="26" y="6" width="2" height="1" fill="#ef6654"/>
<rect x="5" y="6" width="1" height="1" fill="#505053"/>
<rect x="13" y="6" width="1" height="1" fill="#f06351"/>
<rect x="19" y="6" width="1" height="1" fill="#4e4f53"/>
<rect x="22" y="7" width="1" height="1" fill="#895656"/>
<rect x="3" y="7" width="3" height="1" fill="#895656"/>
<rect x="8" y="7" width="2" height="1" fill="#ac5b55"/>
<rect x="0" y="7" width="3" height="1" fill="#dc6455"/>
<rect x="25" y="7" width="3" height="1" fill="#a59896"/>
<rect x="13" y="7" width="1" height="1" fill="#b77169"/>
<rect x="10" y="7" width="2" height="1" fill="#c85c54"/>
<rect x="30" y="7" width="1" height="1" fill="#c24d4b"/>
<rect x="16" y="7" width="2" height="1" fill="#aa655f"/>
<rect x="18" y="7" width="2" height="1" fill="#9d5851"/>
<rect x="14" y="7" width="2" height="1" fill="#af8b86"/>
<rect x="23" y="7" width="2" height="1" fill="#af8b86"/>
<rect x="28" y="7" width="1" height="1" fill="#b77169"/>
<rect x="6" y="7" width="2" height="1" fill="#b77169"/>
<rect x="21" y="7" width="1" height="1" fill="#695455"/>
<rect x="12" y="7" width="1" height="1" fill="#aa655f"/>
<rect x="31" y="7" width="1" height="2" fill="#aa655f"/>
<rect x="29" y="7" width="1" height="2" fill="#c25356"/>
<rect x="20" y="7" width="1" height="2" fill="#895656"/>
<rect x="5" y="8" width="1" height="1" fill="#f36552"/>
<rect x="10" y="8" width="1" height="1" fill="#c25356"/>
<rect x="9" y="8" width="1" height="1" fill="#5b5659"/>
<rect x="21" y="8" width="1" height="1" fill="#4e5053"/>
<rect x="1" y="8" width="2" height="1" fill="#9e9f9f"/>
<rect x="19" y="8" width="1" height="1" fill="#c25356"/>
<rect x="4" y="8" width="1" height="1" fill="#c85c54"/>
<rect x="13" y="8" width="1" height="1" fill="#797778"/>
<rect x="22" y="8" width="1" height="1" fill="#525255"/>
<rect x="18" y="8" width="1" height="1" fill="#ae5655"/>
<rect x="11" y="8" width="1" height="1" fill="#ac5b55"/>
<rect x="28" y="8" width="1" height="1" fill="#af8b86"/>
<rect x="12" y="8" width="1" height="1" fill="#707272"/>
<rect x="23" y="8" width="1" height="1" fill="#99999a"/>
<rect x="15" y="8" width="1" height="1" fill="#99999a"/>
<rect x="8" y="8" width="1" height="1" fill="#525255"/>
<rect x="3" y="8" width="1" height="1" fill="#c25356"/>
<rect x="14" y="8" width="1" height="1" fill="#9e9f9f"/>
<rect x="24" y="8" width="4" height="1" fill="#9e9f9f"/>
<rect x="16" y="8" width="2" height="1" fill="#707272"/>
<rect x="6" y="8" width="1" height="2" fill="#af8b86"/>
<rect x="30" y="8" width="1" height="2" fill="#b34e51"/>
<rect x="5" y="9" width="1" height="1" fill="#aa655f"/>
<rect x="1" y="9" width="1" height="1" fill="#99999a"/>
<rect x="16" y="9" width="2" height="1" fill="#8d8b8b"/>
<rect x="9" y="9" width="1" height="1" fill="#525255"/>
<rect x="24" y="9" width="2" height="1" fill="#797778"/>
<rect x="2" y="9" width="1" height="1" fill="#8d8b8b"/>
<rect x="12" y="9" width="2" height="1" fill="#646365"/>
<rect x="18" y="9" width="1" height="1" fill="#aa655f"/>
<rect x="21" y="9" width="2" height="1" fill="#646365"/>
<rect x="19" y="9" width="1" height="1" fill="#ae5655"/>
<rect x="28" y="9" width="1" height="1" fill="#a59896"/>
<rect x="31" y="9" width="1" height="1" fill="#ac5b55"/>
<rect x="26" y="9" width="1" height="1" fill="#99999a"/>
<rect x="3" y="9" width="2" height="1" fill="#8b6867"/>
<rect x="14" y="9" width="2" height="1" fill="#797778"/>
<rect x="10" y="9" width="2" height="1" fill="#895656"/>
<rect x="23" y="9" width="1" height="1" fill="#707272"/>
<rect x="29" y="9" width="1" height="1" fill="#ae5655"/>
<rect x="7" y="8" width="1" height="3" fill="#9e9f9f"/>
<rect x="0" y="8" width="1" height="3" fill="#a59896"/>
<rect x="27" y="9" width="1" height="2" fill="#9e9f9f"/>
<rect x="20" y="9" width="1" height="2" fill="#9d5851"/>
<rect x="14" y="10" width="2" height="1" fill="#4e4f53"/>
<rect x="12" y="10" width="2" height="1" fill="#505053"/>
<rect x="21" y="10" width="2" height="1" fill="#707272"/>
<rect x="30" y="10" width="2" height="1" fill="#9d5851"/>
<rect x="26" y="10" width="1" height="1" fill="#8d8b8b"/>
<rect x="24" y="10" width="2" height="1" fill="#4e4f53"/>
<rect x="18" y="10" width="1" height="1" fill="#b77169"/>
<rect x="9" y="10" width="2" height="1" fill="#505053"/>
<rect x="16" y="10" width="1" height="1" fill="#8d8b8b"/>
<rect x="17" y="10" width="1" height="1" fill="#9e9f9f"/>
<rect x="2" y="10" width="4" height="1" fill="#707272"/>
<rect x="11" y="10" width="1" height="1" fill="#4e5053"/>
<rect x="1" y="10" width="1" height="1" fill="#8d8b8b"/>
<rect x="6" y="10" width="1" height="1" fill="#8d8b8b"/>
<rect x="23" y="10" width="1" height="2" fill="#646365"/>
<rect x="28" y="10" width="1" height="2" fill="#99999a"/>
<rect x="16" y="11" width="1" height="1" fill="#797778"/>
<rect x="5" y="11" width="1" height="1" fill="#aa655f"/>
<rect x="27" y="11" width="1" height="1" fill="#a59896"/>
<rect x="12" y="11" width="2" height="1" fill="#525255"/>
<rect x="1" y="11" width="1" height="1" fill="#aa655f"/>
<rect x="14" y="11" width="2" height="1" fill="#5b5659"/>
<rect x="9" y="11" width="3" height="1" fill="#505053"/>
<rect x="7" y="11" width="1" height="1" fill="#8d8b8b"/>
<rect x="17" y="11" width="2" height="1" fill="#8d8b8b"/>
<rect x="21" y="11" width="1" height="1" fill="#8b6867"/>
<rect x="22" y="11" width="1" height="1" fill="#737070"/>
<rect x="2" y="11" width="3" height="1" fill="#9d5851"/>
<rect x="19" y="11" width="2" height="1" fill="#9d5851"/>
<rect x="26" y="11" width="1" height="1" fill="#797778"/>
<rect x="29" y="11" width="1" height="1" fill="#aa655f"/>
<rect x="8" y="9" width="1" height="4" fill="#5b5659"/>
<rect x="0" y="11" width="1" height="2" fill="#c25356"/>
<rect x="24" y="11" width="1" height="2" fill="#505053"/>
<rect x="6" y="11" width="1" height="2" fill="#8b6867"/>
<rect x="4" y="12" width="1" height="1" fill="#ac5b55"/>
<rect x="21" y="12" width="1" height="1" fill="#ae5655"/>
<rect x="7" y="12" width="1" height="1" fill="#707272"/>
<rect x="9" y="12" width="1" height="1" fill="#505053"/>
<rect x="23" y="12" width="1" height="1" fill="#9d5851"/>
<rect x="14" y="12" width="1" height="1" fill="#6d6e6f"/>
<rect x="12" y="12" width="1" height="1" fill="#525255"/>
<rect x="13" y="12" width="1" height="1" fill="#4e4f53"/>
<rect x="15" y="12" width="6" height="1" fill="#707272"/>
<rect x="5" y="12" width="1" height="1" fill="#c25356"/>
<rect x="1" y="12" width="1" height="1" fill="#b34e51"/>
<rect x="10" y="12" width="1" height="1" fill="#525255"/>
<rect x="31" y="11" width="1" height="3" fill="#9d5851"/>
<rect x="25" y="11" width="1" height="3" fill="#4e5053"/>
<rect x="11" y="12" width="1" height="2" fill="#505053"/>
<rect x="22" y="12" width="1" height="2" fill="#c25356"/>
<rect x="26" y="12" width="1" height="2" fill="#695455"/>
<rect x="0" y="13" width="3" height="1" fill="#f06351"/>
<rect x="12" y="13" width="2" height="1" fill="#525255"/>
<rect x="21" y="13" width="1" height="1" fill="#aa655f"/>
<rect x="4" y="13" width="1" height="1" fill="#c85c54"/>
<rect x="15" y="13" width="4" height="1" fill="#6d6e6f"/>
<rect x="7" y="13" width="1" height="1" fill="#5b5659"/>
<rect x="24" y="13" width="1" height="1" fill="#525053"/>
<rect x="5" y="13" width="1" height="1" fill="#8b6867"/>
<rect x="23" y="13" width="1" height="1" fill="#ae5655"/>
<rect x="19" y="13" width="2" height="1" fill="#737070"/>
<rect x="8" y="13" width="3" height="1" fill="#525255"/>
<rect x="14" y="13" width="1" height="1" fill="#646365"/>
<rect x="3" y="13" width="1" height="2" fill="#e25b52"/>
<rect x="14" y="14" width="4" height="1" fill="#525255"/>
<rect x="22" y="14" width="2" height="1" fill="#695455"/>
<rect x="27" y="14" width="2" height="1" fill="#c85c54"/>
<rect x="1" y="14" width="2" height="1" fill="#ef6654"/>
<rect x="18" y="14" width="1" height="1" fill="#5b5659"/>
<rect x="0" y="14" width="1" height="1" fill="#dc6455"/>
<rect x="4" y="14" width="1" height="1" fill="#dc6455"/>
<rect x="5" y="14" width="1" height="1" fill="#707272"/>
<rect x="30" y="14" width="2" height="1" fill="#ae5655"/>
<rect x="21" y="14" width="1" height="1" fill="#9d5851"/>
<rect x="7" y="14" width="1" height="1" fill="#4e4f53"/>
<rect x="29" y="14" width="1" height="1" fill="#c25356"/>
<rect x="8" y="14" width="6" height="1" fill="#505053"/>
<rect x="19" y="14" width="2" height="1" fill="#c85c54"/>
<rect x="24" y="14" width="2" height="1" fill="#ac5b55"/>
<rect x="6" y="13" width="1" height="3" fill="#646365"/>
<rect x="2" y="15" width="2" height="1" fill="#737070"/>
<rect x="9" y="15" width="6" height="1" fill="#505053"/>
<rect x="15" y="15" width="1" height="1" fill="#525255"/>
<rect x="30" y="15" width="2" height="1" fill="#e25b52"/>
<rect x="19" y="15" width="1" height="1" fill="#c85c54"/>
<rect x="25" y="15" width="5" height="1" fill="#f36552"/>
<rect x="21" y="15" width="1" height="1" fill="#ae5655"/>
<rect x="20" y="15" width="1" height="1" fill="#e25b52"/>
<rect x="17" y="15" width="1" height="1" fill="#4e4f53"/>
<rect x="24" y="15" width="1" height="1" fill="#c85c54"/>
<rect x="5" y="15" width="1" height="1" fill="#5b5659"/>
<rect x="16" y="15" width="1" height="1" fill="#505053"/>
<rect x="8" y="15" width="1" height="1" fill="#646365"/>
<rect x="4" y="15" width="1" height="1" fill="#8b6867"/>
<rect x="7" y="15" width="1" height="1" fill="#797778"/>
<rect x="18" y="15" width="1" height="1" fill="#525053"/>
<rect x="22" y="15" width="2" height="2" fill="#4e5053"/>
<rect x="15" y="16" width="2" height="1" fill="#6d6e6f"/>
<rect x="8" y="16" width="1" height="1" fill="#797778"/>
<rect x="25" y="16" width="2" height="1" fill="#ef6654"/>
<rect x="27" y="16" width="3" height="1" fill="#f36552"/>
<rect x="30" y="16" width="1" height="1" fill="#f06351"/>
<rect x="7" y="16" width="1" height="1" fill="#9e9f9f"/>
<rect x="5" y="16" width="1" height="1" fill="#4e4f53"/>
<rect x="17" y="16" width="2" height="1" fill="#646365"/>
<rect x="20" y="16" width="1" height="1" fill="#c85c54"/>
<rect x="6" y="16" width="1" height="1" fill="#6d6e6f"/>
<rect x="9" y="16" width="5" height="1" fill="#505053"/>
<rect x="19" y="16" width="1" height="1" fill="#ae5655"/>
<rect x="4" y="16" width="1" height="1" fill="#6d6e6f"/>
<rect x="3" y="16" width="1" height="1" fill="#737070"/>
<rect x="31" y="16" width="1" height="1" fill="#e25b52"/>
<rect x="21" y="16" width="1" height="1" fill="#c25356"/>
<rect x="0" y="15" width="1" height="3" fill="#a59896"/>
<rect x="2" y="16" width="1" height="2" fill="#707272"/>
<rect x="14" y="16" width="1" height="2" fill="#5b5659"/>
<rect x="30" y="17" width="1" height="1" fill="#b77169"/>
<rect x="27" y="17" width="3" height="1" fill="#af8b86"/>
<rect x="23" y="17" width="1" height="1" fill="#505053"/>
<rect x="9" y="17" width="1" height="1" fill="#646365"/>
<rect x="24" y="17" width="1" height="1" fill="#646365"/>
<rect x="20" y="17" width="1" height="1" fill="#c25356"/>
<rect x="19" y="17" width="1" height="1" fill="#aa655f"/>
<rect x="22" y="17" width="1" height="1" fill="#525053"/>
<rect x="7" y="17" width="2" height="1" fill="#797778"/>
<rect x="15" y="17" width="4" height="1" fill="#707272"/>
<rect x="11" y="17" width="3" height="1" fill="#505053"/>
<rect x="5" y="17" width="1" height="1" fill="#c85c54"/>
<rect x="25" y="17" width="2" height="1" fill="#a59896"/>
<rect x="21" y="17" width="1" height="1" fill="#b34e51"/>
<rect x="31" y="17" width="1" height="1" fill="#c85c54"/>
<rect x="10" y="17" width="1" height="1" fill="#5b5659"/>
<rect x="1" y="15" width="1" height="4" fill="#8d8b8b"/>
<rect x="3" y="17" width="1" height="2" fill="#895656"/>
<rect x="5" y="18" width="1" height="1" fill="#f36552"/>
<rect x="6" y="18" width="1" height="1" fill="#c85c54"/>
<rect x="24" y="18" width="1" height="1" fill="#5b5659"/>
<rect x="9" y="18" width="1" height="1" fill="#9e9f9f"/>
<rect x="8" y="18" width="1" height="1" fill="#6d6e6f"/>
<rect x="12" y="18" width="2" height="1" fill="#505053"/>
<rect x="0" y="18" width="1" height="1" fill="#af8b86"/>
<rect x="22" y="18" width="1" height="1" fill="#5b5659"/>
<rect x="2" y="18" width="1" height="1" fill="#737070"/>
<rect x="10" y="18" width="1" height="1" fill="#797778"/>
<rect x="23" y="18" width="1" height="1" fill="#4e4f53"/>
<rect x="25" y="18" width="5" height="1" fill="#9e9f9f"/>
<rect x="19" y="18" width="1" height="1" fill="#8b6867"/>
<rect x="20" y="18" width="2" height="1" fill="#b34e51"/>
<rect x="17" y="18" width="2" height="1" fill="#797778"/>
<rect x="11" y="18" width="1" height="2" fill="#4e4f53"/>
<rect x="15" y="18" width="2" height="2" fill="#707272"/>
<rect x="14" y="18" width="1" height="2" fill="#525255"/>
<rect x="31" y="18" width="1" height="2" fill="#c25356"/>
<rect x="30" y="18" width="1" height="2" fill="#a59896"/>
<rect x="10" y="19" width="1" height="1" fill="#8d8b8b"/>
<rect x="27" y="19" width="1" height="1" fill="#99999a"/>
<rect x="17" y="19" width="1" height="1" fill="#99999a"/>
<rect x="0" y="19" width="1" height="1" fill="#c25356"/>
<rect x="20" y="19" width="1" height="1" fill="#5b5659"/>
<rect x="25" y="19" width="2" height="1" fill="#8d8b8b"/>
<rect x="13" y="19" width="1" height="1" fill="#4e4f53"/>
<rect x="12" y="19" width="1" height="1" fill="#505053"/>
<rect x="5" y="19" width="2" height="1" fill="#aa655f"/>
<rect x="9" y="19" width="1" height="1" fill="#a59896"/>
<rect x="28" y="19" width="2" height="1" fill="#9e9f9f"/>
<rect x="8" y="19" width="1" height="1" fill="#646365"/>
<rect x="22" y="19" width="3" height="1" fill="#646365"/>
<rect x="1" y="19" width="1" height="1" fill="#b34e51"/>
<rect x="21" y="19" width="1" height="1" fill="#695455"/>
<rect x="7" y="18" width="1" height="3" fill="#4e4f53"/>
<rect x="19" y="19" width="1" height="2" fill="#8d8b8b"/>
<rect x="18" y="19" width="1" height="2" fill="#9e9f9f"/>
<rect x="20" y="20" width="1" height="1" fill="#4e4f53"/>
<rect x="31" y="20" width="1" height="1" fill="#aa655f"/>
<rect x="21" y="20" width="1" height="1" fill="#4e5053"/>
<rect x="0" y="20" width="1" height="1" fill="#c85c54"/>
<rect x="23" y="20" width="5" height="1" fill="#707272"/>
<rect x="6" y="20" width="1" height="1" fill="#6d6e6f"/>
<rect x="22" y="20" width="1" height="1" fill="#646365"/>
<rect x="28" y="20" width="1" height="1" fill="#99999a"/>
<rect x="15" y="20" width="2" height="1" fill="#737070"/>
<rect x="11" y="20" width="3" height="1" fill="#646365"/>
<rect x="17" y="20" width="1" height="1" fill="#8d8b8b"/>
<rect x="14" y="20" width="1" height="1" fill="#5b5659"/>
<rect x="5" y="20" width="1" height="1" fill="#737070"/>
<rect x="10" y="20" width="1" height="1" fill="#8b6867"/>
<rect x="8" y="20" width="1" height="1" fill="#695455"/>
<rect x="1" y="20" width="1" height="1" fill="#c25356"/>
<rect x="29" y="20" width="2" height="2" fill="#9e9f9f"/>
<rect x="14" y="21" width="1" height="1" fill="#737070"/>
<rect x="5" y="21" width="1" height="1" fill="#aa655f"/>
<rect x="1" y="21" width="1" height="1" fill="#f36552"/>
<rect x="19" y="21" width="1" height="1" fill="#737070"/>
<rect x="23" y="21" width="1" height="1" fill="#737070"/>
<rect x="7" y="21" width="2" height="1" fill="#695455"/>
<rect x="31" y="21" width="1" height="1" fill="#b77169"/>
<rect x="10" y="21" width="1" height="1" fill="#9d5851"/>
<rect x="11" y="21" width="3" height="1" fill="#707272"/>
<rect x="20" y="21" width="3" height="1" fill="#695455"/>
<rect x="15" y="21" width="1" height="1" fill="#ae5655"/>
<rect x="16" y="21" width="1" height="1" fill="#b34e51"/>
<rect x="6" y="21" width="1" height="1" fill="#8b6867"/>
<rect x="24" y="21" width="4" height="1" fill="#707272"/>
<rect x="4" y="21" width="1" height="1" fill="#8b6867"/>
<rect x="18" y="21" width="1" height="1" fill="#646365"/>
<rect x="0" y="21" width="1" height="1" fill="#f06351"/>
<rect x="2" y="21" width="1" height="2" fill="#f06351"/>
<rect x="28" y="21" width="1" height="2" fill="#8d8b8b"/>
<rect x="17" y="21" width="1" height="2" fill="#895656"/>
<rect x="4" y="22" width="1" height="1" fill="#707272"/>
<rect x="15" y="22" width="1" height="1" fill="#ac5b55"/>
<rect x="0" y="22" width="1" height="1" fill="#dc6455"/>
<rect x="12" y="22" width="1" height="1" fill="#8b6867"/>
<rect x="13" y="22" width="1" height="1" fill="#6d6e6f"/>
<rect x="30" y="22" width="1" height="1" fill="#9e9f9f"/>
<rect x="27" y="22" width="1" height="1" fill="#8b6867"/>
<rect x="1" y="22" width="1" height="1" fill="#ef6654"/>
<rect x="16" y="22" width="1" height="1" fill="#c25356"/>
<rect x="20" y="22" width="1" height="1" fill="#9d5851"/>
<rect x="25" y="22" width="2" height="1" fill="#aa655f"/>
<rect x="8" y="22" width="1" height="1" fill="#c85c54"/>
<rect x="14" y="22" width="1" height="1" fill="#707272"/>
<rect x="11" y="22" width="1" height="1" fill="#aa655f"/>
<rect x="9" y="22" width="2" height="1" fill="#695455"/>
<rect x="23" y="22" width="2" height="1" fill="#ae5655"/>
<rect x="31" y="22" width="1" height="1" fill="#af8b86"/>
<rect x="29" y="22" width="1" height="1" fill="#a59896"/>
<rect x="18" y="22" width="2" height="1" fill="#4e4f53"/>
<rect x="7" y="22" width="1" height="2" fill="#f06351"/>
<rect x="6" y="22" width="1" height="2" fill="#e25b52"/>
<rect x="5" y="22" width="1" height="2" fill="#dc6455"/>
<rect x="2" y="23" width="1" height="1" fill="#8b6867"/>
<rect x="18" y="23" width="1" height="1" fill="#695455"/>
<rect x="23" y="23" width="5" height="1" fill="#c25356"/>
<rect x="15" y="23" width="1" height="1" fill="#695455"/>
<rect x="30" y="23" width="2" height="1" fill="#aa655f"/>
<rect x="9" y="23" width="2" height="1" fill="#525053"/>
<rect x="8" y="23" width="1" height="1" fill="#e25b52"/>
<rect x="16" y="23" width="2" height="1" fill="#895656"/>
<rect x="14" y="23" width="1" height="1" fill="#525255"/>
<rect x="4" y="23" width="1" height="1" fill="#8b6867"/>
<rect x="19" y="23" width="1" height="1" fill="#5b5659"/>
<rect x="20" y="23" width="1" height="1" fill="#895656"/>
<rect x="13" y="23" width="1" height="2" fill="#695455"/>
<rect x="28" y="23" width="1" height="2" fill="#b34e51"/>
<rect x="1" y="23" width="1" height="2" fill="#8d8b8b"/>
<rect x="11" y="23" width="2" height="2" fill="#e25b52"/>
<rect x="23" y="24" width="1" height="1" fill="#ac5b55"/>
<rect x="2" y="24" width="1" height="1" fill="#707272"/>
<rect x="5" y="24" width="2" height="1" fill="#f06351"/>
<rect x="15" y="24" width="1" height="1" fill="#505053"/>
<rect x="26" y="24" width="2" height="1" fill="#c25356"/>
<rect x="4" y="24" width="1" height="1" fill="#c25356"/>
<rect x="21" y="24" width="2" height="1" fill="#8b6867"/>
<rect x="14" y="24" width="1" height="1" fill="#4e5053"/>
<rect x="7" y="24" width="2" height="1" fill="#af8b86"/>
<rect x="19" y="24" width="1" height="1" fill="#dc6455"/>
<rect x="9" y="24" width="1" height="1" fill="#646365"/>
<rect x="20" y="24" width="1" height="1" fill="#aa655f"/>
<rect x="24" y="24" width="1" height="1" fill="#ae5655"/>
<rect x="18" y="24" width="1" height="1" fill="#ef6654"/>
<rect x="10" y="24" width="1" height="1" fill="#5b5659"/>
<rect x="25" y="24" width="1" height="1" fill="#b34e51"/>
<rect x="16" y="24" width="1" height="1" fill="#4e5053"/>
<rect x="17" y="24" width="1" height="1" fill="#695455"/>
<rect x="3" y="21" width="1" height="5" fill="#aa655f"/>
<rect x="11" y="25" width="2" height="1" fill="#c25356"/>
<rect x="1" y="25" width="1" height="1" fill="#99999a"/>
<rect x="10" y="25" width="1" height="1" fill="#737070"/>
<rect x="4" y="25" width="1" height="1" fill="#b34e51"/>
<rect x="2" y="25" width="1" height="1" fill="#8d8b8b"/>
<rect x="21" y="25" width="2" height="1" fill="#707272"/>
<rect x="28" y="25" width="1" height="1" fill="#c85c54"/>
<rect x="15" y="25" width="1" height="1" fill="#695455"/>
<rect x="19" y="25" width="1" height="1" fill="#f36552"/>
<rect x="16" y="25" width="1" height="1" fill="#525255"/>
<rect x="14" y="25" width="1" height="1" fill="#895656"/>
<rect x="23" y="25" width="2" height="1" fill="#737070"/>
<rect x="27" y="25" width="1" height="1" fill="#e25b52"/>
<rect x="5" y="25" width="1" height="1" fill="#e25b52"/>
<rect x="25" y="25" width="1" height="1" fill="#8b6867"/>
<rect x="17" y="25" width="1" height="1" fill="#525053"/>
<rect x="13" y="25" width="1" height="1" fill="#ac5b55"/>
<rect x="18" y="25" width="1" height="1" fill="#f06351"/>
<rect x="29" y="25" width="1" height="1" fill="#ae5655"/>
<rect x="0" y="23" width="1" height="4" fill="#a59896"/>
<rect x="26" y="25" width="1" height="2" fill="#dc6455"/>
<rect x="9" y="25" width="1" height="2" fill="#797778"/>
<rect x="20" y="25" width="1" height="2" fill="#b77169"/>
<rect x="3" y="26" width="1" height="1" fill="#b77169"/>
<rect x="1" y="26" width="2" height="1" fill="#9e9f9f"/>
<rect x="16" y="26" width="1" height="1" fill="#6d6e6f"/>
<rect x="15" y="26" width="1" height="1" fill="#c85c54"/>
<rect x="19" y="26" width="1" height="1" fill="#dc6455"/>
<rect x="30" y="26" width="1" height="1" fill="#ef6654"/>
<rect x="29" y="26" width="1" height="1" fill="#f06351"/>
<rect x="27" y="26" width="2" height="1" fill="#f36552"/>
<rect x="18" y="26" width="1" height="1" fill="#b77169"/>
<rect x="12" y="26" width="1" height="1" fill="#c25356"/>
<rect x="17" y="26" width="1" height="1" fill="#646365"/>
<rect x="13" y="26" width="1" height="1" fill="#e25b52"/>
<rect x="31" y="26" width="1" height="1" fill="#dc6455"/>
<rect x="10" y="26" width="1" height="1" fill="#707272"/>
<rect x="11" y="26" width="1" height="1" fill="#ae5655"/>
<rect x="21" y="26" width="1" height="1" fill="#737070"/>
<rect x="22" y="26" width="4" height="1" fill="#707272"/>
<rect x="6" y="25" width="1" height="3" fill="#f36552"/>
<rect x="8" y="25" width="1" height="3" fill="#9e9f9f"/>
<rect x="7" y="25" width="1" height="3" fill="#a59896"/>
<rect x="5" y="26" width="1" height="2" fill="#dc6455"/>
<rect x="10" y="27" width="1" height="1" fill="#8d8b8b"/>
<rect x="13" y="27" width="1" height="1" fill="#dc6455"/>
<rect x="0" y="27" width="1" height="1" fill="#c25356"/>
<rect x="27" y="27" width="5" height="1" fill="#f36552"/>
<rect x="21" y="27" width="1" height="1" fill="#ae5655"/>
<rect x="23" y="27" width="2" height="1" fill="#8b6867"/>
<rect x="18" y="27" width="1" height="1" fill="#99999a"/>
<rect x="1" y="27" width="1" height="1" fill="#b77169"/>
<rect x="2" y="27" width="1" height="1" fill="#af8b86"/>
<rect x="20" y="27" width="1" height="1" fill="#af8b86"/>
<rect x="25" y="27" width="1" height="1" fill="#737070"/>
<rect x="9" y="27" width="1" height="1" fill="#99999a"/>
<rect x="12" y="27" width="1" height="1" fill="#b34e51"/>
<rect x="3" y="27" width="1" height="1" fill="#aa655f"/>
<rect x="22" y="27" width="1" height="1" fill="#aa655f"/>
<rect x="16" y="27" width="2" height="1" fill="#707272"/>
<rect x="26" y="27" width="1" height="2" fill="#b77169"/>
<rect x="19" y="27" width="1" height="2" fill="#9e9f9f"/>
<rect x="15" y="27" width="1" height="2" fill="#dc6455"/>
<rect x="31" y="28" width="1" height="1" fill="#f36552"/>
<rect x="27" y="28" width="1" height="1" fill="#aa655f"/>
<rect x="2" y="28" width="2" height="1" fill="#9d5851"/>
<rect x="23" y="28" width="1" height="1" fill="#c85c54"/>
<rect x="30" y="28" width="1" height="1" fill="#ef6654"/>
<rect x="28" y="28" width="1" height="1" fill="#c85c54"/>
<rect x="21" y="28" width="2" height="1" fill="#c25356"/>
<rect x="16" y="28" width="2" height="1" fill="#797778"/>
<rect x="7" y="28" width="1" height="1" fill="#af8b86"/>
<rect x="0" y="28" width="2" height="1" fill="#b34e51"/>
<rect x="24" y="28" width="1" height="1" fill="#f36552"/>
<rect x="25" y="28" width="1" height="1" fill="#ef6654"/>
<rect x="20" y="28" width="1" height="1" fill="#a59896"/>
<rect x="5" y="28" width="1" height="1" fill="#c85c54"/>
<rect x="29" y="28" width="1" height="1" fill="#dc6455"/>
<rect x="8" y="28" width="3" height="1" fill="#9e9f9f"/>
<rect x="6" y="28" width="1" height="1" fill="#e25b52"/>
<rect x="18" y="28" width="1" height="1" fill="#8d8b8b"/>
<rect x="14" y="26" width="1" height="4" fill="#f36552"/>
<rect x="11" y="27" width="1" height="3" fill="#aa655f"/>
<rect x="13" y="28" width="1" height="2" fill="#c85c54"/>
<rect x="29" y="29" width="1" height="1" fill="#797778"/>
<rect x="15" y="29" width="1" height="1" fill="#ef6654"/>
<rect x="24" y="29" width="2" height="1" fill="#f36552"/>
<rect x="22" y="29" width="2" height="1" fill="#c25356"/>
<rect x="28" y="29" width="1" height="1" fill="#707272"/>
<rect x="21" y="29" width="1" height="1" fill="#ae5655"/>
<rect x="5" y="29" width="2" height="1" fill="#b34e51"/>
<rect x="8" y="29" width="1" height="1" fill="#b77169"/>
<rect x="0" y="29" width="1" height="1" fill="#dc6455"/>
<rect x="3" y="29" width="2" height="1" fill="#9d5851"/>
<rect x="10" y="29" width="1" height="1" fill="#a59896"/>
<rect x="31" y="29" width="1" height="1" fill="#af8b86"/>
<rect x="9" y="29" width="1" height="1" fill="#af8b86"/>
<rect x="7" y="29" width="1" height="1" fill="#c25356"/>
<rect x="19" y="29" width="2" height="1" fill="#9e9f9f"/>
<rect x="26" y="29" width="1" height="1" fill="#dc6455"/>
<rect x="17" y="29" width="2" height="1" fill="#99999a"/>
<rect x="30" y="29" width="1" height="1" fill="#a59896"/>
<rect x="1" y="29" width="1" height="1" fill="#c85c54"/>
<rect x="16" y="29" width="1" height="2" fill="#a59896"/>
<rect x="27" y="29" width="1" height="2" fill="#737070"/>
<rect x="5" y="30" width="1" height="1" fill="#ae5655"/>
<rect x="0" y="30" width="1" height="1" fill="#c24d4b"/>
<rect x="24" y="30" width="1" height="1" fill="#f06351"/>
<rect x="2" y="30" width="1" height="1" fill="#c24d4b"/>
<rect x="14" y="30" width="2" height="1" fill="#ef6654"/>
<rect x="10" y="30" width="1" height="1" fill="#9d5851"/>
<rect x="9" y="30" width="1" height="1" fill="#b34e51"/>
<rect x="6" y="30" width="2" height="1" fill="#b34e51"/>
<rect x="22" y="30" width="1" height="1" fill="#ac5b55"/>
<rect x="17" y="30" width="4" height="1" fill="#9e9f9f"/>
<rect x="4" y="30" width="1" height="1" fill="#aa655f"/>
<rect x="23" y="30" width="1" height="1" fill="#ae5655"/>
<rect x="3" y="30" width="1" height="1" fill="#c85c54"/>
<rect x="28" y="30" width="2" height="1" fill="#707272"/>
<rect x="8" y="30" width="1" height="1" fill="#c24d4b"/>
<rect x="1" y="30" width="1" height="1" fill="#e25b52"/>
<rect x="13" y="30" width="1" height="1" fill="#ac5b55"/>
<rect x="30" y="30" width="1" height="1" fill="#99999a"/>
<rect x="25" y="30" width="1" height="2" fill="#f36552"/>
<rect x="21" y="30" width="1" height="2" fill="#aa655f"/>
<rect x="26" y="30" width="1" height="2" fill="#ef6654"/>
<rect x="31" y="30" width="1" height="2" fill="#9e9f9f"/>
<rect x="6" y="31" width="1" height="1" fill="#dc6455"/>
<rect x="16" y="31" width="1" height="1" fill="#b77169"/>
<rect x="28" y="31" width="2" height="1" fill="#797778"/>
<rect x="15" y="31" width="1" height="1" fill="#c85c54"/>
<rect x="10" y="31" width="3" height="1" fill="#9d5851"/>
<rect x="18" y="31" width="1" height="1" fill="#a59896"/>
<rect x="7" y="31" width="1" height="1" fill="#c85c54"/>
<rect x="30" y="31" width="1" height="1" fill="#8d8b8b"/>
<rect x="4" y="31" width="2" height="1" fill="#b34e51"/>
<rect x="19" y="31" width="2" height="1" fill="#9e9f9f"/>
<rect x="24" y="31" width="1" height="1" fill="#dc6455"/>
<rect x="0" y="31" width="4" height="1" fill="#c24d4b"/>
<rect x="27" y="31" width="1" height="1" fill="#8d8b8b"/>
<rect x="9" y="31" width="1" height="1" fill="#ae5655"/>
<rect x="8" y="31" width="1" height="1" fill="#c25356"/>
<rect x="17" y="31" width="1" height="1" fill="#af8b86"/>
<rect x="14" y="31" width="1" height="1" fill="#c25356"/>
</svg>