<?xml version="1.0" encoding="UTF-8"?>
<svg xmlns="http://www.w3.org/2000/svg" width="20mm" height="20mm" viewBox="0 0 32 32" shape-rendering="crispEdges">
<title>040 右侧面 structured semantic redraw</title>
<metadata>registered 32-unit semantic vector redraw; no embedded raster; physical-size=20mm</metadata>
<rect x="0" y="0" width="32" height="32" fill="#653e3f"/>
<rect x="23" y="0" width="1" height="1" fill="#4f3b3c"/>
<rect x="21" y="0" width="1" height="1" fill="#4e3a3b"/>
<rect x="0" y="0" width="8" height="1" fill="#5d4645"/>
<rect x="10" y="0" width="9" height="1" fill="#443a3a"/>
<rect x="8" y="0" width="1" height="1" fill="#4e3c3c"/>
<rect x="22" y="0" width="1" height="1" fill="#523c3c"/>
<rect x="24" y="0" width="1" height="1" fill="#473b3b"/>
<rect x="19" y="0" width="1" height="1" fill="#473939"/>
<rect x="20" y="0" width="1" height="1" fill="#483a3a"/>
<rect x="9" y="0" width="1" height="1" fill="#473b3c"/>
<rect x="13" y="1" width="1" height="1" fill="#4e3a3b"/>
<rect x="12" y="1" width="1" height="1" fill="#4c3b3b"/>
<rect x="2" y="1" width="9" height="1" fill="#443a3a"/>
<rect x="16" y="1" width="3" height="1" fill="#5e3c3d"/>
<rect x="14" y="1" width="1" height="1" fill="#523c3c"/>
<rect x="28" y="1" width="1" height="1" fill="#673d3e"/>
<rect x="11" y="1" width="1" height="1" fill="#473939"/>
<rect x="15" y="1" width="1" height="1" fill="#583c3c"/>
<rect x="0" y="1" width="2" height="1" fill="#493c3c"/>
<rect x="24" y="1" width="1" height="1" fill="#483b3b"/>
<rect x="25" y="0" width="1" height="3" fill="#493b3b"/>
<rect x="27" y="1" width="1" height="2" fill="#693e3f"/>
<rect x="23" y="1" width="1" height="2" fill="#5e3d3e"/>
<rect x="0" y="2" width="2" height="1" fill="#443a3a"/>
<rect x="7" y="2" width="1" height="1" fill="#493b3b"/>
<rect x="28" y="2" width="1" height="1" fill="#5e3e3e"/>
<rect x="9" y="2" width="1" height="1" fill="#583c3c"/>
<rect x="3" y="2" width="1" height="1" fill="#493b3b"/>
<rect x="10" y="2" width="1" height="1" fill="#5e3c3d"/>
<rect x="13" y="2" width="4" height="1" fill="#693e3f"/>
<rect x="31" y="2" width="1" height="1" fill="#503c3c"/>
<rect x="4" y="2" width="1" height="1" fill="#4c3b3b"/>
<rect x="17" y="2" width="1" height="1" fill="#673d3e"/>
<rect x="6" y="2" width="1" height="1" fill="#553b3c"/>
<rect x="30" y="2" width="1" height="1" fill="#553c3c"/>
<rect x="11" y="2" width="2" height="1" fill="#673d3e"/>
<rect x="29" y="2" width="1" height="1" fill="#573c3c"/>
<rect x="24" y="2" width="1" height="1" fill="#473b3b"/>
<rect x="2" y="2" width="1" height="1" fill="#463a3a"/>
<rect x="5" y="2" width="1" height="1" fill="#4f3b3c"/>
<rect x="18" y="3" width="1" height="1" fill="#583c3c"/>
<rect x="20" y="3" width="2" height="1" fill="#553c3c"/>
<rect x="12" y="3" width="2" height="1" fill="#693e3f"/>
<rect x="0" y="3" width="1" height="1" fill="#583c3c"/>
<rect x="29" y="3" width="3" height="1" fill="#503c3c"/>
<rect x="11" y="3" width="1" height="1" fill="#673d3e"/>
<rect x="14" y="3" width="2" height="1" fill="#673d3e"/>
<rect x="17" y="3" width="1" height="1" fill="#5e3c3d"/>
<rect x="1" y="3" width="1" height="1" fill="#5e3c3d"/>
<rect x="7" y="3" width="1" height="1" fill="#523c3c"/>
<rect x="19" y="3" width="1" height="1" fill="#573c3c"/>
<rect x="5" y="3" width="1" height="1" fill="#673d3e"/>
<rect x="25" y="3" width="1" height="1" fill="#493c3c"/>
<rect x="9" y="3" width="1" height="1" fill="#5e3c3d"/>
<rect x="8" y="2" width="1" height="3" fill="#463a3a"/>
<rect x="4" y="3" width="1" height="2" fill="#693e3f"/>
<rect x="22" y="3" width="1" height="2" fill="#593d3d"/>
<rect x="3" y="3" width="1" height="2" fill="#673d3e"/>
<rect x="23" y="3" width="1" height="2" fill="#553c3c"/>
<rect x="28" y="3" width="1" height="2" fill="#553c3c"/>
<rect x="24" y="3" width="1" height="2" fill="#453b3b"/>
<rect x="31" y="4" width="1" height="1" fill="#4f3b3c"/>
<rect x="12" y="4" width="2" height="1" fill="#523c3c"/>
<rect x="14" y="4" width="1" height="1" fill="#4f3b3c"/>
<rect x="15" y="4" width="4" height="1" fill="#4e3a3b"/>
<rect x="19" y="4" width="1" height="1" fill="#4e3b3b"/>
<rect x="10" y="4" width="1" height="1" fill="#5e3c3d"/>
<rect x="21" y="4" width="1" height="1" fill="#523c3c"/>
<rect x="7" y="4" width="1" height="1" fill="#4f3b3c"/>
<rect x="11" y="4" width="1" height="1" fill="#573c3c"/>
<rect x="20" y="4" width="1" height="1" fill="#4e3b3c"/>
<rect x="29" y="4" width="2" height="1" fill="#503c3c"/>
<rect x="9" y="4" width="1" height="1" fill="#553b3c"/>
<rect x="2" y="5" width="1" height="1" fill="#503c3c"/>
<rect x="24" y="5" width="1" height="1" fill="#473b3c"/>
<rect x="10" y="5" width="1" height="1" fill="#583c3c"/>
<rect x="14" y="5" width="1" height="1" fill="#4e3b3b"/>
<rect x="11" y="5" width="1" height="1" fill="#523c3c"/>
<rect x="3" y="5" width="2" height="1" fill="#4f3b3c"/>
<rect x="23" y="5" width="1" height="1" fill="#4e3c3c"/>
<rect x="22" y="5" width="1" height="1" fill="#523c3c"/>
<rect x="1" y="5" width="1" height="1" fill="#553b3c"/>
<rect x="9" y="5" width="1" height="1" fill="#4f3b3c"/>
<rect x="21" y="5" width="1" height="1" fill="#503c3c"/>
<rect x="28" y="5" width="4" height="1" fill="#503c3c"/>
<rect x="26" y="5" width="2" height="1" fill="#523d3d"/>
<rect x="15" y="5" width="3" height="1" fill="#4e3a3b"/>
<rect x="19" y="5" width="1" height="1" fill="#503c3c"/>
<rect x="7" y="5" width="1" height="1" fill="#4c3b3b"/>
<rect x="0" y="5" width="1" height="1" fill="#593d3d"/>
<rect x="12" y="5" width="2" height="1" fill="#4e3a3b"/>
<rect x="25" y="4" width="1" height="3" fill="#483b3b"/>
<rect x="6" y="5" width="1" height="2" fill="#583c3c"/>
<rect x="8" y="5" width="1" height="2" fill="#443a3a"/>
<rect x="18" y="5" width="1" height="2" fill="#4e3b3b"/>
<rect x="5" y="5" width="1" height="2" fill="#523c3c"/>
<rect x="20" y="5" width="1" height="2" fill="#4e3b3b"/>
<rect x="7" y="6" width="1" height="1" fill="#4e3a3b"/>
<rect x="31" y="6" width="1" height="1" fill="#4e3b3b"/>
<rect x="12" y="6" width="1" height="1" fill="#4e3a3b"/>
<rect x="26" y="6" width="5" height="1" fill="#503c3c"/>
<rect x="22" y="6" width="3" height="1" fill="#493c3c"/>
<rect x="19" y="6" width="1" height="1" fill="#4e3b3c"/>
<rect x="10" y="6" width="1" height="1" fill="#553b3c"/>
<rect x="4" y="6" width="1" height="1" fill="#4e3a3b"/>
<rect x="11" y="6" width="1" height="1" fill="#4f3b3c"/>
<rect x="2" y="6" width="2" height="1" fill="#493b3b"/>
<rect x="9" y="6" width="1" height="1" fill="#4e3a3b"/>
<rect x="21" y="6" width="1" height="2" fill="#4e3c3c"/>
<rect x="17" y="6" width="1" height="2" fill="#4c3b3b"/>
<rect x="13" y="6" width="1" height="2" fill="#4c3b3b"/>
<rect x="0" y="6" width="1" height="2" fill="#523d3d"/>
<rect x="14" y="6" width="3" height="2" fill="#493b3b"/>
<rect x="31" y="7" width="1" height="1" fill="#453b3b"/>
<rect x="28" y="7" width="1" height="1" fill="#493c3c"/>
<rect x="4" y="7" width="2" height="1" fill="#4e3a3b"/>
<rect x="20" y="7" width="1" height="1" fill="#503c3c"/>
<rect x="30" y="7" width="1" height="1" fill="#493c3c"/>
<rect x="7" y="7" width="1" height="1" fill="#483a3a"/>
<rect x="8" y="7" width="1" height="1" fill="#473939"/>
<rect x="26" y="7" width="2" height="1" fill="#4e3c3c"/>
<rect x="3" y="7" width="1" height="1" fill="#523c3c"/>
<rect x="6" y="7" width="1" height="1" fill="#4c3b3b"/>
<rect x="29" y="7" width="1" height="1" fill="#493b3b"/>
<rect x="2" y="7" width="1" height="1" fill="#4f3b3c"/>
<rect x="18" y="7" width="2" height="1" fill="#4f3b3c"/>
<rect x="22" y="7" width="4" height="1" fill="#493c3c"/>
<rect x="1" y="6" width="1" height="3" fill="#4e3a3b"/>
<rect x="9" y="7" width="1" height="2" fill="#493b3b"/>
<rect x="10" y="7" width="3" height="2" fill="#4e3a3b"/>
<rect x="14" y="8" width="3" height="1" fill="#473b3b"/>
<rect x="2" y="8" width="2" height="1" fill="#573c3c"/>
<rect x="13" y="8" width="1" height="1" fill="#493b3b"/>
<rect x="22" y="8" width="1" height="1" fill="#493c3c"/>
<rect x="29" y="8" width="3" height="1" fill="#453b3b"/>
<rect x="5" y="8" width="1" height="1" fill="#4c3b3b"/>
<rect x="23" y="8" width="1" height="1" fill="#483b3b"/>
<rect x="4" y="8" width="1" height="1" fill="#4f3b3c"/>
<rect x="8" y="8" width="1" height="1" fill="#463a3a"/>
<rect x="20" y="8" width="2" height="1" fill="#473b3b"/>
<rect x="24" y="8" width="4" height="1" fill="#493c3c"/>
<rect x="17" y="8" width="3" height="1" fill="#483b3b"/>
<rect x="6" y="8" width="2" height="1" fill="#483a3a"/>
<rect x="28" y="8" width="1" height="1" fill="#473b3c"/>
<rect x="7" y="9" width="1" height="1" fill="#483a3a"/>
<rect x="6" y="9" width="1" height="1" fill="#473b3b"/>
<rect x="24" y="9" width="1" height="1" fill="#473b3c"/>
<rect x="30" y="9" width="2" height="1" fill="#4c3b3b"/>
<rect x="2" y="9" width="2" height="1" fill="#523c3c"/>
<rect x="8" y="9" width="2" height="1" fill="#463a3a"/>
<rect x="11" y="9" width="1" height="1" fill="#463a3a"/>
<rect x="23" y="9" width="1" height="1" fill="#493c3c"/>
<rect x="10" y="9" width="1" height="1" fill="#483a3a"/>
<rect x="25" y="9" width="5" height="1" fill="#493c3c"/>
<rect x="12" y="9" width="5" height="1" fill="#443a3a"/>
<rect x="4" y="9" width="2" height="1" fill="#493b3b"/>
<rect x="1" y="9" width="1" height="1" fill="#473939"/>
<rect x="17" y="9" width="5" height="1" fill="#453b3b"/>
<rect x="22" y="9" width="1" height="1" fill="#473b3c"/>
<rect x="1" y="10" width="2" height="1" fill="#443a3a"/>
<rect x="26" y="10" width="1" height="1" fill="#5e3e3e"/>
<rect x="21" y="10" width="1" height="1" fill="#553c3c"/>
<rect x="22" y="10" width="2" height="1" fill="#593d3d"/>
<rect x="19" y="10" width="1" height="1" fill="#523d3d"/>
<rect x="3" y="10" width="1" height="1" fill="#453b3b"/>
<rect x="5" y="10" width="9" height="1" fill="#463a3a"/>
<rect x="20" y="10" width="1" height="1" fill="#523c3c"/>
<rect x="24" y="10" width="1" height="1" fill="#553c3c"/>
<rect x="17" y="10" width="1" height="1" fill="#493b3b"/>
<rect x="25" y="10" width="1" height="1" fill="#573c3c"/>
<rect x="18" y="10" width="1" height="1" fill="#4e3c3c"/>
<rect x="14" y="10" width="3" height="1" fill="#453b3b"/>
<rect x="4" y="10" width="1" height="1" fill="#443a3a"/>
<rect x="31" y="10" width="1" height="1" fill="#593d3d"/>
<rect x="30" y="10" width="1" height="2" fill="#5e3d3e"/>
<rect x="17" y="11" width="1" height="1" fill="#553c3c"/>
<rect x="7" y="11" width="1" height="1" fill="#553b3c"/>
<rect x="14" y="11" width="1" height="1" fill="#573c3c"/>
<rect x="9" y="11" width="2" height="1" fill="#593d3d"/>
<rect x="1" y="11" width="1" height="1" fill="#443a3a"/>
<rect x="3" y="11" width="1" height="1" fill="#493b3b"/>
<rect x="12" y="11" width="2" height="1" fill="#553c3c"/>
<rect x="24" y="11" width="2" height="1" fill="#593d3d"/>
<rect x="4" y="11" width="1" height="1" fill="#4c3b3b"/>
<rect x="11" y="11" width="1" height="1" fill="#583c3c"/>
<rect x="2" y="11" width="1" height="1" fill="#473b3b"/>
<rect x="8" y="11" width="1" height="1" fill="#583c3c"/>
<rect x="6" y="11" width="1" height="1" fill="#523c3c"/>
<rect x="31" y="11" width="1" height="1" fill="#583c3c"/>
<rect x="5" y="11" width="1" height="1" fill="#4f3b3c"/>
<rect x="16" y="11" width="1" height="2" fill="#473b3b"/>
<rect x="15" y="11" width="1" height="2" fill="#503c3c"/>
<rect x="4" y="12" width="5" height="1" fill="#693e3f"/>
<rect x="31" y="12" width="1" height="1" fill="#4f3b3c"/>
<rect x="24" y="12" width="2" height="1" fill="#553c3c"/>
<rect x="23" y="12" width="1" height="1" fill="#5e3e3e"/>
<rect x="27" y="12" width="1" height="1" fill="#573c3c"/>
<rect x="28" y="12" width="2" height="1" fill="#553c3c"/>
<rect x="9" y="12" width="1" height="1" fill="#673d3e"/>
<rect x="30" y="12" width="1" height="1" fill="#523c3c"/>
<rect x="22" y="12" width="1" height="1" fill="#5e3d3e"/>
<rect x="2" y="12" width="1" height="1" fill="#583c3c"/>
<rect x="12" y="12" width="3" height="1" fill="#583c3c"/>
<rect x="26" y="12" width="1" height="1" fill="#593d3d"/>
<rect x="11" y="12" width="1" height="1" fill="#5e3c3d"/>
<rect x="0" y="8" width="1" height="6" fill="#5d4645"/>
<rect x="17" y="12" width="1" height="2" fill="#523c3c"/>
<rect x="16" y="13" width="1" height="1" fill="#443b3b"/>
<rect x="25" y="13" width="1" height="1" fill="#4e3c3c"/>
<rect x="31" y="13" width="1" height="1" fill="#4e3b3b"/>
<rect x="12" y="13" width="2" height="1" fill="#523c3c"/>
<rect x="26" y="13" width="1" height="1" fill="#503c3c"/>
<rect x="4" y="13" width="2" height="1" fill="#673d3e"/>
<rect x="30" y="13" width="1" height="1" fill="#503c3c"/>
<rect x="22" y="13" width="2" height="1" fill="#4e3c3c"/>
<rect x="2" y="13" width="1" height="1" fill="#553c3c"/>
<rect x="8" y="13" width="2" height="1" fill="#5e3d3e"/>
<rect x="11" y="13" width="1" height="1" fill="#583c3c"/>
<rect x="14" y="13" width="1" height="1" fill="#503c3c"/>
<rect x="10" y="13" width="1" height="1" fill="#593d3d"/>
<rect x="28" y="13" width="1" height="1" fill="#4e3b3c"/>
<rect x="29" y="13" width="1" height="1" fill="#4e3c3c"/>
<rect x="24" y="13" width="1" height="1" fill="#4e3b3c"/>
<rect x="27" y="13" width="1" height="1" fill="#4e3c3c"/>
<rect x="1" y="12" width="1" height="3" fill="#472f2f"/>
<rect x="21" y="13" width="1" height="2" fill="#553c3c"/>
<rect x="20" y="13" width="1" height="2" fill="#593d3d"/>
<rect x="15" y="13" width="1" height="2" fill="#4c3b3b"/>
<rect x="18" y="13" width="1" height="2" fill="#693e3f"/>
<rect x="25" y="14" width="2" height="1" fill="#503c3c"/>
<rect x="14" y="14" width="1" height="1" fill="#4f3b3c"/>
<rect x="17" y="14" width="1" height="1" fill="#503c3c"/>
<rect x="30" y="14" width="2" height="1" fill="#4c3b3b"/>
<rect x="24" y="14" width="1" height="1" fill="#4e3c3c"/>
<rect x="29" y="14" width="1" height="1" fill="#4f3b3c"/>
<rect x="8" y="14" width="6" height="1" fill="#4e3b3b"/>
<rect x="5" y="14" width="1" height="1" fill="#583c3c"/>
<rect x="7" y="14" width="1" height="1" fill="#4c3b3b"/>
<rect x="22" y="14" width="2" height="1" fill="#503c3c"/>
<rect x="27" y="14" width="1" height="1" fill="#4f3b3c"/>
<rect x="28" y="14" width="1" height="2" fill="#503c3c"/>
<rect x="2" y="14" width="1" height="2" fill="#523c3c"/>
<rect x="4" y="14" width="1" height="2" fill="#5e3d3e"/>
<rect x="0" y="14" width="1" height="2" fill="#523d3d"/>
<rect x="16" y="14" width="1" height="2" fill="#453b3b"/>
<rect x="12" y="15" width="1" height="1" fill="#4c3b3b"/>
<rect x="29" y="15" width="1" height="1" fill="#4e3b3c"/>
<rect x="5" y="15" width="1" height="1" fill="#573c3c"/>
<rect x="18" y="15" width="1" height="1" fill="#5e3e3e"/>
<rect x="15" y="15" width="1" height="1" fill="#493b3b"/>
<rect x="24" y="15" width="1" height="1" fill="#493c3c"/>
<rect x="17" y="15" width="1" height="1" fill="#4e3b3c"/>
<rect x="14" y="15" width="1" height="1" fill="#4c3b3b"/>
<rect x="13" y="15" width="1" height="1" fill="#4e3b3c"/>
<rect x="23" y="15" width="1" height="1" fill="#4e3b3b"/>
<rect x="20" y="15" width="2" height="1" fill="#503c3c"/>
<rect x="9" y="15" width="3" height="1" fill="#4e3b3b"/>
<rect x="22" y="15" width="1" height="1" fill="#4e3c3c"/>
<rect x="7" y="15" width="1" height="1" fill="#4e3b3b"/>
<rect x="19" y="15" width="1" height="1" fill="#593d3d"/>
<rect x="8" y="15" width="1" height="1" fill="#4f3b3c"/>
<rect x="6" y="14" width="1" height="3" fill="#4f3b3c"/>
<rect x="25" y="15" width="1" height="2" fill="#4c3b3b"/>
<rect x="1" y="15" width="1" height="2" fill="#443a3a"/>
<rect x="27" y="15" width="1" height="2" fill="#593d3d"/>
<rect x="31" y="15" width="1" height="2" fill="#493b3b"/>
<rect x="26" y="15" width="1" height="2" fill="#573c3c"/>
<rect x="30" y="15" width="1" height="2" fill="#4c3b3b"/>
<rect x="17" y="16" width="1" height="1" fill="#4c3b3b"/>
<rect x="24" y="16" width="1" height="1" fill="#493b3b"/>
<rect x="19" y="16" width="1" height="1" fill="#553c3c"/>
<rect x="14" y="16" width="2" height="1" fill="#493b3b"/>
<rect x="4" y="16" width="1" height="1" fill="#553c3c"/>
<rect x="0" y="16" width="1" height="1" fill="#4c3b3b"/>
<rect x="5" y="16" width="1" height="1" fill="#503c3c"/>
<rect x="12" y="16" width="1" height="1" fill="#493b3b"/>
<rect x="21" y="16" width="1" height="1" fill="#503c3c"/>
<rect x="28" y="16" width="1" height="1" fill="#4f3b3c"/>
<rect x="8" y="16" width="2" height="1" fill="#4e3b3b"/>
<rect x="13" y="16" width="1" height="1" fill="#493c3c"/>
<rect x="23" y="16" width="1" height="1" fill="#4e3b3c"/>
<rect x="18" y="16" width="1" height="1" fill="#593d3d"/>
<rect x="10" y="16" width="1" height="1" fill="#503c3c"/>
<rect x="11" y="16" width="1" height="1" fill="#4c3b3b"/>
<rect x="20" y="16" width="1" height="1" fill="#4e3b3c"/>
<rect x="7" y="16" width="1" height="1" fill="#4e3b3c"/>
<rect x="22" y="16" width="1" height="1" fill="#4e3b3b"/>
<rect x="29" y="16" width="1" height="1" fill="#4e3b3b"/>
<rect x="16" y="16" width="1" height="2" fill="#473b3b"/>
<rect x="3" y="16" width="1" height="2" fill="#593d3d"/>
<rect x="2" y="16" width="1" height="2" fill="#4c3b3b"/>
<rect x="4" y="17" width="1" height="1" fill="#523c3c"/>
<rect x="24" y="17" width="1" height="1" fill="#463a3a"/>
<rect x="25" y="17" width="1" height="1" fill="#453b3b"/>
<rect x="26" y="17" width="1" height="1" fill="#483b3b"/>
<rect x="27" y="17" width="1" height="1" fill="#473b3b"/>
<rect x="31" y="17" width="1" height="1" fill="#473b3b"/>
<rect x="13" y="17" width="2" height="1" fill="#493b3b"/>
<rect x="19" y="17" width="1" height="1" fill="#4e3c3c"/>
<rect x="12" y="17" width="1" height="1" fill="#483b3b"/>
<rect x="5" y="17" width="2" height="1" fill="#4e3c3c"/>
<rect x="7" y="17" width="2" height="1" fill="#4e3b3b"/>
<rect x="9" y="17" width="1" height="1" fill="#4e3c3c"/>
<rect x="1" y="17" width="1" height="1" fill="#483b3b"/>
<rect x="28" y="17" width="3" height="1" fill="#453b3b"/>
<rect x="17" y="17" width="1" height="1" fill="#493b3b"/>
<rect x="0" y="17" width="1" height="1" fill="#473939"/>
<rect x="18" y="17" width="1" height="1" fill="#503c3c"/>
<rect x="10" y="17" width="2" height="1" fill="#4c3b3b"/>
<rect x="22" y="17" width="2" height="1" fill="#483b3b"/>
<rect x="20" y="17" width="2" height="1" fill="#493b3b"/>
<rect x="15" y="17" width="1" height="1" fill="#493c3c"/>
<rect x="4" y="18" width="1" height="1" fill="#493b3b"/>
<rect x="13" y="18" width="1" height="1" fill="#453b3b"/>
<rect x="11" y="18" width="1" height="1" fill="#463a3a"/>
<rect x="12" y="18" width="1" height="1" fill="#443a3a"/>
<rect x="6" y="18" width="1" height="1" fill="#453b3b"/>
<rect x="16" y="18" width="1" height="1" fill="#473b3c"/>
<rect x="20" y="18" width="6" height="1" fill="#453b3b"/>
<rect x="5" y="18" width="1" height="1" fill="#463a3a"/>
<rect x="17" y="18" width="3" height="1" fill="#473b3b"/>
<rect x="9" y="18" width="1" height="1" fill="#453b3b"/>
<rect x="1" y="18" width="1" height="1" fill="#493c3c"/>
<rect x="31" y="18" width="1" height="1" fill="#483a3a"/>
<rect x="10" y="18" width="1" height="1" fill="#443a3a"/>
<rect x="27" y="18" width="4" height="1" fill="#453b3b"/>
<rect x="14" y="18" width="1" height="1" fill="#483b3b"/>
<rect x="15" y="18" width="1" height="1" fill="#473b3b"/>
<rect x="7" y="18" width="2" height="1" fill="#463a3a"/>
<rect x="26" y="18" width="1" height="1" fill="#443b3b"/>
<rect x="3" y="18" width="1" height="1" fill="#4c3b3b"/>
<rect x="2" y="18" width="1" height="2" fill="#473939"/>
<rect x="19" y="19" width="1" height="1" fill="#493b3b"/>
<rect x="31" y="19" width="1" height="1" fill="#553c3c"/>
<rect x="7" y="19" width="1" height="1" fill="#443a3a"/>
<rect x="28" y="19" width="1" height="1" fill="#483b3b"/>
<rect x="25" y="19" width="1" height="1" fill="#4e3c3c"/>
<rect x="16" y="19" width="2" height="1" fill="#493b3b"/>
<rect x="18" y="19" width="1" height="1" fill="#4c3b3b"/>
<rect x="8" y="19" width="1" height="1" fill="#463a3a"/>
<rect x="1" y="19" width="1" height="1" fill="#523d3d"/>
<rect x="5" y="19" width="2" height="1" fill="#453b3b"/>
<rect x="27" y="19" width="1" height="1" fill="#503c3c"/>
<rect x="21" y="19" width="1" height="1" fill="#483b3b"/>
<rect x="3" y="19" width="2" height="1" fill="#473b3b"/>
<rect x="15" y="19" width="1" height="1" fill="#4c3b3b"/>
<rect x="20" y="19" width="1" height="1" fill="#453b3b"/>
<rect x="26" y="19" width="1" height="1" fill="#4f3b3c"/>
<rect x="30" y="19" width="1" height="1" fill="#4f3b3c"/>
<rect x="24" y="19" width="1" height="1" fill="#4e3b3b"/>
<rect x="9" y="19" width="5" height="1" fill="#453b3b"/>
<rect x="29" y="19" width="1" height="1" fill="#453b3b"/>
<rect x="14" y="19" width="1" height="1" fill="#493b3b"/>
<rect x="22" y="19" width="2" height="1" fill="#523c3c"/>
<rect x="21" y="20" width="1" height="1" fill="#4e3c3c"/>
<rect x="24" y="20" width="4" height="1" fill="#583c3c"/>
<rect x="29" y="20" width="1" height="1" fill="#473b3b"/>
<rect x="3" y="20" width="1" height="1" fill="#523d3d"/>
<rect x="10" y="20" width="1" height="1" fill="#583c3c"/>
<rect x="13" y="20" width="1" height="1" fill="#4c3b3b"/>
<rect x="16" y="20" width="1" height="1" fill="#593d3d"/>
<rect x="28" y="20" width="1" height="1" fill="#4c3b3b"/>
<rect x="11" y="20" width="1" height="1" fill="#553c3c"/>
<rect x="18" y="20" width="1" height="1" fill="#593d3d"/>
<rect x="14" y="20" width="1" height="1" fill="#693e3f"/>
<rect x="2" y="20" width="1" height="1" fill="#4e3a3b"/>
<rect x="4" y="20" width="1" height="1" fill="#503c3c"/>
<rect x="20" y="20" width="1" height="1" fill="#473b3b"/>
<rect x="17" y="20" width="1" height="1" fill="#583c3c"/>
<rect x="5" y="20" width="1" height="1" fill="#453b3b"/>
<rect x="22" y="20" width="2" height="1" fill="#693e3f"/>
<rect x="15" y="20" width="1" height="1" fill="#673d3e"/>
<rect x="6" y="20" width="1" height="2" fill="#553c3c"/>
<rect x="12" y="20" width="1" height="2" fill="#483b3b"/>
<rect x="19" y="20" width="1" height="2" fill="#553c3c"/>
<rect x="20" y="21" width="1" height="1" fill="#463a3a"/>
<rect x="17" y="21" width="2" height="1" fill="#593d3d"/>
<rect x="21" y="21" width="1" height="1" fill="#4c3b3b"/>
<rect x="24" y="21" width="4" height="1" fill="#553c3c"/>
<rect x="28" y="21" width="1" height="1" fill="#493b3b"/>
<rect x="3" y="21" width="1" height="1" fill="#593d3d"/>
<rect x="22" y="21" width="1" height="1" fill="#673d3e"/>
<rect x="14" y="21" width="2" height="1" fill="#693e3f"/>
<rect x="4" y="21" width="1" height="1" fill="#553c3c"/>
<rect x="5" y="21" width="1" height="1" fill="#473b3c"/>
<rect x="7" y="21" width="3" height="1" fill="#693e3f"/>
<rect x="10" y="21" width="1" height="1" fill="#593d3d"/>
<rect x="13" y="21" width="1" height="1" fill="#493b3b"/>
<rect x="16" y="21" width="1" height="1" fill="#583c3c"/>
<rect x="29" y="21" width="1" height="1" fill="#453b3b"/>
<rect x="11" y="21" width="1" height="1" fill="#573c3c"/>
<rect x="2" y="21" width="1" height="1" fill="#553b3c"/>
<rect x="26" y="22" width="1" height="1" fill="#4e3a3b"/>
<rect x="16" y="22" width="3" height="1" fill="#4f3b3c"/>
<rect x="27" y="22" width="1" height="1" fill="#4e3b3b"/>
<rect x="24" y="22" width="2" height="1" fill="#4e3b3b"/>
<rect x="29" y="22" width="1" height="1" fill="#443a3a"/>
<rect x="14" y="22" width="2" height="1" fill="#673d3e"/>
<rect x="3" y="22" width="1" height="1" fill="#523c3c"/>
<rect x="4" y="22" width="1" height="1" fill="#4f3b3c"/>
<rect x="6" y="22" width="1" height="1" fill="#4e3b3c"/>
<rect x="19" y="22" width="1" height="1" fill="#4c3b3b"/>
<rect x="28" y="22" width="1" height="1" fill="#453b3b"/>
<rect x="13" y="22" width="1" height="1" fill="#483b3b"/>
<rect x="7" y="22" width="1" height="1" fill="#5e3d3e"/>
<rect x="8" y="22" width="1" height="1" fill="#583c3c"/>
<rect x="2" y="22" width="1" height="1" fill="#4e3a3b"/>
<rect x="10" y="22" width="1" height="1" fill="#523c3c"/>
<rect x="9" y="22" width="1" height="1" fill="#553b3c"/>
<rect x="12" y="22" width="1" height="2" fill="#463a3a"/>
<rect x="21" y="22" width="1" height="2" fill="#473b3b"/>
<rect x="23" y="22" width="1" height="2" fill="#553c3c"/>
<rect x="5" y="22" width="1" height="2" fill="#453b3b"/>
<rect x="11" y="22" width="1" height="2" fill="#4f3b3c"/>
<rect x="22" y="22" width="1" height="2" fill="#573c3c"/>
<rect x="20" y="22" width="1" height="2" fill="#443a3a"/>
<rect x="24" y="23" width="1" height="1" fill="#4e3a3b"/>
<rect x="9" y="23" width="2" height="1" fill="#4e3b3b"/>
<rect x="28" y="23" width="2" height="1" fill="#453b3b"/>
<rect x="15" y="23" width="1" height="1" fill="#693e3f"/>
<rect x="7" y="23" width="1" height="1" fill="#593d3d"/>
<rect x="27" y="23" width="1" height="1" fill="#4e3a3b"/>
<rect x="19" y="23" width="1" height="1" fill="#4e3c3c"/>
<rect x="16" y="23" width="1" height="1" fill="#503c3c"/>
<rect x="6" y="23" width="1" height="1" fill="#4c3b3b"/>
<rect x="4" y="23" width="1" height="1" fill="#4c3b3b"/>
<rect x="17" y="23" width="2" height="1" fill="#4f3b3c"/>
<rect x="3" y="23" width="1" height="1" fill="#4e3c3c"/>
<rect x="25" y="23" width="2" height="1" fill="#4e3b3b"/>
<rect x="13" y="23" width="1" height="2" fill="#473b3b"/>
<rect x="8" y="23" width="1" height="2" fill="#523c3c"/>
<rect x="2" y="23" width="1" height="2" fill="#473939"/>
<rect x="17" y="24" width="1" height="1" fill="#4e3c3c"/>
<rect x="19" y="24" width="1" height="1" fill="#493b3b"/>
<rect x="3" y="24" width="1" height="1" fill="#4e3b3c"/>
<rect x="28" y="24" width="1" height="1" fill="#483a3a"/>
<rect x="14" y="24" width="2" height="1" fill="#593d3d"/>
<rect x="5" y="24" width="1" height="1" fill="#473b3b"/>
<rect x="22" y="24" width="2" height="1" fill="#4f3b3c"/>
<rect x="24" y="24" width="4" height="1" fill="#4e3b3b"/>
<rect x="12" y="24" width="1" height="1" fill="#483b3b"/>
<rect x="18" y="24" width="1" height="1" fill="#4c3b3b"/>
<rect x="9" y="24" width="3" height="1" fill="#4e3b3b"/>
<rect x="20" y="24" width="1" height="1" fill="#473b3b"/>
<rect x="16" y="24" width="1" height="1" fill="#4f3b3c"/>
<rect x="1" y="20" width="1" height="6" fill="#5d4645"/>
<rect x="30" y="20" width="1" height="6" fill="#523c3c"/>
<rect x="31" y="20" width="1" height="6" fill="#593d3d"/>
<rect x="29" y="24" width="1" height="2" fill="#473b3b"/>
<rect x="4" y="24" width="1" height="2" fill="#4e3b3b"/>
<rect x="7" y="24" width="1" height="2" fill="#583c3c"/>
<rect x="21" y="24" width="1" height="2" fill="#483a3a"/>
<rect x="6" y="24" width="1" height="2" fill="#493b3b"/>
<rect x="28" y="25" width="1" height="1" fill="#483b3b"/>
<rect x="20" y="25" width="1" height="1" fill="#483b3b"/>
<rect x="17" y="25" width="1" height="1" fill="#4e3b3b"/>
<rect x="12" y="25" width="2" height="1" fill="#483a3a"/>
<rect x="2" y="25" width="1" height="1" fill="#472f2f"/>
<rect x="14" y="25" width="1" height="1" fill="#553c3c"/>
<rect x="18" y="25" width="2" height="1" fill="#493b3b"/>
<rect x="9" y="25" width="2" height="1" fill="#4e3a3b"/>
<rect x="8" y="25" width="1" height="1" fill="#553b3c"/>
<rect x="16" y="25" width="1" height="1" fill="#503c3c"/>
<rect x="15" y="25" width="1" height="1" fill="#593d3d"/>
<rect x="5" y="25" width="1" height="1" fill="#483a3a"/>
<rect x="22" y="25" width="6" height="1" fill="#4e3b3b"/>
<rect x="11" y="25" width="1" height="1" fill="#4e3b3b"/>
<rect x="3" y="25" width="1" height="1" fill="#4c3b3b"/>
<rect x="23" y="26" width="1" height="1" fill="#483a3a"/>
<rect x="4" y="26" width="1" height="1" fill="#493b3b"/>
<rect x="29" y="26" width="3" height="1" fill="#493c3c"/>
<rect x="20" y="26" width="1" height="1" fill="#483a3a"/>
<rect x="5" y="26" width="1" height="1" fill="#473b3b"/>
<rect x="22" y="26" width="1" height="1" fill="#483b3b"/>
<rect x="26" y="26" width="1" height="1" fill="#483a3a"/>
<rect x="21" y="26" width="1" height="1" fill="#473b3b"/>
<rect x="25" y="26" width="1" height="1" fill="#473b3b"/>
<rect x="3" y="26" width="1" height="1" fill="#483a3a"/>
<rect x="11" y="26" width="1" height="1" fill="#493b3b"/>
<rect x="13" y="26" width="1" height="1" fill="#473b3b"/>
<rect x="1" y="26" width="1" height="1" fill="#523d3d"/>
<rect x="27" y="26" width="1" height="1" fill="#483b3b"/>
<rect x="7" y="26" width="2" height="1" fill="#4c3b3b"/>
<rect x="9" y="26" width="2" height="1" fill="#483a3a"/>
<rect x="28" y="26" width="1" height="1" fill="#473b3b"/>
<rect x="6" y="26" width="1" height="1" fill="#483a3a"/>
<rect x="14" y="26" width="2" height="1" fill="#4c3b3b"/>
<rect x="16" y="26" width="4" height="1" fill="#483b3b"/>
<rect x="24" y="26" width="1" height="2" fill="#463a3a"/>
<rect x="12" y="26" width="1" height="2" fill="#483a3a"/>
<rect x="2" y="26" width="1" height="2" fill="#443a3a"/>
<rect x="14" y="27" width="2" height="1" fill="#473b3b"/>
<rect x="18" y="27" width="4" height="1" fill="#473b3b"/>
<rect x="1" y="27" width="1" height="1" fill="#4e3c3c"/>
<rect x="10" y="27" width="2" height="1" fill="#463a3a"/>
<rect x="13" y="27" width="1" height="1" fill="#463a3a"/>
<rect x="9" y="27" width="1" height="1" fill="#443a3a"/>
<rect x="23" y="27" width="1" height="1" fill="#473b3b"/>
<rect x="16" y="27" width="1" height="1" fill="#453b3b"/>
<rect x="26" y="27" width="5" height="1" fill="#473b3b"/>
<rect x="25" y="27" width="1" height="1" fill="#443a3a"/>
<rect x="17" y="27" width="1" height="1" fill="#463a3a"/>
<rect x="22" y="27" width="1" height="1" fill="#473b3a"/>
<rect x="31" y="27" width="1" height="1" fill="#493c3c"/>
<rect x="3" y="27" width="6" height="1" fill="#463a3a"/>
<rect x="8" y="28" width="1" height="1" fill="#4e3b3c"/>
<rect x="3" y="28" width="1" height="1" fill="#553b3c"/>
<rect x="6" y="28" width="2" height="1" fill="#523c3c"/>
<rect x="20" y="28" width="3" height="1" fill="#523c3c"/>
<rect x="12" y="28" width="1" height="1" fill="#593d3d"/>
<rect x="11" y="28" width="1" height="1" fill="#523c3c"/>
<rect x="5" y="28" width="1" height="1" fill="#553b3c"/>
<rect x="13" y="28" width="1" height="1" fill="#5e3c3d"/>
<rect x="28" y="28" width="1" height="1" fill="#5e3e3e"/>
<rect x="30" y="28" width="2" height="1" fill="#553c3c"/>
<rect x="10" y="28" width="1" height="1" fill="#4c3b3b"/>
<rect x="26" y="28" width="2" height="1" fill="#5e3d3e"/>
<rect x="1" y="28" width="1" height="1" fill="#593d3d"/>
<rect x="25" y="28" width="1" height="1" fill="#483b3b"/>
<rect x="4" y="28" width="1" height="1" fill="#5e3c3d"/>
<rect x="2" y="28" width="1" height="1" fill="#4e3a3b"/>
<rect x="14" y="28" width="6" height="1" fill="#5e3d3e"/>
<rect x="23" y="28" width="1" height="1" fill="#503c3c"/>
<rect x="29" y="28" width="1" height="1" fill="#5e3d3e"/>
<rect x="24" y="28" width="1" height="1" fill="#473b3b"/>
<rect x="0" y="18" width="1" height="12" fill="#472f2f"/>
<rect x="3" y="29" width="1" height="1" fill="#5e3c3d"/>
<rect x="4" y="29" width="1" height="1" fill="#693e3f"/>
<rect x="13" y="29" width="7" height="1" fill="#693e3f"/>
<rect x="24" y="29" width="1" height="1" fill="#483b3b"/>
<rect x="5" y="29" width="1" height="1" fill="#5e3c3d"/>
<rect x="6" y="29" width="1" height="1" fill="#573c3c"/>
<rect x="1" y="29" width="2" height="1" fill="#583c3c"/>
<rect x="8" y="29" width="1" height="1" fill="#553b3c"/>
<rect x="23" y="29" width="1" height="1" fill="#573c3c"/>
<rect x="7" y="29" width="1" height="1" fill="#583c3c"/>
<rect x="10" y="29" width="1" height="1" fill="#4e3a3b"/>
<rect x="11" y="29" width="1" height="1" fill="#583c3c"/>
<rect x="20" y="29" width="2" height="1" fill="#593d3d"/>
<rect x="22" y="29" width="1" height="1" fill="#583c3c"/>
<rect x="25" y="29" width="1" height="1" fill="#493b3b"/>
<rect x="27" y="29" width="3" height="1" fill="#693e3f"/>
<rect x="31" y="29" width="1" height="1" fill="#5e3e3e"/>
<rect x="30" y="29" width="1" height="1" fill="#5e3d3e"/>
<rect x="9" y="28" width="1" height="3" fill="#463a3a"/>
<rect x="5" y="30" width="2" height="1" fill="#523c3c"/>
<rect x="20" y="30" width="1" height="1" fill="#593d3d"/>
<rect x="26" y="30" width="1" height="1" fill="#593d3d"/>
<rect x="27" y="30" width="3" height="1" fill="#5e3d3e"/>
<rect x="24" y="30" width="2" height="1" fill="#473b3b"/>
<rect x="8" y="30" width="1" height="1" fill="#4e3a3b"/>
<rect x="3" y="30" width="1" height="1" fill="#523c3c"/>
<rect x="10" y="30" width="1" height="1" fill="#4c3b3b"/>
<rect x="4" y="30" width="1" height="1" fill="#573c3c"/>
<rect x="31" y="30" width="1" height="1" fill="#593d3d"/>
<rect x="18" y="30" width="2" height="1" fill="#5e3d3e"/>
<rect x="7" y="30" width="1" height="1" fill="#4f3b3c"/>
<rect x="30" y="30" width="1" height="1" fill="#553c3c"/>
<rect x="12" y="30" width="1" height="1" fill="#583c3c"/>
<rect x="13" y="30" width="5" height="1" fill="#593d3d"/>
<rect x="22" y="30" width="2" height="1" fill="#523c3c"/>
<rect x="21" y="30" width="1" height="2" fill="#573c3c"/>
<rect x="11" y="30" width="1" height="2" fill="#593d3d"/>
<rect x="0" y="30" width="2" height="2" fill="#472f2f"/>
<rect x="2" y="30" width="1" height="2" fill="#523d3d"/>
<rect x="5" y="31" width="4" height="1" fill="#4e3a3b"/>
<rect x="15" y="31" width="3" height="1" fill="#503c3c"/>
<rect x="24" y="31" width="2" height="1" fill="#453b3b"/>
<rect x="3" y="31" width="1" height="1" fill="#4e3a3b"/>
<rect x="14" y="31" width="1" height="1" fill="#4f3b3c"/>
<rect x="13" y="31" width="1" height="1" fill="#4e3b3b"/>
<rect x="30" y="31" width="1" height="1" fill="#503c3c"/>
<rect x="28" y="31" width="2" height="1" fill="#4e3b3c"/>
<rect x="23" y="31" width="1" height="1" fill="#4e3c3c"/>
<rect x="18" y="31" width="1" height="1" fill="#573c3c"/>
<rect x="19" y="31" width="2" height="1" fill="#593d3d"/>
<rect x="31" y="31" width="1" height="1" fill="#523d3d"/>
<rect x="4" y="31" width="1" height="1" fill="#4e3b3b"/>
<rect x="22" y="31" width="1" height="1" fill="#4f3b3c"/>
<rect x="12" y="31" width="1" height="1" fill="#553c3c"/>
<rect x="9" y="31" width="1" height="1" fill="#443a3a"/>
<rect x="26" y="31" width="1" height="1" fill="#4e3b3c"/>
<rect x="27" y="31" width="1" height="1" fill="#4f3b3c"/>
<rect x="10" y="31" width="1" height="1" fill="#493b3b"/>
</svg>