<?xml version="1.0" encoding="UTF-8"?>
<svg xmlns="http://www.w3.org/2000/svg" width="20mm" height="20mm" viewBox="0 0 32 32" shape-rendering="crispEdges">
<title>040 顶面 structured semantic redraw</title>
<metadata>registered 32-unit semantic vector redraw; no embedded raster; physical-size=20mm</metadata>
<rect x="0" y="0" width="32" height="32" fill="#6e4f4f"/>
<rect x="11" y="0" width="1" height="1" fill="#805152"/>
<rect x="24" y="0" width="1" height="1" fill="#835152"/>
<rect x="7" y="0" width="1" height="1" fill="#694f4f"/>
<rect x="25" y="0" width="1" height="1" fill="#765252"/>
<rect x="26" y="0" width="1" height="1" fill="#725050"/>
<rect x="20" y="0" width="1" height="1" fill="#654f4f"/>
<rect x="30" y="0" width="2" height="1" fill="#4f3d3d"/>
<rect x="10" y="0" width="1" height="1" fill="#7d5051"/>
<rect x="23" y="0" width="1" height="1" fill="#875253"/>
<rect x="12" y="0" width="2" height="1" fill="#875253"/>
<rect x="19" y="0" width="1" height="1" fill="#805152"/>
<rect x="1" y="0" width="1" height="1" fill="#5d4e4e"/>
<rect x="9" y="0" width="1" height="1" fill="#775051"/>
<rect x="21" y="0" width="1" height="1" fill="#5d4e4e"/>
<rect x="28" y="0" width="1" height="1" fill="#6a4e4f"/>
<rect x="6" y="0" width="1" height="1" fill="#5f4f4f"/>
<rect x="0" y="0" width="1" height="1" fill="#5f4f4f"/>
<rect x="14" y="0" width="5" height="1" fill="#835152"/>
<rect x="22" y="0" width="1" height="1" fill="#765252"/>
<rect x="2" y="0" width="4" height="1" fill="#5b4e4e"/>
<rect x="29" y="0" width="1" height="2" fill="#6c5252"/>
<rect x="28" y="1" width="1" height="1" fill="#654e4e"/>
<rect x="7" y="1" width="1" height="1" fill="#835152"/>
<rect x="12" y="1" width="1" height="1" fill="#835152"/>
<rect x="13" y="1" width="1" height="1" fill="#805152"/>
<rect x="16" y="1" width="1" height="1" fill="#725050"/>
<rect x="8" y="1" width="4" height="1" fill="#875253"/>
<rect x="30" y="1" width="1" height="1" fill="#594a4b"/>
<rect x="22" y="1" width="1" height="1" fill="#6c5252"/>
<rect x="1" y="1" width="1" height="1" fill="#725050"/>
<rect x="5" y="1" width="1" height="1" fill="#5e4e4e"/>
<rect x="25" y="1" width="3" height="1" fill="#664f4f"/>
<rect x="18" y="1" width="2" height="1" fill="#775051"/>
<rect x="2" y="1" width="3" height="1" fill="#7d5051"/>
<rect x="14" y="1" width="2" height="1" fill="#775051"/>
<rect x="23" y="1" width="1" height="1" fill="#835152"/>
<rect x="20" y="1" width="1" height="1" fill="#604e4e"/>
<rect x="24" y="1" width="1" height="1" fill="#805152"/>
<rect x="21" y="1" width="1" height="2" fill="#5b4e4e"/>
<rect x="3" y="2" width="1" height="1" fill="#805152"/>
<rect x="18" y="2" width="2" height="1" fill="#725050"/>
<rect x="11" y="2" width="1" height="1" fill="#694f4f"/>
<rect x="16" y="2" width="1" height="1" fill="#664e4e"/>
<rect x="22" y="2" width="1" height="1" fill="#664f4f"/>
<rect x="0" y="2" width="2" height="1" fill="#835152"/>
<rect x="10" y="2" width="1" height="1" fill="#6a4e4f"/>
<rect x="4" y="2" width="1" height="1" fill="#7d5051"/>
<rect x="23" y="2" width="1" height="1" fill="#7d5051"/>
<rect x="12" y="2" width="3" height="1" fill="#664f4f"/>
<rect x="2" y="2" width="1" height="1" fill="#875253"/>
<rect x="8" y="2" width="1" height="1" fill="#725050"/>
<rect x="30" y="2" width="1" height="1" fill="#5b4e4e"/>
<rect x="25" y="2" width="1" height="1" fill="#694f4f"/>
<rect x="6" y="2" width="1" height="1" fill="#694f4f"/>
<rect x="26" y="2" width="2" height="1" fill="#664f4f"/>
<rect x="17" y="2" width="1" height="1" fill="#664e4f"/>
<rect x="20" y="2" width="1" height="1" fill="#634e4e"/>
<rect x="24" y="2" width="1" height="1" fill="#775051"/>
<rect x="7" y="2" width="1" height="1" fill="#775051"/>
<rect x="15" y="2" width="1" height="1" fill="#654e4e"/>
<rect x="28" y="2" width="1" height="2" fill="#664e4f"/>
<rect x="29" y="2" width="1" height="2" fill="#644b4b"/>
<rect x="5" y="2" width="1" height="2" fill="#5b4e4e"/>
<rect x="15" y="3" width="1" height="1" fill="#654f4f"/>
<rect x="23" y="3" width="1" height="1" fill="#664e4f"/>
<rect x="18" y="3" width="1" height="1" fill="#654e4f"/>
<rect x="20" y="3" width="1" height="1" fill="#5f4f4f"/>
<rect x="7" y="3" width="1" height="1" fill="#725050"/>
<rect x="30" y="3" width="1" height="1" fill="#5f4f4f"/>
<rect x="9" y="3" width="2" height="1" fill="#664f4f"/>
<rect x="22" y="3" width="1" height="1" fill="#5f4f4f"/>
<rect x="8" y="3" width="1" height="1" fill="#694f4f"/>
<rect x="19" y="3" width="1" height="1" fill="#634e4e"/>
<rect x="11" y="3" width="3" height="1" fill="#654f4f"/>
<rect x="14" y="3" width="1" height="1" fill="#664f4f"/>
<rect x="24" y="3" width="4" height="1" fill="#664f4f"/>
<rect x="0" y="3" width="1" height="1" fill="#664f4f"/>
<rect x="6" y="3" width="1" height="1" fill="#654f4f"/>
<rect x="4" y="3" width="1" height="1" fill="#725050"/>
<rect x="2" y="3" width="1" height="1" fill="#694f4f"/>
<rect x="21" y="3" width="1" height="2" fill="#5d4e4e"/>
<rect x="1" y="3" width="1" height="2" fill="#654f4f"/>
<rect x="16" y="3" width="2" height="2" fill="#664e4e"/>
<rect x="7" y="4" width="1" height="1" fill="#694f4f"/>
<rect x="15" y="4" width="1" height="1" fill="#664e4f"/>
<rect x="11" y="4" width="1" height="1" fill="#5f4f4f"/>
<rect x="20" y="4" width="1" height="1" fill="#5e4e4e"/>
<rect x="23" y="4" width="1" height="1" fill="#654e4f"/>
<rect x="22" y="4" width="1" height="1" fill="#5e4e4e"/>
<rect x="26" y="4" width="2" height="1" fill="#634e4e"/>
<rect x="0" y="4" width="1" height="1" fill="#634e4e"/>
<rect x="5" y="4" width="1" height="1" fill="#5d4e4e"/>
<rect x="24" y="4" width="2" height="1" fill="#654f4f"/>
<rect x="14" y="4" width="1" height="1" fill="#654e4e"/>
<rect x="3" y="4" width="2" height="1" fill="#694f4f"/>
<rect x="6" y="4" width="1" height="1" fill="#5f4f4f"/>
<rect x="12" y="4" width="2" height="1" fill="#604e4e"/>
<rect x="28" y="4" width="1" height="1" fill="#604e4e"/>
<rect x="8" y="4" width="2" height="1" fill="#664f4f"/>
<rect x="18" y="4" width="2" height="1" fill="#604e4e"/>
<rect x="10" y="4" width="1" height="2" fill="#604e4e"/>
<rect x="2" y="4" width="1" height="2" fill="#664f4f"/>
<rect x="19" y="5" width="1" height="1" fill="#5d4d4d"/>
<rect x="20" y="5" width="1" height="1" fill="#5d4e4e"/>
<rect x="7" y="5" width="3" height="1" fill="#664f4f"/>
<rect x="24" y="5" width="1" height="1" fill="#5d4d4d"/>
<rect x="21" y="5" width="1" height="1" fill="#5c4d4d"/>
<rect x="14" y="5" width="3" height="1" fill="#604e4e"/>
<rect x="25" y="5" width="4" height="1" fill="#5b4e4e"/>
<rect x="17" y="5" width="1" height="1" fill="#5e4e4e"/>
<rect x="18" y="5" width="1" height="1" fill="#5d4e4e"/>
<rect x="11" y="5" width="2" height="1" fill="#5f4f4f"/>
<rect x="13" y="5" width="1" height="1" fill="#5e4e4e"/>
<rect x="0" y="5" width="1" height="1" fill="#725050"/>
<rect x="22" y="5" width="2" height="1" fill="#5d4e4e"/>
<rect x="3" y="5" width="1" height="1" fill="#634e4e"/>
<rect x="4" y="5" width="3" height="1" fill="#5f4f4f"/>
<rect x="30" y="4" width="1" height="3" fill="#625655"/>
<rect x="29" y="4" width="1" height="3" fill="#594a4b"/>
<rect x="26" y="6" width="1" height="1" fill="#5d4e4e"/>
<rect x="8" y="6" width="1" height="1" fill="#5d4e4e"/>
<rect x="18" y="6" width="2" height="1" fill="#5a4d4d"/>
<rect x="2" y="6" width="6" height="1" fill="#5f4f4f"/>
<rect x="13" y="6" width="2" height="1" fill="#5a4d4d"/>
<rect x="20" y="6" width="2" height="1" fill="#5c4d4d"/>
<rect x="0" y="6" width="1" height="1" fill="#694f4f"/>
<rect x="23" y="6" width="1" height="1" fill="#5c4d4d"/>
<rect x="28" y="6" width="1" height="1" fill="#5d4e4e"/>
<rect x="15" y="6" width="3" height="1" fill="#594d4d"/>
<rect x="27" y="6" width="1" height="1" fill="#5e4e4e"/>
<rect x="24" y="6" width="2" height="1" fill="#5d4d4d"/>
<rect x="9" y="6" width="4" height="1" fill="#5b4e4e"/>
<rect x="22" y="6" width="1" height="1" fill="#5d4d4d"/>
<rect x="1" y="6" width="1" height="1" fill="#664f4f"/>
<rect x="18" y="7" width="3" height="1" fill="#724f4f"/>
<rect x="10" y="7" width="1" height="1" fill="#5e4e4e"/>
<rect x="27" y="7" width="1" height="1" fill="#805152"/>
<rect x="0" y="7" width="2" height="1" fill="#594d4d"/>
<rect x="14" y="7" width="1" height="1" fill="#654f4f"/>
<rect x="11" y="7" width="1" height="1" fill="#5f4f4f"/>
<rect x="12" y="7" width="2" height="1" fill="#5b4e4e"/>
<rect x="9" y="7" width="1" height="1" fill="#5d4e4e"/>
<rect x="2" y="7" width="1" height="1" fill="#5b4e4e"/>
<rect x="24" y="7" width="3" height="1" fill="#7d5051"/>
<rect x="28" y="7" width="1" height="1" fill="#725050"/>
<rect x="3" y="7" width="2" height="1" fill="#5d4e4e"/>
<rect x="21" y="7" width="1" height="1" fill="#6a4e4f"/>
<rect x="15" y="7" width="1" height="1" fill="#694f4f"/>
<rect x="5" y="7" width="4" height="1" fill="#5f4f4f"/>
<rect x="23" y="7" width="1" height="1" fill="#775051"/>
<rect x="31" y="1" width="1" height="8" fill="#4f3d3d"/>
<rect x="30" y="7" width="1" height="2" fill="#765252"/>
<rect x="18" y="8" width="2" height="1" fill="#835152"/>
<rect x="9" y="8" width="3" height="1" fill="#725050"/>
<rect x="24" y="8" width="1" height="1" fill="#835152"/>
<rect x="1" y="8" width="1" height="1" fill="#775051"/>
<rect x="5" y="8" width="2" height="1" fill="#835152"/>
<rect x="14" y="8" width="1" height="1" fill="#775051"/>
<rect x="15" y="8" width="2" height="1" fill="#835152"/>
<rect x="17" y="8" width="1" height="1" fill="#805152"/>
<rect x="21" y="8" width="2" height="1" fill="#724f4f"/>
<rect x="2" y="8" width="1" height="1" fill="#7d5051"/>
<rect x="25" y="8" width="3" height="1" fill="#805152"/>
<rect x="3" y="8" width="2" height="1" fill="#805152"/>
<rect x="28" y="8" width="1" height="1" fill="#775051"/>
<rect x="23" y="8" width="1" height="1" fill="#805152"/>
<rect x="13" y="8" width="1" height="1" fill="#5d4e4e"/>
<rect x="12" y="8" width="1" height="1" fill="#654e4f"/>
<rect x="20" y="8" width="1" height="1" fill="#805152"/>
<rect x="7" y="8" width="1" height="1" fill="#805152"/>
<rect x="8" y="8" width="1" height="2" fill="#775051"/>
<rect x="12" y="9" width="1" height="1" fill="#634e4e"/>
<rect x="2" y="9" width="4" height="1" fill="#875253"/>
<rect x="28" y="9" width="1" height="1" fill="#694f4f"/>
<rect x="27" y="9" width="1" height="1" fill="#6a4e4f"/>
<rect x="21" y="9" width="1" height="1" fill="#6a4e4f"/>
<rect x="16" y="9" width="1" height="1" fill="#805152"/>
<rect x="22" y="9" width="1" height="1" fill="#694f4f"/>
<rect x="0" y="9" width="1" height="1" fill="#7d5051"/>
<rect x="30" y="9" width="1" height="1" fill="#6c5252"/>
<rect x="19" y="9" width="2" height="1" fill="#724f4f"/>
<rect x="1" y="9" width="1" height="1" fill="#835152"/>
<rect x="29" y="9" width="1" height="1" fill="#664d4e"/>
<rect x="7" y="9" width="1" height="1" fill="#7d5051"/>
<rect x="6" y="9" width="1" height="1" fill="#835152"/>
<rect x="17" y="9" width="2" height="1" fill="#775051"/>
<rect x="14" y="9" width="1" height="1" fill="#724f4f"/>
<rect x="31" y="9" width="1" height="1" fill="#594a4b"/>
<rect x="15" y="9" width="1" height="1" fill="#835152"/>
<rect x="13" y="9" width="1" height="1" fill="#5b4e4e"/>
<rect x="10" y="10" width="1" height="1" fill="#664e4f"/>
<rect x="11" y="10" width="1" height="1" fill="#664f4f"/>
<rect x="6" y="10" width="4" height="1" fill="#664f4f"/>
<rect x="30" y="10" width="1" height="1" fill="#644b4b"/>
<rect x="4" y="10" width="2" height="1" fill="#694f4f"/>
<rect x="13" y="10" width="1" height="1" fill="#5a4d4d"/>
<rect x="19" y="10" width="2" height="1" fill="#654e4e"/>
<rect x="31" y="10" width="1" height="1" fill="#594d4d"/>
<rect x="15" y="10" width="1" height="1" fill="#875253"/>
<rect x="27" y="10" width="1" height="1" fill="#654e4e"/>
<rect x="17" y="10" width="1" height="1" fill="#725050"/>
<rect x="22" y="10" width="1" height="1" fill="#664e4f"/>
<rect x="24" y="10" width="2" height="1" fill="#654e4e"/>
<rect x="26" y="10" width="1" height="1" fill="#664d4e"/>
<rect x="14" y="10" width="1" height="1" fill="#725050"/>
<rect x="16" y="10" width="1" height="1" fill="#7d5051"/>
<rect x="21" y="10" width="1" height="1" fill="#664d4e"/>
<rect x="28" y="10" width="2" height="1" fill="#664d4e"/>
<rect x="2" y="10" width="1" height="2" fill="#725050"/>
<rect x="1" y="10" width="1" height="2" fill="#7d5051"/>
<rect x="12" y="10" width="1" height="2" fill="#5f4f4f"/>
<rect x="0" y="10" width="1" height="2" fill="#775051"/>
<rect x="24" y="11" width="2" height="1" fill="#6a4e4f"/>
<rect x="9" y="11" width="1" height="1" fill="#654f4f"/>
<rect x="28" y="11" width="2" height="1" fill="#634e4e"/>
<rect x="3" y="11" width="1" height="1" fill="#694f4f"/>
<rect x="8" y="11" width="1" height="1" fill="#664f4f"/>
<rect x="30" y="11" width="1" height="1" fill="#5d4d4d"/>
<rect x="7" y="11" width="1" height="1" fill="#664e4f"/>
<rect x="31" y="11" width="1" height="1" fill="#5f4f4f"/>
<rect x="10" y="11" width="2" height="1" fill="#654e4f"/>
<rect x="6" y="11" width="1" height="1" fill="#664f4f"/>
<rect x="26" y="11" width="2" height="1" fill="#664e4e"/>
<rect x="5" y="11" width="1" height="1" fill="#664e4f"/>
<rect x="19" y="11" width="1" height="1" fill="#664f4f"/>
<rect x="21" y="11" width="2" height="1" fill="#634e4e"/>
<rect x="15" y="11" width="1" height="1" fill="#835152"/>
<rect x="13" y="11" width="1" height="1" fill="#5b4e4e"/>
<rect x="16" y="11" width="1" height="1" fill="#775051"/>
<rect x="23" y="10" width="1" height="3" fill="#664e4e"/>
<rect x="4" y="11" width="1" height="2" fill="#664e4e"/>
<rect x="20" y="11" width="1" height="2" fill="#664e4e"/>
<rect x="26" y="12" width="1" height="1" fill="#664e4e"/>
<rect x="8" y="12" width="1" height="1" fill="#634e4e"/>
<rect x="28" y="12" width="1" height="1" fill="#654f4f"/>
<rect x="7" y="12" width="1" height="1" fill="#654e4e"/>
<rect x="24" y="12" width="1" height="1" fill="#724f4f"/>
<rect x="18" y="12" width="2" height="1" fill="#664e4f"/>
<rect x="27" y="12" width="1" height="1" fill="#664f4f"/>
<rect x="5" y="12" width="1" height="1" fill="#664f4f"/>
<rect x="29" y="12" width="1" height="1" fill="#604d4e"/>
<rect x="6" y="12" width="1" height="1" fill="#664e4e"/>
<rect x="14" y="12" width="1" height="1" fill="#664f4f"/>
<rect x="17" y="12" width="1" height="1" fill="#654e4e"/>
<rect x="25" y="12" width="1" height="1" fill="#725050"/>
<rect x="2" y="12" width="2" height="1" fill="#654e4e"/>
<rect x="9" y="12" width="3" height="1" fill="#604e4e"/>
<rect x="15" y="12" width="1" height="1" fill="#725050"/>
<rect x="21" y="12" width="2" height="2" fill="#604e4e"/>
<rect x="12" y="12" width="1" height="2" fill="#5e4e4e"/>
<rect x="13" y="12" width="1" height="2" fill="#5d4e4e"/>
<rect x="23" y="13" width="1" height="1" fill="#654f4f"/>
<rect x="29" y="13" width="1" height="1" fill="#5e4e4e"/>
<rect x="17" y="13" width="4" height="1" fill="#634e4e"/>
<rect x="14" y="13" width="1" height="1" fill="#634e4e"/>
<rect x="26" y="13" width="1" height="1" fill="#664f4f"/>
<rect x="9" y="13" width="1" height="1" fill="#5f4f4f"/>
<rect x="2" y="13" width="7" height="1" fill="#634e4e"/>
<rect x="27" y="13" width="2" height="1" fill="#634e4e"/>
<rect x="10" y="13" width="2" height="1" fill="#604e4e"/>
<rect x="0" y="13" width="2" height="1" fill="#6a4e4f"/>
<rect x="0" y="14" width="2" height="1" fill="#5c4d4d"/>
<rect x="7" y="14" width="1" height="1" fill="#594d4d"/>
<rect x="11" y="14" width="2" height="1" fill="#5d4e4e"/>
<rect x="13" y="14" width="1" height="1" fill="#5d4d4d"/>
<rect x="17" y="14" width="1" height="1" fill="#5a4d4d"/>
<rect x="18" y="14" width="3" height="1" fill="#5b4e4e"/>
<rect x="21" y="14" width="2" height="1" fill="#594d4d"/>
<rect x="23" y="14" width="1" height="1" fill="#5b4e4e"/>
<rect x="28" y="14" width="2" height="1" fill="#5b4e4e"/>
<rect x="24" y="14" width="4" height="1" fill="#5a4d4d"/>
<rect x="2" y="14" width="4" height="1" fill="#594d4d"/>
<rect x="6" y="14" width="1" height="1" fill="#5a4d4d"/>
<rect x="8" y="14" width="3" height="1" fill="#5b4e4e"/>
<rect x="16" y="14" width="1" height="1" fill="#5b4e4e"/>
<rect x="14" y="14" width="2" height="1" fill="#5d4e4e"/>
<rect x="30" y="12" width="1" height="4" fill="#594a4b"/>
<rect x="31" y="12" width="1" height="4" fill="#625655"/>
<rect x="17" y="15" width="10" height="1" fill="#5a4d4d"/>
<rect x="29" y="15" width="1" height="1" fill="#5c4d4d"/>
<rect x="27" y="15" width="1" height="1" fill="#594d4d"/>
<rect x="3" y="15" width="1" height="1" fill="#604d4e"/>
<rect x="7" y="15" width="1" height="1" fill="#5e4e4e"/>
<rect x="14" y="15" width="2" height="1" fill="#5e4e4e"/>
<rect x="16" y="15" width="1" height="1" fill="#5d4e4e"/>
<rect x="0" y="15" width="1" height="1" fill="#634e4e"/>
<rect x="8" y="15" width="1" height="1" fill="#5d4d4d"/>
<rect x="1" y="15" width="1" height="1" fill="#604d4e"/>
<rect x="5" y="15" width="2" height="1" fill="#634e4e"/>
<rect x="28" y="15" width="1" height="1" fill="#5a4d4d"/>
<rect x="2" y="15" width="1" height="1" fill="#5a4d4d"/>
<rect x="9" y="15" width="1" height="1" fill="#5a4d4d"/>
<rect x="12" y="15" width="2" height="1" fill="#604e4e"/>
<rect x="11" y="15" width="1" height="1" fill="#634e4e"/>
<rect x="4" y="15" width="1" height="1" fill="#654e4e"/>
<rect x="10" y="15" width="1" height="1" fill="#5d4d4d"/>
<rect x="0" y="16" width="1" height="1" fill="#724f4f"/>
<rect x="18" y="16" width="1" height="1" fill="#5b4e4e"/>
<rect x="12" y="16" width="1" height="1" fill="#805152"/>
<rect x="21" y="16" width="1" height="1" fill="#775051"/>
<rect x="1" y="16" width="1" height="1" fill="#6a4e4f"/>
<rect x="25" y="16" width="1" height="1" fill="#6a4e4f"/>
<rect x="29" y="16" width="1" height="1" fill="#694f4f"/>
<rect x="7" y="16" width="1" height="1" fill="#724f4f"/>
<rect x="4" y="16" width="3" height="1" fill="#875253"/>
<rect x="27" y="16" width="2" height="1" fill="#5c4d4d"/>
<rect x="17" y="16" width="1" height="1" fill="#5d4e4e"/>
<rect x="30" y="16" width="1" height="1" fill="#664d4e"/>
<rect x="13" y="16" width="1" height="1" fill="#725050"/>
<rect x="31" y="16" width="1" height="1" fill="#6c5252"/>
<rect x="10" y="16" width="1" height="1" fill="#694f4f"/>
<rect x="26" y="16" width="1" height="1" fill="#634e4e"/>
<rect x="3" y="16" width="1" height="1" fill="#775051"/>
<rect x="20" y="16" width="1" height="1" fill="#805152"/>
<rect x="2" y="16" width="1" height="1" fill="#5c4d4d"/>
<rect x="9" y="16" width="1" height="1" fill="#5c4d4d"/>
<rect x="15" y="16" width="1" height="1" fill="#725050"/>
<rect x="19" y="16" width="1" height="2" fill="#7d5051"/>
<rect x="10" y="17" width="1" height="1" fill="#664e4f"/>
<rect x="8" y="17" width="1" height="1" fill="#6a4e4f"/>
<rect x="31" y="17" width="1" height="1" fill="#765252"/>
<rect x="21" y="17" width="1" height="1" fill="#7d5051"/>
<rect x="28" y="17" width="1" height="1" fill="#5d4e4e"/>
<rect x="26" y="17" width="1" height="1" fill="#694f4f"/>
<rect x="9" y="17" width="1" height="1" fill="#5d4d4d"/>
<rect x="12" y="17" width="1" height="1" fill="#835152"/>
<rect x="16" y="17" width="1" height="1" fill="#725050"/>
<rect x="0" y="17" width="1" height="1" fill="#6a4e4f"/>
<rect x="6" y="17" width="1" height="1" fill="#805152"/>
<rect x="5" y="17" width="1" height="1" fill="#7d5051"/>
<rect x="20" y="17" width="1" height="1" fill="#875253"/>
<rect x="4" y="17" width="1" height="1" fill="#805152"/>
<rect x="18" y="17" width="1" height="1" fill="#5c4d4d"/>
<rect x="17" y="17" width="1" height="1" fill="#5e4e4e"/>
<rect x="2" y="17" width="1" height="1" fill="#5a4d4d"/>
<rect x="13" y="17" width="3" height="1" fill="#724f4f"/>
<rect x="1" y="17" width="1" height="1" fill="#664d4e"/>
<rect x="22" y="17" width="4" height="1" fill="#724f4f"/>
<rect x="27" y="17" width="1" height="2" fill="#5c4d4d"/>
<rect x="3" y="18" width="1" height="1" fill="#664e4e"/>
<rect x="12" y="18" width="1" height="1" fill="#805152"/>
<rect x="20" y="18" width="2" height="1" fill="#775051"/>
<rect x="15" y="18" width="2" height="1" fill="#694f4f"/>
<rect x="0" y="18" width="1" height="1" fill="#664d4e"/>
<rect x="5" y="18" width="1" height="1" fill="#664e4e"/>
<rect x="26" y="18" width="1" height="1" fill="#664e4f"/>
<rect x="22" y="18" width="2" height="1" fill="#6a4e4f"/>
<rect x="10" y="18" width="1" height="1" fill="#634e4e"/>
<rect x="28" y="18" width="1" height="1" fill="#5a4d4d"/>
<rect x="2" y="18" width="1" height="1" fill="#594d4d"/>
<rect x="29" y="18" width="1" height="1" fill="#6a4e4f"/>
<rect x="13" y="18" width="2" height="1" fill="#664e4e"/>
<rect x="11" y="16" width="1" height="4" fill="#875253"/>
<rect x="18" y="18" width="1" height="2" fill="#5a4d4d"/>
<rect x="17" y="18" width="1" height="2" fill="#5b4e4e"/>
<rect x="9" y="18" width="1" height="2" fill="#594d4d"/>
<rect x="20" y="19" width="1" height="1" fill="#724f4f"/>
<rect x="12" y="19" width="1" height="1" fill="#835152"/>
<rect x="15" y="19" width="1" height="1" fill="#664d4e"/>
<rect x="16" y="19" width="1" height="1" fill="#654e4e"/>
<rect x="22" y="19" width="3" height="1" fill="#654e4e"/>
<rect x="29" y="19" width="1" height="1" fill="#664e4f"/>
<rect x="10" y="19" width="1" height="1" fill="#604e4e"/>
<rect x="3" y="19" width="1" height="1" fill="#664d4e"/>
<rect x="2" y="19" width="1" height="1" fill="#5a4d4d"/>
<rect x="19" y="19" width="1" height="1" fill="#694f4f"/>
<rect x="27" y="19" width="2" height="1" fill="#594d4d"/>
<rect x="25" y="19" width="1" height="1" fill="#664d4e"/>
<rect x="4" y="18" width="1" height="3" fill="#724f4f"/>
<rect x="1" y="18" width="1" height="3" fill="#634e4e"/>
<rect x="6" y="18" width="2" height="3" fill="#664d4e"/>
<rect x="13" y="19" width="2" height="2" fill="#654e4e"/>
<rect x="5" y="19" width="1" height="2" fill="#694f4f"/>
<rect x="26" y="19" width="1" height="2" fill="#634e4e"/>
<rect x="0" y="19" width="1" height="2" fill="#654e4e"/>
<rect x="16" y="20" width="1" height="1" fill="#634e4e"/>
<rect x="18" y="20" width="1" height="1" fill="#5b4e4e"/>
<rect x="3" y="20" width="1" height="1" fill="#664e4e"/>
<rect x="27" y="20" width="1" height="1" fill="#5a4d4d"/>
<rect x="29" y="20" width="1" height="1" fill="#654e4e"/>
<rect x="17" y="20" width="1" height="1" fill="#5c4d4d"/>
<rect x="12" y="20" width="1" height="1" fill="#724f4f"/>
<rect x="25" y="20" width="1" height="1" fill="#654e4e"/>
<rect x="10" y="20" width="1" height="1" fill="#604d4e"/>
<rect x="11" y="20" width="1" height="1" fill="#775051"/>
<rect x="19" y="20" width="1" height="1" fill="#654e4e"/>
<rect x="22" y="20" width="3" height="1" fill="#664d4e"/>
<rect x="28" y="20" width="1" height="1" fill="#594d4d"/>
<rect x="9" y="20" width="1" height="1" fill="#5c4d4d"/>
<rect x="15" y="20" width="1" height="1" fill="#604d4e"/>
<rect x="8" y="18" width="1" height="4" fill="#654e4e"/>
<rect x="2" y="20" width="1" height="2" fill="#5c4d4d"/>
<rect x="20" y="21" width="2" height="1" fill="#664d4e"/>
<rect x="23" y="21" width="1" height="1" fill="#664e4f"/>
<rect x="5" y="21" width="1" height="1" fill="#664e4e"/>
<rect x="24" y="21" width="2" height="1" fill="#664e4e"/>
<rect x="17" y="21" width="2" height="1" fill="#5d4d4d"/>
<rect x="22" y="21" width="1" height="1" fill="#654e4e"/>
<rect x="0" y="21" width="2" height="1" fill="#604d4e"/>
<rect x="4" y="21" width="1" height="1" fill="#6a4e4f"/>
<rect x="16" y="21" width="1" height="1" fill="#604d4e"/>
<rect x="27" y="21" width="2" height="1" fill="#5c4d4d"/>
<rect x="9" y="21" width="2" height="1" fill="#5d4d4d"/>
<rect x="15" y="21" width="1" height="1" fill="#604e4e"/>
<rect x="6" y="21" width="1" height="1" fill="#654e4e"/>
<rect x="7" y="21" width="1" height="1" fill="#634e4e"/>
<rect x="11" y="21" width="2" height="1" fill="#724f4f"/>
<rect x="19" y="21" width="1" height="1" fill="#604d4e"/>
<rect x="3" y="21" width="1" height="1" fill="#634e4e"/>
<rect x="13" y="21" width="2" height="1" fill="#664e4e"/>
<rect x="30" y="19" width="1" height="4" fill="#724f4f"/>
<rect x="29" y="21" width="1" height="2" fill="#634e4e"/>
<rect x="26" y="21" width="1" height="2" fill="#654e4e"/>
<rect x="0" y="22" width="5" height="1" fill="#5c4d4d"/>
<rect x="7" y="22" width="1" height="1" fill="#5c4d4d"/>
<rect x="22" y="22" width="1" height="1" fill="#664f4f"/>
<rect x="11" y="22" width="2" height="1" fill="#634e4e"/>
<rect x="25" y="22" width="1" height="1" fill="#664e4e"/>
<rect x="15" y="22" width="2" height="1" fill="#5e4e4e"/>
<rect x="23" y="22" width="2" height="1" fill="#664e4f"/>
<rect x="27" y="22" width="1" height="1" fill="#5d4d4d"/>
<rect x="19" y="22" width="1" height="1" fill="#604e4e"/>
<rect x="8" y="22" width="1" height="1" fill="#5d4d4d"/>
<rect x="18" y="22" width="1" height="1" fill="#5c4d4d"/>
<rect x="20" y="22" width="2" height="1" fill="#654e4e"/>
<rect x="17" y="22" width="1" height="1" fill="#5d4d4d"/>
<rect x="13" y="22" width="2" height="1" fill="#604e4e"/>
<rect x="9" y="22" width="1" height="1" fill="#5c4d4d"/>
<rect x="10" y="22" width="1" height="1" fill="#5d4d4d"/>
<rect x="31" y="20" width="1" height="4" fill="#6a4e4f"/>
<rect x="28" y="22" width="1" height="2" fill="#5d4e4e"/>
<rect x="5" y="22" width="1" height="2" fill="#5a4d4d"/>
<rect x="6" y="22" width="1" height="2" fill="#594d4d"/>
<rect x="19" y="23" width="1" height="1" fill="#5d4d4d"/>
<rect x="13" y="23" width="2" height="1" fill="#594d4d"/>
<rect x="29" y="23" width="1" height="1" fill="#604e4e"/>
<rect x="4" y="23" width="1" height="1" fill="#604d4e"/>
<rect x="24" y="23" width="1" height="1" fill="#604d4e"/>
<rect x="7" y="23" width="3" height="1" fill="#5c4d4d"/>
<rect x="15" y="23" width="4" height="1" fill="#5c4d4d"/>
<rect x="0" y="23" width="1" height="1" fill="#775051"/>
<rect x="10" y="23" width="1" height="1" fill="#5a4d4d"/>
<rect x="2" y="23" width="1" height="1" fill="#654e4f"/>
<rect x="1" y="23" width="1" height="1" fill="#725050"/>
<rect x="27" y="23" width="1" height="1" fill="#5e4e4e"/>
<rect x="11" y="23" width="2" height="1" fill="#5c4d4d"/>
<rect x="25" y="23" width="2" height="1" fill="#634e4e"/>
<rect x="20" y="23" width="2" height="1" fill="#5e4e4e"/>
<rect x="3" y="23" width="1" height="1" fill="#634e4e"/>
<rect x="22" y="23" width="2" height="1" fill="#5d4d4d"/>
<rect x="9" y="24" width="2" height="1" fill="#775051"/>
<rect x="4" y="24" width="1" height="1" fill="#724f4f"/>
<rect x="2" y="24" width="1" height="1" fill="#724f4f"/>
<rect x="0" y="24" width="2" height="1" fill="#835152"/>
<rect x="3" y="24" width="1" height="1" fill="#725050"/>
<rect x="30" y="24" width="1" height="1" fill="#5e4e4e"/>
<rect x="20" y="24" width="1" height="1" fill="#5b4e4e"/>
<rect x="26" y="24" width="1" height="1" fill="#5b4e4e"/>
<rect x="17" y="24" width="1" height="1" fill="#5d4e4e"/>
<rect x="22" y="24" width="1" height="1" fill="#5b4e4e"/>
<rect x="16" y="24" width="1" height="1" fill="#5e4e4e"/>
<rect x="13" y="24" width="1" height="1" fill="#654e4e"/>
<rect x="27" y="24" width="3" height="1" fill="#5d4e4e"/>
<rect x="21" y="24" width="1" height="1" fill="#5d4d4d"/>
<rect x="25" y="24" width="1" height="1" fill="#5d4d4d"/>
<rect x="7" y="24" width="1" height="1" fill="#6a4e4f"/>
<rect x="19" y="24" width="1" height="1" fill="#5d4e4e"/>
<rect x="18" y="24" width="1" height="1" fill="#5d4d4d"/>
<rect x="12" y="24" width="1" height="1" fill="#6a4e4f"/>
<rect x="23" y="24" width="2" height="1" fill="#5a4d4d"/>
<rect x="14" y="24" width="2" height="1" fill="#604e4e"/>
<rect x="5" y="24" width="1" height="2" fill="#634e4e"/>
<rect x="6" y="24" width="1" height="2" fill="#5c4d4d"/>
<rect x="31" y="24" width="1" height="2" fill="#594a4b"/>
<rect x="9" y="25" width="6" height="1" fill="#875253"/>
<rect x="15" y="25" width="2" height="1" fill="#835152"/>
<rect x="23" y="25" width="2" height="1" fill="#5b4e4e"/>
<rect x="19" y="25" width="2" height="1" fill="#694f4f"/>
<rect x="21" y="25" width="1" height="1" fill="#654e4e"/>
<rect x="22" y="25" width="1" height="1" fill="#5d4e4e"/>
<rect x="17" y="25" width="1" height="1" fill="#775051"/>
<rect x="25" y="25" width="1" height="1" fill="#604e4e"/>
<rect x="26" y="25" width="1" height="1" fill="#5e4e4e"/>
<rect x="1" y="25" width="1" height="1" fill="#724f4f"/>
<rect x="27" y="25" width="4" height="1" fill="#5d4e4e"/>
<rect x="19" y="26" width="1" height="1" fill="#724f4f"/>
<rect x="11" y="26" width="1" height="1" fill="#805152"/>
<rect x="17" y="26" width="1" height="1" fill="#7d5051"/>
<rect x="23" y="26" width="1" height="1" fill="#5d4d4d"/>
<rect x="31" y="26" width="1" height="1" fill="#634e4e"/>
<rect x="28" y="26" width="2" height="1" fill="#775051"/>
<rect x="14" y="26" width="3" height="1" fill="#875253"/>
<rect x="30" y="26" width="1" height="1" fill="#694f4f"/>
<rect x="12" y="26" width="2" height="1" fill="#835152"/>
<rect x="24" y="26" width="1" height="1" fill="#654f4f"/>
<rect x="10" y="26" width="1" height="1" fill="#7d5051"/>
<rect x="25" y="26" width="1" height="1" fill="#835152"/>
<rect x="9" y="26" width="1" height="1" fill="#775051"/>
<rect x="5" y="26" width="1" height="1" fill="#5e4e4e"/>
<rect x="20" y="26" width="2" height="1" fill="#725050"/>
<rect x="4" y="26" width="1" height="1" fill="#664e4e"/>
<rect x="3" y="26" width="1" height="1" fill="#654e4f"/>
<rect x="18" y="26" width="1" height="1" fill="#725050"/>
<rect x="27" y="26" width="1" height="1" fill="#7d5051"/>
<rect x="0" y="26" width="3" height="1" fill="#654e4e"/>
<rect x="26" y="26" width="1" height="1" fill="#805152"/>
<rect x="22" y="26" width="1" height="1" fill="#634e4e"/>
<rect x="8" y="25" width="1" height="3" fill="#724f4f"/>
<rect x="6" y="26" width="1" height="2" fill="#5b4e4e"/>
<rect x="18" y="27" width="2" height="1" fill="#725050"/>
<rect x="23" y="27" width="1" height="1" fill="#5e4e4e"/>
<rect x="25" y="27" width="5" height="1" fill="#875253"/>
<rect x="14" y="27" width="1" height="1" fill="#6a4e4f"/>
<rect x="0" y="27" width="1" height="1" fill="#664d4e"/>
<rect x="9" y="27" width="1" height="1" fill="#664e4f"/>
<rect x="16" y="27" width="2" height="1" fill="#775051"/>
<rect x="11" y="27" width="2" height="1" fill="#664e4e"/>
<rect x="21" y="27" width="1" height="1" fill="#725050"/>
<rect x="1" y="27" width="1" height="1" fill="#654e4e"/>
<rect x="13" y="27" width="1" height="1" fill="#694f4f"/>
<rect x="5" y="27" width="1" height="1" fill="#5d4d4d"/>
<rect x="2" y="27" width="1" height="1" fill="#634e4e"/>
<rect x="22" y="27" width="1" height="1" fill="#654e4f"/>
<rect x="10" y="27" width="1" height="1" fill="#654e4e"/>
<rect x="3" y="27" width="2" height="1" fill="#654e4e"/>
<rect x="30" y="27" width="1" height="1" fill="#775051"/>
<rect x="24" y="27" width="1" height="1" fill="#604e4e"/>
<rect x="15" y="27" width="1" height="1" fill="#725050"/>
<rect x="31" y="27" width="1" height="2" fill="#724f4f"/>
<rect x="28" y="28" width="1" height="1" fill="#835152"/>
<rect x="4" y="28" width="1" height="1" fill="#5d4d4d"/>
<rect x="27" y="28" width="1" height="1" fill="#805152"/>
<rect x="25" y="28" width="1" height="1" fill="#775051"/>
<rect x="12" y="28" width="1" height="1" fill="#664f4f"/>
<rect x="23" y="28" width="1" height="1" fill="#5b4e4e"/>
<rect x="24" y="28" width="1" height="1" fill="#5d4e4e"/>
<rect x="17" y="28" width="2" height="1" fill="#724f4f"/>
<rect x="16" y="28" width="1" height="1" fill="#725050"/>
<rect x="13" y="28" width="1" height="1" fill="#664e4e"/>
<rect x="11" y="28" width="1" height="1" fill="#664e4f"/>
<rect x="20" y="28" width="2" height="1" fill="#664e4e"/>
<rect x="6" y="28" width="1" height="1" fill="#594d4d"/>
<rect x="10" y="28" width="1" height="1" fill="#664f4f"/>
<rect x="14" y="28" width="1" height="1" fill="#654e4e"/>
<rect x="0" y="28" width="4" height="1" fill="#594a4b"/>
<rect x="26" y="28" width="1" height="1" fill="#7d5051"/>
<rect x="30" y="28" width="1" height="1" fill="#7d5051"/>
<rect x="29" y="28" width="1" height="1" fill="#875253"/>
<rect x="5" y="28" width="1" height="1" fill="#594a4b"/>
<rect x="9" y="28" width="1" height="1" fill="#664e4e"/>
<rect x="19" y="28" width="1" height="1" fill="#725050"/>
<rect x="7" y="28" width="1" height="1" fill="#664e4e"/>
<rect x="22" y="28" width="1" height="2" fill="#604e4e"/>
<rect x="15" y="28" width="1" height="2" fill="#6a4e4f"/>
<rect x="19" y="29" width="1" height="1" fill="#724f4f"/>
<rect x="6" y="29" width="1" height="1" fill="#4f3d3d"/>
<rect x="20" y="29" width="1" height="1" fill="#694f4f"/>
<rect x="3" y="29" width="1" height="1" fill="#604d4e"/>
<rect x="31" y="29" width="1" height="1" fill="#694f4f"/>
<rect x="8" y="29" width="5" height="1" fill="#644b4b"/>
<rect x="7" y="29" width="1" height="1" fill="#594a4b"/>
<rect x="13" y="29" width="2" height="1" fill="#664d4e"/>
<rect x="28" y="29" width="2" height="1" fill="#694f4f"/>
<rect x="21" y="29" width="1" height="1" fill="#654e4e"/>
<rect x="4" y="29" width="2" height="1" fill="#594a4b"/>
<rect x="27" y="29" width="1" height="1" fill="#664e4f"/>
<rect x="18" y="29" width="1" height="1" fill="#725050"/>
<rect x="30" y="29" width="1" height="1" fill="#6a4e4f"/>
<rect x="0" y="29" width="3" height="1" fill="#625655"/>
<rect x="26" y="29" width="1" height="2" fill="#664f4f"/>
<rect x="23" y="29" width="2" height="2" fill="#5b4e4e"/>
<rect x="25" y="29" width="1" height="2" fill="#654f4f"/>
<rect x="5" y="30" width="2" height="1" fill="#625655"/>
<rect x="7" y="30" width="2" height="1" fill="#6c5252"/>
<rect x="0" y="30" width="3" height="1" fill="#4f3d3d"/>
<rect x="22" y="30" width="1" height="1" fill="#604d4e"/>
<rect x="14" y="30" width="4" height="1" fill="#644b4b"/>
<rect x="9" y="30" width="1" height="1" fill="#664d4e"/>
<rect x="20" y="30" width="2" height="1" fill="#664e4e"/>
<rect x="18" y="30" width="2" height="1" fill="#664d4e"/>
<rect x="29" y="30" width="1" height="1" fill="#664e4f"/>
<rect x="3" y="30" width="1" height="1" fill="#594a4b"/>
<rect x="10" y="30" width="1" height="1" fill="#644b4b"/>
<rect x="11" y="30" width="3" height="1" fill="#594a4b"/>
<rect x="27" y="30" width="1" height="1" fill="#654e4f"/>
<rect x="4" y="30" width="1" height="1" fill="#5d4e4e"/>
<rect x="28" y="30" width="1" height="1" fill="#664f4f"/>
<rect x="30" y="30" width="2" height="2" fill="#664f4f"/>
<rect x="17" y="31" width="3" height="1" fill="#594a4b"/>
<rect x="23" y="31" width="2" height="1" fill="#594a4b"/>
<rect x="16" y="31" width="1" height="1" fill="#644b4b"/>
<rect x="20" y="31" width="2" height="1" fill="#644b4b"/>
<rect x="10" y="31" width="3" height="1" fill="#625655"/>
<rect x="9" y="31" width="1" height="1" fill="#594a4b"/>
<rect x="15" y="31" width="1" height="1" fill="#664d4e"/>
<rect x="13" y="31" width="2" height="1" fill="#6c5252"/>
<rect x="25" y="31" width="1" height="1" fill="#604d4e"/>
<rect x="0" y="31" width="9" height="1" fill="#4f3d3d"/>
<rect x="28" y="31" width="2" height="1" fill="#664e4e"/>
<rect x="22" y="31" width="1" height="1" fill="#5d4d4d"/>
<rect x="27" y="31" width="1" height="1" fill="#664e4f"/>
<rect x="26" y="31" width="1" height="1" fill="#654e4e"/>
</svg>