<?xml version="1.0" encoding="UTF-8"?>
<svg xmlns="http://www.w3.org/2000/svg" width="20mm" height="20mm" viewBox="0 0 32 32" shape-rendering="crispEdges">
<title>137 正面 structured semantic redraw</title>
<metadata>registered 32-unit semantic vector redraw; no embedded raster; physical-size=20mm</metadata>
<rect x="0" y="0" width="32" height="32" fill="#ae6432"/>
<rect x="17" y="0" width="4" height="1" fill="#36322d"/>
<rect x="24" y="0" width="1" height="1" fill="#483830"/>
<rect x="1" y="0" width="6" height="1" fill="#313029"/>
<rect x="22" y="0" width="2" height="1" fill="#3a3633"/>
<rect x="26" y="0" width="1" height="1" fill="#6a452c"/>
<rect x="7" y="0" width="1" height="1" fill="#313028"/>
<rect x="29" y="0" width="3" height="1" fill="#ab7040"/>
<rect x="0" y="0" width="1" height="1" fill="#32302a"/>
<rect x="13" y="0" width="4" height="1" fill="#32302a"/>
<rect x="25" y="0" width="1" height="1" fill="#4d3b31"/>
<rect x="8" y="0" width="5" height="1" fill="#313029"/>
<rect x="27" y="0" width="2" height="1" fill="#8e643f"/>
<rect x="21" y="0" width="1" height="1" fill="#39342e"/>
<rect x="16" y="1" width="1" height="1" fill="#313029"/>
<rect x="22" y="1" width="2" height="1" fill="#312f29"/>
<rect x="24" y="1" width="5" height="1" fill="#32302a"/>
<rect x="31" y="1" width="1" height="1" fill="#32302a"/>
<rect x="15" y="1" width="1" height="1" fill="#312f29"/>
<rect x="1" y="1" width="2" height="1" fill="#302f29"/>
<rect x="0" y="1" width="1" height="1" fill="#31312a"/>
<rect x="29" y="1" width="2" height="1" fill="#36322d"/>
<rect x="21" y="1" width="1" height="1" fill="#313029"/>
<rect x="3" y="1" width="8" height="1" fill="#313029"/>
<rect x="11" y="1" width="4" height="1" fill="#302f29"/>
<rect x="17" y="1" width="4" height="1" fill="#312f29"/>
<rect x="25" y="2" width="2" height="1" fill="#312f29"/>
<rect x="18" y="2" width="6" height="1" fill="#312f29"/>
<rect x="14" y="2" width="4" height="1" fill="#302f29"/>
<rect x="29" y="2" width="2" height="1" fill="#312f29"/>
<rect x="24" y="2" width="1" height="1" fill="#303029"/>
<rect x="8" y="2" width="1" height="1" fill="#483830"/>
<rect x="9" y="2" width="2" height="1" fill="#39342e"/>
<rect x="11" y="2" width="1" height="1" fill="#36322d"/>
<rect x="6" y="2" width="2" height="1" fill="#4d3b31"/>
<rect x="12" y="2" width="1" height="1" fill="#32302a"/>
<rect x="0" y="2" width="2" height="1" fill="#8a522f"/>
<rect x="2" y="2" width="4" height="1" fill="#6a452c"/>
<rect x="28" y="2" width="1" height="1" fill="#302f29"/>
<rect x="13" y="2" width="1" height="1" fill="#312f29"/>
<rect x="31" y="2" width="1" height="2" fill="#2f2d27"/>
<rect x="27" y="2" width="1" height="2" fill="#313029"/>
<rect x="9" y="3" width="1" height="1" fill="#a0582c"/>
<rect x="24" y="3" width="1" height="1" fill="#39342e"/>
<rect x="13" y="3" width="3" height="1" fill="#8a522f"/>
<rect x="5" y="3" width="1" height="1" fill="#a0592d"/>
<rect x="2" y="3" width="2" height="1" fill="#a1592d"/>
<rect x="6" y="3" width="3" height="1" fill="#a1592d"/>
<rect x="1" y="3" width="1" height="1" fill="#a0592d"/>
<rect x="22" y="3" width="2" height="1" fill="#483830"/>
<rect x="25" y="3" width="1" height="1" fill="#36322d"/>
<rect x="28" y="3" width="3" height="1" fill="#302f29"/>
<rect x="16" y="3" width="4" height="1" fill="#6a452c"/>
<rect x="10" y="3" width="1" height="1" fill="#a0592d"/>
<rect x="26" y="3" width="1" height="1" fill="#32302a"/>
<rect x="4" y="3" width="1" height="1" fill="#a1582d"/>
<rect x="0" y="3" width="1" height="1" fill="#a35b2e"/>
<rect x="20" y="3" width="2" height="1" fill="#4d3b31"/>
<rect x="11" y="3" width="2" height="1" fill="#9a582e"/>
<rect x="10" y="4" width="1" height="1" fill="#a0582c"/>
<rect x="19" y="4" width="5" height="1" fill="#a1592c"/>
<rect x="0" y="4" width="3" height="1" fill="#a1592d"/>
<rect x="26" y="4" width="2" height="1" fill="#9a582e"/>
<rect x="31" y="4" width="1" height="1" fill="#6a452c"/>
<rect x="6" y="4" width="1" height="1" fill="#a1592d"/>
<rect x="18" y="4" width="1" height="1" fill="#a0592c"/>
<rect x="11" y="4" width="2" height="1" fill="#a0592c"/>
<rect x="16" y="4" width="2" height="1" fill="#a1592c"/>
<rect x="28" y="4" width="3" height="1" fill="#8a522f"/>
<rect x="3" y="4" width="3" height="1" fill="#a0592d"/>
<rect x="7" y="4" width="3" height="1" fill="#a0592d"/>
<rect x="24" y="4" width="2" height="1" fill="#a0582c"/>
<rect x="14" y="4" width="2" height="2" fill="#a0592c"/>
<rect x="13" y="4" width="1" height="2" fill="#a1592c"/>
<rect x="12" y="5" width="1" height="1" fill="#a1592d"/>
<rect x="3" y="5" width="1" height="1" fill="#a0592d"/>
<rect x="26" y="5" width="1" height="1" fill="#a0582c"/>
<rect x="21" y="5" width="2" height="1" fill="#a0582c"/>
<rect x="5" y="5" width="3" height="1" fill="#a0592d"/>
<rect x="16" y="5" width="1" height="1" fill="#a0582c"/>
<rect x="1" y="5" width="1" height="1" fill="#a0592d"/>
<rect x="4" y="5" width="1" height="1" fill="#a1592d"/>
<rect x="19" y="5" width="2" height="1" fill="#a1592c"/>
<rect x="17" y="5" width="2" height="1" fill="#a0592c"/>
<rect x="8" y="5" width="2" height="1" fill="#a1592d"/>
<rect x="30" y="5" width="1" height="1" fill="#a0592c"/>
<rect x="23" y="5" width="2" height="1" fill="#a0592c"/>
<rect x="2" y="5" width="1" height="1" fill="#a1592d"/>
<rect x="28" y="5" width="2" height="1" fill="#a1592c"/>
<rect x="25" y="5" width="1" height="1" fill="#a1592c"/>
<rect x="27" y="5" width="1" height="1" fill="#a0592c"/>
<rect x="10" y="5" width="2" height="1" fill="#a0592d"/>
<rect x="13" y="6" width="1" height="1" fill="#a0592c"/>
<rect x="8" y="6" width="3" height="1" fill="#a0592c"/>
<rect x="19" y="6" width="1" height="1" fill="#a1592c"/>
<rect x="20" y="6" width="4" height="1" fill="#a0592c"/>
<rect x="11" y="6" width="1" height="1" fill="#a0592d"/>
<rect x="24" y="6" width="1" height="1" fill="#a0582c"/>
<rect x="7" y="6" width="1" height="1" fill="#a0582c"/>
<rect x="12" y="6" width="1" height="1" fill="#a0582c"/>
<rect x="30" y="6" width="1" height="1" fill="#a1592c"/>
<rect x="25" y="6" width="2" height="1" fill="#a0592c"/>
<rect x="14" y="6" width="1" height="1" fill="#a0582c"/>
<rect x="29" y="6" width="1" height="1" fill="#a0592c"/>
<rect x="2" y="6" width="1" height="1" fill="#a0592d"/>
<rect x="15" y="6" width="4" height="1" fill="#a0592c"/>
<rect x="1" y="6" width="1" height="1" fill="#a0592c"/>
<rect x="6" y="6" width="1" height="1" fill="#a1592c"/>
<rect x="3" y="6" width="3" height="1" fill="#a1592d"/>
<rect x="27" y="6" width="2" height="2" fill="#a1592c"/>
<rect x="23" y="7" width="2" height="1" fill="#a2592d"/>
<rect x="29" y="7" width="1" height="1" fill="#a0582c"/>
<rect x="26" y="7" width="1" height="1" fill="#a1592d"/>
<rect x="9" y="7" width="2" height="1" fill="#ab6232"/>
<rect x="25" y="7" width="1" height="1" fill="#a1592c"/>
<rect x="30" y="7" width="1" height="1" fill="#a0592c"/>
<rect x="16" y="7" width="7" height="1" fill="#a35b2e"/>
<rect x="11" y="7" width="5" height="1" fill="#a76031"/>
<rect x="6" y="7" width="3" height="1" fill="#ad6231"/>
<rect x="5" y="7" width="1" height="1" fill="#ad6332"/>
<rect x="1" y="7" width="3" height="1" fill="#a1592d"/>
<rect x="28" y="8" width="1" height="1" fill="#ad6231"/>
<rect x="16" y="8" width="4" height="1" fill="#ae6332"/>
<rect x="29" y="8" width="2" height="1" fill="#a1592c"/>
<rect x="8" y="8" width="1" height="1" fill="#af6432"/>
<rect x="26" y="8" width="1" height="1" fill="#ae6332"/>
<rect x="2" y="8" width="2" height="1" fill="#a1592d"/>
<rect x="25" y="8" width="1" height="1" fill="#ad6332"/>
<rect x="1" y="8" width="1" height="1" fill="#a0592d"/>
<rect x="27" y="8" width="1" height="1" fill="#ad6332"/>
<rect x="13" y="9" width="1" height="1" fill="#ae6332"/>
<rect x="16" y="9" width="1" height="1" fill="#ae6332"/>
<rect x="26" y="9" width="1" height="1" fill="#af6432"/>
<rect x="1" y="9" width="2" height="1" fill="#a1592d"/>
<rect x="17" y="9" width="2" height="1" fill="#ad6332"/>
<rect x="25" y="9" width="1" height="1" fill="#ae6332"/>
<rect x="7" y="9" width="2" height="1" fill="#af6432"/>
<rect x="0" y="5" width="1" height="6" fill="#a35b2e"/>
<rect x="4" y="7" width="1" height="4" fill="#a35b2e"/>
<rect x="5" y="8" width="1" height="3" fill="#af6432"/>
<rect x="3" y="9" width="1" height="2" fill="#a1592c"/>
<rect x="29" y="9" width="1" height="2" fill="#a2592d"/>
<rect x="14" y="10" width="1" height="1" fill="#af6432"/>
<rect x="8" y="10" width="2" height="1" fill="#af6432"/>
<rect x="18" y="10" width="1" height="1" fill="#af6432"/>
<rect x="26" y="10" width="2" height="1" fill="#af6432"/>
<rect x="1" y="10" width="1" height="1" fill="#a0592d"/>
<rect x="2" y="10" width="1" height="1" fill="#a1592d"/>
<rect x="31" y="5" width="1" height="7" fill="#a0582c"/>
<rect x="30" y="9" width="1" height="3" fill="#a1592c"/>
<rect x="20" y="10" width="1" height="2" fill="#ae6332"/>
<rect x="9" y="11" width="1" height="1" fill="#a76031"/>
<rect x="0" y="11" width="1" height="1" fill="#ab6232"/>
<rect x="1" y="11" width="3" height="1" fill="#a76031"/>
<rect x="4" y="11" width="1" height="1" fill="#9a582e"/>
<rect x="25" y="11" width="1" height="1" fill="#ad6332"/>
<rect x="26" y="11" width="1" height="1" fill="#ab6232"/>
<rect x="29" y="11" width="1" height="1" fill="#a35b2e"/>
<rect x="23" y="11" width="1" height="1" fill="#ae6332"/>
<rect x="5" y="11" width="4" height="1" fill="#8a522f"/>
<rect x="27" y="11" width="2" height="1" fill="#ad6332"/>
<rect x="10" y="11" width="2" height="2" fill="#af6432"/>
<rect x="26" y="12" width="3" height="1" fill="#4d3b31"/>
<rect x="31" y="12" width="1" height="1" fill="#ab6232"/>
<rect x="20" y="12" width="1" height="1" fill="#ad6332"/>
<rect x="30" y="12" width="1" height="1" fill="#ad6231"/>
<rect x="9" y="12" width="1" height="2" fill="#9a582e"/>
<rect x="29" y="12" width="1" height="2" fill="#9a582e"/>
<rect x="0" y="12" width="4" height="2" fill="#af6432"/>
<rect x="4" y="12" width="1" height="2" fill="#8a522f"/>
<rect x="15" y="13" width="3" height="1" fill="#ae6332"/>
<rect x="21" y="13" width="1" height="1" fill="#ae6332"/>
<rect x="26" y="13" width="3" height="2" fill="#483830"/>
<rect x="3" y="14" width="1" height="1" fill="#af6432"/>
<rect x="5" y="12" width="4" height="4" fill="#483830"/>
<rect x="25" y="12" width="1" height="4" fill="#8a522f"/>
<rect x="4" y="14" width="1" height="2" fill="#9a582e"/>
<rect x="9" y="14" width="1" height="2" fill="#8a522f"/>
<rect x="17" y="14" width="1" height="2" fill="#ae6332"/>
<rect x="29" y="14" width="1" height="2" fill="#8a522f"/>
<rect x="14" y="15" width="3" height="1" fill="#ad6332"/>
<rect x="18" y="15" width="4" height="1" fill="#ad6332"/>
<rect x="26" y="15" width="3" height="1" fill="#4d3b31"/>
<rect x="23" y="15" width="1" height="1" fill="#ae6332"/>
<rect x="5" y="16" width="4" height="1" fill="#a35b2e"/>
<rect x="29" y="16" width="1" height="1" fill="#ab6232"/>
<rect x="4" y="16" width="1" height="1" fill="#ab6232"/>
<rect x="25" y="16" width="1" height="1" fill="#ab6232"/>
<rect x="2" y="16" width="2" height="1" fill="#af6432"/>
<rect x="11" y="16" width="1" height="1" fill="#af6432"/>
<rect x="14" y="16" width="7" height="1" fill="#39342e"/>
<rect x="26" y="16" width="3" height="1" fill="#a76031"/>
<rect x="21" y="16" width="1" height="1" fill="#483830"/>
<rect x="22" y="16" width="1" height="1" fill="#ae6332"/>
<rect x="9" y="16" width="1" height="1" fill="#ab6232"/>
<rect x="7" y="17" width="1" height="1" fill="#af6432"/>
<rect x="9" y="17" width="2" height="1" fill="#af6432"/>
<rect x="16" y="17" width="2" height="1" fill="#312f29"/>
<rect x="15" y="17" width="1" height="1" fill="#313029"/>
<rect x="18" y="17" width="1" height="1" fill="#313029"/>
<rect x="28" y="17" width="1" height="1" fill="#ad6332"/>
<rect x="26" y="17" width="2" height="1" fill="#ae6332"/>
<rect x="20" y="17" width="1" height="1" fill="#313029"/>
<rect x="19" y="17" width="1" height="1" fill="#303029"/>
<rect x="31" y="13" width="1" height="6" fill="#ad6332"/>
<rect x="22" y="17" width="1" height="2" fill="#ab6232"/>
<rect x="2" y="17" width="1" height="2" fill="#af6432"/>
<rect x="21" y="17" width="1" height="2" fill="#36322d"/>
<rect x="11" y="18" width="1" height="1" fill="#af6432"/>
<rect x="30" y="18" width="1" height="1" fill="#ae6332"/>
<rect x="9" y="18" width="1" height="1" fill="#af6432"/>
<rect x="15" y="18" width="6" height="1" fill="#312f29"/>
<rect x="4" y="18" width="1" height="1" fill="#af6432"/>
<rect x="23" y="18" width="1" height="1" fill="#ae6332"/>
<rect x="13" y="16" width="1" height="4" fill="#9a582e"/>
<rect x="14" y="17" width="1" height="3" fill="#302f29"/>
<rect x="19" y="19" width="2" height="1" fill="#312f29"/>
<rect x="9" y="19" width="2" height="1" fill="#af6432"/>
<rect x="17" y="19" width="2" height="1" fill="#302f29"/>
<rect x="21" y="19" width="1" height="1" fill="#32302a"/>
<rect x="23" y="19" width="2" height="1" fill="#af6432"/>
<rect x="30" y="19" width="2" height="1" fill="#ad6332"/>
<rect x="22" y="19" width="1" height="1" fill="#a76031"/>
<rect x="0" y="14" width="1" height="7" fill="#af6432"/>
<rect x="9" y="20" width="1" height="1" fill="#9a582e"/>
<rect x="20" y="20" width="2" height="1" fill="#312f29"/>
<rect x="26" y="20" width="1" height="1" fill="#a35b2e"/>
<rect x="18" y="20" width="1" height="1" fill="#313029"/>
<rect x="22" y="20" width="4" height="1" fill="#4d3b31"/>
<rect x="19" y="20" width="1" height="1" fill="#303029"/>
<rect x="2" y="20" width="7" height="1" fill="#ab6232"/>
<rect x="27" y="20" width="3" height="1" fill="#a2592d"/>
<rect x="17" y="20" width="1" height="1" fill="#302f29"/>
<rect x="30" y="20" width="2" height="1" fill="#a1592c"/>
<rect x="12" y="20" width="2" height="1" fill="#6a452c"/>
<rect x="10" y="20" width="2" height="1" fill="#8a522f"/>
<rect x="1" y="20" width="1" height="1" fill="#ad6231"/>
<rect x="15" y="19" width="1" height="3" fill="#313029"/>
<rect x="14" y="20" width="1" height="2" fill="#303029"/>
<rect x="7" y="21" width="1" height="1" fill="#a0592d"/>
<rect x="24" y="21" width="1" height="1" fill="#312f29"/>
<rect x="27" y="21" width="3" height="1" fill="#a0592c"/>
<rect x="8" y="21" width="1" height="1" fill="#a1592d"/>
<rect x="22" y="21" width="1" height="1" fill="#312f29"/>
<rect x="13" y="21" width="1" height="1" fill="#313029"/>
<rect x="10" y="21" width="3" height="1" fill="#302f29"/>
<rect x="25" y="21" width="1" height="1" fill="#39342e"/>
<rect x="1" y="21" width="1" height="1" fill="#a0582c"/>
<rect x="18" y="21" width="1" height="1" fill="#312f29"/>
<rect x="3" y="21" width="1" height="1" fill="#a0592c"/>
<rect x="2" y="21" width="1" height="1" fill="#a1592d"/>
<rect x="19" y="21" width="2" height="1" fill="#313029"/>
<rect x="4" y="21" width="3" height="1" fill="#a0582c"/>
<rect x="30" y="21" width="2" height="1" fill="#a0582c"/>
<rect x="21" y="21" width="1" height="1" fill="#302f29"/>
<rect x="17" y="21" width="1" height="2" fill="#313029"/>
<rect x="23" y="21" width="1" height="2" fill="#302f29"/>
<rect x="3" y="22" width="1" height="1" fill="#a1592c"/>
<rect x="4" y="22" width="5" height="1" fill="#a1592d"/>
<rect x="14" y="22" width="2" height="1" fill="#313029"/>
<rect x="18" y="22" width="5" height="1" fill="#312f29"/>
<rect x="11" y="22" width="3" height="1" fill="#303029"/>
<rect x="24" y="22" width="1" height="1" fill="#303029"/>
<rect x="27" y="22" width="5" height="1" fill="#a0592c"/>
<rect x="2" y="22" width="1" height="1" fill="#a0582c"/>
<rect x="25" y="22" width="1" height="1" fill="#36322d"/>
<rect x="16" y="19" width="1" height="5" fill="#312f29"/>
<rect x="26" y="21" width="1" height="3" fill="#a0582c"/>
<rect x="1" y="22" width="1" height="2" fill="#a0592d"/>
<rect x="25" y="23" width="1" height="1" fill="#32302a"/>
<rect x="3" y="23" width="1" height="1" fill="#a0592d"/>
<rect x="18" y="23" width="4" height="1" fill="#312f29"/>
<rect x="22" y="23" width="2" height="1" fill="#302f29"/>
<rect x="27" y="23" width="2" height="1" fill="#a1592c"/>
<rect x="29" y="23" width="2" height="1" fill="#a0592c"/>
<rect x="5" y="23" width="1" height="1" fill="#a0592d"/>
<rect x="15" y="23" width="1" height="1" fill="#302f29"/>
<rect x="2" y="23" width="1" height="1" fill="#a0592c"/>
<rect x="6" y="23" width="3" height="1" fill="#a1592d"/>
<rect x="11" y="23" width="4" height="1" fill="#313029"/>
<rect x="31" y="23" width="1" height="1" fill="#a0582c"/>
<rect x="4" y="23" width="1" height="1" fill="#a1592d"/>
<rect x="24" y="23" width="1" height="1" fill="#313029"/>
<rect x="17" y="23" width="1" height="1" fill="#302f29"/>
<rect x="0" y="21" width="1" height="4" fill="#a76031"/>
<rect x="9" y="21" width="1" height="4" fill="#6a452c"/>
<rect x="10" y="22" width="1" height="3" fill="#312f29"/>
<rect x="23" y="24" width="1" height="1" fill="#313029"/>
<rect x="3" y="24" width="5" height="1" fill="#a1592d"/>
<rect x="11" y="24" width="5" height="1" fill="#313029"/>
<rect x="30" y="24" width="2" height="1" fill="#39342e"/>
<rect x="26" y="24" width="2" height="1" fill="#4d3b31"/>
<rect x="16" y="24" width="7" height="1" fill="#312f29"/>
<rect x="24" y="24" width="2" height="1" fill="#312f29"/>
<rect x="28" y="24" width="2" height="1" fill="#483830"/>
<rect x="8" y="24" width="1" height="1" fill="#a2592d"/>
<rect x="1" y="24" width="1" height="1" fill="#a0592c"/>
<rect x="2" y="24" width="1" height="1" fill="#a1592c"/>
<rect x="6" y="25" width="3" height="1" fill="#4d3b31"/>
<rect x="15" y="25" width="1" height="1" fill="#303029"/>
<rect x="11" y="25" width="1" height="1" fill="#303029"/>
<rect x="21" y="25" width="8" height="1" fill="#312f29"/>
<rect x="30" y="25" width="1" height="1" fill="#302f29"/>
<rect x="31" y="25" width="1" height="1" fill="#312f29"/>
<rect x="12" y="25" width="3" height="1" fill="#313029"/>
<rect x="10" y="25" width="1" height="1" fill="#313029"/>
<rect x="1" y="25" width="5" height="1" fill="#6a452c"/>
<rect x="0" y="25" width="1" height="1" fill="#8a522f"/>
<rect x="29" y="25" width="1" height="1" fill="#313029"/>
<rect x="16" y="25" width="3" height="1" fill="#313029"/>
<rect x="9" y="25" width="1" height="1" fill="#39342e"/>
<rect x="20" y="25" width="1" height="1" fill="#313029"/>
<rect x="19" y="25" width="1" height="1" fill="#312f29"/>
<rect x="1" y="26" width="2" height="1" fill="#302f29"/>
<rect x="3" y="26" width="15" height="1" fill="#313029"/>
<rect x="18" y="26" width="1" height="1" fill="#302f29"/>
<rect x="20" y="26" width="5" height="1" fill="#312f29"/>
<rect x="25" y="26" width="1" height="1" fill="#313029"/>
<rect x="19" y="26" width="1" height="1" fill="#313029"/>
<rect x="26" y="26" width="2" height="1" fill="#312f29"/>
<rect x="28" y="26" width="4" height="1" fill="#313029"/>
<rect x="2" y="27" width="3" height="1" fill="#32302a"/>
<rect x="20" y="27" width="3" height="1" fill="#312f29"/>
<rect x="26" y="27" width="5" height="1" fill="#313029"/>
<rect x="5" y="27" width="15" height="1" fill="#313029"/>
<rect x="31" y="27" width="1" height="1" fill="#313028"/>
<rect x="23" y="27" width="2" height="1" fill="#302f29"/>
<rect x="1" y="27" width="1" height="2" fill="#313029"/>
<rect x="25" y="27" width="1" height="2" fill="#312f29"/>
<rect x="26" y="28" width="4" height="1" fill="#36322d"/>
<rect x="20" y="28" width="4" height="1" fill="#312f29"/>
<rect x="24" y="28" width="1" height="1" fill="#303029"/>
<rect x="15" y="28" width="1" height="1" fill="#312f29"/>
<rect x="2" y="28" width="1" height="1" fill="#32302a"/>
<rect x="16" y="28" width="4" height="1" fill="#313029"/>
<rect x="5" y="28" width="10" height="1" fill="#313029"/>
<rect x="30" y="28" width="2" height="1" fill="#3a3633"/>
<rect x="3" y="28" width="2" height="1" fill="#313028"/>
<rect x="0" y="26" width="1" height="4" fill="#3a3633"/>
<rect x="8" y="29" width="1" height="1" fill="#32302a"/>
<rect x="4" y="29" width="1" height="1" fill="#312f29"/>
<rect x="3" y="29" width="1" height="1" fill="#312f28"/>
<rect x="25" y="29" width="1" height="1" fill="#313028"/>
<rect x="23" y="29" width="2" height="1" fill="#313029"/>
<rect x="1" y="29" width="2" height="1" fill="#313028"/>
<rect x="9" y="29" width="10" height="1" fill="#313029"/>
<rect x="5" y="29" width="1" height="1" fill="#312f28"/>
<rect x="19" y="29" width="4" height="1" fill="#312f29"/>
<rect x="6" y="29" width="2" height="1" fill="#313029"/>
<rect x="16" y="30" width="1" height="1" fill="#312f29"/>
<rect x="23" y="30" width="1" height="1" fill="#312f29"/>
<rect x="17" y="30" width="2" height="1" fill="#313029"/>
<rect x="24" y="30" width="1" height="1" fill="#303029"/>
<rect x="4" y="30" width="5" height="1" fill="#3a3633"/>
<rect x="22" y="30" width="1" height="1" fill="#313029"/>
<rect x="21" y="30" width="1" height="1" fill="#312f29"/>
<rect x="25" y="30" width="1" height="1" fill="#313029"/>
<rect x="0" y="30" width="1" height="1" fill="#483830"/>
<rect x="10" y="30" width="6" height="1" fill="#313029"/>
<rect x="1" y="30" width="3" height="1" fill="#36322d"/>
<rect x="20" y="30" width="1" height="1" fill="#313029"/>
<rect x="19" y="30" width="1" height="1" fill="#312f29"/>
<rect x="26" y="29" width="1" height="3" fill="#36322d"/>
<rect x="27" y="29" width="5" height="3" fill="#3a3633"/>
<rect x="9" y="30" width="1" height="2" fill="#36322d"/>
<rect x="16" y="31" width="2" height="1" fill="#313029"/>
<rect x="23" y="31" width="3" height="1" fill="#313029"/>
<rect x="18" y="31" width="5" height="1" fill="#312f29"/>
<rect x="1" y="31" width="8" height="1" fill="#3a3633"/>
<rect x="15" y="31" width="1" height="1" fill="#312f29"/>
<rect x="0" y="31" width="1" height="1" fill="#4d3b31"/>
<rect x="10" y="31" width="5" height="1" fill="#313029"/>
</svg>