<?xml version="1.0" encoding="UTF-8"?>
<svg xmlns="http://www.w3.org/2000/svg" width="20mm" height="20mm" viewBox="0 0 32 32" shape-rendering="crispEdges">
<title>137 右侧面 structured semantic redraw</title>
<metadata>registered 32-unit semantic vector redraw; no embedded raster; physical-size=20mm</metadata>
<rect x="0" y="0" width="32" height="32" fill="#be9341"/>
<rect x="20" y="0" width="1" height="1" fill="#bf9340"/>
<rect x="22" y="0" width="3" height="1" fill="#be9240"/>
<rect x="30" y="0" width="2" height="1" fill="#bf9341"/>
<rect x="2" y="0" width="1" height="1" fill="#976c41"/>
<rect x="3" y="0" width="1" height="1" fill="#ba9043"/>
<rect x="1" y="0" width="1" height="1" fill="#ba9043"/>
<rect x="0" y="0" width="1" height="1" fill="#c39744"/>
<rect x="8" y="0" width="8" height="1" fill="#c09440"/>
<rect x="28" y="0" width="1" height="1" fill="#bf9341"/>
<rect x="21" y="0" width="1" height="1" fill="#be933f"/>
<rect x="4" y="0" width="4" height="1" fill="#c39744"/>
<rect x="25" y="0" width="1" height="1" fill="#bf9341"/>
<rect x="16" y="0" width="4" height="1" fill="#bf933f"/>
<rect x="12" y="1" width="1" height="1" fill="#be933f"/>
<rect x="14" y="1" width="2" height="1" fill="#be9240"/>
<rect x="17" y="1" width="1" height="1" fill="#be933f"/>
<rect x="16" y="1" width="1" height="1" fill="#be9340"/>
<rect x="7" y="1" width="3" height="1" fill="#bf933f"/>
<rect x="1" y="1" width="2" height="1" fill="#424140"/>
<rect x="4" y="1" width="3" height="1" fill="#c09440"/>
<rect x="10" y="1" width="1" height="1" fill="#be933f"/>
<rect x="27" y="1" width="1" height="1" fill="#be9342"/>
<rect x="25" y="1" width="2" height="1" fill="#bf9341"/>
<rect x="18" y="1" width="1" height="1" fill="#be9340"/>
<rect x="30" y="1" width="1" height="1" fill="#bf9240"/>
<rect x="23" y="1" width="1" height="1" fill="#be9240"/>
<rect x="19" y="1" width="3" height="1" fill="#bf9340"/>
<rect x="3" y="1" width="1" height="1" fill="#976c41"/>
<rect x="11" y="1" width="1" height="1" fill="#be923f"/>
<rect x="22" y="1" width="1" height="2" fill="#be9340"/>
<rect x="31" y="1" width="1" height="2" fill="#bf9340"/>
<rect x="29" y="1" width="1" height="2" fill="#be9241"/>
<rect x="0" y="1" width="1" height="2" fill="#3f3e3b"/>
<rect x="8" y="2" width="1" height="1" fill="#be933f"/>
<rect x="30" y="2" width="1" height="1" fill="#be9342"/>
<rect x="27" y="2" width="2" height="1" fill="#bf9341"/>
<rect x="21" y="2" width="1" height="1" fill="#be9240"/>
<rect x="10" y="2" width="3" height="1" fill="#be933f"/>
<rect x="14" y="2" width="1" height="1" fill="#bf933f"/>
<rect x="18" y="2" width="3" height="1" fill="#be9340"/>
<rect x="23" y="2" width="2" height="1" fill="#be9241"/>
<rect x="26" y="2" width="1" height="1" fill="#bf9342"/>
<rect x="16" y="2" width="2" height="1" fill="#bf933f"/>
<rect x="15" y="2" width="1" height="1" fill="#be9340"/>
<rect x="5" y="2" width="2" height="1" fill="#be9240"/>
<rect x="9" y="2" width="1" height="1" fill="#be9340"/>
<rect x="25" y="2" width="1" height="1" fill="#bf9240"/>
<rect x="13" y="1" width="1" height="3" fill="#be923f"/>
<rect x="7" y="2" width="1" height="2" fill="#bd9340"/>
<rect x="4" y="2" width="1" height="2" fill="#c09440"/>
<rect x="3" y="2" width="1" height="2" fill="#865a3c"/>
<rect x="1" y="2" width="1" height="2" fill="#434141"/>
<rect x="14" y="3" width="1" height="1" fill="#bf9240"/>
<rect x="26" y="3" width="1" height="1" fill="#be9342"/>
<rect x="12" y="3" width="1" height="1" fill="#bf9340"/>
<rect x="16" y="3" width="3" height="1" fill="#be9340"/>
<rect x="20" y="3" width="2" height="1" fill="#be9340"/>
<rect x="19" y="3" width="1" height="1" fill="#be933f"/>
<rect x="6" y="3" width="1" height="1" fill="#be9340"/>
<rect x="0" y="3" width="1" height="1" fill="#403f3b"/>
<rect x="22" y="3" width="1" height="1" fill="#bf9341"/>
<rect x="5" y="3" width="1" height="1" fill="#be9241"/>
<rect x="8" y="3" width="4" height="1" fill="#be9340"/>
<rect x="15" y="3" width="1" height="1" fill="#bf9340"/>
<rect x="2" y="2" width="1" height="3" fill="#434242"/>
<rect x="27" y="3" width="1" height="2" fill="#bf9341"/>
<rect x="20" y="4" width="1" height="1" fill="#bf9340"/>
<rect x="0" y="4" width="1" height="1" fill="#434141"/>
<rect x="1" y="4" width="1" height="1" fill="#424140"/>
<rect x="14" y="4" width="2" height="1" fill="#bf9340"/>
<rect x="9" y="4" width="4" height="1" fill="#be933f"/>
<rect x="8" y="4" width="1" height="1" fill="#be9340"/>
<rect x="23" y="4" width="1" height="1" fill="#bf9341"/>
<rect x="6" y="4" width="1" height="1" fill="#976c41"/>
<rect x="7" y="4" width="1" height="1" fill="#ae853f"/>
<rect x="4" y="4" width="2" height="1" fill="#ae853f"/>
<rect x="21" y="4" width="1" height="1" fill="#be9240"/>
<rect x="13" y="4" width="1" height="1" fill="#be9340"/>
<rect x="24" y="4" width="1" height="1" fill="#be9241"/>
<rect x="26" y="4" width="1" height="1" fill="#bf9342"/>
<rect x="16" y="4" width="4" height="1" fill="#be9340"/>
<rect x="31" y="4" width="1" height="1" fill="#bf9341"/>
<rect x="3" y="4" width="1" height="1" fill="#694d3b"/>
<rect x="9" y="5" width="2" height="1" fill="#be933f"/>
<rect x="28" y="5" width="3" height="1" fill="#be9342"/>
<rect x="11" y="5" width="1" height="1" fill="#bf9340"/>
<rect x="8" y="5" width="1" height="1" fill="#bf933f"/>
<rect x="26" y="5" width="2" height="1" fill="#bf9342"/>
<rect x="31" y="5" width="1" height="1" fill="#bf9340"/>
<rect x="12" y="5" width="2" height="1" fill="#be933f"/>
<rect x="14" y="5" width="5" height="1" fill="#be9340"/>
<rect x="5" y="5" width="1" height="1" fill="#434141"/>
<rect x="21" y="5" width="1" height="1" fill="#be9241"/>
<rect x="20" y="5" width="1" height="1" fill="#be9340"/>
<rect x="25" y="5" width="1" height="1" fill="#bf9341"/>
<rect x="4" y="5" width="1" height="2" fill="#434242"/>
<rect x="19" y="5" width="1" height="2" fill="#bf9240"/>
<rect x="7" y="5" width="1" height="2" fill="#865a3c"/>
<rect x="12" y="6" width="1" height="1" fill="#be933f"/>
<rect x="11" y="6" width="1" height="1" fill="#be9240"/>
<rect x="28" y="6" width="1" height="1" fill="#be9342"/>
<rect x="14" y="6" width="2" height="1" fill="#bf9340"/>
<rect x="24" y="6" width="1" height="1" fill="#be9342"/>
<rect x="23" y="6" width="1" height="1" fill="#bf9341"/>
<rect x="13" y="6" width="1" height="1" fill="#bf933f"/>
<rect x="10" y="6" width="1" height="1" fill="#be933f"/>
<rect x="5" y="6" width="1" height="1" fill="#434241"/>
<rect x="25" y="6" width="2" height="1" fill="#bf9341"/>
<rect x="30" y="6" width="1" height="1" fill="#bf9342"/>
<rect x="27" y="6" width="1" height="1" fill="#be9242"/>
<rect x="9" y="6" width="1" height="1" fill="#bf933f"/>
<rect x="0" y="5" width="1" height="3" fill="#474340"/>
<rect x="6" y="5" width="1" height="3" fill="#424140"/>
<rect x="2" y="5" width="2" height="3" fill="#403f3b"/>
<rect x="1" y="5" width="1" height="3" fill="#3f3e3b"/>
<rect x="16" y="6" width="3" height="2" fill="#be9340"/>
<rect x="31" y="6" width="1" height="2" fill="#bf9341"/>
<rect x="8" y="6" width="1" height="2" fill="#c09440"/>
<rect x="24" y="7" width="2" height="1" fill="#bf9342"/>
<rect x="20" y="7" width="2" height="1" fill="#bf9342"/>
<rect x="12" y="7" width="1" height="1" fill="#be9340"/>
<rect x="30" y="7" width="1" height="1" fill="#be9342"/>
<rect x="26" y="7" width="3" height="1" fill="#be9342"/>
<rect x="14" y="7" width="1" height="1" fill="#be9340"/>
<rect x="22" y="7" width="1" height="1" fill="#be9241"/>
<rect x="5" y="7" width="1" height="1" fill="#434242"/>
<rect x="13" y="7" width="1" height="1" fill="#bd9340"/>
<rect x="29" y="7" width="1" height="1" fill="#bf9341"/>
<rect x="15" y="7" width="1" height="1" fill="#be9240"/>
<rect x="10" y="7" width="2" height="1" fill="#be933f"/>
<rect x="9" y="7" width="1" height="1" fill="#be9340"/>
<rect x="19" y="7" width="1" height="2" fill="#be9241"/>
<rect x="7" y="7" width="1" height="2" fill="#694d3b"/>
<rect x="4" y="7" width="1" height="2" fill="#434241"/>
<rect x="21" y="8" width="2" height="1" fill="#be9241"/>
<rect x="11" y="8" width="1" height="1" fill="#ba9043"/>
<rect x="3" y="8" width="1" height="1" fill="#403f3b"/>
<rect x="12" y="8" width="2" height="1" fill="#be9340"/>
<rect x="14" y="8" width="1" height="1" fill="#be933f"/>
<rect x="9" y="8" width="1" height="1" fill="#ba9043"/>
<rect x="15" y="8" width="2" height="1" fill="#be9340"/>
<rect x="27" y="8" width="1" height="1" fill="#bf9341"/>
<rect x="1" y="8" width="2" height="1" fill="#3f3e3b"/>
<rect x="10" y="8" width="1" height="1" fill="#ae853f"/>
<rect x="31" y="8" width="1" height="1" fill="#bf9340"/>
<rect x="8" y="8" width="1" height="1" fill="#be923f"/>
<rect x="5" y="8" width="2" height="1" fill="#434141"/>
<rect x="0" y="8" width="1" height="1" fill="#694d3b"/>
<rect x="5" y="9" width="2" height="1" fill="#403f3b"/>
<rect x="8" y="9" width="2" height="1" fill="#474340"/>
<rect x="10" y="9" width="1" height="1" fill="#434241"/>
<rect x="18" y="9" width="1" height="1" fill="#be9340"/>
<rect x="0" y="9" width="4" height="1" fill="#694d3b"/>
<rect x="21" y="9" width="1" height="1" fill="#be9241"/>
<rect x="11" y="9" width="1" height="1" fill="#865a3c"/>
<rect x="22" y="9" width="1" height="1" fill="#be9342"/>
<rect x="29" y="9" width="1" height="1" fill="#be9340"/>
<rect x="7" y="9" width="1" height="1" fill="#424140"/>
<rect x="24" y="9" width="1" height="1" fill="#be9342"/>
<rect x="13" y="9" width="1" height="1" fill="#be9240"/>
<rect x="14" y="9" width="2" height="1" fill="#be9340"/>
<rect x="16" y="9" width="1" height="1" fill="#be9240"/>
<rect x="21" y="10" width="1" height="1" fill="#bf9342"/>
<rect x="28" y="10" width="2" height="1" fill="#bf9341"/>
<rect x="13" y="10" width="1" height="1" fill="#bd9340"/>
<rect x="0" y="10" width="1" height="1" fill="#995e3e"/>
<rect x="26" y="10" width="1" height="1" fill="#bf9342"/>
<rect x="8" y="10" width="1" height="1" fill="#434241"/>
<rect x="9" y="10" width="2" height="1" fill="#434141"/>
<rect x="30" y="10" width="1" height="1" fill="#bf9340"/>
<rect x="25" y="10" width="1" height="1" fill="#bf9341"/>
<rect x="15" y="10" width="2" height="2" fill="#be9340"/>
<rect x="19" y="10" width="2" height="2" fill="#be9241"/>
<rect x="7" y="10" width="1" height="2" fill="#403f3b"/>
<rect x="5" y="10" width="2" height="2" fill="#3f3e3b"/>
<rect x="9" y="11" width="1" height="1" fill="#434241"/>
<rect x="13" y="11" width="1" height="1" fill="#be9340"/>
<rect x="8" y="11" width="1" height="1" fill="#434242"/>
<rect x="22" y="11" width="1" height="1" fill="#be9241"/>
<rect x="21" y="11" width="1" height="1" fill="#be9342"/>
<rect x="29" y="11" width="1" height="1" fill="#bf9341"/>
<rect x="27" y="11" width="1" height="1" fill="#be9241"/>
<rect x="24" y="11" width="2" height="1" fill="#be9241"/>
<rect x="10" y="11" width="1" height="2" fill="#434141"/>
<rect x="17" y="12" width="1" height="1" fill="#bd9340"/>
<rect x="27" y="12" width="1" height="1" fill="#be9240"/>
<rect x="23" y="12" width="2" height="1" fill="#be9342"/>
<rect x="21" y="12" width="1" height="1" fill="#be9241"/>
<rect x="6" y="12" width="2" height="1" fill="#403f3b"/>
<rect x="13" y="12" width="2" height="1" fill="#bd9340"/>
<rect x="19" y="12" width="1" height="1" fill="#be9241"/>
<rect x="29" y="12" width="2" height="1" fill="#be9241"/>
<rect x="5" y="12" width="1" height="1" fill="#3f3e3b"/>
<rect x="28" y="12" width="1" height="1" fill="#bf9341"/>
<rect x="8" y="12" width="2" height="1" fill="#434241"/>
<rect x="4" y="9" width="1" height="5" fill="#474340"/>
<rect x="5" y="13" width="3" height="1" fill="#403f3b"/>
<rect x="15" y="13" width="2" height="1" fill="#bd9340"/>
<rect x="23" y="13" width="1" height="1" fill="#bf9342"/>
<rect x="24" y="13" width="1" height="1" fill="#bf9341"/>
<rect x="18" y="13" width="1" height="1" fill="#be9240"/>
<rect x="13" y="13" width="1" height="1" fill="#bd9340"/>
<rect x="30" y="13" width="1" height="1" fill="#bf9341"/>
<rect x="22" y="13" width="1" height="1" fill="#bf9341"/>
<rect x="17" y="13" width="1" height="1" fill="#be9241"/>
<rect x="25" y="13" width="1" height="1" fill="#be9241"/>
<rect x="26" y="13" width="1" height="1" fill="#be9340"/>
<rect x="12" y="9" width="1" height="6" fill="#c09440"/>
<rect x="11" y="10" width="1" height="5" fill="#694d3b"/>
<rect x="29" y="13" width="1" height="2" fill="#be9340"/>
<rect x="5" y="14" width="1" height="1" fill="#3f3f3b"/>
<rect x="6" y="14" width="2" height="1" fill="#3f3e3b"/>
<rect x="15" y="14" width="2" height="1" fill="#be9340"/>
<rect x="19" y="14" width="3" height="1" fill="#be9241"/>
<rect x="27" y="14" width="1" height="1" fill="#be9340"/>
<rect x="30" y="14" width="1" height="1" fill="#be9241"/>
<rect x="23" y="14" width="2" height="1" fill="#be9241"/>
<rect x="14" y="14" width="1" height="1" fill="#bd9340"/>
<rect x="18" y="14" width="1" height="1" fill="#bd9340"/>
<rect x="13" y="14" width="1" height="1" fill="#be9241"/>
<rect x="28" y="14" width="1" height="1" fill="#be9240"/>
<rect x="0" y="11" width="1" height="5" fill="#976c41"/>
<rect x="12" y="15" width="1" height="1" fill="#be9340"/>
<rect x="17" y="15" width="2" height="1" fill="#bd9340"/>
<rect x="26" y="15" width="2" height="1" fill="#be9240"/>
<rect x="16" y="15" width="1" height="1" fill="#be9340"/>
<rect x="22" y="15" width="2" height="1" fill="#bf9341"/>
<rect x="28" y="15" width="1" height="1" fill="#bf9340"/>
<rect x="14" y="15" width="1" height="1" fill="#be9241"/>
<rect x="29" y="15" width="2" height="1" fill="#bf9341"/>
<rect x="5" y="15" width="3" height="1" fill="#403f3b"/>
<rect x="8" y="13" width="1" height="4" fill="#434241"/>
<rect x="15" y="15" width="1" height="2" fill="#bd9340"/>
<rect x="5" y="16" width="1" height="1" fill="#3f3f3b"/>
<rect x="22" y="16" width="1" height="1" fill="#be9240"/>
<rect x="29" y="16" width="1" height="1" fill="#bf9340"/>
<rect x="12" y="16" width="1" height="1" fill="#bd9340"/>
<rect x="28" y="16" width="1" height="1" fill="#bf9341"/>
<rect x="30" y="16" width="1" height="1" fill="#bf9341"/>
<rect x="19" y="16" width="3" height="1" fill="#be9340"/>
<rect x="23" y="16" width="1" height="1" fill="#bf9340"/>
<rect x="6" y="16" width="2" height="1" fill="#403f3b"/>
<rect x="25" y="16" width="1" height="1" fill="#be9241"/>
<rect x="27" y="16" width="1" height="1" fill="#c09440"/>
<rect x="24" y="16" width="1" height="1" fill="#be9240"/>
<rect x="1" y="10" width="3" height="8" fill="#955a3c"/>
<rect x="0" y="16" width="1" height="2" fill="#995e3e"/>
<rect x="7" y="17" width="1" height="1" fill="#3f3e3b"/>
<rect x="13" y="17" width="1" height="1" fill="#be9340"/>
<rect x="20" y="17" width="2" height="1" fill="#be9340"/>
<rect x="6" y="17" width="1" height="1" fill="#403f3b"/>
<rect x="18" y="17" width="1" height="1" fill="#be9340"/>
<rect x="26" y="17" width="1" height="1" fill="#bf9341"/>
<rect x="23" y="17" width="2" height="1" fill="#bf9341"/>
<rect x="15" y="17" width="1" height="1" fill="#be9340"/>
<rect x="27" y="17" width="1" height="1" fill="#bf9240"/>
<rect x="17" y="17" width="1" height="1" fill="#bf9341"/>
<rect x="28" y="17" width="3" height="1" fill="#bf9340"/>
<rect x="4" y="14" width="1" height="5" fill="#694d3b"/>
<rect x="8" y="17" width="1" height="2" fill="#434141"/>
<rect x="22" y="18" width="1" height="1" fill="#be9340"/>
<rect x="17" y="18" width="1" height="1" fill="#be9340"/>
<rect x="16" y="18" width="1" height="1" fill="#bd9340"/>
<rect x="25" y="18" width="1" height="1" fill="#bf9340"/>
<rect x="13" y="18" width="1" height="1" fill="#bd9340"/>
<rect x="23" y="18" width="1" height="1" fill="#be9240"/>
<rect x="28" y="18" width="1" height="1" fill="#be9340"/>
<rect x="5" y="17" width="1" height="3" fill="#3f3e3b"/>
<rect x="12" y="17" width="1" height="3" fill="#ba9043"/>
<rect x="29" y="18" width="1" height="2" fill="#bf9340"/>
<rect x="27" y="18" width="1" height="2" fill="#be9240"/>
<rect x="26" y="18" width="1" height="2" fill="#bf9240"/>
<rect x="30" y="18" width="1" height="2" fill="#bf9341"/>
<rect x="18" y="19" width="1" height="1" fill="#bf9341"/>
<rect x="21" y="19" width="1" height="1" fill="#be9340"/>
<rect x="19" y="19" width="1" height="1" fill="#be9340"/>
<rect x="23" y="19" width="1" height="1" fill="#be9340"/>
<rect x="25" y="19" width="1" height="1" fill="#be9241"/>
<rect x="31" y="9" width="1" height="12" fill="#c09440"/>
<rect x="9" y="13" width="2" height="8" fill="#434242"/>
<rect x="11" y="15" width="1" height="6" fill="#474340"/>
<rect x="6" y="18" width="2" height="3" fill="#403f3b"/>
<rect x="0" y="18" width="2" height="3" fill="#995e3e"/>
<rect x="5" y="20" width="1" height="1" fill="#3f3f3b"/>
<rect x="26" y="20" width="1" height="1" fill="#be9240"/>
<rect x="24" y="20" width="2" height="1" fill="#be9340"/>
<rect x="13" y="20" width="3" height="1" fill="#be9340"/>
<rect x="27" y="20" width="1" height="1" fill="#be9340"/>
<rect x="30" y="20" width="1" height="1" fill="#bf9340"/>
<rect x="19" y="20" width="3" height="1" fill="#be9340"/>
<rect x="29" y="20" width="1" height="2" fill="#bf9341"/>
<rect x="28" y="20" width="1" height="2" fill="#bf9340"/>
<rect x="12" y="20" width="1" height="2" fill="#ae853f"/>
<rect x="1" y="21" width="1" height="1" fill="#976c41"/>
<rect x="5" y="21" width="3" height="1" fill="#403f3b"/>
<rect x="23" y="21" width="1" height="1" fill="#bf9341"/>
<rect x="0" y="21" width="1" height="1" fill="#995e3e"/>
<rect x="30" y="21" width="2" height="1" fill="#c09440"/>
<rect x="13" y="21" width="1" height="1" fill="#be9240"/>
<rect x="25" y="21" width="3" height="1" fill="#be9340"/>
<rect x="16" y="21" width="1" height="1" fill="#be9241"/>
<rect x="19" y="21" width="1" height="1" fill="#bd9340"/>
<rect x="15" y="21" width="1" height="1" fill="#bd9340"/>
<rect x="17" y="21" width="2" height="1" fill="#be9340"/>
<rect x="20" y="21" width="3" height="1" fill="#be9340"/>
<rect x="14" y="21" width="1" height="1" fill="#be9241"/>
<rect x="2" y="18" width="2" height="5" fill="#955a3c"/>
<rect x="4" y="19" width="1" height="4" fill="#865a3c"/>
<rect x="9" y="21" width="3" height="2" fill="#434242"/>
<rect x="5" y="22" width="2" height="1" fill="#403f3b"/>
<rect x="26" y="22" width="5" height="1" fill="#bf9340"/>
<rect x="19" y="22" width="4" height="1" fill="#be9340"/>
<rect x="7" y="22" width="1" height="1" fill="#3f3e3b"/>
<rect x="25" y="22" width="1" height="1" fill="#bf9341"/>
<rect x="8" y="19" width="1" height="5" fill="#424140"/>
<rect x="31" y="22" width="1" height="2" fill="#c09440"/>
<rect x="23" y="23" width="2" height="1" fill="#be9340"/>
<rect x="22" y="23" width="1" height="1" fill="#be9240"/>
<rect x="10" y="23" width="2" height="1" fill="#434241"/>
<rect x="5" y="23" width="3" height="1" fill="#403f3b"/>
<rect x="30" y="23" width="1" height="1" fill="#bf9240"/>
<rect x="18" y="23" width="1" height="1" fill="#be9240"/>
<rect x="19" y="23" width="3" height="1" fill="#be9340"/>
<rect x="29" y="23" width="1" height="1" fill="#bf9341"/>
<rect x="27" y="23" width="1" height="1" fill="#bf9240"/>
<rect x="28" y="23" width="1" height="1" fill="#be9340"/>
<rect x="25" y="23" width="2" height="1" fill="#be9240"/>
<rect x="0" y="22" width="1" height="3" fill="#955a3c"/>
<rect x="17" y="24" width="2" height="1" fill="#bf9340"/>
<rect x="11" y="24" width="1" height="1" fill="#434242"/>
<rect x="21" y="24" width="3" height="1" fill="#be9340"/>
<rect x="7" y="24" width="2" height="1" fill="#403f3b"/>
<rect x="6" y="24" width="1" height="1" fill="#3f3e3b"/>
<rect x="27" y="24" width="1" height="1" fill="#be9241"/>
<rect x="10" y="24" width="1" height="1" fill="#434241"/>
<rect x="28" y="24" width="2" height="1" fill="#bf9240"/>
<rect x="1" y="22" width="1" height="4" fill="#995e3e"/>
<rect x="2" y="23" width="3" height="3" fill="#955a3c"/>
<rect x="9" y="23" width="1" height="3" fill="#434242"/>
<rect x="30" y="24" width="1" height="2" fill="#bf9341"/>
<rect x="24" y="24" width="1" height="2" fill="#be9240"/>
<rect x="6" y="25" width="2" height="1" fill="#3f3e3b"/>
<rect x="11" y="25" width="1" height="1" fill="#434241"/>
<rect x="8" y="25" width="1" height="1" fill="#403f3b"/>
<rect x="27" y="25" width="1" height="1" fill="#bf9340"/>
<rect x="0" y="25" width="1" height="1" fill="#694d3b"/>
<rect x="18" y="25" width="1" height="1" fill="#be9240"/>
<rect x="29" y="25" width="1" height="1" fill="#bf9240"/>
<rect x="23" y="25" width="1" height="1" fill="#be9340"/>
<rect x="19" y="25" width="1" height="1" fill="#bf9340"/>
<rect x="17" y="25" width="1" height="1" fill="#bf9341"/>
<rect x="25" y="25" width="1" height="1" fill="#be9241"/>
<rect x="28" y="25" width="1" height="1" fill="#be9340"/>
<rect x="12" y="22" width="1" height="5" fill="#976c41"/>
<rect x="5" y="24" width="1" height="3" fill="#474340"/>
<rect x="26" y="24" width="1" height="3" fill="#be9340"/>
<rect x="10" y="25" width="1" height="2" fill="#434141"/>
<rect x="20" y="25" width="1" height="2" fill="#be9340"/>
<rect x="9" y="26" width="1" height="1" fill="#434241"/>
<rect x="22" y="26" width="1" height="1" fill="#be9340"/>
<rect x="6" y="26" width="3" height="1" fill="#424140"/>
<rect x="25" y="26" width="1" height="1" fill="#be9240"/>
<rect x="29" y="26" width="2" height="1" fill="#be9340"/>
<rect x="18" y="26" width="1" height="1" fill="#bf9340"/>
<rect x="11" y="26" width="1" height="1" fill="#424140"/>
<rect x="2" y="26" width="3" height="1" fill="#694d3b"/>
<rect x="24" y="26" width="1" height="1" fill="#be933f"/>
<rect x="17" y="26" width="1" height="1" fill="#bf9240"/>
<rect x="27" y="26" width="1" height="1" fill="#bf9341"/>
<rect x="1" y="26" width="1" height="2" fill="#474340"/>
<rect x="23" y="26" width="1" height="2" fill="#bd9340"/>
<rect x="21" y="27" width="2" height="1" fill="#be9340"/>
<rect x="18" y="27" width="1" height="1" fill="#bf9240"/>
<rect x="7" y="27" width="1" height="1" fill="#434242"/>
<rect x="10" y="27" width="2" height="1" fill="#434141"/>
<rect x="27" y="27" width="1" height="1" fill="#bd9340"/>
<rect x="19" y="27" width="1" height="1" fill="#be9240"/>
<rect x="3" y="27" width="2" height="1" fill="#3f3e3b"/>
<rect x="24" y="27" width="3" height="1" fill="#be9340"/>
<rect x="28" y="27" width="1" height="1" fill="#be9340"/>
<rect x="2" y="27" width="1" height="1" fill="#393733"/>
<rect x="8" y="27" width="2" height="1" fill="#434241"/>
<rect x="6" y="27" width="1" height="1" fill="#434141"/>
<rect x="23" y="28" width="2" height="1" fill="#be9340"/>
<rect x="18" y="28" width="1" height="1" fill="#bf9341"/>
<rect x="25" y="28" width="2" height="1" fill="#bd9340"/>
<rect x="19" y="28" width="1" height="1" fill="#be9241"/>
<rect x="7" y="28" width="1" height="1" fill="#434241"/>
<rect x="2" y="28" width="3" height="1" fill="#3f3e3b"/>
<rect x="8" y="28" width="2" height="1" fill="#434141"/>
<rect x="22" y="28" width="1" height="1" fill="#bd9340"/>
<rect x="1" y="28" width="1" height="1" fill="#403f3b"/>
<rect x="21" y="28" width="1" height="1" fill="#be9240"/>
<rect x="11" y="28" width="1" height="1" fill="#434141"/>
<rect x="27" y="28" width="2" height="1" fill="#be9340"/>
<rect x="10" y="28" width="1" height="1" fill="#434241"/>
<rect x="29" y="28" width="2" height="1" fill="#bd9340"/>
<rect x="6" y="28" width="1" height="1" fill="#434242"/>
<rect x="20" y="28" width="1" height="1" fill="#be9340"/>
<rect x="12" y="27" width="1" height="3" fill="#865a3c"/>
<rect x="5" y="27" width="1" height="3" fill="#424140"/>
<rect x="9" y="29" width="1" height="1" fill="#434141"/>
<rect x="1" y="29" width="4" height="1" fill="#3f3e3b"/>
<rect x="29" y="29" width="1" height="1" fill="#be9241"/>
<rect x="22" y="29" width="4" height="1" fill="#be9340"/>
<rect x="10" y="29" width="2" height="1" fill="#424140"/>
<rect x="27" y="29" width="1" height="1" fill="#be9340"/>
<rect x="8" y="29" width="1" height="1" fill="#424140"/>
<rect x="7" y="29" width="1" height="1" fill="#434141"/>
<rect x="19" y="29" width="1" height="1" fill="#be9240"/>
<rect x="21" y="29" width="1" height="1" fill="#bf9341"/>
<rect x="6" y="29" width="1" height="1" fill="#434241"/>
<rect x="13" y="22" width="3" height="9" fill="#b9813d"/>
<rect x="0" y="26" width="1" height="5" fill="#393733"/>
<rect x="26" y="30" width="1" height="1" fill="#be9240"/>
<rect x="9" y="30" width="4" height="1" fill="#976c41"/>
<rect x="22" y="30" width="1" height="1" fill="#bf9340"/>
<rect x="30" y="30" width="1" height="1" fill="#be9342"/>
<rect x="21" y="30" width="1" height="1" fill="#be9240"/>
<rect x="27" y="30" width="1" height="1" fill="#bd9340"/>
<rect x="1" y="30" width="1" height="1" fill="#3f3e3b"/>
<rect x="17" y="30" width="2" height="1" fill="#bf9341"/>
<rect x="23" y="30" width="3" height="1" fill="#be9340"/>
<rect x="3" y="30" width="3" height="1" fill="#424140"/>
<rect x="6" y="30" width="1" height="1" fill="#434141"/>
<rect x="16" y="22" width="1" height="10" fill="#be9140"/>
<rect x="31" y="24" width="1" height="8" fill="#c39744"/>
<rect x="7" y="30" width="1" height="2" fill="#434241"/>
<rect x="2" y="30" width="1" height="2" fill="#474340"/>
<rect x="20" y="30" width="1" height="2" fill="#bf9341"/>
<rect x="8" y="30" width="1" height="2" fill="#474340"/>
<rect x="10" y="31" width="6" height="1" fill="#b9813d"/>
<rect x="18" y="31" width="2" height="1" fill="#bf9340"/>
<rect x="22" y="31" width="2" height="1" fill="#be9241"/>
<rect x="9" y="31" width="1" height="1" fill="#ae853f"/>
<rect x="5" y="31" width="2" height="1" fill="#434141"/>
<rect x="0" y="31" width="2" height="1" fill="#393733"/>
<rect x="25" y="31" width="1" height="1" fill="#be9340"/>
<rect x="29" y="31" width="1" height="1" fill="#be9241"/>
<rect x="30" y="31" width="1" height="1" fill="#bf9342"/>
<rect x="3" y="31" width="1" height="1" fill="#424140"/>
<rect x="4" y="31" width="1" height="1" fill="#434241"/>
<rect x="21" y="31" width="1" height="1" fill="#bf9240"/>
<rect x="17" y="31" width="1" height="1" fill="#bf9341"/>
</svg>