<?xml version="1.0" encoding="UTF-8"?>
<svg xmlns="http://www.w3.org/2000/svg" width="20mm" height="20mm" viewBox="0 0 32 32" shape-rendering="crispEdges">
<title>048 右侧面 structured semantic redraw</title>
<metadata>registered 32-unit semantic vector redraw; no embedded raster; physical-size=20mm</metadata>
<rect x="0" y="0" width="32" height="32" fill="#3d3d3d"/>
<rect x="13" y="0" width="1" height="1" fill="#3a3a3a"/>
<rect x="29" y="0" width="1" height="1" fill="#414141"/>
<rect x="14" y="0" width="3" height="1" fill="#393939"/>
<rect x="18" y="0" width="4" height="1" fill="#3c3c3c"/>
<rect x="27" y="0" width="1" height="1" fill="#3e3e3e"/>
<rect x="24" y="0" width="1" height="1" fill="#3c3c3c"/>
<rect x="0" y="0" width="7" height="1" fill="#555454"/>
<rect x="8" y="0" width="1" height="1" fill="#434343"/>
<rect x="9" y="0" width="1" height="1" fill="#3e3e3e"/>
<rect x="30" y="0" width="1" height="1" fill="#414040"/>
<rect x="7" y="0" width="1" height="1" fill="#484746"/>
<rect x="10" y="0" width="1" height="1" fill="#3c3c3c"/>
<rect x="17" y="0" width="1" height="1" fill="#3b3b3b"/>
<rect x="11" y="0" width="2" height="1" fill="#3b3b3b"/>
<rect x="28" y="0" width="1" height="2" fill="#404040"/>
<rect x="22" y="0" width="2" height="2" fill="#3b3b3b"/>
<rect x="31" y="0" width="1" height="2" fill="#404040"/>
<rect x="26" y="1" width="2" height="1" fill="#3e3e3e"/>
<rect x="1" y="1" width="1" height="1" fill="#434343"/>
<rect x="4" y="1" width="3" height="1" fill="#3c3c3c"/>
<rect x="29" y="1" width="2" height="1" fill="#414141"/>
<rect x="20" y="1" width="1" height="1" fill="#3b3b3b"/>
<rect x="8" y="1" width="1" height="1" fill="#3a3a3a"/>
<rect x="17" y="1" width="2" height="1" fill="#3c3c3c"/>
<rect x="7" y="1" width="1" height="1" fill="#3b3b3b"/>
<rect x="9" y="1" width="2" height="1" fill="#3b3b3b"/>
<rect x="11" y="1" width="2" height="1" fill="#3c3c3c"/>
<rect x="0" y="1" width="1" height="1" fill="#454544"/>
<rect x="21" y="1" width="1" height="1" fill="#3c3c3c"/>
<rect x="13" y="1" width="4" height="1" fill="#3a3a3a"/>
<rect x="2" y="1" width="1" height="2" fill="#3f3f3f"/>
<rect x="22" y="2" width="1" height="1" fill="#3b3b3b"/>
<rect x="27" y="2" width="4" height="1" fill="#3f3f3f"/>
<rect x="9" y="2" width="1" height="1" fill="#3b3b3b"/>
<rect x="19" y="2" width="3" height="1" fill="#3c3c3c"/>
<rect x="0" y="2" width="1" height="1" fill="#3b3b3b"/>
<rect x="26" y="2" width="1" height="1" fill="#3e3e3e"/>
<rect x="31" y="2" width="1" height="1" fill="#3f3e3e"/>
<rect x="17" y="2" width="1" height="1" fill="#3c3c3c"/>
<rect x="1" y="2" width="1" height="1" fill="#3f3e3e"/>
<rect x="6" y="2" width="3" height="1" fill="#3c3c3c"/>
<rect x="3" y="2" width="1" height="1" fill="#3e3e3e"/>
<rect x="10" y="2" width="1" height="1" fill="#3c3c3c"/>
<rect x="11" y="2" width="6" height="2" fill="#3a3a3a"/>
<rect x="26" y="3" width="5" height="1" fill="#3f3f3f"/>
<rect x="10" y="3" width="1" height="1" fill="#3b3b3b"/>
<rect x="0" y="3" width="1" height="1" fill="#3a3a3a"/>
<rect x="18" y="3" width="2" height="1" fill="#3c3c3c"/>
<rect x="20" y="3" width="3" height="1" fill="#3b3b3b"/>
<rect x="2" y="3" width="1" height="1" fill="#3e3e3e"/>
<rect x="24" y="3" width="2" height="1" fill="#3e3e3e"/>
<rect x="31" y="3" width="1" height="1" fill="#3e3e3e"/>
<rect x="6" y="3" width="4" height="1" fill="#3c3c3c"/>
<rect x="23" y="2" width="1" height="3" fill="#3c3c3c"/>
<rect x="17" y="3" width="1" height="2" fill="#3b3b3b"/>
<rect x="19" y="4" width="4" height="1" fill="#3b3b3b"/>
<rect x="24" y="4" width="1" height="1" fill="#3e3e3e"/>
<rect x="0" y="4" width="2" height="1" fill="#3c3c3c"/>
<rect x="9" y="4" width="3" height="1" fill="#3b3b3b"/>
<rect x="27" y="4" width="1" height="1" fill="#3e3e3e"/>
<rect x="28" y="4" width="1" height="1" fill="#3f3f3f"/>
<rect x="18" y="4" width="1" height="1" fill="#3a3a3a"/>
<rect x="29" y="4" width="2" height="1" fill="#3e3e3e"/>
<rect x="6" y="4" width="3" height="1" fill="#3c3c3c"/>
<rect x="12" y="4" width="2" height="1" fill="#3c3c3c"/>
<rect x="25" y="4" width="2" height="1" fill="#3f3f3f"/>
<rect x="16" y="4" width="1" height="2" fill="#3a3a3a"/>
<rect x="15" y="4" width="1" height="2" fill="#3b3b3b"/>
<rect x="10" y="5" width="1" height="1" fill="#3b3b3b"/>
<rect x="0" y="5" width="1" height="1" fill="#3f3f3e"/>
<rect x="20" y="5" width="4" height="1" fill="#3c3c3c"/>
<rect x="24" y="5" width="5" height="1" fill="#3e3e3e"/>
<rect x="11" y="5" width="1" height="1" fill="#3c3c3c"/>
<rect x="17" y="5" width="3" height="1" fill="#3b3b3b"/>
<rect x="6" y="5" width="4" height="1" fill="#3a3a3a"/>
<rect x="4" y="5" width="2" height="1" fill="#3b3b3b"/>
<rect x="1" y="5" width="1" height="2" fill="#3b3b3b"/>
<rect x="3" y="5" width="1" height="2" fill="#3c3c3c"/>
<rect x="22" y="6" width="2" height="1" fill="#3c3c3c"/>
<rect x="24" y="6" width="4" height="1" fill="#3f3f3f"/>
<rect x="9" y="6" width="1" height="1" fill="#3b3b3b"/>
<rect x="0" y="6" width="1" height="1" fill="#424241"/>
<rect x="16" y="6" width="1" height="1" fill="#3c3c3c"/>
<rect x="10" y="6" width="1" height="1" fill="#3c3c3c"/>
<rect x="4" y="6" width="2" height="1" fill="#3a3a3a"/>
<rect x="6" y="6" width="1" height="1" fill="#3b3b3b"/>
<rect x="19" y="6" width="1" height="1" fill="#3e3e3e"/>
<rect x="7" y="6" width="2" height="1" fill="#3a3a3a"/>
<rect x="26" y="7" width="2" height="1" fill="#3e3e3e"/>
<rect x="24" y="7" width="1" height="1" fill="#3e3e3e"/>
<rect x="7" y="7" width="2" height="1" fill="#3c3c3c"/>
<rect x="13" y="7" width="2" height="1" fill="#3e3e3e"/>
<rect x="22" y="7" width="1" height="1" fill="#3c3c3c"/>
<rect x="25" y="7" width="1" height="1" fill="#3f3f3f"/>
<rect x="18" y="7" width="3" height="1" fill="#3e3e3e"/>
<rect x="30" y="7" width="1" height="1" fill="#3c3c3c"/>
<rect x="2" y="7" width="5" height="1" fill="#3b3b3b"/>
<rect x="1" y="7" width="1" height="1" fill="#3a3a3a"/>
<rect x="31" y="5" width="1" height="4" fill="#3b3b3b"/>
<rect x="9" y="7" width="1" height="2" fill="#3f3f3f"/>
<rect x="11" y="7" width="1" height="2" fill="#404040"/>
<rect x="12" y="7" width="1" height="2" fill="#3f3f3f"/>
<rect x="0" y="7" width="1" height="2" fill="#454544"/>
<rect x="10" y="7" width="1" height="2" fill="#424241"/>
<rect x="24" y="8" width="1" height="1" fill="#3f3f3f"/>
<rect x="1" y="8" width="1" height="1" fill="#383838"/>
<rect x="13" y="8" width="1" height="1" fill="#3e3e3e"/>
<rect x="25" y="8" width="1" height="1" fill="#3e3e3e"/>
<rect x="28" y="8" width="3" height="1" fill="#3c3c3c"/>
<rect x="8" y="8" width="1" height="1" fill="#3c3c3c"/>
<rect x="7" y="8" width="1" height="1" fill="#3b3c3c"/>
<rect x="2" y="8" width="4" height="2" fill="#3b3b3b"/>
<rect x="6" y="8" width="1" height="2" fill="#3c3c3c"/>
<rect x="19" y="8" width="4" height="2" fill="#3c3c3c"/>
<rect x="26" y="9" width="2" height="1" fill="#3e3e3e"/>
<rect x="29" y="9" width="1" height="1" fill="#3c3c3c"/>
<rect x="16" y="9" width="1" height="1" fill="#3e3e3e"/>
<rect x="24" y="9" width="2" height="1" fill="#3f3f3f"/>
<rect x="8" y="9" width="1" height="1" fill="#3e3e3e"/>
<rect x="11" y="9" width="1" height="1" fill="#3e3e3e"/>
<rect x="31" y="9" width="1" height="1" fill="#3c3c3c"/>
<rect x="9" y="9" width="2" height="1" fill="#3f3f3f"/>
<rect x="18" y="10" width="6" height="1" fill="#3c3c3c"/>
<rect x="8" y="10" width="2" height="1" fill="#3f3f3f"/>
<rect x="14" y="10" width="1" height="1" fill="#3e3e3e"/>
<rect x="4" y="10" width="2" height="1" fill="#3c3c3c"/>
<rect x="10" y="10" width="2" height="1" fill="#3f3e3e"/>
<rect x="28" y="10" width="3" height="2" fill="#3e3e3e"/>
<rect x="2" y="10" width="2" height="2" fill="#3b3b3b"/>
<rect x="15" y="11" width="2" height="1" fill="#3b3b3b"/>
<rect x="14" y="11" width="1" height="1" fill="#3c3c3c"/>
<rect x="8" y="11" width="1" height="1" fill="#3e3e3e"/>
<rect x="5" y="11" width="1" height="1" fill="#3c3c3c"/>
<rect x="17" y="11" width="1" height="1" fill="#3c3c3c"/>
<rect x="24" y="11" width="2" height="1" fill="#3c3c3c"/>
<rect x="19" y="11" width="4" height="1" fill="#3c3c3c"/>
<rect x="18" y="11" width="1" height="1" fill="#3b3b3b"/>
<rect x="28" y="12" width="1" height="1" fill="#3e3e3e"/>
<rect x="14" y="12" width="2" height="1" fill="#3c3c3c"/>
<rect x="17" y="12" width="6" height="1" fill="#3c3c3c"/>
<rect x="16" y="12" width="1" height="1" fill="#3b3b3b"/>
<rect x="25" y="12" width="2" height="1" fill="#3e3e3e"/>
<rect x="0" y="9" width="1" height="5" fill="#484746"/>
<rect x="3" y="12" width="1" height="2" fill="#3b3b3b"/>
<rect x="30" y="12" width="1" height="2" fill="#3e3e3e"/>
<rect x="2" y="12" width="1" height="2" fill="#3c3c3c"/>
<rect x="13" y="13" width="1" height="1" fill="#3c3c3c"/>
<rect x="22" y="13" width="7" height="1" fill="#3e3e3e"/>
<rect x="10" y="13" width="1" height="1" fill="#3c3c3c"/>
<rect x="5" y="13" width="1" height="1" fill="#3e3e3e"/>
<rect x="16" y="13" width="2" height="2" fill="#3c3c3c"/>
<rect x="14" y="13" width="2" height="2" fill="#3b3b3b"/>
<rect x="0" y="14" width="1" height="1" fill="#424241"/>
<rect x="31" y="14" width="1" height="1" fill="#3c3c3d"/>
<rect x="6" y="14" width="1" height="1" fill="#3e3d3d"/>
<rect x="5" y="14" width="1" height="1" fill="#404040"/>
<rect x="22" y="14" width="8" height="1" fill="#3e3e3e"/>
<rect x="4" y="14" width="1" height="1" fill="#3f3e3e"/>
<rect x="2" y="14" width="1" height="1" fill="#3b3b3b"/>
<rect x="1" y="9" width="1" height="7" fill="#363636"/>
<rect x="10" y="14" width="4" height="2" fill="#3c3c3c"/>
<rect x="3" y="14" width="1" height="2" fill="#3c3c3c"/>
<rect x="6" y="15" width="2" height="1" fill="#3e3e3e"/>
<rect x="5" y="15" width="1" height="1" fill="#403f3f"/>
<rect x="18" y="15" width="1" height="1" fill="#3f3f3f"/>
<rect x="20" y="15" width="2" height="1" fill="#424241"/>
<rect x="19" y="15" width="1" height="1" fill="#414040"/>
<rect x="24" y="15" width="4" height="1" fill="#3e3e3e"/>
<rect x="17" y="15" width="1" height="1" fill="#3e3e3e"/>
<rect x="0" y="15" width="1" height="1" fill="#3e3e3d"/>
<rect x="2" y="15" width="1" height="1" fill="#3a3a3a"/>
<rect x="4" y="15" width="1" height="1" fill="#3f3f3f"/>
<rect x="29" y="15" width="2" height="2" fill="#3c3c3c"/>
<rect x="22" y="15" width="2" height="2" fill="#404040"/>
<rect x="12" y="16" width="1" height="1" fill="#3c3c3c"/>
<rect x="3" y="16" width="4" height="1" fill="#3e3e3e"/>
<rect x="1" y="16" width="1" height="1" fill="#383838"/>
<rect x="16" y="16" width="1" height="1" fill="#3e3e3e"/>
<rect x="21" y="16" width="1" height="1" fill="#434343"/>
<rect x="17" y="16" width="1" height="1" fill="#3f3f3f"/>
<rect x="19" y="16" width="1" height="1" fill="#414141"/>
<rect x="25" y="16" width="2" height="1" fill="#3e3e3e"/>
<rect x="18" y="16" width="1" height="1" fill="#404040"/>
<rect x="0" y="16" width="1" height="1" fill="#3a3a39"/>
<rect x="20" y="16" width="1" height="1" fill="#454544"/>
<rect x="2" y="16" width="1" height="1" fill="#3b3b3b"/>
<rect x="14" y="16" width="1" height="2" fill="#3e3e3e"/>
<rect x="10" y="16" width="2" height="2" fill="#3b3b3b"/>
<rect x="8" y="16" width="2" height="2" fill="#3c3c3c"/>
<rect x="2" y="17" width="1" height="1" fill="#3a3b3b"/>
<rect x="23" y="17" width="1" height="1" fill="#3e3e3e"/>
<rect x="4" y="17" width="3" height="1" fill="#3e3e3e"/>
<rect x="21" y="17" width="1" height="1" fill="#403f3f"/>
<rect x="16" y="17" width="4" height="1" fill="#3f3f3f"/>
<rect x="26" y="17" width="2" height="1" fill="#3b3b3b"/>
<rect x="0" y="17" width="1" height="1" fill="#363636"/>
<rect x="28" y="17" width="1" height="1" fill="#3c3c3c"/>
<rect x="20" y="17" width="1" height="1" fill="#404040"/>
<rect x="15" y="17" width="1" height="1" fill="#3f3e3e"/>
<rect x="22" y="17" width="1" height="1" fill="#3f3f3f"/>
<rect x="29" y="17" width="1" height="1" fill="#3b3b3b"/>
<rect x="1" y="17" width="1" height="1" fill="#3c3b3b"/>
<rect x="31" y="15" width="1" height="4" fill="#3b3b3b"/>
<rect x="30" y="17" width="1" height="2" fill="#3c3c3c"/>
<rect x="24" y="17" width="2" height="2" fill="#3c3c3c"/>
<rect x="6" y="18" width="2" height="1" fill="#3c3c3c"/>
<rect x="1" y="18" width="1" height="1" fill="#3f3f3e"/>
<rect x="16" y="18" width="2" height="1" fill="#404040"/>
<rect x="26" y="18" width="4" height="1" fill="#3b3b3b"/>
<rect x="15" y="18" width="1" height="1" fill="#414040"/>
<rect x="18" y="18" width="6" height="1" fill="#3e3e3e"/>
<rect x="13" y="18" width="1" height="2" fill="#3e3e3e"/>
<rect x="14" y="18" width="1" height="2" fill="#404040"/>
<rect x="10" y="18" width="2" height="2" fill="#3c3c3c"/>
<rect x="2" y="18" width="1" height="2" fill="#3a3a3a"/>
<rect x="0" y="18" width="1" height="2" fill="#303030"/>
<rect x="3" y="18" width="1" height="2" fill="#3e3e3e"/>
<rect x="8" y="18" width="2" height="2" fill="#3b3b3b"/>
<rect x="24" y="19" width="1" height="1" fill="#3e3d3d"/>
<rect x="15" y="19" width="1" height="1" fill="#3f3f3f"/>
<rect x="20" y="19" width="1" height="1" fill="#3e3e3e"/>
<rect x="28" y="19" width="2" height="1" fill="#3c3c3c"/>
<rect x="17" y="19" width="1" height="1" fill="#3f3f3f"/>
<rect x="30" y="19" width="2" height="1" fill="#3b3b3b"/>
<rect x="18" y="19" width="1" height="1" fill="#3e3e3e"/>
<rect x="5" y="19" width="3" height="1" fill="#3c3c3c"/>
<rect x="16" y="19" width="1" height="1" fill="#403f3f"/>
<rect x="1" y="19" width="1" height="1" fill="#424241"/>
<rect x="3" y="20" width="3" height="1" fill="#3c3c3c"/>
<rect x="14" y="20" width="4" height="1" fill="#3e3e3e"/>
<rect x="13" y="20" width="1" height="1" fill="#404040"/>
<rect x="25" y="20" width="1" height="1" fill="#404040"/>
<rect x="28" y="20" width="3" height="1" fill="#3b3b3b"/>
<rect x="31" y="20" width="1" height="1" fill="#3c3b3b"/>
<rect x="8" y="20" width="2" height="1" fill="#3c3c3c"/>
<rect x="12" y="20" width="1" height="1" fill="#3f3f3f"/>
<rect x="2" y="20" width="1" height="1" fill="#393939"/>
<rect x="18" y="20" width="1" height="1" fill="#3c3c3c"/>
<rect x="24" y="20" width="1" height="1" fill="#403f3f"/>
<rect x="21" y="20" width="1" height="1" fill="#3c3c3c"/>
<rect x="22" y="20" width="1" height="2" fill="#3b3b3b"/>
<rect x="23" y="20" width="1" height="2" fill="#3c3c3c"/>
<rect x="1" y="20" width="1" height="2" fill="#454544"/>
<rect x="28" y="21" width="3" height="1" fill="#3c3c3c"/>
<rect x="14" y="21" width="2" height="1" fill="#3e3e3e"/>
<rect x="24" y="21" width="2" height="1" fill="#3f3f3f"/>
<rect x="11" y="21" width="1" height="1" fill="#3e3e3e"/>
<rect x="17" y="21" width="1" height="1" fill="#3e3e3e"/>
<rect x="9" y="21" width="1" height="1" fill="#3c3c3c"/>
<rect x="2" y="21" width="1" height="1" fill="#383838"/>
<rect x="12" y="21" width="1" height="1" fill="#403f3f"/>
<rect x="13" y="21" width="1" height="1" fill="#3f3f3f"/>
<rect x="18" y="21" width="4" height="1" fill="#3c3c3c"/>
<rect x="3" y="21" width="2" height="1" fill="#3c3c3c"/>
<rect x="26" y="22" width="4" height="1" fill="#3c3c3c"/>
<rect x="30" y="22" width="2" height="1" fill="#3e3e3e"/>
<rect x="14" y="22" width="1" height="1" fill="#3c3c3c"/>
<rect x="19" y="22" width="3" height="1" fill="#3b3b3b"/>
<rect x="12" y="22" width="2" height="1" fill="#3e3e3e"/>
<rect x="18" y="22" width="1" height="1" fill="#3c3c3c"/>
<rect x="16" y="22" width="2" height="1" fill="#3b3b3b"/>
<rect x="22" y="22" width="1" height="1" fill="#3e3e3e"/>
<rect x="3" y="22" width="1" height="1" fill="#3c3c3c"/>
<rect x="7" y="22" width="1" height="2" fill="#3c3c3c"/>
<rect x="26" y="23" width="2" height="1" fill="#3c3c3c"/>
<rect x="13" y="23" width="1" height="1" fill="#3e3e3e"/>
<rect x="29" y="23" width="1" height="1" fill="#3c3c3c"/>
<rect x="31" y="23" width="1" height="1" fill="#3f3f3f"/>
<rect x="14" y="23" width="2" height="1" fill="#3c3c3c"/>
<rect x="16" y="23" width="6" height="1" fill="#3b3b3b"/>
<rect x="1" y="22" width="1" height="3" fill="#484746"/>
<rect x="19" y="24" width="2" height="1" fill="#3c3c3c"/>
<rect x="11" y="24" width="3" height="1" fill="#3c3c3c"/>
<rect x="14" y="24" width="2" height="1" fill="#3e3e3e"/>
<rect x="5" y="24" width="2" height="1" fill="#3c3c3c"/>
<rect x="21" y="24" width="3" height="1" fill="#3b3b3b"/>
<rect x="2" y="22" width="1" height="4" fill="#393939"/>
<rect x="7" y="24" width="1" height="2" fill="#3a3a3a"/>
<rect x="30" y="24" width="1" height="2" fill="#3f3f3f"/>
<rect x="29" y="24" width="1" height="2" fill="#3e3e3e"/>
<rect x="8" y="24" width="1" height="2" fill="#3c3c3c"/>
<rect x="24" y="24" width="2" height="2" fill="#3c3c3c"/>
<rect x="31" y="24" width="1" height="2" fill="#424241"/>
<rect x="3" y="24" width="1" height="2" fill="#3e3e3e"/>
<rect x="10" y="25" width="3" height="1" fill="#3c3c3c"/>
<rect x="18" y="25" width="2" height="1" fill="#3c3c3c"/>
<rect x="27" y="25" width="1" height="1" fill="#3d3e3e"/>
<rect x="16" y="25" width="2" height="1" fill="#3e3e3e"/>
<rect x="13" y="25" width="1" height="1" fill="#3b3b3b"/>
<rect x="20" y="25" width="4" height="1" fill="#3b3b3b"/>
<rect x="5" y="25" width="1" height="1" fill="#3c3c3c"/>
<rect x="1" y="25" width="1" height="1" fill="#454544"/>
<rect x="6" y="25" width="1" height="1" fill="#3b3b3b"/>
<rect x="24" y="26" width="4" height="1" fill="#3f3f3f"/>
<rect x="13" y="26" width="1" height="1" fill="#3e3e3e"/>
<rect x="7" y="26" width="4" height="1" fill="#3c3c3c"/>
<rect x="1" y="26" width="1" height="1" fill="#434343"/>
<rect x="15" y="26" width="1" height="1" fill="#414141"/>
<rect x="14" y="26" width="1" height="1" fill="#414040"/>
<rect x="5" y="26" width="2" height="1" fill="#3b3b3b"/>
<rect x="11" y="26" width="1" height="1" fill="#3b3b3b"/>
<rect x="3" y="26" width="2" height="1" fill="#3c3c3c"/>
<rect x="16" y="26" width="2" height="1" fill="#3f3f3f"/>
<rect x="28" y="26" width="3" height="2" fill="#3e3e3e"/>
<rect x="20" y="26" width="2" height="2" fill="#3c3c3c"/>
<rect x="31" y="26" width="1" height="2" fill="#404040"/>
<rect x="2" y="26" width="1" height="2" fill="#363636"/>
<rect x="13" y="27" width="1" height="1" fill="#404040"/>
<rect x="18" y="27" width="2" height="1" fill="#3e3e3e"/>
<rect x="6" y="27" width="1" height="1" fill="#3b3b3b"/>
<rect x="3" y="27" width="2" height="1" fill="#3b3b3b"/>
<rect x="16" y="27" width="2" height="1" fill="#404040"/>
<rect x="12" y="27" width="1" height="1" fill="#3e3e3e"/>
<rect x="5" y="27" width="1" height="1" fill="#3a3a3a"/>
<rect x="11" y="27" width="1" height="1" fill="#3c3c3c"/>
<rect x="24" y="27" width="1" height="1" fill="#403f3f"/>
<rect x="26" y="27" width="1" height="1" fill="#403f3f"/>
<rect x="1" y="27" width="1" height="1" fill="#414040"/>
<rect x="14" y="27" width="1" height="1" fill="#424241"/>
<rect x="27" y="27" width="1" height="1" fill="#404040"/>
<rect x="9" y="27" width="2" height="1" fill="#3b3b3b"/>
<rect x="25" y="27" width="1" height="1" fill="#3f3f3f"/>
<rect x="15" y="27" width="1" height="1" fill="#434343"/>
<rect x="7" y="27" width="2" height="2" fill="#3c3c3c"/>
<rect x="25" y="28" width="3" height="1" fill="#3e3e3e"/>
<rect x="18" y="28" width="2" height="1" fill="#3c3c3c"/>
<rect x="13" y="28" width="1" height="1" fill="#424241"/>
<rect x="1" y="28" width="1" height="1" fill="#3f3e3d"/>
<rect x="23" y="28" width="2" height="1" fill="#3f3e3e"/>
<rect x="14" y="28" width="2" height="1" fill="#404040"/>
<rect x="4" y="28" width="1" height="1" fill="#3b3b3b"/>
<rect x="5" y="28" width="2" height="1" fill="#3a3a3a"/>
<rect x="11" y="28" width="1" height="1" fill="#3e3e3e"/>
<rect x="22" y="28" width="1" height="1" fill="#3f3f3f"/>
<rect x="2" y="28" width="1" height="1" fill="#383838"/>
<rect x="3" y="28" width="1" height="1" fill="#3a3a3a"/>
<rect x="12" y="28" width="1" height="1" fill="#404040"/>
<rect x="0" y="20" width="1" height="10" fill="#282828"/>
<rect x="3" y="29" width="4" height="1" fill="#3a3a3a"/>
<rect x="1" y="29" width="1" height="1" fill="#3b3a3a"/>
<rect x="2" y="29" width="1" height="1" fill="#3a3a39"/>
<rect x="15" y="29" width="1" height="1" fill="#3e3e3e"/>
<rect x="18" y="29" width="1" height="1" fill="#3b3b3b"/>
<rect x="29" y="29" width="2" height="1" fill="#3c3c3c"/>
<rect x="22" y="29" width="2" height="1" fill="#404040"/>
<rect x="19" y="29" width="1" height="1" fill="#3c3c3c"/>
<rect x="7" y="29" width="2" height="1" fill="#3b3b3b"/>
<rect x="16" y="29" width="2" height="1" fill="#3c3c3c"/>
<rect x="12" y="29" width="1" height="1" fill="#414141"/>
<rect x="13" y="29" width="1" height="1" fill="#434343"/>
<rect x="11" y="29" width="1" height="1" fill="#404040"/>
<rect x="21" y="29" width="1" height="1" fill="#3e3e3e"/>
<rect x="24" y="29" width="4" height="1" fill="#3e3e3e"/>
<rect x="10" y="29" width="1" height="1" fill="#3e3e3e"/>
<rect x="14" y="29" width="1" height="1" fill="#3f3f3f"/>
<rect x="31" y="28" width="1" height="3" fill="#3e3e3e"/>
<rect x="9" y="30" width="2" height="1" fill="#3f3e3e"/>
<rect x="13" y="30" width="1" height="1" fill="#3e3e3e"/>
<rect x="20" y="30" width="2" height="1" fill="#3e3e3e"/>
<rect x="15" y="30" width="5" height="1" fill="#3c3c3c"/>
<rect x="11" y="30" width="2" height="1" fill="#3f3f3f"/>
<rect x="26" y="30" width="1" height="1" fill="#3e3e3e"/>
<rect x="2" y="30" width="1" height="1" fill="#3d3d3c"/>
<rect x="22" y="30" width="2" height="1" fill="#3f3f3f"/>
<rect x="30" y="30" width="1" height="1" fill="#3c3c3c"/>
<rect x="3" y="30" width="2" height="1" fill="#3a3a3a"/>
<rect x="7" y="30" width="1" height="2" fill="#3c3c3c"/>
<rect x="0" y="30" width="1" height="2" fill="#303030"/>
<rect x="5" y="30" width="2" height="2" fill="#3b3b3b"/>
<rect x="1" y="30" width="1" height="2" fill="#363636"/>
<rect x="25" y="31" width="1" height="1" fill="#3e3e3e"/>
<rect x="4" y="31" width="1" height="1" fill="#3a3a3a"/>
<rect x="2" y="31" width="1" height="1" fill="#40403f"/>
<rect x="31" y="31" width="1" height="1" fill="#3f3f3f"/>
<rect x="20" y="31" width="4" height="1" fill="#3e3e3e"/>
<rect x="14" y="31" width="2" height="1" fill="#3c3c3c"/>
<rect x="27" y="31" width="4" height="1" fill="#3c3c3c"/>
<rect x="16" y="31" width="1" height="1" fill="#3b3b3b"/>
<rect x="3" y="31" width="1" height="1" fill="#393939"/>
<rect x="17" y="31" width="3" height="1" fill="#3c3c3c"/>
<rect x="9" y="31" width="2" height="1" fill="#3f3f3f"/>
</svg>