<?xml version="1.0" encoding="UTF-8"?>
<svg xmlns="http://www.w3.org/2000/svg" width="20mm" height="20mm" viewBox="0 0 32 32" shape-rendering="crispEdges">
<title>157 顶面 structured semantic redraw</title>
<metadata>registered 32-unit semantic vector redraw; no embedded raster; physical-size=20mm</metadata>
<rect x="0" y="0" width="32" height="32" fill="#acd27c"/>
<rect x="28" y="0" width="1" height="1" fill="#83b567"/>
<rect x="5" y="0" width="1" height="1" fill="#8fca67"/>
<rect x="26" y="0" width="1" height="1" fill="#649b5c"/>
<rect x="23" y="0" width="1" height="1" fill="#7bb362"/>
<rect x="16" y="0" width="1" height="1" fill="#557958"/>
<rect x="7" y="0" width="1" height="1" fill="#709063"/>
<rect x="0" y="0" width="1" height="1" fill="#88c464"/>
<rect x="19" y="0" width="1" height="1" fill="#5b865a"/>
<rect x="29" y="0" width="1" height="1" fill="#8fca67"/>
<rect x="8" y="0" width="7" height="1" fill="#557958"/>
<rect x="15" y="0" width="1" height="1" fill="#669e5d"/>
<rect x="17" y="0" width="2" height="1" fill="#557f58"/>
<rect x="20" y="0" width="3" height="1" fill="#557f58"/>
<rect x="27" y="0" width="1" height="1" fill="#557f58"/>
<rect x="30" y="0" width="1" height="1" fill="#4d7e46"/>
<rect x="24" y="0" width="2" height="1" fill="#88c464"/>
<rect x="31" y="0" width="1" height="2" fill="#3d5b41"/>
<rect x="29" y="1" width="1" height="1" fill="#61995a"/>
<rect x="24" y="1" width="1" height="1" fill="#83b567"/>
<rect x="19" y="1" width="2" height="1" fill="#88c464"/>
<rect x="22" y="1" width="1" height="1" fill="#5d905a"/>
<rect x="8" y="1" width="4" height="1" fill="#557958"/>
<rect x="21" y="1" width="1" height="1" fill="#7bb362"/>
<rect x="15" y="1" width="1" height="1" fill="#8fca67"/>
<rect x="25" y="1" width="1" height="1" fill="#709063"/>
<rect x="26" y="1" width="1" height="1" fill="#557256"/>
<rect x="14" y="1" width="1" height="1" fill="#7bb362"/>
<rect x="5" y="1" width="1" height="1" fill="#669e5d"/>
<rect x="7" y="1" width="1" height="1" fill="#557f58"/>
<rect x="12" y="1" width="1" height="1" fill="#76a660"/>
<rect x="16" y="1" width="1" height="1" fill="#76a660"/>
<rect x="1" y="1" width="1" height="1" fill="#83b567"/>
<rect x="23" y="1" width="1" height="1" fill="#69a25c"/>
<rect x="30" y="1" width="1" height="1" fill="#477446"/>
<rect x="27" y="1" width="2" height="1" fill="#5b865a"/>
<rect x="4" y="1" width="1" height="1" fill="#7bb362"/>
<rect x="6" y="1" width="1" height="1" fill="#62905c"/>
<rect x="18" y="1" width="1" height="1" fill="#669e5d"/>
<rect x="13" y="1" width="1" height="1" fill="#8fca67"/>
<rect x="0" y="1" width="1" height="1" fill="#76a660"/>
<rect x="17" y="1" width="1" height="2" fill="#557f58"/>
<rect x="10" y="2" width="1" height="1" fill="#557f58"/>
<rect x="11" y="2" width="1" height="1" fill="#62905c"/>
<rect x="9" y="2" width="1" height="1" fill="#557958"/>
<rect x="16" y="2" width="1" height="1" fill="#5d905a"/>
<rect x="4" y="2" width="1" height="1" fill="#649b5c"/>
<rect x="24" y="2" width="1" height="1" fill="#f4f4ef"/>
<rect x="18" y="2" width="1" height="1" fill="#5b865a"/>
<rect x="12" y="2" width="4" height="1" fill="#8fca67"/>
<rect x="20" y="2" width="1" height="1" fill="#8fca67"/>
<rect x="3" y="2" width="1" height="1" fill="#76a660"/>
<rect x="1" y="2" width="1" height="1" fill="#62905c"/>
<rect x="0" y="2" width="1" height="1" fill="#61995a"/>
<rect x="19" y="2" width="1" height="1" fill="#7bb362"/>
<rect x="7" y="2" width="1" height="1" fill="#649b5c"/>
<rect x="29" y="2" width="1" height="1" fill="#557f58"/>
<rect x="31" y="2" width="1" height="1" fill="#466c4a"/>
<rect x="28" y="2" width="1" height="1" fill="#5b865a"/>
<rect x="6" y="2" width="1" height="1" fill="#83b567"/>
<rect x="30" y="2" width="1" height="1" fill="#4d7e46"/>
<rect x="21" y="2" width="1" height="1" fill="#95ca6c"/>
<rect x="5" y="2" width="1" height="1" fill="#557f58"/>
<rect x="8" y="2" width="1" height="1" fill="#557f58"/>
<rect x="27" y="2" width="1" height="1" fill="#649b5c"/>
<rect x="26" y="2" width="1" height="1" fill="#709063"/>
<rect x="25" y="2" width="1" height="1" fill="#a1b382"/>
<rect x="22" y="2" width="1" height="2" fill="#f4f4ef"/>
<rect x="6" y="3" width="1" height="1" fill="#8fca67"/>
<rect x="26" y="3" width="1" height="1" fill="#94c66b"/>
<rect x="12" y="3" width="1" height="1" fill="#7bb362"/>
<rect x="19" y="3" width="1" height="1" fill="#557f58"/>
<rect x="2" y="3" width="1" height="1" fill="#557958"/>
<rect x="20" y="3" width="1" height="1" fill="#76a660"/>
<rect x="5" y="3" width="1" height="1" fill="#88c464"/>
<rect x="1" y="3" width="1" height="1" fill="#61995a"/>
<rect x="28" y="3" width="2" height="1" fill="#88c464"/>
<rect x="18" y="3" width="1" height="1" fill="#7bb362"/>
<rect x="13" y="3" width="2" height="1" fill="#8fca67"/>
<rect x="30" y="3" width="1" height="1" fill="#52854f"/>
<rect x="21" y="3" width="1" height="1" fill="#c4d99c"/>
<rect x="3" y="3" width="1" height="1" fill="#649b5c"/>
<rect x="24" y="3" width="2" height="1" fill="#f4f4ef"/>
<rect x="4" y="3" width="1" height="1" fill="#5d905a"/>
<rect x="27" y="3" width="1" height="1" fill="#8fca67"/>
<rect x="17" y="3" width="1" height="1" fill="#8fca67"/>
<rect x="0" y="3" width="1" height="1" fill="#83b567"/>
<rect x="31" y="3" width="1" height="1" fill="#477446"/>
<rect x="15" y="3" width="1" height="1" fill="#83b567"/>
<rect x="11" y="3" width="1" height="1" fill="#61995a"/>
<rect x="23" y="2" width="1" height="3" fill="#c4d99c"/>
<rect x="16" y="3" width="1" height="2" fill="#7bb362"/>
<rect x="8" y="3" width="1" height="2" fill="#5d905a"/>
<rect x="9" y="3" width="2" height="2" fill="#649b5c"/>
<rect x="7" y="3" width="1" height="2" fill="#7bb362"/>
<rect x="20" y="4" width="1" height="1" fill="#83b567"/>
<rect x="29" y="4" width="1" height="1" fill="#88c464"/>
<rect x="3" y="4" width="1" height="1" fill="#5d905a"/>
<rect x="1" y="4" width="2" height="1" fill="#649b5c"/>
<rect x="24" y="4" width="1" height="1" fill="#f4f4ef"/>
<rect x="5" y="4" width="1" height="1" fill="#94c66b"/>
<rect x="21" y="4" width="2" height="1" fill="#f4f4ef"/>
<rect x="11" y="4" width="2" height="1" fill="#61995a"/>
<rect x="14" y="4" width="2" height="1" fill="#8fca67"/>
<rect x="0" y="4" width="1" height="1" fill="#69a25c"/>
<rect x="17" y="4" width="1" height="1" fill="#669e5d"/>
<rect x="19" y="4" width="1" height="1" fill="#7bb362"/>
<rect x="13" y="4" width="1" height="1" fill="#83b567"/>
<rect x="30" y="4" width="2" height="1" fill="#4d7e46"/>
<rect x="25" y="4" width="1" height="1" fill="#c4d99c"/>
<rect x="6" y="4" width="1" height="1" fill="#c4d99c"/>
<rect x="4" y="4" width="1" height="1" fill="#83b567"/>
<rect x="18" y="4" width="1" height="1" fill="#95ca6c"/>
<rect x="26" y="4" width="3" height="2" fill="#8fca67"/>
<rect x="4" y="5" width="3" height="1" fill="#f4f4ef"/>
<rect x="21" y="5" width="1" height="1" fill="#709063"/>
<rect x="0" y="5" width="3" height="1" fill="#649b5c"/>
<rect x="31" y="5" width="1" height="1" fill="#4d7e46"/>
<rect x="20" y="5" width="1" height="1" fill="#557256"/>
<rect x="12" y="5" width="1" height="1" fill="#669e5d"/>
<rect x="13" y="5" width="1" height="1" fill="#88c464"/>
<rect x="14" y="5" width="1" height="1" fill="#7bb362"/>
<rect x="17" y="5" width="1" height="1" fill="#83b567"/>
<rect x="7" y="5" width="1" height="1" fill="#a1b382"/>
<rect x="30" y="5" width="1" height="1" fill="#477446"/>
<rect x="10" y="5" width="2" height="1" fill="#649b5c"/>
<rect x="3" y="5" width="1" height="1" fill="#a1b382"/>
<rect x="16" y="5" width="1" height="1" fill="#557f58"/>
<rect x="19" y="5" width="1" height="1" fill="#62905c"/>
<rect x="9" y="5" width="1" height="1" fill="#61995a"/>
<rect x="8" y="5" width="1" height="1" fill="#557f58"/>
<rect x="22" y="5" width="2" height="1" fill="#f4f4ef"/>
<rect x="29" y="5" width="1" height="2" fill="#7bb362"/>
<rect x="25" y="5" width="1" height="2" fill="#88c464"/>
<rect x="15" y="5" width="1" height="2" fill="#5b865a"/>
<rect x="2" y="6" width="1" height="1" fill="#669e5d"/>
<rect x="12" y="6" width="1" height="1" fill="#88c464"/>
<rect x="13" y="6" width="1" height="1" fill="#69a25c"/>
<rect x="27" y="6" width="2" height="1" fill="#8fca67"/>
<rect x="6" y="6" width="2" height="1" fill="#f4f4ef"/>
<rect x="30" y="6" width="1" height="1" fill="#52854f"/>
<rect x="24" y="6" width="1" height="1" fill="#8fca67"/>
<rect x="3" y="6" width="1" height="1" fill="#f4f4ef"/>
<rect x="16" y="6" width="1" height="1" fill="#76a660"/>
<rect x="22" y="6" width="1" height="1" fill="#a1b382"/>
<rect x="9" y="6" width="1" height="1" fill="#5b865a"/>
<rect x="0" y="6" width="2" height="1" fill="#649b5c"/>
<rect x="5" y="6" width="1" height="1" fill="#a1b382"/>
<rect x="19" y="6" width="1" height="1" fill="#83b567"/>
<rect x="10" y="6" width="2" height="1" fill="#61995a"/>
<rect x="4" y="6" width="1" height="1" fill="#c4d99c"/>
<rect x="14" y="6" width="1" height="1" fill="#557f58"/>
<rect x="23" y="6" width="1" height="1" fill="#c4d99c"/>
<rect x="8" y="6" width="1" height="2" fill="#557958"/>
<rect x="20" y="6" width="2" height="2" fill="#557256"/>
<rect x="22" y="7" width="1" height="1" fill="#61995a"/>
<rect x="16" y="7" width="1" height="1" fill="#88c464"/>
<rect x="1" y="7" width="1" height="1" fill="#61995a"/>
<rect x="9" y="7" width="1" height="1" fill="#557f58"/>
<rect x="10" y="7" width="1" height="1" fill="#5b865a"/>
<rect x="13" y="7" width="1" height="1" fill="#5d905a"/>
<rect x="29" y="7" width="1" height="1" fill="#548a4e"/>
<rect x="3" y="7" width="3" height="1" fill="#f4f4ef"/>
<rect x="19" y="7" width="1" height="1" fill="#7bb362"/>
<rect x="11" y="7" width="1" height="1" fill="#649b5c"/>
<rect x="12" y="7" width="1" height="1" fill="#8fca67"/>
<rect x="14" y="7" width="1" height="1" fill="#669e5d"/>
<rect x="0" y="7" width="1" height="1" fill="#5d905a"/>
<rect x="27" y="7" width="1" height="1" fill="#8fca67"/>
<rect x="7" y="7" width="1" height="1" fill="#5b865a"/>
<rect x="28" y="7" width="1" height="1" fill="#88c464"/>
<rect x="6" y="7" width="1" height="1" fill="#c4d99c"/>
<rect x="23" y="7" width="2" height="1" fill="#69a25c"/>
<rect x="15" y="7" width="1" height="1" fill="#83b567"/>
<rect x="2" y="7" width="1" height="1" fill="#83b567"/>
<rect x="25" y="7" width="1" height="1" fill="#649b5c"/>
<rect x="26" y="6" width="1" height="3" fill="#83b567"/>
<rect x="31" y="6" width="1" height="3" fill="#709063"/>
<rect x="18" y="8" width="1" height="1" fill="#96ce6b"/>
<rect x="3" y="8" width="1" height="1" fill="#62905c"/>
<rect x="13" y="8" width="1" height="1" fill="#69a25c"/>
<rect x="6" y="8" width="1" height="1" fill="#709063"/>
<rect x="2" y="8" width="1" height="1" fill="#649b5c"/>
<rect x="4" y="8" width="2" height="1" fill="#f4f4ef"/>
<rect x="29" y="8" width="1" height="1" fill="#76a660"/>
<rect x="22" y="8" width="1" height="1" fill="#557f58"/>
<rect x="19" y="8" width="1" height="1" fill="#88c464"/>
<rect x="25" y="8" width="1" height="1" fill="#659b57"/>
<rect x="23" y="8" width="2" height="1" fill="#649b5c"/>
<rect x="21" y="8" width="1" height="1" fill="#557256"/>
<rect x="12" y="8" width="1" height="1" fill="#649b5c"/>
<rect x="8" y="8" width="1" height="1" fill="#557f58"/>
<rect x="20" y="8" width="1" height="1" fill="#7bb362"/>
<rect x="14" y="8" width="1" height="1" fill="#76a660"/>
<rect x="10" y="8" width="2" height="1" fill="#61995a"/>
<rect x="9" y="8" width="1" height="1" fill="#5d905a"/>
<rect x="7" y="8" width="1" height="2" fill="#557958"/>
<rect x="0" y="8" width="1" height="2" fill="#5b865a"/>
<rect x="1" y="8" width="1" height="2" fill="#5d905a"/>
<rect x="15" y="8" width="2" height="2" fill="#8fca67"/>
<rect x="6" y="9" width="1" height="1" fill="#557f58"/>
<rect x="2" y="9" width="2" height="1" fill="#649b5c"/>
<rect x="21" y="9" width="1" height="1" fill="#69a25c"/>
<rect x="20" y="9" width="1" height="1" fill="#76a660"/>
<rect x="22" y="9" width="1" height="1" fill="#669e5d"/>
<rect x="23" y="9" width="3" height="1" fill="#649b5c"/>
<rect x="8" y="9" width="1" height="1" fill="#5d905a"/>
<rect x="9" y="9" width="2" height="1" fill="#669e5d"/>
<rect x="17" y="9" width="3" height="1" fill="#7bb362"/>
<rect x="5" y="9" width="1" height="1" fill="#83b567"/>
<rect x="31" y="9" width="1" height="1" fill="#83b567"/>
<rect x="11" y="9" width="1" height="1" fill="#649b5c"/>
<rect x="4" y="9" width="1" height="1" fill="#88c464"/>
<rect x="14" y="9" width="1" height="1" fill="#83b567"/>
<rect x="26" y="9" width="1" height="1" fill="#7bb362"/>
<rect x="13" y="9" width="1" height="1" fill="#557f58"/>
<rect x="12" y="9" width="1" height="1" fill="#5b865a"/>
<rect x="27" y="8" width="2" height="3" fill="#8fca67"/>
<rect x="29" y="9" width="1" height="2" fill="#69a25c"/>
<rect x="20" y="10" width="4" height="1" fill="#649b5c"/>
<rect x="8" y="10" width="1" height="1" fill="#69a25c"/>
<rect x="3" y="10" width="1" height="1" fill="#61995a"/>
<rect x="18" y="10" width="1" height="1" fill="#649b5c"/>
<rect x="6" y="10" width="1" height="1" fill="#649b5c"/>
<rect x="24" y="10" width="1" height="1" fill="#659b57"/>
<rect x="12" y="10" width="1" height="1" fill="#5d905a"/>
<rect x="13" y="10" width="1" height="1" fill="#5b865a"/>
<rect x="25" y="10" width="1" height="1" fill="#61995a"/>
<rect x="2" y="10" width="1" height="1" fill="#649b5c"/>
<rect x="5" y="10" width="1" height="1" fill="#669e5d"/>
<rect x="31" y="10" width="1" height="1" fill="#76a660"/>
<rect x="17" y="10" width="1" height="1" fill="#76a660"/>
<rect x="10" y="10" width="1" height="1" fill="#669e5d"/>
<rect x="26" y="10" width="1" height="1" fill="#69a25c"/>
<rect x="4" y="10" width="1" height="1" fill="#83b567"/>
<rect x="19" y="10" width="1" height="1" fill="#669e5d"/>
<rect x="7" y="10" width="1" height="1" fill="#61995a"/>
<rect x="11" y="10" width="1" height="1" fill="#61995a"/>
<rect x="9" y="10" width="1" height="1" fill="#83b567"/>
<rect x="14" y="10" width="3" height="1" fill="#8fca67"/>
<rect x="30" y="7" width="1" height="5" fill="#4d7e46"/>
<rect x="0" y="10" width="2" height="2" fill="#5b865a"/>
<rect x="11" y="11" width="1" height="1" fill="#5d905a"/>
<rect x="16" y="11" width="1" height="1" fill="#88c464"/>
<rect x="10" y="11" width="1" height="1" fill="#649b5c"/>
<rect x="12" y="11" width="1" height="1" fill="#62905c"/>
<rect x="17" y="11" width="1" height="1" fill="#7bb362"/>
<rect x="14" y="11" width="2" height="1" fill="#c4d99c"/>
<rect x="25" y="11" width="1" height="1" fill="#7bb362"/>
<rect x="29" y="11" width="1" height="1" fill="#659b57"/>
<rect x="9" y="11" width="1" height="1" fill="#96ce6b"/>
<rect x="31" y="11" width="1" height="1" fill="#659b57"/>
<rect x="21" y="11" width="1" height="1" fill="#669e5d"/>
<rect x="26" y="11" width="1" height="1" fill="#649b5c"/>
<rect x="2" y="11" width="2" height="1" fill="#5d905a"/>
<rect x="22" y="11" width="1" height="1" fill="#649b5c"/>
<rect x="8" y="11" width="1" height="1" fill="#8fca67"/>
<rect x="6" y="11" width="1" height="1" fill="#669e5d"/>
<rect x="13" y="11" width="1" height="1" fill="#76a660"/>
<rect x="19" y="11" width="2" height="1" fill="#649b5c"/>
<rect x="28" y="11" width="1" height="1" fill="#88c464"/>
<rect x="18" y="11" width="1" height="1" fill="#76a660"/>
<rect x="27" y="11" width="1" height="1" fill="#96ce6b"/>
<rect x="23" y="11" width="1" height="1" fill="#83b567"/>
<rect x="5" y="11" width="1" height="1" fill="#649b5c"/>
<rect x="4" y="11" width="1" height="1" fill="#669e5d"/>
<rect x="7" y="11" width="1" height="1" fill="#88c464"/>
<rect x="26" y="12" width="1" height="1" fill="#94c66b"/>
<rect x="0" y="12" width="1" height="1" fill="#557958"/>
<rect x="3" y="12" width="1" height="1" fill="#5d905a"/>
<rect x="12" y="12" width="4" height="1" fill="#f4f4ef"/>
<rect x="8" y="12" width="2" height="1" fill="#8fca67"/>
<rect x="29" y="12" width="1" height="1" fill="#76a660"/>
<rect x="19" y="12" width="1" height="1" fill="#69a25c"/>
<rect x="22" y="12" width="1" height="1" fill="#557256"/>
<rect x="20" y="12" width="1" height="1" fill="#649b5c"/>
<rect x="23" y="12" width="1" height="1" fill="#709063"/>
<rect x="16" y="12" width="1" height="1" fill="#95ca6c"/>
<rect x="1" y="12" width="2" height="1" fill="#5b865a"/>
<rect x="7" y="12" width="1" height="1" fill="#96ce6b"/>
<rect x="6" y="12" width="1" height="1" fill="#83b567"/>
<rect x="11" y="12" width="1" height="1" fill="#5b865a"/>
<rect x="21" y="12" width="1" height="1" fill="#557f58"/>
<rect x="4" y="12" width="2" height="1" fill="#5b865a"/>
<rect x="17" y="12" width="2" height="1" fill="#88c464"/>
<rect x="25" y="12" width="1" height="1" fill="#96ce6b"/>
<rect x="10" y="12" width="1" height="1" fill="#557958"/>
<rect x="21" y="13" width="1" height="1" fill="#4b6650"/>
<rect x="0" y="13" width="1" height="1" fill="#557f58"/>
<rect x="15" y="13" width="1" height="1" fill="#f4f4ef"/>
<rect x="17" y="13" width="1" height="1" fill="#88c464"/>
<rect x="25" y="13" width="1" height="1" fill="#709063"/>
<rect x="3" y="13" width="1" height="1" fill="#669e5d"/>
<rect x="10" y="13" width="1" height="1" fill="#4b6650"/>
<rect x="29" y="13" width="1" height="1" fill="#659b57"/>
<rect x="5" y="13" width="1" height="1" fill="#62905c"/>
<rect x="16" y="13" width="1" height="1" fill="#c4d99c"/>
<rect x="4" y="13" width="1" height="1" fill="#5b865a"/>
<rect x="11" y="13" width="1" height="1" fill="#a1b382"/>
<rect x="12" y="13" width="1" height="1" fill="#f4f4ef"/>
<rect x="19" y="13" width="1" height="1" fill="#62905c"/>
<rect x="20" y="13" width="1" height="1" fill="#5b865a"/>
<rect x="22" y="13" width="3" height="1" fill="#557f58"/>
<rect x="14" y="13" width="1" height="1" fill="#c4d99c"/>
<rect x="8" y="13" width="1" height="1" fill="#96ce6b"/>
<rect x="18" y="13" width="1" height="1" fill="#76a660"/>
<rect x="2" y="13" width="1" height="1" fill="#62905c"/>
<rect x="13" y="13" width="1" height="1" fill="#a1b382"/>
<rect x="9" y="13" width="1" height="1" fill="#62905c"/>
<rect x="30" y="12" width="2" height="3" fill="#4d7e46"/>
<rect x="6" y="13" width="1" height="2" fill="#96ce6b"/>
<rect x="16" y="14" width="1" height="1" fill="#88c464"/>
<rect x="9" y="14" width="1" height="1" fill="#557256"/>
<rect x="4" y="14" width="1" height="1" fill="#649b5c"/>
<rect x="20" y="14" width="1" height="1" fill="#557256"/>
<rect x="2" y="14" width="2" height="1" fill="#69a25c"/>
<rect x="5" y="14" width="1" height="1" fill="#5d905a"/>
<rect x="24" y="14" width="1" height="1" fill="#557256"/>
<rect x="8" y="14" width="1" height="1" fill="#83b567"/>
<rect x="11" y="14" width="1" height="1" fill="#c7e597"/>
<rect x="23" y="14" width="1" height="1" fill="#709063"/>
<rect x="19" y="14" width="1" height="1" fill="#7bb362"/>
<rect x="27" y="14" width="1" height="1" fill="#95ca6c"/>
<rect x="10" y="14" width="1" height="1" fill="#94c66b"/>
<rect x="12" y="14" width="3" height="1" fill="#f4f4ef"/>
<rect x="0" y="14" width="1" height="1" fill="#5d905a"/>
<rect x="25" y="14" width="1" height="1" fill="#557958"/>
<rect x="18" y="14" width="1" height="1" fill="#95ca6c"/>
<rect x="17" y="14" width="1" height="1" fill="#96ce6b"/>
<rect x="28" y="14" width="1" height="1" fill="#94c66b"/>
<rect x="29" y="14" width="1" height="1" fill="#5b865a"/>
<rect x="1" y="13" width="1" height="3" fill="#61995a"/>
<rect x="21" y="14" width="2" height="2" fill="#4b6650"/>
<rect x="27" y="15" width="1" height="1" fill="#5b865a"/>
<rect x="18" y="15" width="1" height="1" fill="#96ce6b"/>
<rect x="19" y="15" width="1" height="1" fill="#8fca67"/>
<rect x="26" y="15" width="1" height="1" fill="#83b567"/>
<rect x="29" y="15" width="2" height="1" fill="#477446"/>
<rect x="25" y="15" width="1" height="1" fill="#4b6650"/>
<rect x="11" y="15" width="1" height="1" fill="#83b567"/>
<rect x="3" y="15" width="1" height="1" fill="#669e5d"/>
<rect x="31" y="15" width="1" height="1" fill="#4d7e46"/>
<rect x="15" y="15" width="3" height="1" fill="#8fca67"/>
<rect x="5" y="15" width="1" height="1" fill="#669e5d"/>
<rect x="4" y="15" width="1" height="1" fill="#69a25c"/>
<rect x="12" y="15" width="1" height="1" fill="#557958"/>
<rect x="2" y="15" width="1" height="1" fill="#5b865a"/>
<rect x="6" y="15" width="1" height="1" fill="#659b57"/>
<rect x="23" y="15" width="1" height="1" fill="#94c66b"/>
<rect x="14" y="15" width="1" height="1" fill="#c4d99c"/>
<rect x="13" y="15" width="1" height="1" fill="#f4f4ef"/>
<rect x="28" y="15" width="1" height="1" fill="#62905c"/>
<rect x="20" y="15" width="1" height="1" fill="#62905c"/>
<rect x="0" y="15" width="1" height="2" fill="#669e5d"/>
<rect x="23" y="16" width="1" height="1" fill="#95ca6c"/>
<rect x="4" y="16" width="1" height="1" fill="#95ca6c"/>
<rect x="27" y="16" width="1" height="1" fill="#709063"/>
<rect x="31" y="16" width="1" height="1" fill="#3b6540"/>
<rect x="10" y="16" width="1" height="1" fill="#649b5c"/>
<rect x="20" y="16" width="2" height="1" fill="#4b6650"/>
<rect x="22" y="16" width="1" height="1" fill="#62905c"/>
<rect x="12" y="16" width="1" height="1" fill="#62905c"/>
<rect x="30" y="16" width="1" height="1" fill="#466c4a"/>
<rect x="28" y="16" width="1" height="1" fill="#8fca67"/>
<rect x="6" y="16" width="1" height="1" fill="#69a25c"/>
<rect x="5" y="16" width="1" height="1" fill="#83b567"/>
<rect x="17" y="16" width="1" height="1" fill="#83b567"/>
<rect x="1" y="16" width="1" height="1" fill="#62905c"/>
<rect x="11" y="16" width="1" height="1" fill="#557f58"/>
<rect x="18" y="16" width="1" height="1" fill="#62905c"/>
<rect x="29" y="16" width="1" height="1" fill="#477446"/>
<rect x="2" y="16" width="1" height="1" fill="#709063"/>
<rect x="25" y="16" width="1" height="1" fill="#76a660"/>
<rect x="26" y="16" width="1" height="1" fill="#4b6650"/>
<rect x="13" y="16" width="1" height="1" fill="#76a660"/>
<rect x="14" y="16" width="3" height="1" fill="#8fca67"/>
<rect x="19" y="16" width="1" height="1" fill="#557256"/>
<rect x="12" y="17" width="1" height="1" fill="#709063"/>
<rect x="31" y="17" width="1" height="1" fill="#3d5b41"/>
<rect x="17" y="17" width="1" height="1" fill="#88c464"/>
<rect x="11" y="17" width="1" height="1" fill="#557256"/>
<rect x="30" y="17" width="1" height="1" fill="#477446"/>
<rect x="2" y="17" width="1" height="1" fill="#4b6650"/>
<rect x="8" y="17" width="1" height="1" fill="#95ca6c"/>
<rect x="13" y="17" width="4" height="1" fill="#8fca67"/>
<rect x="0" y="17" width="1" height="1" fill="#5d905a"/>
<rect x="1" y="17" width="1" height="1" fill="#557256"/>
<rect x="27" y="17" width="2" height="1" fill="#88c464"/>
<rect x="22" y="17" width="1" height="1" fill="#5b865a"/>
<rect x="18" y="17" width="1" height="1" fill="#557256"/>
<rect x="3" y="17" width="1" height="1" fill="#709063"/>
<rect x="10" y="17" width="1" height="1" fill="#557958"/>
<rect x="9" y="16" width="1" height="3" fill="#557256"/>
<rect x="26" y="17" width="1" height="2" fill="#95ca6c"/>
<rect x="21" y="17" width="1" height="2" fill="#557256"/>
<rect x="19" y="17" width="2" height="2" fill="#4b6650"/>
<rect x="7" y="18" width="1" height="1" fill="#94c66b"/>
<rect x="8" y="18" width="1" height="1" fill="#709063"/>
<rect x="12" y="18" width="1" height="1" fill="#5d905a"/>
<rect x="2" y="18" width="2" height="1" fill="#4b6650"/>
<rect x="16" y="18" width="2" height="1" fill="#96ce6b"/>
<rect x="30" y="18" width="2" height="1" fill="#466c4a"/>
<rect x="10" y="18" width="2" height="1" fill="#557f58"/>
<rect x="25" y="18" width="1" height="1" fill="#94c66b"/>
<rect x="14" y="18" width="2" height="1" fill="#8fca67"/>
<rect x="4" y="18" width="1" height="1" fill="#5b865a"/>
<rect x="13" y="18" width="1" height="1" fill="#83b567"/>
<rect x="18" y="18" width="1" height="1" fill="#62905c"/>
<rect x="0" y="18" width="2" height="1" fill="#557f58"/>
<rect x="27" y="18" width="1" height="1" fill="#8fca67"/>
<rect x="28" y="18" width="1" height="1" fill="#88c464"/>
<rect x="24" y="18" width="1" height="1" fill="#709063"/>
<rect x="5" y="18" width="2" height="1" fill="#83b567"/>
<rect x="22" y="18" width="2" height="1" fill="#557958"/>
<rect x="29" y="17" width="1" height="3" fill="#3d5b41"/>
<rect x="28" y="19" width="1" height="1" fill="#83b567"/>
<rect x="22" y="19" width="4" height="1" fill="#557958"/>
<rect x="5" y="19" width="1" height="1" fill="#5b865a"/>
<rect x="9" y="19" width="1" height="1" fill="#669e5d"/>
<rect x="15" y="19" width="1" height="1" fill="#95ca6c"/>
<rect x="31" y="19" width="1" height="1" fill="#3d5b41"/>
<rect x="1" y="19" width="1" height="1" fill="#5b865a"/>
<rect x="2" y="19" width="1" height="1" fill="#557958"/>
<rect x="27" y="19" width="1" height="1" fill="#88c464"/>
<rect x="6" y="19" width="1" height="1" fill="#4b6650"/>
<rect x="8" y="19" width="1" height="1" fill="#5d905a"/>
<rect x="18" y="19" width="1" height="1" fill="#5b865a"/>
<rect x="7" y="19" width="1" height="1" fill="#557958"/>
<rect x="14" y="19" width="1" height="1" fill="#7bb362"/>
<rect x="17" y="19" width="1" height="1" fill="#94c66b"/>
<rect x="12" y="19" width="2" height="1" fill="#649b5c"/>
<rect x="19" y="19" width="3" height="1" fill="#4b6650"/>
<rect x="3" y="19" width="2" height="1" fill="#62905c"/>
<rect x="0" y="19" width="1" height="1" fill="#62905c"/>
<rect x="26" y="19" width="1" height="1" fill="#5b865a"/>
<rect x="30" y="19" width="1" height="1" fill="#3b6540"/>
<rect x="10" y="19" width="2" height="1" fill="#61995a"/>
<rect x="25" y="20" width="1" height="1" fill="#5b865a"/>
<rect x="17" y="20" width="1" height="1" fill="#7bb362"/>
<rect x="4" y="20" width="1" height="1" fill="#649b5c"/>
<rect x="20" y="20" width="1" height="1" fill="#557256"/>
<rect x="5" y="20" width="1" height="1" fill="#62905c"/>
<rect x="19" y="20" width="1" height="1" fill="#4b6650"/>
<rect x="21" y="20" width="2" height="1" fill="#557958"/>
<rect x="10" y="20" width="3" height="1" fill="#5b865a"/>
<rect x="9" y="20" width="1" height="1" fill="#649b5c"/>
<rect x="23" y="20" width="2" height="1" fill="#557f58"/>
<rect x="26" y="20" width="1" height="1" fill="#649b5c"/>
<rect x="27" y="20" width="1" height="1" fill="#76a660"/>
<rect x="0" y="20" width="1" height="1" fill="#88c464"/>
<rect x="28" y="20" width="1" height="1" fill="#7bb362"/>
<rect x="1" y="20" width="1" height="1" fill="#95ca6c"/>
<rect x="13" y="20" width="1" height="1" fill="#557958"/>
<rect x="14" y="20" width="1" height="1" fill="#557256"/>
<rect x="7" y="20" width="2" height="1" fill="#669e5d"/>
<rect x="18" y="20" width="1" height="1" fill="#557256"/>
<rect x="3" y="20" width="1" height="1" fill="#69a25c"/>
<rect x="6" y="20" width="1" height="1" fill="#557958"/>
<rect x="2" y="20" width="1" height="1" fill="#83b567"/>
<rect x="23" y="21" width="1" height="1" fill="#557958"/>
<rect x="24" y="21" width="1" height="1" fill="#669e5d"/>
<rect x="13" y="21" width="1" height="1" fill="#4b6650"/>
<rect x="28" y="21" width="1" height="1" fill="#76a660"/>
<rect x="17" y="21" width="1" height="1" fill="#88c464"/>
<rect x="1" y="21" width="2" height="1" fill="#96ce6b"/>
<rect x="18" y="21" width="1" height="1" fill="#5b865a"/>
<rect x="27" y="21" width="1" height="1" fill="#62905c"/>
<rect x="8" y="21" width="1" height="1" fill="#83b567"/>
<rect x="10" y="21" width="2" height="1" fill="#557f58"/>
<rect x="5" y="21" width="1" height="1" fill="#83b567"/>
<rect x="22" y="21" width="1" height="1" fill="#f4f4ef"/>
<rect x="19" y="21" width="1" height="1" fill="#709063"/>
<rect x="3" y="21" width="1" height="1" fill="#8fca67"/>
<rect x="4" y="21" width="1" height="1" fill="#7bb362"/>
<rect x="14" y="21" width="1" height="1" fill="#83b567"/>
<rect x="9" y="21" width="1" height="1" fill="#61995a"/>
<rect x="16" y="21" width="1" height="1" fill="#96ce6b"/>
<rect x="25" y="21" width="2" height="1" fill="#69a25c"/>
<rect x="20" y="21" width="2" height="1" fill="#a1b382"/>
<rect x="6" y="21" width="1" height="1" fill="#95ca6c"/>
<rect x="12" y="21" width="1" height="1" fill="#5b865a"/>
<rect x="0" y="21" width="1" height="1" fill="#76a660"/>
<rect x="29" y="20" width="3" height="3" fill="#3d5b41"/>
<rect x="26" y="22" width="1" height="1" fill="#62905c"/>
<rect x="11" y="22" width="1" height="1" fill="#5d905a"/>
<rect x="28" y="22" width="1" height="1" fill="#557958"/>
<rect x="2" y="22" width="1" height="1" fill="#8fca67"/>
<rect x="8" y="22" width="1" height="1" fill="#94c66b"/>
<rect x="20" y="22" width="3" height="1" fill="#f4f4ef"/>
<rect x="12" y="22" width="1" height="1" fill="#669e5d"/>
<rect x="10" y="22" width="1" height="1" fill="#5b865a"/>
<rect x="5" y="22" width="1" height="1" fill="#f4f4ef"/>
<rect x="9" y="22" width="1" height="1" fill="#69a25c"/>
<rect x="0" y="22" width="1" height="1" fill="#62905c"/>
<rect x="13" y="22" width="1" height="1" fill="#557256"/>
<rect x="6" y="22" width="1" height="1" fill="#c4d99c"/>
<rect x="27" y="22" width="1" height="1" fill="#96ce6b"/>
<rect x="3" y="22" width="2" height="1" fill="#c4d99c"/>
<rect x="17" y="22" width="1" height="1" fill="#96ce6b"/>
<rect x="19" y="22" width="1" height="1" fill="#c4d99c"/>
<rect x="1" y="22" width="1" height="1" fill="#96ce6b"/>
<rect x="16" y="22" width="1" height="2" fill="#88c464"/>
<rect x="23" y="22" width="1" height="2" fill="#a1b382"/>
<rect x="18" y="23" width="1" height="1" fill="#c7e597"/>
<rect x="19" y="23" width="1" height="1" fill="#f4f4ef"/>
<rect x="31" y="23" width="1" height="1" fill="#4b6650"/>
<rect x="15" y="23" width="1" height="1" fill="#76a660"/>
<rect x="8" y="23" width="1" height="1" fill="#709063"/>
<rect x="9" y="23" width="1" height="1" fill="#557256"/>
<rect x="4" y="23" width="2" height="1" fill="#c4d99c"/>
<rect x="11" y="23" width="1" height="1" fill="#95ca6c"/>
<rect x="22" y="23" width="1" height="1" fill="#f4f4ef"/>
<rect x="3" y="23" width="1" height="1" fill="#f4f4ef"/>
<rect x="7" y="23" width="1" height="1" fill="#c7e597"/>
<rect x="14" y="23" width="1" height="1" fill="#94c66b"/>
<rect x="28" y="23" width="1" height="1" fill="#4b6650"/>
<rect x="27" y="23" width="1" height="1" fill="#557958"/>
<rect x="10" y="23" width="1" height="1" fill="#62905c"/>
<rect x="1" y="23" width="1" height="1" fill="#76a660"/>
<rect x="20" y="23" width="2" height="1" fill="#c4d99c"/>
<rect x="13" y="23" width="1" height="1" fill="#95ca6c"/>
<rect x="26" y="23" width="1" height="1" fill="#5b865a"/>
<rect x="30" y="23" width="1" height="1" fill="#3b6540"/>
<rect x="6" y="23" width="1" height="1" fill="#f4f4ef"/>
<rect x="29" y="23" width="1" height="1" fill="#3d5b41"/>
<rect x="0" y="23" width="1" height="2" fill="#5d905a"/>
<rect x="2" y="24" width="1" height="1" fill="#c4d99c"/>
<rect x="28" y="24" width="2" height="1" fill="#3d5b41"/>
<rect x="22" y="24" width="1" height="1" fill="#669e5d"/>
<rect x="11" y="24" width="1" height="1" fill="#76a660"/>
<rect x="30" y="24" width="1" height="1" fill="#466c4a"/>
<rect x="3" y="24" width="3" height="1" fill="#f4f4ef"/>
<rect x="9" y="24" width="1" height="1" fill="#4b6650"/>
<rect x="8" y="24" width="1" height="1" fill="#557256"/>
<rect x="23" y="24" width="1" height="1" fill="#5d905a"/>
<rect x="10" y="24" width="1" height="1" fill="#669e5d"/>
<rect x="31" y="24" width="1" height="1" fill="#a1b382"/>
<rect x="6" y="24" width="1" height="1" fill="#c4d99c"/>
<rect x="15" y="24" width="1" height="1" fill="#5d905a"/>
<rect x="20" y="24" width="2" height="1" fill="#f4f4ef"/>
<rect x="19" y="24" width="1" height="1" fill="#c4d99c"/>
<rect x="13" y="24" width="1" height="1" fill="#c7e597"/>
<rect x="24" y="22" width="2" height="4" fill="#557958"/>
<rect x="27" y="24" width="1" height="2" fill="#4b6650"/>
<rect x="16" y="24" width="1" height="2" fill="#7bb362"/>
<rect x="26" y="24" width="1" height="2" fill="#557256"/>
<rect x="1" y="24" width="1" height="2" fill="#557f58"/>
<rect x="12" y="25" width="1" height="1" fill="#61995a"/>
<rect x="4" y="25" width="1" height="1" fill="#f4f4ef"/>
<rect x="31" y="25" width="1" height="1" fill="#709063"/>
<rect x="3" y="25" width="1" height="1" fill="#83b567"/>
<rect x="14" y="25" width="1" height="1" fill="#69a25c"/>
<rect x="22" y="25" width="1" height="1" fill="#659b57"/>
<rect x="7" y="25" width="1" height="1" fill="#557256"/>
<rect x="6" y="25" width="1" height="1" fill="#5b865a"/>
<rect x="20" y="25" width="1" height="1" fill="#a1b382"/>
<rect x="10" y="25" width="1" height="1" fill="#5b865a"/>
<rect x="29" y="25" width="1" height="1" fill="#466c4a"/>
<rect x="0" y="25" width="1" height="1" fill="#5b865a"/>
<rect x="19" y="25" width="1" height="1" fill="#5b865a"/>
<rect x="21" y="25" width="1" height="1" fill="#83b567"/>
<rect x="5" y="25" width="1" height="1" fill="#c4d99c"/>
<rect x="8" y="25" width="2" height="1" fill="#4b6650"/>
<rect x="2" y="25" width="1" height="1" fill="#5b865a"/>
<rect x="15" y="25" width="1" height="1" fill="#61995a"/>
<rect x="13" y="25" width="1" height="1" fill="#76a660"/>
<rect x="23" y="25" width="1" height="1" fill="#669e5d"/>
<rect x="30" y="25" width="1" height="1" fill="#3d5b41"/>
<rect x="11" y="25" width="1" height="2" fill="#557256"/>
<rect x="28" y="25" width="1" height="2" fill="#3d5b41"/>
<rect x="23" y="26" width="1" height="1" fill="#548a4e"/>
<rect x="20" y="26" width="3" height="1" fill="#659b57"/>
<rect x="31" y="26" width="1" height="1" fill="#3d5b41"/>
<rect x="2" y="26" width="1" height="1" fill="#557256"/>
<rect x="6" y="26" width="1" height="1" fill="#4b6650"/>
<rect x="15" y="26" width="2" height="1" fill="#659b57"/>
<rect x="12" y="26" width="1" height="1" fill="#669e5d"/>
<rect x="18" y="26" width="1" height="1" fill="#69a25c"/>
<rect x="29" y="26" width="2" height="1" fill="#3b6540"/>
<rect x="4" y="26" width="1" height="1" fill="#709063"/>
<rect x="0" y="26" width="2" height="1" fill="#557f58"/>
<rect x="17" y="26" width="1" height="1" fill="#76a660"/>
<rect x="5" y="26" width="1" height="1" fill="#557958"/>
<rect x="19" y="26" width="1" height="1" fill="#5d905a"/>
<rect x="13" y="26" width="2" height="1" fill="#69a25c"/>
<rect x="24" y="26" width="4" height="1" fill="#466c4a"/>
<rect x="3" y="26" width="1" height="1" fill="#5b865a"/>
<rect x="7" y="26" width="3" height="1" fill="#5b865a"/>
<rect x="10" y="26" width="1" height="1" fill="#557958"/>
<rect x="14" y="27" width="1" height="1" fill="#5d905a"/>
<rect x="4" y="27" width="1" height="1" fill="#557256"/>
<rect x="5" y="27" width="2" height="1" fill="#4b6650"/>
<rect x="17" y="27" width="1" height="1" fill="#52854f"/>
<rect x="23" y="27" width="6" height="1" fill="#3b6540"/>
<rect x="3" y="27" width="1" height="1" fill="#557f58"/>
<rect x="7" y="27" width="1" height="1" fill="#557256"/>
<rect x="31" y="27" width="1" height="1" fill="#466c4a"/>
<rect x="1" y="27" width="2" height="1" fill="#557256"/>
<rect x="11" y="27" width="3" height="1" fill="#659b57"/>
<rect x="0" y="27" width="1" height="1" fill="#5b865a"/>
<rect x="19" y="27" width="4" height="1" fill="#3d5b41"/>
<rect x="15" y="27" width="2" height="1" fill="#548a4e"/>
<rect x="8" y="27" width="3" height="1" fill="#5d905a"/>
<rect x="18" y="27" width="1" height="2" fill="#477446"/>
<rect x="30" y="27" width="1" height="2" fill="#3b6540"/>
<rect x="29" y="27" width="1" height="2" fill="#477446"/>
<rect x="1" y="28" width="1" height="1" fill="#557958"/>
<rect x="19" y="28" width="1" height="1" fill="#3d5b41"/>
<rect x="20" y="28" width="6" height="1" fill="#314f38"/>
<rect x="0" y="28" width="1" height="1" fill="#557f58"/>
<rect x="3" y="28" width="2" height="1" fill="#466c4a"/>
<rect x="11" y="28" width="5" height="1" fill="#548a4e"/>
<rect x="5" y="28" width="3" height="1" fill="#3d5b41"/>
<rect x="9" y="28" width="2" height="1" fill="#52854f"/>
<rect x="2" y="28" width="1" height="1" fill="#557256"/>
<rect x="31" y="28" width="1" height="1" fill="#3d5b41"/>
<rect x="16" y="28" width="2" height="1" fill="#4d7e46"/>
<rect x="8" y="28" width="1" height="1" fill="#4d7e46"/>
<rect x="26" y="28" width="3" height="1" fill="#3b6540"/>
<rect x="3" y="29" width="1" height="1" fill="#52854f"/>
<rect x="4" y="29" width="5" height="1" fill="#548a4e"/>
<rect x="27" y="29" width="4" height="1" fill="#3b6540"/>
<rect x="9" y="29" width="7" height="1" fill="#4d7e46"/>
<rect x="31" y="29" width="1" height="1" fill="#477446"/>
<rect x="20" y="29" width="4" height="1" fill="#314f38"/>
<rect x="2" y="29" width="1" height="1" fill="#466c4a"/>
<rect x="24" y="29" width="2" height="1" fill="#3b6540"/>
<rect x="0" y="29" width="1" height="1" fill="#466c4a"/>
<rect x="1" y="29" width="1" height="1" fill="#3b6540"/>
<rect x="16" y="29" width="4" height="1" fill="#477446"/>
<rect x="0" y="30" width="1" height="1" fill="#314f38"/>
<rect x="9" y="30" width="2" height="1" fill="#76a660"/>
<rect x="3" y="30" width="1" height="1" fill="#477446"/>
<rect x="1" y="30" width="2" height="1" fill="#3b6540"/>
<rect x="8" y="30" width="1" height="1" fill="#3b6540"/>
<rect x="16" y="30" width="2" height="1" fill="#314f38"/>
<rect x="23" y="30" width="3" height="1" fill="#3b6540"/>
<rect x="27" y="30" width="2" height="1" fill="#3b6540"/>
<rect x="29" y="30" width="1" height="1" fill="#4d7e46"/>
<rect x="21" y="30" width="2" height="1" fill="#314f38"/>
<rect x="18" y="30" width="3" height="1" fill="#3b6540"/>
<rect x="30" y="30" width="2" height="1" fill="#659b57"/>
<rect x="4" y="30" width="3" height="1" fill="#4d7e46"/>
<rect x="11" y="30" width="5" height="1" fill="#4d7e46"/>
<rect x="7" y="30" width="1" height="1" fill="#477446"/>
<rect x="26" y="29" width="1" height="3" fill="#314f38"/>
<rect x="4" y="31" width="2" height="1" fill="#4d7e46"/>
<rect x="27" y="31" width="1" height="1" fill="#3b6540"/>
<rect x="23" y="31" width="1" height="1" fill="#557958"/>
<rect x="8" y="31" width="1" height="1" fill="#709063"/>
<rect x="9" y="31" width="1" height="1" fill="#76a660"/>
<rect x="11" y="31" width="1" height="1" fill="#83b567"/>
<rect x="24" y="31" width="1" height="1" fill="#c4d99c"/>
<rect x="7" y="31" width="1" height="1" fill="#c4d99c"/>
<rect x="2" y="31" width="2" height="1" fill="#3b6540"/>
<rect x="19" y="31" width="3" height="1" fill="#314f38"/>
<rect x="6" y="31" width="1" height="1" fill="#5b865a"/>
<rect x="18" y="31" width="1" height="1" fill="#3b6540"/>
<rect x="28" y="31" width="1" height="1" fill="#314f38"/>
<rect x="31" y="31" width="1" height="1" fill="#659b57"/>
<rect x="10" y="31" width="1" height="1" fill="#94c66b"/>
<rect x="16" y="31" width="1" height="1" fill="#477446"/>
<rect x="0" y="31" width="2" height="1" fill="#314f38"/>
<rect x="12" y="31" width="4" height="1" fill="#4d7e46"/>
<rect x="30" y="31" width="1" height="1" fill="#69a25c"/>
<rect x="25" y="31" width="1" height="1" fill="#a1b382"/>
<rect x="22" y="31" width="1" height="1" fill="#3b6540"/>
<rect x="17" y="31" width="1" height="1" fill="#314f38"/>
<rect x="29" y="31" width="1" height="1" fill="#3b6540"/>
</svg>