<?xml version="1.0" encoding="UTF-8"?>
<svg xmlns="http://www.w3.org/2000/svg" width="20mm" height="20mm" viewBox="0 0 32 32" shape-rendering="crispEdges">
<title>106 右侧面 structured semantic redraw</title>
<metadata>registered 32-unit semantic vector redraw; no embedded raster; physical-size=20mm</metadata>
<rect x="0" y="0" width="32" height="32" fill="#3c4346"/>
<rect x="25" y="0" width="1" height="1" fill="#3a4448"/>
<rect x="8" y="0" width="1" height="1" fill="#434b4a"/>
<rect x="24" y="0" width="1" height="1" fill="#3a4347"/>
<rect x="20" y="0" width="1" height="1" fill="#3a4448"/>
<rect x="9" y="0" width="1" height="1" fill="#3b464a"/>
<rect x="21" y="0" width="2" height="1" fill="#3b4548"/>
<rect x="23" y="0" width="1" height="1" fill="#3a4448"/>
<rect x="11" y="0" width="6" height="1" fill="#384246"/>
<rect x="17" y="0" width="3" height="1" fill="#3a4347"/>
<rect x="26" y="0" width="1" height="1" fill="#3a4347"/>
<rect x="27" y="0" width="1" height="1" fill="#3a4448"/>
<rect x="31" y="0" width="1" height="1" fill="#3b4144"/>
<rect x="0" y="0" width="8" height="1" fill="#515150"/>
<rect x="10" y="0" width="1" height="2" fill="#3a4347"/>
<rect x="7" y="1" width="3" height="1" fill="#384246"/>
<rect x="20" y="1" width="2" height="1" fill="#3b4548"/>
<rect x="23" y="1" width="1" height="1" fill="#3b4548"/>
<rect x="3" y="1" width="1" height="1" fill="#3b464a"/>
<rect x="19" y="1" width="1" height="1" fill="#3a4448"/>
<rect x="26" y="1" width="1" height="1" fill="#3a4448"/>
<rect x="22" y="1" width="1" height="1" fill="#3b464a"/>
<rect x="11" y="1" width="4" height="1" fill="#384246"/>
<rect x="4" y="1" width="3" height="1" fill="#3a4448"/>
<rect x="27" y="1" width="1" height="1" fill="#3a4347"/>
<rect x="0" y="1" width="2" height="1" fill="#3e4a4c"/>
<rect x="15" y="1" width="4" height="1" fill="#3a4347"/>
<rect x="2" y="1" width="1" height="1" fill="#3c484b"/>
<rect x="24" y="1" width="2" height="2" fill="#3a4347"/>
<rect x="0" y="2" width="1" height="1" fill="#384246"/>
<rect x="8" y="2" width="3" height="1" fill="#3a4347"/>
<rect x="19" y="2" width="2" height="1" fill="#3a4448"/>
<rect x="26" y="2" width="2" height="1" fill="#3c4447"/>
<rect x="21" y="2" width="2" height="1" fill="#3b4548"/>
<rect x="17" y="2" width="2" height="1" fill="#3a4347"/>
<rect x="11" y="2" width="2" height="1" fill="#3b4144"/>
<rect x="16" y="2" width="1" height="1" fill="#3a4448"/>
<rect x="23" y="2" width="1" height="1" fill="#3a4448"/>
<rect x="1" y="2" width="6" height="1" fill="#3b464a"/>
<rect x="13" y="2" width="3" height="1" fill="#3a4347"/>
<rect x="7" y="2" width="1" height="2" fill="#3a4448"/>
<rect x="20" y="3" width="2" height="1" fill="#3b3f40"/>
<rect x="16" y="3" width="1" height="1" fill="#3b4144"/>
<rect x="19" y="3" width="1" height="1" fill="#3c4041"/>
<rect x="23" y="3" width="1" height="1" fill="#3b3f40"/>
<rect x="0" y="3" width="1" height="1" fill="#3a4448"/>
<rect x="11" y="3" width="3" height="1" fill="#384246"/>
<rect x="29" y="3" width="1" height="1" fill="#3d4446"/>
<rect x="14" y="3" width="2" height="1" fill="#3a4347"/>
<rect x="17" y="3" width="2" height="1" fill="#3c4243"/>
<rect x="8" y="3" width="1" height="1" fill="#3a4347"/>
<rect x="26" y="3" width="1" height="1" fill="#3c4447"/>
<rect x="22" y="3" width="1" height="1" fill="#3d3f3f"/>
<rect x="1" y="3" width="1" height="1" fill="#3b464a"/>
<rect x="2" y="3" width="2" height="1" fill="#3c484b"/>
<rect x="9" y="3" width="1" height="1" fill="#384246"/>
<rect x="10" y="3" width="1" height="1" fill="#3a4347"/>
<rect x="4" y="3" width="3" height="1" fill="#3b464a"/>
<rect x="24" y="4" width="2" height="1" fill="#3c4447"/>
<rect x="11" y="4" width="3" height="1" fill="#414a49"/>
<rect x="14" y="4" width="1" height="1" fill="#434b4a"/>
<rect x="29" y="4" width="2" height="1" fill="#3c4447"/>
<rect x="19" y="4" width="2" height="1" fill="#3b3d3e"/>
<rect x="9" y="4" width="1" height="1" fill="#414a49"/>
<rect x="8" y="4" width="1" height="1" fill="#3e484a"/>
<rect x="3" y="4" width="5" height="1" fill="#3b464a"/>
<rect x="0" y="4" width="2" height="1" fill="#3b464a"/>
<rect x="10" y="4" width="1" height="1" fill="#434b4a"/>
<rect x="26" y="4" width="3" height="1" fill="#3d4446"/>
<rect x="2" y="4" width="1" height="1" fill="#3c484b"/>
<rect x="16" y="4" width="3" height="2" fill="#3e3f3f"/>
<rect x="21" y="4" width="3" height="2" fill="#3d3f3f"/>
<rect x="2" y="5" width="3" height="1" fill="#3b464a"/>
<rect x="29" y="5" width="1" height="1" fill="#3c4447"/>
<rect x="1" y="5" width="1" height="1" fill="#3a4448"/>
<rect x="0" y="5" width="1" height="1" fill="#3c484b"/>
<rect x="7" y="5" width="8" height="1" fill="#434b4a"/>
<rect x="24" y="5" width="1" height="1" fill="#3c4447"/>
<rect x="27" y="5" width="1" height="1" fill="#3c4447"/>
<rect x="19" y="5" width="1" height="1" fill="#3d3f3f"/>
<rect x="20" y="5" width="1" height="2" fill="#3b3d3e"/>
<rect x="5" y="5" width="1" height="2" fill="#3e484a"/>
<rect x="25" y="5" width="1" height="2" fill="#3d4446"/>
<rect x="0" y="6" width="1" height="1" fill="#404a4a"/>
<rect x="3" y="6" width="1" height="1" fill="#3b464a"/>
<rect x="7" y="6" width="1" height="1" fill="#434b4a"/>
<rect x="26" y="6" width="1" height="1" fill="#3c4447"/>
<rect x="23" y="6" width="1" height="1" fill="#3d3f3f"/>
<rect x="27" y="6" width="1" height="1" fill="#3d4446"/>
<rect x="22" y="6" width="1" height="1" fill="#3e3f3f"/>
<rect x="8" y="6" width="1" height="1" fill="#515150"/>
<rect x="2" y="6" width="1" height="1" fill="#3b4548"/>
<rect x="9" y="6" width="6" height="1" fill="#434b4a"/>
<rect x="4" y="6" width="1" height="1" fill="#3e494a"/>
<rect x="21" y="6" width="1" height="1" fill="#3d3f3f"/>
<rect x="16" y="6" width="4" height="2" fill="#3e3f3f"/>
<rect x="28" y="7" width="1" height="1" fill="#3c4447"/>
<rect x="22" y="7" width="2" height="1" fill="#3e3f3f"/>
<rect x="5" y="7" width="1" height="1" fill="#3b464a"/>
<rect x="24" y="7" width="2" height="1" fill="#3c4447"/>
<rect x="4" y="7" width="1" height="1" fill="#3e484a"/>
<rect x="8" y="7" width="7" height="1" fill="#434b4a"/>
<rect x="26" y="7" width="2" height="1" fill="#3d4446"/>
<rect x="20" y="7" width="2" height="1" fill="#3d3f3f"/>
<rect x="15" y="4" width="1" height="5" fill="#404242"/>
<rect x="6" y="5" width="1" height="4" fill="#3c484b"/>
<rect x="1" y="6" width="1" height="3" fill="#384246"/>
<rect x="7" y="7" width="1" height="2" fill="#414a49"/>
<rect x="2" y="7" width="2" height="2" fill="#3b4548"/>
<rect x="0" y="7" width="1" height="2" fill="#434b4a"/>
<rect x="22" y="8" width="2" height="1" fill="#3d3f3f"/>
<rect x="12" y="8" width="1" height="1" fill="#414a49"/>
<rect x="4" y="8" width="1" height="1" fill="#3c484b"/>
<rect x="5" y="8" width="1" height="1" fill="#3e494a"/>
<rect x="13" y="8" width="1" height="1" fill="#434b4a"/>
<rect x="14" y="8" width="1" height="1" fill="#414a49"/>
<rect x="8" y="8" width="1" height="1" fill="#515150"/>
<rect x="27" y="8" width="1" height="1" fill="#3d4345"/>
<rect x="21" y="8" width="1" height="1" fill="#3e3f3f"/>
<rect x="19" y="8" width="2" height="1" fill="#3d3f3f"/>
<rect x="24" y="8" width="2" height="1" fill="#3d4345"/>
<rect x="16" y="8" width="3" height="1" fill="#3e3f3f"/>
<rect x="9" y="8" width="3" height="1" fill="#434b4a"/>
<rect x="26" y="8" width="1" height="1" fill="#3c4243"/>
<rect x="4" y="9" width="1" height="1" fill="#3f4647"/>
<rect x="10" y="9" width="1" height="1" fill="#3d4648"/>
<rect x="19" y="9" width="1" height="1" fill="#3e3f3f"/>
<rect x="5" y="9" width="3" height="1" fill="#3e4546"/>
<rect x="25" y="9" width="3" height="1" fill="#3d4345"/>
<rect x="12" y="9" width="3" height="1" fill="#3e4546"/>
<rect x="3" y="9" width="1" height="1" fill="#515150"/>
<rect x="11" y="9" width="1" height="1" fill="#3f4647"/>
<rect x="1" y="9" width="1" height="1" fill="#404242"/>
<rect x="15" y="9" width="1" height="1" fill="#3d4142"/>
<rect x="0" y="9" width="1" height="1" fill="#515150"/>
<rect x="16" y="9" width="3" height="1" fill="#3d3f3f"/>
<rect x="2" y="9" width="1" height="1" fill="#434b4a"/>
<rect x="8" y="9" width="1" height="1" fill="#404746"/>
<rect x="9" y="9" width="1" height="1" fill="#3e484a"/>
<rect x="31" y="7" width="1" height="4" fill="#3b4144"/>
<rect x="11" y="10" width="2" height="1" fill="#3e4546"/>
<rect x="13" y="10" width="2" height="1" fill="#3f4647"/>
<rect x="24" y="10" width="1" height="1" fill="#3d4345"/>
<rect x="26" y="10" width="2" height="1" fill="#3c4243"/>
<rect x="5" y="10" width="2" height="2" fill="#3e4344"/>
<rect x="27" y="11" width="1" height="1" fill="#3c4243"/>
<rect x="25" y="11" width="1" height="1" fill="#3d4345"/>
<rect x="30" y="11" width="1" height="1" fill="#3b4144"/>
<rect x="24" y="11" width="1" height="1" fill="#3c4243"/>
<rect x="20" y="9" width="4" height="4" fill="#3d3f3f"/>
<rect x="16" y="10" width="4" height="3" fill="#3e3f3f"/>
<rect x="7" y="10" width="1" height="3" fill="#3d4446"/>
<rect x="15" y="10" width="1" height="3" fill="#3e4344"/>
<rect x="12" y="11" width="2" height="2" fill="#3e4546"/>
<rect x="14" y="11" width="1" height="2" fill="#3f4647"/>
<rect x="11" y="11" width="1" height="2" fill="#3f4647"/>
<rect x="30" y="12" width="1" height="1" fill="#3c4243"/>
<rect x="28" y="12" width="1" height="1" fill="#3c4243"/>
<rect x="27" y="12" width="1" height="1" fill="#3d4142"/>
<rect x="24" y="12" width="3" height="1" fill="#3c4243"/>
<rect x="29" y="12" width="1" height="1" fill="#3b4144"/>
<rect x="31" y="12" width="1" height="1" fill="#3c4041"/>
<rect x="5" y="12" width="1" height="1" fill="#3d4345"/>
<rect x="6" y="12" width="1" height="1" fill="#3e4344"/>
<rect x="8" y="10" width="3" height="4" fill="#3d4648"/>
<rect x="0" y="10" width="4" height="4" fill="#633c3c"/>
<rect x="21" y="13" width="1" height="1" fill="#3c4041"/>
<rect x="11" y="13" width="1" height="1" fill="#3e4546"/>
<rect x="22" y="13" width="2" height="1" fill="#3d4142"/>
<rect x="12" y="13" width="1" height="1" fill="#3e4344"/>
<rect x="16" y="13" width="5" height="1" fill="#3d4142"/>
<rect x="14" y="13" width="2" height="1" fill="#3e4344"/>
<rect x="13" y="13" width="1" height="1" fill="#3e4546"/>
<rect x="24" y="13" width="8" height="1" fill="#3c4041"/>
<rect x="5" y="13" width="3" height="1" fill="#3e4344"/>
<rect x="8" y="14" width="4" height="1" fill="#3c4447"/>
<rect x="6" y="14" width="1" height="1" fill="#3c4243"/>
<rect x="13" y="14" width="1" height="1" fill="#3e4344"/>
<rect x="14" y="14" width="1" height="1" fill="#3d4446"/>
<rect x="16" y="14" width="7" height="1" fill="#3d4142"/>
<rect x="3" y="14" width="1" height="1" fill="#3e3f3f"/>
<rect x="31" y="14" width="1" height="1" fill="#3c4243"/>
<rect x="25" y="14" width="2" height="1" fill="#3b3f40"/>
<rect x="27" y="14" width="4" height="1" fill="#3c4041"/>
<rect x="15" y="14" width="1" height="1" fill="#3e4344"/>
<rect x="7" y="14" width="1" height="1" fill="#3e4344"/>
<rect x="23" y="14" width="2" height="1" fill="#3c4041"/>
<rect x="5" y="14" width="1" height="1" fill="#3e4344"/>
<rect x="0" y="14" width="3" height="1" fill="#633c3c"/>
<rect x="12" y="14" width="1" height="2" fill="#3d4345"/>
<rect x="22" y="15" width="1" height="1" fill="#3d4142"/>
<rect x="14" y="15" width="2" height="1" fill="#3d4345"/>
<rect x="20" y="15" width="2" height="1" fill="#3c4041"/>
<rect x="23" y="15" width="7" height="1" fill="#3c4041"/>
<rect x="2" y="15" width="2" height="1" fill="#3e3f3f"/>
<rect x="8" y="15" width="3" height="1" fill="#3c4447"/>
<rect x="13" y="15" width="1" height="1" fill="#3d4446"/>
<rect x="16" y="15" width="4" height="1" fill="#3d4142"/>
<rect x="0" y="15" width="1" height="1" fill="#404242"/>
<rect x="1" y="15" width="1" height="1" fill="#3a3c3c"/>
<rect x="31" y="15" width="1" height="2" fill="#3c4041"/>
<rect x="30" y="15" width="1" height="2" fill="#3d4142"/>
<rect x="21" y="16" width="6" height="1" fill="#3c4041"/>
<rect x="28" y="16" width="2" height="1" fill="#3c4041"/>
<rect x="27" y="16" width="1" height="1" fill="#3b3f40"/>
<rect x="16" y="16" width="5" height="1" fill="#3d4142"/>
<rect x="12" y="16" width="1" height="1" fill="#3d4446"/>
<rect x="14" y="16" width="2" height="1" fill="#3e4344"/>
<rect x="13" y="16" width="1" height="1" fill="#3d4345"/>
<rect x="4" y="10" width="1" height="8" fill="#404242"/>
<rect x="5" y="15" width="3" height="3" fill="#3e4344"/>
<rect x="0" y="16" width="4" height="2" fill="#3e3f3f"/>
<rect x="8" y="16" width="4" height="2" fill="#3c4447"/>
<rect x="29" y="17" width="1" height="1" fill="#3c4447"/>
<rect x="21" y="17" width="3" height="1" fill="#404242"/>
<rect x="12" y="17" width="1" height="1" fill="#3e4344"/>
<rect x="20" y="17" width="1" height="1" fill="#3d4142"/>
<rect x="31" y="17" width="1" height="1" fill="#3c4447"/>
<rect x="13" y="17" width="1" height="1" fill="#3d4446"/>
<rect x="14" y="17" width="1" height="1" fill="#3e4546"/>
<rect x="15" y="17" width="5" height="1" fill="#3e4344"/>
<rect x="0" y="18" width="1" height="1" fill="#3a3c3c"/>
<rect x="9" y="18" width="1" height="1" fill="#3d4345"/>
<rect x="6" y="18" width="2" height="1" fill="#3c4243"/>
<rect x="3" y="18" width="1" height="1" fill="#404242"/>
<rect x="4" y="18" width="1" height="1" fill="#3d4142"/>
<rect x="1" y="18" width="1" height="1" fill="#404242"/>
<rect x="29" y="18" width="3" height="1" fill="#3c4447"/>
<rect x="5" y="18" width="1" height="1" fill="#3d4345"/>
<rect x="2" y="18" width="1" height="1" fill="#3e3f3f"/>
<rect x="10" y="18" width="2" height="2" fill="#3d4446"/>
<rect x="8" y="19" width="2" height="1" fill="#3d4345"/>
<rect x="4" y="19" width="4" height="1" fill="#3c4243"/>
<rect x="29" y="19" width="1" height="1" fill="#3c4447"/>
<rect x="3" y="19" width="1" height="1" fill="#3b4144"/>
<rect x="1" y="19" width="1" height="1" fill="#414a49"/>
<rect x="24" y="17" width="4" height="4" fill="#3d4142"/>
<rect x="20" y="18" width="4" height="3" fill="#404242"/>
<rect x="30" y="19" width="1" height="2" fill="#3a4347"/>
<rect x="31" y="19" width="1" height="2" fill="#3c4447"/>
<rect x="6" y="20" width="1" height="1" fill="#3c4243"/>
<rect x="5" y="20" width="1" height="1" fill="#3d4345"/>
<rect x="8" y="20" width="1" height="1" fill="#3d4345"/>
<rect x="12" y="18" width="8" height="4" fill="#404746"/>
<rect x="2" y="19" width="1" height="3" fill="#3b3f40"/>
<rect x="7" y="20" width="1" height="2" fill="#3b4144"/>
<rect x="10" y="20" width="1" height="2" fill="#3d4345"/>
<rect x="9" y="20" width="1" height="2" fill="#3d4446"/>
<rect x="3" y="20" width="2" height="2" fill="#3b4144"/>
<rect x="11" y="20" width="1" height="2" fill="#3d4446"/>
<rect x="28" y="21" width="1" height="1" fill="#3c4447"/>
<rect x="20" y="21" width="1" height="1" fill="#3e4344"/>
<rect x="26" y="21" width="1" height="1" fill="#3e4344"/>
<rect x="5" y="21" width="2" height="1" fill="#3d4345"/>
<rect x="31" y="21" width="1" height="1" fill="#3b464a"/>
<rect x="29" y="21" width="2" height="1" fill="#3b4548"/>
<rect x="27" y="21" width="1" height="1" fill="#3d4345"/>
<rect x="24" y="21" width="2" height="1" fill="#3d4345"/>
<rect x="22" y="21" width="2" height="1" fill="#3e4344"/>
<rect x="21" y="21" width="1" height="1" fill="#404242"/>
<rect x="1" y="20" width="1" height="3" fill="#434b4a"/>
<rect x="30" y="22" width="2" height="1" fill="#3e4a4c"/>
<rect x="28" y="22" width="2" height="1" fill="#3c484b"/>
<rect x="22" y="22" width="6" height="1" fill="#3e494a"/>
<rect x="16" y="22" width="4" height="1" fill="#414a49"/>
<rect x="20" y="22" width="2" height="1" fill="#404a4a"/>
<rect x="5" y="22" width="3" height="1" fill="#3b3f40"/>
<rect x="4" y="22" width="1" height="1" fill="#3c4447"/>
<rect x="9" y="22" width="2" height="1" fill="#3d4142"/>
<rect x="8" y="22" width="1" height="1" fill="#3c4041"/>
<rect x="11" y="22" width="1" height="1" fill="#3c4041"/>
<rect x="3" y="22" width="1" height="1" fill="#3b4548"/>
<rect x="18" y="23" width="1" height="1" fill="#404746"/>
<rect x="16" y="23" width="2" height="1" fill="#414a49"/>
<rect x="20" y="23" width="3" height="1" fill="#404a4a"/>
<rect x="23" y="23" width="5" height="1" fill="#3e494a"/>
<rect x="1" y="23" width="1" height="1" fill="#515150"/>
<rect x="19" y="23" width="1" height="1" fill="#414a49"/>
<rect x="3" y="23" width="1" height="2" fill="#3c484b"/>
<rect x="8" y="23" width="1" height="2" fill="#3b3f40"/>
<rect x="6" y="23" width="2" height="2" fill="#3b3d3e"/>
<rect x="4" y="23" width="1" height="2" fill="#3b464a"/>
<rect x="19" y="24" width="3" height="1" fill="#404a4a"/>
<rect x="22" y="24" width="6" height="1" fill="#3e494a"/>
<rect x="16" y="24" width="3" height="1" fill="#414a49"/>
<rect x="12" y="22" width="1" height="4" fill="#3e4546"/>
<rect x="13" y="22" width="3" height="4" fill="#3f4647"/>
<rect x="9" y="23" width="3" height="3" fill="#3c4041"/>
<rect x="28" y="23" width="3" height="3" fill="#3c484b"/>
<rect x="1" y="24" width="1" height="2" fill="#434b4a"/>
<rect x="6" y="25" width="3" height="1" fill="#3b3d3e"/>
<rect x="21" y="25" width="7" height="1" fill="#3e494a"/>
<rect x="20" y="25" width="1" height="1" fill="#404a4a"/>
<rect x="16" y="25" width="4" height="1" fill="#414a49"/>
<rect x="3" y="25" width="2" height="1" fill="#3b464a"/>
<rect x="5" y="23" width="1" height="4" fill="#3b3f40"/>
<rect x="7" y="26" width="1" height="1" fill="#3a3c3c"/>
<rect x="16" y="26" width="4" height="1" fill="#404a4a"/>
<rect x="8" y="26" width="4" height="1" fill="#3b3d3e"/>
<rect x="21" y="26" width="1" height="1" fill="#434b4a"/>
<rect x="3" y="26" width="2" height="1" fill="#3b4548"/>
<rect x="12" y="26" width="1" height="1" fill="#3d4345"/>
<rect x="13" y="26" width="2" height="1" fill="#3e4546"/>
<rect x="23" y="26" width="1" height="1" fill="#414a49"/>
<rect x="15" y="26" width="1" height="1" fill="#3f4647"/>
<rect x="6" y="26" width="1" height="1" fill="#3b3d3e"/>
<rect x="20" y="26" width="1" height="1" fill="#414a49"/>
<rect x="28" y="26" width="1" height="2" fill="#3e494a"/>
<rect x="29" y="26" width="2" height="2" fill="#3e484a"/>
<rect x="22" y="26" width="1" height="2" fill="#404a4a"/>
<rect x="20" y="27" width="2" height="1" fill="#434b4a"/>
<rect x="23" y="27" width="1" height="1" fill="#434b4a"/>
<rect x="9" y="27" width="3" height="1" fill="#3b3d3e"/>
<rect x="5" y="27" width="1" height="1" fill="#3b3d3e"/>
<rect x="6" y="27" width="3" height="1" fill="#3a3c3c"/>
<rect x="3" y="27" width="2" height="1" fill="#3a4347"/>
<rect x="2" y="22" width="1" height="7" fill="#384246"/>
<rect x="1" y="26" width="1" height="3" fill="#3e4a4c"/>
<rect x="13" y="27" width="3" height="2" fill="#3c4447"/>
<rect x="16" y="27" width="2" height="2" fill="#404a4a"/>
<rect x="18" y="27" width="2" height="2" fill="#414a49"/>
<rect x="8" y="28" width="4" height="1" fill="#3b3d3e"/>
<rect x="6" y="28" width="2" height="1" fill="#3a3c3c"/>
<rect x="28" y="28" width="3" height="1" fill="#3e494a"/>
<rect x="3" y="28" width="1" height="1" fill="#3a4347"/>
<rect x="31" y="23" width="1" height="7" fill="#3e4a4c"/>
<rect x="24" y="26" width="4" height="4" fill="#404a4a"/>
<rect x="12" y="27" width="1" height="3" fill="#3c4243"/>
<rect x="20" y="28" width="4" height="2" fill="#434b4a"/>
<rect x="4" y="28" width="1" height="2" fill="#3a4448"/>
<rect x="30" y="29" width="1" height="1" fill="#3e494a"/>
<rect x="1" y="29" width="1" height="1" fill="#3c484b"/>
<rect x="9" y="29" width="3" height="1" fill="#3b3d3e"/>
<rect x="13" y="29" width="1" height="1" fill="#3c4447"/>
<rect x="28" y="29" width="1" height="1" fill="#3e494a"/>
<rect x="2" y="29" width="2" height="1" fill="#3a4347"/>
<rect x="16" y="29" width="4" height="1" fill="#404a4a"/>
<rect x="6" y="29" width="3" height="1" fill="#3a3c3c"/>
<rect x="29" y="29" width="1" height="1" fill="#3e484a"/>
<rect x="14" y="29" width="1" height="1" fill="#3d4446"/>
<rect x="15" y="29" width="1" height="1" fill="#3e4546"/>
<rect x="0" y="19" width="1" height="12" fill="#2b3b40"/>
<rect x="4" y="30" width="1" height="1" fill="#3b4144"/>
<rect x="2" y="30" width="1" height="1" fill="#3c4447"/>
<rect x="28" y="30" width="3" height="1" fill="#3d4648"/>
<rect x="21" y="30" width="3" height="1" fill="#3e494a"/>
<rect x="16" y="30" width="5" height="1" fill="#3e484a"/>
<rect x="6" y="30" width="6" height="1" fill="#3b3d3e"/>
<rect x="31" y="30" width="1" height="1" fill="#3e494a"/>
<rect x="14" y="30" width="1" height="1" fill="#3d4345"/>
<rect x="24" y="30" width="4" height="1" fill="#3e484a"/>
<rect x="3" y="30" width="1" height="1" fill="#384246"/>
<rect x="1" y="30" width="1" height="1" fill="#384246"/>
<rect x="5" y="28" width="1" height="4" fill="#3b3f40"/>
<rect x="12" y="30" width="1" height="2" fill="#3c4041"/>
<rect x="14" y="31" width="1" height="1" fill="#3c4243"/>
<rect x="16" y="31" width="1" height="1" fill="#3b4548"/>
<rect x="26" y="31" width="4" height="1" fill="#3c4447"/>
<rect x="20" y="31" width="4" height="1" fill="#3b4548"/>
<rect x="7" y="31" width="5" height="1" fill="#3b3d3e"/>
<rect x="6" y="31" width="1" height="1" fill="#3a3c3c"/>
<rect x="24" y="31" width="1" height="1" fill="#3c4447"/>
<rect x="17" y="31" width="3" height="1" fill="#3d4648"/>
<rect x="2" y="31" width="1" height="1" fill="#3f4647"/>
<rect x="25" y="31" width="1" height="1" fill="#3e4546"/>
<rect x="31" y="31" width="1" height="1" fill="#3d4648"/>
<rect x="3" y="31" width="2" height="1" fill="#3b4144"/>
<rect x="0" y="31" width="2" height="1" fill="#2b3b40"/>
<rect x="15" y="31" width="1" height="1" fill="#3d4345"/>
</svg>