<?xml version="1.0" encoding="UTF-8"?>
<svg xmlns="http://www.w3.org/2000/svg" width="20mm" height="20mm" viewBox="0 0 32 32" shape-rendering="crispEdges">
<title>207 顶面 structured semantic redraw</title>
<metadata>registered 32-unit semantic vector redraw; no embedded raster; physical-size=20mm</metadata>
<rect x="0" y="0" width="32" height="32" fill="#5a4941"/>
<rect x="7" y="0" width="1" height="1" fill="#5a4a41"/>
<rect x="0" y="0" width="1" height="1" fill="#6a5951"/>
<rect x="18" y="0" width="1" height="1" fill="#5a4a41"/>
<rect x="14" y="0" width="3" height="1" fill="#5a4a41"/>
<rect x="21" y="0" width="2" height="1" fill="#5a4a41"/>
<rect x="1" y="0" width="1" height="1" fill="#5d4c44"/>
<rect x="9" y="0" width="1" height="1" fill="#5a4a41"/>
<rect x="29" y="0" width="1" height="1" fill="#5a4a41"/>
<rect x="12" y="0" width="1" height="1" fill="#5a4a41"/>
<rect x="26" y="0" width="2" height="1" fill="#5a4a41"/>
<rect x="30" y="0" width="1" height="1" fill="#85756e"/>
<rect x="24" y="0" width="1" height="1" fill="#5a4a41"/>
<rect x="31" y="0" width="1" height="2" fill="#a29c9c"/>
<rect x="27" y="1" width="1" height="1" fill="#5a4a41"/>
<rect x="14" y="1" width="2" height="1" fill="#5a4a41"/>
<rect x="23" y="1" width="2" height="1" fill="#5a4a41"/>
<rect x="3" y="1" width="1" height="1" fill="#5a4a41"/>
<rect x="26" y="1" width="1" height="1" fill="#6a5951"/>
<rect x="25" y="1" width="1" height="1" fill="#63524a"/>
<rect x="30" y="1" width="1" height="1" fill="#8d7f79"/>
<rect x="8" y="1" width="3" height="1" fill="#5a4a41"/>
<rect x="26" y="2" width="1" height="1" fill="#bcaba3"/>
<rect x="15" y="2" width="2" height="1" fill="#5a4a41"/>
<rect x="22" y="2" width="2" height="1" fill="#5a4a41"/>
<rect x="0" y="2" width="1" height="1" fill="#5a4a41"/>
<rect x="30" y="2" width="1" height="1" fill="#948883"/>
<rect x="31" y="2" width="1" height="1" fill="#a19c9c"/>
<rect x="6" y="2" width="6" height="1" fill="#5a4a41"/>
<rect x="27" y="2" width="1" height="1" fill="#796b65"/>
<rect x="24" y="2" width="1" height="1" fill="#5f4e45"/>
<rect x="25" y="2" width="1" height="1" fill="#afa19a"/>
<rect x="2" y="3" width="2" height="1" fill="#5a4a41"/>
<rect x="11" y="3" width="1" height="1" fill="#5a4a41"/>
<rect x="5" y="3" width="2" height="1" fill="#5a4a41"/>
<rect x="27" y="3" width="1" height="1" fill="#afa19a"/>
<rect x="24" y="3" width="1" height="1" fill="#6e625c"/>
<rect x="28" y="3" width="1" height="1" fill="#615047"/>
<rect x="22" y="3" width="1" height="1" fill="#5a4a41"/>
<rect x="16" y="3" width="1" height="1" fill="#5a4a41"/>
<rect x="19" y="3" width="2" height="1" fill="#5a4a41"/>
<rect x="25" y="3" width="2" height="1" fill="#bcaba4"/>
<rect x="8" y="3" width="1" height="1" fill="#5a4a41"/>
<rect x="29" y="2" width="1" height="3" fill="#5a4a41"/>
<rect x="30" y="3" width="1" height="2" fill="#9a908c"/>
<rect x="14" y="4" width="1" height="1" fill="#5a4a41"/>
<rect x="18" y="4" width="1" height="1" fill="#5a4a41"/>
<rect x="28" y="4" width="1" height="1" fill="#8d7f79"/>
<rect x="3" y="4" width="3" height="1" fill="#5a4a41"/>
<rect x="22" y="4" width="2" height="1" fill="#5a4a41"/>
<rect x="0" y="4" width="1" height="1" fill="#5a4a41"/>
<rect x="12" y="4" width="1" height="1" fill="#5a4a41"/>
<rect x="24" y="4" width="1" height="1" fill="#615047"/>
<rect x="25" y="4" width="1" height="1" fill="#afa19a"/>
<rect x="31" y="3" width="1" height="3" fill="#a29c9c"/>
<rect x="26" y="4" width="1" height="2" fill="#bcaba4"/>
<rect x="27" y="4" width="1" height="2" fill="#bcaba3"/>
<rect x="30" y="5" width="1" height="1" fill="#9f9998"/>
<rect x="25" y="5" width="1" height="1" fill="#85756e"/>
<rect x="21" y="5" width="3" height="1" fill="#5a4a41"/>
<rect x="29" y="5" width="1" height="1" fill="#615047"/>
<rect x="4" y="5" width="1" height="1" fill="#796b65"/>
<rect x="6" y="5" width="2" height="1" fill="#5a4a41"/>
<rect x="1" y="5" width="1" height="1" fill="#5a4a41"/>
<rect x="18" y="5" width="2" height="1" fill="#5a4a41"/>
<rect x="28" y="5" width="1" height="1" fill="#afa19a"/>
<rect x="3" y="5" width="1" height="1" fill="#948883"/>
<rect x="2" y="5" width="1" height="1" fill="#6a5951"/>
<rect x="10" y="4" width="1" height="3" fill="#5a4a41"/>
<rect x="7" y="6" width="1" height="1" fill="#5a4a41"/>
<rect x="29" y="6" width="1" height="1" fill="#85756e"/>
<rect x="25" y="6" width="1" height="1" fill="#5e4c44"/>
<rect x="13" y="6" width="2" height="1" fill="#5a4a41"/>
<rect x="27" y="6" width="2" height="1" fill="#bcaba4"/>
<rect x="2" y="6" width="1" height="1" fill="#afa19a"/>
<rect x="16" y="6" width="2" height="1" fill="#5a4a41"/>
<rect x="20" y="6" width="1" height="1" fill="#5a4a41"/>
<rect x="1" y="6" width="1" height="1" fill="#63524a"/>
<rect x="3" y="6" width="1" height="1" fill="#bcaba3"/>
<rect x="26" y="6" width="1" height="1" fill="#b5a8a2"/>
<rect x="4" y="6" width="1" height="1" fill="#aa9991"/>
<rect x="23" y="6" width="1" height="2" fill="#5a4a41"/>
<rect x="30" y="6" width="2" height="2" fill="#a29c9c"/>
<rect x="18" y="7" width="1" height="1" fill="#5a4a41"/>
<rect x="6" y="7" width="1" height="1" fill="#5a4a41"/>
<rect x="3" y="7" width="1" height="1" fill="#bcaba4"/>
<rect x="10" y="7" width="3" height="1" fill="#5a4a41"/>
<rect x="1" y="7" width="1" height="1" fill="#9a908c"/>
<rect x="4" y="7" width="1" height="1" fill="#8d7f79"/>
<rect x="27" y="7" width="1" height="1" fill="#bcaba3"/>
<rect x="0" y="7" width="1" height="1" fill="#5a4a41"/>
<rect x="28" y="7" width="1" height="1" fill="#bcaba4"/>
<rect x="29" y="7" width="1" height="1" fill="#aa9991"/>
<rect x="26" y="7" width="1" height="2" fill="#aa9991"/>
<rect x="2" y="7" width="1" height="2" fill="#bcaba3"/>
<rect x="11" y="8" width="1" height="1" fill="#5a4a41"/>
<rect x="5" y="8" width="2" height="1" fill="#5a4a41"/>
<rect x="0" y="8" width="1" height="1" fill="#796b65"/>
<rect x="3" y="8" width="1" height="1" fill="#afa19a"/>
<rect x="9" y="8" width="1" height="1" fill="#5a4a41"/>
<rect x="13" y="8" width="1" height="1" fill="#5a4a41"/>
<rect x="20" y="8" width="1" height="1" fill="#5a4a41"/>
<rect x="1" y="8" width="1" height="1" fill="#bcaba4"/>
<rect x="4" y="8" width="1" height="1" fill="#63524a"/>
<rect x="27" y="8" width="2" height="2" fill="#bcaba4"/>
<rect x="29" y="8" width="1" height="2" fill="#b5a8a2"/>
<rect x="25" y="9" width="1" height="1" fill="#5b4a42"/>
<rect x="1" y="9" width="2" height="1" fill="#bcaba4"/>
<rect x="26" y="9" width="1" height="1" fill="#afa19a"/>
<rect x="3" y="9" width="1" height="1" fill="#85756e"/>
<rect x="14" y="9" width="3" height="1" fill="#5a4a41"/>
<rect x="21" y="9" width="1" height="1" fill="#5a4a41"/>
<rect x="24" y="9" width="1" height="1" fill="#796b65"/>
<rect x="6" y="9" width="2" height="1" fill="#5a4a41"/>
<rect x="18" y="9" width="2" height="1" fill="#5a4a41"/>
<rect x="12" y="9" width="1" height="1" fill="#5a4a41"/>
<rect x="0" y="9" width="1" height="1" fill="#aa9991"/>
<rect x="23" y="9" width="1" height="1" fill="#9a908c"/>
<rect x="22" y="9" width="1" height="1" fill="#635650"/>
<rect x="31" y="8" width="1" height="3" fill="#a19c9c"/>
<rect x="30" y="8" width="1" height="3" fill="#a29c9c"/>
<rect x="7" y="10" width="1" height="1" fill="#5a4a41"/>
<rect x="3" y="10" width="1" height="1" fill="#5d4c44"/>
<rect x="26" y="10" width="3" height="1" fill="#bcaba4"/>
<rect x="25" y="10" width="1" height="1" fill="#8d7f79"/>
<rect x="2" y="10" width="1" height="1" fill="#afa19a"/>
<rect x="29" y="10" width="1" height="1" fill="#afa19a"/>
<rect x="4" y="10" width="1" height="1" fill="#5a4a41"/>
<rect x="22" y="10" width="1" height="2" fill="#85756e"/>
<rect x="24" y="10" width="1" height="2" fill="#bcaba3"/>
<rect x="23" y="10" width="1" height="2" fill="#bcaba4"/>
<rect x="11" y="11" width="1" height="1" fill="#5a4a41"/>
<rect x="5" y="11" width="1" height="1" fill="#5a4a41"/>
<rect x="17" y="11" width="1" height="1" fill="#5a4a41"/>
<rect x="30" y="11" width="2" height="1" fill="#a29c9c"/>
<rect x="28" y="11" width="1" height="1" fill="#bcaba4"/>
<rect x="27" y="11" width="1" height="1" fill="#bcaba3"/>
<rect x="19" y="11" width="1" height="1" fill="#5a4a41"/>
<rect x="25" y="11" width="2" height="1" fill="#bcaba4"/>
<rect x="29" y="11" width="1" height="1" fill="#948883"/>
<rect x="21" y="11" width="1" height="2" fill="#5a4a41"/>
<rect x="2" y="11" width="1" height="2" fill="#948883"/>
<rect x="26" y="12" width="1" height="1" fill="#bcaba3"/>
<rect x="6" y="12" width="1" height="1" fill="#6a5951"/>
<rect x="4" y="12" width="1" height="1" fill="#63524a"/>
<rect x="3" y="12" width="1" height="1" fill="#5a4a41"/>
<rect x="28" y="12" width="1" height="1" fill="#aa9991"/>
<rect x="27" y="12" width="1" height="1" fill="#bcaba4"/>
<rect x="23" y="12" width="1" height="1" fill="#bcaba3"/>
<rect x="29" y="12" width="1" height="1" fill="#8d7f79"/>
<rect x="12" y="12" width="3" height="1" fill="#5a4a41"/>
<rect x="22" y="12" width="1" height="1" fill="#63524a"/>
<rect x="24" y="12" width="2" height="1" fill="#bcaba4"/>
<rect x="5" y="12" width="1" height="1" fill="#8d7f79"/>
<rect x="18" y="12" width="1" height="2" fill="#5a4a41"/>
<rect x="10" y="12" width="1" height="2" fill="#5a4a41"/>
<rect x="2" y="13" width="1" height="1" fill="#8d7f79"/>
<rect x="28" y="13" width="1" height="1" fill="#796b65"/>
<rect x="3" y="13" width="1" height="1" fill="#5d4c44"/>
<rect x="21" y="13" width="2" height="1" fill="#5a4a41"/>
<rect x="24" y="13" width="4" height="1" fill="#bcaba4"/>
<rect x="29" y="13" width="1" height="1" fill="#948883"/>
<rect x="5" y="13" width="1" height="1" fill="#bcaba3"/>
<rect x="23" y="13" width="1" height="1" fill="#aa9991"/>
<rect x="6" y="13" width="1" height="1" fill="#8d7f79"/>
<rect x="4" y="13" width="1" height="1" fill="#aa9991"/>
<rect x="0" y="10" width="2" height="5" fill="#bcaba4"/>
<rect x="30" y="12" width="1" height="3" fill="#a19c9c"/>
<rect x="31" y="12" width="1" height="3" fill="#a29c9c"/>
<rect x="8" y="12" width="1" height="3" fill="#5a4a41"/>
<rect x="27" y="14" width="1" height="1" fill="#aa9991"/>
<rect x="23" y="14" width="1" height="1" fill="#b5a8a2"/>
<rect x="22" y="14" width="1" height="1" fill="#5e4c44"/>
<rect x="21" y="14" width="1" height="1" fill="#6a5951"/>
<rect x="24" y="14" width="3" height="1" fill="#bcaba4"/>
<rect x="28" y="14" width="1" height="1" fill="#5b4a42"/>
<rect x="17" y="14" width="2" height="1" fill="#5a4a41"/>
<rect x="11" y="14" width="1" height="1" fill="#5a4a41"/>
<rect x="4" y="14" width="2" height="1" fill="#bcaba4"/>
<rect x="2" y="14" width="1" height="1" fill="#aa9991"/>
<rect x="20" y="14" width="1" height="1" fill="#aa9991"/>
<rect x="19" y="14" width="1" height="1" fill="#85756e"/>
<rect x="29" y="14" width="1" height="1" fill="#9a908c"/>
<rect x="3" y="14" width="1" height="1" fill="#948883"/>
<rect x="6" y="14" width="1" height="1" fill="#796b65"/>
<rect x="13" y="14" width="1" height="2" fill="#5a4a41"/>
<rect x="6" y="15" width="1" height="1" fill="#5d4c44"/>
<rect x="23" y="15" width="4" height="1" fill="#bcaba4"/>
<rect x="5" y="15" width="1" height="1" fill="#afa19a"/>
<rect x="10" y="15" width="1" height="1" fill="#5a4a41"/>
<rect x="30" y="15" width="2" height="1" fill="#a29c9c"/>
<rect x="28" y="15" width="1" height="1" fill="#5a4a41"/>
<rect x="27" y="15" width="1" height="1" fill="#6e625c"/>
<rect x="18" y="15" width="1" height="1" fill="#5e4c44"/>
<rect x="21" y="15" width="1" height="1" fill="#aa9991"/>
<rect x="20" y="15" width="1" height="1" fill="#bcaba4"/>
<rect x="16" y="15" width="2" height="1" fill="#5a4a41"/>
<rect x="22" y="15" width="1" height="1" fill="#948883"/>
<rect x="19" y="15" width="1" height="1" fill="#bcaba3"/>
<rect x="29" y="15" width="1" height="2" fill="#9f9998"/>
<rect x="20" y="16" width="4" height="1" fill="#bcaba4"/>
<rect x="26" y="16" width="1" height="1" fill="#9a908c"/>
<rect x="9" y="16" width="1" height="1" fill="#85756e"/>
<rect x="28" y="16" width="1" height="1" fill="#5d4c44"/>
<rect x="17" y="16" width="1" height="1" fill="#5a4a41"/>
<rect x="24" y="16" width="1" height="1" fill="#bcaba3"/>
<rect x="19" y="16" width="1" height="1" fill="#b5a8a2"/>
<rect x="18" y="16" width="1" height="1" fill="#5b4a42"/>
<rect x="30" y="16" width="1" height="1" fill="#a29c9c"/>
<rect x="25" y="16" width="1" height="1" fill="#bcaba4"/>
<rect x="10" y="16" width="2" height="1" fill="#5a4a41"/>
<rect x="7" y="16" width="1" height="1" fill="#5f4e45"/>
<rect x="8" y="16" width="1" height="1" fill="#8d7f79"/>
<rect x="31" y="16" width="1" height="1" fill="#85756e"/>
<rect x="5" y="16" width="1" height="2" fill="#85756e"/>
<rect x="8" y="17" width="1" height="1" fill="#bcaba4"/>
<rect x="19" y="17" width="1" height="1" fill="#8d7f79"/>
<rect x="23" y="17" width="2" height="1" fill="#bcaba4"/>
<rect x="26" y="17" width="1" height="1" fill="#635650"/>
<rect x="30" y="17" width="1" height="1" fill="#a19c9c"/>
<rect x="7" y="17" width="1" height="1" fill="#948883"/>
<rect x="10" y="17" width="3" height="1" fill="#5a4a41"/>
<rect x="28" y="17" width="1" height="1" fill="#63524a"/>
<rect x="9" y="17" width="1" height="1" fill="#aa9991"/>
<rect x="25" y="17" width="1" height="1" fill="#b5a8a2"/>
<rect x="16" y="17" width="1" height="1" fill="#5a4a41"/>
<rect x="20" y="17" width="2" height="1" fill="#bcaba4"/>
<rect x="22" y="17" width="1" height="1" fill="#bcaba3"/>
<rect x="0" y="15" width="5" height="4" fill="#bcaba4"/>
<rect x="14" y="16" width="1" height="3" fill="#5a4a41"/>
<rect x="29" y="17" width="1" height="2" fill="#a29c9c"/>
<rect x="18" y="18" width="1" height="1" fill="#5a4a41"/>
<rect x="19" y="18" width="1" height="1" fill="#635650"/>
<rect x="9" y="18" width="1" height="1" fill="#8d7f79"/>
<rect x="7" y="18" width="2" height="1" fill="#bcaba3"/>
<rect x="5" y="18" width="1" height="1" fill="#aa9991"/>
<rect x="25" y="18" width="1" height="1" fill="#85756e"/>
<rect x="30" y="18" width="1" height="1" fill="#9f9998"/>
<rect x="24" y="18" width="1" height="1" fill="#bcaba3"/>
<rect x="28" y="18" width="1" height="1" fill="#6a5951"/>
<rect x="6" y="18" width="1" height="1" fill="#85756e"/>
<rect x="20" y="18" width="1" height="2" fill="#bcaba3"/>
<rect x="21" y="18" width="3" height="2" fill="#bcaba4"/>
<rect x="1" y="19" width="7" height="1" fill="#bcaba4"/>
<rect x="25" y="19" width="1" height="1" fill="#5b4a42"/>
<rect x="0" y="19" width="1" height="1" fill="#bcaba3"/>
<rect x="19" y="19" width="1" height="1" fill="#6a5951"/>
<rect x="8" y="19" width="1" height="1" fill="#bcaba3"/>
<rect x="15" y="19" width="2" height="1" fill="#5a4a41"/>
<rect x="29" y="19" width="1" height="1" fill="#a19c9c"/>
<rect x="24" y="19" width="1" height="1" fill="#9a908c"/>
<rect x="28" y="19" width="1" height="1" fill="#6e625c"/>
<rect x="9" y="19" width="1" height="1" fill="#6a5951"/>
<rect x="10" y="18" width="1" height="3" fill="#5a4a41"/>
<rect x="30" y="19" width="1" height="2" fill="#9a908c"/>
<rect x="0" y="20" width="1" height="1" fill="#948883"/>
<rect x="14" y="20" width="1" height="1" fill="#5a4a41"/>
<rect x="18" y="20" width="1" height="1" fill="#5a4a41"/>
<rect x="26" y="20" width="1" height="1" fill="#5a4a41"/>
<rect x="8" y="20" width="1" height="1" fill="#948883"/>
<rect x="2" y="20" width="6" height="1" fill="#bcaba4"/>
<rect x="20" y="20" width="3" height="1" fill="#bcaba4"/>
<rect x="19" y="20" width="1" height="1" fill="#aa9991"/>
<rect x="23" y="20" width="1" height="1" fill="#afa19a"/>
<rect x="1" y="20" width="1" height="1" fill="#bcaba3"/>
<rect x="24" y="20" width="1" height="1" fill="#63524a"/>
<rect x="28" y="20" width="1" height="2" fill="#796b65"/>
<rect x="29" y="20" width="1" height="2" fill="#a29c9c"/>
<rect x="6" y="21" width="1" height="1" fill="#bcaba4"/>
<rect x="7" y="21" width="1" height="1" fill="#bcaba3"/>
<rect x="26" y="21" width="2" height="1" fill="#5a4a41"/>
<rect x="18" y="21" width="1" height="1" fill="#6a5951"/>
<rect x="5" y="21" width="1" height="1" fill="#bcaba3"/>
<rect x="0" y="21" width="1" height="1" fill="#63524a"/>
<rect x="13" y="21" width="2" height="1" fill="#5a4a41"/>
<rect x="8" y="21" width="1" height="1" fill="#85756e"/>
<rect x="24" y="21" width="1" height="1" fill="#5a4a41"/>
<rect x="11" y="21" width="1" height="1" fill="#5a4a41"/>
<rect x="23" y="21" width="1" height="1" fill="#6a5951"/>
<rect x="2" y="21" width="3" height="1" fill="#bcaba4"/>
<rect x="22" y="21" width="1" height="1" fill="#afa19a"/>
<rect x="19" y="21" width="1" height="1" fill="#bcaba3"/>
<rect x="30" y="21" width="1" height="1" fill="#9f9998"/>
<rect x="1" y="21" width="1" height="1" fill="#afa19a"/>
<rect x="20" y="21" width="2" height="1" fill="#bcaba4"/>
<rect x="31" y="17" width="1" height="6" fill="#282424"/>
<rect x="14" y="22" width="2" height="1" fill="#5a4a41"/>
<rect x="8" y="22" width="1" height="1" fill="#afa19a"/>
<rect x="27" y="22" width="1" height="1" fill="#63524a"/>
<rect x="9" y="22" width="1" height="1" fill="#5f4e45"/>
<rect x="29" y="22" width="1" height="1" fill="#a19c9c"/>
<rect x="28" y="22" width="1" height="1" fill="#8d7f79"/>
<rect x="10" y="22" width="1" height="1" fill="#5a4a41"/>
<rect x="26" y="22" width="1" height="1" fill="#5b4a42"/>
<rect x="24" y="22" width="2" height="1" fill="#5a4a41"/>
<rect x="22" y="22" width="1" height="1" fill="#6a5951"/>
<rect x="21" y="22" width="1" height="1" fill="#aa9991"/>
<rect x="18" y="22" width="1" height="1" fill="#796b65"/>
<rect x="3" y="22" width="5" height="1" fill="#bcaba4"/>
<rect x="1" y="22" width="1" height="1" fill="#6e625c"/>
<rect x="2" y="22" width="1" height="1" fill="#bcaba3"/>
<rect x="19" y="22" width="2" height="1" fill="#bcaba4"/>
<rect x="30" y="22" width="1" height="2" fill="#a29c9c"/>
<rect x="2" y="23" width="1" height="1" fill="#85756e"/>
<rect x="14" y="23" width="1" height="1" fill="#5a4a41"/>
<rect x="6" y="23" width="2" height="1" fill="#bcaba3"/>
<rect x="23" y="23" width="4" height="1" fill="#6a5951"/>
<rect x="0" y="23" width="1" height="1" fill="#5a4a41"/>
<rect x="28" y="23" width="1" height="1" fill="#6e625c"/>
<rect x="3" y="23" width="1" height="1" fill="#bcaba3"/>
<rect x="9" y="23" width="1" height="1" fill="#796b65"/>
<rect x="20" y="23" width="1" height="1" fill="#796b65"/>
<rect x="19" y="23" width="1" height="1" fill="#8d7f79"/>
<rect x="4" y="23" width="2" height="1" fill="#bcaba4"/>
<rect x="22" y="23" width="1" height="1" fill="#5f4e45"/>
<rect x="12" y="23" width="1" height="1" fill="#5a4a41"/>
<rect x="8" y="23" width="1" height="1" fill="#bcaba4"/>
<rect x="31" y="23" width="1" height="1" fill="#493e3b"/>
<rect x="29" y="23" width="1" height="1" fill="#a29c9b"/>
<rect x="27" y="23" width="1" height="1" fill="#635650"/>
<rect x="21" y="23" width="1" height="1" fill="#5c4b42"/>
<rect x="5" y="24" width="4" height="1" fill="#bcaba4"/>
<rect x="9" y="24" width="1" height="1" fill="#85756e"/>
<rect x="3" y="24" width="1" height="1" fill="#85756e"/>
<rect x="4" y="24" width="1" height="1" fill="#bcaba3"/>
<rect x="31" y="24" width="1" height="1" fill="#635650"/>
<rect x="23" y="24" width="1" height="1" fill="#615047"/>
<rect x="13" y="24" width="4" height="1" fill="#5a4a41"/>
<rect x="17" y="24" width="1" height="1" fill="#5b4a42"/>
<rect x="24" y="24" width="1" height="1" fill="#5e4f48"/>
<rect x="19" y="24" width="4" height="1" fill="#6a5951"/>
<rect x="1" y="24" width="2" height="1" fill="#5a4a41"/>
<rect x="29" y="24" width="1" height="1" fill="#948883"/>
<rect x="18" y="23" width="1" height="3" fill="#63524a"/>
<rect x="30" y="24" width="1" height="2" fill="#a19c9c"/>
<rect x="25" y="24" width="1" height="2" fill="#615047"/>
<rect x="26" y="24" width="3" height="2" fill="#5e4f48"/>
<rect x="4" y="25" width="1" height="1" fill="#6e625c"/>
<rect x="5" y="25" width="1" height="1" fill="#aa9991"/>
<rect x="8" y="25" width="1" height="1" fill="#aa9991"/>
<rect x="19" y="25" width="2" height="1" fill="#5e4f48"/>
<rect x="17" y="25" width="1" height="1" fill="#6a5951"/>
<rect x="23" y="25" width="1" height="1" fill="#5b4a42"/>
<rect x="6" y="25" width="2" height="1" fill="#bcaba4"/>
<rect x="24" y="25" width="1" height="1" fill="#5f4e45"/>
<rect x="10" y="25" width="2" height="1" fill="#5a4a41"/>
<rect x="29" y="25" width="1" height="1" fill="#6e625c"/>
<rect x="9" y="25" width="1" height="1" fill="#635650"/>
<rect x="16" y="25" width="1" height="1" fill="#635650"/>
<rect x="14" y="25" width="2" height="1" fill="#63524a"/>
<rect x="22" y="25" width="1" height="1" fill="#5a4940"/>
<rect x="21" y="25" width="1" height="1" fill="#5f4e45"/>
<rect x="13" y="25" width="1" height="1" fill="#5f4e45"/>
<rect x="31" y="25" width="1" height="1" fill="#8d7f79"/>
<rect x="20" y="26" width="1" height="1" fill="#554945"/>
<rect x="31" y="26" width="1" height="1" fill="#9f9998"/>
<rect x="25" y="26" width="1" height="1" fill="#5d4c44"/>
<rect x="14" y="26" width="1" height="1" fill="#5d4c44"/>
<rect x="24" y="26" width="1" height="1" fill="#796b65"/>
<rect x="22" y="26" width="2" height="1" fill="#948883"/>
<rect x="9" y="26" width="1" height="1" fill="#615047"/>
<rect x="21" y="26" width="1" height="1" fill="#6e625c"/>
<rect x="5" y="26" width="1" height="1" fill="#5a4a41"/>
<rect x="6" y="26" width="2" height="1" fill="#6a5951"/>
<rect x="19" y="26" width="1" height="1" fill="#5e4c44"/>
<rect x="8" y="26" width="1" height="1" fill="#5b4a42"/>
<rect x="16" y="26" width="3" height="1" fill="#5f4d43"/>
<rect x="15" y="26" width="1" height="1" fill="#5e4c44"/>
<rect x="30" y="26" width="1" height="1" fill="#948883"/>
<rect x="10" y="26" width="4" height="1" fill="#63524a"/>
<rect x="26" y="26" width="1" height="1" fill="#5e4f48"/>
<rect x="27" y="26" width="1" height="1" fill="#615047"/>
<rect x="28" y="26" width="2" height="2" fill="#5e4f48"/>
<rect x="3" y="26" width="1" height="2" fill="#5a4a41"/>
<rect x="5" y="27" width="3" height="1" fill="#615047"/>
<rect x="8" y="27" width="1" height="1" fill="#63524a"/>
<rect x="0" y="27" width="1" height="1" fill="#5a4a41"/>
<rect x="31" y="27" width="1" height="1" fill="#a29c9c"/>
<rect x="23" y="27" width="1" height="1" fill="#b5a8a2"/>
<rect x="26" y="27" width="1" height="1" fill="#85756e"/>
<rect x="21" y="27" width="1" height="1" fill="#a29c9c"/>
<rect x="20" y="27" width="1" height="1" fill="#6e625c"/>
<rect x="4" y="27" width="1" height="1" fill="#5d4c44"/>
<rect x="15" y="27" width="1" height="1" fill="#5d4c44"/>
<rect x="30" y="27" width="1" height="1" fill="#796b65"/>
<rect x="11" y="27" width="1" height="1" fill="#604d44"/>
<rect x="13" y="27" width="2" height="1" fill="#5c4b42"/>
<rect x="24" y="27" width="2" height="1" fill="#b9b5b4"/>
<rect x="12" y="27" width="1" height="1" fill="#5f4d43"/>
<rect x="9" y="27" width="2" height="1" fill="#5f4d43"/>
<rect x="16" y="27" width="4" height="1" fill="#5e4c44"/>
<rect x="27" y="27" width="1" height="1" fill="#5d4c44"/>
<rect x="22" y="27" width="1" height="2" fill="#a29c9b"/>
<rect x="18" y="28" width="1" height="1" fill="#5c4b42"/>
<rect x="17" y="28" width="1" height="1" fill="#5d4c44"/>
<rect x="31" y="28" width="1" height="1" fill="#9a908c"/>
<rect x="14" y="28" width="3" height="1" fill="#5c4b42"/>
<rect x="21" y="28" width="1" height="1" fill="#9f9998"/>
<rect x="27" y="28" width="1" height="1" fill="#948883"/>
<rect x="23" y="28" width="1" height="1" fill="#493e3b"/>
<rect x="26" y="28" width="1" height="1" fill="#6e625c"/>
<rect x="0" y="28" width="1" height="1" fill="#5d4c44"/>
<rect x="28" y="28" width="1" height="1" fill="#5d4c44"/>
<rect x="29" y="28" width="2" height="1" fill="#5e4f48"/>
<rect x="20" y="28" width="1" height="1" fill="#9a908c"/>
<rect x="2" y="28" width="3" height="1" fill="#615047"/>
<rect x="1" y="28" width="1" height="1" fill="#5f4e45"/>
<rect x="24" y="28" width="2" height="1" fill="#282424"/>
<rect x="5" y="28" width="7" height="1" fill="#604d44"/>
<rect x="12" y="28" width="2" height="2" fill="#5f4d43"/>
<rect x="30" y="29" width="1" height="1" fill="#5e4f48"/>
<rect x="7" y="29" width="1" height="1" fill="#554945"/>
<rect x="25" y="29" width="1" height="1" fill="#9a908c"/>
<rect x="22" y="29" width="2" height="1" fill="#282424"/>
<rect x="0" y="29" width="3" height="1" fill="#5f4d43"/>
<rect x="6" y="29" width="1" height="1" fill="#5a4940"/>
<rect x="10" y="29" width="1" height="1" fill="#5a4940"/>
<rect x="28" y="29" width="1" height="1" fill="#796b65"/>
<rect x="11" y="29" width="1" height="1" fill="#604d44"/>
<rect x="3" y="29" width="3" height="1" fill="#604d44"/>
<rect x="9" y="29" width="1" height="1" fill="#63524a"/>
<rect x="18" y="29" width="1" height="1" fill="#5e4c44"/>
<rect x="20" y="29" width="1" height="1" fill="#9f9998"/>
<rect x="26" y="29" width="1" height="1" fill="#8d7f79"/>
<rect x="31" y="29" width="1" height="1" fill="#796b65"/>
<rect x="14" y="29" width="4" height="1" fill="#5c4b42"/>
<rect x="27" y="29" width="1" height="1" fill="#282424"/>
<rect x="24" y="29" width="1" height="1" fill="#948883"/>
<rect x="29" y="29" width="1" height="1" fill="#5d4c44"/>
<rect x="8" y="29" width="1" height="1" fill="#635650"/>
<rect x="21" y="29" width="1" height="1" fill="#afa19a"/>
<rect x="19" y="28" width="1" height="3" fill="#5a4940"/>
<rect x="2" y="30" width="2" height="1" fill="#5f4d43"/>
<rect x="27" y="30" width="1" height="1" fill="#9f9998"/>
<rect x="20" y="30" width="2" height="1" fill="#9f9998"/>
<rect x="7" y="30" width="2" height="1" fill="#afa19a"/>
<rect x="14" y="30" width="1" height="1" fill="#5d4c44"/>
<rect x="9" y="30" width="1" height="1" fill="#b5a8a2"/>
<rect x="10" y="30" width="1" height="1" fill="#9f9998"/>
<rect x="0" y="30" width="1" height="1" fill="#5d4c44"/>
<rect x="11" y="30" width="1" height="1" fill="#796b65"/>
<rect x="26" y="30" width="1" height="1" fill="#493e3b"/>
<rect x="23" y="30" width="1" height="1" fill="#9a908c"/>
<rect x="28" y="30" width="1" height="1" fill="#635650"/>
<rect x="1" y="30" width="1" height="1" fill="#5e4c44"/>
<rect x="22" y="30" width="1" height="1" fill="#282424"/>
<rect x="12" y="30" width="1" height="1" fill="#5c4b42"/>
<rect x="5" y="30" width="1" height="1" fill="#493e3b"/>
<rect x="13" y="30" width="1" height="1" fill="#604d44"/>
<rect x="24" y="30" width="2" height="1" fill="#282424"/>
<rect x="6" y="30" width="1" height="1" fill="#796b65"/>
<rect x="4" y="30" width="1" height="2" fill="#604d44"/>
<rect x="29" y="30" width="1" height="2" fill="#6e625c"/>
<rect x="30" y="30" width="2" height="2" fill="#5e4f48"/>
<rect x="15" y="30" width="4" height="2" fill="#5c4b42"/>
<rect x="2" y="31" width="1" height="1" fill="#5e4c44"/>
<rect x="6" y="31" width="3" height="1" fill="#b5a8a2"/>
<rect x="10" y="31" width="1" height="1" fill="#afa19a"/>
<rect x="21" y="31" width="1" height="1" fill="#9f9998"/>
<rect x="26" y="31" width="2" height="1" fill="#493e3b"/>
<rect x="13" y="31" width="1" height="1" fill="#63524a"/>
<rect x="19" y="31" width="1" height="1" fill="#5b4a42"/>
<rect x="24" y="31" width="1" height="1" fill="#6e625c"/>
<rect x="5" y="31" width="1" height="1" fill="#554945"/>
<rect x="11" y="31" width="1" height="1" fill="#b5a8a2"/>
<rect x="3" y="31" width="1" height="1" fill="#5f4d43"/>
<rect x="9" y="31" width="1" height="1" fill="#a29c9b"/>
<rect x="20" y="31" width="1" height="1" fill="#8d7f79"/>
<rect x="14" y="31" width="1" height="1" fill="#5e4c44"/>
<rect x="22" y="31" width="1" height="1" fill="#635650"/>
<rect x="0" y="31" width="2" height="1" fill="#5d4c44"/>
<rect x="12" y="31" width="1" height="1" fill="#9a908c"/>
<rect x="28" y="31" width="1" height="1" fill="#a19c9c"/>
<rect x="25" y="31" width="1" height="1" fill="#282424"/>
<rect x="23" y="31" width="1" height="1" fill="#b9b5b4"/>
</svg>