<?xml version="1.0" encoding="UTF-8"?>
<svg xmlns="http://www.w3.org/2000/svg" width="20mm" height="20mm" viewBox="0 0 32 32" shape-rendering="crispEdges">
<title>050 正面 structured semantic redraw</title>
<metadata>registered 32-unit semantic vector redraw; no embedded raster; physical-size=20mm</metadata>
<rect x="0" y="0" width="32" height="32" fill="#ae654d"/>
<rect x="6" y="0" width="1" height="1" fill="#c57865"/>
<rect x="5" y="0" width="1" height="1" fill="#c5755f"/>
<rect x="30" y="0" width="2" height="1" fill="#ce7c6b"/>
<rect x="2" y="0" width="2" height="1" fill="#be7259"/>
<rect x="10" y="0" width="10" height="1" fill="#ce7c6b"/>
<rect x="22" y="0" width="1" height="1" fill="#be7259"/>
<rect x="4" y="0" width="1" height="1" fill="#c2735d"/>
<rect x="20" y="0" width="2" height="1" fill="#c57865"/>
<rect x="23" y="0" width="4" height="1" fill="#ad6d5a"/>
<rect x="7" y="0" width="1" height="1" fill="#ca7765"/>
<rect x="27" y="0" width="3" height="1" fill="#c57865"/>
<rect x="8" y="0" width="2" height="1" fill="#cb7866"/>
<rect x="11" y="1" width="1" height="1" fill="#bd7058"/>
<rect x="28" y="1" width="4" height="1" fill="#ad6d5a"/>
<rect x="9" y="1" width="1" height="1" fill="#b16952"/>
<rect x="12" y="1" width="1" height="1" fill="#c2735d"/>
<rect x="26" y="1" width="2" height="1" fill="#c57865"/>
<rect x="3" y="1" width="2" height="1" fill="#b36c55"/>
<rect x="18" y="1" width="8" height="1" fill="#ce7c6b"/>
<rect x="13" y="1" width="1" height="1" fill="#c5755f"/>
<rect x="16" y="1" width="2" height="1" fill="#cb7866"/>
<rect x="7" y="1" width="2" height="1" fill="#af664f"/>
<rect x="14" y="1" width="2" height="1" fill="#ca7765"/>
<rect x="10" y="1" width="1" height="1" fill="#b76c55"/>
<rect x="5" y="1" width="2" height="1" fill="#b36c54"/>
<rect x="2" y="1" width="1" height="2" fill="#b76e56"/>
<rect x="16" y="2" width="1" height="1" fill="#c07259"/>
<rect x="17" y="2" width="1" height="1" fill="#c2735d"/>
<rect x="14" y="2" width="1" height="1" fill="#b36c55"/>
<rect x="18" y="2" width="1" height="1" fill="#ca7765"/>
<rect x="31" y="2" width="1" height="1" fill="#c57865"/>
<rect x="19" y="2" width="1" height="1" fill="#cb7866"/>
<rect x="20" y="2" width="1" height="1" fill="#c5755f"/>
<rect x="5" y="2" width="1" height="1" fill="#b76e56"/>
<rect x="6" y="2" width="1" height="1" fill="#b46d55"/>
<rect x="21" y="2" width="2" height="1" fill="#ca7765"/>
<rect x="23" y="2" width="2" height="1" fill="#cb7866"/>
<rect x="7" y="2" width="1" height="1" fill="#af664f"/>
<rect x="4" y="2" width="1" height="1" fill="#b46d55"/>
<rect x="15" y="2" width="1" height="1" fill="#b46d55"/>
<rect x="11" y="2" width="1" height="1" fill="#af664f"/>
<rect x="13" y="2" width="1" height="1" fill="#b36c54"/>
<rect x="25" y="2" width="6" height="1" fill="#ce7c6b"/>
<rect x="0" y="0" width="2" height="4" fill="#cb7866"/>
<rect x="3" y="2" width="1" height="2" fill="#b36c55"/>
<rect x="12" y="2" width="1" height="2" fill="#b36c55"/>
<rect x="2" y="3" width="1" height="1" fill="#bd7058"/>
<rect x="28" y="3" width="1" height="1" fill="#bd7058"/>
<rect x="22" y="3" width="1" height="1" fill="#b46c54"/>
<rect x="16" y="3" width="1" height="1" fill="#bd7058"/>
<rect x="5" y="3" width="2" height="1" fill="#ca7765"/>
<rect x="30" y="3" width="1" height="1" fill="#c5755f"/>
<rect x="31" y="3" width="1" height="1" fill="#bd7058"/>
<rect x="18" y="3" width="2" height="1" fill="#ca7765"/>
<rect x="27" y="3" width="1" height="1" fill="#b76e56"/>
<rect x="21" y="3" width="1" height="1" fill="#bd7058"/>
<rect x="24" y="3" width="2" height="1" fill="#b76e56"/>
<rect x="13" y="3" width="3" height="1" fill="#b46d55"/>
<rect x="10" y="3" width="2" height="1" fill="#b16952"/>
<rect x="20" y="3" width="1" height="1" fill="#c07259"/>
<rect x="23" y="3" width="1" height="1" fill="#b46d55"/>
<rect x="29" y="3" width="1" height="1" fill="#c2735d"/>
<rect x="8" y="3" width="1" height="1" fill="#a4604a"/>
<rect x="17" y="3" width="1" height="1" fill="#be7259"/>
<rect x="26" y="3" width="1" height="1" fill="#b76c55"/>
<rect x="4" y="3" width="1" height="2" fill="#b76e56"/>
<rect x="7" y="3" width="1" height="2" fill="#a8624c"/>
<rect x="9" y="3" width="1" height="2" fill="#ac6650"/>
<rect x="27" y="4" width="1" height="1" fill="#a8624c"/>
<rect x="2" y="4" width="1" height="1" fill="#b76e56"/>
<rect x="8" y="4" width="1" height="1" fill="#a05e4a"/>
<rect x="25" y="4" width="1" height="1" fill="#b16952"/>
<rect x="6" y="4" width="1" height="1" fill="#cb7866"/>
<rect x="18" y="4" width="2" height="1" fill="#c5755f"/>
<rect x="12" y="4" width="1" height="1" fill="#b36d55"/>
<rect x="10" y="4" width="2" height="1" fill="#b36c55"/>
<rect x="3" y="4" width="1" height="1" fill="#b36c54"/>
<rect x="14" y="4" width="2" height="1" fill="#be7259"/>
<rect x="29" y="4" width="2" height="1" fill="#975845"/>
<rect x="20" y="4" width="2" height="1" fill="#bd7058"/>
<rect x="28" y="4" width="1" height="1" fill="#a05e4a"/>
<rect x="22" y="4" width="3" height="1" fill="#b36c55"/>
<rect x="0" y="4" width="2" height="1" fill="#ca7765"/>
<rect x="5" y="4" width="1" height="1" fill="#ca7765"/>
<rect x="16" y="4" width="2" height="2" fill="#ca7765"/>
<rect x="13" y="4" width="1" height="2" fill="#b46d55"/>
<rect x="31" y="4" width="1" height="2" fill="#8d5140"/>
<rect x="12" y="5" width="1" height="1" fill="#b76c55"/>
<rect x="10" y="5" width="2" height="1" fill="#b46d55"/>
<rect x="14" y="5" width="1" height="1" fill="#be7259"/>
<rect x="27" y="5" width="1" height="1" fill="#b16952"/>
<rect x="23" y="5" width="1" height="1" fill="#b36c54"/>
<rect x="29" y="5" width="1" height="1" fill="#975845"/>
<rect x="19" y="5" width="1" height="1" fill="#be7259"/>
<rect x="30" y="5" width="1" height="1" fill="#945643"/>
<rect x="18" y="5" width="1" height="1" fill="#c07259"/>
<rect x="6" y="5" width="1" height="1" fill="#a8624c"/>
<rect x="9" y="5" width="1" height="1" fill="#a4604a"/>
<rect x="8" y="5" width="1" height="1" fill="#945643"/>
<rect x="15" y="5" width="1" height="1" fill="#c07259"/>
<rect x="21" y="5" width="2" height="1" fill="#b36c55"/>
<rect x="26" y="5" width="1" height="1" fill="#c2735d"/>
<rect x="5" y="5" width="1" height="1" fill="#a4604a"/>
<rect x="0" y="5" width="2" height="1" fill="#c07259"/>
<rect x="7" y="5" width="1" height="1" fill="#975845"/>
<rect x="28" y="5" width="1" height="2" fill="#a15e49"/>
<rect x="4" y="5" width="1" height="2" fill="#ac644c"/>
<rect x="2" y="5" width="1" height="2" fill="#b16952"/>
<rect x="25" y="5" width="1" height="2" fill="#b36b53"/>
<rect x="20" y="5" width="1" height="2" fill="#b46d55"/>
<rect x="9" y="6" width="1" height="1" fill="#9c5a47"/>
<rect x="22" y="6" width="2" height="1" fill="#b36b53"/>
<rect x="1" y="6" width="1" height="1" fill="#c07259"/>
<rect x="7" y="6" width="2" height="1" fill="#8d5140"/>
<rect x="13" y="6" width="1" height="1" fill="#c07259"/>
<rect x="31" y="6" width="1" height="1" fill="#975845"/>
<rect x="0" y="6" width="1" height="1" fill="#c2735d"/>
<rect x="29" y="6" width="1" height="1" fill="#945643"/>
<rect x="16" y="6" width="2" height="1" fill="#c2735d"/>
<rect x="27" y="6" width="1" height="1" fill="#b76e56"/>
<rect x="30" y="6" width="1" height="1" fill="#8d5140"/>
<rect x="10" y="6" width="1" height="1" fill="#b46d55"/>
<rect x="26" y="6" width="1" height="1" fill="#cb7866"/>
<rect x="12" y="6" width="1" height="1" fill="#be7259"/>
<rect x="5" y="6" width="2" height="1" fill="#a05e4a"/>
<rect x="18" y="6" width="1" height="1" fill="#bd7058"/>
<rect x="11" y="6" width="1" height="1" fill="#b76c55"/>
<rect x="19" y="6" width="1" height="1" fill="#b76e56"/>
<rect x="14" y="6" width="2" height="2" fill="#ca7765"/>
<rect x="21" y="6" width="1" height="2" fill="#b36c55"/>
<rect x="16" y="7" width="1" height="1" fill="#c07259"/>
<rect x="4" y="7" width="1" height="1" fill="#ae654e"/>
<rect x="20" y="7" width="1" height="1" fill="#b36d55"/>
<rect x="27" y="7" width="1" height="1" fill="#a05e4a"/>
<rect x="10" y="7" width="2" height="1" fill="#b76e56"/>
<rect x="8" y="7" width="1" height="1" fill="#9c5a47"/>
<rect x="7" y="7" width="1" height="1" fill="#a4604a"/>
<rect x="12" y="7" width="2" height="1" fill="#c07259"/>
<rect x="28" y="7" width="4" height="1" fill="#945643"/>
<rect x="9" y="7" width="1" height="1" fill="#a8624c"/>
<rect x="5" y="7" width="2" height="1" fill="#ac6650"/>
<rect x="26" y="7" width="1" height="1" fill="#a8624c"/>
<rect x="17" y="7" width="1" height="1" fill="#be7259"/>
<rect x="23" y="7" width="1" height="1" fill="#ae654c"/>
<rect x="25" y="7" width="1" height="1" fill="#a4604a"/>
<rect x="18" y="7" width="2" height="1" fill="#b46d55"/>
<rect x="24" y="7" width="1" height="2" fill="#a15e49"/>
<rect x="2" y="7" width="1" height="2" fill="#b76c55"/>
<rect x="0" y="7" width="2" height="2" fill="#cb7866"/>
<rect x="16" y="8" width="2" height="1" fill="#b76e56"/>
<rect x="19" y="8" width="1" height="1" fill="#b36c55"/>
<rect x="20" y="8" width="2" height="1" fill="#b16952"/>
<rect x="27" y="8" width="1" height="1" fill="#975845"/>
<rect x="14" y="8" width="1" height="1" fill="#c07259"/>
<rect x="29" y="8" width="1" height="1" fill="#9c5a47"/>
<rect x="5" y="8" width="2" height="1" fill="#b36c55"/>
<rect x="12" y="8" width="2" height="1" fill="#be7259"/>
<rect x="15" y="8" width="1" height="1" fill="#c2735d"/>
<rect x="28" y="8" width="1" height="1" fill="#8d5140"/>
<rect x="4" y="8" width="1" height="1" fill="#af664f"/>
<rect x="22" y="8" width="2" height="1" fill="#ac644c"/>
<rect x="18" y="8" width="1" height="1" fill="#b46d55"/>
<rect x="7" y="8" width="2" height="1" fill="#b46d55"/>
<rect x="10" y="8" width="2" height="1" fill="#c07259"/>
<rect x="25" y="8" width="2" height="1" fill="#a05e4a"/>
<rect x="30" y="8" width="1" height="1" fill="#a05e4a"/>
<rect x="9" y="8" width="1" height="2" fill="#b76e56"/>
<rect x="7" y="9" width="1" height="1" fill="#b46d55"/>
<rect x="1" y="9" width="1" height="1" fill="#c2735d"/>
<rect x="6" y="9" width="1" height="1" fill="#b36c55"/>
<rect x="8" y="9" width="1" height="1" fill="#b76c55"/>
<rect x="0" y="9" width="1" height="1" fill="#c5755f"/>
<rect x="3" y="9" width="2" height="1" fill="#b16952"/>
<rect x="18" y="9" width="2" height="1" fill="#b36c55"/>
<rect x="5" y="9" width="1" height="1" fill="#b36d55"/>
<rect x="14" y="9" width="2" height="1" fill="#be7259"/>
<rect x="17" y="9" width="1" height="1" fill="#b36d55"/>
<rect x="23" y="9" width="3" height="1" fill="#a05e4a"/>
<rect x="29" y="9" width="1" height="1" fill="#a4604a"/>
<rect x="20" y="9" width="1" height="1" fill="#af664f"/>
<rect x="30" y="9" width="1" height="1" fill="#a8624c"/>
<rect x="27" y="9" width="2" height="1" fill="#9c5a47"/>
<rect x="10" y="9" width="4" height="1" fill="#c07259"/>
<rect x="26" y="9" width="1" height="2" fill="#975845"/>
<rect x="16" y="9" width="1" height="2" fill="#b46d55"/>
<rect x="22" y="9" width="1" height="2" fill="#a15e49"/>
<rect x="21" y="10" width="1" height="1" fill="#a8624c"/>
<rect x="8" y="10" width="3" height="1" fill="#c07259"/>
<rect x="14" y="10" width="2" height="1" fill="#b76e56"/>
<rect x="5" y="10" width="1" height="1" fill="#b46d55"/>
<rect x="25" y="10" width="1" height="1" fill="#a05e4a"/>
<rect x="27" y="10" width="1" height="1" fill="#9c5a47"/>
<rect x="24" y="10" width="1" height="1" fill="#a15e49"/>
<rect x="23" y="10" width="1" height="1" fill="#a05e4a"/>
<rect x="18" y="10" width="2" height="1" fill="#b16952"/>
<rect x="6" y="10" width="1" height="1" fill="#b46c54"/>
<rect x="11" y="10" width="3" height="1" fill="#be7259"/>
<rect x="20" y="10" width="1" height="1" fill="#ac644c"/>
<rect x="28" y="10" width="1" height="1" fill="#a05e4a"/>
<rect x="17" y="10" width="1" height="1" fill="#b36c55"/>
<rect x="3" y="10" width="2" height="1" fill="#b36d55"/>
<rect x="7" y="10" width="1" height="2" fill="#bd7058"/>
<rect x="13" y="11" width="1" height="1" fill="#be7259"/>
<rect x="25" y="11" width="1" height="1" fill="#a15e49"/>
<rect x="8" y="11" width="5" height="1" fill="#c07259"/>
<rect x="18" y="11" width="1" height="1" fill="#af664f"/>
<rect x="17" y="11" width="1" height="1" fill="#b46d55"/>
<rect x="30" y="11" width="1" height="1" fill="#a4604a"/>
<rect x="3" y="11" width="1" height="1" fill="#b36c55"/>
<rect x="15" y="11" width="2" height="1" fill="#b36c55"/>
<rect x="28" y="11" width="1" height="1" fill="#ac644c"/>
<rect x="4" y="11" width="3" height="1" fill="#b46d55"/>
<rect x="26" y="11" width="1" height="1" fill="#a05e4a"/>
<rect x="21" y="11" width="4" height="1" fill="#a05e4a"/>
<rect x="2" y="9" width="1" height="4" fill="#b76e56"/>
<rect x="0" y="10" width="1" height="3" fill="#c2735d"/>
<rect x="29" y="10" width="1" height="3" fill="#a8624c"/>
<rect x="20" y="11" width="1" height="2" fill="#a4604a"/>
<rect x="14" y="11" width="1" height="2" fill="#b46d55"/>
<rect x="27" y="11" width="1" height="2" fill="#a4604a"/>
<rect x="12" y="12" width="1" height="1" fill="#b76c55"/>
<rect x="15" y="12" width="1" height="1" fill="#b36c55"/>
<rect x="5" y="12" width="2" height="1" fill="#be7259"/>
<rect x="9" y="12" width="1" height="1" fill="#c5755f"/>
<rect x="18" y="12" width="1" height="1" fill="#ac644c"/>
<rect x="19" y="12" width="1" height="1" fill="#a8624c"/>
<rect x="16" y="12" width="2" height="1" fill="#b16952"/>
<rect x="21" y="12" width="5" height="1" fill="#a05e4a"/>
<rect x="26" y="12" width="1" height="1" fill="#a15e49"/>
<rect x="30" y="12" width="1" height="1" fill="#a15e49"/>
<rect x="13" y="12" width="1" height="1" fill="#b76e56"/>
<rect x="1" y="10" width="1" height="4" fill="#c07259"/>
<rect x="10" y="12" width="2" height="2" fill="#be7259"/>
<rect x="3" y="12" width="2" height="2" fill="#b46d55"/>
<rect x="8" y="12" width="1" height="2" fill="#cb7866"/>
<rect x="25" y="13" width="1" height="1" fill="#a15e49"/>
<rect x="5" y="13" width="1" height="1" fill="#c07259"/>
<rect x="2" y="13" width="1" height="1" fill="#bd7058"/>
<rect x="6" y="13" width="1" height="1" fill="#be7259"/>
<rect x="0" y="13" width="1" height="1" fill="#c5755f"/>
<rect x="13" y="13" width="2" height="1" fill="#b36d55"/>
<rect x="26" y="13" width="2" height="1" fill="#ac644c"/>
<rect x="9" y="13" width="1" height="1" fill="#ca7765"/>
<rect x="30" y="13" width="1" height="1" fill="#a05e4a"/>
<rect x="19" y="13" width="3" height="1" fill="#a05e4a"/>
<rect x="22" y="13" width="2" height="1" fill="#975845"/>
<rect x="15" y="13" width="1" height="1" fill="#b46d55"/>
<rect x="24" y="13" width="1" height="1" fill="#a05e4a"/>
<rect x="28" y="13" width="2" height="1" fill="#a15e49"/>
<rect x="16" y="13" width="1" height="2" fill="#af664f"/>
<rect x="18" y="13" width="1" height="2" fill="#a4604a"/>
<rect x="12" y="13" width="1" height="2" fill="#b46d55"/>
<rect x="8" y="14" width="1" height="1" fill="#c2735d"/>
<rect x="10" y="14" width="2" height="1" fill="#b76e56"/>
<rect x="28" y="14" width="2" height="1" fill="#a05e4a"/>
<rect x="9" y="14" width="1" height="1" fill="#be7259"/>
<rect x="5" y="14" width="2" height="1" fill="#ca7765"/>
<rect x="19" y="14" width="4" height="1" fill="#9c5a47"/>
<rect x="30" y="14" width="1" height="1" fill="#a15e49"/>
<rect x="13" y="14" width="1" height="1" fill="#b36d55"/>
<rect x="23" y="14" width="1" height="1" fill="#975845"/>
<rect x="14" y="14" width="2" height="1" fill="#b16952"/>
<rect x="24" y="14" width="2" height="1" fill="#a15e49"/>
<rect x="31" y="8" width="1" height="8" fill="#8d5140"/>
<rect x="7" y="12" width="1" height="4" fill="#c5755f"/>
<rect x="27" y="14" width="1" height="2" fill="#ac644c"/>
<rect x="2" y="14" width="1" height="2" fill="#c5755f"/>
<rect x="4" y="14" width="1" height="2" fill="#c07259"/>
<rect x="3" y="14" width="1" height="2" fill="#be7259"/>
<rect x="8" y="15" width="1" height="1" fill="#c07259"/>
<rect x="9" y="15" width="1" height="1" fill="#bd7058"/>
<rect x="10" y="15" width="1" height="1" fill="#b36c55"/>
<rect x="18" y="15" width="1" height="1" fill="#a15e49"/>
<rect x="22" y="15" width="1" height="1" fill="#9c5a47"/>
<rect x="11" y="15" width="1" height="1" fill="#b36d55"/>
<rect x="30" y="15" width="1" height="1" fill="#b36c54"/>
<rect x="5" y="15" width="2" height="1" fill="#cb7866"/>
<rect x="23" y="15" width="1" height="1" fill="#a05e4a"/>
<rect x="19" y="15" width="3" height="1" fill="#975845"/>
<rect x="28" y="15" width="1" height="1" fill="#a05e4a"/>
<rect x="12" y="15" width="2" height="1" fill="#b46d55"/>
<rect x="1" y="14" width="1" height="3" fill="#cb7866"/>
<rect x="14" y="15" width="1" height="2" fill="#af664f"/>
<rect x="24" y="15" width="1" height="2" fill="#ac644c"/>
<rect x="29" y="15" width="1" height="2" fill="#a8624c"/>
<rect x="10" y="16" width="1" height="1" fill="#b36c54"/>
<rect x="16" y="16" width="1" height="1" fill="#a8624c"/>
<rect x="22" y="16" width="1" height="1" fill="#a05e4a"/>
<rect x="8" y="16" width="2" height="1" fill="#b76e56"/>
<rect x="3" y="16" width="2" height="1" fill="#c5755f"/>
<rect x="7" y="16" width="1" height="1" fill="#bd7058"/>
<rect x="23" y="16" width="1" height="1" fill="#a4604a"/>
<rect x="28" y="16" width="1" height="1" fill="#a4604a"/>
<rect x="20" y="16" width="2" height="1" fill="#975845"/>
<rect x="5" y="16" width="2" height="1" fill="#c2735d"/>
<rect x="2" y="16" width="1" height="1" fill="#ca7765"/>
<rect x="26" y="16" width="2" height="1" fill="#ac644c"/>
<rect x="31" y="16" width="1" height="1" fill="#945643"/>
<rect x="30" y="16" width="1" height="1" fill="#b36c55"/>
<rect x="12" y="16" width="2" height="1" fill="#b16952"/>
<rect x="18" y="16" width="1" height="1" fill="#9c5a47"/>
<rect x="17" y="16" width="1" height="1" fill="#a4604a"/>
<rect x="19" y="16" width="1" height="1" fill="#945643"/>
<rect x="11" y="16" width="1" height="2" fill="#b46c54"/>
<rect x="5" y="17" width="1" height="1" fill="#c07259"/>
<rect x="1" y="17" width="3" height="1" fill="#cb7866"/>
<rect x="6" y="17" width="1" height="1" fill="#be7259"/>
<rect x="31" y="17" width="1" height="1" fill="#a05e4a"/>
<rect x="26" y="17" width="2" height="1" fill="#a15e49"/>
<rect x="30" y="17" width="1" height="1" fill="#b36d55"/>
<rect x="17" y="17" width="1" height="1" fill="#975845"/>
<rect x="7" y="17" width="1" height="1" fill="#b76e56"/>
<rect x="8" y="17" width="1" height="1" fill="#b46d55"/>
<rect x="21" y="17" width="1" height="1" fill="#975845"/>
<rect x="4" y="17" width="1" height="1" fill="#ca7765"/>
<rect x="18" y="17" width="2" height="1" fill="#8d5140"/>
<rect x="9" y="17" width="2" height="1" fill="#b36d55"/>
<rect x="13" y="17" width="2" height="1" fill="#af654d"/>
<rect x="16" y="17" width="1" height="1" fill="#a15e49"/>
<rect x="28" y="17" width="2" height="1" fill="#b36c55"/>
<rect x="20" y="17" width="1" height="2" fill="#945643"/>
<rect x="22" y="17" width="1" height="2" fill="#a4604a"/>
<rect x="12" y="17" width="1" height="2" fill="#af664f"/>
<rect x="3" y="18" width="2" height="1" fill="#c5755f"/>
<rect x="30" y="18" width="1" height="1" fill="#b46d55"/>
<rect x="24" y="18" width="2" height="1" fill="#ac644c"/>
<rect x="17" y="18" width="2" height="1" fill="#945643"/>
<rect x="7" y="18" width="1" height="1" fill="#bd7058"/>
<rect x="26" y="18" width="2" height="1" fill="#a4604a"/>
<rect x="19" y="18" width="1" height="1" fill="#8d5140"/>
<rect x="16" y="18" width="1" height="1" fill="#9c5a47"/>
<rect x="29" y="18" width="1" height="1" fill="#b46c54"/>
<rect x="28" y="18" width="1" height="1" fill="#b36c55"/>
<rect x="21" y="18" width="1" height="1" fill="#9c5a47"/>
<rect x="2" y="18" width="1" height="1" fill="#ca7765"/>
<rect x="8" y="18" width="1" height="1" fill="#b76e56"/>
<rect x="5" y="18" width="2" height="1" fill="#c07259"/>
<rect x="9" y="18" width="1" height="1" fill="#b76c55"/>
<rect x="10" y="18" width="2" height="1" fill="#b16952"/>
<rect x="14" y="18" width="2" height="1" fill="#a8624c"/>
<rect x="31" y="18" width="1" height="1" fill="#a15e49"/>
<rect x="9" y="19" width="1" height="1" fill="#bd7058"/>
<rect x="5" y="19" width="3" height="1" fill="#c07259"/>
<rect x="3" y="19" width="2" height="1" fill="#be7259"/>
<rect x="27" y="19" width="2" height="1" fill="#b36c55"/>
<rect x="25" y="19" width="1" height="1" fill="#a05e4a"/>
<rect x="24" y="19" width="1" height="1" fill="#a4604a"/>
<rect x="20" y="19" width="1" height="1" fill="#a15e49"/>
<rect x="19" y="19" width="1" height="1" fill="#975845"/>
<rect x="30" y="19" width="1" height="1" fill="#c07259"/>
<rect x="8" y="19" width="1" height="1" fill="#be7259"/>
<rect x="31" y="19" width="1" height="2" fill="#a8624c"/>
<rect x="16" y="19" width="2" height="2" fill="#8d5140"/>
<rect x="29" y="19" width="1" height="2" fill="#b76e56"/>
<rect x="14" y="19" width="1" height="2" fill="#9c5a47"/>
<rect x="26" y="19" width="1" height="2" fill="#b16952"/>
<rect x="15" y="19" width="1" height="2" fill="#975845"/>
<rect x="18" y="19" width="1" height="2" fill="#945643"/>
<rect x="8" y="20" width="2" height="1" fill="#bd7058"/>
<rect x="6" y="20" width="2" height="1" fill="#be7259"/>
<rect x="20" y="20" width="1" height="1" fill="#a4604a"/>
<rect x="30" y="20" width="1" height="1" fill="#be7259"/>
<rect x="12" y="20" width="2" height="1" fill="#ac644c"/>
<rect x="28" y="20" width="1" height="1" fill="#b76c55"/>
<rect x="24" y="20" width="1" height="1" fill="#a8624c"/>
<rect x="27" y="20" width="1" height="1" fill="#b36c55"/>
<rect x="19" y="20" width="1" height="1" fill="#9c5a47"/>
<rect x="4" y="20" width="2" height="1" fill="#c07259"/>
<rect x="25" y="20" width="1" height="1" fill="#a4604a"/>
<rect x="3" y="20" width="1" height="2" fill="#be7259"/>
<rect x="4" y="21" width="3" height="1" fill="#c07259"/>
<rect x="25" y="21" width="3" height="1" fill="#b36c55"/>
<rect x="20" y="21" width="1" height="1" fill="#ae654c"/>
<rect x="28" y="21" width="3" height="1" fill="#be7259"/>
<rect x="7" y="21" width="1" height="1" fill="#b46c54"/>
<rect x="24" y="21" width="1" height="2" fill="#b16952"/>
<rect x="17" y="21" width="1" height="2" fill="#975845"/>
<rect x="12" y="21" width="1" height="2" fill="#9c5a47"/>
<rect x="14" y="21" width="2" height="2" fill="#8d5140"/>
<rect x="18" y="21" width="1" height="2" fill="#a15e49"/>
<rect x="31" y="21" width="1" height="2" fill="#ac644c"/>
<rect x="13" y="21" width="1" height="2" fill="#975845"/>
<rect x="16" y="21" width="1" height="2" fill="#945643"/>
<rect x="8" y="22" width="1" height="1" fill="#af654d"/>
<rect x="26" y="22" width="1" height="1" fill="#b46d55"/>
<rect x="27" y="22" width="1" height="1" fill="#b76c55"/>
<rect x="28" y="22" width="1" height="1" fill="#bd7058"/>
<rect x="29" y="22" width="2" height="1" fill="#be7259"/>
<rect x="23" y="22" width="1" height="1" fill="#af664f"/>
<rect x="21" y="22" width="1" height="1" fill="#ae654c"/>
<rect x="5" y="22" width="2" height="1" fill="#c07259"/>
<rect x="7" y="22" width="1" height="1" fill="#b76c55"/>
<rect x="25" y="22" width="1" height="1" fill="#b36c55"/>
<rect x="17" y="23" width="1" height="1" fill="#ac644c"/>
<rect x="23" y="23" width="3" height="1" fill="#b36c55"/>
<rect x="26" y="23" width="1" height="1" fill="#bd7058"/>
<rect x="27" y="23" width="2" height="1" fill="#be7259"/>
<rect x="5" y="23" width="2" height="1" fill="#b16952"/>
<rect x="30" y="23" width="1" height="1" fill="#be7259"/>
<rect x="7" y="23" width="1" height="1" fill="#af664f"/>
<rect x="19" y="23" width="1" height="1" fill="#ae654c"/>
<rect x="29" y="23" width="1" height="1" fill="#c07259"/>
<rect x="0" y="14" width="1" height="11" fill="#ce7c6b"/>
<rect x="1" y="18" width="1" height="7" fill="#cb7866"/>
<rect x="2" y="19" width="1" height="6" fill="#c5755f"/>
<rect x="3" y="22" width="2" height="3" fill="#be7259"/>
<rect x="12" y="23" width="2" height="2" fill="#8d5140"/>
<rect x="9" y="23" width="1" height="2" fill="#ac644c"/>
<rect x="14" y="23" width="1" height="2" fill="#945643"/>
<rect x="15" y="23" width="1" height="2" fill="#975845"/>
<rect x="16" y="23" width="1" height="2" fill="#a15e49"/>
<rect x="22" y="23" width="1" height="2" fill="#b16952"/>
<rect x="5" y="24" width="1" height="1" fill="#af664f"/>
<rect x="24" y="24" width="1" height="1" fill="#b46d55"/>
<rect x="23" y="24" width="1" height="1" fill="#b36c55"/>
<rect x="25" y="24" width="1" height="1" fill="#b76c55"/>
<rect x="30" y="24" width="1" height="1" fill="#bd7058"/>
<rect x="26" y="24" width="1" height="1" fill="#be7259"/>
<rect x="8" y="24" width="1" height="1" fill="#ae654e"/>
<rect x="29" y="24" width="1" height="1" fill="#b36b53"/>
<rect x="28" y="24" width="1" height="1" fill="#b76c55"/>
<rect x="27" y="24" width="1" height="1" fill="#c2735d"/>
<rect x="31" y="23" width="1" height="3" fill="#a8624c"/>
<rect x="10" y="23" width="2" height="3" fill="#975845"/>
<rect x="5" y="25" width="2" height="1" fill="#bd7058"/>
<rect x="12" y="25" width="2" height="1" fill="#945643"/>
<rect x="14" y="25" width="1" height="1" fill="#a15e49"/>
<rect x="24" y="25" width="1" height="1" fill="#b76e56"/>
<rect x="19" y="25" width="1" height="1" fill="#a15e49"/>
<rect x="0" y="25" width="1" height="1" fill="#cb7866"/>
<rect x="8" y="25" width="2" height="1" fill="#a4604a"/>
<rect x="18" y="25" width="1" height="1" fill="#a8624c"/>
<rect x="26" y="25" width="1" height="1" fill="#c5755f"/>
<rect x="3" y="25" width="2" height="1" fill="#b76c55"/>
<rect x="2" y="25" width="1" height="1" fill="#c2735d"/>
<rect x="30" y="25" width="1" height="1" fill="#b36c55"/>
<rect x="15" y="25" width="3" height="1" fill="#ac644c"/>
<rect x="28" y="25" width="1" height="1" fill="#a8624c"/>
<rect x="7" y="25" width="1" height="1" fill="#b16952"/>
<rect x="29" y="25" width="1" height="1" fill="#a15e49"/>
<rect x="1" y="25" width="1" height="1" fill="#c5755f"/>
<rect x="25" y="25" width="1" height="1" fill="#be7259"/>
<rect x="27" y="25" width="1" height="1" fill="#cb7866"/>
<rect x="23" y="25" width="1" height="1" fill="#b36d55"/>
<rect x="21" y="25" width="2" height="2" fill="#b36c55"/>
<rect x="20" y="25" width="1" height="2" fill="#a8624c"/>
<rect x="14" y="26" width="1" height="1" fill="#a4604a"/>
<rect x="29" y="26" width="1" height="1" fill="#975845"/>
<rect x="10" y="26" width="4" height="1" fill="#975845"/>
<rect x="17" y="26" width="1" height="1" fill="#af654d"/>
<rect x="24" y="26" width="1" height="1" fill="#bd7058"/>
<rect x="5" y="26" width="1" height="1" fill="#c57865"/>
<rect x="6" y="26" width="1" height="1" fill="#cb7866"/>
<rect x="7" y="26" width="1" height="1" fill="#b76e56"/>
<rect x="18" y="26" width="1" height="1" fill="#ac644c"/>
<rect x="27" y="26" width="1" height="1" fill="#bd7058"/>
<rect x="19" y="26" width="1" height="1" fill="#a05e4a"/>
<rect x="25" y="26" width="2" height="1" fill="#c2735d"/>
<rect x="8" y="26" width="2" height="1" fill="#a05e4a"/>
<rect x="23" y="26" width="1" height="1" fill="#b46d55"/>
<rect x="28" y="26" width="1" height="1" fill="#a05e4a"/>
<rect x="30" y="26" width="1" height="1" fill="#b16952"/>
<rect x="31" y="26" width="1" height="1" fill="#a4604a"/>
<rect x="0" y="26" width="1" height="2" fill="#c2735d"/>
<rect x="2" y="26" width="1" height="2" fill="#b76c55"/>
<rect x="1" y="26" width="1" height="2" fill="#be7259"/>
<rect x="6" y="27" width="1" height="1" fill="#c5755f"/>
<rect x="19" y="27" width="3" height="1" fill="#b36c54"/>
<rect x="25" y="27" width="1" height="1" fill="#cb7866"/>
<rect x="28" y="27" width="1" height="1" fill="#945643"/>
<rect x="10" y="27" width="2" height="1" fill="#9c5a47"/>
<rect x="27" y="27" width="1" height="1" fill="#a05e4a"/>
<rect x="23" y="27" width="1" height="1" fill="#be7259"/>
<rect x="13" y="27" width="5" height="1" fill="#a4604a"/>
<rect x="18" y="27" width="1" height="1" fill="#a8624c"/>
<rect x="8" y="27" width="1" height="1" fill="#9c5a47"/>
<rect x="24" y="27" width="1" height="1" fill="#c5755f"/>
<rect x="26" y="27" width="1" height="1" fill="#b36c55"/>
<rect x="29" y="27" width="1" height="1" fill="#8d5140"/>
<rect x="7" y="27" width="1" height="1" fill="#b16952"/>
<rect x="12" y="27" width="1" height="1" fill="#a15e49"/>
<rect x="9" y="27" width="1" height="1" fill="#975845"/>
<rect x="31" y="27" width="1" height="1" fill="#a15e49"/>
<rect x="30" y="27" width="1" height="1" fill="#ac644c"/>
<rect x="5" y="27" width="1" height="1" fill="#c2735d"/>
<rect x="22" y="27" width="1" height="2" fill="#b76e56"/>
<rect x="12" y="28" width="1" height="1" fill="#ac644c"/>
<rect x="27" y="28" width="1" height="1" fill="#a8624c"/>
<rect x="25" y="28" width="1" height="1" fill="#ca7765"/>
<rect x="18" y="28" width="1" height="1" fill="#a4604a"/>
<rect x="14" y="28" width="1" height="1" fill="#a8624c"/>
<rect x="1" y="28" width="1" height="1" fill="#b46d55"/>
<rect x="4" y="28" width="1" height="1" fill="#af654d"/>
<rect x="23" y="28" width="1" height="1" fill="#c07259"/>
<rect x="28" y="28" width="2" height="1" fill="#9c5a47"/>
<rect x="24" y="28" width="1" height="1" fill="#c2735d"/>
<rect x="15" y="28" width="3" height="1" fill="#a05e4a"/>
<rect x="26" y="28" width="1" height="1" fill="#b76c55"/>
<rect x="31" y="28" width="1" height="1" fill="#a4604a"/>
<rect x="10" y="28" width="2" height="1" fill="#a05e4a"/>
<rect x="19" y="28" width="1" height="1" fill="#b36d55"/>
<rect x="20" y="28" width="2" height="1" fill="#b36c55"/>
<rect x="8" y="28" width="2" height="2" fill="#8d5140"/>
<rect x="6" y="28" width="1" height="2" fill="#a05e4a"/>
<rect x="2" y="28" width="1" height="2" fill="#b16952"/>
<rect x="5" y="28" width="1" height="2" fill="#a15e49"/>
<rect x="0" y="28" width="1" height="2" fill="#b76e56"/>
<rect x="7" y="28" width="1" height="2" fill="#975845"/>
<rect x="14" y="29" width="1" height="1" fill="#a4604a"/>
<rect x="31" y="29" width="1" height="1" fill="#a8624c"/>
<rect x="10" y="29" width="1" height="1" fill="#a15e49"/>
<rect x="26" y="29" width="1" height="1" fill="#b76e56"/>
<rect x="18" y="29" width="1" height="1" fill="#b16952"/>
<rect x="17" y="29" width="1" height="1" fill="#ac6650"/>
<rect x="24" y="29" width="1" height="1" fill="#c5755f"/>
<rect x="4" y="29" width="1" height="1" fill="#af664f"/>
<rect x="27" y="29" width="1" height="1" fill="#b36d55"/>
<rect x="28" y="29" width="1" height="1" fill="#af664f"/>
<rect x="11" y="29" width="1" height="1" fill="#a4604a"/>
<rect x="12" y="29" width="2" height="1" fill="#a8624c"/>
<rect x="21" y="29" width="1" height="1" fill="#bd7058"/>
<rect x="15" y="29" width="1" height="1" fill="#a05e4a"/>
<rect x="16" y="29" width="1" height="1" fill="#a4604a"/>
<rect x="22" y="29" width="1" height="1" fill="#c2735d"/>
<rect x="30" y="29" width="1" height="1" fill="#af664f"/>
<rect x="1" y="29" width="1" height="1" fill="#b36c55"/>
<rect x="25" y="29" width="1" height="1" fill="#be7259"/>
<rect x="20" y="29" width="1" height="2" fill="#b76e56"/>
<rect x="23" y="29" width="1" height="2" fill="#ca7765"/>
<rect x="19" y="29" width="1" height="2" fill="#b46d55"/>
<rect x="28" y="30" width="1" height="1" fill="#9c5a47"/>
<rect x="16" y="30" width="1" height="1" fill="#a8624c"/>
<rect x="0" y="30" width="1" height="1" fill="#ad6d5a"/>
<rect x="1" y="30" width="1" height="1" fill="#b16952"/>
<rect x="3" y="30" width="2" height="1" fill="#a4604a"/>
<rect x="25" y="30" width="1" height="1" fill="#b76c55"/>
<rect x="2" y="30" width="1" height="1" fill="#ae654e"/>
<rect x="5" y="30" width="2" height="1" fill="#a15e49"/>
<rect x="9" y="30" width="1" height="1" fill="#a15e49"/>
<rect x="13" y="30" width="3" height="1" fill="#a05e4a"/>
<rect x="31" y="30" width="1" height="1" fill="#945643"/>
<rect x="17" y="30" width="1" height="1" fill="#b46c54"/>
<rect x="7" y="30" width="2" height="1" fill="#a05e4a"/>
<rect x="29" y="30" width="2" height="1" fill="#975845"/>
<rect x="24" y="30" width="1" height="1" fill="#c2735d"/>
<rect x="12" y="30" width="1" height="1" fill="#a4604a"/>
<rect x="11" y="30" width="1" height="1" fill="#af654d"/>
<rect x="18" y="30" width="1" height="1" fill="#b36d55"/>
<rect x="27" y="30" width="1" height="1" fill="#a4604a"/>
<rect x="21" y="30" width="2" height="1" fill="#c07259"/>
<rect x="26" y="30" width="1" height="1" fill="#ac6650"/>
<rect x="17" y="31" width="1" height="1" fill="#9c5a47"/>
<rect x="6" y="31" width="1" height="1" fill="#a05e4a"/>
<rect x="3" y="31" width="1" height="1" fill="#a05e4a"/>
<rect x="21" y="31" width="2" height="1" fill="#945643"/>
<rect x="20" y="31" width="1" height="1" fill="#8d5140"/>
<rect x="12" y="31" width="1" height="1" fill="#a15e49"/>
<rect x="18" y="31" width="1" height="1" fill="#975845"/>
<rect x="7" y="31" width="3" height="1" fill="#a15e49"/>
<rect x="13" y="31" width="2" height="1" fill="#9c5a47"/>
<rect x="1" y="31" width="1" height="1" fill="#ae654e"/>
<rect x="15" y="31" width="2" height="1" fill="#975845"/>
<rect x="23" y="31" width="9" height="1" fill="#8d5140"/>
<rect x="19" y="31" width="1" height="1" fill="#945643"/>
<rect x="11" y="31" width="1" height="1" fill="#ac644c"/>
<rect x="4" y="31" width="2" height="1" fill="#a15e49"/>
<rect x="2" y="31" width="1" height="1" fill="#ac644c"/>
<rect x="0" y="31" width="1" height="1" fill="#b36c55"/>
</svg>