<?xml version="1.0" encoding="UTF-8"?>
<svg xmlns="http://www.w3.org/2000/svg" width="20mm" height="20mm" viewBox="0 0 32 32" shape-rendering="crispEdges">
<title>031 正面 structured semantic redraw</title>
<metadata>registered 32-unit semantic vector redraw; no embedded raster; physical-size=20mm</metadata>
<rect x="0" y="0" width="32" height="32" fill="#482d28"/>
<rect x="12" y="0" width="1" height="1" fill="#985f2e"/>
<rect x="0" y="0" width="3" height="1" fill="#ca8331"/>
<rect x="8" y="0" width="1" height="1" fill="#90572a"/>
<rect x="28" y="0" width="1" height="1" fill="#be7b30"/>
<rect x="9" y="0" width="2" height="1" fill="#ac6b2c"/>
<rect x="3" y="0" width="2" height="1" fill="#ca8430"/>
<rect x="11" y="0" width="1" height="1" fill="#9f662f"/>
<rect x="5" y="0" width="1" height="1" fill="#cb8430"/>
<rect x="19" y="0" width="1" height="1" fill="#985f2e"/>
<rect x="26" y="0" width="1" height="1" fill="#65402a"/>
<rect x="13" y="0" width="1" height="1" fill="#85522b"/>
<rect x="14" y="0" width="1" height="1" fill="#ac6b2c"/>
<rect x="27" y="0" width="1" height="1" fill="#ca8331"/>
<rect x="31" y="0" width="1" height="1" fill="#9f662f"/>
<rect x="7" y="0" width="1" height="1" fill="#92582a"/>
<rect x="22" y="0" width="2" height="1" fill="#b06e2d"/>
<rect x="30" y="0" width="1" height="1" fill="#985f2e"/>
<rect x="15" y="0" width="1" height="2" fill="#b06e2d"/>
<rect x="21" y="0" width="1" height="2" fill="#985f2e"/>
<rect x="6" y="0" width="1" height="2" fill="#c58030"/>
<rect x="29" y="0" width="1" height="2" fill="#9f662f"/>
<rect x="20" y="0" width="1" height="2" fill="#90582a"/>
<rect x="25" y="0" width="1" height="2" fill="#382728"/>
<rect x="16" y="0" width="1" height="2" fill="#be7b30"/>
<rect x="28" y="1" width="1" height="1" fill="#442b27"/>
<rect x="10" y="1" width="1" height="1" fill="#3e2a28"/>
<rect x="1" y="1" width="2" height="1" fill="#ca8331"/>
<rect x="19" y="1" width="1" height="1" fill="#945a2c"/>
<rect x="27" y="1" width="1" height="1" fill="#503328"/>
<rect x="23" y="1" width="1" height="1" fill="#90582a"/>
<rect x="26" y="1" width="1" height="1" fill="#462e28"/>
<rect x="31" y="1" width="1" height="1" fill="#ac6b2c"/>
<rect x="22" y="1" width="1" height="1" fill="#9f662f"/>
<rect x="4" y="1" width="2" height="1" fill="#ca8331"/>
<rect x="24" y="1" width="1" height="1" fill="#3e2a28"/>
<rect x="11" y="1" width="2" height="1" fill="#382728"/>
<rect x="14" y="1" width="1" height="1" fill="#9f662f"/>
<rect x="3" y="1" width="1" height="1" fill="#ca8430"/>
<rect x="9" y="1" width="1" height="1" fill="#503328"/>
<rect x="0" y="1" width="1" height="1" fill="#cb8430"/>
<rect x="13" y="1" width="1" height="1" fill="#3a2828"/>
<rect x="17" y="0" width="2" height="3" fill="#cb954c"/>
<rect x="8" y="1" width="1" height="2" fill="#92582a"/>
<rect x="30" y="1" width="1" height="2" fill="#b06e2d"/>
<rect x="7" y="1" width="1" height="2" fill="#90582a"/>
<rect x="21" y="2" width="1" height="1" fill="#65402a"/>
<rect x="13" y="2" width="1" height="1" fill="#3e2a28"/>
<rect x="24" y="2" width="3" height="1" fill="#392728"/>
<rect x="16" y="2" width="1" height="1" fill="#b17433"/>
<rect x="29" y="2" width="1" height="1" fill="#ac6b2c"/>
<rect x="12" y="2" width="1" height="1" fill="#382728"/>
<rect x="28" y="2" width="1" height="1" fill="#3e2a28"/>
<rect x="14" y="2" width="2" height="1" fill="#9f662f"/>
<rect x="3" y="2" width="3" height="1" fill="#cb954c"/>
<rect x="22" y="2" width="1" height="1" fill="#3a2828"/>
<rect x="0" y="2" width="2" height="1" fill="#be7b30"/>
<rect x="31" y="2" width="1" height="1" fill="#9f662f"/>
<rect x="27" y="2" width="1" height="1" fill="#3a2828"/>
<rect x="2" y="2" width="1" height="1" fill="#c68a3f"/>
<rect x="23" y="2" width="1" height="1" fill="#382728"/>
<rect x="19" y="2" width="2" height="1" fill="#92582a"/>
<rect x="10" y="2" width="2" height="2" fill="#3a2828"/>
<rect x="12" y="3" width="2" height="1" fill="#442b27"/>
<rect x="23" y="3" width="1" height="1" fill="#392728"/>
<rect x="24" y="3" width="1" height="1" fill="#382728"/>
<rect x="28" y="3" width="1" height="1" fill="#462e28"/>
<rect x="15" y="3" width="1" height="1" fill="#3a2828"/>
<rect x="30" y="3" width="1" height="1" fill="#7a482b"/>
<rect x="22" y="3" width="1" height="1" fill="#382728"/>
<rect x="16" y="3" width="1" height="1" fill="#8c5d32"/>
<rect x="7" y="3" width="2" height="1" fill="#90582a"/>
<rect x="29" y="3" width="1" height="1" fill="#85522b"/>
<rect x="31" y="3" width="1" height="1" fill="#85522b"/>
<rect x="2" y="3" width="4" height="1" fill="#cb954c"/>
<rect x="14" y="3" width="1" height="1" fill="#462e28"/>
<rect x="25" y="3" width="3" height="1" fill="#392728"/>
<rect x="9" y="3" width="1" height="2" fill="#462e28"/>
<rect x="21" y="3" width="1" height="2" fill="#503328"/>
<rect x="0" y="3" width="2" height="2" fill="#b06e2d"/>
<rect x="18" y="3" width="1" height="2" fill="#c68a3f"/>
<rect x="20" y="3" width="1" height="2" fill="#90582a"/>
<rect x="17" y="3" width="1" height="2" fill="#cb954c"/>
<rect x="19" y="3" width="1" height="2" fill="#90572a"/>
<rect x="28" y="4" width="1" height="1" fill="#442b27"/>
<rect x="10" y="4" width="1" height="1" fill="#3a2828"/>
<rect x="23" y="4" width="1" height="1" fill="#3a2828"/>
<rect x="3" y="4" width="3" height="1" fill="#cb954c"/>
<rect x="24" y="4" width="2" height="1" fill="#442b27"/>
<rect x="26" y="4" width="2" height="1" fill="#472c27"/>
<rect x="31" y="4" width="1" height="1" fill="#7a482b"/>
<rect x="16" y="4" width="1" height="1" fill="#9f662f"/>
<rect x="2" y="4" width="1" height="1" fill="#c68a3f"/>
<rect x="14" y="4" width="1" height="1" fill="#392728"/>
<rect x="29" y="4" width="2" height="1" fill="#382728"/>
<rect x="15" y="4" width="1" height="1" fill="#382728"/>
<rect x="13" y="4" width="1" height="2" fill="#452c28"/>
<rect x="7" y="4" width="2" height="2" fill="#945a2c"/>
<rect x="11" y="4" width="1" height="2" fill="#3e2a28"/>
<rect x="14" y="5" width="1" height="1" fill="#3a2828"/>
<rect x="18" y="5" width="1" height="1" fill="#be7b30"/>
<rect x="26" y="5" width="1" height="1" fill="#482c27"/>
<rect x="27" y="5" width="1" height="1" fill="#472c27"/>
<rect x="24" y="5" width="2" height="1" fill="#472c27"/>
<rect x="15" y="5" width="1" height="1" fill="#3e2a28"/>
<rect x="17" y="5" width="1" height="1" fill="#c68a3f"/>
<rect x="16" y="5" width="1" height="1" fill="#b17433"/>
<rect x="29" y="5" width="1" height="1" fill="#382728"/>
<rect x="30" y="5" width="1" height="1" fill="#392728"/>
<rect x="28" y="5" width="1" height="1" fill="#3e2a28"/>
<rect x="31" y="5" width="1" height="1" fill="#85522b"/>
<rect x="3" y="5" width="1" height="1" fill="#ca8331"/>
<rect x="0" y="5" width="1" height="1" fill="#985f2e"/>
<rect x="21" y="5" width="1" height="1" fill="#462e28"/>
<rect x="10" y="5" width="1" height="1" fill="#382728"/>
<rect x="1" y="5" width="1" height="1" fill="#945a2c"/>
<rect x="6" y="2" width="1" height="5" fill="#c68a3f"/>
<rect x="5" y="5" width="1" height="2" fill="#cb954c"/>
<rect x="4" y="5" width="1" height="2" fill="#c68a3f"/>
<rect x="13" y="6" width="2" height="1" fill="#482c28"/>
<rect x="7" y="6" width="1" height="1" fill="#85522b"/>
<rect x="17" y="6" width="1" height="1" fill="#cc842f"/>
<rect x="3" y="6" width="1" height="1" fill="#cb8430"/>
<rect x="27" y="6" width="1" height="1" fill="#482c27"/>
<rect x="24" y="6" width="2" height="1" fill="#482c27"/>
<rect x="16" y="6" width="1" height="1" fill="#b06e2d"/>
<rect x="8" y="6" width="1" height="1" fill="#7a482b"/>
<rect x="28" y="6" width="2" height="1" fill="#442b27"/>
<rect x="15" y="6" width="1" height="1" fill="#472c27"/>
<rect x="10" y="6" width="1" height="1" fill="#442b27"/>
<rect x="11" y="6" width="1" height="1" fill="#452c28"/>
<rect x="26" y="6" width="1" height="1" fill="#472c27"/>
<rect x="21" y="6" width="1" height="1" fill="#3e2a28"/>
<rect x="22" y="4" width="1" height="4" fill="#392728"/>
<rect x="19" y="5" width="2" height="3" fill="#90572a"/>
<rect x="23" y="5" width="1" height="3" fill="#3e2a28"/>
<rect x="9" y="5" width="1" height="3" fill="#452c28"/>
<rect x="1" y="6" width="1" height="2" fill="#92582a"/>
<rect x="31" y="6" width="1" height="2" fill="#90572a"/>
<rect x="18" y="6" width="1" height="2" fill="#b06e2d"/>
<rect x="25" y="7" width="2" height="1" fill="#482c27"/>
<rect x="12" y="7" width="1" height="1" fill="#472c27"/>
<rect x="28" y="7" width="1" height="1" fill="#482c28"/>
<rect x="27" y="7" width="1" height="1" fill="#472c27"/>
<rect x="16" y="7" width="1" height="1" fill="#b17433"/>
<rect x="14" y="7" width="1" height="1" fill="#472c27"/>
<rect x="13" y="7" width="1" height="1" fill="#472c28"/>
<rect x="3" y="7" width="3" height="1" fill="#ca8331"/>
<rect x="24" y="7" width="1" height="1" fill="#472c27"/>
<rect x="7" y="7" width="2" height="1" fill="#382728"/>
<rect x="21" y="7" width="1" height="1" fill="#3a2828"/>
<rect x="30" y="7" width="1" height="2" fill="#503328"/>
<rect x="1" y="8" width="1" height="1" fill="#90582a"/>
<rect x="24" y="8" width="1" height="1" fill="#482c27"/>
<rect x="20" y="8" width="1" height="1" fill="#85522b"/>
<rect x="12" y="8" width="1" height="1" fill="#472c28"/>
<rect x="11" y="8" width="1" height="1" fill="#482c27"/>
<rect x="29" y="8" width="1" height="1" fill="#482c27"/>
<rect x="25" y="8" width="1" height="1" fill="#472c27"/>
<rect x="31" y="8" width="1" height="1" fill="#7a482b"/>
<rect x="14" y="8" width="1" height="1" fill="#482c27"/>
<rect x="16" y="8" width="1" height="1" fill="#be7b30"/>
<rect x="4" y="8" width="2" height="1" fill="#ca8430"/>
<rect x="23" y="8" width="1" height="1" fill="#442b27"/>
<rect x="17" y="7" width="1" height="3" fill="#cb8430"/>
<rect x="6" y="7" width="1" height="3" fill="#9f662f"/>
<rect x="26" y="8" width="1" height="2" fill="#482c28"/>
<rect x="18" y="8" width="1" height="2" fill="#ac6b2c"/>
<rect x="10" y="8" width="1" height="2" fill="#482c28"/>
<rect x="16" y="9" width="1" height="1" fill="#c58030"/>
<rect x="30" y="9" width="1" height="1" fill="#472c28"/>
<rect x="28" y="9" width="1" height="1" fill="#482c28"/>
<rect x="4" y="9" width="1" height="1" fill="#ca8331"/>
<rect x="31" y="9" width="1" height="1" fill="#472c27"/>
<rect x="27" y="9" width="1" height="1" fill="#482c27"/>
<rect x="12" y="9" width="1" height="1" fill="#482c28"/>
<rect x="23" y="9" width="1" height="1" fill="#452c28"/>
<rect x="24" y="9" width="2" height="1" fill="#482c27"/>
<rect x="5" y="9" width="1" height="1" fill="#cb8430"/>
<rect x="14" y="9" width="1" height="1" fill="#482c28"/>
<rect x="3" y="8" width="1" height="3" fill="#cb8430"/>
<rect x="9" y="8" width="1" height="3" fill="#472c28"/>
<rect x="20" y="9" width="1" height="2" fill="#7a482b"/>
<rect x="12" y="10" width="2" height="1" fill="#482c28"/>
<rect x="11" y="10" width="1" height="1" fill="#482c27"/>
<rect x="16" y="10" width="2" height="1" fill="#be7b30"/>
<rect x="4" y="10" width="2" height="1" fill="#ca8331"/>
<rect x="27" y="10" width="2" height="1" fill="#472c27"/>
<rect x="30" y="10" width="2" height="1" fill="#482c27"/>
<rect x="18" y="10" width="1" height="1" fill="#9f662f"/>
<rect x="24" y="10" width="3" height="1" fill="#482c27"/>
<rect x="21" y="8" width="2" height="4" fill="#382728"/>
<rect x="6" y="10" width="1" height="2" fill="#985f2e"/>
<rect x="29" y="11" width="1" height="1" fill="#472c27"/>
<rect x="30" y="11" width="1" height="1" fill="#482c28"/>
<rect x="31" y="11" width="1" height="1" fill="#472c28"/>
<rect x="27" y="11" width="1" height="1" fill="#482c27"/>
<rect x="24" y="11" width="2" height="1" fill="#482c27"/>
<rect x="20" y="11" width="1" height="1" fill="#65402a"/>
<rect x="19" y="8" width="1" height="5" fill="#90582a"/>
<rect x="8" y="8" width="1" height="5" fill="#3a2828"/>
<rect x="15" y="9" width="1" height="4" fill="#503328"/>
<rect x="18" y="11" width="1" height="2" fill="#945a2c"/>
<rect x="26" y="11" width="1" height="2" fill="#482c28"/>
<rect x="14" y="11" width="1" height="2" fill="#472c27"/>
<rect x="30" y="12" width="1" height="1" fill="#472c28"/>
<rect x="6" y="12" width="1" height="1" fill="#945a2c"/>
<rect x="31" y="12" width="1" height="1" fill="#472c27"/>
<rect x="24" y="12" width="1" height="1" fill="#482c28"/>
<rect x="22" y="12" width="1" height="1" fill="#85522b"/>
<rect x="25" y="12" width="1" height="1" fill="#482c27"/>
<rect x="20" y="12" width="2" height="1" fill="#7a482b"/>
<rect x="27" y="12" width="2" height="1" fill="#482c27"/>
<rect x="7" y="8" width="1" height="6" fill="#382728"/>
<rect x="23" y="10" width="1" height="4" fill="#472c27"/>
<rect x="16" y="11" width="2" height="3" fill="#b06e2d"/>
<rect x="25" y="13" width="4" height="1" fill="#472c27"/>
<rect x="20" y="13" width="1" height="1" fill="#b17433"/>
<rect x="13" y="13" width="1" height="1" fill="#65402a"/>
<rect x="24" y="13" width="1" height="1" fill="#482c27"/>
<rect x="15" y="13" width="1" height="1" fill="#9f662f"/>
<rect x="6" y="13" width="1" height="1" fill="#90582a"/>
<rect x="12" y="13" width="1" height="1" fill="#482c28"/>
<rect x="14" y="13" width="1" height="1" fill="#90572a"/>
<rect x="8" y="13" width="1" height="1" fill="#392728"/>
<rect x="30" y="13" width="2" height="1" fill="#503328"/>
<rect x="3" y="11" width="3" height="4" fill="#cb8430"/>
<rect x="22" y="13" width="1" height="2" fill="#b17433"/>
<rect x="18" y="13" width="1" height="2" fill="#92582a"/>
<rect x="21" y="13" width="1" height="2" fill="#cb954c"/>
<rect x="19" y="13" width="1" height="2" fill="#90572a"/>
<rect x="26" y="14" width="1" height="1" fill="#8c5d32"/>
<rect x="28" y="14" width="1" height="1" fill="#b06e2d"/>
<rect x="12" y="14" width="1" height="1" fill="#472c28"/>
<rect x="11" y="14" width="1" height="1" fill="#482c28"/>
<rect x="15" y="14" width="1" height="1" fill="#be7b30"/>
<rect x="8" y="14" width="1" height="1" fill="#8c5d32"/>
<rect x="7" y="14" width="1" height="1" fill="#9f662f"/>
<rect x="16" y="14" width="1" height="1" fill="#b06e2d"/>
<rect x="17" y="14" width="1" height="1" fill="#ac6b2c"/>
<rect x="25" y="14" width="1" height="1" fill="#85522b"/>
<rect x="6" y="14" width="1" height="1" fill="#b17433"/>
<rect x="27" y="14" width="1" height="1" fill="#9f662f"/>
<rect x="29" y="14" width="1" height="1" fill="#be7b30"/>
<rect x="23" y="14" width="2" height="1" fill="#65402a"/>
<rect x="14" y="14" width="1" height="1" fill="#cb8430"/>
<rect x="9" y="14" width="1" height="1" fill="#472c27"/>
<rect x="13" y="14" width="1" height="1" fill="#9f662f"/>
<rect x="20" y="14" width="1" height="1" fill="#c68a3f"/>
<rect x="30" y="14" width="2" height="2" fill="#cb954c"/>
<rect x="9" y="15" width="1" height="1" fill="#442b27"/>
<rect x="12" y="15" width="1" height="1" fill="#472c27"/>
<rect x="29" y="15" width="1" height="1" fill="#c68a3f"/>
<rect x="28" y="15" width="1" height="1" fill="#cb8430"/>
<rect x="27" y="15" width="1" height="1" fill="#c68a3f"/>
<rect x="18" y="15" width="2" height="1" fill="#9f662f"/>
<rect x="15" y="15" width="3" height="1" fill="#be7b30"/>
<rect x="10" y="15" width="1" height="1" fill="#472c27"/>
<rect x="23" y="15" width="4" height="1" fill="#cb954c"/>
<rect x="13" y="15" width="1" height="1" fill="#ac6b2c"/>
<rect x="5" y="15" width="1" height="1" fill="#ca8331"/>
<rect x="11" y="15" width="1" height="1" fill="#452c28"/>
<rect x="3" y="15" width="2" height="1" fill="#cb8430"/>
<rect x="14" y="15" width="1" height="1" fill="#ca8331"/>
<rect x="22" y="15" width="1" height="2" fill="#c68a3f"/>
<rect x="7" y="15" width="1" height="2" fill="#cb954c"/>
<rect x="8" y="15" width="1" height="2" fill="#b17433"/>
<rect x="6" y="15" width="1" height="2" fill="#c68a3f"/>
<rect x="20" y="15" width="1" height="2" fill="#c58030"/>
<rect x="21" y="15" width="1" height="2" fill="#ca8331"/>
<rect x="23" y="16" width="3" height="1" fill="#cb954c"/>
<rect x="30" y="16" width="1" height="1" fill="#8c5d32"/>
<rect x="18" y="16" width="2" height="1" fill="#b06e2d"/>
<rect x="12" y="16" width="1" height="1" fill="#b17433"/>
<rect x="27" y="16" width="2" height="1" fill="#be7b30"/>
<rect x="10" y="16" width="2" height="1" fill="#9f662f"/>
<rect x="3" y="16" width="3" height="1" fill="#cb8430"/>
<rect x="29" y="16" width="1" height="1" fill="#9f662f"/>
<rect x="31" y="16" width="1" height="1" fill="#7a482b"/>
<rect x="9" y="16" width="1" height="1" fill="#8c5d32"/>
<rect x="26" y="16" width="1" height="1" fill="#c68a3f"/>
<rect x="13" y="16" width="2" height="2" fill="#b06e2d"/>
<rect x="17" y="16" width="1" height="2" fill="#c68a3f"/>
<rect x="16" y="16" width="1" height="2" fill="#cb954c"/>
<rect x="15" y="16" width="1" height="2" fill="#c68a3f"/>
<rect x="19" y="17" width="1" height="1" fill="#945a2c"/>
<rect x="7" y="17" width="1" height="1" fill="#cb8430"/>
<rect x="5" y="17" width="2" height="1" fill="#ca8331"/>
<rect x="30" y="17" width="1" height="1" fill="#382728"/>
<rect x="11" y="17" width="1" height="1" fill="#cb8430"/>
<rect x="31" y="17" width="1" height="1" fill="#503328"/>
<rect x="20" y="17" width="3" height="1" fill="#be7b30"/>
<rect x="9" y="17" width="2" height="1" fill="#cb954c"/>
<rect x="27" y="17" width="1" height="1" fill="#85522b"/>
<rect x="25" y="17" width="1" height="1" fill="#462e28"/>
<rect x="29" y="17" width="1" height="1" fill="#65402a"/>
<rect x="23" y="17" width="1" height="1" fill="#b17433"/>
<rect x="3" y="17" width="2" height="1" fill="#cb8430"/>
<rect x="24" y="17" width="1" height="1" fill="#985f2e"/>
<rect x="18" y="17" width="1" height="1" fill="#9f662f"/>
<rect x="28" y="17" width="1" height="1" fill="#90572a"/>
<rect x="12" y="17" width="1" height="1" fill="#ca8430"/>
<rect x="8" y="17" width="1" height="2" fill="#c68a3f"/>
<rect x="31" y="18" width="1" height="1" fill="#65402a"/>
<rect x="9" y="18" width="1" height="1" fill="#cb954c"/>
<rect x="29" y="18" width="1" height="1" fill="#503328"/>
<rect x="24" y="18" width="1" height="1" fill="#85522b"/>
<rect x="17" y="18" width="1" height="1" fill="#985f2e"/>
<rect x="15" y="18" width="1" height="1" fill="#be7b30"/>
<rect x="27" y="18" width="1" height="1" fill="#90572a"/>
<rect x="7" y="18" width="1" height="1" fill="#ca8331"/>
<rect x="11" y="18" width="1" height="1" fill="#9f662f"/>
<rect x="28" y="18" width="1" height="1" fill="#90582a"/>
<rect x="10" y="18" width="1" height="1" fill="#c68a3f"/>
<rect x="30" y="18" width="1" height="1" fill="#3a2828"/>
<rect x="25" y="18" width="1" height="1" fill="#382728"/>
<rect x="16" y="18" width="1" height="1" fill="#ca8331"/>
<rect x="12" y="18" width="1" height="1" fill="#90582a"/>
<rect x="19" y="18" width="1" height="1" fill="#442b27"/>
<rect x="21" y="18" width="3" height="1" fill="#b06e2d"/>
<rect x="3" y="18" width="4" height="1" fill="#cb8430"/>
<rect x="0" y="6" width="1" height="14" fill="#945a2c"/>
<rect x="20" y="18" width="1" height="2" fill="#ac6b2c"/>
<rect x="13" y="18" width="1" height="2" fill="#ac6b2c"/>
<rect x="14" y="18" width="1" height="2" fill="#b06e2d"/>
<rect x="22" y="19" width="1" height="1" fill="#985f2e"/>
<rect x="7" y="19" width="1" height="1" fill="#503328"/>
<rect x="6" y="19" width="1" height="1" fill="#90582a"/>
<rect x="30" y="19" width="1" height="1" fill="#392728"/>
<rect x="16" y="19" width="1" height="1" fill="#cb8430"/>
<rect x="31" y="19" width="1" height="1" fill="#85522b"/>
<rect x="15" y="19" width="1" height="1" fill="#c58030"/>
<rect x="24" y="19" width="1" height="1" fill="#65402a"/>
<rect x="29" y="19" width="1" height="1" fill="#3a2828"/>
<rect x="12" y="19" width="1" height="1" fill="#3a2828"/>
<rect x="21" y="19" width="1" height="1" fill="#9f662f"/>
<rect x="10" y="19" width="1" height="1" fill="#85522b"/>
<rect x="27" y="19" width="2" height="1" fill="#503328"/>
<rect x="23" y="19" width="1" height="1" fill="#85522b"/>
<rect x="17" y="19" width="1" height="1" fill="#90582a"/>
<rect x="18" y="18" width="1" height="3" fill="#382728"/>
<rect x="11" y="19" width="1" height="2" fill="#382728"/>
<rect x="3" y="19" width="3" height="2" fill="#cb8430"/>
<rect x="9" y="19" width="1" height="2" fill="#92582a"/>
<rect x="8" y="19" width="1" height="2" fill="#65402a"/>
<rect x="25" y="19" width="1" height="2" fill="#3a2828"/>
<rect x="15" y="20" width="1" height="1" fill="#85522b"/>
<rect x="31" y="20" width="1" height="1" fill="#985f2e"/>
<rect x="30" y="20" width="1" height="1" fill="#382728"/>
<rect x="24" y="20" width="1" height="1" fill="#392728"/>
<rect x="17" y="20" width="1" height="1" fill="#503328"/>
<rect x="29" y="20" width="1" height="1" fill="#392728"/>
<rect x="16" y="20" width="1" height="1" fill="#7a482b"/>
<rect x="14" y="20" width="1" height="1" fill="#90572a"/>
<rect x="7" y="20" width="1" height="1" fill="#3a2828"/>
<rect x="12" y="20" width="1" height="1" fill="#3e2a28"/>
<rect x="6" y="20" width="1" height="1" fill="#7a482b"/>
<rect x="22" y="20" width="2" height="1" fill="#382728"/>
<rect x="28" y="20" width="1" height="1" fill="#472c28"/>
<rect x="10" y="20" width="1" height="1" fill="#7a482b"/>
<rect x="20" y="20" width="1" height="1" fill="#503328"/>
<rect x="13" y="20" width="1" height="1" fill="#945a2c"/>
<rect x="26" y="17" width="1" height="5" fill="#3e2a28"/>
<rect x="19" y="20" width="1" height="2" fill="#3e2a28"/>
<rect x="0" y="20" width="1" height="2" fill="#985f2e"/>
<rect x="8" y="21" width="1" height="1" fill="#452c28"/>
<rect x="4" y="21" width="1" height="1" fill="#b06e2d"/>
<rect x="11" y="21" width="2" height="1" fill="#3a2828"/>
<rect x="10" y="21" width="1" height="1" fill="#3e2a28"/>
<rect x="5" y="21" width="1" height="1" fill="#985f2e"/>
<rect x="7" y="21" width="1" height="1" fill="#382728"/>
<rect x="20" y="21" width="2" height="1" fill="#472c27"/>
<rect x="31" y="21" width="1" height="1" fill="#503328"/>
<rect x="27" y="21" width="1" height="1" fill="#482c28"/>
<rect x="17" y="21" width="1" height="1" fill="#382728"/>
<rect x="6" y="21" width="1" height="1" fill="#503328"/>
<rect x="29" y="21" width="2" height="1" fill="#442b27"/>
<rect x="18" y="21" width="1" height="1" fill="#392728"/>
<rect x="13" y="21" width="2" height="1" fill="#472c27"/>
<rect x="24" y="21" width="2" height="1" fill="#3a2828"/>
<rect x="22" y="21" width="2" height="1" fill="#392728"/>
<rect x="1" y="9" width="1" height="14" fill="#92582a"/>
<rect x="3" y="21" width="1" height="2" fill="#cb8430"/>
<rect x="15" y="21" width="2" height="2" fill="#3a2828"/>
<rect x="28" y="21" width="1" height="2" fill="#472c27"/>
<rect x="5" y="22" width="2" height="1" fill="#382728"/>
<rect x="11" y="22" width="1" height="1" fill="#382728"/>
<rect x="29" y="22" width="1" height="1" fill="#482c27"/>
<rect x="7" y="22" width="4" height="1" fill="#3a2828"/>
<rect x="20" y="22" width="4" height="1" fill="#472c27"/>
<rect x="14" y="22" width="1" height="1" fill="#472c28"/>
<rect x="31" y="22" width="1" height="1" fill="#482c28"/>
<rect x="17" y="22" width="2" height="1" fill="#3e2a28"/>
<rect x="12" y="22" width="1" height="1" fill="#3a2828"/>
<rect x="19" y="22" width="1" height="1" fill="#442b27"/>
<rect x="30" y="22" width="1" height="1" fill="#472c27"/>
<rect x="24" y="22" width="3" height="1" fill="#482c27"/>
<rect x="13" y="22" width="1" height="2" fill="#482c28"/>
<rect x="0" y="22" width="1" height="2" fill="#8c5d32"/>
<rect x="7" y="23" width="3" height="1" fill="#3e2a28"/>
<rect x="19" y="23" width="1" height="1" fill="#482c27"/>
<rect x="26" y="23" width="3" height="1" fill="#503328"/>
<rect x="29" y="23" width="1" height="1" fill="#472c27"/>
<rect x="3" y="23" width="1" height="1" fill="#ca8331"/>
<rect x="5" y="23" width="2" height="1" fill="#3a2828"/>
<rect x="22" y="23" width="1" height="1" fill="#472c28"/>
<rect x="17" y="23" width="2" height="1" fill="#472c27"/>
<rect x="10" y="23" width="2" height="1" fill="#442b27"/>
<rect x="12" y="23" width="1" height="1" fill="#452c28"/>
<rect x="24" y="23" width="2" height="1" fill="#482c27"/>
<rect x="1" y="23" width="1" height="2" fill="#90582a"/>
<rect x="20" y="23" width="2" height="2" fill="#472c27"/>
<rect x="15" y="24" width="1" height="1" fill="#482c28"/>
<rect x="29" y="24" width="1" height="1" fill="#472c28"/>
<rect x="28" y="24" width="1" height="1" fill="#7a482b"/>
<rect x="23" y="24" width="2" height="1" fill="#482c27"/>
<rect x="18" y="24" width="1" height="1" fill="#65402a"/>
<rect x="12" y="24" width="1" height="1" fill="#472c28"/>
<rect x="22" y="24" width="1" height="1" fill="#482c28"/>
<rect x="17" y="24" width="1" height="1" fill="#503328"/>
<rect x="25" y="24" width="1" height="1" fill="#472c28"/>
<rect x="26" y="24" width="1" height="1" fill="#9f662f"/>
<rect x="0" y="24" width="1" height="1" fill="#985f2e"/>
<rect x="6" y="24" width="1" height="1" fill="#442b27"/>
<rect x="19" y="24" width="1" height="1" fill="#503328"/>
<rect x="5" y="24" width="1" height="1" fill="#3a2828"/>
<rect x="10" y="24" width="1" height="1" fill="#482c28"/>
<rect x="11" y="24" width="1" height="1" fill="#472c27"/>
<rect x="2" y="5" width="1" height="21" fill="#c58030"/>
<rect x="4" y="22" width="1" height="4" fill="#503328"/>
<rect x="3" y="24" width="1" height="2" fill="#cb8430"/>
<rect x="27" y="24" width="1" height="2" fill="#b06e2d"/>
<rect x="24" y="25" width="1" height="1" fill="#482c27"/>
<rect x="1" y="25" width="1" height="1" fill="#92582a"/>
<rect x="26" y="25" width="1" height="1" fill="#ac6b2c"/>
<rect x="29" y="25" width="1" height="1" fill="#503328"/>
<rect x="10" y="25" width="1" height="1" fill="#65402a"/>
<rect x="14" y="25" width="2" height="1" fill="#482c28"/>
<rect x="6" y="25" width="3" height="1" fill="#452c28"/>
<rect x="19" y="25" width="1" height="1" fill="#65402a"/>
<rect x="13" y="25" width="1" height="1" fill="#472c27"/>
<rect x="30" y="25" width="2" height="1" fill="#65402a"/>
<rect x="21" y="25" width="3" height="1" fill="#472c27"/>
<rect x="28" y="25" width="1" height="1" fill="#65402a"/>
<rect x="11" y="25" width="2" height="1" fill="#8c5d32"/>
<rect x="0" y="25" width="1" height="1" fill="#8c5d32"/>
<rect x="5" y="25" width="1" height="1" fill="#3e2a28"/>
<rect x="20" y="25" width="1" height="1" fill="#472c28"/>
<rect x="17" y="25" width="1" height="2" fill="#ac6b2c"/>
<rect x="18" y="25" width="1" height="2" fill="#b06e2d"/>
<rect x="30" y="26" width="2" height="1" fill="#cb8430"/>
<rect x="23" y="26" width="1" height="1" fill="#7a482b"/>
<rect x="2" y="26" width="1" height="1" fill="#b06e2d"/>
<rect x="11" y="26" width="1" height="1" fill="#cb954c"/>
<rect x="7" y="26" width="1" height="1" fill="#392728"/>
<rect x="22" y="26" width="1" height="1" fill="#85522b"/>
<rect x="28" y="26" width="1" height="1" fill="#be7b30"/>
<rect x="8" y="26" width="1" height="1" fill="#442b27"/>
<rect x="13" y="26" width="3" height="1" fill="#472c27"/>
<rect x="12" y="26" width="1" height="1" fill="#9f662f"/>
<rect x="29" y="26" width="1" height="1" fill="#ca8331"/>
<rect x="21" y="26" width="1" height="1" fill="#7a482b"/>
<rect x="10" y="26" width="1" height="1" fill="#8c5d32"/>
<rect x="3" y="26" width="2" height="1" fill="#b17433"/>
<rect x="5" y="26" width="1" height="1" fill="#be7b30"/>
<rect x="19" y="26" width="2" height="1" fill="#65402a"/>
<rect x="9" y="26" width="1" height="1" fill="#472c28"/>
<rect x="6" y="26" width="1" height="2" fill="#65402a"/>
<rect x="25" y="26" width="1" height="2" fill="#503328"/>
<rect x="24" y="26" width="1" height="2" fill="#472c27"/>
<rect x="11" y="27" width="1" height="1" fill="#c68a3f"/>
<rect x="10" y="27" width="1" height="1" fill="#9f662f"/>
<rect x="15" y="27" width="1" height="1" fill="#b06e2d"/>
<rect x="22" y="27" width="1" height="1" fill="#cc842f"/>
<rect x="12" y="27" width="1" height="1" fill="#985f2e"/>
<rect x="14" y="27" width="1" height="1" fill="#65402a"/>
<rect x="8" y="27" width="1" height="1" fill="#503328"/>
<rect x="16" y="27" width="1" height="1" fill="#b17433"/>
<rect x="13" y="27" width="1" height="1" fill="#472c27"/>
<rect x="23" y="27" width="1" height="1" fill="#90582a"/>
<rect x="29" y="27" width="3" height="1" fill="#ca8331"/>
<rect x="9" y="27" width="1" height="1" fill="#65402a"/>
<rect x="7" y="27" width="1" height="1" fill="#3a2828"/>
<rect x="28" y="27" width="1" height="1" fill="#c58030"/>
<rect x="20" y="27" width="2" height="1" fill="#cb8430"/>
<rect x="17" y="27" width="2" height="1" fill="#92582a"/>
<rect x="0" y="26" width="1" height="3" fill="#985f2e"/>
<rect x="19" y="27" width="1" height="2" fill="#c58030"/>
<rect x="24" y="28" width="2" height="1" fill="#65402a"/>
<rect x="15" y="28" width="1" height="1" fill="#cb8430"/>
<rect x="9" y="28" width="3" height="1" fill="#cb8430"/>
<rect x="21" y="28" width="1" height="1" fill="#c58030"/>
<rect x="18" y="28" width="1" height="1" fill="#92582a"/>
<rect x="28" y="28" width="2" height="1" fill="#985f2e"/>
<rect x="17" y="28" width="1" height="1" fill="#90572a"/>
<rect x="20" y="28" width="1" height="1" fill="#ca8331"/>
<rect x="13" y="28" width="1" height="1" fill="#472c28"/>
<rect x="22" y="28" width="1" height="1" fill="#be7b30"/>
<rect x="16" y="28" width="1" height="1" fill="#be7b30"/>
<rect x="14" y="28" width="1" height="1" fill="#7a482b"/>
<rect x="23" y="28" width="1" height="1" fill="#85522b"/>
<rect x="1" y="26" width="1" height="4" fill="#90582a"/>
<rect x="26" y="26" width="2" height="4" fill="#7a482b"/>
<rect x="2" y="27" width="1" height="3" fill="#ac6b2c"/>
<rect x="3" y="27" width="1" height="3" fill="#b06e2d"/>
<rect x="4" y="27" width="1" height="3" fill="#c58030"/>
<rect x="5" y="27" width="1" height="3" fill="#cb8430"/>
<rect x="30" y="28" width="2" height="2" fill="#b06e2d"/>
<rect x="7" y="28" width="1" height="2" fill="#382728"/>
<rect x="6" y="28" width="1" height="2" fill="#503328"/>
<rect x="12" y="28" width="1" height="2" fill="#90582a"/>
<rect x="13" y="29" width="1" height="1" fill="#65402a"/>
<rect x="22" y="29" width="1" height="1" fill="#90572a"/>
<rect x="9" y="29" width="1" height="1" fill="#ca8331"/>
<rect x="19" y="29" width="2" height="1" fill="#b06e2d"/>
<rect x="16" y="29" width="1" height="1" fill="#9f662f"/>
<rect x="25" y="29" width="1" height="1" fill="#85522b"/>
<rect x="14" y="29" width="1" height="1" fill="#85522b"/>
<rect x="23" y="29" width="2" height="1" fill="#90582a"/>
<rect x="10" y="29" width="2" height="1" fill="#c58030"/>
<rect x="21" y="29" width="1" height="1" fill="#945a2c"/>
<rect x="15" y="29" width="1" height="1" fill="#ac6b2c"/>
<rect x="17" y="29" width="1" height="1" fill="#90582a"/>
<rect x="18" y="29" width="1" height="2" fill="#945a2c"/>
<rect x="28" y="29" width="2" height="2" fill="#92582a"/>
<rect x="0" y="29" width="1" height="2" fill="#8c5d32"/>
<rect x="19" y="30" width="1" height="1" fill="#b06e2d"/>
<rect x="4" y="30" width="1" height="1" fill="#b06e2d"/>
<rect x="20" y="30" width="1" height="1" fill="#ac6b2c"/>
<rect x="21" y="30" width="1" height="1" fill="#92582a"/>
<rect x="24" y="30" width="1" height="1" fill="#85522b"/>
<rect x="30" y="30" width="2" height="1" fill="#945a2c"/>
<rect x="13" y="30" width="3" height="1" fill="#90582a"/>
<rect x="5" y="30" width="1" height="1" fill="#b17433"/>
<rect x="16" y="30" width="2" height="1" fill="#92582a"/>
<rect x="1" y="30" width="1" height="1" fill="#85522b"/>
<rect x="7" y="30" width="1" height="1" fill="#65402a"/>
<rect x="23" y="30" width="1" height="1" fill="#90572a"/>
<rect x="22" y="30" width="1" height="1" fill="#90582a"/>
<rect x="6" y="30" width="1" height="1" fill="#7a482b"/>
<rect x="2" y="30" width="2" height="1" fill="#9f662f"/>
<rect x="25" y="30" width="3" height="1" fill="#7a482b"/>
<rect x="8" y="28" width="1" height="4" fill="#9f662f"/>
<rect x="12" y="30" width="1" height="2" fill="#985f2e"/>
<rect x="9" y="30" width="3" height="2" fill="#b06e2d"/>
<rect x="13" y="31" width="1" height="1" fill="#90582a"/>
<rect x="22" y="31" width="1" height="1" fill="#90572a"/>
<rect x="20" y="31" width="2" height="1" fill="#92582a"/>
<rect x="6" y="31" width="2" height="1" fill="#7a482b"/>
<rect x="14" y="31" width="1" height="1" fill="#92582a"/>
<rect x="19" y="31" width="1" height="1" fill="#945a2c"/>
<rect x="31" y="31" width="1" height="1" fill="#90572a"/>
<rect x="15" y="31" width="1" height="1" fill="#90582a"/>
<rect x="0" y="31" width="2" height="1" fill="#7a482b"/>
<rect x="16" y="31" width="1" height="1" fill="#85522b"/>
<rect x="27" y="31" width="1" height="1" fill="#85522b"/>
<rect x="23" y="31" width="4" height="1" fill="#7a482b"/>
<rect x="2" y="31" width="2" height="1" fill="#90572a"/>
<rect x="5" y="31" width="1" height="1" fill="#b06e2d"/>
<rect x="17" y="31" width="1" height="1" fill="#7a482b"/>
<rect x="28" y="31" width="3" height="1" fill="#92582a"/>
<rect x="18" y="31" width="1" height="1" fill="#85522b"/>
<rect x="4" y="31" width="1" height="1" fill="#ac6b2c"/>
</svg>