<?xml version="1.0" encoding="UTF-8"?>
<svg xmlns="http://www.w3.org/2000/svg" width="20mm" height="20mm" viewBox="0 0 32 32" shape-rendering="crispEdges">
<title>168 右侧面 structured semantic redraw</title>
<metadata>registered 32-unit semantic vector redraw; no embedded raster; physical-size=20mm</metadata>
<rect x="0" y="0" width="32" height="32" fill="#bcc7c8"/>
<rect x="5" y="0" width="2" height="1" fill="#b5843b"/>
<rect x="12" y="0" width="3" height="1" fill="#b5965f"/>
<rect x="9" y="0" width="1" height="1" fill="#ab804a"/>
<rect x="4" y="0" width="1" height="1" fill="#b68b45"/>
<rect x="3" y="0" width="1" height="1" fill="#b5843b"/>
<rect x="10" y="0" width="2" height="1" fill="#ad8853"/>
<rect x="17" y="0" width="1" height="1" fill="#9e7544"/>
<rect x="20" y="0" width="1" height="1" fill="#a2b9bd"/>
<rect x="18" y="0" width="2" height="1" fill="#aca388"/>
<rect x="15" y="0" width="1" height="1" fill="#aca388"/>
<rect x="2" y="0" width="1" height="1" fill="#ab773c"/>
<rect x="16" y="0" width="1" height="1" fill="#ab804a"/>
<rect x="31" y="0" width="1" height="1" fill="#aca388"/>
<rect x="21" y="0" width="1" height="1" fill="#b0c1c3"/>
<rect x="26" y="0" width="5" height="1" fill="#bdc8ca"/>
<rect x="7" y="0" width="2" height="1" fill="#b68b45"/>
<rect x="12" y="1" width="1" height="1" fill="#c2c9cb"/>
<rect x="5" y="1" width="3" height="1" fill="#a2b9bd"/>
<rect x="16" y="1" width="2" height="1" fill="#ad8853"/>
<rect x="13" y="1" width="2" height="1" fill="#cacdce"/>
<rect x="3" y="1" width="1" height="1" fill="#b5965f"/>
<rect x="8" y="1" width="3" height="1" fill="#b0c1c3"/>
<rect x="18" y="1" width="1" height="1" fill="#bdc8ca"/>
<rect x="23" y="1" width="1" height="1" fill="#c9cccc"/>
<rect x="24" y="1" width="1" height="1" fill="#c2c9cb"/>
<rect x="2" y="1" width="1" height="1" fill="#9e6e3c"/>
<rect x="25" y="1" width="6" height="1" fill="#bdc8ca"/>
<rect x="22" y="1" width="1" height="1" fill="#c2c9cb"/>
<rect x="11" y="1" width="1" height="1" fill="#b1c4c8"/>
<rect x="4" y="1" width="1" height="1" fill="#91a8a3"/>
<rect x="25" y="2" width="1" height="1" fill="#c2c9cb"/>
<rect x="18" y="2" width="1" height="1" fill="#c7cbcc"/>
<rect x="4" y="2" width="2" height="1" fill="#a2bec5"/>
<rect x="11" y="2" width="2" height="1" fill="#b1c4c8"/>
<rect x="7" y="2" width="3" height="1" fill="#a8c1c6"/>
<rect x="24" y="2" width="1" height="1" fill="#c7cbcc"/>
<rect x="26" y="2" width="5" height="1" fill="#bdc8ca"/>
<rect x="6" y="2" width="1" height="1" fill="#a6bfc5"/>
<rect x="10" y="2" width="1" height="1" fill="#b0c1c3"/>
<rect x="13" y="2" width="1" height="1" fill="#bdc8ca"/>
<rect x="3" y="2" width="1" height="1" fill="#a09579"/>
<rect x="14" y="2" width="1" height="1" fill="#c9cccc"/>
<rect x="19" y="2" width="1" height="1" fill="#bdc8ca"/>
<rect x="23" y="2" width="1" height="1" fill="#bdc8ca"/>
<rect x="2" y="2" width="1" height="1" fill="#946339"/>
<rect x="15" y="1" width="1" height="3" fill="#c7cbcc"/>
<rect x="17" y="2" width="1" height="2" fill="#ad8853"/>
<rect x="19" y="3" width="1" height="1" fill="#c9cccc"/>
<rect x="11" y="3" width="1" height="1" fill="#b0c1c3"/>
<rect x="20" y="3" width="1" height="1" fill="#bdc8ca"/>
<rect x="24" y="3" width="1" height="1" fill="#bdc8ca"/>
<rect x="27" y="3" width="4" height="1" fill="#bdc8ca"/>
<rect x="2" y="3" width="1" height="1" fill="#9e6e3c"/>
<rect x="9" y="3" width="2" height="1" fill="#a8c1c6"/>
<rect x="4" y="3" width="1" height="1" fill="#9fbdc4"/>
<rect x="12" y="3" width="2" height="1" fill="#b1c4c8"/>
<rect x="26" y="3" width="1" height="1" fill="#c2c9cb"/>
<rect x="7" y="3" width="2" height="1" fill="#a6bfc5"/>
<rect x="5" y="3" width="2" height="1" fill="#a2bec5"/>
<rect x="25" y="3" width="1" height="1" fill="#c9cccc"/>
<rect x="28" y="4" width="1" height="1" fill="#bdc8ca"/>
<rect x="9" y="4" width="3" height="1" fill="#a8c1c6"/>
<rect x="26" y="4" width="2" height="1" fill="#c7cbcc"/>
<rect x="12" y="4" width="1" height="1" fill="#b0c1c3"/>
<rect x="30" y="4" width="1" height="1" fill="#bdc8ca"/>
<rect x="8" y="4" width="1" height="1" fill="#a6bfc5"/>
<rect x="21" y="4" width="1" height="1" fill="#bdc8ca"/>
<rect x="13" y="4" width="2" height="1" fill="#b1c4c8"/>
<rect x="25" y="4" width="1" height="1" fill="#bdc8ca"/>
<rect x="29" y="4" width="1" height="1" fill="#c2c9cb"/>
<rect x="4" y="4" width="2" height="1" fill="#9fbdc4"/>
<rect x="6" y="4" width="2" height="1" fill="#a2bec5"/>
<rect x="2" y="4" width="1" height="1" fill="#946339"/>
<rect x="18" y="3" width="1" height="3" fill="#cacdce"/>
<rect x="19" y="4" width="2" height="2" fill="#c9cccc"/>
<rect x="15" y="4" width="1" height="2" fill="#b0c1c3"/>
<rect x="26" y="5" width="1" height="1" fill="#bdc8ca"/>
<rect x="27" y="5" width="2" height="1" fill="#c7cbcc"/>
<rect x="13" y="5" width="1" height="1" fill="#b0c1c3"/>
<rect x="5" y="5" width="2" height="1" fill="#9fbdc4"/>
<rect x="4" y="5" width="1" height="1" fill="#9abbc4"/>
<rect x="7" y="5" width="2" height="1" fill="#a2bec5"/>
<rect x="22" y="5" width="1" height="1" fill="#c2c9cb"/>
<rect x="10" y="5" width="3" height="1" fill="#a8c1c6"/>
<rect x="9" y="5" width="1" height="1" fill="#a6bfc5"/>
<rect x="29" y="5" width="2" height="1" fill="#bdc8ca"/>
<rect x="21" y="5" width="1" height="1" fill="#cacdce"/>
<rect x="1" y="0" width="1" height="7" fill="#b68b45"/>
<rect x="14" y="5" width="1" height="2" fill="#b1c4c8"/>
<rect x="2" y="5" width="1" height="2" fill="#ab773c"/>
<rect x="19" y="6" width="1" height="1" fill="#c9cccc"/>
<rect x="10" y="6" width="2" height="1" fill="#a6bfc5"/>
<rect x="12" y="6" width="2" height="1" fill="#a8c1c6"/>
<rect x="18" y="6" width="1" height="1" fill="#c2c9cb"/>
<rect x="23" y="6" width="1" height="1" fill="#c2c9cb"/>
<rect x="28" y="6" width="1" height="1" fill="#c2c9cb"/>
<rect x="20" y="6" width="1" height="1" fill="#cacdce"/>
<rect x="29" y="6" width="1" height="1" fill="#c7cbcc"/>
<rect x="30" y="6" width="1" height="1" fill="#c2c9cb"/>
<rect x="22" y="6" width="1" height="1" fill="#cacdce"/>
<rect x="21" y="6" width="1" height="1" fill="#c9cccc"/>
<rect x="4" y="6" width="1" height="1" fill="#97bac3"/>
<rect x="5" y="6" width="2" height="1" fill="#9abbc4"/>
<rect x="8" y="6" width="2" height="1" fill="#a2bec5"/>
<rect x="7" y="6" width="1" height="1" fill="#9fbdc4"/>
<rect x="31" y="1" width="1" height="7" fill="#a09579"/>
<rect x="15" y="6" width="1" height="2" fill="#a6bfc5"/>
<rect x="4" y="7" width="2" height="1" fill="#97bac3"/>
<rect x="28" y="7" width="1" height="1" fill="#bdc8ca"/>
<rect x="18" y="7" width="1" height="1" fill="#b1c4c8"/>
<rect x="13" y="7" width="2" height="1" fill="#a8c1c6"/>
<rect x="19" y="7" width="1" height="1" fill="#c2c9cb"/>
<rect x="6" y="7" width="1" height="1" fill="#9abbc4"/>
<rect x="24" y="7" width="1" height="1" fill="#c2c9cb"/>
<rect x="10" y="7" width="1" height="1" fill="#a2bec5"/>
<rect x="30" y="7" width="1" height="1" fill="#cacdce"/>
<rect x="11" y="7" width="2" height="1" fill="#a6bfc5"/>
<rect x="29" y="7" width="1" height="1" fill="#c2c9cb"/>
<rect x="20" y="7" width="4" height="1" fill="#c9cccc"/>
<rect x="7" y="7" width="3" height="1" fill="#9fbdc4"/>
<rect x="3" y="3" width="1" height="6" fill="#aca388"/>
<rect x="25" y="8" width="1" height="1" fill="#c2c9cb"/>
<rect x="11" y="8" width="1" height="1" fill="#a2bec5"/>
<rect x="20" y="8" width="1" height="1" fill="#bdc8ca"/>
<rect x="8" y="8" width="3" height="1" fill="#9fbdc4"/>
<rect x="31" y="8" width="1" height="1" fill="#b5965f"/>
<rect x="29" y="8" width="1" height="1" fill="#bdc8ca"/>
<rect x="21" y="8" width="4" height="1" fill="#c9cccc"/>
<rect x="18" y="8" width="2" height="1" fill="#b1c4c8"/>
<rect x="30" y="8" width="1" height="1" fill="#c2c9cb"/>
<rect x="14" y="8" width="1" height="1" fill="#a8c1c6"/>
<rect x="4" y="8" width="1" height="1" fill="#92b8c3"/>
<rect x="5" y="8" width="2" height="1" fill="#97bac3"/>
<rect x="12" y="8" width="2" height="1" fill="#a6bfc5"/>
<rect x="7" y="8" width="1" height="1" fill="#9abbc4"/>
<rect x="0" y="0" width="1" height="10" fill="#b5843b"/>
<rect x="2" y="7" width="1" height="3" fill="#9e6e3c"/>
<rect x="18" y="9" width="3" height="1" fill="#b1c4c8"/>
<rect x="26" y="9" width="1" height="1" fill="#c7cbcc"/>
<rect x="22" y="9" width="4" height="1" fill="#c9cccc"/>
<rect x="10" y="9" width="1" height="1" fill="#9fbdc4"/>
<rect x="4" y="9" width="2" height="1" fill="#92b8c3"/>
<rect x="6" y="9" width="2" height="1" fill="#97bac3"/>
<rect x="11" y="9" width="3" height="1" fill="#a2bec5"/>
<rect x="3" y="9" width="1" height="1" fill="#a09579"/>
<rect x="8" y="9" width="2" height="1" fill="#9abbc4"/>
<rect x="14" y="9" width="1" height="2" fill="#a6bfc5"/>
<rect x="25" y="10" width="1" height="1" fill="#cacdce"/>
<rect x="21" y="10" width="1" height="1" fill="#b1c4c8"/>
<rect x="9" y="10" width="2" height="1" fill="#9abbc4"/>
<rect x="18" y="10" width="1" height="1" fill="#b1c4c8"/>
<rect x="19" y="10" width="2" height="1" fill="#b0c1c3"/>
<rect x="11" y="10" width="2" height="1" fill="#9fbdc4"/>
<rect x="26" y="10" width="1" height="1" fill="#c9cccc"/>
<rect x="13" y="10" width="1" height="1" fill="#a2bec5"/>
<rect x="23" y="10" width="2" height="1" fill="#c9cccc"/>
<rect x="3" y="10" width="1" height="1" fill="#aca388"/>
<rect x="0" y="10" width="1" height="1" fill="#ab773c"/>
<rect x="2" y="10" width="1" height="1" fill="#b5843b"/>
<rect x="7" y="10" width="2" height="1" fill="#97bac3"/>
<rect x="27" y="10" width="1" height="1" fill="#c7cbcc"/>
<rect x="4" y="10" width="3" height="1" fill="#92b8c3"/>
<rect x="16" y="2" width="1" height="10" fill="#b68b45"/>
<rect x="1" y="7" width="1" height="5" fill="#ab804a"/>
<rect x="20" y="11" width="1" height="1" fill="#b0c1c3"/>
<rect x="6" y="11" width="2" height="1" fill="#92b8c3"/>
<rect x="18" y="11" width="2" height="1" fill="#a8c1c6"/>
<rect x="24" y="11" width="1" height="1" fill="#c9cccc"/>
<rect x="28" y="11" width="1" height="1" fill="#c7cbcc"/>
<rect x="14" y="11" width="1" height="1" fill="#a2bec5"/>
<rect x="25" y="11" width="2" height="1" fill="#cacdce"/>
<rect x="5" y="11" width="1" height="1" fill="#8ab6c2"/>
<rect x="12" y="11" width="2" height="1" fill="#9fbdc4"/>
<rect x="27" y="11" width="1" height="1" fill="#c9cccc"/>
<rect x="21" y="11" width="2" height="1" fill="#b1c4c8"/>
<rect x="3" y="11" width="1" height="1" fill="#a09579"/>
<rect x="4" y="11" width="1" height="1" fill="#97bac3"/>
<rect x="8" y="11" width="2" height="1" fill="#97bac3"/>
<rect x="10" y="11" width="2" height="1" fill="#9abbc4"/>
<rect x="2" y="11" width="1" height="1" fill="#946339"/>
<rect x="30" y="9" width="1" height="4" fill="#bdc8ca"/>
<rect x="27" y="12" width="2" height="1" fill="#c9cccc"/>
<rect x="9" y="12" width="2" height="1" fill="#97bac3"/>
<rect x="22" y="12" width="2" height="1" fill="#b1c4c8"/>
<rect x="2" y="12" width="1" height="1" fill="#9e6e3c"/>
<rect x="5" y="12" width="1" height="1" fill="#a6bfc5"/>
<rect x="21" y="12" width="1" height="1" fill="#b0c1c3"/>
<rect x="11" y="12" width="2" height="1" fill="#9abbc4"/>
<rect x="26" y="12" width="1" height="1" fill="#cacdce"/>
<rect x="29" y="12" width="1" height="1" fill="#c7cbcc"/>
<rect x="6" y="12" width="3" height="1" fill="#92b8c3"/>
<rect x="13" y="12" width="2" height="1" fill="#9fbdc4"/>
<rect x="25" y="12" width="1" height="1" fill="#c9cccc"/>
<rect x="18" y="12" width="3" height="1" fill="#a8c1c6"/>
<rect x="17" y="4" width="1" height="10" fill="#b5965f"/>
<rect x="15" y="8" width="1" height="6" fill="#a2b9bd"/>
<rect x="31" y="9" width="1" height="5" fill="#ad8853"/>
<rect x="16" y="12" width="1" height="2" fill="#ab804a"/>
<rect x="4" y="12" width="1" height="2" fill="#c7cbcc"/>
<rect x="3" y="12" width="1" height="2" fill="#aca388"/>
<rect x="7" y="13" width="1" height="1" fill="#97bac3"/>
<rect x="14" y="13" width="1" height="1" fill="#9fbdc4"/>
<rect x="22" y="13" width="4" height="1" fill="#b1c4c8"/>
<rect x="18" y="13" width="4" height="1" fill="#a8c1c6"/>
<rect x="26" y="13" width="1" height="1" fill="#c7cbcc"/>
<rect x="27" y="13" width="4" height="1" fill="#cacdce"/>
<rect x="5" y="13" width="1" height="1" fill="#c9cccc"/>
<rect x="12" y="13" width="2" height="1" fill="#9abbc4"/>
<rect x="8" y="13" width="2" height="1" fill="#92b8c3"/>
<rect x="10" y="13" width="2" height="1" fill="#97bac3"/>
<rect x="0" y="11" width="1" height="4" fill="#b5843b"/>
<rect x="2" y="13" width="1" height="2" fill="#ab773c"/>
<rect x="8" y="14" width="1" height="1" fill="#a2b9bd"/>
<rect x="30" y="14" width="1" height="1" fill="#b5965f"/>
<rect x="16" y="14" width="1" height="1" fill="#ab773c"/>
<rect x="4" y="14" width="1" height="1" fill="#8ab6c2"/>
<rect x="31" y="14" width="1" height="1" fill="#b68b45"/>
<rect x="5" y="14" width="1" height="1" fill="#b0c1c3"/>
<rect x="15" y="14" width="1" height="1" fill="#aca388"/>
<rect x="9" y="14" width="6" height="1" fill="#91a8a3"/>
<rect x="17" y="14" width="1" height="1" fill="#ad8853"/>
<rect x="18" y="14" width="3" height="1" fill="#aca388"/>
<rect x="29" y="14" width="1" height="1" fill="#ad8853"/>
<rect x="27" y="14" width="2" height="1" fill="#b5965f"/>
<rect x="3" y="14" width="1" height="1" fill="#a09579"/>
<rect x="21" y="14" width="6" height="1" fill="#a09579"/>
<rect x="0" y="15" width="1" height="1" fill="#ab773c"/>
<rect x="18" y="15" width="3" height="1" fill="#b5843b"/>
<rect x="16" y="15" width="2" height="1" fill="#b68b45"/>
<rect x="27" y="15" width="3" height="1" fill="#b68b45"/>
<rect x="13" y="15" width="3" height="1" fill="#b5843b"/>
<rect x="8" y="15" width="5" height="1" fill="#ab773c"/>
<rect x="21" y="15" width="2" height="1" fill="#ab773c"/>
<rect x="5" y="15" width="3" height="1" fill="#9e6e3c"/>
<rect x="4" y="15" width="1" height="1" fill="#9e7544"/>
<rect x="30" y="15" width="2" height="1" fill="#b5965f"/>
<rect x="3" y="15" width="1" height="1" fill="#ab773c"/>
<rect x="23" y="15" width="4" height="1" fill="#b5843b"/>
<rect x="2" y="15" width="1" height="2" fill="#9e6e3c"/>
<rect x="30" y="16" width="1" height="1" fill="#ab804a"/>
<rect x="9" y="16" width="2" height="1" fill="#9e6e3c"/>
<rect x="31" y="16" width="1" height="1" fill="#9e7544"/>
<rect x="3" y="16" width="6" height="1" fill="#9e7544"/>
<rect x="29" y="16" width="1" height="1" fill="#9e7544"/>
<rect x="11" y="16" width="17" height="1" fill="#946339"/>
<rect x="28" y="16" width="1" height="1" fill="#9e6e3c"/>
<rect x="22" y="17" width="1" height="1" fill="#b68b45"/>
<rect x="7" y="17" width="2" height="1" fill="#b5843b"/>
<rect x="31" y="17" width="1" height="1" fill="#9e6e3c"/>
<rect x="19" y="17" width="3" height="1" fill="#b5843b"/>
<rect x="23" y="17" width="1" height="1" fill="#b5843b"/>
<rect x="15" y="17" width="4" height="1" fill="#ab773c"/>
<rect x="24" y="17" width="3" height="1" fill="#b68b45"/>
<rect x="9" y="17" width="5" height="1" fill="#b68b45"/>
<rect x="14" y="17" width="1" height="1" fill="#b5843b"/>
<rect x="29" y="17" width="2" height="1" fill="#ab773c"/>
<rect x="27" y="17" width="2" height="1" fill="#b5843b"/>
<rect x="3" y="17" width="4" height="1" fill="#ab773c"/>
<rect x="1" y="12" width="1" height="7" fill="#9e7544"/>
<rect x="0" y="16" width="1" height="3" fill="#9e6e3c"/>
<rect x="2" y="17" width="1" height="2" fill="#946339"/>
<rect x="31" y="18" width="1" height="1" fill="#9e7544"/>
<rect x="3" y="18" width="1" height="1" fill="#ab804a"/>
<rect x="11" y="18" width="4" height="1" fill="#b5965f"/>
<rect x="17" y="18" width="1" height="1" fill="#ad8853"/>
<rect x="18" y="18" width="13" height="1" fill="#aca388"/>
<rect x="15" y="18" width="1" height="1" fill="#a09579"/>
<rect x="5" y="18" width="5" height="1" fill="#b5965f"/>
<rect x="10" y="18" width="1" height="1" fill="#a09579"/>
<rect x="4" y="18" width="1" height="1" fill="#ad8853"/>
<rect x="16" y="18" width="1" height="2" fill="#ab773c"/>
<rect x="21" y="19" width="2" height="1" fill="#a2bec5"/>
<rect x="11" y="19" width="1" height="1" fill="#92b8c3"/>
<rect x="5" y="19" width="2" height="1" fill="#7db1c1"/>
<rect x="23" y="19" width="2" height="1" fill="#a6bfc5"/>
<rect x="8" y="19" width="1" height="1" fill="#9abbc4"/>
<rect x="7" y="19" width="1" height="1" fill="#8ab6c2"/>
<rect x="9" y="19" width="2" height="1" fill="#8ab6c2"/>
<rect x="13" y="19" width="2" height="1" fill="#cacdce"/>
<rect x="28" y="19" width="3" height="1" fill="#b1c4c8"/>
<rect x="2" y="19" width="1" height="1" fill="#ab773c"/>
<rect x="15" y="19" width="1" height="1" fill="#a2b9bd"/>
<rect x="20" y="19" width="1" height="1" fill="#9fbdc4"/>
<rect x="25" y="19" width="3" height="1" fill="#a8c1c6"/>
<rect x="18" y="19" width="2" height="1" fill="#9abbc4"/>
<rect x="4" y="19" width="1" height="1" fill="#79afc0"/>
<rect x="17" y="19" width="1" height="2" fill="#a09579"/>
<rect x="23" y="20" width="2" height="1" fill="#a2bec5"/>
<rect x="19" y="20" width="2" height="1" fill="#9abbc4"/>
<rect x="6" y="20" width="2" height="1" fill="#7db1c1"/>
<rect x="4" y="20" width="2" height="1" fill="#79afc0"/>
<rect x="2" y="20" width="1" height="1" fill="#9e6e3c"/>
<rect x="29" y="20" width="2" height="1" fill="#b1c4c8"/>
<rect x="26" y="20" width="3" height="1" fill="#a8c1c6"/>
<rect x="25" y="20" width="1" height="1" fill="#a6bfc5"/>
<rect x="18" y="20" width="1" height="1" fill="#97bac3"/>
<rect x="8" y="20" width="1" height="1" fill="#8ab6c2"/>
<rect x="9" y="20" width="1" height="1" fill="#9fbdc4"/>
<rect x="13" y="20" width="1" height="1" fill="#a8c1c6"/>
<rect x="21" y="20" width="2" height="1" fill="#9fbdc4"/>
<rect x="14" y="20" width="1" height="1" fill="#c9cccc"/>
<rect x="10" y="20" width="3" height="1" fill="#8ab6c2"/>
<rect x="31" y="19" width="1" height="3" fill="#ab804a"/>
<rect x="1" y="19" width="1" height="3" fill="#ab804a"/>
<rect x="16" y="20" width="1" height="2" fill="#b68b45"/>
<rect x="15" y="20" width="1" height="2" fill="#b0c1c3"/>
<rect x="5" y="21" width="2" height="1" fill="#79afc0"/>
<rect x="18" y="21" width="1" height="1" fill="#b1c4c8"/>
<rect x="4" y="21" width="1" height="1" fill="#76aebf"/>
<rect x="10" y="21" width="1" height="1" fill="#9fbdc4"/>
<rect x="20" y="21" width="2" height="1" fill="#9abbc4"/>
<rect x="22" y="21" width="2" height="1" fill="#9fbdc4"/>
<rect x="14" y="21" width="1" height="1" fill="#9abbc4"/>
<rect x="7" y="21" width="3" height="1" fill="#7db1c1"/>
<rect x="11" y="21" width="3" height="1" fill="#8ab6c2"/>
<rect x="2" y="21" width="1" height="1" fill="#ab773c"/>
<rect x="27" y="21" width="3" height="1" fill="#a8c1c6"/>
<rect x="19" y="21" width="1" height="1" fill="#97bac3"/>
<rect x="30" y="21" width="1" height="1" fill="#b1c4c8"/>
<rect x="24" y="21" width="1" height="1" fill="#a2bec5"/>
<rect x="25" y="21" width="2" height="1" fill="#a6bfc5"/>
<rect x="28" y="22" width="3" height="1" fill="#a8c1c6"/>
<rect x="6" y="22" width="2" height="1" fill="#79afc0"/>
<rect x="18" y="22" width="1" height="1" fill="#cacdce"/>
<rect x="12" y="22" width="1" height="1" fill="#92b8c3"/>
<rect x="13" y="22" width="2" height="1" fill="#8ab6c2"/>
<rect x="2" y="22" width="1" height="1" fill="#9e6e3c"/>
<rect x="27" y="22" width="1" height="1" fill="#a6bfc5"/>
<rect x="4" y="22" width="2" height="1" fill="#76aebf"/>
<rect x="8" y="22" width="3" height="1" fill="#7db1c1"/>
<rect x="23" y="22" width="2" height="1" fill="#9fbdc4"/>
<rect x="25" y="22" width="2" height="1" fill="#a2bec5"/>
<rect x="20" y="22" width="3" height="1" fill="#9abbc4"/>
<rect x="11" y="22" width="1" height="1" fill="#9abbc4"/>
<rect x="17" y="21" width="1" height="3" fill="#b5965f"/>
<rect x="31" y="22" width="1" height="2" fill="#9e7544"/>
<rect x="24" y="23" width="2" height="1" fill="#9fbdc4"/>
<rect x="21" y="23" width="1" height="1" fill="#9fbdc4"/>
<rect x="12" y="23" width="1" height="1" fill="#97bac3"/>
<rect x="9" y="23" width="3" height="1" fill="#7db1c1"/>
<rect x="5" y="23" width="2" height="1" fill="#76aebf"/>
<rect x="18" y="23" width="2" height="1" fill="#cacdce"/>
<rect x="20" y="23" width="1" height="1" fill="#c2c9cb"/>
<rect x="22" y="23" width="2" height="1" fill="#9abbc4"/>
<rect x="26" y="23" width="2" height="1" fill="#a2bec5"/>
<rect x="4" y="23" width="1" height="1" fill="#73aebf"/>
<rect x="14" y="23" width="1" height="1" fill="#8ab6c2"/>
<rect x="7" y="23" width="2" height="1" fill="#79afc0"/>
<rect x="29" y="23" width="2" height="1" fill="#a8c1c6"/>
<rect x="28" y="23" width="1" height="1" fill="#a6bfc5"/>
<rect x="2" y="23" width="1" height="1" fill="#946339"/>
<rect x="16" y="22" width="1" height="3" fill="#ab804a"/>
<rect x="13" y="23" width="1" height="2" fill="#92b8c3"/>
<rect x="23" y="24" width="2" height="1" fill="#9abbc4"/>
<rect x="19" y="24" width="1" height="1" fill="#c7cbcc"/>
<rect x="4" y="24" width="2" height="1" fill="#73aebf"/>
<rect x="22" y="24" width="1" height="1" fill="#a6bfc5"/>
<rect x="31" y="24" width="1" height="1" fill="#ab804a"/>
<rect x="18" y="24" width="1" height="1" fill="#9fbdc4"/>
<rect x="14" y="24" width="1" height="1" fill="#9abbc4"/>
<rect x="6" y="24" width="2" height="1" fill="#76aebf"/>
<rect x="20" y="24" width="1" height="1" fill="#cacdce"/>
<rect x="29" y="24" width="2" height="1" fill="#a6bfc5"/>
<rect x="25" y="24" width="2" height="1" fill="#9fbdc4"/>
<rect x="27" y="24" width="2" height="1" fill="#a2bec5"/>
<rect x="21" y="24" width="1" height="1" fill="#c7cbcc"/>
<rect x="10" y="24" width="3" height="1" fill="#7db1c1"/>
<rect x="8" y="24" width="2" height="1" fill="#79afc0"/>
<rect x="0" y="19" width="1" height="7" fill="#ab773c"/>
<rect x="30" y="25" width="1" height="1" fill="#a6bfc5"/>
<rect x="20" y="25" width="1" height="1" fill="#bdc8ca"/>
<rect x="7" y="25" width="2" height="1" fill="#76aebf"/>
<rect x="24" y="25" width="2" height="1" fill="#9abbc4"/>
<rect x="23" y="25" width="1" height="1" fill="#b1c4c8"/>
<rect x="28" y="25" width="2" height="1" fill="#a2bec5"/>
<rect x="9" y="25" width="2" height="1" fill="#79afc0"/>
<rect x="26" y="25" width="2" height="1" fill="#9fbdc4"/>
<rect x="22" y="25" width="1" height="1" fill="#c9cccc"/>
<rect x="11" y="25" width="3" height="1" fill="#7db1c1"/>
<rect x="19" y="25" width="1" height="1" fill="#97bac3"/>
<rect x="4" y="25" width="3" height="1" fill="#73aebf"/>
<rect x="14" y="25" width="1" height="1" fill="#8ab6c2"/>
<rect x="18" y="25" width="1" height="1" fill="#8ab6c2"/>
<rect x="21" y="25" width="1" height="1" fill="#cacdce"/>
<rect x="16" y="25" width="1" height="2" fill="#b68b45"/>
<rect x="23" y="26" width="1" height="1" fill="#c9cccc"/>
<rect x="10" y="26" width="2" height="1" fill="#79afc0"/>
<rect x="18" y="26" width="2" height="1" fill="#8ab6c2"/>
<rect x="4" y="26" width="4" height="1" fill="#73aebf"/>
<rect x="8" y="26" width="2" height="1" fill="#76aebf"/>
<rect x="27" y="26" width="2" height="1" fill="#9fbdc4"/>
<rect x="29" y="26" width="2" height="1" fill="#a2bec5"/>
<rect x="12" y="26" width="3" height="1" fill="#7db1c1"/>
<rect x="22" y="26" width="1" height="1" fill="#cacdce"/>
<rect x="24" y="26" width="1" height="1" fill="#b1c4c8"/>
<rect x="25" y="26" width="2" height="1" fill="#9abbc4"/>
<rect x="20" y="26" width="1" height="1" fill="#92b8c3"/>
<rect x="2" y="24" width="1" height="4" fill="#9e6e3c"/>
<rect x="31" y="25" width="1" height="3" fill="#9e7544"/>
<rect x="11" y="27" width="2" height="1" fill="#79afc0"/>
<rect x="9" y="27" width="2" height="1" fill="#76aebf"/>
<rect x="13" y="27" width="2" height="1" fill="#7db1c1"/>
<rect x="22" y="27" width="1" height="1" fill="#b1c4c8"/>
<rect x="23" y="27" width="2" height="1" fill="#c9cccc"/>
<rect x="26" y="27" width="2" height="1" fill="#9abbc4"/>
<rect x="18" y="27" width="4" height="1" fill="#8ab6c2"/>
<rect x="28" y="27" width="3" height="1" fill="#9fbdc4"/>
<rect x="4" y="27" width="5" height="1" fill="#73aebf"/>
<rect x="15" y="22" width="1" height="7" fill="#91a8a3"/>
<rect x="16" y="27" width="1" height="2" fill="#b5843b"/>
<rect x="12" y="28" width="2" height="1" fill="#79afc0"/>
<rect x="27" y="28" width="1" height="1" fill="#9fbdc4"/>
<rect x="20" y="28" width="3" height="1" fill="#8ab6c2"/>
<rect x="4" y="28" width="6" height="1" fill="#73aebf"/>
<rect x="29" y="28" width="2" height="1" fill="#9fbdc4"/>
<rect x="18" y="28" width="1" height="1" fill="#9abbc4"/>
<rect x="10" y="28" width="2" height="1" fill="#76aebf"/>
<rect x="26" y="28" width="1" height="1" fill="#c2c9cb"/>
<rect x="24" y="28" width="2" height="1" fill="#c9cccc"/>
<rect x="19" y="28" width="1" height="1" fill="#92b8c3"/>
<rect x="23" y="28" width="1" height="1" fill="#a6bfc5"/>
<rect x="28" y="28" width="1" height="1" fill="#9abbc4"/>
<rect x="1" y="22" width="1" height="8" fill="#ad8853"/>
<rect x="31" y="28" width="1" height="2" fill="#ab804a"/>
<rect x="14" y="28" width="1" height="2" fill="#7db1c1"/>
<rect x="2" y="28" width="1" height="2" fill="#946339"/>
<rect x="15" y="29" width="1" height="1" fill="#78a7b3"/>
<rect x="11" y="29" width="2" height="1" fill="#76aebf"/>
<rect x="29" y="29" width="1" height="1" fill="#9abbc4"/>
<rect x="26" y="29" width="1" height="1" fill="#c9cccc"/>
<rect x="13" y="29" width="1" height="1" fill="#79afc0"/>
<rect x="19" y="29" width="1" height="1" fill="#97bac3"/>
<rect x="27" y="29" width="1" height="1" fill="#c7cbcc"/>
<rect x="24" y="29" width="1" height="1" fill="#9fbdc4"/>
<rect x="18" y="29" width="1" height="1" fill="#7db1c1"/>
<rect x="25" y="29" width="1" height="1" fill="#c7cbcc"/>
<rect x="4" y="29" width="7" height="1" fill="#73aebf"/>
<rect x="21" y="29" width="3" height="1" fill="#8ab6c2"/>
<rect x="28" y="29" width="1" height="1" fill="#a6bfc5"/>
<rect x="30" y="29" width="1" height="1" fill="#a2b9bd"/>
<rect x="20" y="29" width="1" height="2" fill="#92b8c3"/>
<rect x="30" y="30" width="1" height="1" fill="#97bac3"/>
<rect x="27" y="30" width="2" height="1" fill="#c9cccc"/>
<rect x="18" y="30" width="2" height="1" fill="#7db1c1"/>
<rect x="1" y="30" width="1" height="1" fill="#b68b45"/>
<rect x="15" y="30" width="1" height="1" fill="#91a8a3"/>
<rect x="21" y="30" width="1" height="1" fill="#97bac3"/>
<rect x="25" y="30" width="1" height="1" fill="#9abbc4"/>
<rect x="12" y="30" width="2" height="1" fill="#76aebf"/>
<rect x="31" y="30" width="1" height="1" fill="#946339"/>
<rect x="4" y="30" width="8" height="1" fill="#73aebf"/>
<rect x="26" y="30" width="1" height="1" fill="#c2c9cb"/>
<rect x="22" y="30" width="3" height="1" fill="#8ab6c2"/>
<rect x="29" y="30" width="1" height="1" fill="#b1c4c8"/>
<rect x="3" y="19" width="1" height="13" fill="#91a8a3"/>
<rect x="17" y="24" width="1" height="8" fill="#a09579"/>
<rect x="0" y="26" width="1" height="6" fill="#b5843b"/>
<rect x="16" y="29" width="1" height="3" fill="#ab773c"/>
<rect x="2" y="30" width="1" height="2" fill="#ab773c"/>
<rect x="14" y="30" width="1" height="2" fill="#79afc0"/>
<rect x="26" y="31" width="1" height="1" fill="#97bac3"/>
<rect x="23" y="31" width="3" height="1" fill="#8ab6c2"/>
<rect x="4" y="31" width="9" height="1" fill="#73aebf"/>
<rect x="15" y="31" width="1" height="1" fill="#78a7b3"/>
<rect x="22" y="31" width="1" height="1" fill="#9abbc4"/>
<rect x="30" y="31" width="1" height="1" fill="#b0c1c3"/>
<rect x="28" y="31" width="1" height="1" fill="#c9cccc"/>
<rect x="31" y="31" width="1" height="1" fill="#9e7544"/>
<rect x="27" y="31" width="1" height="1" fill="#bdc8ca"/>
<rect x="21" y="31" width="1" height="1" fill="#8ab6c2"/>
<rect x="1" y="31" width="1" height="1" fill="#ad8853"/>
<rect x="29" y="31" width="1" height="1" fill="#cacdce"/>
<rect x="18" y="31" width="3" height="1" fill="#7db1c1"/>
<rect x="13" y="31" width="1" height="1" fill="#76aebf"/>
</svg>