<?xml version="1.0" encoding="UTF-8"?>
<svg xmlns="http://www.w3.org/2000/svg" width="20mm" height="20mm" viewBox="0 0 32 32" shape-rendering="crispEdges">
<title>168 顶面 structured semantic redraw</title>
<metadata>registered 32-unit semantic vector redraw; no embedded raster; physical-size=20mm</metadata>
<rect x="0" y="0" width="32" height="32" fill="#d9f5fb"/>
<rect x="9" y="0" width="3" height="1" fill="#a6d8de"/>
<rect x="5" y="0" width="1" height="1" fill="#d1ab70"/>
<rect x="0" y="0" width="2" height="1" fill="#e2a953"/>
<rect x="6" y="0" width="3" height="1" fill="#c0bfa6"/>
<rect x="18" y="0" width="10" height="1" fill="#94dcf2"/>
<rect x="3" y="0" width="1" height="1" fill="#cf9f58"/>
<rect x="14" y="0" width="1" height="1" fill="#a6d8de"/>
<rect x="15" y="0" width="3" height="1" fill="#97ddf2"/>
<rect x="2" y="0" width="1" height="1" fill="#dca24e"/>
<rect x="4" y="0" width="1" height="1" fill="#c89653"/>
<rect x="13" y="0" width="1" height="2" fill="#d99a4f"/>
<rect x="29" y="0" width="1" height="2" fill="#c58c48"/>
<rect x="15" y="1" width="5" height="1" fill="#97ddf2"/>
<rect x="2" y="1" width="1" height="1" fill="#dbeeed"/>
<rect x="7" y="1" width="2" height="1" fill="#bfebf7"/>
<rect x="3" y="1" width="4" height="1" fill="#b7e8f5"/>
<rect x="9" y="1" width="2" height="1" fill="#ace4f4"/>
<rect x="23" y="1" width="5" height="1" fill="#94dcf2"/>
<rect x="20" y="1" width="2" height="1" fill="#94dcf2"/>
<rect x="11" y="1" width="1" height="1" fill="#9fe0f3"/>
<rect x="0" y="1" width="2" height="1" fill="#dcd4bc"/>
<rect x="28" y="0" width="1" height="3" fill="#c0bfa6"/>
<rect x="12" y="0" width="1" height="3" fill="#c0bfa6"/>
<rect x="22" y="1" width="1" height="2" fill="#93dcf2"/>
<rect x="5" y="2" width="2" height="1" fill="#b7e8f5"/>
<rect x="25" y="2" width="3" height="1" fill="#94dcf2"/>
<rect x="17" y="2" width="4" height="1" fill="#97ddf2"/>
<rect x="23" y="2" width="1" height="1" fill="#94dcf2"/>
<rect x="9" y="2" width="1" height="1" fill="#c6edf8"/>
<rect x="7" y="2" width="2" height="1" fill="#ace4f4"/>
<rect x="0" y="2" width="1" height="1" fill="#e5f8fb"/>
<rect x="21" y="2" width="1" height="1" fill="#95dbf2"/>
<rect x="4" y="2" width="1" height="1" fill="#cff1f9"/>
<rect x="3" y="2" width="1" height="1" fill="#f3fdfe"/>
<rect x="24" y="2" width="1" height="1" fill="#93dcf2"/>
<rect x="11" y="2" width="1" height="1" fill="#ace4f4"/>
<rect x="1" y="2" width="1" height="1" fill="#fbfefe"/>
<rect x="15" y="2" width="2" height="1" fill="#9fe0f3"/>
<rect x="2" y="2" width="1" height="1" fill="#ffffff"/>
<rect x="10" y="2" width="1" height="2" fill="#b7e8f5"/>
<rect x="5" y="3" width="1" height="1" fill="#e5f8fb"/>
<rect x="0" y="3" width="1" height="1" fill="#c6edf8"/>
<rect x="7" y="3" width="1" height="1" fill="#b7e8f5"/>
<rect x="6" y="3" width="1" height="1" fill="#bfebf7"/>
<rect x="8" y="3" width="2" height="1" fill="#ace4f4"/>
<rect x="15" y="3" width="3" height="1" fill="#9fe0f3"/>
<rect x="11" y="3" width="1" height="1" fill="#c6edf8"/>
<rect x="1" y="3" width="1" height="1" fill="#cbeff8"/>
<rect x="3" y="3" width="2" height="1" fill="#ffffff"/>
<rect x="18" y="3" width="5" height="1" fill="#97ddf2"/>
<rect x="2" y="3" width="1" height="1" fill="#edfbfe"/>
<rect x="23" y="3" width="1" height="1" fill="#95dbf2"/>
<rect x="24" y="3" width="4" height="1" fill="#94dcf2"/>
<rect x="30" y="0" width="1" height="5" fill="#b5874e"/>
<rect x="29" y="2" width="1" height="3" fill="#d99a4f"/>
<rect x="5" y="4" width="1" height="1" fill="#ffffff"/>
<rect x="15" y="4" width="5" height="1" fill="#9fe0f3"/>
<rect x="8" y="4" width="2" height="1" fill="#b7e8f5"/>
<rect x="0" y="4" width="1" height="1" fill="#cbeff8"/>
<rect x="25" y="4" width="3" height="1" fill="#94dcf2"/>
<rect x="20" y="4" width="4" height="1" fill="#97ddf2"/>
<rect x="10" y="4" width="2" height="1" fill="#ace4f4"/>
<rect x="24" y="4" width="1" height="1" fill="#95dbf2"/>
<rect x="4" y="4" width="1" height="1" fill="#f3fdfe"/>
<rect x="1" y="4" width="2" height="1" fill="#c6edf8"/>
<rect x="6" y="4" width="1" height="2" fill="#fbfefe"/>
<rect x="7" y="5" width="1" height="1" fill="#ffffff"/>
<rect x="5" y="5" width="1" height="1" fill="#e5f8fb"/>
<rect x="26" y="5" width="1" height="1" fill="#95dbf2"/>
<rect x="0" y="5" width="2" height="1" fill="#cbeff8"/>
<rect x="21" y="5" width="5" height="1" fill="#97ddf2"/>
<rect x="2" y="5" width="3" height="1" fill="#c6edf8"/>
<rect x="15" y="5" width="1" height="1" fill="#bfebf7"/>
<rect x="11" y="5" width="1" height="1" fill="#ace4f4"/>
<rect x="9" y="5" width="1" height="1" fill="#cbeff8"/>
<rect x="27" y="5" width="1" height="1" fill="#94dcf2"/>
<rect x="8" y="5" width="1" height="1" fill="#f3fdfe"/>
<rect x="10" y="5" width="1" height="1" fill="#b7e8f5"/>
<rect x="16" y="5" width="1" height="1" fill="#ace4f4"/>
<rect x="17" y="5" width="4" height="1" fill="#9fe0f3"/>
<rect x="30" y="5" width="1" height="2" fill="#a76f3e"/>
<rect x="29" y="5" width="1" height="2" fill="#c58c48"/>
<rect x="0" y="6" width="2" height="1" fill="#cff1f9"/>
<rect x="7" y="6" width="1" height="1" fill="#edfbfe"/>
<rect x="23" y="6" width="4" height="1" fill="#97ddf2"/>
<rect x="16" y="6" width="1" height="1" fill="#cbeff8"/>
<rect x="15" y="6" width="1" height="1" fill="#ace4f4"/>
<rect x="18" y="6" width="5" height="1" fill="#9fe0f3"/>
<rect x="6" y="6" width="1" height="1" fill="#cff1f9"/>
<rect x="11" y="6" width="1" height="1" fill="#c6edf8"/>
<rect x="27" y="6" width="1" height="1" fill="#95dbf2"/>
<rect x="3" y="6" width="3" height="1" fill="#c6edf8"/>
<rect x="10" y="6" width="1" height="1" fill="#edfbfe"/>
<rect x="8" y="6" width="2" height="1" fill="#ffffff"/>
<rect x="2" y="6" width="1" height="1" fill="#cbeff8"/>
<rect x="17" y="6" width="1" height="2" fill="#b7e8f5"/>
<rect x="20" y="7" width="4" height="1" fill="#9fe0f3"/>
<rect x="5" y="7" width="2" height="1" fill="#c6edf8"/>
<rect x="19" y="7" width="1" height="1" fill="#ace4f4"/>
<rect x="9" y="7" width="1" height="1" fill="#f3fdfe"/>
<rect x="24" y="7" width="4" height="1" fill="#97ddf2"/>
<rect x="11" y="7" width="1" height="1" fill="#fbfefe"/>
<rect x="10" y="7" width="1" height="1" fill="#ffffff"/>
<rect x="0" y="7" width="3" height="1" fill="#cff1f9"/>
<rect x="18" y="7" width="1" height="1" fill="#cbeff8"/>
<rect x="3" y="7" width="2" height="1" fill="#cbeff8"/>
<rect x="15" y="7" width="2" height="1" fill="#ace4f4"/>
<rect x="7" y="7" width="1" height="1" fill="#bfebf7"/>
<rect x="14" y="1" width="1" height="8" fill="#c0bfa6"/>
<rect x="28" y="3" width="1" height="6" fill="#a6d8de"/>
<rect x="15" y="8" width="1" height="1" fill="#b7e8f5"/>
<rect x="21" y="8" width="1" height="1" fill="#ace4f4"/>
<rect x="16" y="8" width="3" height="1" fill="#ace4f4"/>
<rect x="8" y="8" width="1" height="1" fill="#bfebf7"/>
<rect x="9" y="8" width="1" height="1" fill="#c6edf8"/>
<rect x="22" y="8" width="4" height="1" fill="#9fe0f3"/>
<rect x="6" y="8" width="2" height="1" fill="#c6edf8"/>
<rect x="20" y="8" width="1" height="1" fill="#c6edf8"/>
<rect x="5" y="8" width="1" height="1" fill="#cbeff8"/>
<rect x="19" y="8" width="1" height="1" fill="#bfebf7"/>
<rect x="26" y="8" width="2" height="1" fill="#97ddf2"/>
<rect x="11" y="8" width="1" height="1" fill="#fbfdfd"/>
<rect x="2" y="8" width="3" height="1" fill="#cff1f9"/>
<rect x="31" y="0" width="1" height="10" fill="#b48044"/>
<rect x="13" y="2" width="1" height="8" fill="#e2a953"/>
<rect x="12" y="3" width="1" height="7" fill="#dcd4bc"/>
<rect x="30" y="7" width="1" height="3" fill="#b5874e"/>
<rect x="22" y="9" width="1" height="1" fill="#bfebf7"/>
<rect x="11" y="9" width="1" height="1" fill="#c6edf8"/>
<rect x="8" y="9" width="2" height="1" fill="#c6edf8"/>
<rect x="3" y="9" width="3" height="1" fill="#cff1f9"/>
<rect x="6" y="9" width="2" height="1" fill="#cbeff8"/>
<rect x="14" y="9" width="1" height="1" fill="#dcd4bc"/>
<rect x="17" y="9" width="1" height="1" fill="#b7e8f5"/>
<rect x="21" y="9" width="1" height="1" fill="#c6edf8"/>
<rect x="18" y="9" width="3" height="1" fill="#ace4f4"/>
<rect x="23" y="9" width="4" height="1" fill="#9fe0f3"/>
<rect x="10" y="9" width="1" height="1" fill="#bfebf7"/>
<rect x="27" y="9" width="2" height="1" fill="#97ddf2"/>
<rect x="29" y="7" width="1" height="4" fill="#e2a953"/>
<rect x="15" y="9" width="1" height="2" fill="#fbfefe"/>
<rect x="7" y="10" width="2" height="1" fill="#cbeff8"/>
<rect x="12" y="10" width="1" height="1" fill="#cce7e6"/>
<rect x="16" y="10" width="1" height="1" fill="#ffffff"/>
<rect x="17" y="10" width="1" height="1" fill="#fbfdfd"/>
<rect x="22" y="10" width="1" height="1" fill="#b7e8f5"/>
<rect x="20" y="10" width="2" height="1" fill="#ace4f4"/>
<rect x="4" y="10" width="3" height="1" fill="#cff1f9"/>
<rect x="23" y="10" width="1" height="1" fill="#cce7e6"/>
<rect x="19" y="10" width="1" height="1" fill="#b7e8f5"/>
<rect x="26" y="10" width="3" height="1" fill="#c0bfa6"/>
<rect x="11" y="10" width="1" height="1" fill="#bfebf7"/>
<rect x="30" y="10" width="2" height="1" fill="#b48044"/>
<rect x="14" y="10" width="1" height="1" fill="#c0bfa6"/>
<rect x="24" y="10" width="2" height="1" fill="#a6d8de"/>
<rect x="9" y="10" width="2" height="1" fill="#c6edf8"/>
<rect x="13" y="10" width="1" height="2" fill="#d99a4f"/>
<rect x="14" y="11" width="1" height="1" fill="#d1ab70"/>
<rect x="30" y="11" width="1" height="1" fill="#b48044"/>
<rect x="6" y="11" width="2" height="1" fill="#cff1f9"/>
<rect x="31" y="11" width="1" height="1" fill="#b5874e"/>
<rect x="16" y="11" width="5" height="1" fill="#e1b770"/>
<rect x="26" y="11" width="4" height="1" fill="#d99a4f"/>
<rect x="8" y="11" width="4" height="1" fill="#cce7e6"/>
<rect x="15" y="11" width="1" height="1" fill="#c0bfa6"/>
<rect x="21" y="11" width="5" height="1" fill="#e2a953"/>
<rect x="12" y="11" width="1" height="1" fill="#dcd4bc"/>
<rect x="20" y="12" width="3" height="1" fill="#c89653"/>
<rect x="27" y="12" width="3" height="1" fill="#c89653"/>
<rect x="12" y="12" width="1" height="1" fill="#dca24e"/>
<rect x="13" y="12" width="3" height="1" fill="#d99a4f"/>
<rect x="30" y="12" width="2" height="1" fill="#b5874e"/>
<rect x="23" y="12" width="4" height="1" fill="#b5874e"/>
<rect x="16" y="12" width="1" height="1" fill="#e2a953"/>
<rect x="3" y="12" width="5" height="1" fill="#e1b770"/>
<rect x="1" y="12" width="2" height="1" fill="#c0bfa6"/>
<rect x="0" y="12" width="1" height="1" fill="#dcd4bc"/>
<rect x="8" y="12" width="4" height="1" fill="#e2a953"/>
<rect x="17" y="12" width="3" height="1" fill="#cf9f58"/>
<rect x="16" y="13" width="1" height="1" fill="#b5874e"/>
<rect x="21" y="13" width="1" height="1" fill="#e2a953"/>
<rect x="4" y="13" width="2" height="1" fill="#cf9f58"/>
<rect x="15" y="13" width="1" height="1" fill="#c89653"/>
<rect x="20" y="13" width="1" height="1" fill="#dca24e"/>
<rect x="18" y="13" width="1" height="1" fill="#c89653"/>
<rect x="0" y="13" width="1" height="1" fill="#d99a4f"/>
<rect x="2" y="13" width="2" height="1" fill="#dca24e"/>
<rect x="6" y="13" width="3" height="1" fill="#c89653"/>
<rect x="19" y="13" width="1" height="1" fill="#cf9f58"/>
<rect x="9" y="13" width="6" height="1" fill="#b5874e"/>
<rect x="28" y="13" width="2" height="1" fill="#dca24e"/>
<rect x="30" y="13" width="1" height="1" fill="#c58c48"/>
<rect x="17" y="13" width="1" height="1" fill="#c58c48"/>
<rect x="24" y="13" width="4" height="1" fill="#d99a4f"/>
<rect x="22" y="13" width="2" height="1" fill="#dca24e"/>
<rect x="1" y="13" width="1" height="2" fill="#e2a953"/>
<rect x="23" y="14" width="4" height="1" fill="#dcd4bc"/>
<rect x="15" y="14" width="5" height="1" fill="#d1ab70"/>
<rect x="11" y="14" width="3" height="1" fill="#e2a953"/>
<rect x="9" y="14" width="2" height="1" fill="#dca24e"/>
<rect x="14" y="14" width="1" height="1" fill="#dca24e"/>
<rect x="20" y="14" width="3" height="1" fill="#c0bfa6"/>
<rect x="27" y="14" width="2" height="1" fill="#a6d8de"/>
<rect x="5" y="14" width="3" height="1" fill="#dca24e"/>
<rect x="8" y="14" width="1" height="1" fill="#d99a4f"/>
<rect x="2" y="14" width="3" height="1" fill="#cf9f58"/>
<rect x="0" y="14" width="1" height="2" fill="#e1b770"/>
<rect x="30" y="14" width="1" height="2" fill="#d99a4f"/>
<rect x="7" y="15" width="3" height="1" fill="#dcd4bc"/>
<rect x="2" y="15" width="2" height="1" fill="#e1b770"/>
<rect x="16" y="15" width="2" height="1" fill="#c6edf8"/>
<rect x="21" y="15" width="2" height="1" fill="#b7e8f5"/>
<rect x="18" y="15" width="3" height="1" fill="#bfebf7"/>
<rect x="23" y="15" width="1" height="1" fill="#bfebf7"/>
<rect x="4" y="15" width="3" height="1" fill="#c0bfa6"/>
<rect x="27" y="15" width="1" height="1" fill="#fbfefe"/>
<rect x="10" y="15" width="2" height="1" fill="#cce7e6"/>
<rect x="1" y="15" width="1" height="1" fill="#d1ab70"/>
<rect x="15" y="15" width="1" height="1" fill="#cbeff8"/>
<rect x="24" y="15" width="1" height="1" fill="#cff1f9"/>
<rect x="25" y="15" width="1" height="1" fill="#f3fdfe"/>
<rect x="28" y="15" width="1" height="1" fill="#edfbfe"/>
<rect x="26" y="15" width="1" height="1" fill="#ffffff"/>
<rect x="12" y="15" width="1" height="1" fill="#dcd4bc"/>
<rect x="17" y="16" width="3" height="1" fill="#c6edf8"/>
<rect x="12" y="16" width="1" height="1" fill="#cce7e6"/>
<rect x="16" y="16" width="1" height="1" fill="#cbeff8"/>
<rect x="5" y="16" width="2" height="1" fill="#e5f8fb"/>
<rect x="20" y="16" width="3" height="1" fill="#bfebf7"/>
<rect x="28" y="16" width="1" height="1" fill="#ffffff"/>
<rect x="4" y="16" width="1" height="1" fill="#fbfefe"/>
<rect x="1" y="16" width="3" height="1" fill="#ffffff"/>
<rect x="0" y="16" width="1" height="1" fill="#fbfdfd"/>
<rect x="26" y="16" width="1" height="1" fill="#cbeff8"/>
<rect x="27" y="16" width="1" height="1" fill="#edfbfe"/>
<rect x="30" y="16" width="1" height="1" fill="#c58c48"/>
<rect x="15" y="16" width="1" height="1" fill="#cff1f9"/>
<rect x="23" y="16" width="3" height="1" fill="#b7e8f5"/>
<rect x="31" y="13" width="1" height="5" fill="#b5874e"/>
<rect x="29" y="14" width="1" height="4" fill="#d1ab70"/>
<rect x="24" y="17" width="4" height="1" fill="#b7e8f5"/>
<rect x="2" y="17" width="3" height="1" fill="#ffffff"/>
<rect x="0" y="17" width="1" height="1" fill="#edfbfe"/>
<rect x="18" y="17" width="3" height="1" fill="#c6edf8"/>
<rect x="30" y="17" width="1" height="1" fill="#b48044"/>
<rect x="7" y="17" width="1" height="1" fill="#e5f8fb"/>
<rect x="15" y="17" width="2" height="1" fill="#cff1f9"/>
<rect x="17" y="17" width="1" height="1" fill="#cbeff8"/>
<rect x="1" y="17" width="1" height="1" fill="#fbfdfd"/>
<rect x="28" y="17" width="1" height="1" fill="#c6edf8"/>
<rect x="21" y="17" width="3" height="1" fill="#bfebf7"/>
<rect x="6" y="17" width="1" height="1" fill="#edfbfe"/>
<rect x="5" y="17" width="1" height="1" fill="#fbfefe"/>
<rect x="7" y="18" width="1" height="1" fill="#f3fdfe"/>
<rect x="0" y="18" width="2" height="1" fill="#edfbfe"/>
<rect x="18" y="18" width="2" height="1" fill="#cbeff8"/>
<rect x="22" y="18" width="4" height="1" fill="#bfebf7"/>
<rect x="29" y="18" width="1" height="1" fill="#e1b770"/>
<rect x="31" y="18" width="1" height="1" fill="#c89653"/>
<rect x="2" y="18" width="1" height="1" fill="#f3fdfe"/>
<rect x="8" y="18" width="2" height="1" fill="#e5f8fb"/>
<rect x="3" y="18" width="4" height="1" fill="#ffffff"/>
<rect x="30" y="18" width="1" height="1" fill="#e2a953"/>
<rect x="20" y="18" width="2" height="1" fill="#c6edf8"/>
<rect x="26" y="18" width="3" height="1" fill="#b7e8f5"/>
<rect x="15" y="18" width="3" height="1" fill="#cff1f9"/>
<rect x="8" y="19" width="1" height="1" fill="#f3fdfe"/>
<rect x="21" y="19" width="3" height="1" fill="#c6edf8"/>
<rect x="27" y="19" width="2" height="1" fill="#b7e8f5"/>
<rect x="16" y="19" width="3" height="1" fill="#cff1f9"/>
<rect x="19" y="19" width="2" height="1" fill="#cbeff8"/>
<rect x="0" y="19" width="3" height="1" fill="#edfbfe"/>
<rect x="24" y="19" width="3" height="1" fill="#bfebf7"/>
<rect x="3" y="19" width="1" height="1" fill="#f3fdfe"/>
<rect x="9" y="19" width="1" height="1" fill="#e5f8fb"/>
<rect x="4" y="19" width="4" height="1" fill="#ffffff"/>
<rect x="10" y="20" width="2" height="1" fill="#e5f8fb"/>
<rect x="25" y="20" width="4" height="1" fill="#bfebf7"/>
<rect x="9" y="20" width="1" height="1" fill="#fbfefe"/>
<rect x="6" y="20" width="3" height="1" fill="#ffffff"/>
<rect x="23" y="20" width="2" height="1" fill="#c6edf8"/>
<rect x="1" y="20" width="4" height="1" fill="#edfbfe"/>
<rect x="17" y="20" width="4" height="1" fill="#cff1f9"/>
<rect x="21" y="20" width="2" height="1" fill="#cbeff8"/>
<rect x="0" y="20" width="1" height="1" fill="#f3fdfe"/>
<rect x="5" y="20" width="1" height="1" fill="#fbfefe"/>
<rect x="12" y="17" width="1" height="5" fill="#dbeeed"/>
<rect x="29" y="19" width="1" height="3" fill="#c0bfa6"/>
<rect x="30" y="19" width="1" height="3" fill="#d99a4f"/>
<rect x="18" y="21" width="4" height="1" fill="#cff1f9"/>
<rect x="2" y="21" width="4" height="1" fill="#edfbfe"/>
<rect x="22" y="21" width="2" height="1" fill="#cbeff8"/>
<rect x="24" y="21" width="2" height="1" fill="#c6edf8"/>
<rect x="26" y="21" width="3" height="1" fill="#bfebf7"/>
<rect x="6" y="21" width="1" height="1" fill="#fbfdfd"/>
<rect x="1" y="21" width="1" height="1" fill="#fbfdfd"/>
<rect x="0" y="21" width="1" height="1" fill="#fbfefe"/>
<rect x="11" y="21" width="1" height="1" fill="#edfbfe"/>
<rect x="7" y="21" width="4" height="1" fill="#ffffff"/>
<rect x="13" y="15" width="1" height="8" fill="#e2a953"/>
<rect x="2" y="22" width="1" height="1" fill="#fbfefe"/>
<rect x="7" y="22" width="1" height="1" fill="#f3fdfe"/>
<rect x="8" y="22" width="4" height="1" fill="#ffffff"/>
<rect x="25" y="22" width="3" height="1" fill="#c6edf8"/>
<rect x="3" y="22" width="1" height="1" fill="#f3fdfe"/>
<rect x="4" y="22" width="3" height="1" fill="#edfbfe"/>
<rect x="24" y="22" width="1" height="1" fill="#cbeff8"/>
<rect x="20" y="22" width="4" height="1" fill="#cff1f9"/>
<rect x="0" y="22" width="2" height="1" fill="#f3fdfe"/>
<rect x="28" y="22" width="1" height="1" fill="#bfebf7"/>
<rect x="14" y="15" width="1" height="9" fill="#d1ab70"/>
<rect x="31" y="19" width="1" height="5" fill="#b5874e"/>
<rect x="30" y="22" width="1" height="2" fill="#dca24e"/>
<rect x="8" y="23" width="1" height="1" fill="#f3fdfe"/>
<rect x="27" y="23" width="2" height="1" fill="#c6edf8"/>
<rect x="21" y="23" width="3" height="1" fill="#cff1f9"/>
<rect x="3" y="23" width="1" height="1" fill="#fbfefe"/>
<rect x="13" y="23" width="1" height="1" fill="#cf9f58"/>
<rect x="15" y="23" width="1" height="1" fill="#e5f8fb"/>
<rect x="9" y="23" width="3" height="1" fill="#ffffff"/>
<rect x="4" y="23" width="1" height="1" fill="#f3fdfe"/>
<rect x="5" y="23" width="3" height="1" fill="#edfbfe"/>
<rect x="0" y="23" width="3" height="1" fill="#f3fdfe"/>
<rect x="24" y="23" width="3" height="1" fill="#cbeff8"/>
<rect x="6" y="24" width="4" height="1" fill="#edfbfe"/>
<rect x="11" y="24" width="1" height="1" fill="#ffffff"/>
<rect x="15" y="24" width="1" height="1" fill="#f3fdfe"/>
<rect x="16" y="24" width="1" height="1" fill="#e5f8fb"/>
<rect x="5" y="24" width="1" height="1" fill="#f3fdfe"/>
<rect x="10" y="24" width="1" height="1" fill="#fbfefe"/>
<rect x="26" y="24" width="2" height="1" fill="#cbeff8"/>
<rect x="28" y="24" width="1" height="1" fill="#c6edf8"/>
<rect x="13" y="24" width="1" height="1" fill="#d99a4f"/>
<rect x="4" y="24" width="1" height="1" fill="#fbfefe"/>
<rect x="31" y="24" width="1" height="1" fill="#a76f3e"/>
<rect x="23" y="24" width="3" height="1" fill="#cff1f9"/>
<rect x="30" y="24" width="1" height="1" fill="#d99a4f"/>
<rect x="0" y="24" width="4" height="1" fill="#f3fdfe"/>
<rect x="12" y="22" width="1" height="4" fill="#fbfdfd"/>
<rect x="29" y="22" width="1" height="4" fill="#dcd4bc"/>
<rect x="28" y="25" width="1" height="1" fill="#cbeff8"/>
<rect x="5" y="25" width="2" height="1" fill="#fbfefe"/>
<rect x="11" y="25" width="1" height="1" fill="#f3fdfe"/>
<rect x="7" y="25" width="4" height="1" fill="#edfbfe"/>
<rect x="31" y="25" width="1" height="1" fill="#b5874e"/>
<rect x="0" y="25" width="5" height="1" fill="#f3fdfe"/>
<rect x="16" y="25" width="1" height="1" fill="#fbfefe"/>
<rect x="17" y="25" width="1" height="1" fill="#e5f8fb"/>
<rect x="24" y="25" width="4" height="1" fill="#cff1f9"/>
<rect x="30" y="25" width="1" height="1" fill="#dca24e"/>
<rect x="13" y="25" width="1" height="1" fill="#c89653"/>
<rect x="14" y="24" width="1" height="3" fill="#e1b770"/>
<rect x="15" y="25" width="1" height="2" fill="#fbfdfd"/>
<rect x="8" y="26" width="1" height="1" fill="#f3fdfe"/>
<rect x="0" y="26" width="2" height="1" fill="#edfbfe"/>
<rect x="18" y="26" width="1" height="1" fill="#f3fdfe"/>
<rect x="9" y="26" width="4" height="1" fill="#edfbfe"/>
<rect x="29" y="26" width="1" height="1" fill="#cce7e6"/>
<rect x="26" y="26" width="3" height="1" fill="#cff1f9"/>
<rect x="6" y="26" width="2" height="1" fill="#fbfefe"/>
<rect x="2" y="26" width="4" height="1" fill="#f3fdfe"/>
<rect x="31" y="26" width="1" height="1" fill="#a76f3e"/>
<rect x="30" y="26" width="1" height="1" fill="#c58c48"/>
<rect x="16" y="26" width="2" height="1" fill="#ffffff"/>
<rect x="19" y="26" width="1" height="1" fill="#e5f8fb"/>
<rect x="13" y="26" width="1" height="1" fill="#b5874e"/>
<rect x="5" y="27" width="8" height="1" fill="#dcd4bc"/>
<rect x="25" y="27" width="4" height="1" fill="#c0bfa6"/>
<rect x="29" y="27" width="1" height="1" fill="#e1b770"/>
<rect x="15" y="27" width="10" height="1" fill="#dcd4bc"/>
<rect x="0" y="27" width="5" height="1" fill="#dbeeed"/>
<rect x="31" y="27" width="1" height="1" fill="#c89653"/>
<rect x="30" y="27" width="1" height="1" fill="#e2a953"/>
<rect x="14" y="27" width="1" height="1" fill="#cf9f58"/>
<rect x="13" y="27" width="1" height="1" fill="#c89653"/>
<rect x="0" y="28" width="7" height="1" fill="#dca24e"/>
<rect x="7" y="28" width="2" height="1" fill="#d99a4f"/>
<rect x="10" y="28" width="3" height="1" fill="#d99a4f"/>
<rect x="13" y="28" width="18" height="1" fill="#dca24e"/>
<rect x="31" y="28" width="1" height="1" fill="#b5874e"/>
<rect x="9" y="28" width="1" height="1" fill="#dca24e"/>
<rect x="27" y="29" width="1" height="1" fill="#c89653"/>
<rect x="14" y="29" width="2" height="1" fill="#c89653"/>
<rect x="31" y="29" width="1" height="1" fill="#cf9f58"/>
<rect x="28" y="29" width="1" height="1" fill="#cf9f58"/>
<rect x="8" y="29" width="1" height="1" fill="#c89653"/>
<rect x="12" y="29" width="2" height="1" fill="#d1ab70"/>
<rect x="9" y="29" width="3" height="1" fill="#cf9f58"/>
<rect x="0" y="29" width="8" height="1" fill="#cf9f58"/>
<rect x="25" y="29" width="2" height="1" fill="#cf9f58"/>
<rect x="29" y="29" width="2" height="1" fill="#d1ab70"/>
<rect x="16" y="29" width="8" height="1" fill="#cf9f58"/>
<rect x="24" y="29" width="1" height="1" fill="#c89653"/>
<rect x="1" y="30" width="1" height="1" fill="#d99a4f"/>
<rect x="14" y="30" width="1" height="1" fill="#c58c48"/>
<rect x="2" y="30" width="1" height="1" fill="#a76f3e"/>
<rect x="10" y="30" width="1" height="1" fill="#c58c48"/>
<rect x="28" y="30" width="1" height="1" fill="#a76f3e"/>
<rect x="19" y="30" width="1" height="1" fill="#c58c48"/>
<rect x="12" y="30" width="1" height="1" fill="#dca24e"/>
<rect x="4" y="30" width="3" height="1" fill="#c58c48"/>
<rect x="9" y="30" width="1" height="1" fill="#b48044"/>
<rect x="21" y="30" width="7" height="1" fill="#c58c48"/>
<rect x="20" y="30" width="1" height="1" fill="#b48044"/>
<rect x="13" y="30" width="1" height="1" fill="#e2a953"/>
<rect x="8" y="30" width="1" height="1" fill="#a76f3e"/>
<rect x="3" y="30" width="1" height="1" fill="#b48044"/>
<rect x="29" y="30" width="3" height="1" fill="#c58c48"/>
<rect x="17" y="30" width="2" height="1" fill="#d99a4f"/>
<rect x="7" y="30" width="1" height="1" fill="#d99a4f"/>
<rect x="11" y="30" width="1" height="1" fill="#d99a4f"/>
<rect x="16" y="30" width="1" height="1" fill="#c58c48"/>
<rect x="0" y="30" width="1" height="2" fill="#c58c48"/>
<rect x="15" y="30" width="1" height="2" fill="#b48044"/>
<rect x="25" y="31" width="1" height="1" fill="#a76f3e"/>
<rect x="20" y="31" width="2" height="1" fill="#a76f3e"/>
<rect x="23" y="31" width="1" height="1" fill="#a76f3e"/>
<rect x="28" y="31" width="4" height="1" fill="#a76f3e"/>
<rect x="9" y="31" width="2" height="1" fill="#a76f3e"/>
<rect x="11" y="31" width="2" height="1" fill="#b48044"/>
<rect x="13" y="31" width="1" height="1" fill="#c58c48"/>
<rect x="16" y="31" width="2" height="1" fill="#a76f3e"/>
<rect x="22" y="31" width="1" height="1" fill="#b48044"/>
<rect x="6" y="31" width="3" height="1" fill="#b48044"/>
<rect x="14" y="31" width="1" height="1" fill="#dca24e"/>
<rect x="18" y="31" width="2" height="1" fill="#b48044"/>
<rect x="1" y="31" width="1" height="1" fill="#b48044"/>
<rect x="2" y="31" width="4" height="1" fill="#a76f3e"/>
<rect x="26" y="31" width="2" height="1" fill="#b48044"/>
<rect x="24" y="31" width="1" height="1" fill="#b48044"/>
</svg>