<?xml version="1.0" encoding="UTF-8"?>
<svg xmlns="http://www.w3.org/2000/svg" width="40mm" height="20mm" viewBox="0 0 64 32" shape-rendering="crispEdges">
<title>073 front physical-size-aware structured redraw</title>
<metadata>no embedded raster; one physical particle; physical-face=40x20mm</metadata>
<rect x="0" y="0" width="64" height="1" fill="#b93e3b"/>
<rect x="0" y="1" width="64" height="1" fill="#b93e3b"/>
<rect x="0" y="2" width="64" height="1" fill="#b93e3b"/>
<rect x="0" y="3" width="64" height="1" fill="#b93e3b"/>
<rect x="0" y="4" width="64" height="1" fill="#b93e3b"/>
<rect x="0" y="5" width="64" height="1" fill="#b93e3b"/>
<rect x="0" y="6" width="64" height="1" fill="#b93e3b"/>
<rect x="0" y="7" width="64" height="1" fill="#b93e3b"/>
<rect x="0" y="8" width="64" height="1" fill="#6d4a2e"/>
<rect x="0" y="9" width="64" height="1" fill="#6d4a2e"/>
<rect x="0" y="10" width="64" height="1" fill="#6d4a2e"/>
<rect x="0" y="11" width="7" height="1" fill="#ad7c42"/>
<rect x="7" y="11" width="2" height="1" fill="#815b37"/>
<rect x="9" y="11" width="6" height="1" fill="#ad7c42"/>
<rect x="15" y="11" width="2" height="1" fill="#815b37"/>
<rect x="17" y="11" width="6" height="1" fill="#ad7c42"/>
<rect x="23" y="11" width="2" height="1" fill="#815b37"/>
<rect x="25" y="11" width="6" height="1" fill="#ad7c42"/>
<rect x="31" y="11" width="2" height="1" fill="#815b37"/>
<rect x="33" y="11" width="6" height="1" fill="#ad7c42"/>
<rect x="39" y="11" width="2" height="1" fill="#815b37"/>
<rect x="41" y="11" width="6" height="1" fill="#ad7c42"/>
<rect x="47" y="11" width="2" height="1" fill="#815b37"/>
<rect x="49" y="11" width="6" height="1" fill="#ad7c42"/>
<rect x="55" y="11" width="2" height="1" fill="#815b37"/>
<rect x="57" y="11" width="6" height="1" fill="#ad7c42"/>
<rect x="63" y="11" width="1" height="1" fill="#815b37"/>
<rect x="0" y="12" width="7" height="1" fill="#ad7c42"/>
<rect x="7" y="12" width="2" height="1" fill="#815b37"/>
<rect x="9" y="12" width="6" height="1" fill="#ad7c42"/>
<rect x="15" y="12" width="2" height="1" fill="#815b37"/>
<rect x="17" y="12" width="6" height="1" fill="#ad7c42"/>
<rect x="23" y="12" width="2" height="1" fill="#815b37"/>
<rect x="25" y="12" width="6" height="1" fill="#ad7c42"/>
<rect x="31" y="12" width="2" height="1" fill="#815b37"/>
<rect x="33" y="12" width="6" height="1" fill="#ad7c42"/>
<rect x="39" y="12" width="2" height="1" fill="#815b37"/>
<rect x="41" y="12" width="6" height="1" fill="#ad7c42"/>
<rect x="47" y="12" width="2" height="1" fill="#815b37"/>
<rect x="49" y="12" width="6" height="1" fill="#ad7c42"/>
<rect x="55" y="12" width="2" height="1" fill="#815b37"/>
<rect x="57" y="12" width="6" height="1" fill="#ad7c42"/>
<rect x="63" y="12" width="1" height="1" fill="#815b37"/>
<rect x="0" y="13" width="7" height="1" fill="#ad7c42"/>
<rect x="7" y="13" width="2" height="1" fill="#815b37"/>
<rect x="9" y="13" width="6" height="1" fill="#ad7c42"/>
<rect x="15" y="13" width="2" height="1" fill="#815b37"/>
<rect x="17" y="13" width="6" height="1" fill="#ad7c42"/>
<rect x="23" y="13" width="2" height="1" fill="#815b37"/>
<rect x="25" y="13" width="6" height="1" fill="#ad7c42"/>
<rect x="31" y="13" width="2" height="1" fill="#815b37"/>
<rect x="33" y="13" width="6" height="1" fill="#ad7c42"/>
<rect x="39" y="13" width="2" height="1" fill="#815b37"/>
<rect x="41" y="13" width="6" height="1" fill="#ad7c42"/>
<rect x="47" y="13" width="2" height="1" fill="#815b37"/>
<rect x="49" y="13" width="6" height="1" fill="#ad7c42"/>
<rect x="55" y="13" width="2" height="1" fill="#815b37"/>
<rect x="57" y="13" width="6" height="1" fill="#ad7c42"/>
<rect x="63" y="13" width="1" height="1" fill="#815b37"/>
<rect x="0" y="14" width="7" height="1" fill="#ad7c42"/>
<rect x="7" y="14" width="2" height="1" fill="#815b37"/>
<rect x="9" y="14" width="6" height="1" fill="#ad7c42"/>
<rect x="15" y="14" width="2" height="1" fill="#815b37"/>
<rect x="17" y="14" width="6" height="1" fill="#ad7c42"/>
<rect x="23" y="14" width="2" height="1" fill="#815b37"/>
<rect x="25" y="14" width="6" height="1" fill="#ad7c42"/>
<rect x="31" y="14" width="2" height="1" fill="#815b37"/>
<rect x="33" y="14" width="6" height="1" fill="#ad7c42"/>
<rect x="39" y="14" width="2" height="1" fill="#815b37"/>
<rect x="41" y="14" width="6" height="1" fill="#ad7c42"/>
<rect x="47" y="14" width="2" height="1" fill="#815b37"/>
<rect x="49" y="14" width="6" height="1" fill="#ad7c42"/>
<rect x="55" y="14" width="2" height="1" fill="#815b37"/>
<rect x="57" y="14" width="6" height="1" fill="#ad7c42"/>
<rect x="63" y="14" width="1" height="1" fill="#815b37"/>
<rect x="0" y="15" width="7" height="1" fill="#ad7c42"/>
<rect x="7" y="15" width="2" height="1" fill="#815b37"/>
<rect x="9" y="15" width="6" height="1" fill="#ad7c42"/>
<rect x="15" y="15" width="2" height="1" fill="#815b37"/>
<rect x="17" y="15" width="6" height="1" fill="#ad7c42"/>
<rect x="23" y="15" width="2" height="1" fill="#815b37"/>
<rect x="25" y="15" width="6" height="1" fill="#ad7c42"/>
<rect x="31" y="15" width="2" height="1" fill="#815b37"/>
<rect x="33" y="15" width="6" height="1" fill="#ad7c42"/>
<rect x="39" y="15" width="2" height="1" fill="#815b37"/>
<rect x="41" y="15" width="6" height="1" fill="#ad7c42"/>
<rect x="47" y="15" width="2" height="1" fill="#815b37"/>
<rect x="49" y="15" width="6" height="1" fill="#ad7c42"/>
<rect x="55" y="15" width="2" height="1" fill="#815b37"/>
<rect x="57" y="15" width="6" height="1" fill="#ad7c42"/>
<rect x="63" y="15" width="1" height="1" fill="#815b37"/>
<rect x="0" y="16" width="7" height="1" fill="#ad7c42"/>
<rect x="7" y="16" width="2" height="1" fill="#815b37"/>
<rect x="9" y="16" width="6" height="1" fill="#ad7c42"/>
<rect x="15" y="16" width="2" height="1" fill="#815b37"/>
<rect x="17" y="16" width="6" height="1" fill="#ad7c42"/>
<rect x="23" y="16" width="2" height="1" fill="#815b37"/>
<rect x="25" y="16" width="6" height="1" fill="#ad7c42"/>
<rect x="31" y="16" width="2" height="1" fill="#815b37"/>
<rect x="33" y="16" width="6" height="1" fill="#ad7c42"/>
<rect x="39" y="16" width="2" height="1" fill="#815b37"/>
<rect x="41" y="16" width="6" height="1" fill="#ad7c42"/>
<rect x="47" y="16" width="2" height="1" fill="#815b37"/>
<rect x="49" y="16" width="6" height="1" fill="#ad7c42"/>
<rect x="55" y="16" width="2" height="1" fill="#815b37"/>
<rect x="57" y="16" width="6" height="1" fill="#ad7c42"/>
<rect x="63" y="16" width="1" height="1" fill="#815b37"/>
<rect x="0" y="17" width="64" height="1" fill="#c39862"/>
<rect x="0" y="18" width="7" height="1" fill="#ad7c42"/>
<rect x="7" y="18" width="2" height="1" fill="#815b37"/>
<rect x="9" y="18" width="6" height="1" fill="#ad7c42"/>
<rect x="15" y="18" width="2" height="1" fill="#815b37"/>
<rect x="17" y="18" width="6" height="1" fill="#ad7c42"/>
<rect x="23" y="18" width="2" height="1" fill="#815b37"/>
<rect x="25" y="18" width="6" height="1" fill="#ad7c42"/>
<rect x="31" y="18" width="2" height="1" fill="#815b37"/>
<rect x="33" y="18" width="6" height="1" fill="#ad7c42"/>
<rect x="39" y="18" width="2" height="1" fill="#815b37"/>
<rect x="41" y="18" width="6" height="1" fill="#ad7c42"/>
<rect x="47" y="18" width="2" height="1" fill="#815b37"/>
<rect x="49" y="18" width="6" height="1" fill="#ad7c42"/>
<rect x="55" y="18" width="2" height="1" fill="#815b37"/>
<rect x="57" y="18" width="6" height="1" fill="#ad7c42"/>
<rect x="63" y="18" width="1" height="1" fill="#815b37"/>
<rect x="0" y="19" width="7" height="1" fill="#ad7c42"/>
<rect x="7" y="19" width="2" height="1" fill="#815b37"/>
<rect x="9" y="19" width="6" height="1" fill="#ad7c42"/>
<rect x="15" y="19" width="2" height="1" fill="#815b37"/>
<rect x="17" y="19" width="6" height="1" fill="#ad7c42"/>
<rect x="23" y="19" width="2" height="1" fill="#815b37"/>
<rect x="25" y="19" width="6" height="1" fill="#ad7c42"/>
<rect x="31" y="19" width="2" height="1" fill="#815b37"/>
<rect x="33" y="19" width="6" height="1" fill="#ad7c42"/>
<rect x="39" y="19" width="2" height="1" fill="#815b37"/>
<rect x="41" y="19" width="6" height="1" fill="#ad7c42"/>
<rect x="47" y="19" width="2" height="1" fill="#815b37"/>
<rect x="49" y="19" width="6" height="1" fill="#ad7c42"/>
<rect x="55" y="19" width="2" height="1" fill="#815b37"/>
<rect x="57" y="19" width="6" height="1" fill="#ad7c42"/>
<rect x="63" y="19" width="1" height="1" fill="#815b37"/>
<rect x="0" y="20" width="7" height="1" fill="#ad7c42"/>
<rect x="7" y="20" width="2" height="1" fill="#815b37"/>
<rect x="9" y="20" width="6" height="1" fill="#ad7c42"/>
<rect x="15" y="20" width="2" height="1" fill="#815b37"/>
<rect x="17" y="20" width="6" height="1" fill="#ad7c42"/>
<rect x="23" y="20" width="2" height="1" fill="#815b37"/>
<rect x="25" y="20" width="6" height="1" fill="#ad7c42"/>
<rect x="31" y="20" width="2" height="1" fill="#815b37"/>
<rect x="33" y="20" width="6" height="1" fill="#ad7c42"/>
<rect x="39" y="20" width="2" height="1" fill="#815b37"/>
<rect x="41" y="20" width="6" height="1" fill="#ad7c42"/>
<rect x="47" y="20" width="2" height="1" fill="#815b37"/>
<rect x="49" y="20" width="6" height="1" fill="#ad7c42"/>
<rect x="55" y="20" width="2" height="1" fill="#815b37"/>
<rect x="57" y="20" width="6" height="1" fill="#ad7c42"/>
<rect x="63" y="20" width="1" height="1" fill="#815b37"/>
<rect x="0" y="21" width="7" height="1" fill="#ad7c42"/>
<rect x="7" y="21" width="2" height="1" fill="#815b37"/>
<rect x="9" y="21" width="6" height="1" fill="#ad7c42"/>
<rect x="15" y="21" width="2" height="1" fill="#815b37"/>
<rect x="17" y="21" width="6" height="1" fill="#ad7c42"/>
<rect x="23" y="21" width="2" height="1" fill="#815b37"/>
<rect x="25" y="21" width="6" height="1" fill="#ad7c42"/>
<rect x="31" y="21" width="2" height="1" fill="#815b37"/>
<rect x="33" y="21" width="6" height="1" fill="#ad7c42"/>
<rect x="39" y="21" width="2" height="1" fill="#815b37"/>
<rect x="41" y="21" width="6" height="1" fill="#ad7c42"/>
<rect x="47" y="21" width="2" height="1" fill="#815b37"/>
<rect x="49" y="21" width="6" height="1" fill="#ad7c42"/>
<rect x="55" y="21" width="2" height="1" fill="#815b37"/>
<rect x="57" y="21" width="6" height="1" fill="#ad7c42"/>
<rect x="63" y="21" width="1" height="1" fill="#815b37"/>
<rect x="0" y="22" width="7" height="1" fill="#ad7c42"/>
<rect x="7" y="22" width="2" height="1" fill="#815b37"/>
<rect x="9" y="22" width="6" height="1" fill="#ad7c42"/>
<rect x="15" y="22" width="2" height="1" fill="#815b37"/>
<rect x="17" y="22" width="6" height="1" fill="#ad7c42"/>
<rect x="23" y="22" width="2" height="1" fill="#815b37"/>
<rect x="25" y="22" width="6" height="1" fill="#ad7c42"/>
<rect x="31" y="22" width="2" height="1" fill="#815b37"/>
<rect x="33" y="22" width="6" height="1" fill="#ad7c42"/>
<rect x="39" y="22" width="2" height="1" fill="#815b37"/>
<rect x="41" y="22" width="6" height="1" fill="#ad7c42"/>
<rect x="47" y="22" width="2" height="1" fill="#815b37"/>
<rect x="49" y="22" width="6" height="1" fill="#ad7c42"/>
<rect x="55" y="22" width="2" height="1" fill="#815b37"/>
<rect x="57" y="22" width="6" height="1" fill="#ad7c42"/>
<rect x="63" y="22" width="1" height="1" fill="#815b37"/>
<rect x="0" y="23" width="7" height="1" fill="#ad7c42"/>
<rect x="7" y="23" width="2" height="1" fill="#815b37"/>
<rect x="9" y="23" width="6" height="1" fill="#ad7c42"/>
<rect x="15" y="23" width="2" height="1" fill="#815b37"/>
<rect x="17" y="23" width="6" height="1" fill="#ad7c42"/>
<rect x="23" y="23" width="2" height="1" fill="#815b37"/>
<rect x="25" y="23" width="6" height="1" fill="#ad7c42"/>
<rect x="31" y="23" width="2" height="1" fill="#815b37"/>
<rect x="33" y="23" width="6" height="1" fill="#ad7c42"/>
<rect x="39" y="23" width="2" height="1" fill="#815b37"/>
<rect x="41" y="23" width="6" height="1" fill="#ad7c42"/>
<rect x="47" y="23" width="2" height="1" fill="#815b37"/>
<rect x="49" y="23" width="6" height="1" fill="#ad7c42"/>
<rect x="55" y="23" width="2" height="1" fill="#815b37"/>
<rect x="57" y="23" width="6" height="1" fill="#ad7c42"/>
<rect x="63" y="23" width="1" height="1" fill="#815b37"/>
<rect x="0" y="24" width="7" height="1" fill="#ad7c42"/>
<rect x="7" y="24" width="2" height="1" fill="#815b37"/>
<rect x="9" y="24" width="6" height="1" fill="#ad7c42"/>
<rect x="15" y="24" width="2" height="1" fill="#815b37"/>
<rect x="17" y="24" width="6" height="1" fill="#ad7c42"/>
<rect x="23" y="24" width="2" height="1" fill="#815b37"/>
<rect x="25" y="24" width="6" height="1" fill="#ad7c42"/>
<rect x="31" y="24" width="2" height="1" fill="#815b37"/>
<rect x="33" y="24" width="6" height="1" fill="#ad7c42"/>
<rect x="39" y="24" width="2" height="1" fill="#815b37"/>
<rect x="41" y="24" width="6" height="1" fill="#ad7c42"/>
<rect x="47" y="24" width="2" height="1" fill="#815b37"/>
<rect x="49" y="24" width="6" height="1" fill="#ad7c42"/>
<rect x="55" y="24" width="2" height="1" fill="#815b37"/>
<rect x="57" y="24" width="6" height="1" fill="#ad7c42"/>
<rect x="63" y="24" width="1" height="1" fill="#815b37"/>
<rect x="0" y="25" width="64" height="1" fill="#c39862"/>
<rect x="0" y="26" width="7" height="1" fill="#ad7c42"/>
<rect x="7" y="26" width="2" height="1" fill="#815b37"/>
<rect x="9" y="26" width="6" height="1" fill="#ad7c42"/>
<rect x="15" y="26" width="2" height="1" fill="#815b37"/>
<rect x="17" y="26" width="6" height="1" fill="#ad7c42"/>
<rect x="23" y="26" width="2" height="1" fill="#815b37"/>
<rect x="25" y="26" width="6" height="1" fill="#ad7c42"/>
<rect x="31" y="26" width="2" height="1" fill="#815b37"/>
<rect x="33" y="26" width="6" height="1" fill="#ad7c42"/>
<rect x="39" y="26" width="2" height="1" fill="#815b37"/>
<rect x="41" y="26" width="6" height="1" fill="#ad7c42"/>
<rect x="47" y="26" width="2" height="1" fill="#815b37"/>
<rect x="49" y="26" width="6" height="1" fill="#ad7c42"/>
<rect x="55" y="26" width="2" height="1" fill="#815b37"/>
<rect x="57" y="26" width="6" height="1" fill="#ad7c42"/>
<rect x="63" y="26" width="1" height="1" fill="#815b37"/>
<rect x="0" y="27" width="7" height="1" fill="#ad7c42"/>
<rect x="7" y="27" width="2" height="1" fill="#815b37"/>
<rect x="9" y="27" width="6" height="1" fill="#ad7c42"/>
<rect x="15" y="27" width="2" height="1" fill="#815b37"/>
<rect x="17" y="27" width="6" height="1" fill="#ad7c42"/>
<rect x="23" y="27" width="2" height="1" fill="#815b37"/>
<rect x="25" y="27" width="6" height="1" fill="#ad7c42"/>
<rect x="31" y="27" width="2" height="1" fill="#815b37"/>
<rect x="33" y="27" width="6" height="1" fill="#ad7c42"/>
<rect x="39" y="27" width="2" height="1" fill="#815b37"/>
<rect x="41" y="27" width="6" height="1" fill="#ad7c42"/>
<rect x="47" y="27" width="2" height="1" fill="#815b37"/>
<rect x="49" y="27" width="6" height="1" fill="#ad7c42"/>
<rect x="55" y="27" width="2" height="1" fill="#815b37"/>
<rect x="57" y="27" width="6" height="1" fill="#ad7c42"/>
<rect x="63" y="27" width="1" height="1" fill="#815b37"/>
<rect x="0" y="28" width="7" height="1" fill="#ad7c42"/>
<rect x="7" y="28" width="2" height="1" fill="#815b37"/>
<rect x="9" y="28" width="6" height="1" fill="#ad7c42"/>
<rect x="15" y="28" width="2" height="1" fill="#815b37"/>
<rect x="17" y="28" width="6" height="1" fill="#ad7c42"/>
<rect x="23" y="28" width="2" height="1" fill="#815b37"/>
<rect x="25" y="28" width="6" height="1" fill="#ad7c42"/>
<rect x="31" y="28" width="2" height="1" fill="#815b37"/>
<rect x="33" y="28" width="6" height="1" fill="#ad7c42"/>
<rect x="39" y="28" width="2" height="1" fill="#815b37"/>
<rect x="41" y="28" width="6" height="1" fill="#ad7c42"/>
<rect x="47" y="28" width="2" height="1" fill="#815b37"/>
<rect x="49" y="28" width="6" height="1" fill="#ad7c42"/>
<rect x="55" y="28" width="2" height="1" fill="#815b37"/>
<rect x="57" y="28" width="6" height="1" fill="#ad7c42"/>
<rect x="63" y="28" width="1" height="1" fill="#815b37"/>
<rect x="0" y="29" width="7" height="1" fill="#ad7c42"/>
<rect x="7" y="29" width="2" height="1" fill="#815b37"/>
<rect x="9" y="29" width="6" height="1" fill="#ad7c42"/>
<rect x="15" y="29" width="2" height="1" fill="#815b37"/>
<rect x="17" y="29" width="6" height="1" fill="#ad7c42"/>
<rect x="23" y="29" width="2" height="1" fill="#815b37"/>
<rect x="25" y="29" width="6" height="1" fill="#ad7c42"/>
<rect x="31" y="29" width="2" height="1" fill="#815b37"/>
<rect x="33" y="29" width="6" height="1" fill="#ad7c42"/>
<rect x="39" y="29" width="2" height="1" fill="#815b37"/>
<rect x="41" y="29" width="6" height="1" fill="#ad7c42"/>
<rect x="47" y="29" width="2" height="1" fill="#815b37"/>
<rect x="49" y="29" width="6" height="1" fill="#ad7c42"/>
<rect x="55" y="29" width="2" height="1" fill="#815b37"/>
<rect x="57" y="29" width="6" height="1" fill="#ad7c42"/>
<rect x="63" y="29" width="1" height="1" fill="#815b37"/>
<rect x="0" y="30" width="7" height="1" fill="#ad7c42"/>
<rect x="7" y="30" width="2" height="1" fill="#815b37"/>
<rect x="9" y="30" width="6" height="1" fill="#ad7c42"/>
<rect x="15" y="30" width="2" height="1" fill="#815b37"/>
<rect x="17" y="30" width="6" height="1" fill="#ad7c42"/>
<rect x="23" y="30" width="2" height="1" fill="#815b37"/>
<rect x="25" y="30" width="6" height="1" fill="#ad7c42"/>
<rect x="31" y="30" width="2" height="1" fill="#815b37"/>
<rect x="33" y="30" width="6" height="1" fill="#ad7c42"/>
<rect x="39" y="30" width="2" height="1" fill="#815b37"/>
<rect x="41" y="30" width="6" height="1" fill="#ad7c42"/>
<rect x="47" y="30" width="2" height="1" fill="#815b37"/>
<rect x="49" y="30" width="6" height="1" fill="#ad7c42"/>
<rect x="55" y="30" width="2" height="1" fill="#815b37"/>
<rect x="57" y="30" width="6" height="1" fill="#ad7c42"/>
<rect x="63" y="30" width="1" height="1" fill="#815b37"/>
<rect x="0" y="31" width="7" height="1" fill="#ad7c42"/>
<rect x="7" y="31" width="2" height="1" fill="#815b37"/>
<rect x="9" y="31" width="6" height="1" fill="#ad7c42"/>
<rect x="15" y="31" width="2" height="1" fill="#815b37"/>
<rect x="17" y="31" width="6" height="1" fill="#ad7c42"/>
<rect x="23" y="31" width="2" height="1" fill="#815b37"/>
<rect x="25" y="31" width="6" height="1" fill="#ad7c42"/>
<rect x="31" y="31" width="2" height="1" fill="#815b37"/>
<rect x="33" y="31" width="6" height="1" fill="#ad7c42"/>
<rect x="39" y="31" width="2" height="1" fill="#815b37"/>
<rect x="41" y="31" width="6" height="1" fill="#ad7c42"/>
<rect x="47" y="31" width="2" height="1" fill="#815b37"/>
<rect x="49" y="31" width="6" height="1" fill="#ad7c42"/>
<rect x="55" y="31" width="2" height="1" fill="#815b37"/>
<rect x="57" y="31" width="6" height="1" fill="#ad7c42"/>
<rect x="63" y="31" width="1" height="1" fill="#815b37"/>
</svg>